<svg id="Layer_1" data-name="Layer 1" xmlns="http://www.w3.org/2000/svg" viewBox="0 0 556 118">
  <defs>
    <style>
      .cls-1 {
        isolation: isolate;
      }

      .cls-2 {
        fill: #eef395;
        opacity: 0.11;
      }
    </style>
  </defs>
  <title>designsprintdokumentation</title>
  <g>
    <path class="cls-2" d="M65.37,26.47a56,56,0,0,1-7,4.22A48.14,48.14,0,0,0,51,34.84a30.43,30.43,0,0,0-5.45,5,27.77,27.77,0,0,0-5,9.83,32.31,32.31,0,0,0-1.33,13l.82,5,2,4.67,2.73,4.34a15.83,15.83,0,0,0,5.66,5.49,48.3,48.3,0,0,0,11.8,6.17,104.28,104.28,0,0,0,22.15,4.28c4.44.44,8.84,1,13.33.56a59,59,0,0,0,13-3.06c10.74-3.7,20.49-10.19,30.13-16.06,3.63-2.2,7.25-4.41,11-6.46A84.67,84.67,0,0,1,167.32,61l-.72.18A87.69,87.69,0,0,1,180,59.39a110.35,110.35,0,0,1,16.86.34c11.39,1,22.62,3.5,33.72,6.18,22.17,5.37,44.09,12,66.79,14.8,9.76,1.22,19.77,2.11,29.57.91,9.08-1.12,17.81-4.07,26.27-7.44S369.71,66.94,378,63.43A105.14,105.14,0,0,1,389.8,59a65.51,65.51,0,0,1,11.33-2.51l-.73.09a47.27,47.27,0,0,1,11-.18,23.09,23.09,0,0,1,12.95,4.83,71,71,0,0,1,11.29,6.25c1.95,1.25,3.94,2.45,5.95,3.59,9.49,5.48,20,10.36,31,11.28a40.41,40.41,0,0,0,16-1.8,42.56,42.56,0,0,0,15-9.18c4.42-4,7.8-9.08,10.91-14.11,3.94-6.36,7.11-13.18,10.72-19.73a4.05,4.05,0,0,0-2.8.17q-5,1.22-10,2.63t-9.91,3A4,4,0,0,0,500,44.62c-3.12,3.11-5.67,6.67-8.73,9.84a34.63,34.63,0,0,1-9.44,7.08,30.11,30.11,0,0,1-10.4,3.11,43.21,43.21,0,0,1-12.73-1c-10.61-2.12-20.52-6.64-30.61-10.38-8.29-3.09-16.48-5.8-25.3-6.94a76,76,0,0,0-24.62,1.13A100.4,100.4,0,0,0,357.84,54q-4.54,1.92-9,4-5.67,2-11.44,3.81a115.32,115.32,0,0,1-17.2,4A90.37,90.37,0,0,1,303,66.1c-9-.47-17.88-1.34-26.79-2.62-10.7-1.54-21.32-3.69-31.94-5.74C224.8,54,205,49.93,185.11,49.68a149,149,0,0,0-36.82,3.87,89.9,89.9,0,0,0-15.18,5.63c-5.91,2.61-11.63,5.67-17.5,8.37-9.82,4.52-20.7,9.11-31.77,8.21a13.77,13.77,0,0,1-6.36-1.32c-1.35-.54-2.69-1.13-4-1.78a22.59,22.59,0,0,1-5.92-3.85A4.49,4.49,0,0,0,65,66.47a2.54,2.54,0,0,1-.94-2,3.49,3.49,0,0,0-.95-2.22,5.63,5.63,0,0,1,.36-4l.55-2.2a14,14,0,0,1,2.74-4.43,13.72,13.72,0,0,1,2.83-3.75A33.28,33.28,0,0,1,73,44.63a55.83,55.83,0,0,1,8.26-5.44l5.7-2.8q2.7-1.48,5.24-3.22a4.54,4.54,0,0,0-2.67-1.28Q84.3,30.39,79,29.09t-10.66-2.5A4.41,4.41,0,0,0,65.37,26.47Z"/>
    <path class="cls-2" d="M66.91,29.68a61.15,61.15,0,0,1-7,4.19A56,56,0,0,0,52.51,38,28.9,28.9,0,0,0,41,55.07a41.83,41.83,0,0,0-1,10.58,25.15,25.15,0,0,0,3.77,12,24.35,24.35,0,0,0,4.75,6.45l4.35,3.25a47.38,47.38,0,0,0,12.55,5.9,91.34,91.34,0,0,0,13.12,3c3.31.44,6.66.66,10,.93a56.8,56.8,0,0,0,14.68-.39,63.88,63.88,0,0,0,16.34-5.46c10.3-4.85,19.57-11.52,29.34-17.29,3.5-2.07,7-4.09,10.7-5.86a41.14,41.14,0,0,1,7.69-3,28.4,28.4,0,0,1,7.41-1.64l-.75.08,9.3-.9-.76.05a110.63,110.63,0,0,1,16.88.5q8.46.9,16.79,2.6c11.7,2.33,23.22,5.52,34.76,8.57,20.52,5.42,41.29,10.75,62.61,11.66a83.1,83.1,0,0,0,29.2-3.44,193.27,193.27,0,0,0,19.4-7.5c8.12-3.55,16.09-7.57,24.41-10.66A90.38,90.38,0,0,1,398,61.11a54.33,54.33,0,0,1,11.15-1.3h-.76a41.69,41.69,0,0,1,10.78,1.29,66.6,66.6,0,0,1,15,8.16c3.79,2.54,7.6,5.07,11.56,7.33,8.23,4.7,17,8.58,26.43,9.86a38.41,38.41,0,0,0,18.72-1.67A42.9,42.9,0,0,0,506,75.11c9.71-9.58,14.79-22.72,21.09-34.53a3.77,3.77,0,0,0-2.69-.17c-3.29.4-6.57.88-9.83,1.42s-6.54,1.09-9.78,1.74a3.82,3.82,0,0,0-2.51,1,30.87,30.87,0,0,0-4.84,5.85,57.9,57.9,0,0,1-3.8,4.62A36,36,0,0,1,484,63a28.74,28.74,0,0,1-10.78,3.62,44.8,44.8,0,0,1-13-.7C442.42,62.6,426.78,52.25,409,48.66c-3.19-.65-6.61-1.15-9.83-1.48a56.94,56.94,0,0,0-12.78.48,96.65,96.65,0,0,0-17.45,4c-6.22,2-12,4.88-18,7.38a146.71,146.71,0,0,1-20.18,6.46,80,80,0,0,1-17.33,2.63A175.9,175.9,0,0,1,287,66.67c-9.1-1.1-18.13-2.63-27.13-4.33-18.29-3.45-36.46-7.53-54.94-9.84A194.91,194.91,0,0,0,177.61,51a111.64,111.64,0,0,0-29.42,4.15c-21.42,6.29-39.71,23.18-62.88,23.31a34.22,34.22,0,0,1-11.52-2.32,23.4,23.4,0,0,1-8.57-4.76,12.1,12.1,0,0,0-2.5-1.95A6.15,6.15,0,0,1,61,65.81L60,64.06a7.68,7.68,0,0,1,.13-4.74,10.18,10.18,0,0,1,1.21-3.93,10.54,10.54,0,0,1,2.23-3.62,14.86,14.86,0,0,1,2.9-4A29.84,29.84,0,0,1,70,44.36c5.89-4.92,13.11-7.64,19.51-11.76a3.23,3.23,0,0,0-2.29-.9c-3-.51-5.93-.94-8.91-1.31s-6-.74-9-1A3.21,3.21,0,0,0,66.91,29.68Z"/>
    <path class="cls-2" d="M60.58,22.25C54.5,25.56,47.83,28,42.67,32.79,36.31,38.7,33.11,47,32.24,55.56a31.64,31.64,0,0,0,3.67,18.17c1.91,3.43,4.29,7.23,7.26,9.81A53.92,53.92,0,0,0,61,93.37q3.11.85,6.27,1.49a109.64,109.64,0,0,0,12.11,1.6c3.59.28,7.18.39,10.78.42a63.7,63.7,0,0,0,18.8-2.09c7.11-2.08,13.71-5.62,20.09-9.31,8.15-4.71,15.71-10.37,23.7-15.33l5.47-3.33a43.41,43.41,0,0,1,19.86-7c18.23-2.25,36.46,2,53.93,6.83,18.59,5.09,37,11,56,14.54a185.8,185.8,0,0,0,27.42,3.22,79.86,79.86,0,0,0,20-1.4c15.14-3.23,28.77-10.58,42.74-16.95,7.35-3.35,15.09-6.82,23-8.37a53,53,0,0,1,11-1.06A42.78,42.78,0,0,1,434.3,66c8.24,6.43,16.59,12.51,26.5,16.14,9.5,3.49,19.81,4.63,29.6,1.59A40.61,40.61,0,0,0,504.88,76a58,58,0,0,0,9-9.41c7.7-10,12.18-22.06,17.62-33.38.47-1-1.13-.8-1.51-.74-.8.1-3.24.32-3.65,1.21-8.13,17.22-14.95,39-34.89,46.26l-5.61,1.76a36.34,36.34,0,0,1-8.12.76,27.65,27.65,0,0,1-7.85-.59l-9.55-2.57c-8.87-2.93-17-8.31-24.35-13.94-3.17-2.42-6.12-5.56-9.71-7.35a47.28,47.28,0,0,0-11.45-3.25,46,46,0,0,0-16.58.62c-8.2,1.83-15.94,5.06-23.58,8.48-12.48,5.58-24.77,12.42-38.17,15.6l-6.76,1.41a59.4,59.4,0,0,1-15.76.34,108.64,108.64,0,0,1-18.19-1.41q-6.81-1-13.52-2.41c-16.19-3.3-32-8.09-48-12.31-15.27-4-30.71-7.8-46.59-8A81.73,81.73,0,0,0,170,58.65a43.74,43.74,0,0,0-10.44,3.88c-10.58,5.24-20,12.5-29.93,18.78a123.47,123.47,0,0,1-15.45,8.41,52.7,52.7,0,0,1-19.56,4.62,121.17,121.17,0,0,1-21-.73l-5.87-1Q44.79,87.73,39,69.85a14.44,14.44,0,0,1-1.37-7.95l.27-5.83a28.3,28.3,0,0,1,2.81-8.32A32.64,32.64,0,0,1,50.15,35a62.78,62.78,0,0,1,8.42-5.55L61.18,28a61.92,61.92,0,0,0,6.55-2.53c1.35-.57-1.51-1.64-1.54-1.65-1.18-.46-2.39-.87-3.61-1.24A3.73,3.73,0,0,0,60.58,22.25Z"/>
    <path class="cls-2" d="M58.43,33.52C53.49,37.14,47.82,39.6,43,43.41,35.92,49,32.54,58.25,32,67.09c-.21,3.52.06,8.9,1.17,12.33A36.62,36.62,0,0,0,43,95.15a35.84,35.84,0,0,0,8.27,5.41,44,44,0,0,0,9.25,4,85.32,85.32,0,0,0,18.63,3.35c5.23.41,10.54.43,15.79.32a48.8,48.8,0,0,0,13.84-2l7-2.51c16.24-6.4,29.39-18.6,44.71-26.65a47.37,47.37,0,0,1,15.16-5.46,93.33,93.33,0,0,1,27.47.12c16.85,2.49,33.16,7.57,49.51,12.17,17.37,4.88,34.95,9.47,52.95,11.18a113.93,113.93,0,0,0,25.51,0,84.32,84.32,0,0,0,14.3-3.51c16.37-5.14,31-14.58,47.22-20a60.37,60.37,0,0,1,16.85-3.39,28.08,28.08,0,0,1,8,.42,29.24,29.24,0,0,1,15.35,7.5c5.91,4.77,11.91,9.42,18.6,13.06a60.69,60.69,0,0,0,24.42,7.54,43.34,43.34,0,0,0,17.19-2.5c6.37-2.17,11.89-6.32,16.66-11a74.18,74.18,0,0,0,8.2-10.8q2.6-4.27,4.76-8.79c3.12-6.27,5.84-12.73,8.82-19.06.43-.91-3.52-1.9-4.1-.75-5.25,10.48-9.85,21.6-17.56,30.6a44.41,44.41,0,0,1-15,11.45,45.59,45.59,0,0,1-27.69,2.8c-9.57-2.06-18.44-6.2-26.76-11.29-2.85-1.75-5.62-3.6-8.39-5.47-2.6-1.75-5.12-3.81-8-5.15-4-1.89-8.9-2.56-13.28-2.87a49.86,49.86,0,0,0-16.48,1.83c-11.55,3.07-22.24,8.43-33.19,13.09a181.34,181.34,0,0,1-20.33,7.37c-13,3.79-25.69,3.69-38.87,2.37C283.85,86.8,266.3,82.43,248.88,78c-8.34-2.13-16.65-4.37-25.06-6.22a207.12,207.12,0,0,0-24.69-4.36,111,111,0,0,0-21-.2,51.09,51.09,0,0,0-16.51,3.92c-8.66,3.86-16.52,9.16-24.5,14.23-11.71,7.44-23.92,14.46-37.88,16.43-5.17.73-10.6.5-15.82.35a85.94,85.94,0,0,1-16.05-2,51.61,51.61,0,0,1-16-6.32,16.86,16.86,0,0,1-6.24-5.26,28,28,0,0,1-4.66-6.69l-2.23-5.08a36.69,36.69,0,0,1,1.09-20.94C40.91,51.92,43,48,46.2,45.22,51,41.06,57,38.39,62.06,34.55c.52-.4.61-.86-.06-1.19A6,6,0,0,0,58.43,33.52Z"/>
    <path class="cls-2" d="M65.8,30.87a74.11,74.11,0,0,1-8.42,5,58.76,58.76,0,0,0-5.89,3.44c-6.75,4.63-10.73,11.85-12.1,19.82a34.77,34.77,0,0,0,.11,13.1c.87,4.06,3.68,8.22,6.28,11.39A15.33,15.33,0,0,0,52,88.87l4.89,2.68c5,2.59,10.15,3.75,15.65,4.81A110.25,110.25,0,0,0,85.11,98a75.63,75.63,0,0,0,13.54.36c11.42-1.15,21.86-7,31.55-12.77,10-5.93,19.38-12.91,30.12-17.47a47,47,0,0,1,12.54-3.51l8.58-.82a110.69,110.69,0,0,1,17,.56l-.83-.1,9.26,1.23-.81-.14c11.74,2.14,23.25,4.84,34.79,7.89,8.7,2.3,17.38,4.71,26.13,6.82a280.24,280.24,0,0,0,31.43,6c9.77,1.21,19.81,2.1,29.62.76,15.79-2.15,30.36-9.67,44.73-16.08a148.61,148.61,0,0,1,17.83-7.08,64.8,64.8,0,0,1,11.36-2.46,46.16,46.16,0,0,1,11,0l-.82-.13,6.22,1.18-.81-.17a22.12,22.12,0,0,1,8.4,3.66c2.29,1.51,4.57,3,6.84,4.55,2.75,1.83,5.49,3.66,8.31,5.37,9.28,5.64,19,10.56,29.89,12a37.61,37.61,0,0,0,18.63-1.8,42.07,42.07,0,0,0,14.86-9.79c9.39-9.56,14.28-22.55,20.47-34.16a4.3,4.3,0,0,0-2.88-.3q-5.31.38-10.62,1c-3.54.35-7.06.77-10.58,1.27a4.26,4.26,0,0,0-2.75.89,25.74,25.74,0,0,0-4.78,5.16l-2.51,2.83A44.52,44.52,0,0,1,483.55,59a26.47,26.47,0,0,1-9.05,3.8,34.71,34.71,0,0,1-14.21.15c-9.75-1.71-19-5.34-28.21-8.93s-18.81-6.93-28.78-8.2q-4.08-.56-8.18-.91a53.83,53.83,0,0,0-9.16.46,100.43,100.43,0,0,0-20.57,4.48l-5.79,2q-6.17,2.57-12.27,5.28a164.05,164.05,0,0,1-17,5.27,86.17,86.17,0,0,1-16.93,2.83,158.09,158.09,0,0,1-20.07-.72C275,63,256.91,59.27,238.83,55.89,220.5,52.45,202,49.19,183.3,49c-15.7-.19-31.78,1.52-46.43,7.38-10.09,4-19.57,9.39-29.64,13.45a82.69,82.69,0,0,1-14.15,4.37,40.2,40.2,0,0,1-9.67.64l-5-.67a34.92,34.92,0,0,1-7.81-3.35,12.23,12.23,0,0,1-3.23-2.29L66,66.83A2.72,2.72,0,0,1,64.21,65L64,63.39a3.88,3.88,0,0,1-.85-3.1l.63-2.13a11.63,11.63,0,0,1,2-4.62,22.48,22.48,0,0,0,2.53-3.21,28.57,28.57,0,0,1,6.82-6.57c5.81-4.17,12.33-6.92,18.3-10.81a4.46,4.46,0,0,0-2.85-.81q-5.44-.6-10.91-1t-10.93-.67A4.54,4.54,0,0,0,65.8,30.87Z"/>
    <path class="cls-2" d="M66.19,27.92a54,54,0,0,1-7,4.24,53.45,53.45,0,0,0-7.38,4.15A28.21,28.21,0,0,0,40.52,53.42,40.26,40.26,0,0,0,39.77,64a24.43,24.43,0,0,0,4.06,11.79A25.2,25.2,0,0,0,48.6,82L53,85A48,48,0,0,0,65.2,90.49a98.17,98.17,0,0,0,12.54,2.78c3.18.43,6.41.68,9.61,1a56.25,56.25,0,0,0,14.32-.21,62.35,62.35,0,0,0,16.15-5.21c10.26-4.7,19.52-11.23,29.24-16.89,3.5-2,7.05-4,10.7-5.81a44.72,44.72,0,0,1,7.69-3,29.27,29.27,0,0,1,7.41-1.66l-.78.11a95.64,95.64,0,0,1,17-1,135.49,135.49,0,0,1,16.82,1.54c11.44,1.68,22.69,4.5,33.89,7.36,22.26,5.67,44.43,12,67.44,13.66,9.13.68,18.08.76,27.08-1.2s17.56-5.42,26-9c8.13-3.49,16.11-7.46,24.41-10.54a92.21,92.21,0,0,1,11.53-3.48,54.29,54.29,0,0,1,11.15-1.34h-.79a41.68,41.68,0,0,1,10.79,1.19,68.15,68.15,0,0,1,15.15,7.88c3.85,2.47,7.7,4.94,11.69,7.16,8.29,4.61,17,8.49,26.49,9.8a38.55,38.55,0,0,0,18.58-1.51,42.65,42.65,0,0,0,15-9.33c9.73-9.35,15-22.28,21.34-33.9a4.55,4.55,0,0,0-3,0c-3.57.66-7.14,1.39-10.68,2.19s-7.1,1.58-10.62,2.49a4.42,4.42,0,0,0-2.7,1.2c-5.43,5.15-9.5,11.83-16.37,15.35-1.43.75-2.87,1.45-4.35,2.11a42.32,42.32,0,0,1-5.33,1.2,37.86,37.86,0,0,1-14.53-.67c-9.86-2.09-19.13-6-28.53-9.54-9-3.38-18.09-6.19-27.67-7.38-2.25-.28-4.5-.52-6.76-.66-6-.35-12.14.69-18,1.83a111.89,111.89,0,0,0-17.38,5.16q-6.09,2.55-12.1,5.25c-2.83,1-5.67,1.94-8.54,2.82A128.53,128.53,0,0,1,322,64.46a88.67,88.67,0,0,1-19.87.77c-9-.5-17.87-1.27-26.76-2.63-9.16-1.39-18.27-3.09-27.37-4.81-18.37-3.48-36.79-7.18-55.49-8.31-16.81-1-34.39-.12-50.5,5.19-11.2,3.69-21.53,9.84-32.38,14.41A86,86,0,0,1,95.32,73.8a32.45,32.45,0,0,1-7.14,1.09A34.87,34.87,0,0,1,78.41,74a40.86,40.86,0,0,1-7.61-3.7l-1.51-1a11.5,11.5,0,0,1-2.75-3,1.72,1.72,0,0,1-1.39-1.06,2.41,2.41,0,0,1-.51-2.09A2.69,2.69,0,0,1,63.81,61a4.05,4.05,0,0,1,.55-2.92,10.92,10.92,0,0,1,1.88-4.52l1.52-1.87a17.89,17.89,0,0,1,3.93-4.77l2.36-2.12a49.21,49.21,0,0,1,9.73-6.13,90,90,0,0,0,9.58-5.38,4.56,4.56,0,0,0-2.74-1.15q-5.33-1.25-10.7-2.27t-10.77-2A4.48,4.48,0,0,0,66.19,27.92Z"/>
    <path class="cls-2" d="M62.57,31.78a71.39,71.39,0,0,1-7.09,4.11,51,51,0,0,0-7.34,4.17A30,30,0,0,0,38.7,50.91a33.79,33.79,0,0,0-3.56,12.48,37.45,37.45,0,0,0,.56,11.13l1.84,5.19a24.53,24.53,0,0,0,4.67,7.19A13.58,13.58,0,0,0,46.43,91,34.45,34.45,0,0,0,54,95.88a68.23,68.23,0,0,0,25.62,6.66c4.25.29,8.64.69,12.88.6a60.43,60.43,0,0,0,13.65-1.82c5.65-1.42,11.25-4.15,16.37-6.9s10.23-5.91,15.23-9.12c3.76-2.42,7.51-4.89,11.31-7.25a122.72,122.72,0,0,1,15.87-8.29l-.48.17a37.61,37.61,0,0,1,9.85-2.44,90.1,90.1,0,0,1,16.9-.76c11.3.47,22.45,2.77,33.4,5.44,21.9,5.34,43.33,12.41,65.6,16.17,10.54,1.77,21.41,3.13,32.12,2.62,9.24-.43,18-2.8,26.66-6s16.95-7.3,25.35-11.12q6-2.83,12.22-5.3A88.32,88.32,0,0,1,398,65l-.52.09,6.11-1-.52.08a42.84,42.84,0,0,1,10.91,0,31.39,31.39,0,0,1,16.73,7.28c3.61,2.47,7,5.21,10.66,7.62,8.32,5.49,17.62,10.21,27.51,12a45.52,45.52,0,0,0,16,0c7.88-1.37,15.49-5.91,21-11.6,9.9-10.23,15.33-23.28,21.71-35.77a1.32,1.32,0,0,0-1.38-.38c-1.16.08-2.31.22-3.46.41-1.43.2-2.86.43-4.29.71a7.92,7.92,0,0,0-2.91.83c-5.78,8.1-10.34,17.43-18.36,23.67A40.45,40.45,0,0,1,487,75a38.15,38.15,0,0,1-14.2,2.69c-17.85,0-33.39-10.12-49-17.41a67.74,67.74,0,0,0-9.84-3.69,47,47,0,0,0-16.74-1.42,81.72,81.72,0,0,0-23.44,5.64c-5.33,2.14-10.43,4.78-15.78,6.89-5.06,2-10.15,4-15.32,5.67a104.73,104.73,0,0,1-18.74,4.46c-6.71.93-14.35.53-21,.05-16.59-1.2-32.9-4.39-49.11-8-16-3.54-31.88-7.51-48.09-9.71a144.15,144.15,0,0,0-26-1.55A93.58,93.58,0,0,0,160,61.25c-8.37,2.23-16,6.36-23.47,10.58-5.46,3.06-10.83,6.3-16.42,9.13a88.26,88.26,0,0,1-17.25,7,63.5,63.5,0,0,1-15.33,2.16,76.82,76.82,0,0,1-11.91-1,47.25,47.25,0,0,1-12.82-3.93c-3.41-1.55-7.25-3.9-9.56-7-2.12-2.79-4.28-6.11-4.88-9.6l-.37-3.87a25.13,25.13,0,0,1,1.15-7.93l-.22.49Q50.1,54.59,51.43,52a18.38,18.38,0,0,1,3-4.82l-.34.39,2.74-2.94-.37.37a52.69,52.69,0,0,1,9.87-6.81c3.44-1.78,6.92-3.47,10.3-5.38,1.83-1-4.24-1.18-3.57-1.14-2.31-.1-4.61-.15-6.92-.15A11.76,11.76,0,0,0,62.57,31.78Z"/>
    <path class="cls-2" d="M62.27,25.29c-4.47,2.4-9.11,4.35-13.38,7.12a31.37,31.37,0,0,0-9.73,9.73,33.06,33.06,0,0,0-3.25,7.56,36.79,36.79,0,0,0-1.7,15.1l.91,5.86,2.36,5.68,3.26,5.28a21.4,21.4,0,0,0,6.87,6.72,50.73,50.73,0,0,0,15,7.72,85.87,85.87,0,0,0,12.5,2.49,122.49,122.49,0,0,0,25,.71c15.79-1.18,29.41-10,42.23-18.61,7.91-5.28,15.73-10.82,24.43-14.73a23.23,23.23,0,0,1,11.38-2.63,36.4,36.4,0,0,1,13-1.42,122.42,122.42,0,0,1,20.92,2.2c12.78,2.38,25.27,6.16,37.75,9.72,13.16,3.76,26.36,7.38,39.79,10a183.65,183.65,0,0,0,22.77,2.93c6.83.46,13.94.83,20.73-.34,10.52-1.81,20.47-5.73,30.15-10.13,9.16-4.17,18.13-8.91,27.57-12.45a93.55,93.55,0,0,1,11.47-3.48,35.89,35.89,0,0,1,18.46-.07,29.84,29.84,0,0,1,7.84,2.54l-3.5-2.1c10.89,7.41,20.47,16.6,32.53,22.17,9.68,4.47,20.64,6.83,31.23,4.5s19.9-9.21,26.29-17.88c7.28-9.87,11.78-21.24,17-32.25.6-1.26-2-.48-2.19-.43-1.22.32-2.43.7-3.62,1.12a3.7,3.7,0,0,0-1.77.93c-2.2,4.63-4.24,9.34-6.49,13.95q-5.29,16.1-20.62,22.5-6.94,8.17-16.86,8.25c-11.57.8-23.37-3.5-33.15-9.36-6.12-3.67-11.73-8-17.56-12.09a38.34,38.34,0,0,0-4.5-2.85c-3.44-1.75-7.93-2.42-11.78-2.94C403.94,55,393.84,57.57,384.78,61c-12.28,4.62-23.73,11.23-36,15.77-6.29,2.33-12.78,4.54-19.46,5.36a105.3,105.3,0,0,1-20.32.17c-18.1-1.25-35.78-5.4-53.26-10.07C239.87,68,224.12,63.36,208,60.62c-11.59-2-23.59-2.53-35.23-.65-11.19,1.8-21,8.21-30.22,14.4-4.44,3-8.86,6-13.36,8.89A80.8,80.8,0,0,1,101.78,95a69.64,69.64,0,0,1-8.78.62c-9.82.23-19.85,0-29.35-2.8a56.94,56.94,0,0,1-11-5.44L48,83.87a27.42,27.42,0,0,1-4.71-6.67,29.73,29.73,0,0,1-3.4-7.61,35.94,35.94,0,0,1-.34-8.35A21.85,21.85,0,0,1,41,52.58C43,47,46.1,41.5,50.78,37.67a63.07,63.07,0,0,1,7.31-5q1.9-1.17,3.84-2.28a68.85,68.85,0,0,0,6.89-2.71c1.3-.56-1.51-1.48-1.45-1.46-1.09-.33-2.19-.61-3.3-.83A3,3,0,0,0,62.27,25.29Z"/>
    <path class="cls-2" d="M64.62,32.92l-2.57,1.84.51-.36c-3.93,2.33-8.25,4.09-11.93,6.82a31.77,31.77,0,0,0-6.8,6.65,31,31,0,0,0-5,10.6c-2.28,8.68-1.45,18.53,3.9,26l3.62,4.45a33.78,33.78,0,0,0,7.06,5,48.94,48.94,0,0,0,13.52,5.56c3.64.89,7.35,1.7,11,2.26q3.9.38,7.82.61l7.37.45a57.38,57.38,0,0,0,13.5-1.62c5.56-1.34,11.14-4.11,16.15-6.83,10-5.39,19.17-12,28.92-17.72A81.92,81.92,0,0,1,164.88,70c6-2.22,12.11-2.59,18.48-3.16h-.7l9.19,0-.71,0,9.14.71-.71-.07,9.11,1.28-.71-.1,9.11,1.73-.71-.14,9.12,2.08-.69-.17c19,4.85,37.79,10.63,57,14.58A185.56,185.56,0,0,0,313.63,91c7.65.23,15.06,0,22.55-1.79C349.6,86,362.06,79.64,374.53,74a154.77,154.77,0,0,1,17.92-7.2,62.91,62.91,0,0,1,11.35-2.45,43.94,43.94,0,0,1,11,.06l-.71-.09a36.53,36.53,0,0,1,10.51,2.92q3.33,2,6.45,4.28c3.6,2.54,7.15,5.14,10.86,7.52,8.51,5.49,17.71,10.35,27.78,12.16a44.37,44.37,0,0,0,15.88,0c7.76-1.39,15.26-6,20.59-11.7,9.44-10.15,14.5-23,20.82-35.14a2.66,2.66,0,0,0-2.16-.41c-2.67.1-5.34.28-8,.53s-5.32.49-8,.85a2.69,2.69,0,0,0-2.07.77,25.81,25.81,0,0,0-3.71,4.51Q501.13,53.38,499,56a57.29,57.29,0,0,1-7.27,7.34A32.65,32.65,0,0,1,471,71c-18.17,0-34-10.27-50.6-16.17a80.92,80.92,0,0,0-10.84-3.12c-2.56-.55-5.13-1-7.73-1.34l-6-.1a72.79,72.79,0,0,0-17.46,2.67,106.14,106.14,0,0,0-14.8,5.13c-5.1,2.24-10.11,4.53-15.36,6.41a150.55,150.55,0,0,1-17.76,5.47A83,83,0,0,1,315.74,72a165.29,165.29,0,0,1-22-1C261.78,68,230.93,58.23,199,55a144.35,144.35,0,0,0-26.78-.49,104.81,104.81,0,0,0-20.15,3.34c-9.92,2.88-18.91,8.08-28,12.82-8.43,4.38-16.95,8.57-26.2,10.94A48.94,48.94,0,0,1,81,82.84c-1.83-.3-3.64-.67-5.44-1.09s-3.68-.86-5.49-1.42a32.49,32.49,0,0,1-7.41-3.87,18.69,18.69,0,0,1-5-4.54,34.24,34.24,0,0,0-1.72-3.62,7.46,7.46,0,0,1-1.16-3.78,24.74,24.74,0,0,1,1.84-9.42l-.34.54c1.33-2,2.59-4,3.76-6a32.82,32.82,0,0,1,4.62-5l-.48.39,3.15-2.43-.5.37a77.23,77.23,0,0,1,8.71-5.19,86,86,0,0,0,8.18-4.69c.47-.31.63-.44,0-.71l-1.54-.23q-2.73-.12-5.46-.09c-2.8,0-5.61,0-8.41.15C67.07,32.29,65.62,32.2,64.62,32.92Z"/>
    <path class="cls-2" d="M65.58,29.37a55,55,0,0,1-7,4.23,55.2,55.2,0,0,0-7.37,4.18A29.14,29.14,0,0,0,39.77,54.92a34.65,34.65,0,0,0-.49,13.15,10.13,10.13,0,0,0,1.33,4.86,26.41,26.41,0,0,0,3.67,6.79l3.48,4.12a37.32,37.32,0,0,0,6.88,4.39,36.31,36.31,0,0,0,4.93,2.42,25.65,25.65,0,0,0,7.72,2.48c3.35.77,6.76,1.5,10.16,2q3.64.39,7.31.69l6.93.59a56,56,0,0,0,13.1-1.25c5.41-1.18,10.95-3.83,15.86-6.38,9.88-5.14,19-11.46,28.7-17a88.38,88.38,0,0,1,13.14-6.45c6-2.21,12.13-2.66,18.5-3.29l-.79,0,9.29-.11h-.8a138.3,138.3,0,0,1,16.87,1.58q8.9,1.4,17.68,3.43l-.79-.17c17.66,4.23,35.12,9.3,52.86,13.21a248.62,248.62,0,0,0,27.11,4.45c9.43,1,19,1.34,28.35-.34,13.5-2.43,26-8.33,38.43-13.86,5.94-2.64,11.84-5.36,18-7.45a69.79,69.79,0,0,1,8.63-2.5A54,54,0,0,1,407,59l-.81,0,6.25.32-.8-.07a38.28,38.28,0,0,1,10.58,2.69q3.38,1.84,6.55,4c3.69,2.4,7.35,4.85,11.11,7.14,9.46,5.75,19.51,10.8,30.6,12.3a38.07,38.07,0,0,0,18.58-1.64A42.25,42.25,0,0,0,504,74.21c9.53-9.42,14.6-22.33,20.87-33.89a4.33,4.33,0,0,0-2.89-.14q-5.28.68-10.54,1.57t-10.49,1.88a4.27,4.27,0,0,0-2.7,1,27.44,27.44,0,0,0-4.84,5.2l-2.54,2.84a43.78,43.78,0,0,1-7.35,6.37,26.73,26.73,0,0,1-9.08,3.72,35.06,35.06,0,0,1-14.21.1c-9.75-1.72-19-5.36-28.24-8.94s-18.81-6.9-28.77-8.14c-2.72-.36-5.46-.65-8.2-.87a53.71,53.71,0,0,0-9.14.48,100.85,100.85,0,0,0-20.54,4.5l-5.79,2q-6.12,2.57-12.19,5.26a158.76,158.76,0,0,1-17,5.26,86.39,86.39,0,0,1-17,2.8,162.62,162.62,0,0,1-20.11-.75c-18.37-1.57-36.41-5.27-54.5-8.66-18.33-3.42-36.83-6.67-55.53-6.88-15.71-.18-31.76,1.59-46.41,7.47-10.09,4-19.59,9.4-29.7,13.4a80.93,80.93,0,0,1-14.15,4.26,38.68,38.68,0,0,1-9.61.54l-4.93-.74a34.52,34.52,0,0,1-7.64-3.52,11.79,11.79,0,0,1-3.07-2.28l-1.32-1.66a2.44,2.44,0,0,1-1.75-1.66l-.18-1.58a3.76,3.76,0,0,1-.87-3l.64-2.09a11.23,11.23,0,0,1,1.93-4.54,22.28,22.28,0,0,0,2.47-3.17,28.28,28.28,0,0,1,6.77-6.55,62.08,62.08,0,0,1,8.48-5.22,98,98,0,0,0,9.69-5.45,4.65,4.65,0,0,0-2.85-1q-5.5-.93-11-1.65T68.59,29.17A4.62,4.62,0,0,0,65.58,29.37Z"/>
    <path class="cls-2" d="M65.27,31.34l-2.55,1.84.47-.33C59.28,35.19,55,36.94,51.3,39.63A29.6,29.6,0,0,0,39.6,56.8a43.54,43.54,0,0,0-1.12,10.79,26.46,26.46,0,0,0,3.71,12.57A24.52,24.52,0,0,0,47.08,87l4.45,3.54A44.1,44.1,0,0,0,64.69,97,92.23,92.23,0,0,0,78.59,100c3.45.41,7,.59,10.41.8a59,59,0,0,0,15-.66,66.4,66.4,0,0,0,16.51-5.73c10.35-5,19.65-11.84,29.48-17.75,3.5-2.1,7-4.15,10.7-5.94a39.57,39.57,0,0,1,7.68-3,28.37,28.37,0,0,1,7.41-1.62l-.66.09,9.19-.87-.67.06a107.88,107.88,0,0,1,16.86.62q8.44,1,16.76,2.74c11.42,2.36,22.67,5.55,33.93,8.58,19.26,5.2,38.62,10.19,58.59,11.62,9.19.65,18.16.69,27.18-1.4s17.68-5.74,26.14-9.51c8.14-3.62,16.14-7.72,24.49-10.84a87.3,87.3,0,0,1,11.52-3.48,52.28,52.28,0,0,1,11.15-1.26h-.68a40.8,40.8,0,0,1,10.77,1.38,37.21,37.21,0,0,1,11.51,6.05c3.59,2.51,7.12,5.08,10.8,7.45,8.45,5.43,17.78,10.21,27.73,12a45.18,45.18,0,0,0,15.9.07c7.78-1.33,15.33-5.81,20.74-11.48,9.62-10.1,14.79-23,21.16-35.2a2.63,2.63,0,0,0-2.18-.29q-4,.38-7.94,1t-7.9,1.29a2.63,2.63,0,0,0-2,.89,26,26,0,0,0-3.69,4.68c-.84,1.29-1.73,2.55-2.65,3.78a57.19,57.19,0,0,1-7.17,8.29c-4.92,4.62-11.37,8.25-18.16,9.14-16.12,2.12-31.76-5.86-46-12.26l.62.28c-6.39-2.91-12.82-5.65-19.67-7.26A55.79,55.79,0,0,0,403,50.72a63.85,63.85,0,0,0-11.81.26A89.51,89.51,0,0,0,365,58.29c-5.08,2.26-10.06,4.58-15.28,6.5-3.92,1.43-7.86,2.8-11.85,4a81.4,81.4,0,0,1-26.63,3.94c-6.95-.24-13.88-.58-20.79-1.37-6-.68-12-1.65-18-2.68-24-4.14-47.52-10.93-71.76-13.33-6.06-.6-12.11-1-18.19-1-2.94,0-5.95.15-8.89.29l-8.85.93a57.61,57.61,0,0,0-11.29,2.33C136.91,62.67,123,73.6,107.06,79.7c-7.91,3-16.59,5.14-25.11,4.23a48.26,48.26,0,0,1-16.32-4.38,34.21,34.21,0,0,1-5.73-3.63,10.27,10.27,0,0,1-3-3.09l-1.32-2.69a16.54,16.54,0,0,1-1.9-5.28c-.49-3.29.72-6.93,1.74-10l-.3.51q1.94-3,3.72-6.19a31.43,31.43,0,0,1,4.64-5.07l-.46.36,3.13-2.44-.47.35a73.26,73.26,0,0,1,8.64-5.16,78.81,78.81,0,0,0,8.08-4.63c.44-.28.62-.39,0-.7l-1.37-.32c-1.64-.19-3.28-.32-4.92-.41-2.53-.16-5.06-.3-7.59-.33C67.53,30.85,66.19,30.68,65.27,31.34Z"/>
    <path class="cls-2" d="M58.7,34.46a71.12,71.12,0,0,1-8.35,5.65c-2.64,1.61-5.59,3.1-7.8,5.31-6,6-9,14.54-9.42,22.93A42.51,42.51,0,0,0,34.3,80a37.24,37.24,0,0,0,5.63,11.27c4.53,6.5,11.57,10.39,18.73,13.27a69.83,69.83,0,0,0,18.73,4.22,123.47,123.47,0,0,0,18.94.69l6.84-.51A53.75,53.75,0,0,0,117,104.81c13.3-5.57,24.78-14.53,36.87-22.21,5.67-3.6,11.58-7,18-8.87s13.25-2.12,19.93-1.94c18.4.49,36.19,5.91,53.77,10.92,17.24,4.92,34.5,9.77,52.25,12.47A149.23,149.23,0,0,0,325.62,97a72.44,72.44,0,0,0,17.71-3.21C357.9,89.48,371,81.93,384.94,76c10.66-4.53,22-8.1,33.69-6.32C427.22,71,431.39,75.28,437.28,80a111.92,111.92,0,0,0,13.35,9.32c8.12,4.71,17.1,8.19,26.57,8.69a42.83,42.83,0,0,0,17.19-2.57,45,45,0,0,0,16.39-11.06c10.38-10.83,15.51-25.44,21.76-38.75.44-.94-3.37-2-3.94-.83-5.3,10.54-10,21.67-17.73,30.72A45.93,45.93,0,0,1,496.43,87c-8.37,4-18.94,4.94-27.84,3.14-9.62-2-18.51-6.09-26.82-11.21-2.85-1.76-5.59-3.63-8.35-5.51s-5.11-4-8-5.43c-4.07-2.06-9.09-2.74-13.58-3.07a49.72,49.72,0,0,0-16.54,1.82c-9.33,2.48-18.09,6.46-26.9,10.37C353.54,83.73,338.6,90,322,90.71c-9.1.37-18.68-.65-27.67-1.93s-17.85-3.11-26.64-5.19c-16.94-4-33.67-9.15-50.76-12.51-14.58-2.86-29.57-4.77-44.33-2-8.49,1.57-15.95,5.84-23.22,10.28-11.7,7.15-22.88,15.1-35.67,20.25-10.72,4.3-22.47,4.55-33.85,3.74a75.49,75.49,0,0,1-16.77-2.81,43.74,43.74,0,0,1-8.35-3.74A35.19,35.19,0,0,1,47.44,92c-7.89-7.67-12.37-18.55-9.59-30.31,1-4.45,2.51-9.23,5.55-12.75l5.41-5c1.52-.89,3-1.82,4.51-2.79,1.22-.79,2.46-1.56,3.71-2.3a30.29,30.29,0,0,0,4-3.4C62.32,34.29,59.42,33.87,58.7,34.46Z"/>
  </g>
  <g>
    <path d="M66.74,85.57a10.3,10.3,0,0,1-5.67-1.46,9.33,9.33,0,0,1-3.43-4,17,17,0,0,1-1.36-6l4.87-1.31a21.42,21.42,0,0,0,.65,4A7.26,7.26,0,0,0,63.48,80a4.24,4.24,0,0,0,3.26,1.24A4.19,4.19,0,0,0,70,80a4.93,4.93,0,0,0,1.09-3.44,7.07,7.07,0,0,0-1.21-4.32A22.89,22.89,0,0,0,66.79,69l-6.62-5.85a11.31,11.31,0,0,1-2.87-3.73,12.13,12.13,0,0,1-.92-5,8.92,8.92,0,0,1,2.48-6.73,9.35,9.35,0,0,1,6.76-2.39,12.6,12.6,0,0,1,4.11.61,7.17,7.17,0,0,1,3,1.88A9.11,9.11,0,0,1,74.59,51a18.08,18.08,0,0,1,1,4.51l-4.67,1.27a19.84,19.84,0,0,0-.58-3.58,5.37,5.37,0,0,0-1.54-2.64,5.28,5.28,0,0,0-6.32.1,4.29,4.29,0,0,0-1.14,3.24,6.37,6.37,0,0,0,.61,3,8.55,8.55,0,0,0,2,2.39l6.66,5.85a20.91,20.91,0,0,1,3.94,4.66,11.82,11.82,0,0,1,1.7,6.41,10,10,0,0,1-1.22,5,8.24,8.24,0,0,1-3.33,3.24A10.24,10.24,0,0,1,66.74,85.57Z"/>
    <path d="M80.45,85.13V45.63H95.72v4.1H85.94V62.8h7.93v3.9H85.94V81.18h9.87v3.95Z"/>
    <path d="M111.37,85.13V45.63h8.56A15.06,15.06,0,0,1,126.86,47a7.67,7.67,0,0,1,3.64,4,17.7,17.7,0,0,1,1.1,6.68V72.21a20,20,0,0,1-1.1,7.07A8.37,8.37,0,0,1,127,83.64a12.59,12.59,0,0,1-6.59,1.49Zm5.5-3.95H120c2,0,3.43-.39,4.28-1.17a5.35,5.35,0,0,0,1.53-3.41,46.25,46.25,0,0,0,.27-5.41V58.36a25.53,25.53,0,0,0-.39-5A4.14,4.14,0,0,0,124,50.61a7.52,7.52,0,0,0-4.13-.88h-3Z"/>
    <path d="M147.06,85.57A11.48,11.48,0,0,1,140.69,84a8.53,8.53,0,0,1-3.4-4.46,20.53,20.53,0,0,1-1-6.8v-15a19.13,19.13,0,0,1,1-6.7,8.33,8.33,0,0,1,3.41-4.29,11.78,11.78,0,0,1,6.34-1.49,11.56,11.56,0,0,1,6.32,1.51,8.54,8.54,0,0,1,3.38,4.29,19,19,0,0,1,1.05,6.68v15a19.57,19.57,0,0,1-1.05,6.73A8.91,8.91,0,0,1,153.38,84,11.13,11.13,0,0,1,147.06,85.57Zm0-4.34a5.2,5.2,0,0,0,3.31-.9,4.49,4.49,0,0,0,1.5-2.54,16.6,16.6,0,0,0,.39-3.83V56.65a16,16,0,0,0-.39-3.78,4.2,4.2,0,0,0-1.5-2.43,5.4,5.4,0,0,0-3.31-.86,5.49,5.49,0,0,0-3.33.86,4.14,4.14,0,0,0-1.53,2.43,16,16,0,0,0-.39,3.78V74a16.6,16.6,0,0,0,.39,3.83,4.42,4.42,0,0,0,1.53,2.54A5.29,5.29,0,0,0,147.06,81.23Z"/>
    <path d="M163.2,85.13V45.63h5.5V64.26l9-18.63h5.11L175.07,63l9,22.09h-5.35L171.23,66.6l-2.53,4.59V85.13Z"/>
    <path d="M197.24,85.57a10.85,10.85,0,0,1-6.57-1.71,8.47,8.47,0,0,1-3.11-4.8,28.3,28.3,0,0,1-.82-7.24V45.63H192V72.06a28.79,28.79,0,0,0,.34,4.64A6.12,6.12,0,0,0,193.81,80a5.46,5.46,0,0,0,6.88,0,6.25,6.25,0,0,0,1.46-3.31,28.79,28.79,0,0,0,.34-4.64V45.63h5.2V71.82a28.3,28.3,0,0,1-.82,7.24,8.54,8.54,0,0,1-3.09,4.8Q201.52,85.57,197.24,85.57Z"/>
    <path d="M213.38,85.13l.73-39.5h5.4l7,32,7-32h5.35l.73,39.5h-4.42l-.44-28.67L228,85.13h-3.11l-6.62-28.67-.43,28.67Z"/>
    <path d="M245.57,85.13V45.63h15.27v4.1h-9.78V62.8H259v3.9h-7.93V81.18h9.87v3.95Z"/>
    <path d="M265.36,85.13V45.63h3.74l11.19,26.24V45.63h4.57v39.5h-3.5L270,58.17v27Z"/>
    <path d="M295.36,85.13V49.73H288.7v-4.1h18.62v4.1h-6.47v35.4Z"/>
    <path d="M308.88,85.13l8.36-39.5h5.3L331,85.13h-5.2L324,75.18h-8L314,85.13Zm7.78-13.9h6.56l-3.31-17.8Z"/>
    <path d="M337.71,85.13V49.73h-6.66v-4.1h18.62v4.1H343.2v35.4Z"/>
    <path d="M353.75,85.13V45.63h5.4v39.5Z"/>
    <path d="M375.58,85.57A11.45,11.45,0,0,1,369.22,84a8.55,8.55,0,0,1-3.41-4.46,20.53,20.53,0,0,1-1-6.8v-15a19.12,19.12,0,0,1,1-6.7,8.31,8.31,0,0,1,3.4-4.29,11.8,11.8,0,0,1,6.34-1.49,11.62,11.62,0,0,1,6.33,1.51,8.59,8.59,0,0,1,3.38,4.29,19.21,19.21,0,0,1,1,6.68v15a19.83,19.83,0,0,1-1,6.73A9,9,0,0,1,381.91,84,11.19,11.19,0,0,1,375.58,85.57Zm0-4.34a5.18,5.18,0,0,0,3.31-.9,4.45,4.45,0,0,0,1.51-2.54,16.6,16.6,0,0,0,.39-3.83V56.65a16,16,0,0,0-.39-3.78,4.16,4.16,0,0,0-1.51-2.43,5.38,5.38,0,0,0-3.31-.86,5.53,5.53,0,0,0-3.33.86,4.14,4.14,0,0,0-1.53,2.43,16,16,0,0,0-.39,3.78V74a16.6,16.6,0,0,0,.39,3.83,4.42,4.42,0,0,0,1.53,2.54A5.33,5.33,0,0,0,375.58,81.23Z"/>
    <path d="M391.73,85.13V45.63h3.74l11.18,26.24V45.63h4.58v39.5h-3.51l-11.32-27v27Z"/>
    <path d="M426.69,85.57A10.3,10.3,0,0,1,421,84.11a9.33,9.33,0,0,1-3.43-4,17,17,0,0,1-1.36-6l4.87-1.31a21.42,21.42,0,0,0,.65,4,7.26,7.26,0,0,0,1.68,3.2,4.24,4.24,0,0,0,3.26,1.24A4.19,4.19,0,0,0,429.92,80,4.93,4.93,0,0,0,431,76.6a7.07,7.07,0,0,0-1.21-4.32A22.89,22.89,0,0,0,426.74,69l-6.62-5.85a11.31,11.31,0,0,1-2.87-3.73,12.13,12.13,0,0,1-.92-5,8.92,8.92,0,0,1,2.48-6.73,9.35,9.35,0,0,1,6.76-2.39,12.6,12.6,0,0,1,4.11.61,7.17,7.17,0,0,1,3,1.88,9.11,9.11,0,0,1,1.9,3.19,18.08,18.08,0,0,1,.95,4.51l-4.67,1.27a19.84,19.84,0,0,0-.58-3.58,5.43,5.43,0,0,0-1.53-2.64,4.53,4.53,0,0,0-3.14-1,4.45,4.45,0,0,0-3.19,1.1,4.29,4.29,0,0,0-1.14,3.24,6.37,6.37,0,0,0,.61,3,8.55,8.55,0,0,0,2,2.39l6.66,5.85a20.91,20.91,0,0,1,3.94,4.66,11.82,11.82,0,0,1,1.7,6.41,10,10,0,0,1-1.22,5,8.24,8.24,0,0,1-3.33,3.24A10.22,10.22,0,0,1,426.69,85.57Z"/>
    <path d="M449.69,85.57A10.3,10.3,0,0,1,444,84.11a9.26,9.26,0,0,1-3.43-4,17,17,0,0,1-1.36-6l4.86-1.31a22.27,22.27,0,0,0,.66,4,7.26,7.26,0,0,0,1.68,3.2,4.24,4.24,0,0,0,3.26,1.24A4.19,4.19,0,0,0,452.92,80,4.93,4.93,0,0,0,454,76.6a7.07,7.07,0,0,0-1.21-4.32A22.44,22.44,0,0,0,449.73,69l-6.61-5.85a11.31,11.31,0,0,1-2.87-3.73,12.13,12.13,0,0,1-.92-5,8.92,8.92,0,0,1,2.48-6.73,9.33,9.33,0,0,1,6.76-2.39,12.6,12.6,0,0,1,4.11.61,7.17,7.17,0,0,1,3,1.88,9.11,9.11,0,0,1,1.9,3.19,18.54,18.54,0,0,1,.95,4.51l-4.67,1.27a19.84,19.84,0,0,0-.58-3.58,5.44,5.44,0,0,0-1.54-2.64,4.51,4.51,0,0,0-3.13-1,4.43,4.43,0,0,0-3.19,1.1,4.29,4.29,0,0,0-1.14,3.24,6.37,6.37,0,0,0,.61,3,8.55,8.55,0,0,0,2,2.39l6.66,5.85a20.91,20.91,0,0,1,3.94,4.66,11.82,11.82,0,0,1,1.7,6.41,10,10,0,0,1-1.22,5,8.24,8.24,0,0,1-3.33,3.24A10.24,10.24,0,0,1,449.69,85.57Z"/>
    <path d="M463.69,85.13V45.63h5.4v39.5Z"/>
    <path d="M479.78,85.13V49.73h-6.66v-4.1h18.62v4.1h-6.46v35.4Z"/>
    <path d="M495.54,85.13V45.63H510.8v4.1H501V62.8H509v3.9H501V81.18h9.87v3.95Z"/>
  </g>
</svg>
