<svg id="Layer_1" data-name="Layer 1" xmlns="http://www.w3.org/2000/svg" viewBox="0 0 556 118">
  <defs>
    <style>
      .cls-1 {
        fill: #f4f99b;
        opacity: 0.11;
      }

      .cls-2 {
        isolation: isolate;
      }
    </style>
  </defs>
  <title>designsprintdokumentation</title>
  <g>
    <path class="cls-1" d="M59.61,21.22l-.36,2.23.25-.67c-2.22,3.7-7.1,6.43-10.74,8.79C46.58,33,44.42,34.47,42.34,36a64.54,64.54,0,0,0-10.4,9.48c-3.6,4.26-6.75,9.63-7.11,15.33l0,3.81a13.28,13.28,0,0,0,1.49,6.1A32.21,32.21,0,0,0,33,81.21a60.89,60.89,0,0,0,9.29,7.23,43.92,43.92,0,0,0,8.56,4.42A42.92,42.92,0,0,0,60,96a45.83,45.83,0,0,0,11.57.66,36.19,36.19,0,0,0,13.16-4.09,65.32,65.32,0,0,0,11.53-7.64,108.46,108.46,0,0,0,9.8-9.37c5.83-6.08,11-12.6,17.54-18l-.62.44c4.34-2.86,9.51-5.22,14.88-4.89L118.27,50l26.45,7.24L124,47.07l14.36,23.24-5-19.73-3.46,28,3.7-9.62q-3.33,7-6,14.28l-.46,2.44a9.31,9.31,0,0,0,1.43,5.81,16.3,16.3,0,0,0,5.8,4.29l4.42,1.63a37,37,0,0,0,10.65.83,17.17,17.17,0,0,0,8.08-2A36.72,36.72,0,0,0,171.61,86a76.37,76.37,0,0,0,9.3-14.27c2.29-4.58,4.23-9.24,6.11-14,1.72-4.36,3.18-8.73,5.26-12.94l-.44.65a15,15,0,0,1,4-4.48l-5.71,3.31L197,40.66,177.27,49l30.85-9.13-22.13,2,23.31-.78-20-.67,23,2-19.25-2.86,22.19,4.57-18.58-5,21.19,7.1-17.41-7,19.75,9.48-16.26-9L222,51.51,207.48,40.75l15.89,14-13.93-14,14.51,21L215.4,44.65l2.75,25.83,1.61-20.25A170.83,170.83,0,0,1,207.43,81c-.22,1.16-.41,2.32-.58,3.48l.57,3a11,11,0,0,0,5.19,5.89,35.4,35.4,0,0,0,14.16,5.26A50.48,50.48,0,0,0,245,98.42a31.84,31.84,0,0,0,7.27-2,26.78,26.78,0,0,0,8-5.47,39.66,39.66,0,0,0,7.4-14.22c1.43-4.91,1.95-10.23,2.51-15.31.17-3,.42-6,.76-8.93a46.87,46.87,0,0,1,1.44-7l-.31.74L275,41.89,254.36,58.37l27.19-16-23.52,9,30.88,1-21.39-6.26,25,16L278.45,49.08l14.19,15-8.82-10.8L296,69.79a32.67,32.67,0,0,0,3.7,5.12A21.22,21.22,0,0,0,303,78a30.28,30.28,0,0,0,7.81,4.3l7.85,3.37a105.1,105.1,0,0,0,21.08,5.41,108.43,108.43,0,0,0,40.5-1.29c5.6-1.27,11-3.21,16.58-4.65a59.6,59.6,0,0,1,10.34-1.84,48.17,48.17,0,0,1,9.75-.49l-.72,0,6.21.57a47,47,0,0,1,9.17,2.15,90.82,90.82,0,0,1,12.26,5A162.06,162.06,0,0,0,460,97.51a54.72,54.72,0,0,0,24.25,2.73l6.3-1,5.34-1.69c3.24-1,6.48-2.05,9.65-3.28,6.19-2.42,12.15-5.36,17.27-9.66a30.81,30.81,0,0,0,7.63-8.93,36.63,36.63,0,0,0,3.41-10.07c.94-5-.14-10-1.75-14.72a53.41,53.41,0,0,0-7.61-14c-2.36-3.19-4.92-6.26-7.39-9.36a53.08,53.08,0,0,1-4.64-6,22.27,22.27,0,0,1-3.08-5.38,5,5,0,0,0-1.05,3q-1.06,5.76-1.9,11.56t-1.59,11.61a5.08,5.08,0,0,0,.13,3.16c1.39,4.52,3.81,8.59,5.14,13.14a19.43,19.43,0,0,1,1,5.36,18.29,18.29,0,0,1-.06,2.34,4.24,4.24,0,0,1-1.13,3.1l.5-.58A8.28,8.28,0,0,0,508,71.49a6.8,6.8,0,0,1-2.68,2.69,31,31,0,0,1-7.66,4.54,62.5,62.5,0,0,1-16.14,4.07,76.72,76.72,0,0,1-8.57.68q-3.67-.27-7.37-.45a41.78,41.78,0,0,1-7.64-.86c-9.12-1.71-17.87-5-26.76-7.58a128.91,128.91,0,0,0-20.44-4c-10.06-1.26-20.32-.15-30.33,1-5.82.66-11.57,1.75-17.38,2.49a95,95,0,0,1-23.65-.24,105.51,105.51,0,0,1-23.11-5.61l-7.43-3a114,114,0,0,1-14.05-7.82l.55.41L277.18,40.57a4.46,4.46,0,0,0-2.71,1.11q-4.59,2.88-9.06,5.92t-8.89,6.18a4.42,4.42,0,0,0-2,2.1c-.55,1.61-1.21,3.12-1.82,4.7a38.74,38.74,0,0,0-1.61,5.74l.31-.73c-1.42,3.18-2.53,6.8-4.5,9.7a14.54,14.54,0,0,1-2.94,3.27,3.32,3.32,0,0,1-2,1.8l.66-.18-2.62.51.69,0-1.8.09.67.06c-.75-.22-1.51-.51-2.28-.66a6.46,6.46,0,0,1-3.06-.17,6,6,0,0,1-2.3-.73c-1.36-.58-2.77-.81-4.07-1.5A4.58,4.58,0,0,1,226,76.45a8.75,8.75,0,0,0-2.13-1.6,5.81,5.81,0,0,1-1.29-3.14l-.28-2,.25-2.16-.29-3a30,30,0,0,1,.14-4.35c.88-10.15-2.1-4.51-16.77-21.52a4,4,0,0,0-2.81,0q-5.13.79-10.21,1.82t-10.14,2.14a4.16,4.16,0,0,0-2.59,1.11,47.2,47.2,0,0,0-5.44,5.82A51.32,51.32,0,0,0,170,56.25l.45-.66a70.44,70.44,0,0,0-6,10.87l.46-.61-2.39,2.84.5-.55L160.47,71l.53-.51-2.5,2,.57-.43a14.73,14.73,0,0,0-4.24,3.23,10,10,0,0,1-4.16,1.92,4.5,4.5,0,0,1-3.45,1.32,18.07,18.07,0,0,1-3.63-1l.49.45a6,6,0,0,0-2.31-3,2.12,2.12,0,0,1-1.09-1.6l.06.68c-.17-1.85-.62-3.63-.77-5.48a11.53,11.53,0,0,1-.06-2.35,7.5,7.5,0,0,0-.68-4l-10.06,19L145.33,63l-.81-7.76a3.67,3.67,0,0,0-2.26-1.37q-4.55-1.73-9.17-3.22t-9.27-2.91a3.66,3.66,0,0,0-2.63-.25c-8.56,1.61-16,7.07-22.3,12.86-2,1.89-4.36,3.43-6.44,5.32-2.35,2.14-4.74,4.16-7.24,6.13a28.6,28.6,0,0,1-15.5,6.38l.67.06a39.84,39.84,0,0,1-5.13-.56l-2.19-.9L60.67,76,58.14,74.4l-2.85-1.81-2.94-2.72L51.48,68,50.1,66.36l-.68-2c-.59-1.34-1.28-2.33-1.28-3.87a21.08,21.08,0,0,1,.72-4.45,22.43,22.43,0,0,1,2.74-6c4.59-7.68,11-14.15,16-21.52,4.69-6.87,9.73-14.66,10-23.22A3.54,3.54,0,0,0,75.31,6.6q-3.68,3-7.21,6.14t-7,6.37A3.55,3.55,0,0,0,59.61,21.22Z"/>
    <path class="cls-1" d="M60.1,24.86l-.39,2.24.16-.7-1.13,1.84,3.71-4.3L58.28,28.4l10.77-10a132.7,132.7,0,0,1-20.27,16.8q-2.28,1.51-4.48,3.14A72.62,72.62,0,0,0,38,43.39a43.93,43.93,0,0,0-9,10.76,25.11,25.11,0,0,0-3.22,15.74A25.86,25.86,0,0,0,30,80.47,40,40,0,0,0,40.22,90.63a55.79,55.79,0,0,0,14.63,8l6.25,1.91,6.08.74c9.73.73,19.34-3.4,27-9.08,7.32-5.41,13.26-12.4,19.24-19.19,4.38-5,8.7-10,14.32-13.66l-.66.36,3-1.51-.68.34a33,33,0,0,1,5.1-1.75,17.62,17.62,0,0,1,7.65-.32L118.85,50l28.67,13.43-18.6-14.93,3.9,32.16,4.72-18.72q-4,12-8.61,23.73a13.1,13.1,0,0,0-1.17,4.08,9.46,9.46,0,0,0,1.42,5.86A12,12,0,0,0,133.32,99a18.4,18.4,0,0,0,6.34,2.78,37.26,37.26,0,0,0,11.19.92,16.84,16.84,0,0,0,8.49-2.13,30.62,30.62,0,0,0,7.89-4.5,28.85,28.85,0,0,0,8.43-8.72,93,93,0,0,0,8.48-15c2-4.53,3.74-9.18,5.41-13.85.82-2.61,1.74-5.17,2.78-7.7a17.41,17.41,0,0,1,3-5.18l-.47.59,5.58-3.72-21.06,6.26,27.49-6.74-23.85,1.56,36.5,4.06L199.36,40l20.94,9.41-17.19-9,19.54,11.71L206.58,41.22,224.42,55.1l-15.7-14L226.15,62,214.94,44.78l9.33,23.71L219.13,49.6l2.32,17.71-1.33-15.55-.74,17.65,1.29-15.73-6.56,23,6.14-15.84-8.33,17.81,6.51-12.17Q212.74,75.44,208,84.88a29.39,29.39,0,0,0-.58,3.46c-.25,3.83,3,7.17,5.75,9.14,5.2,3.67,11.19,5.17,17.39,5.93a53,53,0,0,0,8.34.57,56.48,56.48,0,0,0,10.58-1.69,28.12,28.12,0,0,0,13.18-7.55A40.64,40.64,0,0,0,268,85.12a34,34,0,0,0,2.7-10.57c.66-4.91,1-9.81,1.32-14.74a53.68,53.68,0,0,1,.92-8,14.07,14.07,0,0,1,2-5.69l-.34.65L276.25,45,256.31,57.44l26.86-12.18-21,5.2,21.67-3.25L262.36,48.5l28.88,7.11-20.73-9,25.67,22.8L286.29,56q6.63,10,13.06,20.12a19.07,19.07,0,0,0,2.24,3.24,20.06,20.06,0,0,0,3.48,3.41l7.54,4.1a73.91,73.91,0,0,0,12.05,4.7,101.38,101.38,0,0,0,21.49,4.66,112,112,0,0,0,41-3.56c6.34-1.79,12.58-4,19.1-5l6.69-.8a56,56,0,0,1,12.61.56l-.75-.13,6.83,1.45-.74-.17a102,102,0,0,1,10.72,4c3.69,1.66,7.27,3.58,10.93,5.33A72.94,72.94,0,0,0,469.41,104a51.24,51.24,0,0,0,11,1,47.69,47.69,0,0,0,14.26-2.17c5.81-2,11.76-3.76,17.32-6.37a55.5,55.5,0,0,0,15-9.85,28.75,28.75,0,0,0,6.69-10.07,16.13,16.13,0,0,0,1.55-5.13,14.46,14.46,0,0,0,.64-5.66,19.37,19.37,0,0,0-1.23-8.83l-2.26-5.81-3.25-5.49-3.55-5.19c-2.84-3.79-6-7.37-9-11a32.47,32.47,0,0,1-3-3.86,20.84,20.84,0,0,1-3-5.21,3.45,3.45,0,0,0-1.08,2.3c-.75,3-1.44,6.07-2,9.13s-1.23,6.11-1.74,9.19a3.42,3.42,0,0,0,.08,2.54c2.31,7.17,7.2,13.54,7.32,21.33v2.27a6,6,0,0,1-2.16,3.72A7.26,7.26,0,0,1,508.55,74a40.84,40.84,0,0,1-3.21,2.81c-5.82,4.15-13.33,6.32-20.27,7.45a68.67,68.67,0,0,1-10.4,1.25l-4.81-.24a56.25,56.25,0,0,1-10.36-.88c-10.1-1.72-19.59-5.82-29.39-8.66a104.35,104.35,0,0,0-21.46-3.77,119.48,119.48,0,0,0-23.07.88l-6.39.82Q372,74.73,364.82,76a100.19,100.19,0,0,1-24,.12,116.31,116.31,0,0,1-23.37-5.36,94.21,94.21,0,0,1-23.59-12.21l.56.45a30.64,30.64,0,0,1-10.72-14.25,3.73,3.73,0,0,0-2.67,0q-4.82.95-9.59,2.1t-9.52,2.4a3.77,3.77,0,0,0-2.4,1.18q-2.58,4.71-5,9.47a33.91,33.91,0,0,0-1.39,5.53c-.85,2.69-1.81,5.45-2.88,8.06a16,16,0,0,1-1.55,3.09,13.15,13.15,0,0,1-2.25,3A5.27,5.27,0,0,1,244,82.31a15,15,0,0,1-3.53,1l.7.12a7,7,0,0,0-3.75-.34,9.26,9.26,0,0,1-3.81-.17l-2.78-.83A8.92,8.92,0,0,1,227.34,81a6.32,6.32,0,0,1-2.22-1.34c-.8-.63-1.63-1.23-2.49-1.79-1.39-1.53-1.57-3.4-1.83-5.38l0,.69c1.48-11.53.06-3.94-6.58-29.46a3.76,3.76,0,0,0-2.5-1q-4.86-1-9.76-1.71c-3.25-.53-6.52-1-9.8-1.39a3.79,3.79,0,0,0-2.68.18A52.23,52.23,0,0,0,183,42.93c-2.38,1.41-4.59,4-6.31,6a21.43,21.43,0,0,0-3.5,4.91A19.32,19.32,0,0,1,171,57.29c-.73,1.39-1.42,2.81-2.06,4.24s-1.45,3.16-2.14,4.75a32.92,32.92,0,0,1-5.67,6.92L158.94,75a14.71,14.71,0,0,1-3.8,3.58l-2.51,1.25a5.62,5.62,0,0,1-3.23,1.56,6.27,6.27,0,0,1-4.06,0,6,6,0,0,1-3.8-2l1,2.35a10.56,10.56,0,0,0-1.05-3.32,3.26,3.26,0,0,1-1.78-2.12l.12.69a36.63,36.63,0,0,0-.68-4.3l0,.7-.06-2.86L128.37,90.08q8.43-10.39,17.35-20.36,4.46-4.47,1.27-11a3.87,3.87,0,0,0-2.2-1.64q-4.51-2.23-9.12-4.27t-9.25-4a4,4,0,0,0-2.69-.55,30.65,30.65,0,0,0-11.19,3.88,72.51,72.51,0,0,0-8,5.56,55.64,55.64,0,0,0-4.27,3.69,22.1,22.1,0,0,0-4,3.2C92.9,67.68,89.69,71,86.1,73.76a40.76,40.76,0,0,1-9,5.48,25.45,25.45,0,0,1-5.67,1.6c-1.73.07-3.47.09-5.2,0A29,29,0,0,1,57.68,78a25.83,25.83,0,0,1-7-4.76,12.33,12.33,0,0,0-2.12-3.33,6.66,6.66,0,0,1-1.75-3.35,7.89,7.89,0,0,1-1.46-4.37,20.77,20.77,0,0,1,1.39-7.32A42.29,42.29,0,0,1,53,44.9c2.09-2.7,4.3-5.31,6.48-7.93a117.44,117.44,0,0,0,10.2-13.53,56.51,56.51,0,0,0,4.31-8.09,23.28,23.28,0,0,0,1.72-8.12,3.39,3.39,0,0,0-2.08,1.45Q70.37,12,67.32,15.55t-6,7.07A3.43,3.43,0,0,0,60.1,24.86Z"/>
    <path class="cls-1" d="M53.54,23.24l-3,4.41,1.32-.91c-4.45,2.41-9.19,4.22-13.65,6.63A49.43,49.43,0,0,0,30,38.89,33.5,33.5,0,0,0,19.78,52.67a25.64,25.64,0,0,0-1.55,11.74L19,68.93a28.17,28.17,0,0,0,3.53,7.48A33.57,33.57,0,0,0,28,83.88c.89.83,1.8,1.63,2.74,2.4a60.33,60.33,0,0,0,12.09,8.15c9.62,4.95,20.65,8.23,31.57,6.49a47.79,47.79,0,0,0,18.67-7.78c10.1-6.68,17.5-16.61,25-25.94,2.46-3.07,4.94-6.1,7.67-8.94,4.81-5,9.37-7.21,16.59-6.94l-1.92-.25c3.11.89,6.35,1.75,7.31,5.57l.4,3.13-5.27,10.4c-4.08,5.16-11,6.71-15.59,11.2a20.63,20.63,0,0,0-4.17,5.23c-1.23,2.49-.08,6.43,1.5,8.41l3.14,2.67a22.6,22.6,0,0,0,7,3.34,37.08,37.08,0,0,0,16.82,1.72l7-1.4a33.24,33.24,0,0,0,9.39-5.13,43.21,43.21,0,0,0,8.35-7.08c6.5-7.35,10.69-16.94,13.8-26.11,1.46-4.27,2.65-8.6,3.93-12.93,1.57-5.33,2.75-10.42,7.33-14.34l-3.78,2.18,5.89-2.9-3.89,1.43q9.53-1.6,18.09,4.59l5.63,5.25q9.74,16.11-.48,23.46a28.72,28.72,0,0,1-9,5.45c-2,1-5,1.83-6.89,3.26-1.5,1.14-4,3.74-4.66,5.44a6.7,6.7,0,0,0,.1,6.13,14.22,14.22,0,0,0,2.27,3.65,10.88,10.88,0,0,0,4.45,3.45,36.56,36.56,0,0,0,8.43,4,27.2,27.2,0,0,0,9.38,2.29,57.41,57.41,0,0,0,24.63-2,35.91,35.91,0,0,0,5.84-2.33c2.77-1.44,7.16-4.55,9.11-7a46,46,0,0,0,3.76-6A49.46,49.46,0,0,0,275.74,67a134.45,134.45,0,0,0,.52-14.05q0-3.28,0-6.58A19.89,19.89,0,0,1,278.12,37L277,38.68,279.36,36l-4.84,4.24,11.82.14,2.37,3.21a46,46,0,0,1,4.52,10.22c1.67,5,2.4,10.22,4.09,15.17a34.77,34.77,0,0,0,5.62,11.09,17,17,0,0,0,2.13,2.2l7.74,3.88,8.12,3.21a104.11,104.11,0,0,0,31.14,6,111.07,111.07,0,0,0,37.65-4.79c6.5-2,12.92-4.54,19.66-5.69L422,84.12l6.08.78a52.67,52.67,0,0,1,11.77,3.72c3.65,1.67,7.09,3.87,10.6,5.81,5.65,3.12,11.38,6.06,17.69,7.57a53.61,53.61,0,0,0,20.39.85A49.67,49.67,0,0,0,499,100.08c2.7-1,5.38-2.07,8.06-3.16,6.41-2.63,12.72-5.53,18.25-9.77A41,41,0,0,0,537,73.46a26.93,26.93,0,0,0,2.11-5.7l1.21-6.28,0-7-1.59-6.75L536,41.05a74,74,0,0,0-8.19-11.83C524.63,25.3,521,21.7,517.66,18a45,45,0,0,1-3.31-3.85A23.41,23.41,0,0,1,510.86,9c-.9-1.49-1.29,2.83-1.25,2.52-.18,1.66-.3,3.33-.37,5a6.09,6.09,0,0,0,.17,2.62c5.07,6.84,11.54,12.43,16.92,19a40.88,40.88,0,0,1,8.3,15.27,16.28,16.28,0,0,1,.67,8.87l-5.22,14.47c-2.25,3.7-6.42,7.37-10,9.75a68.2,68.2,0,0,1-9.62,5.3c-3.24,1.48-6.55,2.81-9.86,4.13-1.83.71-3.66,1.41-5.51,2.09a26.22,26.22,0,0,1-8.24,1.92c-7.13,1-15,.88-21.87-1.38a79.2,79.2,0,0,1-11.23-4.68c-8.84-4.52-17.38-10-27.38-11.64-10.43-1.69-20.2-.28-30.23,3a165.91,165.91,0,0,1-22.19,6,81.78,81.78,0,0,1-13.78,1.29,80,80,0,0,1-13.58-.28l-8.84-1.17a70.59,70.59,0,0,1-16.68-4.66c-5.86-2-13.2-3.65-17.59-8.41-2.48-2.69-3.51-6.38-4.39-9.85-1-3.94-1.41-8.08-2.18-12.06-.88-4.59-1.84-9.34-3.88-13.59-1.56-3.24-2.25-4.52-5.6-6.19-2.59-1.29-5.32-2.32-8.21-1.39a7.45,7.45,0,0,0-2.45,1.63,26.43,26.43,0,0,0-3,2.85c-2.86,3.29-2.77,8.36-2.51,12.39.73,11.43.66,23-4.22,33.31-6.27,13.27-21.21,16.68-33.64,16.34-6-.17-12.2-1.24-17.54-4l-5-2.85q-9.9-7-4.57-13.49l-.73.9c3.41-3.21,8.63-4.24,12.64-6.41l3.9-2.27a25.46,25.46,0,0,0,6.73-6.11,15.19,15.19,0,0,0,1.29-5,18.51,18.51,0,0,0-.31-8.69,25.94,25.94,0,0,0-5.74-10.69c-4.21-4.74-10.13-8.67-16.56-9.32a10.17,10.17,0,0,0-6,.76A26.49,26.49,0,0,0,196.39,37c-4.77,3.27-6,9.1-7.34,14.35-4.28,16.7-8.94,35.35-25.33,44.73-7.47,4.28-17.26,5.76-25.56,3.21a30.22,30.22,0,0,1-8.75-4.3c-3.38-2.3-4.75-5.4-4.09-9.27l-.59,1,5.2-5.2,3.53-2a62.64,62.64,0,0,0,9.15-6,41.82,41.82,0,0,0,5.08-4.88A26.37,26.37,0,0,0,150.41,65a11.2,11.2,0,0,0,1-4.21l.05-3.48-.67-2.84a8.45,8.45,0,0,0-1.76-1.92,10.67,10.67,0,0,0-3.62-2c-3.86-1.37-8.28-.78-12.22,0-8.72,1.68-14.27,9.39-19.3,16-4.31,5.64-8.43,11.6-13.44,16.64L67.6,98.91a29.18,29.18,0,0,1-9.78-1.44,61,61,0,0,1-13.47-5.3c-8.11-4.38-15.54-10.81-19-19.57L23.68,68l-.34-4.1.18-4,3.19-10.05c5-8.91,13.68-15.48,22.62-20a30.58,30.58,0,0,0,4-2.18,8.87,8.87,0,0,0,2.42-2.72c.73-1.24.59-1.37.89-3.06.15-.84-1-.49-1.33-.34C54.65,21.82,53.7,22.43,53.54,23.24Z"/>
    <path class="cls-1" d="M54.68,33.61,54,36l1-1.89-2.2,2.44,2.25-2.09C44.32,42.22,30.54,46.56,22.83,58.05a26.77,26.77,0,0,0-4.41,9.59,29.83,29.83,0,0,0-.48,6.25c0,.77,0,1.54,0,2.31a16.71,16.71,0,0,0,1.77,6.89,38,38,0,0,0,10.57,14.3c10.13,8.87,23.31,14.77,36.84,15.31a28,28,0,0,0,10.15-1.2A38.21,38.21,0,0,0,87,108.2a62.63,62.63,0,0,0,15.89-11.94,152,152,0,0,0,11.75-13.59c3.87-4.88,7.53-10.1,12.15-14.3a21.13,21.13,0,0,1,6.1-4.15,18,18,0,0,1,13-.74L142.84,62,146,63.77l-1.84-1.26,2.48,2.08-.92-1.11a7.88,7.88,0,0,1,.91,3.7,5.76,5.76,0,0,1-1,4.62,10.2,10.2,0,0,1-3.57,6.13l-2.85,2.76q-2.13,1.78-4.41,3.37c-1.47,1.06-3,2.11-4.45,3.13a28.07,28.07,0,0,0-3.56,4.07A29.38,29.38,0,0,0,123.11,98a8.71,8.71,0,0,0-.22,5.27,10.23,10.23,0,0,0,3,4.22A24.37,24.37,0,0,0,137,113l6.56,1.07a33.15,33.15,0,0,0,10.93-.7,14.48,14.48,0,0,0,6.85-2.12,33.71,33.71,0,0,0,9.41-5.57l5.41-4.88c.75-1,1.5-2,2.23-3,6.38-8.71,10.32-18.66,13.34-29,1.47-5,2.71-10.16,4.64-15l1.34-3.09A8.58,8.58,0,0,1,204.52,46l-1.54.17,6.44.68-1.63-.42c5.33,1.88,16.17,8.06,17.88,15.72l-1.83,13.69a25.15,25.15,0,0,1-4.52,4,82.63,82.63,0,0,1-8,5.06c-3.12,1.83-2.94,1.49-5,4s-4.73,5.69-4.85,9.1c-.15,4.42,3.87,8.23,7.27,10.34,9.07,5.65,20,7.35,30.51,6.85a43.56,43.56,0,0,0,9.22-1.62,36.25,36.25,0,0,0,8.55-2.9l5.05-3.23a25.25,25.25,0,0,0,8.07-10,55,55,0,0,0,4.72-12.9,77.26,77.26,0,0,0,1.24-12.34c.24-5-.13-10,.06-15l.23-4a8.76,8.76,0,0,1,3.48-6.63l-1.92.67,3.72.49a9.42,9.42,0,0,1,4.93,3.67,7.25,7.25,0,0,1,3.05,4.11,19.13,19.13,0,0,1,1.4,3.81c1.36,4.41,2.52,8.87,3.67,13.33a39.38,39.38,0,0,0,1.21,4.28c1.85,4.86,3.48,9.91,6.64,14.11a14.76,14.76,0,0,0,2.22,2.25l7.49,4a76.88,76.88,0,0,0,12.26,4.56,111.48,111.48,0,0,0,64.82.15c6.44-1.92,12.78-4.37,19.42-5.55a60.79,60.79,0,0,1,13-.85,48.54,48.54,0,0,1,14.8,3.26,82.13,82.13,0,0,1,11.42,5.6c6.32,3.5,12.59,6.93,19.64,8.73a53.14,53.14,0,0,0,20.41,1c7.28-1,14.21-3.87,21-6.64a70.23,70.23,0,0,0,18.25-10.4,37.17,37.17,0,0,0,8.25-9.77,33.34,33.34,0,0,0,4.68-14.18,45,45,0,0,0,0-7.34,41.73,41.73,0,0,0-3-10.48,25,25,0,0,0-3.4-6.72,87.31,87.31,0,0,0-6.38-9c-1.42-1.73-3-3.42-4.5-5.09a113.59,113.59,0,0,1-9.33-10.42,22,22,0,0,1-3.53-5.26c-.67-1.13-2,.78-1.54,1.57a21.92,21.92,0,0,0,3.5,5.07c1.59,2,3.26,3.88,5,5.7,2.18,2.39,4.34,4.71,6.43,7.16Q535.75,51.81,536,72.07l-1.53,5.56a31.68,31.68,0,0,1-8.33,12.73c-5.66,5.18-12.39,8.66-19.53,11.33-4.1,1.52-8.35,2.82-12.55,4a55.86,55.86,0,0,1-24.63,1.41c-8.92-1.53-16.84-5.32-24.93-9.2a89.37,89.37,0,0,0-11.73-5A60.11,60.11,0,0,0,418,90.23c-11.27-.66-22.08,3.23-32.81,6A84.62,84.62,0,0,1,370.86,99l-36-1.34a86.37,86.37,0,0,1-12.61-3.34,78.09,78.09,0,0,1-11.9-4.52l-7-4a8.07,8.07,0,0,1-3.12-3.86A9.71,9.71,0,0,1,298,75.56l-.72-4.08c-.75-4.33-1.36-9-2.82-13.14-.94-2.69-2-5.65-3.94-7.81a21.08,21.08,0,0,0-6.23-4.38,7.45,7.45,0,0,0-4.77-.74,5,5,0,0,0-4,2.47,16.35,16.35,0,0,0-2,5.4c-.47,3.55-.19,7.27-.23,10.84a116.26,116.26,0,0,1-.78,13.45A36.63,36.63,0,0,1,268,91.74a36,36,0,0,1-4.89,7.84,28.55,28.55,0,0,1-11.1,6.5,55.21,55.21,0,0,1-13.68,2.45,49.23,49.23,0,0,1-8.82-.74,46.41,46.41,0,0,1-8.55-1.78l-5.08-2.25q-8.4-3.24-9-13.3l-2.19,3.21c3.86-3.24,8.67-4.6,13.1-6.74a36,36,0,0,0,7.85-5.2,7.6,7.6,0,0,0,3.55-5.56,21.77,21.77,0,0,0-1.92-16.93c-4.64-8.4-15-15.9-25.2-14.52a11,11,0,0,0-6.13,3A18.62,18.62,0,0,0,193,53.34c-1.54,4.08-2.66,8.32-3.91,12.49a129.49,129.49,0,0,1-5.49,15.29,75.76,75.76,0,0,1-6.28,11L173.51,97a48.69,48.69,0,0,1-10.83,7.19l-6.06,2.41a50,50,0,0,1-13.55.19,26.38,26.38,0,0,1-7.67-2.52,19,19,0,0,1-5.37-3.18,6.94,6.94,0,0,1-3.3-7.39l-2.56,4.85,1.4-2.06a21.86,21.86,0,0,1,5.79-4.57c2.42-1.47,4.87-2.89,7.25-4.41a38.56,38.56,0,0,0,8.95-7.55,23.09,23.09,0,0,0,2.58-3.62,13.07,13.07,0,0,0,.81-8.86,4.53,4.53,0,0,0-1.48-2.79,11.08,11.08,0,0,0-2.71-2.21,20.65,20.65,0,0,0-5.26-2.28c-2.78-.73-5.95-.19-8.71.51-8.33,2.12-13.68,9.66-18.86,16A182.48,182.48,0,0,1,99.56,92.84a57.51,57.51,0,0,1-12,8.78,15.33,15.33,0,0,1-5.6,2.4,26.72,26.72,0,0,1-6,1.52,40.13,40.13,0,0,1-15.48-.22,60.78,60.78,0,0,1-13.09-4.54A52.29,52.29,0,0,1,34,91.59a38.47,38.47,0,0,1-6.8-8.14,23.3,23.3,0,0,1-3-6.16L24,66a28.41,28.41,0,0,1,2.53-6.42,38,38,0,0,1,6.94-8.82,36.88,36.88,0,0,1,7.1-5.34,20.39,20.39,0,0,1,4.75-2.67c1.34-.58,2.67-1.19,4-1.82A22.93,22.93,0,0,0,54.65,37a35.24,35.24,0,0,0,2.5-3,25.65,25.65,0,0,0,1.53-2.31,10.28,10.28,0,0,0,1.83-4.49c0-.39-.18-.53-.55-.43a4.54,4.54,0,0,0-1.64,1.5C57,29.82,55.23,31.68,54.68,33.61Z"/>
    <path class="cls-1" d="M58.68,26.4l-.37,2.21.27-.81-1.12,1.8,4.7-5.34-4.82,5.12,17-15.82-29.91,25q-1.95,1.35-3.78,2.84a63,63,0,0,0-6.69,6.05,36.87,36.87,0,0,0-8.29,12.69,22.72,22.72,0,0,0-1.37,9.09,23.48,23.48,0,0,0,2.16,8.36,32.9,32.9,0,0,0,8.07,10.74,55.91,55.91,0,0,0,13.12,8.9,63.65,63.65,0,0,0,12.65,4.48,33.91,33.91,0,0,0,14.8-.24A41.12,41.12,0,0,0,88.17,96,75.23,75.23,0,0,0,97,89.14c6.43-5.71,11.77-12.45,17.56-18.77,2-2.13,3.9-4.25,6-6.2A29.66,29.66,0,0,1,128,59.33l-.74.31,3.32-1.27-.76.28a32.74,32.74,0,0,1,8-1.5l-19.26-4.61,25.88,7.16L120.46,47.59l25,20.07L127.58,46.91l6.06,32.76,2.28-23.09-4.23,23L137,58.53a129.67,129.67,0,0,0-10.55,32.39l-.06.82A8.67,8.67,0,0,0,127.92,97l2.48,2.35c3.78,3.14,9,4.2,13.71,4.61a37.27,37.27,0,0,0,11.66-1.22,32.85,32.85,0,0,0,7.88-4.39,37.4,37.4,0,0,0,7-5.7,60,60,0,0,0,5-7.26c1.52-2.4,2.94-4.86,4.24-7.38,1.09-2.36,2.13-4.75,3.13-7.15,1.8-4.27,3.39-8.65,4.9-13a38.32,38.32,0,0,1,5.13-10.59l-.52.58,5.64-3.76-18.29,5,24.79-5.68-23.5,1.1,30.19.59-23.33-4.27,29.56,7.84-22-9.41,27,14.66-19.5-14.23,22.43,21L210.05,42l14.56,20.61L213.21,44l11.28,22.56-9.34-22.4V77.67l5.54-24.76a88.37,88.37,0,0,0-14.65,36.72,7.75,7.75,0,0,0,1.56,4.8A8.81,8.81,0,0,0,212,98.9a30.4,30.4,0,0,0,6.9,3.42,21.19,21.19,0,0,0,8,2A76.09,76.09,0,0,0,238,105c5.09-.43,10.69-1.4,15.3-3.64a21.26,21.26,0,0,0,6.1-4.34A13.49,13.49,0,0,0,264,90.65a53.64,53.64,0,0,0,3.78-10.1l.75-5.21c.61-4.72.84-9.45,1.12-14.19a47.25,47.25,0,0,1,.94-7.69,13.75,13.75,0,0,1,2-5.58L257,58.67,278.2,46l-21.31,7.84L279,47.48l-20.47,4.45,23.05-3.32-21.06,1.18,23.2.68L261.32,47.9l28,8.79L266.42,46,292,63.56,273.21,46.09a175.86,175.86,0,0,1,25.33,31.74,19.84,19.84,0,0,0,2.69,3.63l.58.59a15,15,0,0,0,5.85,3.88,102.19,102.19,0,0,0,20,8.06,79.29,79.29,0,0,0,12.93,2.64,81.33,81.33,0,0,0,13.31,1.21,114.28,114.28,0,0,0,22.76-2.07,81.72,81.72,0,0,0,13.74-3.52L397.8,90a63,63,0,0,1,20.06-2.33l6.22.65a63.07,63.07,0,0,1,12.21,3.34l-.79-.3L441,93.71l-.77-.35c6.09,2.94,12.06,6.29,18.37,8.77A53.23,53.23,0,0,0,479.12,106l6.09-.47,6.36-1.18c2.41-.7,4.79-1.67,7.16-2.5a98.23,98.23,0,0,0,17.5-7.63,37.69,37.69,0,0,0,13.25-12.34,27.82,27.82,0,0,0,3.66-9.48,14,14,0,0,0,.57-5.57,12.42,12.42,0,0,0-.67-5.76,38.06,38.06,0,0,0-4.52-11.16,86,86,0,0,0-6.9-9.91c-2.29-2.82-4.59-5.63-6.87-8.46a32.07,32.07,0,0,1-2.85-3.79A20.53,20.53,0,0,1,509,22.59a3.79,3.79,0,0,0-1.1,2.46c-.55,2.28-1,4.56-1.49,6.86-.6,2.85-1.15,5.72-1.67,8.59a31.58,31.58,0,0,0-.82,6c.79,3.24,2,6.22,3,9.39a33.68,33.68,0,0,1,1.39,5.51,6.39,6.39,0,0,1,.44,3.31c-.06.94-.08,1.88-.06,2.83a4.26,4.26,0,0,1-2,2.65,7.63,7.63,0,0,1-3.11,3.42A15.3,15.3,0,0,1,499,76.57c-6.73,3.4-14.07,4.83-21.53,5.53a63.12,63.12,0,0,1-10,0,56,56,0,0,1-10.18-1,80.89,80.89,0,0,1-9.72-2.34c-5.85-1.66-11.62-3.57-17.46-5.25a118.59,118.59,0,0,0-21.15-3.88,134,134,0,0,0-26.49.57l-6.25.66q-7,.93-14,2.08c-18.33,2.06-36.91-1.45-53.75-8.75a108.27,108.27,0,0,1-19-10.84,29.9,29.9,0,0,0-5.9-3.78,19,19,0,0,0-6.92-3l2.28,1.8-2.64-2.93a4,4,0,0,0-2.71.65q-4.71,2.07-9.33,4.33c-3.1,1.48-6.16,3-9.19,4.62a4,4,0,0,0-2.2,1.72,20.22,20.22,0,0,1-2.12,5.11A35.19,35.19,0,0,0,249.06,67c-1,2.24-2.24,4.46-3.41,6.6a8.78,8.78,0,0,1-1.34,2.11,8.33,8.33,0,0,1-2,2,2.18,2.18,0,0,1-1.51,1.7,22.81,22.81,0,0,1-2.6.33l.76.25a3.87,3.87,0,0,0-3.07-.73,6.29,6.29,0,0,1-3.06-.32,11.13,11.13,0,0,0-3.19-1.17,5.85,5.85,0,0,1-2.74-1.22l-1.6-1.49a3.68,3.68,0,0,1-2-2.16A14.78,14.78,0,0,1,223,67l-.16.8L226.34,61A4.58,4.58,0,0,0,225,58.35q-3.34-4.4-6.87-8.66T211,41.24a4.61,4.61,0,0,0-2.32-1.89q-14.28,1.93-28.54,4.12a2.75,2.75,0,0,0-1.76.54l-2.9,2.88q-2,2.38-3.92,4.86a23.52,23.52,0,0,0-3.33,5.13l-1.26,1.56q-1.19,1.88-2.24,3.83-1.2,2.13-2.35,4.28a26.81,26.81,0,0,1-4.66,4.56,17.48,17.48,0,0,1-2.77,1.79l-1.18,1.4a5.63,5.63,0,0,1-2.63,1.51,4.39,4.39,0,0,0-2.36,1.44c-1.79.69-3.45.08-5.19-.48l.51.62A5.37,5.37,0,0,0,142,74.25a2,2,0,0,1-1-1.57l0,.83a11.62,11.62,0,0,0-.62-4.42,22.8,22.8,0,0,1-.17-4.6l-12.74,24.3q22.19-10.11,18.67-27.06a4.52,4.52,0,0,0-2.11-2.1q-4.51-3.16-9.13-6.15t-9.3-5.9a4.58,4.58,0,0,0-2.77-1.1,37.44,37.44,0,0,0-10,2.8A55.48,55.48,0,0,0,103,55.59c-2.39,1.79-4.54,3.76-6.88,5.6a33.29,33.29,0,0,0-5.45,4.16l-2.83,2.48C82.7,72.11,76.11,77,69.1,77.16q-1.59-.19-3.18-.27A5,5,0,0,1,63,76a10.12,10.12,0,0,1-4.83-2.17,14,14,0,0,1-4.29-3,4.73,4.73,0,0,1-2.28-3.26,5.81,5.81,0,0,1-1.81-3.63l-.86-1.77a6.68,6.68,0,0,1,.22-4,20.8,20.8,0,0,1,2.52-7,73.89,73.89,0,0,1,6.06-8.66c4.78-6.1,9.85-12.14,13.78-18.86,3.44-5.87,6.6-12.45,6.8-19.33a5,5,0,0,0-2.5,1.92q-4,4.24-7.85,8.63c-2.6,2.91-5.14,5.85-7.62,8.85A5.11,5.11,0,0,0,58.68,26.4Z"/>
    <path class="cls-1" d="M59.91,22.57l-.36,2.22.25-.72-2.75,3.46,4.7-4.21c-4.87,4.06-9.87,7.57-15,11.17-2.19,1.53-4.33,3.12-6.38,4.82-4.42,3.66-8.89,7.91-11.67,13A24.54,24.54,0,0,0,25.61,68a25.3,25.3,0,0,0,4.44,10.38A39.31,39.31,0,0,0,40.2,88.13,56.26,56.26,0,0,0,54.46,95.7l6,1.83,5.88.71c9.42.7,18.7-3.24,26.21-8.63,7.25-5.22,13.21-12,19.16-18.54,4.44-4.9,8.8-9.92,14.4-13.53l-.7.4a39.49,39.49,0,0,1,6.11-2.57,21.62,21.62,0,0,1,8.82-.84l-25.18-5.28,30.47,11.84L125.38,46.63l10.91,27.15-1.72-21.87q-4,17.45-7.14,35.05l0,.73a8.61,8.61,0,0,0,1.51,5.17l2.39,2.28c3.6,3,8.53,4.07,13.08,4.56a35.08,35.08,0,0,0,11.23-.91,30.47,30.47,0,0,0,7.76-3.93,35.81,35.81,0,0,0,7.11-5.39,53.68,53.68,0,0,0,5.2-6.92,99.94,99.94,0,0,0,7.94-14.45c2-4.34,3.67-8.81,5.26-13.3A41.06,41.06,0,0,1,194.1,44l-.51.65L199.13,41l-22.95,8.6,32.37-8.44L184.94,42.2l29.86,1.58-22.72-4.14,23.59,5.7-19.94-6.25,22.58,8.34-18.75-8.35,21.11,10.86L203.11,39.49l19.37,13.25L206.7,40.4,223.81,56l-14-14.26L224.4,59.33,212,41.84l6.41,30.09,1.12-22.57a136.06,136.06,0,0,1-11.87,32.88c-.19,1.17-.38,2.35-.55,3.53a7.51,7.51,0,0,0,1.52,4.66,8.57,8.57,0,0,0,4.28,4.34c5.13,3.51,10.89,5,17,5.66A51.52,51.52,0,0,0,238,101a56.93,56.93,0,0,0,10.21-1.59A27.82,27.82,0,0,0,261,92.16a41.19,41.19,0,0,0,5.29-9.25,32.69,32.69,0,0,0,2.84-10.3c.73-4.84,1.17-9.68,1.56-14.55a54.84,54.84,0,0,1,1-8,14.34,14.34,0,0,1,2-5.66l-.37.73,1.71-1.76L253.24,59.13l28.62-15.35L259,51.56l23.26-5.62L258,49.33l33.77,11.05L274.36,47.51l20.09,19.28-11-13.55Q291,63,297.82,73.19a20.09,20.09,0,0,0,2.36,3.21,23.25,23.25,0,0,0,3.58,3.36l7.57,4.09a74.34,74.34,0,0,0,12,4.71,100.93,100.93,0,0,0,21.37,4.73A111.72,111.72,0,0,0,385.48,90c6.31-1.73,12.53-3.86,19-4.9l6.68-.77a57.21,57.21,0,0,1,12.61.52L423,84.7a75.89,75.89,0,0,1,14.55,4.12c3.05,1.28,6.05,2.67,9,4.12a122.2,122.2,0,0,0,16.34,6.92,56.08,56.08,0,0,0,28.3.81,169.2,169.2,0,0,0,17-5.87c6-2.47,12.38-5.71,17-10.41A35,35,0,0,0,531,76.88a29.56,29.56,0,0,0,3.37-13,12.71,12.71,0,0,0-.48-5.84,20.09,20.09,0,0,0-1.64-5.84,55.46,55.46,0,0,0-7.73-13.64c-2.29-3.13-4.88-6.08-7.31-9.1a49.05,49.05,0,0,1-4.57-5.91,21,21,0,0,1-3-5.29,4.84,4.84,0,0,0-1.13,2.88q-1.22,5.6-2.21,11.24t-1.9,11.29a4.83,4.83,0,0,0,.05,3.1c1.17,4.4,3.35,8.41,4.43,12.83a18,18,0,0,1,.8,5c0,.7,0,1.41-.09,2.12a3.47,3.47,0,0,1-1.12,2.77l.58-.55a6.38,6.38,0,0,0-2.44,2.45A6.14,6.14,0,0,1,504,73.86a33,33,0,0,1-6.12,3.63c-5.41,2.62-11.4,3.82-17.32,4.5-2.38.27-4.75.5-7.15.56a30.06,30.06,0,0,1-6-.32L462.21,82c-9.31-.81-18.17-4.26-27.06-6.85a137,137,0,0,0-13.3-3.39,126.47,126.47,0,0,0-16.23-2.14c-11.84-.68-23.83.67-35.55,2.38l-7.88,1.2a72.35,72.35,0,0,1-11.77.46A109.41,109.41,0,0,1,331,71.49a83.8,83.8,0,0,1-11.45-3.1,80.92,80.92,0,0,1-11.18-4.21c-5.71-2.71-11.09-6-16.5-9.22l.58.46-15-13.37a4.62,4.62,0,0,0-2.83,1c-3.24,1.8-6.43,3.67-9.6,5.6s-6.32,3.85-9.43,5.87a4.56,4.56,0,0,0-2.21,2c-.86,2.61-2.12,5-2.9,7.65A9.1,9.1,0,0,1,249.2,68c-.58,1.12-1.13,2.25-1.66,3.4a18,18,0,0,1-3.29,5.26l-1.59,1.37a2.4,2.4,0,0,1-1.72,1.56l.72-.12a13.71,13.71,0,0,1-3.49.31l.72.14a5.55,5.55,0,0,0-4-.72,11.1,11.1,0,0,1-4.31-1.5l-1.81-.47a8.43,8.43,0,0,1-3.32-2.5,2.73,2.73,0,0,1-1.59-1.48,3.38,3.38,0,0,1-.71-2.43,8.61,8.61,0,0,1-.06-4.22,57.42,57.42,0,0,0-7.53-23.06,4.22,4.22,0,0,0-2.63-1.12q-5.11-1.17-10.28-2.14T192.3,38.47a4.19,4.19,0,0,0-2.84.06,23.32,23.32,0,0,0-7.39,3.17A32.29,32.29,0,0,0,173.2,50l-2.43,3.2a23,23,0,0,1-3.28,5.19c-1.69,2.61-3,5.49-4.44,8.25l.53-.59q-2.18,2.44-4.5,4.75l.6-.48-2.45,1.75.64-.39a9.69,9.69,0,0,0-4,2.88A8.39,8.39,0,0,1,150,76.27a3.68,3.68,0,0,1-3.1,1.27,19.05,19.05,0,0,1-3.3-1l.51.51a5.13,5.13,0,0,0-2-3.07,2,2,0,0,1-1-1.58l.06.73a12.65,12.65,0,0,0-.67-4.4,23.48,23.48,0,0,1-.24-4.74L137.56,70l7.62-13.43c.47-.83-12.54-5.54-12.3-5.45q-5-1.89-10-3.59a4.26,4.26,0,0,0-2.85-.44,34.32,34.32,0,0,0-9.81,3.82,80.82,80.82,0,0,0-9.4,6.63l-2.28,1.9A22.77,22.77,0,0,1,94,63.11c-3,2.29-5.59,4.94-8.57,7.21C80.58,74,74.32,78,68,77.06c-1-.15-2-.27-3-.37A22.12,22.12,0,0,0,60.64,75l-2.4-1.56a18.65,18.65,0,0,1-5.5-4.42,5.27,5.27,0,0,0-1.37-2.62,4,4,0,0,1-1.2-2.66A5.55,5.55,0,0,1,49,60.1l.4-2.05a14.14,14.14,0,0,1,1.23-4.6,33.8,33.8,0,0,1,2-3.54,98,98,0,0,1,6.3-8.76c4.41-5.72,9-11.34,12.72-17.59a85,85,0,0,0,4.44-8.85A25.76,25.76,0,0,0,78.36,4.48,4,4,0,0,0,76,6q-3.78,3.43-7.4,7t-7.18,7.26A4,4,0,0,0,59.91,22.57Z"/>
    <path class="cls-1" d="M56.16,29.48l-1.58,3.91,8.28-9.25L51.7,35.05l8.18-6.89-10.42,8.2L58,30.1C52.22,34,46.42,37.87,40.6,41.71c-1.67,1.11-3.37,2.23-5,3.45A44.07,44.07,0,0,0,25.41,55.85a27,27,0,0,0-4.55,12,23.88,23.88,0,0,0,1.33,10.53,32.66,32.66,0,0,0,7,11.47,60.64,60.64,0,0,0,26.48,15.64,37.73,37.73,0,0,0,16.08,1.43,51.21,51.21,0,0,0,11.73-3.36,51.64,51.64,0,0,0,12.85-8.24A101.75,101.75,0,0,0,107,84.94c5.49-6.18,10.52-12.74,16.28-18.68l-.35.33a30.61,30.61,0,0,1,8.43-5.49,19.82,19.82,0,0,1,11.4-1.27l-3.26-1,4.31,1.67-8-4L145.58,62,136,55.8l8.82,6.85-6.88-5.91,5.17,5.87-4.3-5.43Q141.13,68.34,135,77q-3.44,5.28-6.73,10.63c-1.48,2.43-3.55,5.07-3.86,8-.86,8,9,11.3,15.22,12.26,7.51,1.16,14.75.87,21.56-2.86l5.65-3.49A32.67,32.67,0,0,0,176,92.2a81.93,81.93,0,0,0,9.1-16A172.6,172.6,0,0,0,191.84,57l-.14.44a51.75,51.75,0,0,1,2.7-7,12.4,12.4,0,0,1,6.75-5.79l-2.78.88,5-1-4.78.41,8-.32L198.83,44l11.06,1.4-7.77-1.48,11,2.83-7.74-2.47,10.84,4.28-9.46-4.38,10.43,5.6L210,45.27l9.87,6.86-6.81-5.37,9.1,8.17-6.33-6.28L224,58l-5.61-7.11,6.8,10.61-4.77-8,3.83,8.52L222,56.63l1.49,5.83-.61-3.63a45,45,0,0,1-10.6,21.37l3.66-4.83C212.34,79.83,208,84.49,205,89.49a8,8,0,0,0-.82,7.33,13.58,13.58,0,0,0,5.53,6.25,38.15,38.15,0,0,0,9.85,4.6,52.18,52.18,0,0,0,20.64,1.76c6.37-.76,12.82-2.24,18.1-6.11,6.14-4.51,10.32-12.2,12.38-19.42a100.87,100.87,0,0,0,1.9-11.45,63.94,63.94,0,0,0,.69-10.34c.19-5.42.08-11.34,3.75-15.76l-4.33,2.92,5.5-3-8.07,3.38,10.27-3.28-8.63,2.1,9.27-1-7.27.26,11.73,1L276,47.18a31.88,31.88,0,0,1,14.34,14.55l-3-4.49,4.4,7.76-2.59-4.92q4.2,8.4,7.8,17.08a25.55,25.55,0,0,0,2.16,4.58,21,21,0,0,0,4.58,6.12c3.15,2.77,7.94,4.34,11.86,6a96.74,96.74,0,0,0,20.93,6.23,112.24,112.24,0,0,0,41-.45,83.43,83.43,0,0,0,14-3.64l7.5-2.35L406,92a59,59,0,0,1,13.13-1h-.54l6.18.63A43.38,43.38,0,0,1,433.85,94a83.64,83.64,0,0,1,12,5.36,130.49,130.49,0,0,0,15.7,7.38A51.31,51.31,0,0,0,486,109.32l6.37-1.2,5.53-1.94c3.31-1.15,6.63-2.29,9.86-3.66,6.29-2.67,12.34-5.84,17.47-10.4a32.25,32.25,0,0,0,7.64-9.4,38.25,38.25,0,0,0,3.42-10.52c.88-5.13-.1-10.6-1.61-15.49a19.55,19.55,0,0,0-2.6-6.32,65,65,0,0,0-5.27-9C521.56,34.26,515,28.14,510.5,20.53c-.87-1.46-1.26,2.64-1.22,2.33-.16,1.54-.26,3.08-.31,4.62a5.54,5.54,0,0,0,.21,2.43,86.79,86.79,0,0,0,5.94,8.2c6.23,7.83,10.91,17.28,11.06,27.75l.07-.46-1,5.57.16-.44c-1.88,3.43-3.46,6.86-6.21,9.72a38.29,38.29,0,0,1-7.52,5.94c-6.12,3.81-13,6.1-20,7.73a71.83,71.83,0,0,1-10.29,2A78.09,78.09,0,0,1,468,95.61c-9-.9-17.33-4.16-25.67-7.51-9-3.62-18.31-6.57-28-7.3-9.07-.69-18.19.63-27.06,2.38-6.62,1.31-13.15,2.93-19.86,3.74a113.57,113.57,0,0,1-21.42.49,84.55,84.55,0,0,1-12.48-1.82,86.07,86.07,0,0,1-12.16-3l-7.82-2.77a62,62,0,0,1-13.86-7.51l.46.32A45.21,45.21,0,0,1,293,64.18l4.89,12.13q-2.48-9-5.22-18A25,25,0,0,0,290,52.44a14.12,14.12,0,0,0-3.45-4.56A17.66,17.66,0,0,0,281,45.2c-1.18-.43-4.4.65-5.27.87l-2.52.65a6.58,6.58,0,0,0-2.55,1,11,11,0,0,0-4.38,7.13,23.37,23.37,0,0,0-.71,4.62L265,63.31a39.59,39.59,0,0,1-2.26,10.57A30.2,30.2,0,0,1,259,84.49l-2.51,3.37a19.78,19.78,0,0,1-5,4.44A9.6,9.6,0,0,1,247,94.59L244,94.9a21.67,21.67,0,0,1-5.89.63,40.24,40.24,0,0,1-10.42-1.21,23.53,23.53,0,0,1-5.86-2.25,20,20,0,0,1-4.36-2.54l-2-2.07a7.15,7.15,0,0,1-1.76-4.3l0,.55a16.25,16.25,0,0,1,1.59-5.37L207.53,88c3.26-2.81,7.12-4.51,10.77-6.72A26.76,26.76,0,0,0,225,75.88a17,17,0,0,0,2.22-3.14,4.4,4.4,0,0,0,.48-2.44,11.09,11.09,0,0,0,.29-4.25,19.77,19.77,0,0,0-1.82-7.75,19.49,19.49,0,0,0-5.42-7.3c-2.87-2.34-5.69-4.86-9.17-6.17-1.87-.71-3.79-1.35-5.71-1.91a12,12,0,0,0-3.08-.65l-12.06,3.26-.89.41c-2.17,1.23-4,4.67-5.27,6.83a34.18,34.18,0,0,0-2.38,6.12c-.72,2.17-1.4,4.29-2.1,6.48l.15-.43q-1.87,4.35-3.93,8.62l.21-.41-2.59,4.06.26-.37c-4.29,5.88-9,11.56-15.72,14.77a26.84,26.84,0,0,1-9.28,2.59,8.08,8.08,0,0,1-4.47-.12A16.31,16.31,0,0,1,138.52,92l.44.35a9.08,9.08,0,0,0-3.45-3,6.38,6.38,0,0,1-2-3.5l.12.56-.32-2.28.07.56a10.67,10.67,0,0,1,1.37-4.82L128,90.5c2.78-3,6.23-5.51,9.49-8l-.42.32c5.28-4,12.2-9.52,11.33-17a6.66,6.66,0,0,0-1.74-4.39c-1.84-1.85-4.35-3.16-6.55-4.55-3.15-2-5.25-3.29-9.32-2.89a22.71,22.71,0,0,0-8,2.54,53.22,53.22,0,0,0-12.3,9.12c-3.22,3-6.1,6.59-9.11,9.81A83.73,83.73,0,0,1,90.42,85.67a40.52,40.52,0,0,1-12.74,6.49,31.73,31.73,0,0,1-12.52.89,44,44,0,0,1-14.08-4.51,17.78,17.78,0,0,1-8.52-6.39L39.65,79a70,70,0,0,1-3.86-6.45,11.87,11.87,0,0,1-1.18-4.8,24.38,24.38,0,0,1,1.45-10.66l-.23.5c3.46-6.82,8.48-12.27,14.08-17.41,5.25-4.82,10.06-9,14.58-15a16.37,16.37,0,0,0,3.22-8.14c.23-.63.05-.78-.54-.46a16.72,16.72,0,0,0-3.08,3q-2.76,3.11-5.4,6.31A16.45,16.45,0,0,0,56.16,29.48Z"/>
    <path class="cls-1" d="M55.53,25.7l-1.62,3.57,1.28-1.34c-2.54,2.18-6.26,3.78-9.3,5.3-2,1-4.07,2-6.07,3.11A45,45,0,0,0,27.13,46.48,28.61,28.61,0,0,0,20,63.14a26.43,26.43,0,0,0,2.79,13.68A41.11,41.11,0,0,0,35,91.23a64.64,64.64,0,0,0,20.4,10.51c6.64,1.91,13.79,3.18,20.69,1.86a48.42,48.42,0,0,0,18.65-7.7,70.19,70.19,0,0,0,10-8.36c5.77-5.86,10.67-12.42,15.77-18.85a76.83,76.83,0,0,1,8.74-9.64C133.8,55,138.7,53.92,144.55,54l-4.87-.56,4.33.82-2.92-.73q5.47,1.24,6.34,5.78,1.62,3.52-1.53,6.9a13.22,13.22,0,0,1-5,8.5L137.8,76.9c-2.08,1.42-4.8,2.63-6.76,4.27A28.19,28.19,0,0,0,127.5,85a15,15,0,0,0-2.85,4.65,10,10,0,0,0,.08,5.31,8.83,8.83,0,0,0,3.11,4.22c7.79,6.65,19.2,7.53,28.84,5.62a14.5,14.5,0,0,0,6.69-2.2A32.87,32.87,0,0,0,172.53,97l5.37-5a48.28,48.28,0,0,0,5.81-8.46,98.13,98.13,0,0,0,9.15-22.11C194,57.6,195,53.75,196.19,50l1.22-3.67A13.84,13.84,0,0,1,202,39.36L198.83,41l6.1-2.94L198.2,40.3l6.66-1.55-3.37.57,6.8-.58-3.3.12c3.9.62,8,1.2,11.31,3.55l12.18,19.93a6.18,6.18,0,0,1-1.78,5.9,31.08,31.08,0,0,1-7.59,6.69c-1.67,1-3.38,1.9-5.11,2.74s-3.3,1.67-4.93,2.53A22.31,22.31,0,0,0,205.75,84a12.65,12.65,0,0,0-2.2,4,4.13,4.13,0,0,0-.39,1.68L204,92.9c1.15,3.15,4,5.37,6.72,7a43.52,43.52,0,0,0,14.6,5.61,67.1,67.1,0,0,0,16.13,1,43.26,43.26,0,0,0,9-1.74,36.52,36.52,0,0,0,8.45-3l5-3.18A23.75,23.75,0,0,0,271.8,89a50.38,50.38,0,0,0,4.83-15.47,86.94,86.94,0,0,0,.75-8.87c.17-4.83-.12-9.69.11-14.52.19-3.84.27-7.46,3-10.53l-6,4.48,5-3-3.2,1.74,10.66,2.55,2.91,3.79,2.66,4.3a59.74,59.74,0,0,1,2.28,6.06c.85,2.55,1.55,5.13,2.22,7.73A49.19,49.19,0,0,0,299.45,74a34.5,34.5,0,0,0,5.36,9.1A15.52,15.52,0,0,0,307,85.11L314.77,89l8.13,3.22A108.85,108.85,0,0,0,363,98.12a108.18,108.18,0,0,0,18.72-2.35,172.78,172.78,0,0,0,17.93-5.14,71.82,71.82,0,0,1,17.6-3.84l6.35-.05,11.54,2.12c7.5,2.26,14.09,6.68,20.95,10.31a60.18,60.18,0,0,0,14,5.55,46.74,46.74,0,0,0,10.72,1.38,43.27,43.27,0,0,0,9.16-.56l6.69-1.37c2.55-.78,5.06-1.86,7.54-2.82,2.71-1,5.41-2.12,8.07-3.28a63.46,63.46,0,0,0,17.63-11,36.77,36.77,0,0,0,6.51-7.93A32.23,32.23,0,0,0,540,71.41l1.25-6.07.15-6.77L540,51.68l-2.61-6.8-3.71-6.31-4.24-5.88c-3.1-4-6.8-7.73-10.21-11.52a43.1,43.1,0,0,1-3.16-3.72,23.27,23.27,0,0,1-3.47-5.13c-.83-1.38-1.42,2.28-1.4,2.17q-.4,2.22-.66,4.47a5.17,5.17,0,0,0,0,2.38c3.47,4.91,7.62,9.15,11.48,13.73a64,64,0,0,1,9.66,15,30.11,30.11,0,0,1,2.08,17.14c-1.85,9.8-7.62,16.54-15.23,21.52-6.78,4.44-14.59,7.31-22.18,10a50.25,50.25,0,0,1-31.33.79c-6.12-1.92-11.82-5-17.48-7.89-5-2.61-10-5.3-15.5-6.74a56.59,56.59,0,0,0-13-2.07,65.49,65.49,0,0,0-19.72,2.69C391,88,382.87,91.13,374.18,92.42a111.4,111.4,0,0,1-22.42,1.12,105.54,105.54,0,0,1-26-4.57,91.29,91.29,0,0,1-12.18-4.41A18.25,18.25,0,0,1,302,75.91l.76,1.58A65.22,65.22,0,0,1,300,67.33c-.78-4.36-1.25-8.9-2.47-13.16a38.85,38.85,0,0,0-2.77-6.9,21.88,21.88,0,0,0-3.56-5.79,16.67,16.67,0,0,0-4.59-2.63,8.23,8.23,0,0,0-4-1c-3,.38-5.45,2.35-7.68,4.26C271.81,44.8,271.3,49,271.21,53c-.2,8.84,1.05,17.75-1.3,26.41a35.85,35.85,0,0,1-2.84,7.92l-2.77,4.8a31.33,31.33,0,0,1-8.06,6.13l-4.88,1.94a55.65,55.65,0,0,1-10.73,2.39l-5.94,0a41.66,41.66,0,0,1-17.07-3.83A16,16,0,0,1,210,93.14q-4.42-2.72-3-7.92a8,8,0,0,1,5.28-3.55l7.48-3.35,4.12-2.4a25.23,25.23,0,0,0,6.7-6.08l1.25-4.61a17.26,17.26,0,0,0-.26-8.74l-1.3-4a24.6,24.6,0,0,0-3.43-5.29,25.54,25.54,0,0,0-4.57-4.61,29.4,29.4,0,0,0-10-5.29c-4.38-1.33-8.84-.27-13,1.3a13.56,13.56,0,0,0-4.74,3.23c-2.34,2.36-3.33,4.8-4.33,7.88-3.22,9.91-4.48,20.52-9.38,29.84-2.85,5.44-6,10.4-10.94,14.24l-5.22,3.68a22.46,22.46,0,0,1-11.89,4l-6.78.26a24.52,24.52,0,0,1-8.46-2.13,21.83,21.83,0,0,1-6.13-3.14,8.55,8.55,0,0,1-4.06-9l-1.14,2.2,3.08-3.59a61.06,61.06,0,0,1,7.57-4.89,44.27,44.27,0,0,0,9.14-6.36,47.68,47.68,0,0,0,3.37-3.45L152,67.69a5.34,5.34,0,0,0,.5-2.21c.4-2.09.79-3.47.24-5.77a7.12,7.12,0,0,0-1.33-3.3,12.54,12.54,0,0,0-6.07-3.47,22.44,22.44,0,0,0-8.18-.84,25.56,25.56,0,0,0-10,3.15c-4.27,2.46-7.5,6-10.63,9.78-6.14,7.39-11.14,15.51-18.08,22.26A53.86,53.86,0,0,1,89,94.46a26.37,26.37,0,0,1-8.23,3.84L74.9,99.85l-6,.32-6.27-.5c-5.59-.76-11.45-3.25-16.4-5.89a37.53,37.53,0,0,1-8.67-5.69l-4.52-4.16a39.94,39.94,0,0,1-5.8-9.1,20.89,20.89,0,0,1-2-10.63,26.63,26.63,0,0,1,3.35-12.14c4.52-8,12-14.16,20-18.45,2-1,4.14-1.76,5.94-3.08A16.57,16.57,0,0,0,57,28.3a8.25,8.25,0,0,0,1.93-4.21c.14-.64-.12-1.05-.83-.86A5.85,5.85,0,0,0,55.53,25.7Z"/>
    <path class="cls-1" d="M58.21,29.19l-1.54,3.94,7-8.78-7.58,8.72,12.77-13.4L52,35.82l11-9.1L49.71,37.28,56.8,32c-5.73,4.1-11.6,8-17.24,12.24a51,51,0,0,0-6.17,5.3,41,41,0,0,0-7.35,10A24.73,24.73,0,0,0,23.8,76.17a30.21,30.21,0,0,0,5.77,11.2A44.86,44.86,0,0,0,41.1,97.72a68.77,68.77,0,0,0,12.67,6.33,40,40,0,0,0,15.93,2.51A36.27,36.27,0,0,0,84.22,103a67.59,67.59,0,0,0,10-6.25c7.39-5.49,13.29-12.93,19.23-19.86,4.31-5,8.57-10.16,14.18-13.81l-.58.3L130,61.91l-.6.28c4.3-1.7,8.92-3.23,13.49-1.63l-12.65-6.23L144.85,62,128.09,51.41l18.43,15.12L133.86,53.71l9.91,13.11L134.42,53.4l5.35,24.44-1.84-19.61-5.56,26.05,5.55-16.84q-6.07,12.38-11.11,25.19a5.44,5.44,0,0,0-.59,2.74,23.41,23.41,0,0,0,.19,2.9,6.24,6.24,0,0,0,2.41,3.88c4,3.93,9.71,5.62,15.19,5.91h6.25a24.16,24.16,0,0,0,11.74-3.7,34.93,34.93,0,0,0,7.65-5.62,24.18,24.18,0,0,0,6.17-7.09q3.41-5,6.32-10.25l2.12-5.08c1.89-4.62,3.52-9.33,5.14-14q1.18-4,2.71-7.85a16.73,16.73,0,0,1,3-5.19l-.36.5a11.42,11.42,0,0,1,8.77-4.45l-17.15,1.26,23.94-.42-14.33-2.25L212,47.18l-12.65-3.76,15.86,5.35-15.46-6.65L221,53.24,206.81,43.12l16.49,13L210.06,44.3l16.18,18.63L215,46.36l11.2,24.41-6.1-17.29L223.61,70,221,54.32l.43,13,.1-10.56-1.67,12.74L221.62,59l-3.56,12.82,3.16-9.87-10.6,22,8.59-15.15Q213.8,77.35,208.54,86a36.72,36.72,0,0,0-2.25,4,9.76,9.76,0,0,0-.16,6.53,12.31,12.31,0,0,0,5.39,6.3,37.89,37.89,0,0,0,9.65,4.55,50.18,50.18,0,0,0,20,1.58c6.23-.78,12.48-2.25,17.59-6.12,5.36-4.06,8.15-10,10.23-16.23,1.94-5.82,2.48-12.33,2.88-18.44q.08-4.51.46-9a66.8,66.8,0,0,1,1.19-7l-.2.54a8.27,8.27,0,0,1,2.71-4.38l-13.78,7.61,18-8.39-15.54,4.22,16.81-3-17.15,1,29.81,17L281.87,52.39l12.3,16.76-9.68-14.56,11,18-6.82-12.5q4.77,9.95,10.07,19.63c.65,1.19,1.31,2.38,2,3.56A23.75,23.75,0,0,0,305,88a64.36,64.36,0,0,0,11.47,5.74,71.86,71.86,0,0,0,12.28,4.32,112.89,112.89,0,0,0,21.92,3.49,100.84,100.84,0,0,0,22.83-1,168.65,168.65,0,0,0,22.2-5.74,75,75,0,0,1,17.47-3.55l6.41-.07a54.44,54.44,0,0,1,12.29,2l-.7-.21,6.76,2.27-.69-.25c12.25,5.53,23.86,13.47,37.58,14.69a54.63,54.63,0,0,0,11.85-.36l6.37-1.22,3.55-1.29a146,146,0,0,0,17.52-7.06,45.78,45.78,0,0,0,14.48-10.94,29.53,29.53,0,0,0,5.06-8.45,15.65,15.65,0,0,0,1.5-5.19,14.43,14.43,0,0,0,.57-5.62c.06-17.35-13.9-30-23.33-43.05l.27.45-1.72-3.14c-1-1.79-1.64,4-1.57,3.62q-.57,3.62-1,7.25a12.51,12.51,0,0,0-.16,3.81c1,2.29,2.2,4.47,3.45,6.66l2.2,3.79a60.55,60.55,0,0,1,2.51,6.07A26,26,0,0,1,518,63a12.93,12.93,0,0,1,0,3.57,9,9,0,0,1-1.36,4.76l.42-.46a16.21,16.21,0,0,0-3.44,4.57l-2.26,2.19A33.77,33.77,0,0,1,503,83.11c-6.34,3.1-13.36,4.7-20.31,5.7l-3.12.41a27.92,27.92,0,0,1-7.64.07A75.26,75.26,0,0,1,459,88c-10-2.06-19.27-6.53-29.15-9a137.2,137.2,0,0,0-15.17-3.07,90.78,90.78,0,0,0-19.91-.13c-6.52.54-13.08,1.67-19.52,2.8a74.3,74.3,0,0,1-12.41,1.91A76.66,76.66,0,0,1,350.5,81a104.18,104.18,0,0,1-24.07-3.43c-7.7-2.08-15.49-4.6-22.4-8.67a54.2,54.2,0,0,1-9.29-6.44c-2.65-2.44-5.16-5.07-7.71-7.62l9.51,17.27c-7.79-19.63-3.25-15.11-10.27-22.47a2.57,2.57,0,0,0-2-.77c-2.59-.34-5.18-.62-7.79-.82s-5.2-.4-7.81-.5a2.61,2.61,0,0,0-2.12.42,46.16,46.16,0,0,0-7.87,13.78l-.5,3.09c-.5,1.59-1,3.18-1.41,4.79s-1,3.38-1.47,5.07a33,33,0,0,1-4.85,8.29,12.11,12.11,0,0,1-6.49,4.71l-1.75.4a12.18,12.18,0,0,0-5.1.1L233.93,88q-3.12-.64-6.21-1.4a25.23,25.23,0,0,1-6.31-3.47c-2.18-1.55-2.72-3.58-3-6.13l0,.7c.49-2.45.76-4.79,1.43-7.21L208.38,88l4.92-4.08-.55.39c3.25-1.85,6.87-3.47,9.76-5.87,1.88-1.55,4.43-3.58,5.17-5.93a18.1,18.1,0,0,0,.63-4.65A25.23,25.23,0,0,0,227,60a26,26,0,0,0-3.36-4.33q-2.57-3-5.22-5.91c-1.39-1.58-2.83-3.12-4.3-4.63a3.15,3.15,0,0,0-2-1.37,166.86,166.86,0,0,0-20.8-1.84l-3.5,1.47a25.44,25.44,0,0,0-6.3,5.46,52.9,52.9,0,0,0-5.64,8.32c-1.88,3.15-2.55,6.94-4.32,10.13a40.75,40.75,0,0,1-6.09,8.61c-2.33,2.42-4.67,5.17-7.54,6.93a26,26,0,0,1-7.54,3.49,10.1,10.1,0,0,1-5.18.23A9.78,9.78,0,0,1,140,84.31l.45.57a8.28,8.28,0,0,0-.7-1.72,3.77,3.77,0,0,1-1.95-2.26l.13.7c-.25-1.39-.44-2.78-.58-4.18l0,.71c.17-2.25.68-4.39.91-6.64l-9.64,19.12,4-4.36-.52.45c3.22-2.73,6.8-5,9.87-7.94a30.2,30.2,0,0,0,4-4.3,9.32,9.32,0,0,0,2.56-6.65,3.22,3.22,0,0,0-1.26-2.12q-3-3.33-6.22-6.52t-6.44-6.3a3.22,3.22,0,0,0-2.1-1.28l-12.22.78-.66.14a38.44,38.44,0,0,0-4.24,2.28,32.22,32.22,0,0,0-2.73,1.73c-3.41,2.29-6.25,5.18-9.52,7.62a77.41,77.41,0,0,0-7.11,6.69c-2,2-4.12,4-6.3,5.83-4.52,3.78-9.62,7.13-15.38,8.58a27.37,27.37,0,0,1-6.38.71,28.27,28.27,0,0,1-6.25-1,32.8,32.8,0,0,1-9.42-4L48,78,46.2,75.33l-2-2.49L42.86,70.1a15.46,15.46,0,0,1-1.83-5,18.54,18.54,0,0,1,.7-6.61A26.2,26.2,0,0,1,44.65,52l-.36.55c5.46-7.91,12.34-14.48,18.62-21.72a55.92,55.92,0,0,0,7.26-10.58A22.9,22.9,0,0,0,72.8,11a3.49,3.49,0,0,0-2,1.61q-2.16,2.55-4.2,5.2Q64,21.06,61.47,24.4A29.31,29.31,0,0,0,58.21,29.19Z"/>
    <path class="cls-1" d="M59,24.46l-.37,2.22.27-.77-1.25,1.78L71,16.19a159.48,159.48,0,0,1-21.77,17.6L45.81,36.1c-2.18,1.49-4.32,3.06-6.35,4.75A55.1,55.1,0,0,0,29.64,51C26.26,55.8,23.91,61.65,24.4,67.6L25,71.7A23.7,23.7,0,0,0,27.9,78a33.9,33.9,0,0,0,9,10.26,71.39,71.39,0,0,0,10.74,6.78c5.45,2.8,12.25,5,18.43,5.1l5.85-.15,5.52-1.25A43.26,43.26,0,0,0,90,92.6c7.44-4.92,13.66-11.6,19.51-18.28,4.84-5.53,9.7-11.3,15.93-15.32l-.71.37,3.06-1.52-.72.34c4.35-1.71,8-2.74,12.78-2.27L116.93,50l27,8.12L120.36,47.6,145,65.83,127.35,46.88l6.21,30.73,2.63-23.53a209.86,209.86,0,0,0-9.52,34.81l0,.79a8.48,8.48,0,0,0,1.51,5.2l2.44,2.31c3.7,3.06,8.75,4.1,13.4,4.53a36.08,36.08,0,0,0,11.43-1.1,31.58,31.58,0,0,0,7.79-4.17,36.45,36.45,0,0,0,7-5.53,54.11,54.11,0,0,0,5.07-7.06,102.56,102.56,0,0,0,7.61-14.4c1.89-4.28,3.54-8.68,5.08-13.1a40,40,0,0,1,5.18-10.66l-.5.62,5.58-3.75-22.49,7.3L204.62,42l-25.53,2.38,38.18,2.78-21.78-8,26.73,13.1L203,39.51,222.21,54.1,206.6,40.42l17,17L208.61,40,225.2,66.4,214.94,43.09l-4.81,36.34,8.64-16.22A239.18,239.18,0,0,0,206.9,84.1c-.22,1.19-.42,2.38-.61,3.57a7.57,7.57,0,0,0,1.55,4.73,8.62,8.62,0,0,0,4.36,4.38,40.53,40.53,0,0,0,9.24,4.32,50.19,50.19,0,0,0,8.08,1.3,54.25,54.25,0,0,0,8.16.46,58.87,58.87,0,0,0,10.3-1.78,27.49,27.49,0,0,0,12.78-7.45,42,42,0,0,0,5.08-9.42A32.17,32.17,0,0,0,268.44,74c.64-4.75,1-9.51,1.35-14.29a51.37,51.37,0,0,1,1-7.8,14,14,0,0,1,2-5.61l-.38.69,1.73-1.76L252.86,59.34l28.14-14-22.39,6.47,22.92-4.51-23.1,2.37L289,55.18,266.23,46l25.26,15.82L272.89,46a119.62,119.62,0,0,1,23.86,27.53c.74,1.18,1.49,2.35,2.26,3.51a25.21,25.21,0,0,0,3.46,3.69,22.49,22.49,0,0,0,8.62,5L319,89.11a79.46,79.46,0,0,0,12.52,3.68,80.61,80.61,0,0,0,13,2.33,115,115,0,0,0,22.49,0,81.63,81.63,0,0,0,13.7-2.2l9.15-2.57c6.95-2,13.78-4.14,21.07-4.47l6.4-.07a57,57,0,0,1,12.32,1.93l-.77-.21,6.88,2.17-.76-.25c6.31,2.68,12.37,5.85,18.62,8.68a58.58,58.58,0,0,0,22.16,5.69,56.89,56.89,0,0,0,12.08-.89,16.82,16.82,0,0,0,4.91-1.15c1.19-.41,2.39-.81,3.58-1.2,5.93-2,12-4,17.47-7,5.27-2.87,10.32-6.41,14-11.24a28.92,28.92,0,0,0,4.53-8.75l1.21-5.35.12-5.77-1.23-5.77L530.26,51a72.47,72.47,0,0,0-4.89-7.93,36.69,36.69,0,0,0-3.57-4.85l-6.94-8.61A32.78,32.78,0,0,1,512,25.75a21,21,0,0,1-3-5.22,4.21,4.21,0,0,0-1.09,2.67c-.54,2.45-1,4.91-1.46,7.38-.59,3.08-1.13,6.17-1.64,9.26a37.12,37.12,0,0,0-.78,6.47,58.77,58.77,0,0,0,2,6.34,50.88,50.88,0,0,1,2.36,7.23,18.52,18.52,0,0,1,.72,4.83l-.09,2A3.22,3.22,0,0,1,508,69.41l.58-.52a7.57,7.57,0,0,0-3,3.27l-1.93,1.54A31.75,31.75,0,0,1,496.17,78a61.47,61.47,0,0,1-18.8,4.11,68.7,68.7,0,0,1-10-.08,86.86,86.86,0,0,1-12.64-1.51c-10.23-2.13-19.91-6.29-30.15-8.4-5.19-1.06-10.42-1.95-15.69-2.52a114.75,114.75,0,0,0-20.05,0c-14.17,1-28.09,4.47-42.36,3.71a104.87,104.87,0,0,1-45.12-12.86c-3.62-2-7.29-4.12-10.73-6.45-1.38-.92-2.74-1.88-4.06-2.88q-6-3.27-12-6.62a4.33,4.33,0,0,0-2.68,1.07q-4.54,2.79-9,5.77t-8.8,6a4.34,4.34,0,0,0-2,2.07A23.94,23.94,0,0,0,250,64.33l-.73,2.7Q248.1,69.19,247,71.4a22,22,0,0,1-1.61,3,10.12,10.12,0,0,1-1.59,2.09A3.33,3.33,0,0,0,242,78.24a1.68,1.68,0,0,1-1.32,1.13,17.83,17.83,0,0,1-2.62.23l.73.2a5,5,0,0,0-3.94-.7,10.59,10.59,0,0,1-4.3-1.4,7.47,7.47,0,0,1-3.6-1.43,9,9,0,0,0-2.15-1.89c-1.68-1.16-1.93-3.58-2-5.49a11,11,0,0,0-.14-5.14A29,29,0,0,0,218,47a4.2,4.2,0,0,0-2.4-1.55q-4.86-2-9.81-3.88T195.91,38a4.18,4.18,0,0,0-2.82-.43c-4.18.95-7.65,1.86-11.29,4.11a21.83,21.83,0,0,0-6.3,5.21q-2,2.37-3.87,4.83a23.66,23.66,0,0,0-3.29,5.14A18.48,18.48,0,0,0,165.61,61c-1.05,1.87-2.08,3.76-3.08,5.65q-1.91,2.05-3.93,4l.62-.44-2.38,1.66-2,1.15-1.19,1.31A5.66,5.66,0,0,1,151,75.68c-1.23.4-1.94,1.28-3.2,1.53a8.08,8.08,0,0,1-4.16-.75l.5.58a5,5,0,0,0-2-3.05,2,2,0,0,1-1-1.57l.05.79a12,12,0,0,0-.64-4.41,23.52,23.52,0,0,1-.22-4.67L127.74,86.79q21.39-10.16,18-26.76a4.19,4.19,0,0,0-2.11-1.93c-3-1.9-6-3.72-9-5.49s-6.07-3.53-9.16-5.21a4.25,4.25,0,0,0-2.71-.9,37.57,37.57,0,0,0-9.92,2.84A54.59,54.59,0,0,0,103,55.63c-2.39,1.79-4.52,3.75-6.84,5.6a34.32,34.32,0,0,0-5.47,4.21l-2.83,2.49C82.75,72.22,76.08,77,69,77c-1-.16-2.1-.28-3.16-.35a5,5,0,0,1-2.92-.93,9.88,9.88,0,0,1-4.7-2.21,13.61,13.61,0,0,1-4.18-3,4.64,4.64,0,0,1-2.19-3.18,5.49,5.49,0,0,1-1.81-3.5L49.19,62a6.44,6.44,0,0,1,.2-4,21,21,0,0,1,2.49-7,72.48,72.48,0,0,1,6-8.63c4.77-6.13,9.81-12.19,13.74-18.91,3.43-5.86,6.59-12.36,6.77-19.23A4.57,4.57,0,0,0,76,6q-4,3.86-7.8,7.86t-7.58,8.08A4.51,4.51,0,0,0,59,24.46Z"/>
    <path class="cls-1" d="M59.11,27.39l-1.53,4,6.12-7.46-6.84,7.65,8.85-9L54.92,33l9.3-8.3L52.75,34.33l6.09-4.83c-5.12,3.85-10.1,7.31-15.27,10.9a78.22,78.22,0,0,0-7,5.31,41.69,41.69,0,0,0-8.94,10.63,25.38,25.38,0,0,0-3.27,15.94c1.19,9.06,7.76,16.29,14.78,21.55C47.36,100,57,104.2,67.25,104.92c10,.71,20-3.66,27.87-9.58,7.47-5.62,13.48-12.88,19.51-19.94,4.33-5.06,8.59-10.22,14.22-13.88l-.56.33c4.94-2.51,9.52-4,15.15-3.13L129,54.05l16.86,6.54-15.1-8.13L147,62.52,131.93,51.74l13.41,19.42-8.09-15.52,3.4,20.65-1.9-17.24-.38,7.36.54-4.62-5.62,20.93,4.9-14.47Q133.54,79,128.32,89.42a12.38,12.38,0,0,0-.87,2.64,8.23,8.23,0,0,0,.47,5.64c1.83,4.21,7.06,6.63,11.3,7.6,5.66,1.3,12,1.66,17.6.07a30.22,30.22,0,0,0,8.55-4.14,36,36,0,0,0,7.67-5.8,76.86,76.86,0,0,0,7.21-10.16l3-5.24c2.45-4.7,4.11-9.9,5.86-14.9,1.83-5.23,3.4-10.49,5.74-15.51l-.34.51a13.36,13.36,0,0,1,7-5.89l-13.65,3.43,20.15-3.84-14.3.14,16,.7-12.64-1.51,16,2.63-15.76-3.92,18.93,5.53L201,41.81l18.3,7.64-14.77-7.28L222,51.89l-13.9-8.84,16.2,11.7-14.1-11.62,17,18.37L217,48.3l8.7,14.07-6.95-12.91,6.47,22.64-3.45-16.93.21,7.24.14-4.7-1,6.93L222,60l-2.2,7.22L221.41,63,211.5,82.43l7.58-12.84q-5,7.38-9.68,14.94a28.43,28.43,0,0,0-2.17,3.74,9.45,9.45,0,0,0-.18,6.4,12.1,12.1,0,0,0,5.28,6.22,36.9,36.9,0,0,0,9.52,4.55,50.58,50.58,0,0,0,20,1.81c6.25-.7,12.55-2.11,17.73-5.88,5.44-4,8.39-9.94,10.57-16.14A25.22,25.22,0,0,0,272.05,77q.72-5.25,1.24-10.51,0-4.56.34-9.12a51.31,51.31,0,0,1,1.15-7.07l-.2.56,1.1-2.55-13.41,9.07,19.26-11.54-15.76,5,17-3.63-15.23,2.16,17.83-.84-17.21-.87,23.07,9.47-14.74-8.91,18.58,19.51-9.43-12.91,10.73,16.36L289.7,60.12q5,9.85,10.62,19.39a18.3,18.3,0,0,0,2.06,3.24,16.4,16.4,0,0,0,3.34,3.42l7.47,4.08a72.32,72.32,0,0,0,12.08,4.67,100.83,100.83,0,0,0,21.58,4.59,112.21,112.21,0,0,0,41.25-3.82c6.36-1.83,12.62-4.09,19.17-5.2l6.71-.82a53.7,53.7,0,0,1,12.6.56l-.67-.11a71.7,71.7,0,0,1,14.44,4.35c3,1.35,5.95,2.81,8.88,4.33a108.55,108.55,0,0,0,16.07,7.1,47,47,0,0,0,13.08,2.15c5,.15,10.64-.1,15.38-1.57A174,174,0,0,0,511,100.12c6.08-2.63,12.46-6.06,17-11a35.09,35.09,0,0,0,5.73-7.8,30.1,30.1,0,0,0,3.16-13.32,14.64,14.64,0,0,0-.54-6,19.86,19.86,0,0,0-1.67-6A59.9,59.9,0,0,0,527,41.94c-4.91-6.83-11.21-12.62-15.3-20-.15-.61-.38-.65-.7-.11a14.29,14.29,0,0,0-1,3.94q-.67,3.82-1.18,7.67a14.88,14.88,0,0,0-.25,4c2.31,5,5.59,9.35,7.77,14.37A38.54,38.54,0,0,1,519.05,60a19.56,19.56,0,0,1,.27,5.81,10,10,0,0,1-1.24,5.06l.39-.49A14.49,14.49,0,0,0,515.85,74a10.51,10.51,0,0,1-3.06,3.67,33,33,0,0,1-5.27,4A55.75,55.75,0,0,1,489,88.52c-2.72.54-5.44,1-8.19,1.43a64.21,64.21,0,0,1-10.47.11c-9.46-.25-18.17-3.12-27-6.28-4.09-1.47-8.16-3-12.36-4.16a114.69,114.69,0,0,0-15-3.22c-11.05-1.44-22.07-.09-33,1.68-7.72,1.26-15.29,3.25-23.14,3.63a109.47,109.47,0,0,1-20.47-.86,103.74,103.74,0,0,1-19.84-4.54l-7.6-2.85A66.47,66.47,0,0,1,298.3,65.7l.52.42A119,119,0,0,1,288.1,55.3L298,72.09a54.78,54.78,0,0,0-7.3-19.87A13.78,13.78,0,0,0,287.46,48a2.59,2.59,0,0,0-2.06-.67q-3.9-.33-7.82-.44t-7.84-.13a2.53,2.53,0,0,0-2.09.52c-9.82,16.3-6.72,7.68-8.43,16.6-.42,1.63-.82,3.28-1.18,4.93s-.8,3.48-1.22,5.22a35.66,35.66,0,0,1-3.74,7.49c-1.73,2.63-3.43,4.76-6.31,6.18A9.6,9.6,0,0,1,243.41,89l-2.4-.09a14.78,14.78,0,0,1-4.73.36,18,18,0,0,1-5.19-.68A24.64,24.64,0,0,1,222,85l-1.81-1.26A7.35,7.35,0,0,1,218,79.83l.08.63L217.78,78v.63a58.86,58.86,0,0,1,1.68-7.15L209.34,86.29l4.92-4.12-.52.31a89,89,0,0,0,9.62-5.89c1.78-1.36,4.74-3.78,5.2-6.15a26.37,26.37,0,0,0,.38-7.56c-.14-1.79-1.84-3.49-2.86-4.9A111.91,111.91,0,0,0,218,47.57a11.69,11.69,0,0,0-4.54-2.94c-2.59-.78-5.21-1.48-7.84-2.11l-4.65-1.12a21.49,21.49,0,0,0-4.9-.84,24.77,24.77,0,0,0-5.35,1.59,22.39,22.39,0,0,0-9.15,7.3c-1.56,1.95-2.65,4.1-4,6.18-1.81,2.73-2.73,6.15-3.88,9.21a36.68,36.68,0,0,1-5.56,9.67,55.7,55.7,0,0,1-7.28,7.83,23.6,23.6,0,0,1-9.4,5.16A12.92,12.92,0,0,1,140,85.65l.47.46a11.79,11.79,0,0,0-.92-1.67,4.26,4.26,0,0,1-2.16-2.37l.16.62-.49-2.34.1.64-.27-2.46.06.64c.23-2.26.81-4.39,1.18-6.63l-8.5,16.32a67.71,67.71,0,0,1,6.09-6.24c2.34-2,4.94-3.57,7.17-5.68a31.41,31.41,0,0,0,4.94-5.73,4.55,4.55,0,0,0,1.3-3.26,8.16,8.16,0,0,0-1-6.81,3,3,0,0,0-1.72-1.6q-2.59-1.56-5.26-3c-2.21-1.23-4.43-2.41-6.67-3.57a23.6,23.6,0,0,0-4.78-2.16,26,26,0,0,0-7.29,1.08c-4.45,1.36-8.6,4.24-12.23,7.1-1.92,1.52-3.61,3.27-5.55,4.76a74.06,74.06,0,0,0-7,6.83C93.14,75.13,88.5,79.84,82.88,83a33.41,33.41,0,0,1-7.09,3.11,24,24,0,0,1-8.32,1.06A38.43,38.43,0,0,1,50,80.76a6.26,6.26,0,0,1-3.36-2.93,25.3,25.3,0,0,0-2.12-2.71A11.31,11.31,0,0,1,42,70.91l-1.36-2.6c-1.67-4.5-.32-9.5,1.41-13.74l-.3.53,1.71-3-.32.52c5.37-7.9,12.23-14.34,18.66-21.35a54.57,54.57,0,0,0,7.46-10.21,22.17,22.17,0,0,0,2.07-4.8,19.53,19.53,0,0,0,.6-4.25,2.72,2.72,0,0,0-1.81,1.31q-1.9,2.14-3.7,4.39-2.26,2.76-4.46,5.6A22,22,0,0,0,59.11,27.39Z"/>
    <path class="cls-1" d="M54.79,35.62l-.42,2,1.29-2.14-1.1,1.5L56.2,35a42,42,0,0,1-8.79,5.79c-3.31,1.81-6.58,3.64-9.79,5.62a50.68,50.68,0,0,0-11.38,9.46,28.85,28.85,0,0,0-7.18,16.62C18.43,80.56,22,87.9,27,94c4.6,5.6,10.41,9.66,16.8,13a51.07,51.07,0,0,0,10.77,4.62,33,33,0,0,0,10.55,2.05,34.41,34.41,0,0,0,10.23-.18,37.08,37.08,0,0,0,9.75-3,54.86,54.86,0,0,0,16.68-11,125.9,125.9,0,0,0,12.33-13.58c4.06-5.08,7.92-10.34,12.45-15a22.64,22.64,0,0,1,7.58-5.67,17.88,17.88,0,0,1,13-.73l-2-.85,2,1.12-1.84-1.27,2.46,2.1-.92-1.11a7.87,7.87,0,0,1,.9,3.73,6.6,6.6,0,0,1-2.36,6.3,15,15,0,0,1-5.44,7.8l-3,2.31c-2.44,1.78-5.14,3.22-7.26,5.39a26.63,26.63,0,0,0-4.06,5.09,15.6,15.6,0,0,0-2,5.43,9.35,9.35,0,0,0,.2,4.27,9.18,9.18,0,0,0,3.17,4.29c6.76,5.91,16.71,6.91,25.34,6.22,6.22-.51,11.53-3,16.55-6.48a36.23,36.23,0,0,0,8.3-7L181.49,96c5.85-8.89,9.1-18.78,12.1-28.87,1.24-4.17,2.37-8.38,3.93-12.44a8.15,8.15,0,0,1,3.27-5,5.8,5.8,0,0,1,5-2.75l-1.45.12c7.5.15,20.23,7.09,22.53,16.12l.2,11.35a17.66,17.66,0,0,1-3.78,4.34,45,45,0,0,1-8.13,5.77c-2.07,1.2-4.77,2.3-6.67,3.84-1.62,1.32-3.46,4.38-4.42,6a11.68,11.68,0,0,0-1.34,3.22c-1.31,5.11,3.27,9.7,7.28,12.14,9.18,5.57,20,7.23,30.64,6.6a42.93,42.93,0,0,0,9.15-1.7,35.56,35.56,0,0,0,8.48-3l5-3.26a26,26,0,0,0,8.05-10A54.65,54.65,0,0,0,276,85.55a76.32,76.32,0,0,0,1.18-12.37c.21-5-.15-10,.08-15l.25-4A8.69,8.69,0,0,1,281,47.49l-1.74.53,3.82.54L285.78,50l4.44,4.71,1.47,3.6c.78,2.67,1.52,5.34,2.24,8,.54,1.89,1,3.78,1.5,5.69a67,67,0,0,0,2,7.15A80.42,80.42,0,0,0,301.62,89a18.51,18.51,0,0,0,2.65,4l1.86,1.76,7.61,4c20.9,9.6,45.14,11.61,67.51,6.94a170.85,170.85,0,0,0,18.27-5.14A39.5,39.5,0,0,1,410.14,98a28.3,28.3,0,0,1,9.91-1.21,52.36,52.36,0,0,1,25.19,6.65c5.52,3,10.89,6.37,16.73,8.76a51.61,51.61,0,0,0,30.93,2.53,18,18,0,0,0,5.31-1.39l3.93-1.45a124.86,124.86,0,0,0,16.43-7.06c6.46-3.5,12.52-8,16.76-14.08a34.83,34.83,0,0,0,4.83-10.26l1.21-6.28,0-7,0-.36-1.68-7.2c-1.92-6.05-5.3-11.38-9.07-16.43-6-8.09-14.1-14.53-19.26-23.3-.18-.3-.65-.7-1-.59s-.78.8-.61,1.08a54.9,54.9,0,0,0,5.17,7.2c5.53,6.58,12.11,12.26,16.33,19.91q10,14.3,5.37,28.31a28.6,28.6,0,0,1-3,7.84,38.52,38.52,0,0,1-9.73,10.7c-6.61,4.91-14,8-21.79,10.56q-3.08,1.05-6.21,2a29,29,0,0,1-13,1.59,33.54,33.54,0,0,1-14.42-.34,37.73,37.73,0,0,1-7.25-2c-8.24-2.93-15.7-7.46-23.76-10.8a55.2,55.2,0,0,0-17.7-3.85,68.82,68.82,0,0,0-20.33,2.48c-8.95,2.27-17.46,5.29-26.7,6.36-14.83,1.72-30.14,1.08-44.54-3a100,100,0,0,1-19.73-7.62A14.78,14.78,0,0,1,303,86.21a21.9,21.9,0,0,1-2.76-3.6l1.05,2.27c-2.42-6.66-2.87-13.94-4.42-20.82a29.22,29.22,0,0,0-2-6.82,17.34,17.34,0,0,0-2.94-5.57,23.75,23.75,0,0,0-3.35-2.81c-2.62-1.9-5.73-3.19-9-2.43-2.57.61-3.62,3.88-4.22,6.16-.83,3.18-.62,6.78-.69,10-.11,4.35-.19,8.68-.6,13a25.24,25.24,0,0,1-1.85,8.59,29.37,29.37,0,0,1-4.45,11.27l-3.56,5.1a25.19,25.19,0,0,1-6.24,4.57c-8,4.65-17.85,5.66-26.88,4.73a43.45,43.45,0,0,1-13.88-3.52c-5-2.3-12.65-6.22-10.9-13l-1.72,3a23.81,23.81,0,0,1,10.21-6.53,32.58,32.58,0,0,0,6-2.82,30.35,30.35,0,0,0,6-4,7.51,7.51,0,0,0,3.59-5.59,18.51,18.51,0,0,0,1-6.7,23.24,23.24,0,0,0-.67-4.76c-1.87-7.88-8.22-14.67-15.51-18a22.47,22.47,0,0,0-11.31-2.3,10.13,10.13,0,0,0-6.5,3c-1.38,1.47-2.2,3.77-2.91,5.59-3.23,8.3-5.13,17-8.49,25.31a44.27,44.27,0,0,1-4.06,8.26A62.35,62.35,0,0,1,174.55,98l-5,4.13a44.35,44.35,0,0,1-11.35,5.93,46.53,46.53,0,0,1-13.11.84l-5.79-1.12a30,30,0,0,1-8.4-3.77,8,8,0,0,1-4.13-8.45L125,99.83l1.46-2.11a22.69,22.69,0,0,1,6-4.68c2.37-1.42,4.78-2.79,7.12-4.25a41.93,41.93,0,0,0,8.94-7.43,13.94,13.94,0,0,0,4-9.75c.07-3.22-.81-5.56-3.43-7.43a19.62,19.62,0,0,0-6.34-3c-2.77-.73-5.92-.2-8.68.51a21.56,21.56,0,0,0-9.79,5.68,152.74,152.74,0,0,0-10.65,12.22c-2.25,2.74-4.51,5.47-6.88,8.11a73.79,73.79,0,0,1-10.4,10.06,57.93,57.93,0,0,1-10.41,6.46,39.49,39.49,0,0,1-14.66,3.55,42.5,42.5,0,0,1-12.41-1.26,58.55,58.55,0,0,1-16.17-6.64A50.84,50.84,0,0,1,32.56,92L29,87.54a17.27,17.27,0,0,1-4-10.47,13.05,13.05,0,0,1-1.13-7.95,8.63,8.63,0,0,1,.73-3.58,30.3,30.3,0,0,1,5.55-10A42.58,42.58,0,0,1,46.16,43.83c2.89-1.23,6.59-2.4,8.69-4.84a30.09,30.09,0,0,0,2-2.71,8.56,8.56,0,0,0,1.66-3.91c.18-.87-.23-1.1-1-.69a13.09,13.09,0,0,0-1.53,1.88A13.27,13.27,0,0,0,54.79,35.62Z"/>
  </g>
  <g>
    <path d="M66.74,85.57a10.3,10.3,0,0,1-5.67-1.46,9.33,9.33,0,0,1-3.43-4,17,17,0,0,1-1.36-6l4.87-1.31a21.42,21.42,0,0,0,.65,4A7.26,7.26,0,0,0,63.48,80a4.24,4.24,0,0,0,3.26,1.24A4.19,4.19,0,0,0,70,80a4.93,4.93,0,0,0,1.09-3.44,7.07,7.07,0,0,0-1.21-4.32A22.89,22.89,0,0,0,66.79,69l-6.62-5.85a11.31,11.31,0,0,1-2.87-3.73,12.13,12.13,0,0,1-.92-5,8.92,8.92,0,0,1,2.48-6.73,9.35,9.35,0,0,1,6.76-2.39,12.6,12.6,0,0,1,4.11.61,7.17,7.17,0,0,1,3,1.88A9.11,9.11,0,0,1,74.59,51a18.08,18.08,0,0,1,1,4.51l-4.67,1.27a19.84,19.84,0,0,0-.58-3.58,5.44,5.44,0,0,0-1.54-2.64,5.28,5.28,0,0,0-6.32.1,4.29,4.29,0,0,0-1.14,3.24,6.37,6.37,0,0,0,.61,3,8.55,8.55,0,0,0,2,2.39l6.66,5.85a20.91,20.91,0,0,1,3.94,4.66,11.82,11.82,0,0,1,1.7,6.41,10,10,0,0,1-1.22,5,8.24,8.24,0,0,1-3.33,3.24A10.24,10.24,0,0,1,66.74,85.57Z"/>
    <path d="M80.45,85.13V45.63H95.72v4.1H85.94V62.8h7.93v3.9H85.94V81.18h9.87v3.95Z"/>
    <path d="M111.37,85.13V45.63h8.56A15.06,15.06,0,0,1,126.86,47a7.67,7.67,0,0,1,3.64,4,17.7,17.7,0,0,1,1.1,6.68V72.21a20,20,0,0,1-1.1,7.07A8.37,8.37,0,0,1,127,83.64a12.59,12.59,0,0,1-6.59,1.49Zm5.5-3.95H120c2,0,3.43-.39,4.28-1.17a5.35,5.35,0,0,0,1.53-3.41,46.25,46.25,0,0,0,.27-5.41V58.36a25.53,25.53,0,0,0-.39-5A4.14,4.14,0,0,0,124,50.61a7.52,7.52,0,0,0-4.13-.88h-3Z"/>
    <path d="M147.06,85.57A11.48,11.48,0,0,1,140.69,84a8.53,8.53,0,0,1-3.4-4.46,20.53,20.53,0,0,1-1-6.8v-15a19.13,19.13,0,0,1,1-6.7,8.36,8.36,0,0,1,3.4-4.29,11.84,11.84,0,0,1,6.35-1.49,11.56,11.56,0,0,1,6.32,1.51,8.54,8.54,0,0,1,3.38,4.29,19,19,0,0,1,1.05,6.68v15a19.57,19.57,0,0,1-1.05,6.73A8.91,8.91,0,0,1,153.38,84,11.13,11.13,0,0,1,147.06,85.57Zm0-4.34a5.2,5.2,0,0,0,3.31-.9,4.49,4.49,0,0,0,1.5-2.54,16.6,16.6,0,0,0,.39-3.83V56.65a16,16,0,0,0-.39-3.78,4.2,4.2,0,0,0-1.5-2.43,5.4,5.4,0,0,0-3.31-.86,5.49,5.49,0,0,0-3.33.86,4.14,4.14,0,0,0-1.53,2.43,16,16,0,0,0-.39,3.78V74a16.6,16.6,0,0,0,.39,3.83,4.42,4.42,0,0,0,1.53,2.54A5.29,5.29,0,0,0,147.06,81.23Z"/>
    <path d="M163.2,85.13V45.63h5.5V64.26l9-18.63h5.11L175.07,63l9,22.09h-5.35L171.22,66.6l-2.52,4.59V85.13Z"/>
    <path d="M197.24,85.57a10.85,10.85,0,0,1-6.57-1.71,8.47,8.47,0,0,1-3.11-4.8,28.3,28.3,0,0,1-.82-7.24V45.63H192V72.06a28.79,28.79,0,0,0,.34,4.64A6.12,6.12,0,0,0,193.81,80a5.46,5.46,0,0,0,6.88,0,6.25,6.25,0,0,0,1.46-3.31,28.79,28.79,0,0,0,.34-4.64V45.63h5.2V71.82a28.3,28.3,0,0,1-.82,7.24,8.54,8.54,0,0,1-3.09,4.8Q201.52,85.57,197.24,85.57Z"/>
    <path d="M213.38,85.13l.73-39.5h5.4l7,32,7-32h5.35l.73,39.5h-4.42l-.44-28.67L228,85.13H224.9l-6.61-28.67-.44,28.67Z"/>
    <path d="M245.57,85.13V45.63h15.27v4.1h-9.78V62.8H259v3.9h-7.93V81.18h9.87v3.95Z"/>
    <path d="M265.36,85.13V45.63h3.74l11.19,26.24V45.63h4.57v39.5h-3.5L270,58.17v27Z"/>
    <path d="M295.36,85.13V49.73H288.7v-4.1h18.62v4.1h-6.47v35.4Z"/>
    <path d="M308.88,85.13l8.36-39.5h5.3L331,85.13h-5.2L324,75.18h-8L314,85.13Zm7.77-13.9h6.57l-3.31-17.8Z"/>
    <path d="M337.71,85.13V49.73h-6.66v-4.1h18.62v4.1H343.2v35.4Z"/>
    <path d="M353.75,85.13V45.63h5.4v39.5Z"/>
    <path d="M375.58,85.57A11.51,11.51,0,0,1,369.21,84a8.58,8.58,0,0,1-3.4-4.46,20.53,20.53,0,0,1-1-6.8v-15a19.36,19.36,0,0,1,1-6.7,8.38,8.38,0,0,1,3.41-4.29,11.8,11.8,0,0,1,6.34-1.49,11.62,11.62,0,0,1,6.33,1.51,8.52,8.52,0,0,1,3.37,4.29,19,19,0,0,1,1.05,6.68v15a19.57,19.57,0,0,1-1.05,6.73A8.89,8.89,0,0,1,381.91,84,11.19,11.19,0,0,1,375.58,85.57Zm0-4.34a5.2,5.2,0,0,0,3.31-.9,4.45,4.45,0,0,0,1.51-2.54,16.6,16.6,0,0,0,.39-3.83V56.65a16,16,0,0,0-.39-3.78,4.16,4.16,0,0,0-1.51-2.43,5.4,5.4,0,0,0-3.31-.86,5.51,5.51,0,0,0-3.33.86,4.14,4.14,0,0,0-1.53,2.43,16,16,0,0,0-.39,3.78V74a16.6,16.6,0,0,0,.39,3.83,4.42,4.42,0,0,0,1.53,2.54A5.31,5.31,0,0,0,375.58,81.23Z"/>
    <path d="M391.73,85.13V45.63h3.74l11.18,26.24V45.63h4.57v39.5h-3.5l-11.33-27v27Z"/>
    <path d="M426.69,85.57A10.3,10.3,0,0,1,421,84.11a9.26,9.26,0,0,1-3.43-4,17,17,0,0,1-1.36-6l4.86-1.31a22.27,22.27,0,0,0,.66,4,7.26,7.26,0,0,0,1.68,3.2,4.24,4.24,0,0,0,3.26,1.24A4.19,4.19,0,0,0,429.92,80,4.93,4.93,0,0,0,431,76.6a7.07,7.07,0,0,0-1.21-4.32A22.44,22.44,0,0,0,426.73,69l-6.61-5.85a11.31,11.31,0,0,1-2.87-3.73,12.13,12.13,0,0,1-.92-5,8.92,8.92,0,0,1,2.48-6.73,9.33,9.33,0,0,1,6.76-2.39,12.6,12.6,0,0,1,4.11.61,7.17,7.17,0,0,1,3,1.88,9.11,9.11,0,0,1,1.9,3.19,18.54,18.54,0,0,1,.95,4.51l-4.67,1.27a19.84,19.84,0,0,0-.58-3.58,5.44,5.44,0,0,0-1.54-2.64,4.51,4.51,0,0,0-3.13-1,4.43,4.43,0,0,0-3.19,1.1,4.29,4.29,0,0,0-1.14,3.24,6.37,6.37,0,0,0,.61,3,8.55,8.55,0,0,0,2,2.39l6.66,5.85a20.91,20.91,0,0,1,3.94,4.66,11.82,11.82,0,0,1,1.7,6.41,10,10,0,0,1-1.22,5,8.24,8.24,0,0,1-3.33,3.24A10.24,10.24,0,0,1,426.69,85.57Z"/>
    <path d="M449.68,85.57A10.28,10.28,0,0,1,444,84.11a9.26,9.26,0,0,1-3.43-4,16.75,16.75,0,0,1-1.36-6l4.86-1.31a22.27,22.27,0,0,0,.66,4,7.26,7.26,0,0,0,1.68,3.2,4.94,4.94,0,0,0,6.49.05A4.93,4.93,0,0,0,454,76.6a7.07,7.07,0,0,0-1.21-4.32A23,23,0,0,0,449.73,69l-6.61-5.85a11.18,11.18,0,0,1-2.87-3.73,12,12,0,0,1-.92-5,8.88,8.88,0,0,1,2.48-6.73,9.33,9.33,0,0,1,6.76-2.39,12.5,12.5,0,0,1,4.1.61,7.14,7.14,0,0,1,3,1.88,9.27,9.27,0,0,1,1.9,3.19,18.54,18.54,0,0,1,.95,4.51l-4.67,1.27a19,19,0,0,0-.59-3.58,5.35,5.35,0,0,0-1.53-2.64,4.51,4.51,0,0,0-3.13-1,4.41,4.41,0,0,0-3.19,1.1,4.29,4.29,0,0,0-1.14,3.24,6.37,6.37,0,0,0,.61,3,8.55,8.55,0,0,0,2,2.39l6.66,5.85a20.91,20.91,0,0,1,3.94,4.66,11.82,11.82,0,0,1,1.7,6.41,10,10,0,0,1-1.22,5,8.24,8.24,0,0,1-3.33,3.24A10.26,10.26,0,0,1,449.68,85.57Z"/>
    <path d="M463.69,85.13V45.63h5.39v39.5Z"/>
    <path d="M479.78,85.13V49.73h-6.66v-4.1h18.62v4.1h-6.47v35.4Z"/>
    <path d="M495.53,85.13V45.63H510.8v4.1H501V62.8H509v3.9H501V81.18h9.87v3.95Z"/>
  </g>
</svg>
