<svg id="Layer_1" data-name="Layer 1" xmlns="http://www.w3.org/2000/svg" viewBox="0 0 449.13 94.38">
  <defs>
    <style>
      .cls-1 {
        fill: #ea89c3;
        opacity: 0.11;
      }
    </style>
  </defs>
  <title>desktopresearch</title>
  <g>
    <path class="cls-1" d="M24.34,9.31a7.28,7.28,0,0,0-3.77,2.21,9,9,0,0,0-2.9,3.77,22.44,22.44,0,0,0-1.4,10.88,33.35,33.35,0,0,0,7.82,17.26C29.58,49.8,38,51.9,46,53.15a79.5,79.5,0,0,1,9.55,1.79,97.53,97.53,0,0,1,17.82,7.18c5,2.58,9.94,5.37,14.95,8a82.31,82.31,0,0,0,9.19,4.27,34.1,34.1,0,0,0,22.86,2.34A47.52,47.52,0,0,0,131.76,72c8.22-4.69,15.17-11.1,22-17.55,3.59-3.39,7.12-6.89,10.88-10.09a101,101,0,0,1,10.9-8.07l-.34.18,4-2.12-.34.17c7-2.75,10.83-3.42,19.33-1.81L190,30l10.33,3.83-8.54-4.09,11.27,6.06-7.88-5,10.33,7.38-6.95-5.84,9.26,8.53L203,35.59a119.37,119.37,0,0,1,10.74,13q1.77,2.49,3.71,4.87a50.54,50.54,0,0,0,5.14,5.31,105.84,105.84,0,0,0,9.33,7.11,105.24,105.24,0,0,0,12.69,7.72,62.75,62.75,0,0,0,14.12,5.17c5.83,1.34,12.19,1.34,18.15,1.47,16,.34,31.9-.66,47.83-1.34,12.61-.54,25.23-.58,37.76-2.33a167.92,167.92,0,0,0,37.87-9.76A101.28,101.28,0,0,0,421,56l6.22-4.59q8.63-2.82,4.33-8.68A150.92,150.92,0,0,0,424,27a169.78,169.78,0,0,1-7.88-16.16,2.11,2.11,0,0,0-.92,1.09c-.87,1.51-1.72,3-2.53,4.59s-1.62,3.1-2.39,4.67a2.06,2.06,0,0,0-.38,1.37,51,51,0,0,0,3.71,9.89,65.48,65.48,0,0,0,3.67,6.54,22,22,0,0,1,3.25,5.65l-5.52,4.28a102.41,102.41,0,0,1-12.28,7.27c-10.93,5.6-23.32,9.22-35.36,11.45A199.73,199.73,0,0,1,334.5,71c-11.77.22-23.56.46-35.33.55-12,.09-24.27.35-36.16-1.55a66.62,66.62,0,0,1-11.36-2.62,73.74,73.74,0,0,1-12.89-6,169.86,169.86,0,0,1-22.06-15.5l.25.22q-2.16-2-4.4-4T208,38l-7.36-4.71-1.74-.9a62.81,62.81,0,0,0-6.8-3.19,18.29,18.29,0,0,0-6.91-.62c-14.47.46-26.12,9.8-36.75,18.67s-21.57,19.07-35.75,20.83c-9.42,1.17-18.34-2.61-26.61-6.62C80.94,59,76,56.24,70.82,53.8l-6.29-2.9a138.17,138.17,0,0,0-13.72-4.62l.31.14c-3.36-1.57-6.81-2.59-10.28-3.86a24.74,24.74,0,0,1-4.09-1.79,14.62,14.62,0,0,1-4.32-3.38l.09.33A3.91,3.91,0,0,0,31,35l-.87-1.82A17.55,17.55,0,0,0,29,29.25a5.71,5.71,0,0,1-.06-2.9c.28-1.82,0-3.36,1.29-4.86a23.78,23.78,0,0,1,1.89-2,8.35,8.35,0,0,1,4.16-1.57,2.41,2.41,0,0,0-1.07-1.14c-1.53-1.19-3.08-2.34-4.65-3.47S27.37,11.05,25.77,10A2.49,2.49,0,0,0,24.34,9.31Z"/>
    <path class="cls-1" d="M25.31,11.16a9.94,9.94,0,0,0-4.94,3.11l-1.82,2.66c-1.6,2.84-2,7.52-1.77,10.66C17.32,35,21.06,43.21,26.87,48c6.27,5.14,14.17,6.64,22,7.71A65.14,65.14,0,0,1,61.7,58.8a126.83,126.83,0,0,1,18.67,8.73c9.77,5.33,20,11.64,31.35,12.37a35.22,35.22,0,0,0,14.48-2.61,58.41,58.41,0,0,0,13.22-7.58c8.25-6.1,15.23-13.68,22.77-20.57,2.91-2.65,5.85-5.24,9-7.59a47,47,0,0,1,5.48-3.7,36.6,36.6,0,0,1,7.5-3.38l-.36.12a25.71,25.71,0,0,1,15.66-.16L196.6,33.3l5,2.22-6.82-4,9.54,6-7.9-5.94L206.69,40l-7-6.71L209,42.79,204,36.9a123.61,123.61,0,0,1,9.54,12.33c1.13,1.7,2.33,3.36,3.57,5a50.37,50.37,0,0,0,6.5,7.11c2.2,1.78,4.44,3.51,6.73,5.17s4.73,3.45,7.21,5a96.69,96.69,0,0,0,10.52,5.76,53.34,53.34,0,0,0,17.61,4.65c5.45.49,11,.57,16.43.61,15.94.12,31.88-1,47.79-1.72,6.26-.27,12.55-.29,18.8-.71S361.26,79,367.49,78A153.72,153.72,0,0,0,405.15,67.1a99,99,0,0,0,17.12-9.36l6.2-4.64q8.71-2.94,4.18-8.84a149.51,149.51,0,0,0-8-15.91L421.63,23a80.71,80.71,0,0,1-5-10.55c-.09-.2-3.49,4.42-3.42,4.31-.82,1.19-1.62,2.39-2.38,3.62a1.49,1.49,0,0,0-.41,1.12,52,52,0,0,0,4.08,10.09c1.39,2.34,2.57,4.77,4,7.07a24.66,24.66,0,0,1,3.2,6.23l-5.53,4.36a100.87,100.87,0,0,1-12.31,7.4c-10.94,5.69-23.37,9.39-35.45,11.68a199.4,199.4,0,0,1-33,3.51c-11.8.24-23.61.52-35.41.66-12.1.15-24.44.5-36.44-1.3a66.32,66.32,0,0,1-11.5-2.54,73.6,73.6,0,0,1-13-6,154.62,154.62,0,0,1-21.94-15.47l.27.25c-6.15-5.81-12.15-12.34-19.89-16-5.66-2.7-11.83-3-17.92-1.76-16.2,3.29-28.09,16.59-40.49,26.47-6.49,5.17-13.62,10.25-21.8,12.28a33.27,33.27,0,0,1-12.09.64c-5.56-.68-10.52-2.65-15.57-4.92-6.19-2.78-12.12-6.11-18.19-9.11a81.66,81.66,0,0,0-12.9-5.37l-7.09-2.05a23.86,23.86,0,0,0-5.86-2c-1.56-.38-3.11-.81-4.65-1.3a28.59,28.59,0,0,1-4.52-1.68A18.33,18.33,0,0,1,31.42,39l.13.31a6.52,6.52,0,0,0-1.93-3.24l-1-2.06c-.38-1.48-.8-2.94-1.27-4.39a7.41,7.41,0,0,1,0-3.28c.28-2,.14-3.75,1.52-5.41a19.38,19.38,0,0,1,2-2.17,8.62,8.62,0,0,1,4.27-1.69,1.61,1.61,0,0,0-.87-.87Q32.33,15,30.39,13.82c-1.29-.8-2.58-1.56-3.9-2.29A1.62,1.62,0,0,0,25.31,11.16Z"/>
    <path class="cls-1" d="M22.12,6.33a10.2,10.2,0,0,0-5,3.41l-1.83,2.88a19.63,19.63,0,0,0-1.85,6,23.92,23.92,0,0,0-.64,6.59,35.36,35.36,0,0,0,3.91,12.83,33.25,33.25,0,0,0,8.29,10c5,3.94,11.58,5.69,17.73,6.65,3.59.56,7.22.83,10.82,1.31,7.57,1,14.56,4.34,21.24,7.86,8.88,4.69,17.7,10.53,27.32,13.62a36.41,36.41,0,0,0,15.4,1.53A41.56,41.56,0,0,0,132.26,74c9.45-5.15,17.18-12.93,24.77-20.44,3.57-3.53,7.08-7.13,10.87-10.43,4.37-3.79,9-7.59,14.38-9.78L186,32q14-3.12,20.64,5.75c3.32,4,5.69,8.66,8.46,13a56,56,0,0,0,4.5,6.39,50,50,0,0,0,8.15,7.37c8,6.11,16.48,11.47,26,14.7,6.61,2.23,13.63,2.42,20.52,2.63,8.8.27,17.69-.11,26.47-.49s17.54-.94,26.31-1.39c7.64-.4,15.34-.45,23-1,15.44-1.14,31.09-3.79,45.7-9.07A134.47,134.47,0,0,0,414,61.85a79.6,79.6,0,0,0,10.15-6.17,85,85,0,0,0,12.06-10.17.29.29,0,0,0,.06-.35C434,39,433,35.64,429.93,29.79,426,22.13,421.47,14.8,417.76,7c-.28-.59-1.92,2.4-1.59,3,2.7,5,5.71,9.86,8.64,14.77q7.95,10.92,3.62,25.24l-6.15,4.7c-12.72,9.17-28.06,14.63-43.15,18.35A181.37,181.37,0,0,1,356.32,77c-7.35.83-14.74.93-22.12,1.23-17.25.71-34.48,2.11-51.76,2.22-7.43,0-15.37.18-22.72-1.2a60.92,60.92,0,0,1-17.09-6.34A96.93,96.93,0,0,1,230.42,65Q227,62.5,223.7,59.85a48.94,48.94,0,0,1-9-11.19c-1.86-3.07-3.45-6.31-5.47-9.29-1.85-2.73-4.46-5.89-7.62-7.22a26,26,0,0,0-8.78-1.85C180.61,29.89,170.39,38,162,46c-7.33,7-14.12,14.74-22.21,20.9-7.87,6-17.59,11.53-27.88,11-14.77-.78-27.25-10.7-40.13-16.85a76.5,76.5,0,0,0-12.65-5.16,58.43,58.43,0,0,0-9.73-1.52c-6.27-.62-12.25-1.51-18-4a18.2,18.2,0,0,1-8.28-6,26.43,26.43,0,0,1-6.74-12.53A21.64,21.64,0,0,1,18.29,16,10.8,10.8,0,0,1,21,12.12,11.47,11.47,0,0,1,25.82,9.4c.42-.17-1.67-1.87-1.61-1.82C23.88,7.3,22.72,6.05,22.12,6.33Z"/>
    <path class="cls-1" d="M20.8,11.55c-2.18,1.44-3,1.84-4.59,4.11-2.62,3.86-3.51,8.64-3.51,13.21A32.69,32.69,0,0,0,23.25,52.35,31,31,0,0,0,37.87,59.6c4.47,1,9,1.22,13.5,1.86l7.55,1.35a79.84,79.84,0,0,1,12.62,5.13c6,3,11.77,6.46,17.75,9.53a75.63,75.63,0,0,0,9.18,4.26,34.09,34.09,0,0,0,8.26,2.67,36.57,36.57,0,0,0,10.5.32c10.79-1.33,20.06-7.52,28.15-14.41C153.22,63.62,160,55.82,167.72,49a58.11,58.11,0,0,1,12.7-9A26.84,26.84,0,0,1,186,37.69a21.2,21.2,0,0,1,18,2.5L202.56,39c8,7.33,11,17.34,18.08,25a63.15,63.15,0,0,0,9.26,7.68,104,104,0,0,0,12.36,8.06,58.67,58.67,0,0,0,23.59,7.28c11.53.89,23.18.43,34.71-.06,14-.59,27.95-1.41,41.92-2a203.72,203.72,0,0,0,33.83-4,156.46,156.46,0,0,0,23.17-6.77,116.5,116.5,0,0,0,18-8.51l6.66-4.28a86.85,86.85,0,0,0,12.05-10.19l0-.19a109.52,109.52,0,0,0-6.41-15.68q-6.26-11.47-12.21-23.12c-.26-.55-1.07-.11-.88.31,2.72,5.74,5.75,11.28,8.72,16.89a107.94,107.94,0,0,1,6,13.07L428,55a94,94,0,0,1-12.89,8.76l-7,3.64c-12.85,6.41-27.39,10-41.54,12.28-15.25,2.42-30.61,2.46-46,3.18-10.3.48-20.58.9-30.89,1q-8.78.28-17.53-.13a43.72,43.72,0,0,1-16.53-3,39.25,39.25,0,0,1-14-5.09c-2.58-1.42-5.1-3-7.53-4.64s-4.8-3.23-7.08-5a42.4,42.4,0,0,1-7-5.78c-4.47-4.71-7.65-10.35-11.33-15.65a27.46,27.46,0,0,0-5.22-5.65,18.3,18.3,0,0,0-11.81-3.66c-15.33.27-26.7,12.91-37,22.76-7.41,7.1-15,14.52-24.4,19a44.7,44.7,0,0,1-15,4.13c-10.1,1-18.7-3.23-27.25-7.5-10.84-5.4-21.41-12.52-33.52-14.76-2.61-.48-5.31-.64-8-1a60.36,60.36,0,0,1-13-2.77c-8.62-3-14.61-10.08-17.36-18.61a25,25,0,0,1-1.1-11.88,16.6,16.6,0,0,1,1.46-5.41,12.9,12.9,0,0,1,5.06-7C22.35,11.84,21.17,11.31,20.8,11.55Z"/>
    <path class="cls-1" d="M24.91,11.83A10,10,0,0,0,20,14.94L18.1,17.6c-1.74,3-2,7.24-1.84,10.69A27,27,0,0,0,17.42,34a29.08,29.08,0,0,0,2,5.57,30.69,30.69,0,0,0,7,9.08c6.67,5.7,15.68,6.48,24,7.78,11.72,1.83,22.1,7.72,32.39,13.28C92.88,75.18,104,81.91,116,80.24c10.14-1.41,18.9-6.83,26.59-13.33,7.08-6,13.47-12.68,20.35-18.87a84.44,84.44,0,0,1,10.83-8.48,36.43,36.43,0,0,1,5.56-3.11A31.08,31.08,0,0,1,187,34.07l-.4.07c5.72-.54,9.41-.38,15,2.2L193.23,31l10.17,6.9-6.86-5.67,9.33,8.1-6.09-6.39a135.16,135.16,0,0,1,14.53,17.72c.7,1.06,1.45,2.08,2.23,3.08a52,52,0,0,0,6.53,7.22c2.2,1.79,4.44,3.51,6.74,5.18s4.73,3.46,7.21,5a96.69,96.69,0,0,0,10.52,5.76,52.65,52.65,0,0,0,17.6,4.59c5.44.47,10.94.53,16.4.56,15.9.09,31.81-1.08,47.69-1.76,6.26-.28,12.54-.29,18.78-.71s12.52-1.13,18.74-2.15a153.58,153.58,0,0,0,37.58-10.87,99.42,99.42,0,0,0,17.05-9.36l6.17-4.63q8.71-3,4.12-8.82A140.33,140.33,0,0,0,423.62,29l-3.07-5.2a76.47,76.47,0,0,1-4.88-10.31,1.7,1.7,0,0,0-.95.84q-1.43,1.86-2.74,3.78T409.37,22a1.69,1.69,0,0,0-.47,1.18,77.44,77.44,0,0,0,2.45,7.75,40.9,40.9,0,0,1,2.79,4.25,36.44,36.44,0,0,0,3.59,5.23q4.62,4.08-.69,6C404.61,56,389.45,62,374.21,65.55a205.18,205.18,0,0,1-43.69,5c-16.17.2-32.36.68-48.54.34a129.9,129.9,0,0,1-25.2-2.6,58.08,58.08,0,0,1-15.59-6.11,150.93,150.93,0,0,1-27.5-19.42,94.06,94.06,0,0,0-12.81-10.06,28.38,28.38,0,0,0-16.69-4.31c-19,.94-32.74,16.18-46.91,27.07-6.41,4.93-13.27,9.44-21.19,11.46a32,32,0,0,1-11.74.43c-6.63-.79-12.57-3.55-18.51-6.43-6.15-3-12.17-6.21-18.37-9.07a63.53,63.53,0,0,0-9.87-3.91A34.33,34.33,0,0,1,48,44.57c-2.82-1-5.79-1.67-8.6-2.77-1.72-.68-6.29-2.59-7.11-4.54a2.48,2.48,0,0,0-.84-1.8,6.37,6.37,0,0,1-1.4-2.58,19.71,19.71,0,0,0-1-3.86L29,27.13a11.85,11.85,0,0,0,.47-3.51l.62-1.48q1.23-1.3,2.52-2.55a8.55,8.55,0,0,1,4.24-1.53,2.1,2.1,0,0,0-1.11-.91Q33.4,15.83,31,14.61t-4.75-2.39A2.17,2.17,0,0,0,24.91,11.83Z"/>
    <path class="cls-1" d="M24.84,10.21a7.3,7.3,0,0,0-3.78,2.18,9,9,0,0,0-2.92,3.7,22.1,22.1,0,0,0-1.53,10.75,31.6,31.6,0,0,0,9,18.55c5.56,5.57,13.22,7.27,20.71,8.5a84.15,84.15,0,0,1,11.35,2.28A108.14,108.14,0,0,1,76.7,64.45c6,3.18,11.8,6.67,18,9.4,4.49,2,8.9,3.7,13.8,4.29,9.33,1.13,17.9-1.93,25.8-6.74,8.76-5.33,16-12.85,23.43-19.83,3.51-3.3,7-6.65,10.83-9.6a72.71,72.71,0,0,1,11-7l-.37.15,4.15-1.62-.38.14a19.92,19.92,0,0,1,5.75-1.15,21.67,21.67,0,0,1,9.86.85l-6-2.17,8,3.23-9.21-4.85,11.95,6.82-8.52-5.82,11,8.2-7.55-6.69,9.86,9.38-5.31-6a105.45,105.45,0,0,1,10,12.29q2.33,3.3,4.84,6.43c.88,1.05,1.79,2.09,2.73,3.07a78.13,78.13,0,0,0,11.75,9.4,102.12,102.12,0,0,0,12.7,7.72A62.34,62.34,0,0,0,259,79.58c5.85,1.33,12.22,1.32,18.2,1.44,16,.32,31.91-.68,47.85-1.37,12.61-.54,25.24-.59,37.76-2.34a167.85,167.85,0,0,0,37.87-9.79,101,101,0,0,0,20.71-10.87l6.21-4.6q8.67-2.86,4.26-8.72a145.17,145.17,0,0,0-7.73-15.74l-3-5.33a80.69,80.69,0,0,1-4.91-10.59,2.09,2.09,0,0,0-1,1c-1,1.46-1.87,2.95-2.76,4.45s-1.78,3-2.62,4.53a2.07,2.07,0,0,0-.46,1.35,62.91,62.91,0,0,0,1.93,6.12A13.87,13.87,0,0,0,413.76,34l1.55,3A22.42,22.42,0,0,1,419,42.55q3.46,4.31-4.51,6.12l-5.94,3.81a101.41,101.41,0,0,1-19.84,9,175.54,175.54,0,0,1-40.24,8.29c-13.69,1.25-27.53,1-41.27,1.18s-27.45.59-41-1a65.41,65.41,0,0,1-17.28-4.11,91,91,0,0,1-12.73-6.64A160.77,160.77,0,0,1,213.88,43c-4.52-4-9.06-8.15-14.42-11a33,33,0,0,0-8.78-3.28c-4-.81-8.76-.3-12.64.57a48.77,48.77,0,0,0-12.3,4.84c-14.27,7.66-24.66,21-38.91,28.65a38.37,38.37,0,0,1-18.42,5.07,41.42,41.42,0,0,1-13.49-2.74c-6.23-2.16-12.34-5.71-18.21-8.66a149.51,149.51,0,0,0-15.79-7.2,106.88,106.88,0,0,0-10.35-3.38L48,44.55c-2.75-1.19-5.76-1.73-8.51-2.94l-2.66-1.27A13.92,13.92,0,0,1,32.6,37l.1.35a3.59,3.59,0,0,0-1.45-2.75l-.81-1.77a13.94,13.94,0,0,0-1-3.75,5.31,5.31,0,0,1,0-2.77c.31-1.75,0-3.22,1.29-4.64.59-.68,1.22-1.33,1.87-1.95a8.39,8.39,0,0,1,4.15-1.53,2.35,2.35,0,0,0-1.08-1.08C34.11,16,32.56,14.94,31,13.89s-3.14-2.09-4.74-3.09A2.33,2.33,0,0,0,24.84,10.21Z"/>
    <path class="cls-1" d="M23.07,11.77a13.33,13.33,0,0,0-5,3.2c-2.53,2.6-3.36,6.49-3.81,10-.53,4.15.4,8.32,1.63,12.26A31.32,31.32,0,0,0,22.15,48C25,51.3,28.66,53.37,32.6,55.11c4.31,1.91,8.95,2.54,13.56,3.16q4.13.4,8.21,1.11l22.36,9c5.12,2.52,10,5.53,15.14,8.06,5.44,2.67,10.84,5.06,16.91,5.73a33.62,33.62,0,0,0,14.82-1.69c10-3.38,18.26-10.11,25.85-17.23s14.92-15.11,23.63-21.2a31.86,31.86,0,0,1,7.22-4.38A21.92,21.92,0,0,1,186,35.79c6.91-1.61,12.81-.58,18.76,4.09l-3.37-3.25,5.7,5.86-3-3.65c3.6,4.64,6.49,8.69,9.51,13.41A73.17,73.17,0,0,0,219,59.92a38.18,38.18,0,0,0,4,4.14c2.19,1.79,4.42,3.51,6.71,5.17s4.73,3.45,7.21,5a81.33,81.33,0,0,0,13.37,6.83,57.61,57.61,0,0,0,14.92,3.46q6.15.48,12.3.45,6.54.14,13.08-.1c7.41-.2,14.81-.55,22.21-.93,7-.36,14-.77,21-1,6.16-.24,12.32-.37,18.47-.88,14.12-1.19,28.42-3.75,41.81-8.5,12.43-4.41,24.11-10.29,34.43-18.56q8.58-2.94,4.39-9a93.11,93.11,0,0,0-4.31-10.56c-3.74-7.67-8-15-11.57-22.81-.31-.67-2.5,2.45-2.22,3.06,4.31,9.53,9.91,18.8,12.14,29.09q2.52,5.53-5.13,7.54a71.7,71.7,0,0,1-9.44,6.1,118.18,118.18,0,0,1-24.54,10.56,187,187,0,0,1-44.92,7.66c-7.49.36-15,.36-22.51.6-8.55.28-17.09.62-25.64.74s-17,.18-25.44-.45a72.17,72.17,0,0,1-18.53-3.67,79,79,0,0,1-15.62-8q-4.87-3.15-9.52-6.63a43.15,43.15,0,0,1-8.18-6.93c-4.76-4.94-8.74-10.81-14.11-15.13A21.48,21.48,0,0,0,189.75,32c-15.06-.33-27.09,11.24-37.47,20.59-7.75,7-15.59,14.15-25.13,18.61a37.57,37.57,0,0,1-29.39,1.42C87.24,68.74,77.8,62.49,67.56,58a93.71,93.71,0,0,0-20.4-6.14A64.4,64.4,0,0,1,36,49.18a24.16,24.16,0,0,1-14.75-16.6,19.57,19.57,0,0,1,0-10.41,8.76,8.76,0,0,1,1.69-3.63,9.08,9.08,0,0,1,5.9-4c.8-.28-1.71-1.36-1.92-1.46C26.07,12.7,24,11.34,23.07,11.77Z"/>
    <path class="cls-1" d="M22.87,7.84a10.62,10.62,0,0,0-5,3.48,12.7,12.7,0,0,0-2.53,4.82,25,25,0,0,0-.88,15c2.21,8.37,7.1,16.27,14.83,20.57,4.41,2.46,9.4,3.59,14.33,4.38s9.82.85,14.63,2c7.25,1.68,14,5.27,20.5,8.8,5.92,3.22,11.73,6.67,17.89,9.43,5.25,2.35,10.71,4.31,16.53,4.44a38.73,38.73,0,0,0,10.16-1.34,46.54,46.54,0,0,0,14.29-6.89c8.68-6,16-13.56,23.44-20.92,3.46-3.42,7-6.79,10.74-9.87A60.28,60.28,0,0,1,179,36.66a25.77,25.77,0,0,1,22.22-2.85l-2-.78c6.23,3.26,8.73,6.51,12.07,11.6,1.95,3,3.71,6,5.66,9a44.29,44.29,0,0,0,6,7.47A40.52,40.52,0,0,0,228.77,66c7.15,5.4,14.62,10.3,23,13.52,11.56,4.42,24.26,3.93,36.44,3.68,13.2-.27,26.38-1.14,39.56-1.84,12.66-.68,25.32-.77,37.89-2.63,12.9-1.91,26-5.07,38-10.22a138.49,138.49,0,0,0,14.19-7,71.78,71.78,0,0,0,9.76-6.61,64.38,64.38,0,0,0,8.89-7.69l.12-.16a89.51,89.51,0,0,0-4.37-11.82,57.62,57.62,0,0,0-5-9.93c-3.08-5.46-6.09-10.86-8.75-16.54-.31-.66-2.14,2.27-1.85,2.86,2.61,5.18,5.51,10.12,8.44,15.11a48,48,0,0,1,5.71,12.46L427.41,51.5a93.87,93.87,0,0,1-12.58,8.61L408,63.7a132.87,132.87,0,0,1-21.86,8.21c-14.49,4.26-29.58,6-44.62,6.65-16.69.68-33.36,1.86-50.06,2.29-8.29.22-16.91.46-25.18-.33A57.05,57.05,0,0,1,248.62,76a91,91,0,0,1-15.48-8.93,81.39,81.39,0,0,1-8.06-6.28,28.52,28.52,0,0,1-5.93-5.68C214,48.83,211.36,39.92,204.62,35a19.1,19.1,0,0,0-8.9-3.29c-15.52-2.43-28.05,9.49-38.18,19.49-3.51,3.46-7,7-10.6,10.32-8.29,7.57-17.88,15.54-29.7,16.65a35.06,35.06,0,0,1-15-1.58c-6.37-2.2-12.37-5.47-18.27-8.65s-11.78-6.63-18.06-9.1l-6.38-2.34A37.53,37.53,0,0,0,52,55.19c-8-.84-16.67-1.34-23.49-6.09a29.46,29.46,0,0,1-12.07-20c-.63-4.07.44-8.09,2.12-11.81a10.6,10.6,0,0,1,2.54-4.06,12,12,0,0,1,4.82-3.06c.43-.21-1.32-1.47-1.28-1.44C24.24,8.41,23.42,7.57,22.87,7.84Z"/>
    <path class="cls-1" d="M24.4,12.5a10,10,0,0,0-4.87,3.14l-1.82,2.68c-1.7,3-2.22,7.56-2,10.89C16.08,37,19.86,45.6,26,50.54c6.52,5.27,14.66,6.75,22.73,7.77a62.17,62.17,0,0,1,13,3,122.91,122.91,0,0,1,18.65,8.78c9.75,5.36,20,11.7,31.37,12.35a35,35,0,0,0,14.56-2.81,59.47,59.47,0,0,0,13.24-7.82C147.72,65.64,154.67,58,162.21,51a116.42,116.42,0,0,1,9-7.61,46.11,46.11,0,0,1,5.47-3.71,36.18,36.18,0,0,1,7.52-3.35l-.33.09,4.17-1-.34.07c5.7-.47,9.45-.27,14.94,2.47l-4.45-3.13,6.37,4.82-5.35-5,7.75,7.53-4.74-5.56a94.1,94.1,0,0,1,10.38,13.46q1.68,2.59,3.4,5.16a56.43,56.43,0,0,0,4.75,6.05,58.22,58.22,0,0,0,7.16,6.15,103.87,103.87,0,0,0,14.67,9.81,65.12,65.12,0,0,0,14,5.67c5.61,1.48,11.32,1.77,17.1,2,16,.61,32.09-.59,48-1.4,12.76-.65,25.58-.66,38.27-2.23,14.15-1.75,28.48-4.9,41.65-10.49a118.72,118.72,0,0,0,17.4-9,69.94,69.94,0,0,0,9.47-6.76l5.72-5.21a104,104,0,0,0-4.72-10.83A98.88,98.88,0,0,0,424.7,30c-2.93-5.28-5.67-10.55-8.07-16.1-.14-.34-2.47,2.82-2.4,2.72-.34.47-2.08,2.35-1.79,3.16A98.2,98.2,0,0,0,417.05,31a43.6,43.6,0,0,1,1.89,4q1.44,3.33,3.16,6.53l1.57,4.69-5.62,4.46a95.05,95.05,0,0,1-15.82,9.14c-21.48,10-45.48,13.66-69,14.06-12.11.21-24.23.6-36.34.76s-24.17.3-36.08-1.67c-9.52-1.57-18.24-5.73-26.28-11a126.08,126.08,0,0,1-19.52-15l.26.26c-5.43-5.47-10.68-11.36-17.73-14.79-4.89-2.37-10.36-2.33-15.61-1.53-7.14,1.09-13.64,4.91-19.46,9-8.19,5.74-15.3,12.93-23.14,19.11-6.79,5.34-14.26,10.29-22.88,11.92a35.14,35.14,0,0,1-12.77,0c-5.84-1-11.07-3.38-16.37-5.95-6.1-3-12.06-6.19-18.2-9.09a62.77,62.77,0,0,0-9.74-3.93,38.35,38.35,0,0,1-8.7-2.49c-3.09-1.23-6.45-1.68-9.66-2.55a33,33,0,0,1-5-1.62,24.77,24.77,0,0,1-6.13-3.81l.15.31a6.44,6.44,0,0,0-1.59-2.64,11.34,11.34,0,0,1-2.11-3.33,20.26,20.26,0,0,1-2-7.66c0-2.16,0-4.94,1.12-6.84l1.28-1.77A8.07,8.07,0,0,1,32.45,16a1.06,1.06,0,0,0-.72-.64c-1-.52-2.09-1-3.15-1.46C27.87,13.6,25.36,12.08,24.4,12.5Z"/>
    <path class="cls-1" d="M24.68,11a9.92,9.92,0,0,0-4.93,3.14l-1.83,2.69c-1.55,2.8-1.94,7.65-1.68,10.73a27.51,27.51,0,0,0,1.24,5.69,29.64,29.64,0,0,0,2,5.49,29.41,29.41,0,0,0,7,8.92c6.21,5,14,6.38,21.67,7.44a62.61,62.61,0,0,1,12.72,3.15A131.16,131.16,0,0,1,79.57,67c9.76,5.33,20,11.64,31.32,12.37a35,35,0,0,0,14.39-2.59,58.28,58.28,0,0,0,13.09-7.5c8.21-6,15.17-13.54,22.68-20.37,2.9-2.64,5.84-5.21,9-7.56a46.23,46.23,0,0,1,5.48-3.71,37.53,37.53,0,0,1,7.5-3.4l-.38.12A26.76,26.76,0,0,1,190.37,33a26,26,0,0,1,8,1.06l-3.06-1.23,6.09,2.68-8.25-4.76,10.05,6.31-8.46-6.49,10.93,8.89-6-5.82a74,74,0,0,1,12,13.44q1.81,2.52,3.6,5.06a65.26,65.26,0,0,0,4.91,6,61.85,61.85,0,0,0,7.21,6.12A108.53,108.53,0,0,0,242,74.06a66,66,0,0,0,13.91,5.69c5.56,1.5,11.21,1.84,16.94,2.1,15.9.72,31.94-.41,47.82-1.17,12.74-.6,25.54-.59,38.21-2.12,14.13-1.7,28.43-4.79,41.6-10.29a119.27,119.27,0,0,0,17.38-8.84,68.38,68.38,0,0,0,9.47-6.66l5.73-5.14q-2.06-5.34-4.62-10.45a69.06,69.06,0,0,0-4.77-8.84l-3-5.25a78.65,78.65,0,0,1-4.88-10.44,1.87,1.87,0,0,0-.95.95c-.93,1.35-1.82,2.72-2.69,4.12s-1.74,2.78-2.56,4.21a1.86,1.86,0,0,0-.45,1.26,59.92,59.92,0,0,0,1.83,6,11.24,11.24,0,0,0,2.47,4.75l1.62,2.92a23.68,23.68,0,0,1,3.72,5.59q3.51,4.31-4.48,6.14a68.73,68.73,0,0,1-9.07,5.51,122.24,122.24,0,0,1-16.67,7.31c-12.88,4.62-26.64,7-40.22,8.28s-27.5,1-41.23,1.17c-8.38.13-16.79.26-25.17,0a146.67,146.67,0,0,1-19.18-1.51,68.94,68.94,0,0,1-13.88-3.53,82.27,82.27,0,0,1-15.22-8.17c-4.05-2.65-8-5.46-11.89-8.32-3.39-2.49-6.48-5.26-9.67-8-4.45-3.82-8.92-7.91-14.34-10.33a28.59,28.59,0,0,0-9.05-2.56,37.21,37.21,0,0,0-6.42,0A41.88,41.88,0,0,0,165.61,34c-6.46,3.68-12.25,8.33-18,13-6.66,5.49-13.27,11.39-20.9,15.52a38.25,38.25,0,0,1-18.35,5.1A39.61,39.61,0,0,1,94.9,65a163.47,163.47,0,0,1-15.17-7.11c-5.11-2.59-10.2-5.26-15.46-7.52a141.65,141.65,0,0,0-13.72-4.61L48,44.46c-2.74-1.18-5.77-1.68-8.53-2.85l-2.67-1.24a13.88,13.88,0,0,1-4.27-3.3l.09.37a3.77,3.77,0,0,0-1.47-2.82l-.81-1.8a16.6,16.6,0,0,0-1-3.79,5.49,5.49,0,0,1,.05-2.79c.34-1.75.07-3.22,1.39-4.62.62-.67,1.25-1.31,1.91-1.94a8.46,8.46,0,0,1,4.2-1.52,2.35,2.35,0,0,0-1.13-1c-1.57-1-3.15-2-4.76-2.9s-3.21-1.88-4.84-2.77A2.32,2.32,0,0,0,24.68,11Z"/>
    <path class="cls-1" d="M24.66,11.68a10,10,0,0,0-4.86,3.15L18,17.52c-1.81,3.2-2.1,7.27-2,10.87.22,8,4.48,15.93,10.35,21.22,6.69,6,16.3,6.92,24.78,8.11,12.94,1.82,24.2,8.63,35.52,14.71,5.72,3.08,11.53,6.15,17.83,7.87a32.75,32.75,0,0,0,15,.59C129.72,79,138.31,72.81,146,66.09s14.4-14.1,22.12-20.58a62.83,62.83,0,0,1,5.41-4.22,24.62,24.62,0,0,1,9.18-4.43,17.76,17.76,0,0,1,9.4-2.41,20.91,20.91,0,0,1,10.19,2.41l-5.66-3.74L205,39l-5.21-4.35,7.59,6.9-4.62-4.87a77.05,77.05,0,0,1,10,12.33c1.21,1.81,2.42,3.61,3.62,5.42a49.09,49.09,0,0,0,5.94,7.16,70.77,70.77,0,0,0,6,4.95,106.12,106.12,0,0,0,14.66,9.81,66.2,66.2,0,0,0,14,5.68c5.61,1.49,11.32,1.8,17.09,2,16,.66,32.12-.54,48.09-1.34,12.77-.64,25.59-.64,38.29-2.2,14.17-1.75,28.5-4.89,41.7-10.45a120.87,120.87,0,0,0,17.42-9,71.05,71.05,0,0,0,9.5-6.75l5.74-5.21a106,106,0,0,0-4.66-10.79,96.18,96.18,0,0,0-4.79-9.17c-2.92-5.34-5.71-10.66-8.15-16.25-.14-.32-2.54,3-2.46,2.92-.33.48-2.16,2.53-1.84,3.34,2.59,6.79,5.61,13.42,8.83,19.93a26.92,26.92,0,0,1,2.7,7.05l-5.62,4.51a101.27,101.27,0,0,1-12.47,7.64c-11,5.84-23.57,9.68-35.77,12.06a197.66,197.66,0,0,1-33.16,3.69c-11.88.29-23.75.63-35.62.86-12.29.24-24.84.71-37-1A67,67,0,0,1,253,71.51a71.19,71.19,0,0,1-13.15-5.91,131.43,131.43,0,0,1-21.75-15.48l.25.23c-3.68-3.68-7.15-7.58-10.95-11.12-3.64-3.39-7.71-6.58-12.56-8-6.81-2-14.12-.53-20.55,2.05-5.36,2.15-10.21,5.62-14.72,9.17-4.87,3.83-9.43,8.05-14.12,12.09C137.09,61.69,128,69.11,117,71.31a35.85,35.85,0,0,1-15.22-.3c-8.15-1.85-15.68-6.32-23-10.1q-6-3.18-12.23-6A71,71,0,0,0,52.55,50.5a23.48,23.48,0,0,0-6.18-1.82q-2.58-.48-5.1-1.17a35,35,0,0,1-5.1-1.59A16.36,16.36,0,0,1,29,40.63a20.58,20.58,0,0,1-4.88-9.76A15.23,15.23,0,0,1,24,25.4,9.45,9.45,0,0,1,25,21a21.9,21.9,0,0,1,2.74-3.47,8.7,8.7,0,0,1,4.3-2,1,1,0,0,0-.63-.67c-.95-.56-1.9-1.1-2.88-1.6C27.93,13,25.53,11.29,24.66,11.68Z"/>
    <path class="cls-1" d="M21.37,11.85A11.32,11.32,0,0,0,17,16a9.43,9.43,0,0,0-.81,1.62A29,29,0,0,0,14,22.94c-2,7.33-.16,14.76,3.21,21.4A29.2,29.2,0,0,0,28.89,56.6a45.2,45.2,0,0,0,14.32,4.45c5.51.84,11.07.9,16.49,2.4,7.58,2.1,14.62,6.12,21.46,9.89q4.41,2.44,8.85,4.81a103.12,103.12,0,0,0,12.33,5.53,38.46,38.46,0,0,0,10.43,1.95c11.75.3,22.36-5.79,31.13-13.07s16-15.68,24.41-23.09a70.14,70.14,0,0,1,10.86-8.07,35.33,35.33,0,0,1,7.45-3.2,21.18,21.18,0,0,1,18,2.51l-1.47-1.18c5.51,5.1,8,10,11.63,16a72.81,72.81,0,0,0,4.12,6.32,41.65,41.65,0,0,0,5,5.46c2.18,1.78,4.4,3.49,6.66,5.15s4.72,3.44,7.2,5c6.92,4.27,14.31,7.89,22.34,9.47a86.67,86.67,0,0,0,14.7,1.19c7.34.13,14.68,0,22-.3,14.21-.53,28.39-1.55,42.6-2,14-.5,27.84-1.77,41.49-5a157.73,157.73,0,0,0,15.49-4.53,116.59,116.59,0,0,0,21.69-10l6.66-4.29a86.17,86.17,0,0,0,12.05-10.19l0-.19a147,147,0,0,0-6.5-15.86l-3.38-6.28a177.85,177.85,0,0,1-8.79-16.75c-.21-.45-.93-.31-.73.12C419.21,16.61,421,20.31,423,24A102.18,102.18,0,0,1,429.1,36.4q6.63,9-.48,19.11a71.87,71.87,0,0,1-9.58,6.7,80.6,80.6,0,0,1-10.29,5.7L371.34,79.64q-7.59,1.38-15.28,2.14c-7.39.69-14.78.86-22.19,1.15-7,.28-14,.64-21,1-11.82.54-23.64,1-35.47.71q-6.18-.06-12.33-.67L247.67,79.2c-5.46-2.2-10.52-5.6-15.37-8.92a77.11,77.11,0,0,1-11.46-9.08c-4.68-4.8-7.59-10.66-11.42-16a28.76,28.76,0,0,0-5-5.5c-3.35-2.86-7.83-3.91-12.17-3.91-5.42,0-10.48,1.87-15.17,4.46a65,65,0,0,0-10.78,8c-3.76,3.29-7.31,6.8-10.91,10.25S147.92,65.73,143.87,69s-8.2,6.45-12.87,8.63a44.43,44.43,0,0,1-12.2,3.84,33,33,0,0,1-17.58-1.52,83.45,83.45,0,0,1-9.21-4C81.13,70.68,70.78,63.82,59.09,60.41c-6.57-1.91-13.6-1.47-20.25-3.06-4.16-1-8.82-2.62-12.17-5.38a31.22,31.22,0,0,1-7.76-9l-1.83-3.85a17.5,17.5,0,0,1-1.74-8.05,17.14,17.14,0,0,1,1.59-11.55,11.49,11.49,0,0,1,4.89-6.88C22.25,12.29,21.8,11.55,21.37,11.85Z"/>
  </g>
  <g>
    <path d="M33.69,66.36A10.26,10.26,0,0,1,28,64.88a9.31,9.31,0,0,1-3.42-4,17.07,17.07,0,0,1-1.35-6l4.87-1.31a21.4,21.4,0,0,0,.65,4,7.15,7.15,0,0,0,1.67,3.2A4.23,4.23,0,0,0,33.7,62a4.16,4.16,0,0,0,3.24-1.19A4.89,4.89,0,0,0,38,57.4a7.07,7.07,0,0,0-1.21-4.32,22.27,22.27,0,0,0-3-3.3l-6.6-5.87a11.08,11.08,0,0,1-2.86-3.74,12,12,0,0,1-.91-5,8.9,8.9,0,0,1,2.49-6.72,9.32,9.32,0,0,1,6.77-2.37,12.59,12.59,0,0,1,4.11.62,7.23,7.23,0,0,1,3,1.88,9.3,9.3,0,0,1,1.89,3.2,18.48,18.48,0,0,1,.93,4.51l-4.67,1.26A19.13,19.13,0,0,0,37.32,34a5.28,5.28,0,0,0-1.53-2.63,4.46,4.46,0,0,0-3.13-1,4.43,4.43,0,0,0-3.19,1.09,4.29,4.29,0,0,0-1.15,3.24,6.56,6.56,0,0,0,.6,3,8.82,8.82,0,0,0,2,2.39l6.65,5.87a20.83,20.83,0,0,1,3.93,4.66A11.87,11.87,0,0,1,43.15,57a10.06,10.06,0,0,1-1.23,5,8.26,8.26,0,0,1-3.34,3.24A10.37,10.37,0,0,1,33.69,66.36Z"/>
    <path d="M47.4,66l.1-39.5,15.26,0v4.1l-9.77,0,0,13.07,7.93,0v3.9l-7.93,0,0,14.49,9.87,0V66Z"/>
    <path d="M78.33,66l.09-39.5,8.56,0A15,15,0,0,1,93.9,27.9a7.69,7.69,0,0,1,3.64,4,17.57,17.57,0,0,1,1.08,6.68l0,14.53a19.72,19.72,0,0,1-1.11,7.07,8.41,8.41,0,0,1-3.56,4.36,12.77,12.77,0,0,1-6.59,1.47Zm5.5-3.94h3.11c2,0,3.44-.39,4.28-1.16a5.31,5.31,0,0,0,1.54-3.41A44,44,0,0,0,93,52.11l0-12.82a25.94,25.94,0,0,0-.37-5A4.16,4.16,0,0,0,91,31.53a7.6,7.6,0,0,0-4.13-.89h-3Z"/>
    <path d="M104,66.09l.09-39.5,15.27,0v4.1l-9.77,0,0,13.06,7.92,0v3.9h-7.92l0,14.48,9.86,0v4Z"/>
    <path d="M133,66.59a10.21,10.21,0,0,1-5.67-1.47A9.19,9.19,0,0,1,124,61.06a16.55,16.55,0,0,1-1.35-6l4.86-1.3a22.26,22.26,0,0,0,.65,4,7.19,7.19,0,0,0,1.67,3.2A4.25,4.25,0,0,0,133,62.25a4.15,4.15,0,0,0,3.23-1.18,4.92,4.92,0,0,0,1.1-3.44,7,7,0,0,0-1.2-4.32,22.93,22.93,0,0,0-3.06-3.3l-6.6-5.86a11.31,11.31,0,0,1-2.86-3.74,12.14,12.14,0,0,1-.91-5,8.93,8.93,0,0,1,2.5-6.73A9.4,9.4,0,0,1,132,26.31a12.78,12.78,0,0,1,4.11.62,7.19,7.19,0,0,1,3,1.89A9.25,9.25,0,0,1,141,32a18.08,18.08,0,0,1,.94,4.52l-4.67,1.25a19.84,19.84,0,0,0-.58-3.58,5.42,5.42,0,0,0-1.52-2.64,4.54,4.54,0,0,0-3.14-1,4.44,4.44,0,0,0-3.19,1.09,4.33,4.33,0,0,0-1.15,3.24,6.37,6.37,0,0,0,.61,3,8.5,8.5,0,0,0,2,2.39l6.65,5.87a21.12,21.12,0,0,1,3.92,4.67,11.73,11.73,0,0,1,1.69,6.41,9.87,9.87,0,0,1-1.23,5,8.15,8.15,0,0,1-3.33,3.23A10.19,10.19,0,0,1,133,66.59Z"/>
    <path d="M146.74,66.19l.09-39.5h5.5l-.05,18.63,9.09-18.61h5.1l-7.82,17.39,9,22.12-5.34,0-7.5-18.54-2.54,4.57,0,14Z"/>
    <path d="M175.13,66.25l.09-35.4-6.66,0V26.74l18.62,0v4.1l-6.47,0-.08,35.41Z"/>
    <path d="M201,66.75a11.48,11.48,0,0,1-6.37-1.57,8.63,8.63,0,0,1-3.39-4.47,20.36,20.36,0,0,1-1-6.81l0-15a19.34,19.34,0,0,1,1.06-6.7A8.32,8.32,0,0,1,194.7,28,11.81,11.81,0,0,1,201,26.47,11.56,11.56,0,0,1,207.36,28a8.49,8.49,0,0,1,3.37,4.3,19,19,0,0,1,1,6.68l0,15a19.85,19.85,0,0,1-1.06,6.73,9,9,0,0,1-3.39,4.45A11,11,0,0,1,201,66.75Zm0-4.34a5.14,5.14,0,0,0,3.31-.89A4.43,4.43,0,0,0,205.78,59a16.62,16.62,0,0,0,.4-3.83l0-17.31a15.56,15.56,0,0,0-.38-3.78,4.23,4.23,0,0,0-1.5-2.44,5.39,5.39,0,0,0-3.3-.86,5.46,5.46,0,0,0-3.34.84,4.17,4.17,0,0,0-1.53,2.44,15.34,15.34,0,0,0-.4,3.77l0,17.32a16,16,0,0,0,.38,3.82,4.36,4.36,0,0,0,1.52,2.54A5.22,5.22,0,0,0,201,62.41Z"/>
    <path d="M217.09,66.35l.1-39.5,9.77,0a10.78,10.78,0,0,1,5.66,1.3,7.51,7.51,0,0,1,3.08,3.74,16.17,16.17,0,0,1,1,5.9,12.55,12.55,0,0,1-1.11,5.41,7.87,7.87,0,0,1-3.24,3.53A10.41,10.41,0,0,1,227,48h-4.33l0,18.39ZM222.64,44h2.53a10.45,10.45,0,0,0,3.74-.53,3.39,3.39,0,0,0,2-1.87,9.9,9.9,0,0,0,.6-3.78,17.7,17.7,0,0,0-.41-4.34,3,3,0,0,0-1.72-2.1,10.73,10.73,0,0,0-4.08-.6h-2.58Z"/>
    <path d="M251.57,66.43l.09-39.49h7.92A17.38,17.38,0,0,1,266.1,28a7.34,7.34,0,0,1,3.81,3.37,12.86,12.86,0,0,1,1.22,6.08,16.78,16.78,0,0,1-.49,4.16,8.07,8.07,0,0,1-1.57,3.17,6,6,0,0,1-2.82,1.87l5.54,19.81h-5.3l-5.11-18.54H257.1l0,18.53ZM257.11,44h2.09a10.42,10.42,0,0,0,3.8-.57,4,4,0,0,0,2.14-2,9.18,9.18,0,0,0,.69-3.95c0-2.31-.41-4-1.25-5s-2.51-1.54-5-1.55h-2.44Z"/>
    <path d="M276.8,66.49l.09-39.5,15.27,0v4.1l-9.77,0,0,13.07,7.92,0v3.9l-7.92,0,0,14.49,9.87,0v4Z"/>
    <path d="M305.88,67a10.24,10.24,0,0,1-5.66-1.47,9.2,9.2,0,0,1-3.42-4.06,16.64,16.64,0,0,1-1.35-6l4.87-1.31a21.39,21.39,0,0,0,.64,4.05,7.35,7.35,0,0,0,1.67,3.2,4.25,4.25,0,0,0,3.26,1.25,4.15,4.15,0,0,0,3.23-1.19,4.89,4.89,0,0,0,1.1-3.43,7,7,0,0,0-1.2-4.32,22.93,22.93,0,0,0-3.06-3.3l-6.59-5.87a11.18,11.18,0,0,1-2.87-3.73,12.14,12.14,0,0,1-.91-5,8.92,8.92,0,0,1,2.5-6.73,9.31,9.31,0,0,1,6.76-2.37,12.51,12.51,0,0,1,4.11.62,7.27,7.27,0,0,1,3,1.88,9.39,9.39,0,0,1,1.89,3.2,18.1,18.1,0,0,1,.94,4.51l-4.67,1.26a19.84,19.84,0,0,0-.58-3.58A5.34,5.34,0,0,0,308,32a4.52,4.52,0,0,0-3.14-1,4.4,4.4,0,0,0-3.18,1.09,4.26,4.26,0,0,0-1.15,3.24,6.28,6.28,0,0,0,.6,3,8.5,8.5,0,0,0,2,2.39l6.65,5.87a20.9,20.9,0,0,1,3.92,4.67,11.73,11.73,0,0,1,1.69,6.41,9.92,9.92,0,0,1-1.23,5,8.15,8.15,0,0,1-3.33,3.23A10.19,10.19,0,0,1,305.88,67Z"/>
    <path d="M319.59,66.6l.09-39.5,15.27,0v4.1l-9.77,0,0,13.07,7.93,0v3.9l-7.92,0,0,14.49,9.87,0v3.95Z"/>
    <path d="M337.24,66.64l8.45-39.48H351l8.32,39.52h-5.2l-1.78-10-8,0-1.92,10Zm7.81-13.88h6.56L348.35,35Z"/>
    <path d="M363.3,66.7l.09-39.5,7.93,0a17.38,17.38,0,0,1,6.51,1.06,7.31,7.31,0,0,1,3.81,3.37,13,13,0,0,1,1.23,6.08,16.78,16.78,0,0,1-.5,4.17,8.15,8.15,0,0,1-1.56,3.16A6,6,0,0,1,378,46.93l5.55,19.82-5.3,0-5.11-18.54h-4.28l0,18.53Zm5.55-22.47h2.09a10.34,10.34,0,0,0,3.79-.58,3.94,3.94,0,0,0,2.15-2,9.3,9.3,0,0,0,.68-3.94q0-3.47-1.25-5t-5-1.55h-2.43Z"/>
    <path d="M398.4,67.22a10.56,10.56,0,0,1-6.48-1.77,9,9,0,0,1-3.2-4.74,22.83,22.83,0,0,1-.89-6.63l0-13.95a24.1,24.1,0,0,1,.91-7,8.46,8.46,0,0,1,3.22-4.6,13.48,13.48,0,0,1,12.35-.24,7.64,7.64,0,0,1,3.11,3.91,17.51,17.51,0,0,1,.93,6.1v3.12l-5.2,0V38.65a31.55,31.55,0,0,0-.21-3.87,4.25,4.25,0,0,0-1.19-2.61,4.62,4.62,0,0,0-3.25-.94,4.91,4.91,0,0,0-3.41,1,4.9,4.9,0,0,0-1.39,2.83,25.26,25.26,0,0,0-.33,4.26l0,15.66a18,18,0,0,0,.47,4.71,4.14,4.14,0,0,0,1.6,2.46,5.41,5.41,0,0,0,3,.74,4.37,4.37,0,0,0,3.21-1,4.81,4.81,0,0,0,1.23-2.75,30.55,30.55,0,0,0,.25-4.1V52.11l5.2,0v2.92a21,21,0,0,1-.89,6.36,8.18,8.18,0,0,1-3,4.29A10.2,10.2,0,0,1,398.4,67.22Z"/>
    <path d="M413.57,66.82l.1-39.5h5.49l0,17.07,10.11,0,0-17.07,5.49,0-.09,39.5-5.5,0,.05-18.48-10.12,0,0,18.48Z"/>
  </g>
</svg>
