<svg id="Layer_1" data-name="Layer 1" xmlns="http://www.w3.org/2000/svg" xmlns:xlink="http://www.w3.org/1999/xlink" viewBox="0 0 1920 1087">
  <defs>
    <style>
      .cls-1 {
        fill: url(#linear-gradient);
      }

      .cls-12, .cls-2, .cls-3 {
        fill: #fff;
      }

      .cls-3 {
        opacity: 0.5;
      }

      .cls-4 {
        fill: #f7f4e2;
      }

      .cls-5 {
        fill: url(#linear-gradient-2);
      }

      .cls-6 {
        fill: url(#linear-gradient-3);
      }

      .cls-7 {
        fill: url(#linear-gradient-4);
      }

      .cls-8 {
        fill: url(#linear-gradient-5);
      }

      .cls-9 {
        fill: url(#linear-gradient-6);
      }

      .cls-10 {
        fill: url(#linear-gradient-7);
      }

      .cls-11 {
        fill: url(#linear-gradient-8);
      }

      .cls-12 {
        opacity: 0.2;
      }

      .cls-13 {
        fill: #2488c6;
      }

      .cls-14 {
        fill: #c1272d;
      }

      .cls-15 {
        fill: #9b8059;
      }

      .cls-16 {
        fill: #bfa171;
      }

      .cls-17 {
        fill: #ffefcc;
      }

      .cls-18 {
        fill: #f7e6ad;
      }

      .cls-19 {
        fill: #aa8a5f;
      }
    </style>
    <linearGradient id="linear-gradient" x1="-0.21" y1="434.93" x2="1919.79" y2="434.93" gradientTransform="translate(-0.02 0.22)" gradientUnits="userSpaceOnUse">
      <stop offset="0.06" stop-color="#73deff"/>
      <stop offset="0.2" stop-color="#83e2ff"/>
      <stop offset="0.28" stop-color="#8ddfff"/>
      <stop offset="0.63" stop-color="#94deff"/>
      <stop offset="0.71" stop-color="#94dcfc"/>
      <stop offset="0.98" stop-color="#93daf9"/>
    </linearGradient>
    <linearGradient id="linear-gradient-2" x1="-0.21" y1="959.59" x2="1919.79" y2="959.59" gradientTransform="translate(-0.02 0.22)" gradientUnits="userSpaceOnUse">
      <stop offset="0.06" stop-color="#1e9cd7"/>
      <stop offset="0.35" stop-color="#0075be"/>
      <stop offset="0.6" stop-color="#93badb"/>
      <stop offset="0.63" stop-color="#8ab4d7"/>
      <stop offset="0.68" stop-color="#70a3cb"/>
      <stop offset="0.73" stop-color="#4789b8"/>
      <stop offset="0.8" stop-color="#0e649d"/>
      <stop offset="0.81" stop-color="#005b97"/>
    </linearGradient>
    <linearGradient id="linear-gradient-3" x1="803.79" y1="898.86" x2="1919.79" y2="898.86" gradientTransform="translate(-0.02 0.22)" gradientUnits="userSpaceOnUse">
      <stop offset="0.21" stop-color="#e5c09c"/>
      <stop offset="0.6" stop-color="#e4bf9a"/>
      <stop offset="1" stop-color="#d39a62"/>
    </linearGradient>
    <linearGradient id="linear-gradient-4" x1="2703.74" y1="-261.97" x2="3958.84" y2="-261.97" gradientTransform="matrix(0.59, -0.03, -0.03, 0.69, -1610.55, 1214.48)" gradientUnits="userSpaceOnUse">
      <stop offset="0" stop-color="#e5c09c"/>
      <stop offset="0.25" stop-color="#d39a62"/>
    </linearGradient>
    <linearGradient id="linear-gradient-5" x1="146.93" y1="947.87" x2="1215.84" y2="947.87" gradientTransform="translate(-0.02 0.22)" gradientUnits="userSpaceOnUse">
      <stop offset="0" stop-color="#e5c09c"/>
      <stop offset="1" stop-color="#895c34"/>
    </linearGradient>
    <linearGradient id="linear-gradient-6" x1="-1.21" y1="1026.03" x2="625.02" y2="1026.03" gradientTransform="translate(-0.02 0.22)" gradientUnits="userSpaceOnUse">
      <stop offset="0" stop-color="#72431c"/>
      <stop offset="0.61" stop-color="#a57449"/>
    </linearGradient>
    <linearGradient id="linear-gradient-7" x1="1577.99" y1="944.47" x2="1576.16" y2="1085.56" gradientTransform="translate(-0.02 0.22)" gradientUnits="userSpaceOnUse">
      <stop offset="0" stop-color="#c69c6d"/>
      <stop offset="0.55" stop-color="#8c6239"/>
      <stop offset="0.86" stop-color="#a67c52"/>
    </linearGradient>
    <linearGradient id="linear-gradient-8" x1="1872.79" y1="1032.18" x2="959.79" y2="1032.18" gradientTransform="translate(-0.02 0.22)" gradientUnits="userSpaceOnUse">
      <stop offset="0.21" stop-color="#754c24"/>
      <stop offset="0.52" stop-color="#84572f"/>
      <stop offset="1" stop-color="#d39a62"/>
    </linearGradient>
  </defs>
  <title>egetspil</title>
  <rect class="cls-1" x="-0.26" y="0.14" width="1920" height="870.13"/>
  <path class="cls-2" d="M1358.76,136.17c-7,24,14.68,51,23,70,6.17,14.12-13,12-11,37,5.15,64.35-39,107-39,107l96-75c57-44-45.53-98.68-29.26-121.34s108.27-12.65,96.28-74.65-56-7-77-32C1417.77,47.17,1367.53,106.1,1358.76,136.17Z"/>
  <path class="cls-3" d="M1466.74,412.18c-111,49-80,17-154,47-28.83,11.68-80.77,113.21-62,147,5,9-25,148-59,162-61,25.11-191,102-191,102h175l87-78v-93s50-98,29-170c0,0-20-21.85,70-38.92s128-.06,128-.06"/>
  <path class="cls-3" d="M592.74,490.12s-123-21-139-43c-18.23-25.07-10-80-68-71s-185,17-166-34-73-47-105-53-114,46-114,46v-235c35,44,162,31,216,127s129.54,74.73,175,71c28.34-2.31,116-33,108,0-21.45,88.44,72,33,103,125,0,0,58,139,118,151,78.56,15.71,121,38,123,137s-172,100-70,131,132.06,31,132.06,31l-210.76,0s34.7-33,12.71-51,114-135,50-141-95-83-90-109S592.74,490.12,592.74,490.12Z"/>
  <circle class="cls-4" cx="1708.74" cy="447.19" r="68"/>
  <path class="cls-3" d="M1467.74,412.18c-18-48,202-35,98-81s75-21-2-88-54.09-88.82,14-165c59-66,34.15-77,34.15-77l280.85-1v79s-90,40-250,103,141,81,32,99,76,102-80,108-9.5,101.15-103.75,101.07"/>
  <path class="cls-2" d="M1495.74,412.18c38-38,202-35,98-81s75-21-2-88-54.09-88.82,14-165c59-66,34.15-77,34.15-77l280.85-1v79s-90,40-250,103,141,81,32,99,76,102-80,108-9.5,101.15-103.75,101.06c0,0-180.25,6.92-216.25,23.92-50.84,24,84,61,45,107s-110,72-55,133-125.32,119-125.32,119H1021.76s148-82,190-82c43.14,0,35-66,35-66s-16-26,17-64,31-130,20-143S1438.94,469,1495.74,412.18Z"/>
  <path class="cls-3" d="M1446.77,47.17s-23-44-91,52-6.32,88,2,107c6.17,14.12-13,12-11,37,5.15,64.35-15,107-15,107l72-75c57-44-45.53-98.68-29.26-121.34s109.27-31.65,97.28-93.65Z"/>
  <path class="cls-2" d="M288.63,553.43c22.28,20,23,59.32,29.23,83.05,4.63,17.63,19,4.63,34.53,30.77,40.05,67.29,105.77,84.91,105.77,84.91l-130.7-20.59c-77.24-11.7-30.41-124.52-59.41-138s-97.9,48.72-130.69-20.1,41.32-38.74,41.41-75.65C178.77,497.86,260.71,528.32,288.63,553.43Z"/>
  <path class="cls-3" d="M154.88,514.3s-11.34-57,110.75.42,65.77,84.43,72,108.15c4.63,17.63,19,4.64,34.53,30.78,40,67.28,86,98.51,86,98.51L347.23,718C270,706.27,316.82,593.45,287.82,580S176,610.29,143.23,541.47Z"/>
  <path class="cls-3" d="M1166.74,409.16s-43-96-18-103-42-107.57-28-142.28-96.59,30.17-57-81.72c29-82,199.86-82,199.86-82H1021.8s31,4,0,127c-43.75,173.56,59,61,69,108s-47,97-19,107"/>
  <path class="cls-2" d="M1169.74,412.16c-10.29-34.34-35-99-10-106s-42-107.58-28-142.29-96.59,30.17-57-81.72c29-82,199.86-82,199.86-82H1032.8s31,4,0,127c-43.75,173.56,57,44,67,91s-28,114,0,124"/>
  <path class="cls-2" d="M623.74,490.12s-123-21-139-43c-18.23-25.07-3-99-61-90s-192,36-173-15-71-67-103-73-147,12-147,12l0-203c35,44,193,53,247,149s130.54,51.72,176,48c28.34-2.32,115-10,107,23-21.45,88.45,72,33,103,125,0,0,32,174,105,141s134,48,136,147-172,100-70,131,132.06,31,132.06,31H726s34.7-33,12.71-51,114-135,50-141-111-77-106-103S623.74,490.12,623.74,490.12Z"/>
  <path class="cls-3" d="M668.77,1.12s45.62,29.53-13,64c-17,10,12.76,55.81,64,63,0,0,90,9,114,55s1,107-9,124,42.64,169,153,169c17,0,33,130,33,130-83,2-57.19-67-74-91-10-14.31-54-14-68-16s-54-116-95-149c-35.27-28.39-54-30-135-74-43.22-23.48,52.55-69.3-37-129-66-44-212,15.28-212-46,0-43-164-85-152-100"/>
  <path class="cls-2" d="M286.77.1c-12,15,152,57,152,100,0,61.29,146,2,212,46,89.54,59.7-6.23,105.52,37,129,81,44,124,55,129,100,0,0,28.73,116.5,57,106,35-13,77,6,77,6s29,20,19,60c-18.56,74.25,84,74,84,74s-82-36-43-131c8.36-20.38-27.46-75.55-49.73-71.78s-66.22-8.71-80.27-14.23c-28-11-17-81-7-98s33-78,9-124-114-55-114-55c-51.23-7.19-81-53-64-63,58.62-34.48,13-64,13-64"/>
  <path class="cls-5" d="M545.71,856.11c29.64-14.5,79,2,102-6,24-8.35,79.24,9.78,90,1,12.78-10.41,67-11,94-2,35.43,11.81,77.8-7.3,96,7,14,11,78,2,93-2,8.32-2.22,60.59,7.45,73,0,20-12,63.54,12.88,101-1,27-10,68,9,95-3,25-11.08,630,20.35,630,20.35v214.7l-1920-.13V870.38s236.41-62.64,357-22.28c21.25,7.11,99-5.73,109-2"/>
  <path class="cls-6" d="M803.7,1086.13l1116,1.08,0-376s-579.83,144.88-761,217.95C1001.57,992.53,803.7,1086.13,803.7,1086.13Z"/>
  <path class="cls-7" d="M715.7,1086.13s-144.36-142.3-236-126c-135,24-116-155.7-273-179-45.71-6.79-210-27-210-27l3,333"/>
  <path class="cls-8" d="M398.7,1087s-313.44-126.3-241-229.67c11.59-16.53,105-70.11,132-38.1,93,110.32,291,146.83,395.9,153.66,165.59,10.77,530.12,114.17,530.12,114.17Z"/>
  <path class="cls-9" d="M-.3,1087.08l-1-113s216-31.81,293.23,26.49c17.3,13,333,80.55,333,80.55Z"/>
  <path class="cls-10" d="M1919.71,948.21s-282,42.85-418-10S1274,924.24,1238,966.24c-49.78,58.06,338,122,338,122l344-1Z"/>
  <path class="cls-11" d="M1872.7,1080.2s-555-16-520-78-393,19-393,19l256,65Z"/>
  <path class="cls-12" d="M342.39,867s63.32,8.12,80.32.12,105.28,6,105.28,6,70.3,6.37,80-1.81,70.89-14.29,73.3-1.23S777,874.86,777.37,869s51.87-10.42,56.11,3.36,71.35.79,71.29.79,64.17-5,71.06,0,60,4.27,59.45-2.86,75.89-5.84,76.66,0,68,9.87,76.89,2.87,57.88-7,61.88-3,73.88,3,73.88,3l-50.52,15.72s-54.36-6.73-58.36.27-39,14-45,7-79-19-82-11-80,18-88,14-75-17-86-14-58,19-70,11-52-19-59-11-37,15-51,11-68-10-84,0-56-11-81,0-79-19-79-11-64-6-77-4-39,6.6-39,6.6Z"/>
  <path class="cls-12" d="M1187.71,918.16s-36.57,11.21-65-3c-12-6-87-5-91,3-5.94,11.87-126.65,6.85-127,1s-65.76-14.79-70-1-71-10-71-10c-3.49-4-53.11,8-60,13s-84.56,6.12-84-1-68.23-11.86-69-6-63.69,5-72.57-2-61.43-3-61.43-3l74,28s84.55-21,87.55-13,80,18,88,14,75-17,86-14,69.45,23,81.45,15,41-23,48-15,36.55,15,50.55,11,68-10,84,0,56-11,81,0c15.67,6.9,38.43,1.87,56.45-4"/>
  <path class="cls-12" d="M1035.71,981.15c-14,4-38-4-45-12s-27,2-39,10-72.45-8-83.45-11-80.55,17-80.55,17l-57-10-49-11-137-13s35.12-10,44-3,74.23,5.86,75,0,72.56,8.88,72,16,77.11,6,84,1,56.5-17,60-13c0,0,66.76,23.78,71,10s97.65,7.14,98,13Z"/>
  <path class="cls-12" d="M846.88,996.32s14.83-18.18,45.83-7.18,51,10,63,7c8.95-2.23,33.41,5.3,33.41,5.3l-10.1,4.48s-74.31-8.78-74.31-4.78-17.17,3.23-19.08,3.11S846.88,996.32,846.88,996.32Z"/>
  <path class="cls-2" d="M471.5,865.39a2.87,2.87,0,0,1-.78,1.28c-3.59-.84-11.19-1.58-20-1.84a149.06,149.06,0,0,0-17.88.35,3.9,3.9,0,0,1-.22-1.45,3.73,3.73,0,0,1,3.74-3.72,3.47,3.47,0,0,1,1.65.5,5.79,5.79,0,0,1,5.72-4.66,5.61,5.61,0,0,1,4.52,2.6,2.65,2.65,0,0,1,2.18-1.3,2.39,2.39,0,0,1,1.6.78,5.48,5.48,0,0,1,8.06.13,4.44,4.44,0,0,1,2.25-.55,4.68,4.68,0,0,1,4.32,3.59,3.82,3.82,0,0,1,2.24.06A3.59,3.59,0,0,1,471.5,865.39Z"/>
  <path class="cls-2" d="M464.5,908.39a2.8,2.8,0,0,1-.79,1.28c-3.59-.84-11.18-1.58-20-1.84a149,149,0,0,0-17.88.35,4.12,4.12,0,0,1-.23-1.45,3.74,3.74,0,0,1,3.74-3.72,3.51,3.51,0,0,1,1.66.5,5.79,5.79,0,0,1,5.72-4.66,5.59,5.59,0,0,1,4.51,2.6,2.68,2.68,0,0,1,2.19-1.3,2.35,2.35,0,0,1,1.59.78,5.49,5.49,0,0,1,8.07.13,4.44,4.44,0,0,1,2.25-.55,4.67,4.67,0,0,1,4.31,3.59,3.85,3.85,0,0,1,2.25.06A3.59,3.59,0,0,1,464.5,908.39Z"/>
  <path class="cls-2" d="M638.5,953.69a1.45,1.45,0,0,1-.55.67,118.48,118.48,0,0,0-14.36-1.09c-5.24-.15-9.9-.11-12.83.08a1.8,1.8,0,0,1-.17-.76,2.37,2.37,0,0,1,2.67-1.93,3.29,3.29,0,0,1,1.19.27,4,4,0,0,1,4.08-2.42,4.53,4.53,0,0,1,3.25,1.4,2.14,2.14,0,0,1,1.56-.68,2,2,0,0,1,1.15.42,4.75,4.75,0,0,1,3-.87,4.8,4.8,0,0,1,2.83,1,4,4,0,0,1,1.61-.28,3.35,3.35,0,0,1,3.12,1.92,3.67,3.67,0,0,1,1.61,0C638,951.79,638.85,952.79,638.5,953.69Z"/>
  <path class="cls-2" d="M676.5,863.4a2.87,2.87,0,0,1-.78,1.28c-3.59-.84-11.19-1.57-20-1.84a151.21,151.21,0,0,0-17.88.35,3.85,3.85,0,0,1-.22-1.44,3.73,3.73,0,0,1,3.74-3.72,3.46,3.46,0,0,1,1.65.49,5.79,5.79,0,0,1,5.72-4.66,5.62,5.62,0,0,1,4.52,2.61,2.67,2.67,0,0,1,2.18-1.31,2.39,2.39,0,0,1,1.6.78,5.47,5.47,0,0,1,8.06.14,4.45,4.45,0,0,1,2.25-.56,4.68,4.68,0,0,1,4.32,3.59,4,4,0,0,1,2.24.06A3.6,3.6,0,0,1,676.5,863.4Z"/>
  <path class="cls-2" d="M923.49,852.86a1.58,1.58,0,0,1-.67.69,171.8,171.8,0,0,0-17.43-1.2c-6.37-.19-12-.17-15.58,0a1.51,1.51,0,0,1-.21-.79c0-1.15,1.48-2,3.22-2a4.67,4.67,0,0,1,1.45.29c.5-1.49,2.54-2.55,4.94-2.48a6,6,0,0,1,4,1.46,2.75,2.75,0,0,1,1.89-.69,2.79,2.79,0,0,1,1.4.44,6.91,6.91,0,0,1,7,.16,5.79,5.79,0,0,1,2-.28,4.2,4.2,0,0,1,3.8,2,5.44,5.44,0,0,1,2,.06C922.88,850.9,923.91,851.93,923.49,852.86Z"/>
  <path class="cls-2" d="M827.5,866.41a2.87,2.87,0,0,1-.78,1.28c-3.59-.84-11.19-1.57-20-1.84a151.21,151.21,0,0,0-17.88.35,3.85,3.85,0,0,1-.22-1.44,3.73,3.73,0,0,1,3.73-3.72,3.46,3.46,0,0,1,1.66.49,5.77,5.77,0,0,1,5.72-4.65,5.58,5.58,0,0,1,4.52,2.6,2.67,2.67,0,0,1,2.18-1.31,2.39,2.39,0,0,1,1.6.78,5.5,5.5,0,0,1,4.13-1.7,5.56,5.56,0,0,1,3.93,1.84,4.45,4.45,0,0,1,2.25-.56,4.68,4.68,0,0,1,4.32,3.59,4,4,0,0,1,2.24.06A3.6,3.6,0,0,1,827.5,866.41Z"/>
  <path class="cls-2" d="M779.51,911.05a2.68,2.68,0,0,1-.78,1.22c-3.58-.81-11.15-1.52-19.92-1.78a156.23,156.23,0,0,0-17.82.31,3.78,3.78,0,0,1-.23-1.38,3.58,3.58,0,0,1,5.37-3.09,5.65,5.65,0,0,1,10.21-2,2.65,2.65,0,0,1,2.17-1.24,2.31,2.31,0,0,1,1.59.75,5.61,5.61,0,0,1,8,.13,4.55,4.55,0,0,1,6.55,2.92,4,4,0,0,1,2.24.06A3.45,3.45,0,0,1,779.51,911.05Z"/>
  <path class="cls-2" d="M839.51,942.05a2.76,2.76,0,0,1-.78,1.23c-3.58-.81-11.15-1.53-19.93-1.79a156.11,156.11,0,0,0-17.81.31,3.55,3.55,0,0,1-.23-1.38,3.65,3.65,0,0,1,3.72-3.56,3.56,3.56,0,0,1,1.65.48,5.71,5.71,0,0,1,5.7-4.46,5.64,5.64,0,0,1,4.5,2.5,2.69,2.69,0,0,1,2.18-1.25,2.4,2.4,0,0,1,1.59.75,5.58,5.58,0,0,1,4.12-1.63,5.65,5.65,0,0,1,3.92,1.77,4.47,4.47,0,0,1,2.24-.53,4.62,4.62,0,0,1,4.3,3.45,4.08,4.08,0,0,1,2.24,0A3.46,3.46,0,0,1,839.51,942.05Z"/>
  <path class="cls-2" d="M991.51,959.06a2.76,2.76,0,0,1-.78,1.23c-3.58-.81-11.16-1.53-19.93-1.79a156.11,156.11,0,0,0-17.81.31,3.37,3.37,0,0,1-.23-1.38,3.65,3.65,0,0,1,3.72-3.56,3.56,3.56,0,0,1,1.65.48,5.71,5.71,0,0,1,5.7-4.46,5.64,5.64,0,0,1,4.5,2.5,2.69,2.69,0,0,1,2.18-1.25,2.4,2.4,0,0,1,1.59.75,5.58,5.58,0,0,1,4.12-1.63,5.65,5.65,0,0,1,3.92,1.77,4.47,4.47,0,0,1,2.24-.53,4.62,4.62,0,0,1,4.3,3.45,4.08,4.08,0,0,1,2.24,0A3.46,3.46,0,0,1,991.51,959.06Z"/>
  <path class="cls-2" d="M896.5,988.05a2.55,2.55,0,0,1-.78,1.23c-3.58-.81-11.15-1.52-19.92-1.79a155.88,155.88,0,0,0-17.82.32,3.57,3.57,0,0,1-.22-1.38,3.65,3.65,0,0,1,3.72-3.57,3.56,3.56,0,0,1,1.65.48,5.64,5.64,0,0,1,10.2-2,2.69,2.69,0,0,1,2.18-1.25,2.37,2.37,0,0,1,1.58.76,5.62,5.62,0,0,1,8,.13,4.68,4.68,0,0,1,2.23-.53,4.63,4.63,0,0,1,4.31,3.45,4,4,0,0,1,2.24.06A3.43,3.43,0,0,1,896.5,988.05Z"/>
  <path class="cls-2" d="M1099.51,933.07a2.68,2.68,0,0,1-.78,1.22c-3.58-.81-11.15-1.52-19.93-1.78a156.11,156.11,0,0,0-17.81.31,3.55,3.55,0,0,1-.23-1.38,3.64,3.64,0,0,1,3.72-3.56,3.45,3.45,0,0,1,1.65.48,5.7,5.7,0,0,1,5.7-4.46,5.63,5.63,0,0,1,4.5,2.49,2.67,2.67,0,0,1,2.18-1.24,2.31,2.31,0,0,1,1.59.75,5.6,5.6,0,0,1,8,.14,4.58,4.58,0,0,1,2.24-.54,4.65,4.65,0,0,1,4.3,3.45,4.08,4.08,0,0,1,2.24.06A3.45,3.45,0,0,1,1099.51,933.07Z"/>
  <path class="cls-2" d="M1065.85,895.93a2.83,2.83,0,0,1-.64,1.31c-3.65-.42-11.26-.29-20,.41a157,157,0,0,0-17.68,2.26,3.67,3.67,0,0,1,2.93-5.3,3.54,3.54,0,0,1,1.69.3,5.72,5.72,0,0,1,5.18-5.06,5.64,5.64,0,0,1,4.75,2,2.68,2.68,0,0,1,2-1.48,2.42,2.42,0,0,1,1.66.57,5.6,5.6,0,0,1,3.91-2.07,5.67,5.67,0,0,1,4.1,1.33,4.5,4.5,0,0,1,2.16-.77,4.62,4.62,0,0,1,4.66,3,4,4,0,0,1,2.23-.19A3.45,3.45,0,0,1,1065.85,895.93Z"/>
  <path class="cls-2" d="M1278.51,854.07a2.6,2.6,0,0,1-.78,1.23c-3.58-.81-11.15-1.52-19.92-1.78a155.88,155.88,0,0,0-17.82.32,3.57,3.57,0,0,1-.22-1.38,3.58,3.58,0,0,1,5.37-3.09,5.64,5.64,0,0,1,10.2-2,2.69,2.69,0,0,1,2.17-1.25,2.4,2.4,0,0,1,1.59.75,5.6,5.6,0,0,1,8,.14,4.53,4.53,0,0,1,6.55,2.91,4,4,0,0,1,2.24.06A3.43,3.43,0,0,1,1278.51,854.07Z"/>
  <path class="cls-2" d="M718.27,955.85a2.68,2.68,0,0,1-1,1c-3.34-1.52-10.61-3.75-19.15-5.79a153.19,153.19,0,0,0-17.51-3.3,3.68,3.68,0,0,1,4.43-4.14,3.55,3.55,0,0,1,1.51.8,5.72,5.72,0,0,1,6.49-3.21,5.64,5.64,0,0,1,3.9,3.36,2.7,2.7,0,0,1,2.38-.78,2.38,2.38,0,0,1,1.41,1.06,5.62,5.62,0,0,1,7.85,1.76,4.54,4.54,0,0,1,2.29-.06,4.62,4.62,0,0,1,3.52,4.25,4,4,0,0,1,2.18.51A3.43,3.43,0,0,1,718.27,955.85Z"/>
  <path class="cls-2" d="M596.78,874.87c0,.16.13,1,0,1-5.26-.3-15-.07-25.91,0-12,.09-23.13.27-27.17-.54a8.27,8.27,0,0,1,0-1c-.07-1.66,1.25-2.06,2.91-2.14a3,3,0,0,1,2.85,1.71,3.26,3.26,0,0,1,2.19-.94,3.41,3.41,0,0,0,4-.19,3.17,3.17,0,0,1,2.5,1,2.5,2.5,0,0,1,2-1.16,2.5,2.5,0,0,0,4-.19,2.47,2.47,0,0,0,4-.19,2.46,2.46,0,0,0,3-.14,2.49,2.49,0,0,1,2.48,1.73,4.21,4.21,0,0,1,2.56-1,4,4,0,0,1,2.82.87,2,2,0,0,1,1.67-1.08,2,2,0,0,1,1.19.33,2.49,2.49,0,0,1,3.64.88,2,2,0,0,1,2.75.12,5.45,5.45,0,0,0,4.46-.9,2,2,0,0,1,1.87,1.09,1.65,1.65,0,0,1,.67-.21C596.06,873.9,596.74,874,596.78,874.87Z"/>
  <path class="cls-2" d="M546.77,917.87c0,.16.13,1,.05,1-5.26-.31-15-.07-25.92,0-11.95.09-23.12.28-27.16-.53a6.63,6.63,0,0,1-.05-1c-.08-1.66,1.25-2.06,2.91-2.14a3,3,0,0,1,2.85,1.71,3.24,3.24,0,0,1,2.19-.95,3.39,3.39,0,0,0,4-.18,3.17,3.17,0,0,1,2.5,1,7,7,0,0,0,6-1.35,2.5,2.5,0,0,0,4-.19,2.41,2.41,0,0,1,1.52.44,2.48,2.48,0,0,1,4,1.14,4.19,4.19,0,0,1,2.56-1,4,4,0,0,1,2.82.87,2,2,0,0,1,1.67-1.08,2,2,0,0,1,1.19.34,2.48,2.48,0,0,1,3.63.88,2,2,0,0,1,1.22-.5,2,2,0,0,0,3-.14,2,2,0,0,0,3-.14,2,2,0,0,1,1.87,1.08,1.46,1.46,0,0,1,.67-.2C546.06,916.9,546.74,917,546.77,917.87Z"/>
  <path class="cls-2" d="M678.44,924.54a9.23,9.23,0,0,1,.1,1.18c-4.16-.31-11.78.07-20.39.28-9.4.23-18.17.55-21.4-.36a11.49,11.49,0,0,1-.09-1.18c-.16-2,.85-2.43,2.15-2.54,1-.08,1.89.74,2.35,2a2.18,2.18,0,0,1,1.66-1.13,2,2,0,0,0,3.13-.26,2.25,2.25,0,0,1,2,1.1,4.23,4.23,0,0,0,4.63-1.65,1.63,1.63,0,0,0,3.13-.26,1.55,1.55,0,0,1,1.22.5,1.6,1.6,0,0,1,1.13-.7c.9-.07,1.72.78,2.06,2a2.59,2.59,0,0,1,4.22-.16c.22-.73.67-1.24,1.25-1.29a1.27,1.27,0,0,1,1,.38,1.54,1.54,0,0,1,1-.54c.78-.07,1.51.57,1.91,1.54a1.28,1.28,0,0,1,.93-.59,1.25,1.25,0,0,0,2.34-.2,1.45,1.45,0,0,1,1.25.71,1.39,1.39,0,0,1,1.1-.9c.64-.06,1.22.46,1.54,1.25a.87.87,0,0,1,.52-.24C677.82,923.41,678.36,923.57,678.44,924.54Z"/>
  <path class="cls-2" d="M801.77,967.89c0,.16.13,1,.05,1-5.26-.3-15-.06-25.92,0-12,.09-23.12.27-27.16-.54a5.5,5.5,0,0,1,0-1c-.08-1.65,1.24-2.06,2.9-2.13a3,3,0,0,1,2.85,1.7,11.63,11.63,0,0,0,6.19-1.13,3.15,3.15,0,0,1,2.5,1,7,7,0,0,0,6-1.36,2.48,2.48,0,0,0,4-.18,2.46,2.46,0,0,1,1.53.44,2.38,2.38,0,0,1,1.47-.58,2.49,2.49,0,0,1,2.49,1.72,4.16,4.16,0,0,1,2.55-1,4.07,4.07,0,0,1,2.83.87,2,2,0,0,1,1.67-1.08,2,2,0,0,1,1.19.33,2.63,2.63,0,0,1,1.31-.45,2.51,2.51,0,0,1,2.32,1.33,2,2,0,0,1,1.22-.49,2,2,0,0,0,3-.14,2,2,0,0,1,1.53.62,1.94,1.94,0,0,1,1.46-.76,2,2,0,0,1,1.87,1.08,1.54,1.54,0,0,1,.68-.2C801.05,966.92,801.73,967.06,801.77,967.89Z"/>
  <path class="cls-2" d="M976.77,924.9c0,.16.13,1,.05,1-5.26-.31-15-.07-25.92,0-12,.09-23.12.28-27.16-.54a6.44,6.44,0,0,1,0-1c-.08-1.66,1.25-2.07,2.9-2.14a3,3,0,0,1,2.86,1.7,3.38,3.38,0,0,1,4.21-.38,3.32,3.32,0,0,1,2-.75,3.18,3.18,0,0,1,2.5,1,2.51,2.51,0,0,1,2-1.17,2.48,2.48,0,0,0,4-.18,2.5,2.5,0,0,0,4-.19,2.45,2.45,0,0,0,3-.14,2.49,2.49,0,0,1,2.49,1.72,4.19,4.19,0,0,1,2.56-1,4.06,4.06,0,0,1,2.82.87,2,2,0,0,1,1.67-1.08,2,2,0,0,1,1.19.34,2.58,2.58,0,0,1,1.31-.46,2.51,2.51,0,0,1,2.32,1.34,2,2,0,0,1,1.22-.5,2,2,0,0,0,3-.14,2,2,0,0,1,1.53.62,2,2,0,0,1,1.46-.76,2,2,0,0,1,1.88,1.08,1.46,1.46,0,0,1,.67-.2C976.06,923.93,976.74,924.07,976.77,924.9Z"/>
  <path class="cls-2" d="M1179.78,875.91c0,.16.13,1.05,0,1-5.26-.3-15-.07-25.91,0-12,.09-23.13.27-27.17-.54a8.27,8.27,0,0,1,0-1c-.07-1.66,1.25-2.06,2.91-2.14a3,3,0,0,1,2.85,1.71,3.26,3.26,0,0,1,2.19-.94,3.41,3.41,0,0,0,4-.19,3.17,3.17,0,0,1,2.5.95,2.5,2.5,0,0,1,2-1.16,2.46,2.46,0,0,1,2,.91,2.5,2.5,0,0,1,4-.19,2.5,2.5,0,0,1,1.95-1.1,2.41,2.41,0,0,1,1.52.44,2.48,2.48,0,0,1,4,1.15,4.15,4.15,0,0,1,2.56-1,4,4,0,0,1,2.82.86,2,2,0,0,1,1.67-1.08,2,2,0,0,1,1.19.34,2.49,2.49,0,0,1,3.64.88,1.94,1.94,0,0,1,1.21-.5,2,2,0,0,1,1.54.62,2,2,0,0,1,3-.14,2,2,0,0,1,3.34.32,1.64,1.64,0,0,1,.67-.2C1179.06,874.94,1179.74,875.08,1179.78,875.91Z"/>
  <path class="cls-2" d="M970.78,870.9c0,.16.13,1,0,1-5.26-.31-15-.07-25.91,0-12,.09-23.13.28-27.17-.54a6.51,6.51,0,0,1,0-1c-.08-1.66,1.24-2.07,2.9-2.14a3,3,0,0,1,2.85,1.7,3.3,3.3,0,0,1,2.19-.94,3.38,3.38,0,0,0,4-.19,3.17,3.17,0,0,1,2.49,1,2.49,2.49,0,0,1,4-.25,2.49,2.49,0,0,1,4-.19,2.5,2.5,0,0,1,2-1.1,2.46,2.46,0,0,0,3-.14,2.48,2.48,0,0,1,2.48,1.72,4.21,4.21,0,0,1,2.56-1,4,4,0,0,1,2.82.87,2,2,0,0,1,1.67-1.08,2,2,0,0,1,1.19.34,2.58,2.58,0,0,1,1.31-.46,2.52,2.52,0,0,1,2.33,1.34,1.94,1.94,0,0,1,1.21-.5,2,2,0,0,1,1.54.62,2,2,0,0,1,3-.14,2,2,0,0,1,3.34.32,1.5,1.5,0,0,1,.67-.2C970.06,869.93,970.74,870.07,970.78,870.9Z"/>
  <path class="cls-2" d="M956.45,1003.88a1.19,1.19,0,0,1-.17.49l-20.65-2.48a1.45,1.45,0,0,1,0-.51,1.51,1.51,0,0,1,2.19-1.15,2.49,2.49,0,0,1,2.7-1.79,2.54,2.54,0,0,1,1.58.84,4.3,4.3,0,0,1,2.39-.36,4.35,4.35,0,0,1,2.32,1,3.39,3.39,0,0,1,4,.37,2.46,2.46,0,0,1,1.65-.4,2.5,2.5,0,0,1,2.19,2.28h0C955.74,1002.29,956.55,1003.06,956.45,1003.88Z"/>
  <path class="cls-2" d="M1038.47,970a1.11,1.11,0,0,1-.23.46L1018.15,965a1.21,1.21,0,0,1,0-.5,1.5,1.5,0,0,1,1.84-1.06,1.69,1.69,0,0,1,.49.23,2.49,2.49,0,0,1,2.92-1.39,2.54,2.54,0,0,1,1.45,1.06,4.52,4.52,0,0,1,4.57,1.28,3.42,3.42,0,0,1,3.89.93,2.41,2.41,0,0,1,1.68-.16,2.48,2.48,0,0,1,1.85,2.56l0,0C1038,968.29,1038.69,969.17,1038.47,970Z"/>
  <path class="cls-2" d="M1042.14,854.82a1.19,1.19,0,0,1-.13.49l-20.78-1a1.46,1.46,0,0,1-.06-.51,1.49,1.49,0,0,1,1.57-1.42,1.53,1.53,0,0,1,.53.13,2.49,2.49,0,0,1,4.2-1.25,4.49,4.49,0,0,1,4.74.28,3.35,3.35,0,0,1,2.11-.6,3.42,3.42,0,0,1,1.88.68,2.49,2.49,0,0,1,4,1.61h0C1041.32,853.27,1042.18,854,1042.14,854.82Z"/>
  <path class="cls-2" d="M1250.15,885.76a1,1,0,0,1-.13.49l-20.78-.86a1.46,1.46,0,0,1-.07-.51,1.49,1.49,0,0,1,1.56-1.43,1.42,1.42,0,0,1,.54.12,2.5,2.5,0,0,1,2.54-2,2.55,2.55,0,0,1,1.65.72,4.52,4.52,0,0,1,4.74.25,3.42,3.42,0,0,1,4,.06,2.46,2.46,0,0,1,1.61-.53,2.5,2.5,0,0,1,2.37,2.1h0C1249.32,884.22,1250.19,884.93,1250.15,885.76Z"/>
  <path class="cls-2" d="M1147.64,922.57a1.28,1.28,0,0,1-.21.46l-20.3-4.53a1.25,1.25,0,0,1,0-.51,1.5,1.5,0,0,1,1.79-1.14,1.55,1.55,0,0,1,.51.22,2.48,2.48,0,0,1,4.34-.52,4.34,4.34,0,0,1,2.42-.12,4.25,4.25,0,0,1,2.21,1.21,3.32,3.32,0,0,1,2.18-.23,3.28,3.28,0,0,1,1.73,1,2.48,2.48,0,0,1,3.64,2.26h0C1147.09,920.91,1147.82,921.76,1147.64,922.57Z"/>
  <path class="cls-2" d="M882.71,951.64a1.22,1.22,0,0,1-.11.5H861.8a1.39,1.39,0,0,1-.09-.5,1.5,1.5,0,0,1,1.5-1.5,1.62,1.62,0,0,1,.54.1,2.48,2.48,0,0,1,4.13-1.45,4.52,4.52,0,0,1,4.75.05,3.41,3.41,0,0,1,4-.11,2.47,2.47,0,0,1,1.59-.59,2.5,2.5,0,0,1,2.45,2h.05C881.81,950.14,882.71,950.81,882.71,951.64Z"/>
  <path class="cls-2" d="M870.71,878.64a1.22,1.22,0,0,1-.11.5H849.8a1.43,1.43,0,0,1-.09-.5,1.5,1.5,0,0,1,1.5-1.5,1.62,1.62,0,0,1,.54.1,2.48,2.48,0,0,1,4.13-1.45,4.52,4.52,0,0,1,4.75.05,3.41,3.41,0,0,1,4-.11,2.47,2.47,0,0,1,1.59-.59,2.5,2.5,0,0,1,2.45,2h.05C869.81,877.14,870.71,877.81,870.71,878.64Z"/>
  <path class="cls-2" d="M527.39,853.63a.93.93,0,0,1-.18.39l-20.53-3.29a1,1,0,0,1,0-.42,1.39,1.39,0,0,1,1.68-1,1.77,1.77,0,0,1,.52.17,2.4,2.4,0,0,1,2.7-1.32,2.85,2.85,0,0,1,1.56.8,4.91,4.91,0,0,1,2.39-.16,5,5,0,0,1,2.3.95,3.74,3.74,0,0,1,2.14-.24,4,4,0,0,1,1.81.78,2.9,2.9,0,0,1,1.65-.23,2.45,2.45,0,0,1,2.16,2h.05C526.69,852.28,527.49,853,527.39,853.63Z"/>
  <g>
    <g>
      <path d="M274.36,253.6H264.07q-1.36-16-9.8-16-5.46,0-8.18,4t-2.73,12a22.79,22.79,0,0,0,3,11.27l21.94,37.79a44.25,44.25,0,0,1,6.08,22.53V333q0,13-6.08,22.43t-14.64,9.45H243.35q-10.29,0-15.5-7.93T222.65,333h10.41v2.67q0,6.49,3.23,9.93a9.55,9.55,0,0,0,7.06,3.43c3.64,0,6.27-1.36,7.88-4.1s2.42-6.71,2.42-11.93a22.05,22.05,0,0,0-3-11.26l-21.95-37.8a43.55,43.55,0,0,1-6.07-22.52v-7.83q0-13,6.08-22.43t14.63-9.44h10.3Q273.12,221.72,274.36,253.6Z"/>
      <path d="M294.94,364.88V253.6q0-13.17,6.14-22.53t14.57-9.35h20.71q8.43,0,14.51,9.45T357,253.6V364.88H336.36V301.32H315.65v63.56Zm20.71-79.6h20.71V253.6a20.47,20.47,0,0,0-3-11.36q-3-4.67-7.38-4.68t-7.25,4.68a20.39,20.39,0,0,0-3,11.36Z"/>
      <path d="M377.65,364.89V221.73h4.84l44.14,67.76,44-67.76h10.42V364.89H460.37V277.47L424.16,333.2l-36.08-55.74v87.43Z"/>
      <path d="M501.66,364.89V221.73h20.71V349.05h31V364.9Z"/>
      <path d="M656.68,253.62H646.39q-1.36-16-9.8-16-5.46,0-8.18,4t-2.73,12a22.82,22.82,0,0,0,3,11.26l22,37.8a44.24,44.24,0,0,1,6.08,22.52V333q0,13-6.08,22.43T636,364.9H625.67q-10.29,0-15.5-7.92T605,333h10.42v2.67q0,6.49,3.22,9.92a9.56,9.56,0,0,0,7.07,3.44c3.64,0,6.26-1.37,7.88-4.1S636,338.25,636,333a22.22,22.22,0,0,0-3-11.27L611,284A43.56,43.56,0,0,1,605,261.44v-7.82q0-13,6.08-22.43t14.63-9.45H636Q655.44,221.76,656.68,253.62Z"/>
      <path d="M677.26,364.91V221.75H698v58.41l33.49-58.41h18.23l-41.43,71.58,41.42,71.58H729l-31-55.74v55.74Z"/>
      <path d="M770.27,364.91V221.75h41.41q8.44,0,14.51,9.45t6.08,22.42v8.59a46.78,46.78,0,0,1-4.72,20.52q-4.71,9.84-15.87,9.83H822q4.21,0,7.26,4.68a20.47,20.47,0,0,1,3,11.36v56.31H811.68V317.2a20.1,20.1,0,0,0-3-11.17q-3-4.68-7.38-4.68H791v63.57ZM791,285.32h10.29c2.9,0,5.35-1.56,7.38-4.68a20,20,0,0,0,3-11.16V253.63a20.33,20.33,0,0,0-3-11.35q-3-4.68-7.37-4.68H791Z"/>
      <path d="M853,364.92V253.64q0-13.17,6.14-22.53t14.57-9.35h20.71q8.43,0,14.51,9.45T915,253.64V364.92H894.4V301.36H873.69v63.56Zm20.71-79.6H894.4V253.64a20.47,20.47,0,0,0-3-11.36q-3-4.68-7.38-4.68t-7.26,4.68a20.44,20.44,0,0,0-3,11.36Z"/>
      <path d="M935.69,364.92V221.76h20.71V349.08h31v15.84Z"/>
      <path d="M1008,364.93V221.77h41.42q8.43,0,14.51,9.45t6.07,22.43v79.41q0,13-6.08,22.43t-14.51,9.44Zm20.71-15.84H1039q4.34,0,7.38-4.77a20.49,20.49,0,0,0,3-11.26V253.65a20.47,20.47,0,0,0-3-11.36q-3-4.68-7.38-4.67h-10.29Z"/>
      <path d="M1090.7,364.94V221.78h51.71v15.84h-31v47.72h20.71v16h-20.7v47.72h31v15.84Z"/>
      <path d="M1173.42,364.94V237.62h-20.71V221.78h62v15.85H1194V364.94Z"/>
    </g>
    <path class="cls-13" d="M224.16,347.62c-1.4,1.23-.94,7.9,0,9.91,8.05,17.36,11.27,57,22.54,12.4,2.41-9.52,17.33-2.82,19.33-7.43,3.22-7.44,14.5-24.79,3.22-14.88s-19.21,11.55-25.77,9.92C238.46,356.28,228.58,343.72,224.16,347.62Z"/>
    <path class="cls-13" d="M295,335.23s.29,21.18,9.66,24.79c12.89,5,8.71-24.29,11.28-22.31,3.22,2.48,4.83,27.27-8.06,49.58-4.45,7.7-6.44,64.45-6.44,64.45s-.16-51.64-3.22-59.49C293.41,379.85,295,335.23,295,335.23Z"/>
    <path class="cls-13" d="M336.89,355.06c-2.54-3.92-3.22,9.92-1.61,12.4,3.42,5.26,24.16,2.48,24.16,0,0-5-1.61-24.79-3.22-17.35-1.44,6.65-1.61,12.39-9.66,12.39S338.5,357.54,336.89,355.06Z"/>
    <path class="cls-13" d="M377.16,362.5c0,2.48-1.61,5,0,5s12.88,2.48,12.88,0-1.61-12.39-1.61-12.39-1.61,7.43-3.22,7.43S377.16,359,377.16,362.5Z"/>
    <path class="cls-13" d="M459,362.51c0,2.48-.08.26,0,5,.25,14.87,14.75,2.48,24.41,0,1.59-.41-3.05-12.4-3.05-12.4s-3,7.44-6.1,7.44S459,359,459,362.51Z"/>
    <path class="cls-13" d="M554.31,355.08a23.34,23.34,0,0,1-14.56,8.3c-7.75,1.35-21.3-.33-25.2-2.1C504.47,356.7,501.17,308,501.17,308s-.57,48.33,0,57c3.16,5.42,8.13,10,9.39,16.9,2,10.86,1.46,41.22,5.24,25.19,3.36-14.2,8.44-43.21,15.13-20.61,2.44,8.27-.78-9.08,10-9.56C556.77,376.21,554.31,355.08,554.31,355.08Z"/>
    <path class="cls-13" d="M652.56,357.56c2.52-4.58,3.22-14.87,3.22-14.87S638.06,365,611.63,356.83c-4.17-1.28-6.3-13.55-6.3-13.55s4.87,24.79,8.57,26.68C624.48,375.36,652.56,357.56,652.56,357.56Z"/>
    <path class="cls-13" d="M676.71,365s9.12,9.85,11.27,29.75c1.61,14.87,6.28-7.94,6-10.82-1.15-11.49,3.36-20.41,5.29-18.93"/>
    <path class="cls-13" d="M723.42,355.09c-1.61,2.48,3.22,12.39,4.83,12.39s24.16,5,24.16,0-6.44-17.36-8.06-12.4a10.91,10.91,0,0,1-9.66,7.44C731.47,362.53,725,352.61,723.42,355.09Z"/>
    <path class="cls-13" d="M770.12,362.53s-6.44,5-3.22,7.44,14.49,12.39,14.49,19.83,5.18-15.14,8.06-17.35c3.22-2.48,2.75-22.62,1.61-17.36C789.45,362.53,770.12,362.53,770.12,362.53Z"/>
    <path class="cls-13" d="M812,362.53a4.77,4.77,0,0,0,0,5c1.61,2.48,22.54,2.48,22.54,0s-1.61-9.91-3.22-7.44S813.61,367.49,812,362.53Z"/>
    <path class="cls-13" d="M852.26,337.74c-.39-2.4-2.28,29.75,0,29.75,3.22,0,9.66,9.92,9.66,22.31s1.61,29.75,1.61,29.75,1.61-29.75,3.22-37.18,9.67-14.88,8.06-19.83S858.7,377.41,852.26,337.74Z"/>
    <path class="cls-13" d="M894.13,360.06s-4.83,12.39,0,9.91,22.55,0,22.55-2.47,1.27-9.66-1.61-7.44C911.85,362.54,894.13,360.06,894.13,360.06Z"/>
    <path class="cls-13" d="M936,355.1c1.61,0,29.1,10.88,48.31,5,8-2.47-3.22-9.91-1.61-12.39s12.89,7.44,9.66,12.39-4.83,9.92-9.66,9.92-9.66,5-9.66,5-3.5-7.44-8.06-7.44c-1.61,0-33.82,2.48-32.21-2.48Z"/>
    <path class="cls-13" d="M1008.48,357.59c-1.9-1.95-3.22,5-1.61,7.43s46.7,5,49.92,2.49,11.28-14.88,9.67-17.36-9.67,12.4-11.28,9.92S1018.14,367.5,1008.48,357.59Z"/>
    <path class="cls-13" d="M1090.62,352.63c0-3.5-1.62,14.88,0,14.88s46.7,5,53.14,0-1.61-5-1.61-5S1090.61,372.47,1090.62,352.63Z"/>
    <path class="cls-13" d="M1172.75,360.08c-1.61,0,0,9.91,1.61,12.39s5.17,20.88,8.05,29.75c1.61,5,0-32.23,9.67-32.23s1.61-17.35,1.61-19.83-1.1,7.57-1.61,9.92C1190.47,367.51,1177.85,360.08,1172.75,360.08Z"/>
    <path class="cls-13" d="M304.27,486.31c1.49,4.84-1.5,9.79-3.35,9.79s-4.84-5-3.35-9.79c1.34-4.34,3.35-9.78,3.35-9.78S302.93,482,304.27,486.31Z"/>
    <path class="cls-13" d="M519.82,437.17c2.48,7.21-2.51,14.58-5.6,14.58s-8.07-7.37-5.59-14.58c2.24-6.48,5.6-14.58,5.6-14.58S517.58,430.69,519.82,437.17Z"/>
    <path class="cls-13" d="M693.41,432.52c1.49,4.84-1.5,9.79-3.35,9.79s-4.85-5-3.35-9.79c1.34-4.35,3.35-9.78,3.35-9.78S692.07,428.17,693.41,432.52Z"/>
    <path class="cls-13" d="M1183.85,423.29c.64,1.84-.65,3.72-1.44,3.72s-2.08-1.88-1.44-3.72c.58-1.65,1.44-3.72,1.44-3.72S1183.27,421.64,1183.85,423.29Z"/>
  </g>
  <g>
    <polygon class="cls-14" points="1060.28 884.57 1155.84 880.15 1157.93 854.14 1057.67 854.13 1060.28 884.57"/>
    <path class="cls-15" d="M1293.91,866.41s37.14-35.75,35.48-42.2,16.08,9.38-23.84,61.54"/>
    <path class="cls-16" d="M1030.71,710.52c2.1-10.52,16.23-19.37,16.23-19.37,13.62-6.09,7.86,24.9,14.14,13.83,4.7-8.28,24.49-5,24.49-5l-.4-18.25,11,14.39,7.33-14.39,3.14,14.39,23.56-14.39-6.8,17.16c45.55-15.49,49.74,16.61,49.74,16.61s2.09-25.46,22.51-10c0,0,10.47,16.05,12.57,13.28l.25,145.28L1162.91,873l-8.91-3.32,3.67-15.5c-37.05,19.86-97.65,4.15-97.65,4.15l.26,19.64-15.44.28-2.1-8.86-14.13,3.88-4.19-12.18h-12l1.57-14.94-12-1.66,9.42-16.05-7.85-10,12-6.08-3.66-13.29s5.82-2.7,7.85-3.32c1.41-.42,5.76-1.1,5.76-1.1s-19.09-20.18-5.76-48.71c22-47-5.23,9.41-5.23,9.41s-33.51,2.77-18.85-22.69,37.7-55.89,46.6-36"/>
    <path class="cls-17" d="M1109.34,805a33.83,33.83,0,0,0-17.11,4.29,33.9,33.9,0,0,0-17.12-4.3c-13.76,0-24.92,7-24.92,15.71s11.16,15.71,24.92,15.71a33.73,33.73,0,0,0,17.11-4.3,33.8,33.8,0,0,0,17.12,4.3c13.76,0,24.92-7,24.92-15.7S1123.1,805,1109.34,805Z"/>
    <ellipse class="cls-18" cx="1070.56" cy="814.15" rx="0.46" ry="0.14"/>
    <ellipse class="cls-18" cx="1062.51" cy="821.2" rx="0.46" ry="0.14"/>
    <ellipse class="cls-18" cx="1072.46" cy="825.63" rx="0.46" ry="0.14"/>
    <ellipse class="cls-18" cx="1081.73" cy="819.65" rx="0.46" ry="0.14"/>
    <ellipse class="cls-18" cx="1109.31" cy="813.6" rx="0.46" ry="0.14"/>
    <ellipse class="cls-18" cx="1101.26" cy="820.65" rx="0.46" ry="0.14"/>
    <ellipse class="cls-18" cx="1111.21" cy="825.08" rx="0.46" ry="0.14"/>
    <ellipse class="cls-18" cx="1120.48" cy="819.1" rx="0.46" ry="0.14"/>
    <path d="M1101.31,802c-1.72,3.81-4.08,7.5-9.1,7.5s-7.63-3.6-9.09-7.51c-1.72-4.56,3.21-3.91,8.23-3.91S1103.37,797.43,1101.31,802Z"/>
    <ellipse cx="1048.51" cy="787.44" rx="6.28" ry="6.64"/>
    <ellipse cx="1157.67" cy="794.92" rx="7.07" ry="7.47"/>
    <path class="cls-16" d="M1268.92,961.24s-202.87-90-245-45.4c-1.57,1.66,16.76,5,16.76,5s-14.39,16.11-9.43,14.95c4.71-1.11,14.66-.56,14.66-.56s-10.8,17.76-6.81,14.94c3.14-2.21,11.52-.55,11.52-.55a71.33,71.33,0,0,0,8.9,10.84V997.2s-6.28,14.39-14.14,18.81,5.24,15,5.24,15,17.27,10,30.36-1.66,31.42-45.93,29.85-47.59l-9.89-4.22c7.62,2.34,23.29,7,28.22,7.54,5.94.61,20.7-3.9,20.7-3.9l5-.28c.83,10.11-.72,26.51-12.06,45.69-18.81,31.78,38.22,3.87,38.22,3.87s20.42-13.28,18.85-29.33c-.75-7.61-.08-15.83.61-22.62A147.56,147.56,0,0,0,1268.92,961.24Z"/>
    <path class="cls-16" d="M1266.83,962.35s5.1,44.13,3.66,46.48c0,0-26.18,39.3,15.18,23.8s28.8-24.9,25.66-34.86c-4.1-13,2.1-48.15,1.05-45.94,1.68,1.53,11.15-38.27,2.1-62,0,0-15.7-60.33-107.85-34.32l-1.05,8.3-16.76-5-5.76,8.85-15.18-6.64-5.24,11.62-5.76-5c-46.6,24.9-100.52,9.4-100.52,9.4s-12,8.3-16.76,21.59c-1.18,3.32-12.13,14-13.09,14.94"/>
    <polygon class="cls-16" points="1272.52 960.35 1250.34 965.39 1067.28 952.04 1046.14 924.42 1037.24 913.35 1273.64 911.43 1272.52 960.35"/>
    <polygon class="cls-16" points="1210.55 851.93 1202.17 854.14 1202.18 823.71 1209.51 823.71 1210.55 851.93"/>
    <path class="cls-19" d="M1204.28,742.35s20.68,10.24,26.44,6.92-4.71-30.44-13.09-46.49-22,2.77-22,2.77l11,15.49"/>
    <path class="cls-15" d="M1206.36,855.25c0,11.21,78.69,84.29,86.13,92.15,2.61,2.77,6.9,76.27,11.51,76.93,0,0,16-4.7,10.73-18.54s.6-58,1.58-61.43c3.67-12.73,1.57-23.8,1.57-34.31,0-16.74-6.61-32.23-16.75-42.06-12.56-12.18-28.32-16.23-40.84-18.82-5.25-1.09-19.07-.21-27.75,1.1C1223,851.72,1206.36,855.25,1206.36,855.25Z"/>
    <path class="cls-15" d="M1200.6,978.67,1181,1029.86s4.71-1.66,10-7.19c4.37-4.62,8.9-12.34,8.9-16C1199.81,1003.85,1200.6,978.67,1200.6,978.67Z"/>
    <path class="cls-15" d="M1112.37,980.6l-12.3-3.6-8.38,39.85,9.42-14.39C1106,995,1112.37,980.6,1112.37,980.6Z"/>
    <path class="cls-2" d="M1044.52,781.7c-3.37,0-3.37,5.53,0,5.53S1047.9,781.7,1044.52,781.7Z"/>
    <path class="cls-2" d="M1048.59,786.27a1.28,1.28,0,0,0,0,2.56A1.28,1.28,0,0,0,1048.59,786.27Z"/>
    <path class="cls-2" d="M1154,788.9c-3.37,0-3.37,5.54,0,5.54S1157.33,788.9,1154,788.9Z"/>
    <path class="cls-15" d="M1153.48,869.64,1198,850.82l12,1.11,1.86-14.53,12-8.18-6.87-9.83,8.59-10.37-10.73-9.28s7.7-37.47,3.51-43.55c-.66-1,1.68-8.86.53-8.86-2.62,0-29.61-10.91-29.32-11.07"/>
    <path d="M1058.92,820.77c-3.37,0-3.38,5.53,0,5.53S1062.29,820.77,1058.92,820.77Z"/>
    <path d="M1063.35,810.85c-3.37,0-3.38,5.54,0,5.54S1066.72,810.85,1063.35,810.85Z"/>
    <path d="M1070.38,822.42c-3.37,0-3.37,5.53,0,5.53S1073.76,822.42,1070.38,822.42Z"/>
    <path d="M1077.42,813.61c-3.37,0-3.38,5.53,0,5.53S1080.79,813.61,1077.42,813.61Z"/>
    <path d="M1083.93,824.62c-3.37,0-3.37,5.54,0,5.54S1087.31,824.62,1083.93,824.62Z"/>
    <path d="M1125,821.24c-3.37,0-3.37,5.53,0,5.53S1128.36,821.24,1125,821.24Z"/>
    <path d="M1118.37,811.81c-3.37,0-3.38,5.53,0,5.53S1121.74,811.81,1118.37,811.81Z"/>
    <path d="M1114.34,825.19c-3.37,0-3.38,5.53,0,5.53S1117.71,825.19,1114.34,825.19Z"/>
    <path d="M1106.28,812.72c-3.37,0-3.37,5.53,0,5.53S1109.66,812.72,1106.28,812.72Z"/>
    <path d="M1101.1,823.06c-3.37,0-3.37,5.53,0,5.53S1104.48,823.06,1101.1,823.06Z"/>
  </g>
  <g>
    <path class="cls-2" d="M968.22,802.17l-37.36-19.93-16.91-9c-22-45.38-104.65-79.12-203.23-79.13-115.42,0-209,46.23-209,103.28s93.56,103.3,209,103.31c89,0,165-27.5,195.16-66.25l24.7-12.78Z"/>
    <path d="M710.71,901.13c-115.52,0-209.5-46.56-209.49-103.77s94-103.74,209.5-103.73c48,0,93.11,7.81,130.52,22.58,36.3,14.33,62.25,34.46,73.1,56.68l54.88,29.29-63,32.59c-15.06,19.32-41.22,35.83-75.66,47.74C795.31,894.69,753.87,901.13,710.71,901.13Zm0-206.59c-115,0-208.5,46.12-208.5,102.82s93.52,102.85,208.49,102.86c43,0,84.36-6.42,119.48-18.56,34.3-11.86,60.33-28.29,75.27-47.5l.16-.13,61.6-31.86-53.67-28.64-.06-.14c-10.71-22.06-36.51-42.08-72.65-56.34C803.56,702.32,758.56,694.54,710.72,694.54Z"/>
  </g>
  <g>
    <path d="M626.61,748.29V723.06h6.19v9.62h11.6v-9.62h6.2v25.23H644.4V737H632.8v11.26Z"/>
    <path d="M660.23,738.72v.58a10.06,10.06,0,0,0,.71,4.12c.43.79,1.33,1.19,2.73,1.19a2.78,2.78,0,0,0,2.74-1.3,6.17,6.17,0,0,0,.4-2.6V723.06H673v17.56a8.87,8.87,0,0,1-1.29,5.1q-2.18,3.19-7.85,3.19t-7.62-2.58a11.39,11.39,0,0,1-1.94-7v-.58Z"/>
    <path d="M687.72,723.15H716v4.38H700.59V733h13.86v4.31H700.59v6.57h15.66v4.45h-21.8V743h-9l-2.16,5.34h-6.48Zm6.73,4.3h-2.69l-4.59,11.36h7.28Z"/>
    <path d="M721.09,723.07h6.23v20.69h14.9v4.54H721.09Z"/>
    <path d="M766.44,737.38q-2.62,1.85-7.48,1.85h-6.22v9.07h-6.19V723.07h12.81a11.59,11.59,0,0,1,7.06,1.95c1.76,1.3,2.64,3.32,2.64,6C769.06,734,768.18,736.15,766.44,737.38Zm-4.76-9.09a5.66,5.66,0,0,0-3.32-.84h-5.62v7.43h5.62a5.33,5.33,0,0,0,3.32-.91,3.37,3.37,0,0,0,1.18-2.87A3.19,3.19,0,0,0,761.68,728.29Z"/>
    <path d="M775.45,723.16h6.34v6.39l-1.64,11.77h-3l-1.68-11.77Zm.14,20.19h6v4.95h-6Z"/>
  </g>
  <g>
    <path d="M612.05,771.72h3.38v11.22h-2.19v-7.59c0-.22,0-.53,0-.92s0-.7,0-.91l-2.13,9.42h-2.28l-2.11-9.42c0,.21,0,.52,0,.91s0,.7,0,.92v7.59h-2.18V771.72H608l2,8.82Z"/>
    <path d="M619.65,773.65h-2.2v-2h2.2Zm-2.2,1h2.2v8.3h-2.2Z"/>
    <path d="M628.44,775.12a2.72,2.72,0,0,1,.82,2.23v5.59H627v-5.05a2.23,2.23,0,0,0-.18-1,1.21,1.21,0,0,0-1.21-.64,1.49,1.49,0,0,0-1.5.93,3.3,3.3,0,0,0-.21,1.27v4.49h-2.17v-8.28h2.1v1.21a3.47,3.47,0,0,1,.79-.92,2.7,2.7,0,0,1,1.69-.51A3.16,3.16,0,0,1,628.44,775.12Z"/>
    <path d="M636.68,774.81a3.41,3.41,0,0,1,1.44,1.23,4,4,0,0,1,.66,1.71,10.54,10.54,0,0,1,.07,1.65h-6a2,2,0,0,0,.86,1.75,2.19,2.19,0,0,0,1.2.31,1.78,1.78,0,0,0,1.2-.38,1.67,1.67,0,0,0,.45-.57h2.22a2.73,2.73,0,0,1-.81,1.5,4,4,0,0,1-3.12,1.21,4.52,4.52,0,0,1-2.92-1,4,4,0,0,1-1.27-3.32,4.51,4.51,0,0,1,1.14-3.31,4,4,0,0,1,3-1.15A4.72,4.72,0,0,1,636.68,774.81Zm-3.24,1.87a2.27,2.27,0,0,0-.58,1.29h3.74a1.79,1.79,0,0,0-.58-1.31,1.91,1.91,0,0,0-1.29-.45A1.73,1.73,0,0,0,633.44,776.68Z"/>
    <path d="M649.39,774.64h2.33l-3,8.3h-2.28l-3-8.3h2.44l1.72,6.12Z"/>
    <path d="M658.36,774.81a3.38,3.38,0,0,1,1.43,1.23,4,4,0,0,1,.66,1.71,10.68,10.68,0,0,1,.07,1.65h-6a2,2,0,0,0,.87,1.75,2.18,2.18,0,0,0,1.19.31,1.81,1.81,0,0,0,1.21-.38,1.67,1.67,0,0,0,.45-.57h2.21a2.71,2.71,0,0,1-.8,1.5,4,4,0,0,1-3.13,1.21,4.54,4.54,0,0,1-2.92-1,4,4,0,0,1-1.27-3.32,4.51,4.51,0,0,1,1.15-3.31,4,4,0,0,1,3-1.15A4.72,4.72,0,0,1,658.36,774.81Zm-3.25,1.88a2.21,2.21,0,0,0-.58,1.28h3.74a1.79,1.79,0,0,0-.58-1.31,1.87,1.87,0,0,0-1.28-.45A1.72,1.72,0,0,0,655.11,776.69Z"/>
    <path d="M668.31,775.12a2.72,2.72,0,0,1,.82,2.23v5.59H666.9v-5a2.27,2.27,0,0,0-.17-1,1.21,1.21,0,0,0-1.21-.64,1.49,1.49,0,0,0-1.5.94,3.43,3.43,0,0,0-.22,1.26v4.49h-2.16v-8.28h2.1v1.21a3.64,3.64,0,0,1,.79-.92,2.67,2.67,0,0,1,1.69-.5A3.16,3.16,0,0,1,668.31,775.12Z"/>
    <path d="M677.84,775.12a2.77,2.77,0,0,1,.81,2.24v5.58h-2.22v-5a2.25,2.25,0,0,0-.18-1,1.21,1.21,0,0,0-1.21-.64,1.49,1.49,0,0,0-1.5.94,3.25,3.25,0,0,0-.21,1.26v4.49h-2.17v-8.28h2.1v1.21a3.64,3.64,0,0,1,.79-.92,2.69,2.69,0,0,1,1.69-.5A3.21,3.21,0,0,1,677.84,775.12Z"/>
    <path d="M686.08,774.81a3.44,3.44,0,0,1,1.43,1.23,4.07,4.07,0,0,1,.66,1.72,10.47,10.47,0,0,1,.07,1.64h-6a2,2,0,0,0,.87,1.75,2.18,2.18,0,0,0,1.19.32,1.86,1.86,0,0,0,1.21-.38,2,2,0,0,0,.44-.57h2.22a2.73,2.73,0,0,1-.81,1.5,4,4,0,0,1-3.12,1.21,4.53,4.53,0,0,1-2.92-1,4,4,0,0,1-1.27-3.32,4.43,4.43,0,0,1,1.15-3.3,4,4,0,0,1,3-1.16A4.9,4.9,0,0,1,686.08,774.81Zm-3.25,1.88a2.21,2.21,0,0,0-.58,1.28H686a1.81,1.81,0,0,0-.58-1.31,1.88,1.88,0,0,0-1.29-.45A1.71,1.71,0,0,0,682.83,776.69Z"/>
    <path d="M694,774.45h.18v2.23l-.36,0h-.26a1.8,1.8,0,0,0-1.76.85,3.29,3.29,0,0,0-.25,1.48v4h-2.18v-8.29h2.07v1.44a4.41,4.41,0,0,1,.87-1.13,2.41,2.41,0,0,1,1.59-.51Z"/>
    <path d="M697.09,780.29a1.37,1.37,0,0,0,.3.83,2,2,0,0,0,1.5.43,2.26,2.26,0,0,0,1-.19.62.62,0,0,0,.38-.57.64.64,0,0,0-.31-.56,13.24,13.24,0,0,0-2.27-.65,4.64,4.64,0,0,1-2-.88,1.87,1.87,0,0,1-.58-1.49,2.59,2.59,0,0,1,.9-2,3.67,3.67,0,0,1,2.55-.83,4.67,4.67,0,0,1,2.53.62,2.65,2.65,0,0,1,1.13,2.14h-2.17a1.27,1.27,0,0,0-.24-.66,1.48,1.48,0,0,0-1.22-.44,1.74,1.74,0,0,0-1,.22.64.64,0,0,0-.3.52.57.57,0,0,0,.32.54,13.05,13.05,0,0,0,2.27.6,4.14,4.14,0,0,1,1.94.92,2.09,2.09,0,0,1,.64,1.56,2.54,2.54,0,0,1-.92,2,5.52,5.52,0,0,1-5.74-.05,2.69,2.69,0,0,1-.93-2.11Z"/>
    <path d="M714.37,774.69a2.43,2.43,0,0,1,1,.82,2.15,2.15,0,0,1,.42,1,12.05,12.05,0,0,1,.07,1.6V783h-2.21v-5.06a2.25,2.25,0,0,0-.23-1.08,1.14,1.14,0,0,0-1.12-.58,1.5,1.5,0,0,0-1.29.58,2.6,2.6,0,0,0-.45,1.64V783h-2.17V771.76h2.17v4a2.73,2.73,0,0,1,1.09-1,3.07,3.07,0,0,1,1.3-.28A3.62,3.62,0,0,1,714.37,774.69Z"/>
    <path d="M717,784.54l.26,0h.13a.66.66,0,0,0,.49-.16.81.81,0,0,0,.16-.6v-9.11h2.17v9.15a2.88,2.88,0,0,1-.49,1.85,2.42,2.42,0,0,1-1.94.61h-.3l-.48,0Zm3.21-10.88H718v-2h2.17Z"/>
    <path d="M727.67,774.82a3.45,3.45,0,0,1,1.44,1.22,4.12,4.12,0,0,1,.66,1.72,10.54,10.54,0,0,1,.07,1.65h-6.05a2,2,0,0,0,.87,1.75,2.19,2.19,0,0,0,1.2.31,1.85,1.85,0,0,0,1.2-.38,1.89,1.89,0,0,0,.45-.57h2.21a2.65,2.65,0,0,1-.8,1.5,4,4,0,0,1-3.12,1.21,4.5,4.5,0,0,1-2.92-1,4,4,0,0,1-1.27-3.33,4.5,4.5,0,0,1,1.14-3.3,4,4,0,0,1,3-1.15A4.72,4.72,0,0,1,727.67,774.82Zm-3.24,1.87a2.27,2.27,0,0,0-.58,1.29h3.74a1.85,1.85,0,0,0-.58-1.32,2,2,0,0,0-1.29-.44A1.68,1.68,0,0,0,724.43,776.69Z"/>
    <path d="M741.29,774.68a2.43,2.43,0,0,1,1.44,1.81,7.64,7.64,0,0,1,.07,1.23V783h-2.22v-5.29a1.6,1.6,0,0,0-.16-.77,1.06,1.06,0,0,0-1.06-.58,1.25,1.25,0,0,0-1.24.74,2.35,2.35,0,0,0-.18,1V783h-2.18V778a2.63,2.63,0,0,0-.16-1.08,1.06,1.06,0,0,0-1.07-.6,1.29,1.29,0,0,0-1.25.6,2.44,2.44,0,0,0-.17,1v5h-2.2v-8.29H733v1.21a3.62,3.62,0,0,1,.76-.92,2.61,2.61,0,0,1,1.63-.48,2.58,2.58,0,0,1,1.54.42,2.34,2.34,0,0,1,.72,1,2.73,2.73,0,0,1,1.06-1.07,3.17,3.17,0,0,1,1.49-.34A3,3,0,0,1,741.29,774.68Z"/>
    <path d="M754.54,774.82a3.38,3.38,0,0,1,1.43,1.23,4,4,0,0,1,.66,1.71,10.54,10.54,0,0,1,.07,1.65h-6a2,2,0,0,0,.87,1.75,2.18,2.18,0,0,0,1.19.31,1.86,1.86,0,0,0,1.21-.38,1.89,1.89,0,0,0,.45-.57h2.21a2.78,2.78,0,0,1-.8,1.5,4,4,0,0,1-3.13,1.21,4.54,4.54,0,0,1-2.92-1,4,4,0,0,1-1.26-3.32,4.51,4.51,0,0,1,1.14-3.31,4,4,0,0,1,3-1.15A4.72,4.72,0,0,1,754.54,774.82Zm-3.25,1.87a2.34,2.34,0,0,0-.58,1.29h3.74a1.77,1.77,0,0,0-.58-1.31,1.87,1.87,0,0,0-1.28-.45A1.75,1.75,0,0,0,751.29,776.69Z"/>
    <path d="M762.41,774.46h.19v2.22l-.37,0H762a1.81,1.81,0,0,0-1.76.86A3.41,3.41,0,0,0,760,779v4h-2.18v-8.3h2.07v1.45a4.75,4.75,0,0,1,.87-1.14,2.41,2.41,0,0,1,1.59-.51Z"/>
    <path d="M770.36,774.65v5a2.64,2.64,0,0,0,.17,1.07,1.15,1.15,0,0,0,1.16.63,1.51,1.51,0,0,0,1.51-.9,3.24,3.24,0,0,0,.22-1.28v-4.52h2.2V783h-2.11v-1.17l-.16.23a1.75,1.75,0,0,1-.28.33,2.87,2.87,0,0,1-1,.62,3.09,3.09,0,0,1-1.11.17,2.47,2.47,0,0,1-2.47-1.32,5.08,5.08,0,0,1-.36-2.16v-5Z"/>
    <path d="M782.12,774.79a2.62,2.62,0,0,1,1,.91v-4h2.2V783h-2.11V781.8a3.1,3.1,0,0,1-1.06,1.07,2.92,2.92,0,0,1-1.48.34,3.08,3.08,0,0,1-2.45-1.18,4.52,4.52,0,0,1-1-3,5.21,5.21,0,0,1,1-3.34,3.18,3.18,0,0,1,2.62-1.22A2.56,2.56,0,0,1,782.12,774.79Zm.54,5.91a3,3,0,0,0,.48-1.78,2.71,2.71,0,0,0-.77-2.17,1.64,1.64,0,0,0-1.1-.4,1.51,1.51,0,0,0-1.39.72,3.86,3.86,0,0,0,0,3.62,1.53,1.53,0,0,0,1.38.69A1.62,1.62,0,0,0,782.66,780.7Z"/>
    <path d="M788.93,780.3a1.47,1.47,0,0,0,.3.82,2,2,0,0,0,1.5.44,2.38,2.38,0,0,0,1-.19.62.62,0,0,0,.38-.57.61.61,0,0,0-.31-.56,12.29,12.29,0,0,0-2.27-.65,4.83,4.83,0,0,1-2-.88,1.87,1.87,0,0,1-.58-1.49,2.59,2.59,0,0,1,.9-2,3.67,3.67,0,0,1,2.55-.82A4.64,4.64,0,0,1,793,775a2.64,2.64,0,0,1,1.12,2.14h-2.17a1.32,1.32,0,0,0-.23-.66,1.49,1.49,0,0,0-1.23-.44,1.74,1.74,0,0,0-1,.22.63.63,0,0,0-.3.52.59.59,0,0,0,.32.54,15.86,15.86,0,0,0,2.27.6,4.14,4.14,0,0,1,1.94.92,2.06,2.06,0,0,1,.64,1.56,2.52,2.52,0,0,1-.92,2,5.55,5.55,0,0,1-5.74,0,2.7,2.7,0,0,1-.93-2.11Z"/>
    <path d="M799.21,777.9a3.18,3.18,0,0,0,.86-.19.65.65,0,0,0,.47-.61.74.74,0,0,0-.36-.71,2.26,2.26,0,0,0-1-.19,1.42,1.42,0,0,0-1.11.38,1.6,1.6,0,0,0-.3.76h-2.1a3.22,3.22,0,0,1,.61-1.79,3.58,3.58,0,0,1,3-1.09,5.3,5.3,0,0,1,2.43.54,2.07,2.07,0,0,1,1.07,2v3.8c0,.27,0,.59,0,1a1.14,1.14,0,0,0,.13.58.75.75,0,0,0,.32.25V783H800.8a2.46,2.46,0,0,1-.14-.47c0-.15,0-.31-.06-.5a4.69,4.69,0,0,1-1,.83,3.13,3.13,0,0,1-1.59.4,2.77,2.77,0,0,1-1.88-.64,2.3,2.3,0,0,1-.73-1.83,2.35,2.35,0,0,1,1.18-2.21,5.23,5.23,0,0,1,1.92-.53Zm1.32,1a4.11,4.11,0,0,1-.42.21,3.29,3.29,0,0,1-.58.14l-.49.1a3.38,3.38,0,0,0-1,.29,1,1,0,0,0-.51.92,1,1,0,0,0,.31.81,1.21,1.21,0,0,0,.76.24,2.23,2.23,0,0,0,1.31-.41,1.71,1.71,0,0,0,.62-1.5Z"/>
    <path d="M803.74,776.28v-1.55h1.15v-2.31H807v2.31h1.35v1.55H807v4.38a1,1,0,0,0,.13.64,1.49,1.49,0,0,0,.79.12h.43V783l-1,0a2.78,2.78,0,0,1-2.1-.54,1.6,1.6,0,0,1-.37-1.15v-5.1Z"/>
    <path d="M810.48,771.77h2.39v2.84l-.62,5.24h-1.14l-.63-5.24Zm.06,9h2.27V783h-2.27Z"/>
    <path d="M556.36,790.71a2.73,2.73,0,0,1,1,.79,3.48,3.48,0,0,1,.57.94,3.4,3.4,0,0,1-.2,2.75,2.22,2.22,0,0,1-1.33,1.09,2.13,2.13,0,0,1,1.1.89,3.78,3.78,0,0,1,.32,1.76v.75a5.81,5.81,0,0,0,.06,1,.91.91,0,0,0,.44.64v.28h-2.59c-.07-.24-.12-.45-.16-.6a5,5,0,0,1-.09-1l0-1.05a2.12,2.12,0,0,0-.37-1.43,1.89,1.89,0,0,0-1.34-.36h-2.29v4.4h-2.29V790.42h5.37A4.91,4.91,0,0,1,556.36,790.71Zm-4.85,1.66v3H554a2.56,2.56,0,0,0,1.13-.19,1.26,1.26,0,0,0,.66-1.26,1.41,1.41,0,0,0-.64-1.37,2.35,2.35,0,0,0-1.09-.2Z"/>
    <path d="M565.66,793.51a3.41,3.41,0,0,1,1.44,1.23,4.12,4.12,0,0,1,.66,1.72,11.88,11.88,0,0,1,.07,1.64h-6.05a2,2,0,0,0,.87,1.76,2.28,2.28,0,0,0,1.2.31,1.85,1.85,0,0,0,1.2-.38,1.89,1.89,0,0,0,.45-.57h2.21a2.65,2.65,0,0,1-.8,1.5,4,4,0,0,1-3.12,1.21,4.5,4.5,0,0,1-2.92-1,4,4,0,0,1-1.27-3.33,4.48,4.48,0,0,1,1.14-3.3,4,4,0,0,1,3-1.15A4.88,4.88,0,0,1,565.66,793.51Zm-3.24,1.88a2.24,2.24,0,0,0-.58,1.28h3.74a1.85,1.85,0,0,0-.58-1.31,1.91,1.91,0,0,0-1.29-.45A1.68,1.68,0,0,0,562.42,795.39Z"/>
    <path d="M573.33,793.48a2.7,2.7,0,0,1,.95.92v-4h2.2v11.21h-2.11V800.5a2.68,2.68,0,0,1-2.54,1.4,3.07,3.07,0,0,1-2.44-1.17,4.49,4.49,0,0,1-1-3,5.19,5.19,0,0,1,1-3.34,3.18,3.18,0,0,1,2.62-1.22A2.69,2.69,0,0,1,573.33,793.48Zm.53,5.91a3,3,0,0,0,.48-1.77,2.73,2.73,0,0,0-.77-2.18,1.75,1.75,0,0,0-1.1-.4,1.51,1.51,0,0,0-1.39.72,3.88,3.88,0,0,0,0,3.63,1.53,1.53,0,0,0,1.38.69A1.6,1.6,0,0,0,573.86,799.39Z"/>
    <path d="M584.46,799a1.5,1.5,0,0,0,.3.82,2,2,0,0,0,1.5.43,2.24,2.24,0,0,0,1-.19.63.63,0,0,0,.08-1.12,12.2,12.2,0,0,0-2.27-.66,4.7,4.7,0,0,1-2-.87,1.94,1.94,0,0,1-.58-1.5,2.6,2.6,0,0,1,.91-2,3.63,3.63,0,0,1,2.54-.83,4.71,4.71,0,0,1,2.54.62,2.66,2.66,0,0,1,1.12,2.15h-2.16a1.4,1.4,0,0,0-.24-.67,1.51,1.51,0,0,0-1.22-.44,1.8,1.8,0,0,0-1,.22.63.63,0,0,0-.31.52.57.57,0,0,0,.32.54,13.36,13.36,0,0,0,2.27.6,4.23,4.23,0,0,1,1.94.92,2.09,2.09,0,0,1,.64,1.56,2.5,2.5,0,0,1-.92,2,5.5,5.5,0,0,1-5.73,0,2.66,2.66,0,0,1-.94-2.1Z"/>
    <path d="M590.6,795v-1.55h1.16v-2.31h2.14v2.32h1.35V795H593.9v4.39a1,1,0,0,0,.13.63,1.45,1.45,0,0,0,.79.13h.43v1.62l-1,0a2.75,2.75,0,0,1-2.1-.53,1.6,1.6,0,0,1-.36-1.15V795Z"/>
    <path d="M601.25,793.16h.19v2.22l-.37,0h-.25a1.81,1.81,0,0,0-1.76.85,3.31,3.31,0,0,0-.25,1.48v4h-2.18v-8.3h2.07v1.45a4.53,4.53,0,0,1,.88-1.14,2.36,2.36,0,0,1,1.58-.51Z"/>
    <path d="M606,796.6a3.18,3.18,0,0,0,.86-.19.65.65,0,0,0,.47-.62.72.72,0,0,0-.36-.7,2.26,2.26,0,0,0-1.05-.19,1.35,1.35,0,0,0-1.1.38,1.47,1.47,0,0,0-.31.76h-2.1a3.12,3.12,0,0,1,.62-1.79,3.55,3.55,0,0,1,3-1.1,5.3,5.3,0,0,1,2.43.54,2.07,2.07,0,0,1,1.07,2v3.81c0,.26,0,.58,0,1a1.3,1.3,0,0,0,.13.58.83.83,0,0,0,.32.25v.32h-2.36a2.69,2.69,0,0,1-.14-.47q0-.23-.06-.51a4.42,4.42,0,0,1-1,.83,3.14,3.14,0,0,1-1.59.41,2.73,2.73,0,0,1-1.87-.65,2.26,2.26,0,0,1-.74-1.82,2.36,2.36,0,0,1,1.19-2.22,5.52,5.52,0,0,1,1.91-.53Zm1.32,1a1.83,1.83,0,0,1-.42.21,3.17,3.17,0,0,1-.58.15l-.49.09a3.06,3.06,0,0,0-1,.3,1,1,0,0,0-.51.92,1,1,0,0,0,.31.8,1.16,1.16,0,0,0,.76.25,2.28,2.28,0,0,0,1.31-.41,1.71,1.71,0,0,0,.62-1.5Z"/>
    <path d="M618.07,793.83a2.72,2.72,0,0,1,.82,2.23v5.59h-2.22v-5a2.2,2.2,0,0,0-.18-1,1.21,1.21,0,0,0-1.21-.64,1.49,1.49,0,0,0-1.5.93,3.27,3.27,0,0,0-.21,1.27v4.49H611.4v-8.28h2.1v1.21a3.71,3.71,0,0,1,.79-.93,2.74,2.74,0,0,1,1.69-.5A3.16,3.16,0,0,1,618.07,793.83Z"/>
    <path d="M625.31,793.48a2.79,2.79,0,0,1,1,.92v-4h2.2v11.21h-2.11V800.5a3,3,0,0,1-1.06,1.07,2.92,2.92,0,0,1-1.48.34,3.05,3.05,0,0,1-2.44-1.18,4.47,4.47,0,0,1-1-3,5.21,5.21,0,0,1,1-3.34,3.2,3.2,0,0,1,2.62-1.22A2.69,2.69,0,0,1,625.31,793.48Zm.53,5.92a3,3,0,0,0,.48-1.78,2.75,2.75,0,0,0-.77-2.18,1.68,1.68,0,0,0-1.1-.39,1.51,1.51,0,0,0-1.39.72,3.86,3.86,0,0,0,0,3.62,1.54,1.54,0,0,0,1.38.69A1.62,1.62,0,0,0,625.84,799.4Z"/>
    <path d="M635.84,793.52a3.38,3.38,0,0,1,1.43,1.23,4,4,0,0,1,.66,1.71,10.54,10.54,0,0,1,.07,1.65h-6a2,2,0,0,0,.87,1.75,2.18,2.18,0,0,0,1.19.31,1.81,1.81,0,0,0,1.21-.38,1.87,1.87,0,0,0,.44-.57h2.22a2.78,2.78,0,0,1-.8,1.5,4,4,0,0,1-3.13,1.21,4.52,4.52,0,0,1-2.92-1,4,4,0,0,1-1.26-3.32,4.51,4.51,0,0,1,1.14-3.31,4,4,0,0,1,3-1.15A4.73,4.73,0,0,1,635.84,793.52Zm-3.25,1.87a2.27,2.27,0,0,0-.58,1.29h3.74a1.79,1.79,0,0,0-.58-1.31,1.87,1.87,0,0,0-1.28-.45A1.75,1.75,0,0,0,632.59,795.39Z"/>
    <path d="M645.79,793.83a2.75,2.75,0,0,1,.82,2.23v5.59h-2.23v-5a2.25,2.25,0,0,0-.17-1A1.21,1.21,0,0,0,643,795a1.49,1.49,0,0,0-1.5.93,3.3,3.3,0,0,0-.21,1.27v4.49h-2.17v-8.28h2.1v1.21a3.3,3.3,0,0,1,.79-.92,2.68,2.68,0,0,1,1.69-.51A3.16,3.16,0,0,1,645.79,793.83Z"/>
    <path d="M648.51,803.45a1.66,1.66,0,0,0,1-.6,2.25,2.25,0,0,0,.36-1.2h-1.32v-2.28h2.34v2a4.69,4.69,0,0,1-.13,1.09,2.16,2.16,0,0,1-.51,1,2.61,2.61,0,0,1-1,.67,2.35,2.35,0,0,1-.75.22Z"/>
    <path d="M664.21,800.64a4.59,4.59,0,0,1-6.38,0,5.16,5.16,0,0,1,0-6.24,4.54,4.54,0,0,1,6.38,0,5.16,5.16,0,0,1,0,6.24Zm-1.74-1.2a3.89,3.89,0,0,0,0-3.85,1.75,1.75,0,0,0-1.46-.67,1.78,1.78,0,0,0-1.47.67,3.89,3.89,0,0,0,0,3.85,1.75,1.75,0,0,0,1.47.67A1.72,1.72,0,0,0,662.47,799.44Z"/>
    <path d="M670.92,793.35a2.58,2.58,0,0,1,1.27,1.2v-1.2h2.12v7.88a4.43,4.43,0,0,1-.54,2.42c-.62.93-1.81,1.4-3.56,1.4a4.84,4.84,0,0,1-2.6-.63,2.29,2.29,0,0,1-1.11-1.86h2.36a1,1,0,0,0,.3.55,1.87,1.87,0,0,0,1.18.29,1.57,1.57,0,0,0,1.56-.78,3.87,3.87,0,0,0,.26-1.69v-.53a2.61,2.61,0,0,1-.67.8,2.68,2.68,0,0,1-1.68.49,3.15,3.15,0,0,1-2.55-1.12,4.54,4.54,0,0,1-1-3,5.14,5.14,0,0,1,.92-3.11,3,3,0,0,1,2.61-1.26A2.83,2.83,0,0,1,670.92,793.35Zm.73,5.95a2.68,2.68,0,0,0,.53-1.83,2.82,2.82,0,0,0-.5-1.8,1.62,1.62,0,0,0-1.33-.62,1.57,1.57,0,0,0-1.57,1.08,3.83,3.83,0,0,0-.23,1.4,3.09,3.09,0,0,0,.25,1.29,1.58,1.58,0,0,0,1.57,1A1.65,1.65,0,0,0,671.65,799.3Z"/>
    <path d="M685.28,793.16h.18v2.23l-.36,0h-.26a1.8,1.8,0,0,0-1.76.85,3.29,3.29,0,0,0-.25,1.48v4h-2.19v-8.3h2.07v1.45a4.63,4.63,0,0,1,.88-1.13,2.38,2.38,0,0,1,1.58-.51Z"/>
    <path d="M692.14,793.52a3.41,3.41,0,0,1,1.44,1.23,4.07,4.07,0,0,1,.66,1.72,11.88,11.88,0,0,1,.07,1.64h-6a2,2,0,0,0,.87,1.75,2.19,2.19,0,0,0,1.2.32,1.85,1.85,0,0,0,1.2-.38,1.89,1.89,0,0,0,.45-.57h2.21a2.65,2.65,0,0,1-.8,1.5,4,4,0,0,1-3.12,1.21,4.51,4.51,0,0,1-2.92-1,4,4,0,0,1-1.27-3.32,4.47,4.47,0,0,1,1.14-3.3,4,4,0,0,1,3-1.16A4.72,4.72,0,0,1,692.14,793.52Zm-3.24,1.88a2.21,2.21,0,0,0-.58,1.28h3.74a1.85,1.85,0,0,0-.58-1.31,1.91,1.91,0,0,0-1.29-.45A1.68,1.68,0,0,0,688.9,795.4Z"/>
    <path d="M699.8,793.49a2.64,2.64,0,0,1,1,.92v-4H703v11.2h-2.11V800.5a3.06,3.06,0,0,1-5,.24,4.49,4.49,0,0,1-1-3,5.19,5.19,0,0,1,1-3.34,3.15,3.15,0,0,1,2.61-1.22A2.66,2.66,0,0,1,699.8,793.49Zm.54,5.91a3,3,0,0,0,.48-1.77,2.73,2.73,0,0,0-.77-2.18,1.69,1.69,0,0,0-1.1-.4,1.51,1.51,0,0,0-1.39.72,3.88,3.88,0,0,0,0,3.63,1.54,1.54,0,0,0,1.38.69A1.6,1.6,0,0,0,700.34,799.4Z"/>
    <path d="M710.94,799a1.5,1.5,0,0,0,.3.82,2,2,0,0,0,1.5.43,2.24,2.24,0,0,0,1-.19.62.62,0,0,0,.38-.57.59.59,0,0,0-.31-.55,11.7,11.7,0,0,0-2.26-.66,4.69,4.69,0,0,1-2-.88,1.91,1.91,0,0,1-.58-1.49,2.56,2.56,0,0,1,.91-2,3.63,3.63,0,0,1,2.54-.83,4.71,4.71,0,0,1,2.54.62,2.66,2.66,0,0,1,1.12,2.14h-2.16a1.36,1.36,0,0,0-.24-.66,1.51,1.51,0,0,0-1.22-.44,1.77,1.77,0,0,0-1,.22.64.64,0,0,0-.3.52.57.57,0,0,0,.32.54,13.36,13.36,0,0,0,2.27.6,4.14,4.14,0,0,1,1.94.92,2.09,2.09,0,0,1,.64,1.56,2.5,2.5,0,0,1-.92,2,4.32,4.32,0,0,1-2.84.78,4.26,4.26,0,0,1-2.89-.83,2.66,2.66,0,0,1-.94-2.1Z"/>
    <path d="M721.22,796.61a3.62,3.62,0,0,0,.86-.19.65.65,0,0,0,.47-.62.72.72,0,0,0-.36-.7,2.22,2.22,0,0,0-1.05-.2,1.38,1.38,0,0,0-1.1.38,1.55,1.55,0,0,0-.31.76h-2.1a3.12,3.12,0,0,1,.62-1.78,3.52,3.52,0,0,1,3-1.1,5.27,5.27,0,0,1,2.43.54,2.07,2.07,0,0,1,1.07,2v3.81c0,.26,0,.58,0,1a1.24,1.24,0,0,0,.13.57.77.77,0,0,0,.32.26v.32h-2.36a2.54,2.54,0,0,1-.14-.48c0-.14,0-.31-.06-.5a4.42,4.42,0,0,1-1,.83,3.13,3.13,0,0,1-1.59.4,2.72,2.72,0,0,1-1.87-.64,2.27,2.27,0,0,1-.74-1.82,2.36,2.36,0,0,1,1.19-2.22,5.31,5.31,0,0,1,1.91-.53Zm1.32,1a1.65,1.65,0,0,1-.42.21,4.27,4.27,0,0,1-.58.15l-.49.09a3.06,3.06,0,0,0-1,.3,1,1,0,0,0-.51.92,1,1,0,0,0,.31.8,1.16,1.16,0,0,0,.76.25,2.28,2.28,0,0,0,1.31-.41,1.74,1.74,0,0,0,.62-1.5Z"/>
    <path d="M737,793.39a2.39,2.39,0,0,1,1,.75,2.24,2.24,0,0,1,.47,1.06,6.45,6.45,0,0,1,.08,1.23v5.23h-2.23v-5.29a1.73,1.73,0,0,0-.15-.77A1.08,1.08,0,0,0,735,795a1.26,1.26,0,0,0-1.24.74,2.53,2.53,0,0,0-.17,1v4.94h-2.19v-4.94a2.85,2.85,0,0,0-.15-1.08,1.06,1.06,0,0,0-1.07-.6,1.28,1.28,0,0,0-1.25.6,2.27,2.27,0,0,0-.18,1v5h-2.2v-8.29h2.11v1.21a3.85,3.85,0,0,1,.76-.92,3.07,3.07,0,0,1,3.18-.07,2.5,2.5,0,0,1,.71,1,2.79,2.79,0,0,1,1.06-1.07,3.24,3.24,0,0,1,1.5-.34A3,3,0,0,1,737,793.39Z"/>
    <path d="M739.61,795v-1.54h1.16v-2.32h2.15v2.32h1.34V795h-1.34v4.39c0,.34,0,.55.13.63a1.43,1.43,0,0,0,.79.13h.42v1.62l-1,0a2.77,2.77,0,0,1-2.11-.53,1.6,1.6,0,0,1-.36-1.15V795Z"/>
    <path d="M747.89,792.37h-2.2v-2h2.2Zm-2.2,1h2.2v8.3h-2.2Z"/>
    <path d="M754.39,793.49a2.62,2.62,0,0,1,1,.92v-4h2.2v11.21h-2.11v-1.15a3,3,0,0,1-1.06,1.07,3,3,0,0,1-1.47.34,3.1,3.1,0,0,1-2.45-1.18,4.52,4.52,0,0,1-1-3,5.21,5.21,0,0,1,1-3.34,3.21,3.21,0,0,1,2.62-1.22A2.69,2.69,0,0,1,754.39,793.49Zm.53,5.91a3,3,0,0,0,.48-1.77,2.71,2.71,0,0,0-.77-2.18,1.66,1.66,0,0,0-1.09-.39,1.53,1.53,0,0,0-1.4.72,3.29,3.29,0,0,0-.45,1.78,3.24,3.24,0,0,0,.46,1.84,1.53,1.53,0,0,0,1.37.69A1.6,1.6,0,0,0,754.92,799.4Z"/>
    <path d="M761.74,792.37h-2.2v-2h2.2Zm-2.2,1h2.2v8.3h-2.2Z"/>
    <path d="M768,793.35a2.62,2.62,0,0,1,1.28,1.21v-1.2h2.11v7.87a4.4,4.4,0,0,1-.54,2.42c-.62.94-1.8,1.4-3.56,1.4a4.84,4.84,0,0,1-2.6-.62,2.31,2.31,0,0,1-1.11-1.87h2.36a.94.94,0,0,0,.3.55,1.82,1.82,0,0,0,1.18.3,1.6,1.6,0,0,0,1.57-.78,4,4,0,0,0,.26-1.69v-.54a2.78,2.78,0,0,1-.67.8,2.74,2.74,0,0,1-1.69.5,3.19,3.19,0,0,1-2.55-1.13,4.5,4.5,0,0,1-1-3,5.16,5.16,0,0,1,.92-3.11,3.06,3.06,0,0,1,2.61-1.26A3,3,0,0,1,768,793.35Zm.74,5.95a2.65,2.65,0,0,0,.52-1.83,2.75,2.75,0,0,0-.5-1.79,1.59,1.59,0,0,0-1.33-.62,1.56,1.56,0,0,0-1.56,1.07,3.65,3.65,0,0,0-.23,1.41,3.3,3.3,0,0,0,.24,1.29,1.58,1.58,0,0,0,1.58,1A1.66,1.66,0,0,0,768.69,799.3Z"/>
    <path d="M788.05,793.39a2.35,2.35,0,0,1,1,.75,2.38,2.38,0,0,1,.47,1.07,7.19,7.19,0,0,1,.08,1.22l0,5.23h-2.22v-5.28a1.75,1.75,0,0,0-.15-.78,1.09,1.09,0,0,0-1.07-.58,1.25,1.25,0,0,0-1.24.75,2.27,2.27,0,0,0-.17,1v4.94h-2.19v-4.94a2.79,2.79,0,0,0-.15-1.07,1.07,1.07,0,0,0-1.07-.61,1.27,1.27,0,0,0-1.25.61,2.21,2.21,0,0,0-.18,1v5h-2.2v-8.28h2.11v1.21a3.45,3.45,0,0,1,.76-.92,3,3,0,0,1,3.18-.07,2.44,2.44,0,0,1,.71,1,2.82,2.82,0,0,1,1.06-1.08,3.2,3.2,0,0,1,1.49-.34A2.88,2.88,0,0,1,788.05,793.39Z"/>
    <path d="M791.59,793.36h2.2v8.3h-2.2Zm2.2-1h-2.2v-2h2.2Z"/>
    <path d="M802.59,793.84a2.75,2.75,0,0,1,.81,2.23v5.59h-2.22v-5a2.23,2.23,0,0,0-.18-1,1.21,1.21,0,0,0-1.21-.64,1.49,1.49,0,0,0-1.5.94,3.25,3.25,0,0,0-.21,1.26v4.49h-2.17v-8.28H798v1.21a3.64,3.64,0,0,1,.79-.92,2.69,2.69,0,0,1,1.69-.5A3.21,3.21,0,0,1,802.59,793.84Z"/>
    <path d="M810.83,793.53a3.44,3.44,0,0,1,1.43,1.23,4,4,0,0,1,.66,1.72,10.47,10.47,0,0,1,.07,1.64h-6a2,2,0,0,0,.87,1.75,2.18,2.18,0,0,0,1.19.31,1.81,1.81,0,0,0,1.21-.38,1.79,1.79,0,0,0,.44-.57h2.22a2.67,2.67,0,0,1-.81,1.5,4,4,0,0,1-3.12,1.21,4.52,4.52,0,0,1-2.92-1,4,4,0,0,1-1.27-3.32,4.47,4.47,0,0,1,1.15-3.31,4,4,0,0,1,3-1.15A4.73,4.73,0,0,1,810.83,793.53Zm-3.25,1.88a2.21,2.21,0,0,0-.58,1.28h3.74a1.79,1.79,0,0,0-.58-1.31,1.87,1.87,0,0,0-1.28-.45A1.72,1.72,0,0,0,807.58,795.41Z"/>
    <path d="M823.53,793.36h2.33l-3,8.29h-2.29l-3-8.3H820l1.73,6.13Z"/>
    <path d="M832.5,793.53a3.32,3.32,0,0,1,1.43,1.23,4.07,4.07,0,0,1,.66,1.72,10.24,10.24,0,0,1,.08,1.64h-6a2,2,0,0,0,.87,1.75,2.19,2.19,0,0,0,1.2.32,1.85,1.85,0,0,0,1.2-.38,1.83,1.83,0,0,0,.45-.58h2.21a2.65,2.65,0,0,1-.8,1.5,4,4,0,0,1-3.12,1.21,4.55,4.55,0,0,1-2.93-1,4,4,0,0,1-1.26-3.32,4.51,4.51,0,0,1,1.14-3.31,4,4,0,0,1,3-1.15A4.88,4.88,0,0,1,832.5,793.53Zm-3.25,1.88a2.2,2.2,0,0,0-.57,1.28h3.73a1.84,1.84,0,0,0-.57-1.31,1.91,1.91,0,0,0-1.29-.45A1.72,1.72,0,0,0,829.25,795.41Z"/>
    <path d="M842.45,793.84a2.74,2.74,0,0,1,.82,2.24v5.58h-2.22v-5a2.28,2.28,0,0,0-.18-1,1.23,1.23,0,0,0-1.21-.64,1.49,1.49,0,0,0-1.5.94,3.25,3.25,0,0,0-.21,1.26v4.49h-2.17v-8.28h2.1v1.21a3.83,3.83,0,0,1,.79-.92,2.76,2.76,0,0,1,1.69-.5A3.16,3.16,0,0,1,842.45,793.84Z"/>
    <path d="M852,793.84a2.77,2.77,0,0,1,.81,2.24v5.59h-2.22v-5a2.45,2.45,0,0,0-.17-1,1.24,1.24,0,0,0-1.21-.64,1.52,1.52,0,0,0-1.51.94,3.25,3.25,0,0,0-.21,1.26v4.49H845.3v-8.28h2.1v1.21a3.83,3.83,0,0,1,.79-.92,2.78,2.78,0,0,1,1.69-.5A3.19,3.19,0,0,1,852,793.84Z"/>
    <path d="M860.22,793.54a3.29,3.29,0,0,1,1.43,1.22,4.12,4.12,0,0,1,.66,1.72,10.54,10.54,0,0,1,.07,1.65h-6a2,2,0,0,0,.87,1.75,2.27,2.27,0,0,0,1.19.31,1.86,1.86,0,0,0,1.21-.38,1.73,1.73,0,0,0,.44-.57h2.22a2.78,2.78,0,0,1-.8,1.5,4.08,4.08,0,0,1-3.13,1.21,4.54,4.54,0,0,1-2.92-1,4,4,0,0,1-1.26-3.33,4.48,4.48,0,0,1,1.14-3.3,4,4,0,0,1,3-1.15A4.72,4.72,0,0,1,860.22,793.54ZM857,795.41a2.31,2.31,0,0,0-.58,1.28h3.74a1.81,1.81,0,0,0-.58-1.31,1.86,1.86,0,0,0-1.28-.44A1.72,1.72,0,0,0,857,795.41Z"/>
    <path d="M868.09,793.17l.19,0v2.22l-.37,0h-.26a1.8,1.8,0,0,0-1.76.85,3.43,3.43,0,0,0-.25,1.48v4h-2.18v-8.3h2.07v1.44a4.65,4.65,0,0,1,.87-1.13,2.41,2.41,0,0,1,1.59-.51Z"/>
    <path d="M870.25,790.48h2.38v2.85l-.61,5.23h-1.14l-.63-5.23Zm0,9h2.28v2.2H870.3Z"/>
  </g>
  <g>
    <path d="M607.93,820a3.73,3.73,0,0,1,1.92,1.42,5.23,5.23,0,0,1,.8,1.81,8.84,8.84,0,0,1,.21,1.86,7.43,7.43,0,0,1-.9,3.79,4.05,4.05,0,0,1-3.76,2.1h-4.84V819.75h4.84A6,6,0,0,1,607.93,820Zm-4.29,1.7V829h2.17a2.35,2.35,0,0,0,2.32-1.64,5.74,5.74,0,0,0,.36-2.14,5.24,5.24,0,0,0-.54-2.63,2.28,2.28,0,0,0-2.14-.92Z"/>
    <path d="M617.85,822.84a3.32,3.32,0,0,1,1.43,1.23,4.17,4.17,0,0,1,.67,1.71,12,12,0,0,1,.07,1.65h-6a2,2,0,0,0,.87,1.75,2.19,2.19,0,0,0,1.2.31,1.85,1.85,0,0,0,1.2-.38,1.89,1.89,0,0,0,.45-.57h2.21a2.71,2.71,0,0,1-.8,1.5,4,4,0,0,1-3.12,1.21,4.55,4.55,0,0,1-2.93-1,4,4,0,0,1-1.26-3.32,4.51,4.51,0,0,1,1.14-3.31,4,4,0,0,1,3-1.15A4.72,4.72,0,0,1,617.85,822.84Zm-3.25,1.87A2.33,2.33,0,0,0,614,826h3.73a1.8,1.8,0,0,0-.57-1.31,1.91,1.91,0,0,0-1.29-.45A1.75,1.75,0,0,0,614.6,824.71Z"/>
    <path d="M620.26,824.29v-1.54h1.16v-2.32h2.14v2.32h1.35v1.54h-1.35v4.39a1,1,0,0,0,.13.63c.09.09.35.13.8.13h.42V831l-1,0a2.75,2.75,0,0,1-2.1-.53,1.6,1.6,0,0,1-.36-1.15v-5.11Z"/>
    <path d="M636,822.84a3.41,3.41,0,0,1,1.44,1.23,4,4,0,0,1,.66,1.71,10.54,10.54,0,0,1,.07,1.65h-6a2,2,0,0,0,.86,1.75,2.21,2.21,0,0,0,1.2.31,1.85,1.85,0,0,0,1.2-.38,1.89,1.89,0,0,0,.45-.57h2.22a2.73,2.73,0,0,1-.81,1.5,4,4,0,0,1-3.12,1.21,4.52,4.52,0,0,1-2.92-1,4,4,0,0,1-1.27-3.32,4.51,4.51,0,0,1,1.14-3.31,4,4,0,0,1,3-1.15A4.72,4.72,0,0,1,636,822.84Zm-3.24,1.87a2.27,2.27,0,0,0-.58,1.29H636a1.77,1.77,0,0,0-.58-1.31,1.91,1.91,0,0,0-1.29-.45A1.73,1.73,0,0,0,632.8,824.71Z"/>
    <path d="M646,823.15a2.75,2.75,0,0,1,.81,2.23V831h-2.22v-5.05a2.4,2.4,0,0,0-.17-1,1.23,1.23,0,0,0-1.21-.64,1.51,1.51,0,0,0-1.51.93,3.27,3.27,0,0,0-.21,1.27V831h-2.17v-8.28h2.1v1.21a3.47,3.47,0,0,1,.79-.92,2.72,2.72,0,0,1,1.69-.51A3.17,3.17,0,0,1,646,823.15Z"/>
    <path d="M654.24,822.84a3.38,3.38,0,0,1,1.43,1.23,4,4,0,0,1,.66,1.71,10.54,10.54,0,0,1,.07,1.65h-6a2,2,0,0,0,.87,1.75,2.18,2.18,0,0,0,1.19.31,1.81,1.81,0,0,0,1.21-.38,1.55,1.55,0,0,0,.44-.57h2.22a2.73,2.73,0,0,1-.81,1.5,4,4,0,0,1-3.12,1.21,4.54,4.54,0,0,1-2.92-1,4,4,0,0,1-1.26-3.32,4.51,4.51,0,0,1,1.14-3.31,4,4,0,0,1,3-1.15A4.72,4.72,0,0,1,654.24,822.84ZM651,824.71a2.27,2.27,0,0,0-.58,1.29h3.74a1.79,1.79,0,0,0-.58-1.31,1.87,1.87,0,0,0-1.28-.45A1.75,1.75,0,0,0,651,824.71Z"/>
    <path d="M659.18,828.32a1.47,1.47,0,0,0,.3.82,2,2,0,0,0,1.5.44,2.38,2.38,0,0,0,1-.19.62.62,0,0,0,.38-.57.61.61,0,0,0-.31-.56,12.5,12.5,0,0,0-2.27-.66,4.71,4.71,0,0,1-2-.87,1.92,1.92,0,0,1-.58-1.49,2.6,2.6,0,0,1,.91-2,3.63,3.63,0,0,1,2.54-.82,4.64,4.64,0,0,1,2.54.62,2.64,2.64,0,0,1,1.12,2.14h-2.17a1.32,1.32,0,0,0-.23-.66,1.48,1.48,0,0,0-1.22-.44,1.72,1.72,0,0,0-1,.22.61.61,0,0,0-.31.51.57.57,0,0,0,.32.54A14,14,0,0,0,662,826a4.14,4.14,0,0,1,1.94.92,2.06,2.06,0,0,1,.64,1.56,2.49,2.49,0,0,1-.92,2,4.32,4.32,0,0,1-2.84.78,4.26,4.26,0,0,1-2.89-.82,2.68,2.68,0,0,1-.94-2.11Z"/>
    <path d="M665.32,824.29v-1.54h1.15v-2.32h2.14v2.31H670v1.54h-1.35v4.39c0,.34,0,.55.13.63s.35.13.79.13H670v1.62l-1,0a2.74,2.74,0,0,1-2.1-.53,1.6,1.6,0,0,1-.37-1.15v-5.11Z"/>
    <path d="M676.77,822.84a3.32,3.32,0,0,1,1.43,1.23,4,4,0,0,1,.66,1.71,10.37,10.37,0,0,1,.08,1.65h-6.05a2,2,0,0,0,.87,1.75,2.19,2.19,0,0,0,1.2.31,1.8,1.8,0,0,0,1.2-.38,1.67,1.67,0,0,0,.45-.57h2.21a2.65,2.65,0,0,1-.8,1.5,4,4,0,0,1-3.12,1.21,4.55,4.55,0,0,1-2.93-1,4,4,0,0,1-1.26-3.32,4.51,4.51,0,0,1,1.14-3.31,4,4,0,0,1,3-1.15A4.72,4.72,0,0,1,676.77,822.84Zm-3.25,1.88A2.2,2.2,0,0,0,673,826h3.73a1.82,1.82,0,0,0-.57-1.31,1.91,1.91,0,0,0-1.29-.45A1.72,1.72,0,0,0,673.52,824.72Z"/>
    <path d="M688.76,822.81a2.54,2.54,0,0,1,1,.92v-4h2.2V831h-2.11v-1.15a3.22,3.22,0,0,1-1.06,1.08,3,3,0,0,1-1.48.33,3.08,3.08,0,0,1-2.45-1.18,4.51,4.51,0,0,1-1-3,5.24,5.24,0,0,1,1-3.35,3.17,3.17,0,0,1,2.61-1.21A2.66,2.66,0,0,1,688.76,822.81Zm.54,5.91a3,3,0,0,0,.48-1.77,2.72,2.72,0,0,0-.77-2.18,1.64,1.64,0,0,0-1.1-.4,1.54,1.54,0,0,0-1.4.72,3.42,3.42,0,0,0-.44,1.79,3.28,3.28,0,0,0,.45,1.83,1.53,1.53,0,0,0,1.38.69A1.59,1.59,0,0,0,689.3,828.72Z"/>
    <path d="M696.05,822.68v5a2.65,2.65,0,0,0,.16,1.06,1.16,1.16,0,0,0,1.16.63,1.52,1.52,0,0,0,1.52-.89,3.34,3.34,0,0,0,.21-1.29v-4.51h2.2V831h-2.11V829.8L699,830a1.32,1.32,0,0,1-.29.33,2.89,2.89,0,0,1-1,.63,3.41,3.41,0,0,1-1.11.17,2.49,2.49,0,0,1-2.48-1.33,5,5,0,0,1-.35-2.15v-5Z"/>
    <path d="M709.42,828.32a1.54,1.54,0,0,0,.3.83,2,2,0,0,0,1.5.43,2.24,2.24,0,0,0,1-.19.62.62,0,0,0,.38-.57.63.63,0,0,0-.3-.56,13.57,13.57,0,0,0-2.27-.65,4.69,4.69,0,0,1-2-.88,1.91,1.91,0,0,1-.58-1.49,2.58,2.58,0,0,1,.91-2,3.63,3.63,0,0,1,2.54-.83,4.71,4.71,0,0,1,2.54.62,2.64,2.64,0,0,1,1.12,2.14h-2.16a1.32,1.32,0,0,0-.24-.66,1.51,1.51,0,0,0-1.22-.44,1.72,1.72,0,0,0-1,.22.65.65,0,0,0-.31.52.57.57,0,0,0,.32.54,13.36,13.36,0,0,0,2.27.6,4.14,4.14,0,0,1,1.94.92,2.09,2.09,0,0,1,.64,1.56,2.51,2.51,0,0,1-.92,2,5.5,5.5,0,0,1-5.73-.05,2.7,2.7,0,0,1-.94-2.11Z"/>
    <path d="M716.39,819.79h2.13v6.05l2.74-3.13H724l-3,3.09,3.09,5.16h-2.64l-2-3.54-.9.93V831h-2.13Z"/>
    <path d="M728.37,825.93a3.86,3.86,0,0,0,.87-.19.65.65,0,0,0,.46-.62.72.72,0,0,0-.36-.7,2.22,2.22,0,0,0-1.05-.2,1.38,1.38,0,0,0-1.1.38,1.51,1.51,0,0,0-.31.76h-2.09a3.11,3.11,0,0,1,.61-1.78,3.52,3.52,0,0,1,3-1.1,5.24,5.24,0,0,1,2.43.54,2.07,2.07,0,0,1,1.07,2v3.81c0,.26,0,.58,0,1a1.24,1.24,0,0,0,.13.57.77.77,0,0,0,.32.26V831H730a2.54,2.54,0,0,1-.14-.48c0-.14,0-.31-.06-.5a4.23,4.23,0,0,1-1,.83,3.13,3.13,0,0,1-1.59.4,2.72,2.72,0,0,1-1.87-.64,2.27,2.27,0,0,1-.74-1.82,2.38,2.38,0,0,1,1.19-2.22,5.31,5.31,0,0,1,1.91-.53Zm1.33,1a1.9,1.9,0,0,1-.43.21,4.27,4.27,0,0,1-.58.15l-.49.09a3.14,3.14,0,0,0-1,.3,1,1,0,0,0-.51.92,1,1,0,0,0,.31.8,1.16,1.16,0,0,0,.76.25,2.28,2.28,0,0,0,1.31-.41,1.77,1.77,0,0,0,.63-1.5Z"/>
    <path d="M736,831H733.8V819.75H736Z"/>
    <path d="M746.52,822.67a2.64,2.64,0,0,1,1.28,1.2v-1.19h2.11v7.87a4.4,4.4,0,0,1-.54,2.42c-.62.93-1.8,1.4-3.56,1.4a4.93,4.93,0,0,1-2.6-.62,2.31,2.31,0,0,1-1.11-1.87h2.36a.94.94,0,0,0,.3.55,1.82,1.82,0,0,0,1.18.3,1.59,1.59,0,0,0,1.57-.79,4,4,0,0,0,.26-1.69v-.53a2.78,2.78,0,0,1-.67.8,2.71,2.71,0,0,1-1.69.49,3.18,3.18,0,0,1-2.55-1.12,4.52,4.52,0,0,1-1-3,5.09,5.09,0,0,1,.92-3.11,3,3,0,0,1,2.6-1.26A2.8,2.8,0,0,1,746.52,822.67Zm.74,6a2.65,2.65,0,0,0,.52-1.83,2.82,2.82,0,0,0-.49-1.8,1.64,1.64,0,0,0-1.33-.61,1.55,1.55,0,0,0-1.57,1.07,3.65,3.65,0,0,0-.23,1.41,3.21,3.21,0,0,0,.24,1.28,1.58,1.58,0,0,0,1.58,1.05A1.68,1.68,0,0,0,747.26,828.62Z"/>
    <path d="M758.75,830a4.09,4.09,0,0,1-3.17,1.25,4.4,4.4,0,0,1-1.79-.34,4.18,4.18,0,0,1-.95-.58l-1,1.08-.56-.47,1.08-1.1a4,4,0,0,1-.71-1.53,6.42,6.42,0,0,1-.19-1.5,4.63,4.63,0,0,1,1.11-3.17,3.74,3.74,0,0,1,3-1.27,5.27,5.27,0,0,1,1.75.24,3.92,3.92,0,0,1,1.24.7l1-1.1.54.51L759,823.89a4.37,4.37,0,0,1,.7,1.42,5.84,5.84,0,0,1,.2,1.47A4.63,4.63,0,0,1,758.75,830Zm-2.47-5.7a2.41,2.41,0,0,0-.64-.09,1.67,1.67,0,0,0-1.43.68,3,3,0,0,0-.53,1.86,6.3,6.3,0,0,0,.05.75,2.19,2.19,0,0,0,.19.64l3.17-3.34A1.5,1.5,0,0,0,756.28,824.34Zm-1.44,4.94a1.93,1.93,0,0,0,.89.18,1.6,1.6,0,0,0,1.42-.73,3.28,3.28,0,0,0,.48-1.85,5.22,5.22,0,0,0,0-.62c0-.16-.07-.41-.14-.74l-3.15,3.33A2.68,2.68,0,0,0,754.84,829.28Z"/>
    <path d="M766.07,822.49h.19v2.22l-.37,0h-.26a1.79,1.79,0,0,0-1.75.85,3.29,3.29,0,0,0-.26,1.48v4h-2.18v-8.3h2.07v1.45a4.55,4.55,0,0,1,.87-1.14,2.41,2.41,0,0,1,1.59-.51Z"/>
    <path d="M772.94,822.85a3.44,3.44,0,0,1,1.43,1.23,4,4,0,0,1,.66,1.71,10.54,10.54,0,0,1,.07,1.65h-6a2,2,0,0,0,.87,1.75,2.18,2.18,0,0,0,1.19.31,1.86,1.86,0,0,0,1.21-.38,2,2,0,0,0,.44-.57H775a2.73,2.73,0,0,1-.81,1.5,4,4,0,0,1-3.12,1.21,4.52,4.52,0,0,1-2.92-1,4,4,0,0,1-1.27-3.32,4.47,4.47,0,0,1,1.15-3.31,4,4,0,0,1,3-1.15A4.73,4.73,0,0,1,772.94,822.85Zm-3.25,1.87a2.27,2.27,0,0,0-.58,1.29h3.74a1.77,1.77,0,0,0-.58-1.31,1.88,1.88,0,0,0-1.29-.45A1.75,1.75,0,0,0,769.69,824.72Z"/>
    <path d="M776.08,832.78a1.69,1.69,0,0,0,1-.61,2.27,2.27,0,0,0,.35-1.19h-1.32V828.7h2.35v2a4.57,4.57,0,0,1-.14,1.08,2.2,2.2,0,0,1-.51,1,3,3,0,0,1-1.7.89Z"/>
    <path d="M790.27,822.85a3.32,3.32,0,0,1,1.43,1.23,4,4,0,0,1,.66,1.71,10.3,10.3,0,0,1,.08,1.65h-6.05a2,2,0,0,0,.87,1.75,2.19,2.19,0,0,0,1.2.31,1.8,1.8,0,0,0,1.2-.38,1.89,1.89,0,0,0,.45-.57h2.21a2.78,2.78,0,0,1-.8,1.5,4,4,0,0,1-3.13,1.21,4.54,4.54,0,0,1-2.92-1,4,4,0,0,1-1.26-3.32,4.51,4.51,0,0,1,1.14-3.31,4,4,0,0,1,3-1.15A4.72,4.72,0,0,1,790.27,822.85ZM787,824.72a2.26,2.26,0,0,0-.57,1.29h3.73a1.79,1.79,0,0,0-.58-1.31,1.87,1.87,0,0,0-1.28-.45A1.75,1.75,0,0,0,787,824.72Z"/>
    <path d="M798.14,822.49h.19v2.22l-.37,0h-.26a1.78,1.78,0,0,0-1.75.86,3.25,3.25,0,0,0-.26,1.47v4h-2.18v-8.3h2.07v1.45a4.68,4.68,0,0,1,.88-1.14,2.36,2.36,0,0,1,1.58-.51Z"/>
    <path d="M807.22,825.93a3.18,3.18,0,0,0,.86-.19.65.65,0,0,0,.47-.61.74.74,0,0,0-.36-.71,2.26,2.26,0,0,0-1.05-.19,1.35,1.35,0,0,0-1.1.38,1.51,1.51,0,0,0-.31.76h-2.1a3.15,3.15,0,0,1,.62-1.79,3.52,3.52,0,0,1,3-1.09,5.3,5.3,0,0,1,2.43.54,2.07,2.07,0,0,1,1.07,2v3.8c0,.27,0,.59,0,1a1.26,1.26,0,0,0,.13.58.83.83,0,0,0,.32.25V831h-2.36a2.46,2.46,0,0,1-.14-.47c0-.15,0-.32-.06-.5a4.69,4.69,0,0,1-1,.83,3.23,3.23,0,0,1-1.59.4,2.77,2.77,0,0,1-1.87-.64,2.28,2.28,0,0,1-.74-1.83,2.34,2.34,0,0,1,1.19-2.21,5.28,5.28,0,0,1,1.91-.54Zm1.32,1-.42.21a3.29,3.29,0,0,1-.58.14l-.49.1a3.1,3.1,0,0,0-1,.29,1,1,0,0,0-.51.92,1,1,0,0,0,.31.81,1.21,1.21,0,0,0,.76.24,2.23,2.23,0,0,0,1.31-.41,1.71,1.71,0,0,0,.62-1.5Z"/>
    <path d="M811.75,824.3v-1.54h1.16v-2.32h2.14v2.31h1.35v1.55h-1.35v4.38a1,1,0,0,0,.13.64,1.49,1.49,0,0,0,.79.12h.43v1.62l-1,0a2.79,2.79,0,0,1-2.1-.54,1.6,1.6,0,0,1-.37-1.15V824.3Z"/>
    <path d="M628,847a1.5,1.5,0,0,0,.3.82,2,2,0,0,0,1.5.43,2.24,2.24,0,0,0,1-.19.63.63,0,0,0,.08-1.12,12.48,12.48,0,0,0-2.27-.66,4.7,4.7,0,0,1-2-.87,1.94,1.94,0,0,1-.58-1.5,2.6,2.6,0,0,1,.91-2,3.63,3.63,0,0,1,2.54-.83,4.71,4.71,0,0,1,2.54.62,2.66,2.66,0,0,1,1.12,2.15H631a1.4,1.4,0,0,0-.24-.67,1.51,1.51,0,0,0-1.22-.44,1.86,1.86,0,0,0-1,.22.64.64,0,0,0-.3.52.57.57,0,0,0,.32.54,13.36,13.36,0,0,0,2.27.6,4.23,4.23,0,0,1,1.94.92,2.09,2.09,0,0,1,.64,1.56,2.5,2.5,0,0,1-.92,2,5.5,5.5,0,0,1-5.73,0,2.66,2.66,0,0,1-.94-2.1Z"/>
    <path d="M638.24,844.63a3.18,3.18,0,0,0,.86-.19.65.65,0,0,0,.47-.62.72.72,0,0,0-.36-.7,2.25,2.25,0,0,0-1.05-.2,1.38,1.38,0,0,0-1.1.38,1.55,1.55,0,0,0-.31.77h-2.1a3.12,3.12,0,0,1,.62-1.79,3.55,3.55,0,0,1,3-1.1,5.27,5.27,0,0,1,2.43.54,2.07,2.07,0,0,1,1.07,2v3.81c0,.26,0,.58,0,1a1.33,1.33,0,0,0,.13.58.83.83,0,0,0,.32.25v.32h-2.36a2.54,2.54,0,0,1-.14-.48c0-.14,0-.31-.06-.5a4.42,4.42,0,0,1-1,.83,3.14,3.14,0,0,1-1.59.41,2.73,2.73,0,0,1-1.87-.65,2.26,2.26,0,0,1-.74-1.82,2.36,2.36,0,0,1,1.19-2.22,5.31,5.31,0,0,1,1.91-.53Zm1.32,1a1.83,1.83,0,0,1-.42.21,4.27,4.27,0,0,1-.58.15l-.49.09a3.06,3.06,0,0,0-1,.3,1,1,0,0,0-.51.92,1,1,0,0,0,.31.8,1.16,1.16,0,0,0,.76.25,2.28,2.28,0,0,0,1.31-.41,1.74,1.74,0,0,0,.62-1.5Z"/>
    <path d="M654,841.41a2.35,2.35,0,0,1,1,.75,2.39,2.39,0,0,1,.47,1.06,7.41,7.41,0,0,1,.08,1.23l0,5.23h-2.22V844.4a1.75,1.75,0,0,0-.15-.78A1.08,1.08,0,0,0,652,843a1.25,1.25,0,0,0-1.24.75,2.44,2.44,0,0,0-.17,1v4.94h-2.19v-4.94a2.85,2.85,0,0,0-.15-1.08,1.06,1.06,0,0,0-1.07-.6,1.28,1.28,0,0,0-1.25.6,2.27,2.27,0,0,0-.18,1v5h-2.2v-8.29h2.11v1.21a3.62,3.62,0,0,1,.76-.92,2.66,2.66,0,0,1,1.64-.48,2.6,2.6,0,0,1,1.54.42,2.4,2.4,0,0,1,.71,1,2.86,2.86,0,0,1,1.06-1.07,3.23,3.23,0,0,1,1.49-.34A2.88,2.88,0,0,1,654,841.41Z"/>
    <path d="M659.7,849.68h-2.17V838.46h2.17Z"/>
    <path d="M667.22,841.55a3.41,3.41,0,0,1,1.44,1.23,4,4,0,0,1,.66,1.71,10.54,10.54,0,0,1,.07,1.65h-6a2,2,0,0,0,.87,1.75,2.19,2.19,0,0,0,1.2.31,1.85,1.85,0,0,0,1.2-.38,1.89,1.89,0,0,0,.45-.57h2.22a2.73,2.73,0,0,1-.81,1.5,4,4,0,0,1-3.12,1.21,4.5,4.5,0,0,1-2.92-1,4,4,0,0,1-1.27-3.32,4.51,4.51,0,0,1,1.14-3.31,4,4,0,0,1,3-1.15A4.72,4.72,0,0,1,667.22,841.55ZM664,843.42a2.27,2.27,0,0,0-.58,1.29h3.74a1.81,1.81,0,0,0-.58-1.31,1.91,1.91,0,0,0-1.29-.45A1.71,1.71,0,0,0,664,843.42Z"/>
    <path d="M676.38,846.73a2.08,2.08,0,0,0,.49,1.09,1.41,1.41,0,0,0,1.06.38,1.45,1.45,0,0,0,1.23-.56,2.35,2.35,0,0,0,.42-1.43,2.51,2.51,0,0,0-.39-1.43,1.39,1.39,0,0,0-1.23-.58,2,2,0,0,0-.69.1,1.35,1.35,0,0,0-.76.67l-2-.09.78-6.09h6.07v1.84H676.9l-.39,2.41a4,4,0,0,1,.78-.43,3.23,3.23,0,0,1,1.15-.18,3.33,3.33,0,0,1,3.4,3.6,4.21,4.21,0,0,1-1,2.74,3.56,3.56,0,0,1-2.93,1.2,3.87,3.87,0,0,1-2.59-.85,3.3,3.3,0,0,1-1.13-2.39Z"/>
    <path d="M689.5,847a1.47,1.47,0,0,0,.3.82,2,2,0,0,0,1.5.44,2.38,2.38,0,0,0,1-.19.62.62,0,0,0,.38-.57.61.61,0,0,0-.31-.56,12.29,12.29,0,0,0-2.27-.65,4.83,4.83,0,0,1-2-.88,1.89,1.89,0,0,1-.58-1.49,2.57,2.57,0,0,1,.91-2,3.63,3.63,0,0,1,2.54-.82,4.64,4.64,0,0,1,2.54.62,2.67,2.67,0,0,1,1.12,2.14h-2.17a1.32,1.32,0,0,0-.23-.66,1.49,1.49,0,0,0-1.23-.44,1.74,1.74,0,0,0-1,.22.62.62,0,0,0-.3.51.57.57,0,0,0,.32.54,14,14,0,0,0,2.27.61,4.14,4.14,0,0,1,1.94.92,2.06,2.06,0,0,1,.64,1.56,2.52,2.52,0,0,1-.92,2,5.55,5.55,0,0,1-5.74,0,2.72,2.72,0,0,1-.93-2.11Z"/>
    <path d="M695.64,843v-1.54h1.15v-2.31h2.15v2.31h1.35V843h-1.35v4.39c0,.34,0,.55.13.63s.35.13.79.13h.43v1.62l-1,0a2.73,2.73,0,0,1-2.1-.53,1.6,1.6,0,0,1-.37-1.15V843Z"/>
    <path d="M702,851.27l.27,0a3,3,0,0,0,.61,0,1.06,1.06,0,0,0,.49-.17,1.28,1.28,0,0,0,.35-.54,1.21,1.21,0,0,0,.14-.5l-3-8.67h2.42l1.81,6.12,1.71-6.12h2.31l-2.85,8.16a11.49,11.49,0,0,1-1.3,2.93A2.47,2.47,0,0,1,703,853h-.47l-.52,0Z"/>
    <path d="M710.33,838.5h2.13v6l2.74-3.13h2.69l-3,3.09,3.09,5.17h-2.64l-2-3.54-.9.93v2.61h-2.13Z"/>
    <path d="M719,838.5h2.13v6l2.74-3.13h2.69l-3,3.09,3.09,5.17H724l-2-3.54-.9.93v2.61H719Z"/>
    <path d="M733.1,841.55a3.32,3.32,0,0,1,1.43,1.23,4.07,4.07,0,0,1,.66,1.72,10.24,10.24,0,0,1,.08,1.64h-6a2,2,0,0,0,.87,1.75,2.19,2.19,0,0,0,1.2.32,1.85,1.85,0,0,0,1.2-.38,1.83,1.83,0,0,0,.45-.58h2.21a2.65,2.65,0,0,1-.8,1.5,4,4,0,0,1-3.13,1.21,4.54,4.54,0,0,1-2.92-1,4,4,0,0,1-1.26-3.32,4.51,4.51,0,0,1,1.14-3.31,4,4,0,0,1,3-1.14A4.71,4.71,0,0,1,733.1,841.55Zm-3.25,1.88a2.2,2.2,0,0,0-.57,1.28H733a1.81,1.81,0,0,0-.58-1.31,1.87,1.87,0,0,0-1.28-.45A1.72,1.72,0,0,0,729.85,843.43Z"/>
    <path d="M741,841.19h.19v2.23l-.37,0h-.26a1.78,1.78,0,0,0-1.75.85,3.26,3.26,0,0,0-.26,1.48v4h-2.18v-8.29h2.07v1.44a4.63,4.63,0,0,1,.88-1.13,2.36,2.36,0,0,1,1.58-.51Z"/>
    <path d="M748.44,847a1.53,1.53,0,0,0,.3.82,2,2,0,0,0,1.5.43,2.24,2.24,0,0,0,1-.19.64.64,0,0,0,.07-1.13,13,13,0,0,0-2.26-.65,4.69,4.69,0,0,1-2-.88,1.91,1.91,0,0,1-.58-1.49,2.6,2.6,0,0,1,.91-2,3.63,3.63,0,0,1,2.54-.83,4.71,4.71,0,0,1,2.54.62,2.66,2.66,0,0,1,1.12,2.14h-2.17a1.26,1.26,0,0,0-.23-.66,1.51,1.51,0,0,0-1.22-.44,1.77,1.77,0,0,0-1,.22.64.64,0,0,0-.3.52.57.57,0,0,0,.32.54,13.36,13.36,0,0,0,2.27.6,4.14,4.14,0,0,1,1.94.92,2.09,2.09,0,0,1,.64,1.56,2.51,2.51,0,0,1-.92,2,4.32,4.32,0,0,1-2.84.78,4.26,4.26,0,0,1-2.89-.83,2.66,2.66,0,0,1-.94-2.1Z"/>
    <path d="M755.41,838.5h2.13v6.06l2.74-3.13H763l-3,3.09,3.09,5.17h-2.64l-2-3.55-.9.93v2.61h-2.13Z"/>
    <path d="M768.71,841.19l.19,0v2.22l-.37,0h-.26a1.8,1.8,0,0,0-1.76.85,3.43,3.43,0,0,0-.25,1.48v4h-2.18v-8.3h2.07v1.44a4.4,4.4,0,0,1,.88-1.13,2.36,2.36,0,0,1,1.58-.51Z"/>
    <path d="M773.46,844.64a3.62,3.62,0,0,0,.86-.19.66.66,0,0,0,.47-.62.72.72,0,0,0-.36-.7,2.25,2.25,0,0,0-1-.2,1.42,1.42,0,0,0-1.11.38,1.75,1.75,0,0,0-.31.77h-2.09a3.19,3.19,0,0,1,.61-1.79,3.58,3.58,0,0,1,3-1.1,5.3,5.3,0,0,1,2.43.54,2.07,2.07,0,0,1,1.06,2v3.81c0,.26,0,.58,0,1a1.2,1.2,0,0,0,.13.58.83.83,0,0,0,.32.25v.32h-2.36a2.54,2.54,0,0,1-.14-.48c0-.14,0-.31-.06-.5a4.42,4.42,0,0,1-1,.83,3.14,3.14,0,0,1-1.6.4,2.76,2.76,0,0,1-1.87-.64,2.29,2.29,0,0,1-.73-1.82,2.37,2.37,0,0,1,1.18-2.22,5.43,5.43,0,0,1,1.92-.53Zm1.32,1a2.06,2.06,0,0,1-.42.21,4.27,4.27,0,0,1-.58.15l-.5.09a3.07,3.07,0,0,0-1,.3,1,1,0,0,0-.52.92,1,1,0,0,0,.32.8,1.16,1.16,0,0,0,.76.25,2.31,2.31,0,0,0,1.31-.41,1.74,1.74,0,0,0,.62-1.5Z"/>
    <path d="M781.05,849.69h-2.17V838.47h2.17Z"/>
    <path d="M787.57,841.52a2.62,2.62,0,0,1,.95.92v-4h2.2v11.21h-2.11v-1.15a3,3,0,0,1-1.06,1.07,3,3,0,0,1-1.47.34,3.1,3.1,0,0,1-2.45-1.18,4.52,4.52,0,0,1-1-3,5.13,5.13,0,0,1,1-3.34,3.18,3.18,0,0,1,2.61-1.22A2.69,2.69,0,0,1,787.57,841.52Zm.53,5.91a3,3,0,0,0,.48-1.77,2.71,2.71,0,0,0-.77-2.18,1.66,1.66,0,0,0-1.09-.39,1.53,1.53,0,0,0-1.4.72,3.9,3.9,0,0,0,0,3.62,1.53,1.53,0,0,0,1.37.69A1.59,1.59,0,0,0,788.1,847.43Z"/>
    <path d="M792.66,847.41H795v2.28h-2.31Z"/>
  </g>
</svg>
