<svg id="Layer_1" data-name="Layer 1" xmlns="http://www.w3.org/2000/svg" viewBox="0 0 198.37 678.97">
  <defs>
    <style>
      .cls-1 {
        opacity: 0.3;
      }

      .cls-1, .cls-2 {
        isolation: isolate;
      }

      .cls-3 {
        fill: #911a86;
      }

      .cls-4 {
        fill: #930f93;
      }

      .cls-5 {
        fill: #97ceff;
        opacity: 0.11;
      }

      .cls-6 {
        fill: #fcc0f3;
      }
    </style>
  </defs>
  <title>forsidetxtmobil</title>
  <g id="Michelle_Young" data-name="Michelle Young" class="cls-1">
    <g class="cls-2">
      <path class="cls-3" d="M31.38,615.35l.4-15.92h2.14l2.68,12.94,2.87-12.9,2.13,0,.19,15.92H40l-.1-11.56L37.2,615.39H36L33.41,603.8l-.25,11.56Z"/>
      <path class="cls-3" d="M44.14,615.44l.08-11.36h2.07l-.08,11.36Zm.09-13.05,0-2.2h2.07l0,2.2Z"/>
      <path class="cls-3" d="M51.49,615.65a3.27,3.27,0,0,1-2.07-.58,2.73,2.73,0,0,1-.94-1.58,10.65,10.65,0,0,1-.23-2.39l0-2.61a10.64,10.64,0,0,1,.27-2.45,2.66,2.66,0,0,1,1-1.54,3.35,3.35,0,0,1,2.06-.53,3.71,3.71,0,0,1,1.88.42,2,2,0,0,1,.91,1.21,6.28,6.28,0,0,1,.24,2v.67H52.72v-.69a6.07,6.07,0,0,0-.09-1.18,1,1,0,0,0-.35-.63,1.4,1.4,0,0,0-1.49,0,1.27,1.27,0,0,0-.36.79,11.26,11.26,0,0,0-.1,1.52l0,3.58a4.53,4.53,0,0,0,.26,2,1,1,0,0,0,1,.5,1.08,1.08,0,0,0,.77-.24,1.3,1.3,0,0,0,.31-.7,7.55,7.55,0,0,0,.08-1v-.92h1.88V612a6.31,6.31,0,0,1-.27,2,2.23,2.23,0,0,1-.94,1.25A3.35,3.35,0,0,1,51.49,615.65Z"/>
      <path class="cls-3" d="M56.44,615.53l.11-15.92h2.07l0,5.74a6.41,6.41,0,0,1,1.26-.93,3.06,3.06,0,0,1,1.56-.38,1.37,1.37,0,0,1,1,.36,1.92,1.92,0,0,1,.5.88,4,4,0,0,1,.13,1.09l-.06,9.2-2.07,0L61,607a2,2,0,0,0-.17-.94.71.71,0,0,0-.71-.34,1.45,1.45,0,0,0-.77.21,3.67,3.67,0,0,0-.74.52l-.07,9.12Z"/>
      <path class="cls-3" d="M68.09,615.77a3.43,3.43,0,0,1-2-.54,2.72,2.72,0,0,1-1-1.54,9.37,9.37,0,0,1-.26-2.49l0-2.59a9.21,9.21,0,0,1,.3-2.51,2.69,2.69,0,0,1,1-1.51,3.44,3.44,0,0,1,2-.5,3.07,3.07,0,0,1,2.08.61,2.92,2.92,0,0,1,.87,1.71,13.8,13.8,0,0,1,.19,2.66V610l-4.41,0,0,2.28a4.3,4.3,0,0,0,.12,1.12,1.14,1.14,0,0,0,.4.64,1.26,1.26,0,0,0,.73.22,1,1,0,0,0,.7-.22,1.16,1.16,0,0,0,.34-.65,4.78,4.78,0,0,0,.09-1v-.69h2v.44a4.42,4.42,0,0,1-.73,2.68A2.79,2.79,0,0,1,68.09,615.77Zm-1.19-6.95,2.37,0v-1a7.92,7.92,0,0,0-.07-1.19,1.3,1.3,0,0,0-.31-.73,1,1,0,0,0-.77-.25,1,1,0,0,0-.76.23,1.27,1.27,0,0,0-.36.79,8.71,8.71,0,0,0-.11,1.54Z"/>
      <path class="cls-3" d="M73.33,615.65l.11-15.92H75.5l-.1,15.93Z"/>
      <path class="cls-3" d="M77.76,615.68l.1-15.92,2.07,0-.1,15.92Z"/>
      <path class="cls-3" d="M85.08,615.89a3.35,3.35,0,0,1-2-.53,2.75,2.75,0,0,1-1-1.54,9.47,9.47,0,0,1-.26-2.49l0-2.6a9.21,9.21,0,0,1,.3-2.51,2.69,2.69,0,0,1,1-1.51,3.45,3.45,0,0,1,2-.49,3,3,0,0,1,2.08.6,3,3,0,0,1,.87,1.71,14.73,14.73,0,0,1,.19,2.66v.93l-4.41,0,0,2.28a4.38,4.38,0,0,0,.12,1.13,1.06,1.06,0,0,0,1.13.85,1,1,0,0,0,.7-.22,1.16,1.16,0,0,0,.34-.65,4.78,4.78,0,0,0,.09-1v-.69l2,0v.43a4.45,4.45,0,0,1-.73,2.69A2.82,2.82,0,0,1,85.08,615.89Zm-1.18-6.95,2.37,0v-1a8,8,0,0,0-.07-1.19,1.3,1.3,0,0,0-.31-.73,1,1,0,0,0-.77-.25,1.08,1.08,0,0,0-.76.23,1.27,1.27,0,0,0-.36.79,8.79,8.79,0,0,0-.11,1.54Z"/>
      <path class="cls-3" d="M97.14,615.82l0-5.62-3.31-10.32h2l2.35,7.7,2.41-7.67,2,0-3.44,10.27,0,5.63Z"/>
      <path class="cls-3" d="M106.55,616.05a3.32,3.32,0,0,1-2-.53,2.71,2.71,0,0,1-1-1.46,7.38,7.38,0,0,1-.29-2.22l0-3.31a7.53,7.53,0,0,1,.32-2.21,2.77,2.77,0,0,1,1-1.45,3.35,3.35,0,0,1,2-.5,3.24,3.24,0,0,1,1.94.53,2.77,2.77,0,0,1,1,1.46,7.4,7.4,0,0,1,.28,2.22l0,3.3a7.3,7.3,0,0,1-.31,2.22,2.83,2.83,0,0,1-1,1.45A3.27,3.27,0,0,1,106.55,616.05Zm0-1.56a.94.94,0,0,0,.85-.34,1.93,1.93,0,0,0,.29-.94,11.61,11.61,0,0,0,.06-1.2l0-3.56a11.83,11.83,0,0,0,0-1.22,2,2,0,0,0-.28-.94,1.16,1.16,0,0,0-1.69,0,1.93,1.93,0,0,0-.31.93c0,.38,0,.79,0,1.22l0,3.56c0,.42,0,.82,0,1.21a1.89,1.89,0,0,0,.29.93A1,1,0,0,0,106.56,614.49Z"/>
      <path class="cls-3" d="M113.3,616.09a1.38,1.38,0,0,1-1-.36,1.93,1.93,0,0,1-.51-.88,4,4,0,0,1-.13-1.09l.06-9.19h2.07l-.06,8.57a2.07,2.07,0,0,0,.17,1,.71.71,0,0,0,.71.35,1.39,1.39,0,0,0,.73-.2,4.66,4.66,0,0,0,.73-.49l.06-9.16h2.07L118.1,616H116v-1.12a5.29,5.29,0,0,1-1.24.89A3,3,0,0,1,113.3,616.09Z"/>
      <path class="cls-3" d="M120.21,616l.07-11.36h2.07v1.12a5.74,5.74,0,0,1,1.24-.89,3,3,0,0,1,1.49-.37,1.42,1.42,0,0,1,1,.37,1.83,1.83,0,0,1,.5.88,4,4,0,0,1,.14,1.08l-.06,9.2h-2.07l0-8.59a2,2,0,0,0-.16-.94.73.73,0,0,0-.72-.34,1.36,1.36,0,0,0-.72.2,3.88,3.88,0,0,0-.73.49l-.06,9.16Z"/>
      <path class="cls-3" d="M131.58,619.59a7.24,7.24,0,0,1-1.82-.23,2.69,2.69,0,0,1-1.27-.7,1.7,1.7,0,0,1-.46-1.24,1.85,1.85,0,0,1,.24-1,2.45,2.45,0,0,1,.61-.71,3.38,3.38,0,0,1,.77-.5,1.58,1.58,0,0,1-.81-.51,1.14,1.14,0,0,1-.26-.72,1.75,1.75,0,0,1,.33-1.07,6.21,6.21,0,0,1,.92-1,3,3,0,0,1-1-1.27,5.53,5.53,0,0,1-.32-2.12,6,6,0,0,1,.38-2.23A2.81,2.81,0,0,1,130,605a3.16,3.16,0,0,1,1.73-.45,3,3,0,0,1,1.46.33,2,2,0,0,1,.84,1,2.87,2.87,0,0,1,.52-.54,4.18,4.18,0,0,1,1-.63l.31-.14.52,1.36a5.37,5.37,0,0,0-.67.18l-.78.29a1.37,1.37,0,0,0-.45.25,4.83,4.83,0,0,1,.23,1,6.81,6.81,0,0,1,.1,1.12,6.54,6.54,0,0,1-.3,2,2.74,2.74,0,0,1-1,1.38,3,3,0,0,1-1.85.49,3.44,3.44,0,0,1-.54,0c-.19,0-.37-.06-.52-.1a4.37,4.37,0,0,0-.25.41,1.1,1.1,0,0,0-.13.45.39.39,0,0,0,.22.34,1.77,1.77,0,0,0,.71.18l1.74.17a2.87,2.87,0,0,1,2,.82,2.76,2.76,0,0,1,.62,2,2.8,2.8,0,0,1-.43,1.56,2.58,2.58,0,0,1-1.3.94A6.68,6.68,0,0,1,131.58,619.59Zm.16-1.65a3.74,3.74,0,0,0,1.63-.26.89.89,0,0,0,.53-.85,1.2,1.2,0,0,0-.13-.59.81.81,0,0,0-.45-.37,3.38,3.38,0,0,0-.94-.21l-1.76-.17-.41.43a2.25,2.25,0,0,0-.32.46,1.31,1.31,0,0,0-.11.52.81.81,0,0,0,.42.77A3.31,3.31,0,0,0,131.74,617.94Zm-.05-6.82a1.33,1.33,0,0,0,.71-.16,1.14,1.14,0,0,0,.4-.49,3.14,3.14,0,0,0,.19-.8c0-.31,0-.67,0-1.06s0-.75,0-1.07a3.56,3.56,0,0,0-.17-.83,1,1,0,0,0-.38-.52,1.22,1.22,0,0,0-.71-.18,1.18,1.18,0,0,0-.7.17,1,1,0,0,0-.42.5,3,3,0,0,0-.2.8c0,.32-.06.69-.07,1.11s0,.69.05,1a2.86,2.86,0,0,0,.18.8,1.41,1.41,0,0,0,.42.54A1.13,1.13,0,0,0,131.69,611.12Z"/>
    </g>
  </g>
  <g id="PORTFOLIO-3" data-name="PORTFOLIO" class="cls-1">
    <g class="cls-2">
      <path class="cls-4" d="M138.13,585.85,27.14,587l-.28-27.54q-.09-10,3.47-16a21,21,0,0,1,10.4-8.8,44.6,44.6,0,0,1,16.55-2.91,34.89,34.89,0,0,1,15.24,2.93,22.27,22.27,0,0,1,10,9q3.57,6,3.65,15l.12,12.19,51.66-.52ZM75.22,571l-.08-7.12a29.63,29.63,0,0,0-1.61-10.54,9.6,9.6,0,0,0-5.33-5.42q-3.78-1.6-10.64-1.54a48.44,48.44,0,0,0-12.18,1.29,8.51,8.51,0,0,0-5.84,4.92q-1.6,3.72-1.53,11.53l.07,7.26Z"/>
      <path class="cls-4" d="M138.41,491.7q.12,11.24-4.2,18a24,24,0,0,1-12.44,9.71,57.21,57.21,0,0,1-19.09,3.07l-42.06.43a54,54,0,0,1-18.87-2.76,23.5,23.5,0,0,1-12.16-9.47q-4.24-6.6-4.36-17.84T29.3,475a24,24,0,0,1,12-9.65A53.41,53.41,0,0,1,60,462.21l42.2-.43a55.26,55.26,0,0,1,18.94,2.76,25,25,0,0,1,12.63,9.39Q138.29,480.47,138.41,491.7Zm-12.19.13c0-4.12-.92-7.21-2.63-9.3a12.55,12.55,0,0,0-7.17-4.17,46.81,46.81,0,0,0-10.77-1L57,477.86a45,45,0,0,0-10.61,1.2,11.76,11.76,0,0,0-6.8,4.32q-2.37,3.18-2.31,9.34c0,4.11.88,7.23,2.49,9.36a11.71,11.71,0,0,0,6.9,4.25,45.05,45.05,0,0,0,10.63,1l48.64-.49a46.24,46.24,0,0,0,10.75-1.21,12.4,12.4,0,0,0,7.08-4.38C125.45,499.07,126.26,495.94,126.22,491.83Z"/>
      <path class="cls-4" d="M136.72,446.23l-111,1.11L25.51,425q-.11-11.1,2.76-18.39a20.5,20.5,0,0,1,9.35-10.85q6.47-3.56,17-3.67a47.12,47.12,0,0,1,11.73,1.25,22.7,22.7,0,0,1,8.95,4.3,17,17,0,0,1,5.35,7.89l55.48-16.31.15,14.93-51.92,15,.12,12.06,52.07-.53ZM73.4,431.38l-.06-5.89a29.12,29.12,0,0,0-1.75-10.67,11.08,11.08,0,0,0-5.68-6q-4-1.87-11.12-1.8-9.72.09-14,3.7T36.61,424.9l.07,6.85Z"/>
      <path class="cls-4" d="M135.88,362.92l-99.47,1,.19,18.77-11.52.12-.52-52.48,11.51-.12.18,18.23,99.48-1Z"/>
      <path class="cls-4" d="M135.44,318.53l-111,1.11L24,276.76l11.1-.12.27,27.41,37-.37-.22-21.24,11-.11.22,21.24,51.93-.53Z"/>
      <path class="cls-4" d="M135.84,236.58q.12,11.23-4.2,18a24,24,0,0,1-12.44,9.72,57.43,57.43,0,0,1-19.09,3.07l-42.06.42A53.73,53.73,0,0,1,39.18,265,23.54,23.54,0,0,1,27,255.56q-4.24-6.62-4.35-17.84t4.06-17.86a24,24,0,0,1,12-9.64,53.29,53.29,0,0,1,18.74-3.14l42.2-.42a55,55,0,0,1,18.94,2.75,25,25,0,0,1,12.63,9.4Q135.73,225.35,135.84,236.58Zm-12.19.12q-.06-6.16-2.63-9.29a12.56,12.56,0,0,0-7.17-4.18,46.19,46.19,0,0,0-10.77-1l-48.64.48a45.45,45.45,0,0,0-10.61,1.21,11.86,11.86,0,0,0-6.8,4.31q-2.37,3.18-2.31,9.35c0,4.11.88,7.23,2.5,9.36a11.71,11.71,0,0,0,6.89,4.25,45.1,45.1,0,0,0,10.63,1l48.64-.49a46.76,46.76,0,0,0,10.75-1.2,12.36,12.36,0,0,0,7.08-4.39Q123.72,242.87,123.65,236.7Z"/>
      <path class="cls-4" d="M134.15,191.1l-111,1.12L23,176.74l99.89-1-.29-28.36,11.1-.12Z"/>
      <path class="cls-4" d="M133.6,135.88,22.61,137l-.15-15.21,111-1.12Z"/>
      <path class="cls-4" d="M134.21,74.35q.12,11.24-4.2,18a24,24,0,0,1-12.44,9.71,57.21,57.21,0,0,1-19.09,3.07l-42.06.43a54,54,0,0,1-18.87-2.76,23.46,23.46,0,0,1-12.16-9.47Q21.14,86.73,21,75.49T25.1,57.64a24,24,0,0,1,12-9.65,53.41,53.41,0,0,1,18.75-3.13L98,44.43a55.19,55.19,0,0,1,18.94,2.76,25,25,0,0,1,12.64,9.39Q134.1,63.12,134.21,74.35ZM122,74.47c0-4.11-.92-7.2-2.63-9.29A12.55,12.55,0,0,0,112.22,61a46.81,46.81,0,0,0-10.77-1l-48.64.49a44.9,44.9,0,0,0-10.61,1.2A11.82,11.82,0,0,0,35.39,66q-2.36,3.18-2.3,9.34t2.49,9.36A11.68,11.68,0,0,0,42.48,89a45,45,0,0,0,10.63,1l48.64-.49a46.66,46.66,0,0,0,10.74-1.2,12.39,12.39,0,0,0,7.08-4.39C121.24,81.72,122.06,78.59,122,74.47Z"/>
    </g>
  </g>
  <g>
    <path class="cls-5" d="M68.11,593.08l-1.27,6-43.94-5L76,609.55,37.64,593.12,77.93,614.5,53.18,598.3c13.18,9.22,29,21.15,43.92,30.58a102.11,102.11,0,0,0,9.53,5.33c5.56,2.74,11.78,5.44,18.1,4.86,5.49-.51,11-3.61,15.31-6.88a72.79,72.79,0,0,0,10.13-9.57,83.86,83.86,0,0,0,12-17.79,89.73,89.73,0,0,0,6.19-15.7q1.07-3.87,2.19-7.73a37.66,37.66,0,0,0,2.14-15L172.56,556a106.07,106.07,0,0,0-2.34-14.84c-3.21-15.59-9.78-30.19-17-44.28C147,484.81,140,473.17,133.66,461.15a146.7,146.7,0,0,1-7.26-15.57l-2.08-5.88a43.71,43.71,0,0,1-2.11-10.92l.12,1.75a24.59,24.59,0,0,1,.94-9.46l-1.51,4.6,1.57-3.79L98.8,468.63l41.68-63.73-2.94,3.52c4.1-4.15,8.3-8.26,11.05-13.47A60.48,60.48,0,0,0,153,383.79,147.13,147.13,0,0,0,158.2,363c1.29-7.37,1.85-14.76,2.43-22.2.56-7.18.85-14.37-.56-21.48a56.61,56.61,0,0,0-11.29-24.11c-5.64-7-12.42-13.06-19.28-18.87-9.38-7.93-19.38-15.16-28.45-23.46a93,93,0,0,1-10.68-11.15,40.1,40.1,0,0,1-6.48-11.23l.62,1.67-1.41-5.6-.67,15.07,1.44-16.77L79.32,249l7.37-35.86-18,55.36,35.5-67.57L66.71,241,122,206.06,79,223.82l53.18-18.58a5.2,5.2,0,0,0,3.17-1.68l3.49-2.89a15.6,15.6,0,0,0,3.63-7.17,22.07,22.07,0,0,0,1.44-9.12l-1-6.92a28,28,0,0,0-4.34-10.94A58.06,58.06,0,0,0,131.46,156,89.18,89.18,0,0,0,115,141.67q-5.3-3.69-10.92-6.88l-7.47-3.57A128.93,128.93,0,0,0,75,123.43l-6.59-1.6a17.48,17.48,0,0,1-9.52-4.91l1.22,1.24L57.7,115l2,4.42-3.31-8,8.46,28-7.31-26.73,7.65,37.91-7.6-41.34,5.59,53.42,3-73.45L51.61,139.65,70.89,89.57,50.28,131.8,77.72,87.29,46,128.48l58-30.31L60.3,106l43.92-3.25L59.66,101l48.73,29.77-26-29.21,25,34.12-14.26-24.3q8.76,17.13,18.59,33.64a14.68,14.68,0,0,0,2.7,4.06,17.44,17.44,0,0,0,4.49,3.8,8.43,8.43,0,0,0,4.77.88,11.64,11.64,0,0,0,6.52-1.4l4.79-4.21,5.05-6.53a24.64,24.64,0,0,0,5.44-13.36A64.74,64.74,0,0,0,147,114c.36-6.23.58-12.46.75-18.69a160,160,0,0,0-4.62-43.92,115.11,115.11,0,0,0-4.35-14.31l-1.91-4.53a18.9,18.9,0,0,0-5.75-6.7,16.26,16.26,0,0,0-5.78-3.94,19,19,0,0,0-11.51-3.24l-9-.44a33.75,33.75,0,0,0-13.74,1.63,78.89,78.89,0,0,0-8.63,2.53,56.75,56.75,0,0,0-12.15,5l-7.52,3.72q-5.3,3.14-10.44,6.48c-11.16,7.15-20.79,16.29-29.74,26A8.86,8.86,0,0,0,28.06,66q10.5,2.85,21.12,5.26t21.27,4.64a8.93,8.93,0,0,0,5.9.15,22.83,22.83,0,0,0,7.12-2.92,27.17,27.17,0,0,1,6.26-2.4,46.62,46.62,0,0,1,6.4-1.55,38.9,38.9,0,0,1,7.39.47l-1.54-.5,3.52,1.65-1.46-.7,3.66,2.38L98.61,60.2a102.82,102.82,0,0,0,9.86,15.21c.84-.09,1.33.33,1.48,1.25l-.59-1.57c.2.94.41,1.87.62,2.8a4.5,4.5,0,0,0,1.31,2.64c.93,2.28.86,4.7,1,7.12.17,2.9.23,5.85.24,8.75l0,4.3c-.35,3-.81,6-1.38,9l.41-1.52c-1.21,2.53-2.53,5-3.93,7.43l18.94-15.08-24,17.61,43.54-14-83-14a10.64,10.64,0,0,0-2.5,6q-2.9,11.7-5.35,23.49t-4.74,23.63a10.71,10.71,0,0,0-.17,6.5c2.06,3.39,4,6.81,6.82,9.62q1.71,1.77,3.6,3.38a22.35,22.35,0,0,0,6.16,4.36c2.94,1.7,6,3.34,9,4.83a19.2,19.2,0,0,1,6.57,3.31,36.59,36.59,0,0,0,5.87,3.51l-1.19-1.26c.77,1,1.56,2,2.36,3a14.54,14.54,0,0,0,3.32,3.18l2.76,2.89a35.25,35.25,0,0,1,3.65,6.11l-.57-1.57,1.18,4.12-.38-1.6.64,4.66-.18-1.64a13.08,13.08,0,0,1-1.41,4.69l2.67-3.47-4,4.8,37.95-29.94L93.26,202.41a10.36,10.36,0,0,0-4.07,5q-6,10.24-11.66,20.69t-11.1,21a10.34,10.34,0,0,0-2,6.1,63.4,63.4,0,0,0,5,19.32A103.93,103.93,0,0,0,80.83,292.9c5.6,7.62,12.12,14.49,18.36,21.58,5.57,6.33,11,12.74,14.81,20.35q1.81,4.32,4,8.46a43.44,43.44,0,0,1,2.11,7.84,62.38,62.38,0,0,1-.27,15.8c-.7,6-2,12-3.15,17.9a290.19,290.19,0,0,1-7.18,29.79,125.94,125.94,0,0,1-5.29,14.68,67.37,67.37,0,0,0-3.27,9.36,45.94,45.94,0,0,0-2.64,10,42.88,42.88,0,0,0-1.23,10.34,76.25,76.25,0,0,0,2.35,21.69,109.13,109.13,0,0,0,4.31,11.78q2.92,6.28,6.27,12.35l5.07,11.66q2.53,5.81,4.74,11.74a75,75,0,0,1,3.28,11.4c.53,3.34.94,6.69,1.2,10.07A81.55,81.55,0,0,1,126.54,561a55,55,0,0,1,.81,11.17,51.61,51.61,0,0,1-.47,12.23,66.88,66.88,0,0,1-3,14.41l1-1.21-5.14,5.71,4.8-2.94q-5.5,2.13-10.88,4.51a13.84,13.84,0,0,1-3.7,1.16c-1.16.28-2.33.5-3.5.68l-6.07-.11,1.42.08-6.27-1.36,1.38.35-2.65-1.09-1.27-.8a51.82,51.82,0,0,0-5.47-1.87c-2.39-.86-4.82-1.57-7.23-2.36-16.69-5.46-27.53-4.86-49.71-7.84l43.17,10.37c-.66-1.77-1.35-3.53-2.09-5.27A12.18,12.18,0,0,0,69.52,593a8.26,8.26,0,0,0-5.57-.86q-10.39.24-20.76.92t-20.72,1.54a8.19,8.19,0,0,0-5.42,1.52l-1.73,2a8.41,8.41,0,0,0,5.65.66q10.46-.62,20.89-1.68t20.83-2.31A8.33,8.33,0,0,0,68.11,593.08Z"/>
    <path class="cls-5" d="M66.46,600.4l5.67-.5-48.64-3.14,55.29,16L38.73,595l41.15,23.32L47.37,595.75l45.22,34.44-3.13-2.42c6.94,5.63,13.68,10.82,21.63,14.94,3.5,1.81,7.91,3.93,11.88,4.72a20.33,20.33,0,0,0,6.37.29c5.65-.62,11.34-4.08,15.59-7.58a74.27,74.27,0,0,0,10.12-10.25,84.88,84.88,0,0,0,11.56-18.57,91,91,0,0,0,5.63-16q.91-3.89,1.93-7.74a38.22,38.22,0,0,0,1.7-15l-.38-10.41a108.92,108.92,0,0,0-2.69-14.68c-3.53-15.24-10.35-29.41-17.67-43.16-6.25-11.72-13.15-23.07-19.39-34.78a149.75,149.75,0,0,1-7.29-15.43l-2.17-5.92A44,44,0,0,1,124,437.15l.1,1.46a25.12,25.12,0,0,1,.85-9.68L104.3,466.81l31.44-50.37L111.2,441.57q17.05-16.74,34.46-33.1a30.09,30.09,0,0,0,5.24-7.23,35.92,35.92,0,0,0,4.49-10.92,141.84,141.84,0,0,0,5.16-20.71c1.27-7.33,1.78-14.65,2.32-22.05.52-7.09.77-14.19-.71-21.2A55,55,0,0,0,150.71,303c-5.63-6.76-12.33-12.57-19.05-18.19-9.26-7.73-19.07-14.81-28-22.92a94.23,94.23,0,0,1-10.68-11,41.93,41.93,0,0,1-6.66-11.22l.57,1.33-1.55-5.66-.08,3.85.42-7.14-.31,3.84.92-7.38-.55,3.82,1.45-7.4-.8,3.77,2-7.43L72.23,260.56l25.69-51.31L71.3,242.83l32-32.53-33.24,27,50.26-26.68-39.75,14.6q25.56-6.94,51.34-13a26,26,0,0,0,5.93-1.92,16.54,16.54,0,0,0,7.47-8l1.54-5.51a19.73,19.73,0,0,0-.36-9.66,35,35,0,0,0-3.32-10.55,55,55,0,0,0-6.86-10.09,43.47,43.47,0,0,0-8.77-9.1L121,152.06q-5.15-3.62-10.58-6.74a66.71,66.71,0,0,0-10.83-5.57,141,141,0,0,0-21-7.65l-6.33-1.6a18.12,18.12,0,0,1-9.53-4.8l1.1.87-2.64-3,14.08,41.88-4.57-72.2-18.45,39L75.77,94.31,52.44,124.75l31-31.95L50.94,120l52.77-20.92-45.07,8.16,55.14,5.36L69.36,99.92l43.8,38.69L88.27,105.36,115.8,154l-1.87-3.38c2.63,4.93,5.37,11.32,11.69,12.28l3.84-.06a9.92,9.92,0,0,0,7.38-3.9,30.41,30.41,0,0,0,7.64-9.48l4.33-9.13,1.51-10.09q.44-7.32.53-14.66.15-4.68.1-9.34,0-6.65-.06-13.29a173.08,173.08,0,0,0-6.4-37.54c-1.08-3.62-2.22-7.2-3.61-10.71a16.91,16.91,0,0,0-3.54-6.55,19.19,19.19,0,0,0-6.51-6.25l-6.45-3.31-7.92-1.42a62.29,62.29,0,0,0-13-.2A26.06,26.06,0,0,0,94.8,28.2a103.3,103.3,0,0,0-12.35,3.35l-7.82,3.12A141.1,141.1,0,0,0,56.46,44c-11.52,6.81-21.38,15.84-30.6,25.45a6.28,6.28,0,0,0,4.54,1.67q6.18.93,12.39,1.56,7.74.91,15.52,1.57a50.88,50.88,0,0,0,10.82.4l4.66-2a72.91,72.91,0,0,1,6.5-3.54A67.47,67.47,0,0,1,92.08,65l-1.33.14,5.74-.41H95.16l5.93.1-1.32-.16c2.93.93,5.93,1.62,7.84,4.19a9.76,9.76,0,0,0,1.6,1.85,2.65,2.65,0,0,1,2.55,1.64l-.57-1.25,1.27,3.52A7.7,7.7,0,0,1,114.37,78a30,30,0,0,1,1.22,7.83c.19,2.6.35,5.21.52,7.81a97.42,97.42,0,0,1-.5,14.69L116,107l-2,5.73.5-1.29-2.36,5.8.65-1.23-2.22,2.11,9.64-4.9q-6.92,9.24-13.3,5.25l1.21.84a7.48,7.48,0,0,1-2-2.55,36.93,36.93,0,0,1-4-3.81l16.36,43.42-7.07-52.47a7.07,7.07,0,0,0-5-1.47q-9.52-.9-19.09-1.37t-19.13-.73a7.15,7.15,0,0,0-5.13.91l-2.68,2.19,48.3-.62a37.6,37.6,0,0,0-8.49-8.54,24.71,24.71,0,0,0-13.79-5.72A7.22,7.22,0,0,0,81.84,91Q74.28,97,67,103.3T52.61,116.08a7.16,7.16,0,0,0-3.1,4.23l24.4,45.56a6.25,6.25,0,0,0,3.45,2,14.58,14.58,0,0,1,4.42,2.35,40.82,40.82,0,0,0,6.41,3.63l-1.07-.9c.85,1,1.75,2,2.69,2.9a27.29,27.29,0,0,0,3.8,3.22l3.28,3.1a44.41,44.41,0,0,1,4.73,6.8l-.56-1.28,1.64,4.25-.39-1.34,1.11,4.81-.19-1.4.15,3.4,0-1.41-.7,3.92.28-1.41-.68,2.61.5-1.35A41.65,41.65,0,0,0,100.4,204l.91-1.17a39.08,39.08,0,0,0-4,4.54l1.15-1L95,209.26l1.22-.88L92.38,211l-3.19,2.73-3.57,2.45L70,259.63c-.51,1.77-1.15,3.33-.91,5.18q1.2,3.53,2.73,6.92A22.77,22.77,0,0,0,74,276.07,129.09,129.09,0,0,0,88.13,296.2c6.18,7.31,12.89,14.15,19,21.5a84.62,84.62,0,0,1,7.56,10.4,58.82,58.82,0,0,1,3.89,7.15l2.31,4.2a40.21,40.21,0,0,1,3.33,16.26,100.42,100.42,0,0,1-1.71,17c-1.61,9.8-3.5,19.67-5.93,29.29a158.83,158.83,0,0,1-6.2,19.57c-1.5,3.78-3.19,7.49-4.57,11.31-1.14,3.18-2.43,6.28-3.29,9.55a68.81,68.81,0,0,0-2.11,9.91,73.78,73.78,0,0,0-.47,10.3,76.24,76.24,0,0,0,1.22,10.75,67.92,67.92,0,0,0,4.58,14.46c1.83,4.32,4.24,8.36,6.26,12.6,1.84,3.88,3.47,7.88,5.19,11.82s3.47,7.94,5,12a86.37,86.37,0,0,1,3.64,11.65c.74,3.37,1,6.84,1.61,10.22L129,552c.66,3,1.19,6,1.61,9a107.38,107.38,0,0,1,.88,12.29,84.41,84.41,0,0,1-.92,14,40.77,40.77,0,0,1-1.48,8.05,12.14,12.14,0,0,1-5,9.08l4.84-2.44a17.9,17.9,0,0,0-9.39,4.25l1.28-.74a62.19,62.19,0,0,1-6.58,3.3l1.41-.46a61.49,61.49,0,0,1-6.66,1.87l1.49-.13c-2.16.14-4.32.27-6.49.37l1.49.21q-3.3-.49-6.59-1.1l1.43.48-4.12-1.54,1.41.57a35.05,35.05,0,0,0-6.75-2.8c-17.84-6.57-36.39-10-54.94-14.69l44.36,21.09a59.08,59.08,0,0,0-6.76-13.39,7.86,7.86,0,0,0-5.3-1.54q-10.11-1-20.27-1.62t-20.31-1a7.92,7.92,0,0,0-5.45.85l-1.89,1.87a5,5,0,0,0,3.35,1,57.58,57.58,0,0,0,10.42.79l12,.43Q56.26,600.48,66.46,600.4Z"/>
    <path class="cls-5" d="M64,590.63l9.14.84,6,6.43,1.32,5.52L82.4,608a42.12,42.12,0,0,0,2.38,5.46q2.14,2.67,4.45,5.19,1.71,1.93,3.5,3.81c7.9,8.47,17,16.1,27.81,20.56,3.86,1.59,8.27,2.65,12.46,2l5.55-1.76,6-3.07,6.34-4.83.54-.49a82.61,82.61,0,0,0,11.7-12.73,105.8,105.8,0,0,0,12.79-22.63c1.45-3.68,2.69-7.42,3.78-11.23a128.1,128.1,0,0,0,3.39-16.93,55.22,55.22,0,0,0,.93-11,73.05,73.05,0,0,0-.42-10.13c-1.44-15.53-6.2-30.46-12.79-44.56-2.82-6-6.07-11.84-9.34-17.64-4.33-7.7-8.88-15.26-13.57-22.74-6-9.63-12.26-19.2-16.93-29.59A79.42,79.42,0,0,1,126.64,424a16.6,16.6,0,0,1-1-5.44,25.08,25.08,0,0,1,0-7.49l-.2,1.9,1-4.29-5.61,13.68,6.31-14-4.76,9.48,4.93-8.43-4.78,7.28a95.15,95.15,0,0,1,15.78-15.49q3.41-2.88,6.79-5.8c4-3.51,8.18-7.05,11-11.59A47.79,47.79,0,0,0,161,372.86a133.38,133.38,0,0,0,5.12-20.74,209.79,209.79,0,0,0,2.2-25A71.85,71.85,0,0,0,167.05,308a60,60,0,0,0-8.21-19.23c-6.7-10.43-16.21-18.47-25.76-26.17-10.13-8.17-20.77-15.67-30.92-23.81l.74.6c-4.78-4.29-9.44-8.47-13.21-13.72a18.39,18.39,0,0,1-3.32-5.52,19.45,19.45,0,0,1-2.59-8.31l-1,17.85,2.77-22.45-3.34,15.09,3.83-14.72-3.2,10.8L87.56,204l-3.77,10.42,3.74-8.84L83.64,214,89.7,202.1l-4.29,8,5.16-6.92-1.36,1.1,5-3.85-1.41.9,5.54-2.94-1.43.67a71.57,71.57,0,0,1,12.9-1.26q6.72,1.09,13.43,2.36l6.36.73a13.27,13.27,0,0,0,6.83-.2c4.95-1.32,10.28-2.95,14-6.59,4-3.89,4.57-9.64,4.61-14.88a21.34,21.34,0,0,0-.05-4.23,52,52,0,0,0-4.77-16.05c-5.82-12.17-15.84-22.25-26.75-29.94a127.43,127.43,0,0,0-33.84-16.52c-9.48-3.1-19.27-4.62-28.86-7.25l.9.26A13.2,13.2,0,0,1,55.06,100l6.11,15.94L54.65,95.1l2.19,15.23-1.6-18.65.45,19.46.77-13.28-.89,9.63,2-13.13-1.73,9.46a43.43,43.43,0,0,1,2.68-7.41,43.44,43.44,0,0,1,4.56-6.83L61.85,91,66,86.55l-1.3,1.22,4.59-3.89-1.38,1a40.8,40.8,0,0,1,8.79-4.2,57.26,57.26,0,0,1,12.62-.11,82.86,82.86,0,0,1,14.29,6.33Q118.34,96,117.1,115.66a60,60,0,0,1-1.5,12.87A64.53,64.53,0,0,0,114,139.66a17.12,17.12,0,0,0,.22,7.57,16.28,16.28,0,0,0,1.5,5.24c1.22,2.73,3.63,7.38,6.6,8.69a14.27,14.27,0,0,0,9.1.43,16.59,16.59,0,0,0,5.12-1.79q3.33-2.48,6.51-5.1a45.23,45.23,0,0,0,6.56-8.08,37.43,37.43,0,0,0,7.2-16.56,93.4,93.4,0,0,0,3.68-20.34,93.64,93.64,0,0,0,.2-26.17,124.14,124.14,0,0,0-3.06-19.65q-1.89-7.76-4.09-15.43a167.83,167.83,0,0,0-8.86-24.41A47,47,0,0,0,138.21,14a34.81,34.81,0,0,0-12.8-8.19A63.32,63.32,0,0,0,105.82,2.5,72.22,72.22,0,0,0,84.37,5a79.05,79.05,0,0,0-20,7.07A145.38,145.38,0,0,0,32.87,32.52,192.26,192.26,0,0,0,11.12,54.33c-1.27,1.47,6.54,3.77,6.51,3.76a38.89,38.89,0,0,0,5.62,1.53A1.58,1.58,0,0,0,25.09,59,177.48,177.48,0,0,1,46.6,40.62,107.6,107.6,0,0,1,76.32,25.45a51.44,51.44,0,0,1,17.36-3.19,59.7,59.7,0,0,1,16.82,1,53.15,53.15,0,0,1,14.38,5A29.19,29.19,0,0,1,133,35l-.54-.72A32.84,32.84,0,0,1,137,41.88q1.86,4.18,3.69,8.38c3,7.11,5.37,14.44,8.39,21.53l-.29-.71a66.43,66.43,0,0,1,3.71,27.75A87,87,0,0,1,151,123.92l-25.65,32.23a8,8,0,0,1-6.93-5l.73,2.17a34.35,34.35,0,0,1-1-7.28,75.63,75.63,0,0,1,2.64-15.24,158.5,158.5,0,0,0,3.6-20.75,27.85,27.85,0,0,0-.75-13.72,16.62,16.62,0,0,0-2.57-5.42,27.6,27.6,0,0,1-7.53-8.65c-1.88-1.92-3.84-3.76-5.88-5.5-4.58-3.85-7.24-5.55-12.77-7.46A30.32,30.32,0,0,0,78.7,68a34.67,34.67,0,0,0-15.89,8.28,46.44,46.44,0,0,0-5.74,6.39,35.84,35.84,0,0,0-3.77,7.14,10.45,10.45,0,0,0-.52,4c-.12,2.58-.13,5.15,0,7.73l.21,5.72a16.05,16.05,0,0,0,.87,5.93l7.17,9,4,2.09a36.67,36.67,0,0,0,5.74,2.14c3.76,1,7.57,1.82,11.32,2.92a146.56,146.56,0,0,1,15.53,5.46,97.83,97.83,0,0,1,25.77,15.38,66.57,66.57,0,0,1,10.81,11.38,28.54,28.54,0,0,1,4,6.21,31.19,31.19,0,0,1,3.88,9l-.16-.79,1.28,6.71-.07-.79v5a13.93,13.93,0,0,1-3.15,8.62l.74-.76-3.2,2.44,8.81-2.73-8.75.79,1.06.12a112.18,112.18,0,0,1-11-3.78l-6.09-2.62L115.32,187a58.68,58.68,0,0,0-6.12-1.36l-5.09,0-4.52,1.08a14.65,14.65,0,0,0-5.11,3.3L84.19,204.93l-.93,1.77-1.15,3.84-1.4,5.56c-.79,3.36-2,7.08-1.92,10.54a40.83,40.83,0,0,0,.95,7c.76,3.82,2.79,7.27,5,10.47,5,7.34,11.64,13.22,18.46,18.79,8.12,6.62,16.71,12.63,24.5,19.64,4,3.64,7.76,7.56,11.53,11.48a41.46,41.46,0,0,1,5,5.73,38.67,38.67,0,0,1,5.55,8.24l-.39-.8,2.91,6.17-.34-.82a59.91,59.91,0,0,1,3.37,14.88,96.48,96.48,0,0,1-.21,14.82,187.79,187.79,0,0,1-2.35,21l-2.24,10.31a61.63,61.63,0,0,1-7.73,19.22l.77-1.33L140,396l8.83-7.54a56.3,56.3,0,0,1-7.6,4.91l1.41-.78a28,28,0,0,0-5.48,2.94l-11.67,10.67c-2.33,2.78-3.75,6.69-5.14,9.94s-3.23,7-3.66,10.57a24.74,24.74,0,0,0,0,7.39,43.83,43.83,0,0,0,1.35,8.21l2.54,6.18q2.82,6.11,6,12.07c3.44,6.28,7.26,12.33,11.14,18.35,3.45,5.36,7,10.69,10.07,16.27,3.2,5.74,6.23,11.5,9.52,17.19l-.4-.76,4.41,8.43-.36-.76,4,8.72-.32-.76,3.38,8.9-.26-.77,2.7,9.11-.2-.78,1.93,9.24-.14-.77,1.19,8.54,0-.77.23,8.58.06-.76-1.27,10.72q-4.78,49.71-40,60a7.53,7.53,0,0,1-5.29.68,11,11,0,0,1-4.4-.6,44.62,44.62,0,0,1-8.87-3.54L109.88,633a29.06,29.06,0,0,1-9.83-8,29.41,29.41,0,0,1-4.77-5.5,18.49,18.49,0,0,1-3.42-6.19A32.36,32.36,0,0,1,88.37,604l-1-5.74-1.06-5.48L82.77,589c-3.21-3-3.75-2.77-7.72-2.88a38,38,0,0,0-5.82.78,39.65,39.65,0,0,0-5.71,1.4,1.24,1.24,0,1,0,.44,2.35Z"/>
    <path class="cls-5" d="M72.11,610.1l5.62,1-6.23-1.59a37.49,37.49,0,0,1,9,6.32L79,614.17q-.39,4.41-1,8.81,2.06,4.47,4.19,8.91l4,4.8q3.26,3.94,6.56,7.83c2.26,2.62,4.58,5.26,7,7.7a64.59,64.59,0,0,0,11.08,8.6c5.2,3.27,11.45,6.9,17.78,6.77,8.25-.17,15.65-4.4,21.87-9.53l6.46-5.73a115.1,115.1,0,0,0,11-14.21,101.9,101.9,0,0,0,10.46-23.34,118.52,118.52,0,0,0,5.25-31.86,84.61,84.61,0,0,0-.63-16.22,139.18,139.18,0,0,0-4.86-21.23,174.44,174.44,0,0,0-12.38-28.8c-8.26-15.63-18.32-30.14-27.17-45.42-4.35-7.5-8.65-15.4-10.94-23.82a33.65,33.65,0,0,1-1.55-10.58,24.78,24.78,0,0,1,1.63-9.3l-1,1.93,11.87-9.4c2.05-1.06,4.1-2.15,6.13-3.25a40.39,40.39,0,0,0,5.33-3.33c3.34-2.48,6.7-5.27,8.41-9.17a124.68,124.68,0,0,0,7.43-25.2,160.59,160.59,0,0,0,2.73-22.41c.48-8.36,1-16.56-.44-24.87a62,62,0,0,0-5.34-15.93l-4-6.6-5-6.69-6.3-6.63a146.31,146.31,0,0,0-11.35-9.76c-9.2-7.38-18.88-14.13-28.16-21.41l-6.88-5.58L90.79,248.69a25.67,25.67,0,0,1-4.93-8.3,17.68,17.68,0,0,1-2.08-8.31l-.49,3.15,5.7-13,2.14-3.15,8.4-6.72,4.23-.76,15.17,3.76,4.8,2.2,4.7,2.13,5.34,1.08a35.76,35.76,0,0,0,7.6.48l1.27-.17,3.89-1.32.68-.43,3.49-2.68,2.74-4.72a15.6,15.6,0,0,0,.93-4,19.14,19.14,0,0,0,.76-6.94,18.14,18.14,0,0,0-.76-7.81A29.92,29.92,0,0,0,152,184.7a25.35,25.35,0,0,0-4.13-8.64,43.28,43.28,0,0,0-5.77-8.54,33.58,33.58,0,0,0-7.14-7.9,58.81,58.81,0,0,0-8.24-7.12,40.84,40.84,0,0,0-8.75-6,124.51,124.51,0,0,0-17.6-8.88c-3.19-1.28-5.39-2.09-8.64-3.21a157.77,157.77,0,0,0-16-4.52q-3.75-1-7.58-1.56-9.8-.82-15.49-10.48l.28,3.11a30.27,30.27,0,0,1,2.83-9,35.78,35.78,0,0,1,4.44-6.64A34.85,34.85,0,0,1,75.32,94.58a15,15,0,0,1,6.46-1.2q6.31-.75,11.55,4.07A17.61,17.61,0,0,1,104.94,104a35.27,35.27,0,0,1,6.25,8.06l.46.57,3.11,5.33,1,4.78a57.21,57.21,0,0,1-.4,8.58A122.69,122.69,0,0,1,113.08,146l-1.18,5.41-.23,3.65-.16,4.59q.78,3,1.63,6c.8,2.84,1.6,5.71,2.61,8.5a20.42,20.42,0,0,0,2.3,5c1,1.45,2.1,3.19,3.81,4a15.48,15.48,0,0,0,13.59-.92l6.89-5.32,6.74-8.22,5.59-10.42a119,119,0,0,0,4.56-20.07,129,129,0,0,0,1.92-13.84,25.78,25.78,0,0,0,.77-7.29,90.73,90.73,0,0,0-1.09-11.51l-1.65-11.33c-1.61-8.28-4-16.46-6.14-24.61-1.53-5.87-3.23-11.54-5.31-17.22a43.18,43.18,0,0,0-2.28-5.64A75.8,75.8,0,0,0,142,39.51,60.42,60.42,0,0,0,137.24,34a29.9,29.9,0,0,0-9.38-6.32,17.84,17.84,0,0,0-8.48-2.92,36.53,36.53,0,0,0-10.18-1.47,65.27,65.27,0,0,0-15.74.1l-.7.07L82.24,25.81a96.72,96.72,0,0,0-11.43,3.64A147.26,147.26,0,0,0,37.15,50c-4.42,3.52-8.7,7.26-12.8,11.15a198.19,198.19,0,0,0-15,16.68c-1.14,1.36.85,2.1,1.77,2.29a22.42,22.42,0,0,0,3.75.32,2.27,2.27,0,0,0,2-.56,190.5,190.5,0,0,1,18.78-21A183.36,183.36,0,0,1,54.9,43.16q21.56-15,49.12-16.11a67.54,67.54,0,0,1,18.6,3.12A40.36,40.36,0,0,1,134,38a36.85,36.85,0,0,1,7.07,11,123,123,0,0,1,7.27,21.81c.55,2.79,1.2,5.56,2,8.29a78.13,78.13,0,0,1,4,16.94,67,67,0,0,1-.3,34.37,115.39,115.39,0,0,1-8.25,24.11,41.52,41.52,0,0,1-12.19,11.24,14.14,14.14,0,0,1-9.56,3.16l.81.13-3.87-.68.8.21a6.55,6.55,0,0,1-3.65-1.87,8.41,8.41,0,0,1-2.18-2.49l.77,1.09-1.16-2.2,3,11.61-1-6.37-.08,1.13a87.44,87.44,0,0,1,1.23-9.53q1.44-6.36,2.9-12.71A102.88,102.88,0,0,0,123.3,136a58.09,58.09,0,0,0,.63-10.87,24.87,24.87,0,0,0-3.39-11.09,103.55,103.55,0,0,1-7.14-9c-3.23-3.73-6.75-8.27-11.08-10.69-3.75-2.1-7.09-4-11.3-5l-5.45-.62A24.94,24.94,0,0,0,75.68,90a39.58,39.58,0,0,0-23.37,19.89c-2.26,4.63-3.35,9.48-1.09,14.31A24.61,24.61,0,0,0,53.5,128a18.75,18.75,0,0,0,5,2.56,63.15,63.15,0,0,0,12.55,2.66A136.84,136.84,0,0,1,103,143a130,130,0,0,1,16.86,9.59,108.09,108.09,0,0,1,15,13.87l5.37,7.92a41.2,41.2,0,0,1,6.38,16,31.11,31.11,0,0,1,.42,14.23q-.74,10.68-10.36,13.79h4.84A22,22,0,0,1,131,215.54q-4.06-1.95-8.12-3.93a66.21,66.21,0,0,0-11.19-4.18c-6.59-1.86-13.61.36-18.63,4.73-4.26,3.7-7.77,9.36-10,14.54a53.07,53.07,0,0,0-2,5.59,8.14,8.14,0,0,0-.49,3.16c.43,6.1,3.47,12.11,7.29,16.78A90.26,90.26,0,0,0,99,263.5c15.9,13.49,34.18,24.21,48.15,39.9a46.79,46.79,0,0,1,7.32,9.74l7.33,17.76c1.27,5.28,1.28,10.88,1.15,16.28s-.55,11.15-1,16.65a111.81,111.81,0,0,1-2.48,16.39,120.51,120.51,0,0,1-3.86,15.52l-5.54,12.88a28.92,28.92,0,0,1-11,7.55c-1.94.9-3.82,1.79-5.68,2.85a24.35,24.35,0,0,0-9.71,9.77c-1.58,3-1.63,7.15-1.67,10.54-.06,5.35,1.54,11.35,3.49,16.29,4.55,11.53,11.17,22.1,17.7,32.58,9,14.5,18,29.09,24.31,45a143.71,143.71,0,0,1,7.28,24.17A98.5,98.5,0,0,1,170,611.81,57.12,57.12,0,0,1,165.31,622a81.89,81.89,0,0,1-5.93,9.89L154,638a40.41,40.41,0,0,1-12.5,10l-6.91,3.65A44.72,44.72,0,0,1,123,654l.81,0c-9.46-.8-18.06-5.49-25.85-10.66l1,.71a112.44,112.44,0,0,1-9-7.26l5.07,6a28.68,28.68,0,0,1-5.83-10.28l-1.7-4.92c-.19-3.49-.43-7-.72-10.44a7,7,0,0,0-1.7-2.62c-1.61-2.2-3.29-4.87-5.94-5.85a37.34,37.34,0,0,0-6.42-1.48c-.89-.15-5.27-1.55-5.67.39S71.23,609.94,72.11,610.1Z"/>
    <path class="cls-5" d="M76.66,614.76l9.42,14.07L82.56,626c4.66,4,9.28,8.19,14.35,11.67,2.73,1.87,5.53,3.58,8.39,5.24a80.94,80.94,0,0,0,8.18,4.21c2.87,1.28,6.91,2.89,10.14,2.87,9.47-.06,17.41-6.62,23.7-13a83.52,83.52,0,0,0,6.65-8.57,52.69,52.69,0,0,0,5.64-9.22,104.7,104.7,0,0,0,6.6-15.72,32.69,32.69,0,0,0,1.7-6.14c.87-4,1.84-8,2.92-11.94l.51-10.09a59.28,59.28,0,0,0-1.11-14.93,112.51,112.51,0,0,0-2.95-14.29l-3-8.92a196.83,196.83,0,0,0-11.11-24.93c-6.06-11.8-12.73-23.26-19-34.94a163.56,163.56,0,0,1-8.83-18.58l-2.17-5.92a47.24,47.24,0,0,1-2.35-11.09l.11,1.52a25.88,25.88,0,0,1,.69-9.72l-5.25,11.41,9.39-18.74L105,456.38l26.88-35.69-16.78,18.05q13.07-13.29,26.35-26.37a23.54,23.54,0,0,0,3.57-4.81A42,42,0,0,0,151.05,394a149,149,0,0,0,5.15-20.72c1.27-7.29,1.79-14.59,2.35-21.95.54-7,.83-14.07-.6-21a54.29,54.29,0,0,0-11.08-23.07c-5.45-6.66-12-12.39-18.49-17.95-9-7.7-18.58-14.8-27.3-22.86a98.1,98.1,0,0,1-10.54-11,43.65,43.65,0,0,1-6.67-11.2l.62,1.39-1.62-5.64,0,4.08.19-7.35-.19,4.07.7-7.6-.45,4,1.21-7.62-.71,4,1.78-7.67L68,271.44l34-59.83L68.3,241.22l35.19-26.53L69.7,237.05,108,215.25,67.45,234.73l57.68-19.55-4,1.11c4.08-.8,8.54-1.29,12.28-3.27a16.06,16.06,0,0,0,7.52-8l1.49-5.45a19,19,0,0,0-.39-9.48,36.24,36.24,0,0,0-3.27-10.31A57.67,57.67,0,0,0,132,170a40.53,40.53,0,0,0-8.54-8.76l-6.35-5.14a114.31,114.31,0,0,0-20.57-11.93,140.78,140.78,0,0,0-20.3-7.7l-6.19-1.66a17.9,17.9,0,0,1-9.27-4.91l1.17.94-2.57-3,1.88,3.57-3.41-7,11.46,34.18-12-40.88,6.43,47.85L74.35,95.54,49.06,131.92,79.57,97.3,44.78,127.16l68.1,26.8-7.26-13.48q2.84,7,6.26,13.69,1.22,2.49,2.59,4.89a28.17,28.17,0,0,0,3.12,3.6,10.43,10.43,0,0,0,9.42,2.49l4.87-1.7a31.93,31.93,0,0,0,7.54-8.84,44.32,44.32,0,0,0,6.72-12.9l1.08-10.36q.1-7.34-.16-14.65c0-3-.16-6-.33-9-.69-14.09-1.52-28.34-4.82-42.11a135.33,135.33,0,0,0-4.07-14.15c-1.42-4-2.92-7.83-5.82-11l-4.68-4a17.69,17.69,0,0,0-10-4.06,51.1,51.1,0,0,0-12.16-1.25l-8.75.31a102.14,102.14,0,0,0-12.21,3,67.11,67.11,0,0,0-11.65,4.17l-7.37,3.23q-5.34,2.74-10.5,5.78C43.2,54.2,33.25,63,24,72.4A8.56,8.56,0,0,0,29.52,74q7.43.88,14.88,1.46Q53.72,76.34,63,77a72,72,0,0,0,13,.3c1.59-.45,3.17-1,4.74-1.47a78.28,78.28,0,0,1,8.07-3.27l-1.49.31a74,74,0,0,1,9.81-1.7l-1.5.07a43.69,43.69,0,0,1,7.11,1l-3.37-2,5.11,3.33-3-2.45,5,4.23L92.72,56.63l15.87,23.22L108,78.52a10.31,10.31,0,0,0,.49,3.26,7.93,7.93,0,0,1,1.37,4.09l0-1.49a172.76,172.76,0,0,1-1,18.61l.34-1.45q-1.08,4.88-2.56,9.63l9.23-9.56q-5.9,15.51-12.7,10l1.26,1.11c-.77-.79-1.31-1.65-2-2.5-1.27-1.57-3.06-2.51-4.65-3.72a50.15,50.15,0,0,0-5.43-4c-1.13-.65-2.25-1.32-3.36-2a13.82,13.82,0,0,0-5.86-2.39l22,34.37L82.75,92.82c-.86-1.51-20.41,16.42-20,16.05Q55.21,115.62,48,122.68a7.85,7.85,0,0,0-3.18,4.48L75.2,173.39a7,7,0,0,0,3.4,2.06,10.36,10.36,0,0,1,4,2.48,38.37,38.37,0,0,0,5.55,3.89l-1.13-1a23.92,23.92,0,0,0,5,6.24l-.93-1.14,3.26,4.21-.82-1.22L95.74,193l-.68-1.29L97,196.26l-.52-1.37a13.36,13.36,0,0,1,.08,6l1.72-3.51a25.17,25.17,0,0,1-3,5.67l2.84-2.85a20.65,20.65,0,0,0-5.57,5.88l1-1.16c-.89.7-1.78,1.39-2.6,2.16a9.55,9.55,0,0,1-2.72,2.58l-2.47,1.81c-2.24,1.64-4.06,3.76-6.2,5.53a79,79,0,0,0-6.84,7.09c-13.46,14.37-7.4,39.27-1.3,57.62l2.6,4.15,2.67,3.84c6.08,8.76,12.91,16.83,19.81,25,6,7.06,12.18,14.37,16,22.93,2.23,5.06,4.79,10.11,5.48,15.67.71,5.75.08,11.8-.83,17.48-1.08,6.84-2.49,13.62-3.9,20.4s-2.78,13.4-4.61,20S104.43,424.46,102,431c-1.49,4-2.67,8-3.86,12a75.63,75.63,0,0,0-2,10.45c-1.19,8-.46,16.49,1.15,24.39a74.62,74.62,0,0,0,3.19,11.34,128.11,128.11,0,0,0,5.38,12.25l3.24,6.3q1.83,4.38,3.62,8.78c1.59,3.89,3.11,7.79,4.49,11.75a86.57,86.57,0,0,1,3.19,11.38,38.11,38.11,0,0,1,1,7.68l.26,4.59,1.08,5.38.69,5.5a85.35,85.35,0,0,1,.45,10.72l-.09,5.91a79.81,79.81,0,0,1-1.53,9.47,31.74,31.74,0,0,1-1.82,7,9.29,9.29,0,0,1-5.08,7.29l5.39-2.11a77.77,77.77,0,0,0-12,3.24l1.53-.47-3.55.95,1.57-.3-4.07.5,1.62-.12-3.44.23,1.63.07q-2.85-.33-5.72-.56l1.61.44q-2.43-.81-4.9-1.43a10.61,10.61,0,0,1-3.58-1.44l1.49.83a25.54,25.54,0,0,0-2.65-1.72q-2.83-.84-5.59-1.89c-4.8-1.59-9.67-3-14.51-4.39-5.83-1.73-11.71-3.27-17.66-4.53a54.92,54.92,0,0,0-10.59-1.64,38.06,38.06,0,0,0-15,.66,9.13,9.13,0,0,0,4.68,3.71q9.68,5.32,19.55,10.27t19.84,9.7A9.12,9.12,0,0,0,76.66,614.76Z"/>
    <path class="cls-5" d="M67.81,596.5l-.24,5-46.94-7.62,56.55,18.43L35.83,592.76,89,625.11l-3.35-2.37c7.16,5.36,14.13,10.41,22.14,14.41,3.57,1.77,8,3.85,12,4.65a21,21,0,0,0,6.32.31c5.57-.57,11.13-3.79,15.4-7.16a71.36,71.36,0,0,0,10.07-9.82,83.12,83.12,0,0,0,11.71-18,89.27,89.27,0,0,0,5.89-15.66q1-3.84,2.07-7.65a37.42,37.42,0,0,0,2-14.77l-.18-10.3a111.68,111.68,0,0,0-2.45-14.65c-3.29-15.34-9.93-29.67-17.15-43.52-6.19-11.87-13.08-23.36-19.31-35.21a149.2,149.2,0,0,1-7.22-15.49L124.8,444a45.36,45.36,0,0,1-2.17-11l.08,1.72a25.25,25.25,0,0,1,.88-9.59L122,429.62l3.38-8.24L100.49,467l40.27-58.74-3.11,3.41a73.73,73.73,0,0,0,8.94-9.67q1.64-2.64,3.14-5.34a126,126,0,0,0,6.62-19.85l2.23-10.6a130.18,130.18,0,0,0,1.93-16.7c.34-3.56.61-7.13.83-10.7a61.52,61.52,0,0,0-1.72-18.88A58.07,58.07,0,0,0,149.06,299c-6.42-8.21-14.77-14.91-22.8-21.46s-16.62-13-24.39-20.1a92.68,92.68,0,0,1-10.61-11.09,41.15,41.15,0,0,1-6.53-11.23l.59,1.62-1.47-5.63,0,4.76.46-8-.3,4.74,1-8.22-.56,4.72L86,222l-12.38,35.5,17.22-46.72L65.53,261.2l38.9-56.88L65.3,243l52.81-35.08L74.62,228.76l44-18L98,218.29q23.3-1.8,41-14.44a4.36,4.36,0,0,0,2-2.68,15.79,15.79,0,0,0,3-7.74l.48-6.31-1.19-6.85a27.12,27.12,0,0,0-4.52-10.73,38.78,38.78,0,0,0-4.63-6.84,39.06,39.06,0,0,0-8.73-9.28l-6.61-5.51-7.09-4.63a129.64,129.64,0,0,0-18-9.26,132.59,132.59,0,0,0-17.51-6l-6.43-1.59a17.24,17.24,0,0,1-9.38-4.88l1.2,1.19-2.5-3.13L61,123.81,57.75,116l4.4,13.62-3.43-12.53,7.14,36.45-7.21-39.88,5,51.4,6-74.07L50.28,138.4,74.42,91.76l-25,38.81L77.89,90.84,46.42,129.9,97.17,92.78,50,114.51l57.14-12.62L55.2,104l54.16,29.86L80.77,101.16l30.6,44-6.05-10.51A147.27,147.27,0,0,0,112.47,148a14.33,14.33,0,0,0,2.82,4.25,17.74,17.74,0,0,0,4.58,3.91,8.7,8.7,0,0,0,4.88.85,12,12,0,0,0,6.65-1.47l4.89-4.46,5.1-6.76a23.27,23.27,0,0,0,5.34-13.65A66.47,66.47,0,0,0,148,116.05c.21-6.16.27-12.3.26-18.46,0-14.35-1.29-28.78-4.88-42.71a113.78,113.78,0,0,0-4.28-14l-1.88-4.43a18.64,18.64,0,0,0-5.69-6.52,16,16,0,0,0-5.7-3.81A18.57,18.57,0,0,0,114.49,23l-8.76-.39a33.15,33.15,0,0,0-13.4,1.58,78.91,78.91,0,0,0-8.43,2.44A59.25,59.25,0,0,0,72,31.43L64.63,35q-5.23,3-10.34,6.22c-11.16,6.94-20.82,15.85-29.8,25.37a8.82,8.82,0,0,0,5.4,2.26q7.44,1.74,15,3.17,9.34,1.92,18.74,3.59a76.56,76.56,0,0,0,13.11,1.8l4.71-1.24a58.17,58.17,0,0,1,5.92-2.53,49.34,49.34,0,0,1,10.21-2.37L96,71.14l4.92.45-1.56-.29,5.09,1-1.52-.46,1.72,1.08L87.85,53.44q4.4,25.05,20.73,24.73l-.77-1.42L109,79.18l-.56-1.54a23,23,0,0,0,.54,3.5,7.9,7.9,0,0,1,1.52,4.11l0-1.68c.07,4.29.08,8.55,0,12.83,0,2-.15,4-.32,6.06q-.78,4.25-1.87,8.42l.51-1.5c-1.31,2.2-2.7,4.36-4.17,6.46L148.15,89l-78.59.29a10,10,0,0,0-3.48,5.23q-4.86,10.59-9.29,21.34t-8.71,21.58a10.06,10.06,0,0,0-1.29,6.16,30.16,30.16,0,0,0,4.71,10.43c1.29,2,2.67,4,4.15,5.94a47.29,47.29,0,0,0,9.59,8.05,121.48,121.48,0,0,0,11.13,6.23L81,176.37a50,50,0,0,0,7.4,5l-1.15-1.22c2.26,3.34,5,6.07,7.59,9.16L94,187.87l2.39,4.21-.68-1.5,2.07,4.7-.52-1.56.84,3.89L97.8,196a6.77,6.77,0,0,1-.16,4.11l1.78-4L96.73,202l8-11.13-9.77,12.87L71,238.85l-5.29,8a8.83,8.83,0,0,0-2.4,4.92c-.46,2.53.15,5.48.51,8a65.13,65.13,0,0,0,2.31,9.82c2.22,7.22,6.19,13.65,10.45,19.82a258.74,258.74,0,0,0,17.62,22.25c6.3,7.26,13,14.49,17.4,23.1,1.46,2.84,2.6,5.79,4,8.67a31.66,31.66,0,0,1,2.46,7.73c1.12,5.63.58,11.68-.13,17.35-.85,6.77-2.36,13.49-3.73,20.17-2.61,12.64-5.5,25.09-10,37.21-1.46,3.94-3.07,7.83-4.24,11.86-.72,2.54-1.46,5.07-2.24,7.59l-.92,5.19a66.18,66.18,0,0,0-1,10.52,78,78,0,0,0,.59,10.8,99.6,99.6,0,0,0,2.13,11.07,80.77,80.77,0,0,0,5.91,15c2,4.11,4.22,8.06,6,12.25,1.65,3.89,3.29,7.77,4.87,11.69,3.27,8.15,6,16.28,6.81,25.06l.33,4.71,1.16,5.44A105.09,105.09,0,0,1,124.92,568c0,2.81,0,5.61,0,8.42a24.68,24.68,0,0,1-.38,5.94,61,61,0,0,1-1,6.44,48,48,0,0,1-2.72,10.45l1.1-1.18-5.21,5.2,5.26-2.7c-4,1.27-8,2.66-12,3.89a36.9,36.9,0,0,1-7.17,1.11l1.54-.13L98.54,605l1.53.21-6.14-1.59,1.47.49a12,12,0,0,1-3.83-1.94,18.68,18.68,0,0,0-4-1.46q-3.33-1.26-6.76-2.21a150.83,150.83,0,0,0-56.33-7.41l50.43,13.77a56.13,56.13,0,0,0-4.24-9.14,9.16,9.16,0,0,0-5.86-1.16q-11-.32-22.09-.19t-22.08.44A9.06,9.06,0,0,0,14.77,596l-1.71,2A9.22,9.22,0,0,0,19,599q7.84,0,15.69-.35,9.8-.3,19.59-.83A79.68,79.68,0,0,0,67.81,596.5Z"/>
    <path class="cls-5" d="M67.83,605.63l4.49-.25L49,601.71l19.29,4.84L52,601.71l18.82,7.54-15.47-6.9,18.94,13.42-14-10.8,18.84,18.38-9.46-9.78c7.15,7.91,14,16.33,21.43,24.08a86.13,86.13,0,0,0,8.58,7.84,64.67,64.67,0,0,0,18.85,10.71,19,19,0,0,0,9.57,1.23,31.78,31.78,0,0,0,13.07-5.87A73.3,73.3,0,0,0,156.81,636a94.46,94.46,0,0,0,11.65-19.58,82.76,82.76,0,0,0,4-10.11l1.73-6.51A61,61,0,0,0,177.39,578l-.33-11.4a105.39,105.39,0,0,0-2.67-15.39,85.24,85.24,0,0,0-4.27-14.73A198.13,198.13,0,0,0,158,509.58c-3.87-7.29-8-14.51-12.22-21.61-4-6.78-8.25-13.46-11.95-20.42a140.22,140.22,0,0,1-7.12-15.27,56.31,56.31,0,0,1-2.87-8.81,36.81,36.81,0,0,1-.61-10.21l-.29,1.66,1.24-6-.39,1.67,1.84-3.82-4.39,7,7-10.22L120,433.72l9.11-10.23-6.87,6.83,10-9.39-7.55,6.21,10.93-8.59,6.2-4.5,3.3-2.63,4.31-4.28,2.4-3.5,4-9.38,3-10.06,2.23-10.57c1-5.87,1.56-11.71,2-17.63.6-8.09,1.31-16.07.09-24.15a57.86,57.86,0,0,0-9.72-23.91c-6.85-10.12-16.35-18.18-25.74-25.86s-19.38-14.79-28.43-22.94a74.41,74.41,0,0,1-10.26-11,20,20,0,0,1-3.47-5.51,21,21,0,0,1-2.94-8.32l.14,5,3.58-17.18-3.15,7.43,5-10.79-6,11.29,6.71-11.54-5.26,7.91,7.8-10.73-8.18,9.93,11.23-12.26-9.14,9.16,9-7.56L87.82,220a55.54,55.54,0,0,1,32.46-4.07q6.75.18,13.48.14c3.42-.46,6.72-1.39,9.31-3.77,4.26-3.91,5.38-10.86,5.21-16.31-.29-9.22-4.47-17.78-9.52-25.26A102,102,0,0,0,123.05,153c-2.93-2.71-12.26-8.76-15.68-10.65a120.93,120.93,0,0,0-23.49-9.69A133.55,133.55,0,0,0,69.56,129a24.66,24.66,0,0,1-10.83-4.29L60,125.9,55.91,122l1.15,1.26-1.91-3,5.08,15.47-5.54-22,1,16,.16-16.21L55,126.16l2-16L54.7,122.52l3-11.22-2.36,7.52L59.44,108l-3.13,7.24,5.36-10.28-3.81,6.89,6.36-9.68-4.51,6.5Q66.66,98.4,77.47,98l-1.76-.1,5.87.45-1.74-.37a178.32,178.32,0,0,1,21.44,6.4l-8.94-3.56,2.56,1.71-1.57-1.3L97.22,105l-1.43-1.53,3.48,4.9-1.21-1.74,3,5.49-1-1.93q2.18,4.68,3.93,9.54a121.46,121.46,0,0,1,4.82,19.56l1.54,7.3q1.59,8,3.7,15.84a25.35,25.35,0,0,0,3.74,7.85,9.62,9.62,0,0,0,9.81,3.19c7.06-1.74,12-7.89,15.37-14,5.24-9.28,7-20.23,9-30.56a81.06,81.06,0,0,0,2.24-21.39,49.94,49.94,0,0,0,.16-10.44A177.23,177.23,0,0,0,150,72a174.64,174.64,0,0,0-6-20,55,55,0,0,0-6.19-12.71,20.64,20.64,0,0,0-6.76-6.9,35.7,35.7,0,0,0-14.91-6c-9.47-2-19.42-1.41-28.86.32a57.5,57.5,0,0,0-9.91,2.3A113.53,113.53,0,0,0,64.77,34,119.39,119.39,0,0,0,38,51.11a186.73,186.73,0,0,0-21.25,21c-.9.55-.85,1,.13,1.4a19,19,0,0,0,6.55.14c4.18-.28,8.35-.65,12.51-1.14a18.76,18.76,0,0,0,6.42-1.31c4.29-3.71,8.08-7.9,12.37-11.62A86.66,86.66,0,0,1,72.63,47.29L79.4,44A87.88,87.88,0,0,1,93,40.88l7,0a60.12,60.12,0,0,1,13.39,2.2l-.83-.23,6.13,2.58-.76-.41,5.46,3.68-.67-.56,4,3.9-.57-.67L129.42,56l-.49-.74a31.93,31.93,0,0,1,2.81,6.5c.72,2,1.36,4.09,1.9,6.18A169.4,169.4,0,0,1,138,86.29l1.21,7.38q.38,7.69.2,15.39l-2.27,8.08A43.22,43.22,0,0,1,130.67,132l.45-.78-4.75,6.41L127,137a49,49,0,0,0-6.73,6.62l1-.16-3.08.39,1,.15a13.82,13.82,0,0,0-4.71-1.47l1,.54c-2.2-1.5-3.36-3.92-4.53-6.27l1,2.46-1-2.55L116.36,162l-.9-7.53.12,2.51c.23-12.34,2.43-24.59,1.86-36.95a23.38,23.38,0,0,0-1.88-9.34,10.42,10.42,0,0,0-2.69-4.49,21.86,21.86,0,0,0-4.72-2.7l1.62,1c-4.28-4.84-8.7-9.68-14.58-12.65A28.44,28.44,0,0,0,80,88.75,28.82,28.82,0,0,0,67.45,93c-7.54,4.89-8.9,10.26-14.75,19.3a7.37,7.37,0,0,0-.4,3.29,58.94,58.94,0,0,0,.2,6.37l.38,4.71a11,11,0,0,0,1,4.85l2.31,3.3,2.71,3.12,4.22,2.43,4.69,2.07,5.58,2.14,6.27,1.63c4.75,1.56,9.43,3.54,14,5.55a77.75,77.75,0,0,1,12.28,7,23.21,23.21,0,0,1,5.83,4.7,51.83,51.83,0,0,1,5.5,5.59,17.25,17.25,0,0,1,4.47,6.09,34.66,34.66,0,0,1,3.31,6.58,14.09,14.09,0,0,1,2,5.81,23.23,23.23,0,0,1,.53,8.48v-.92l-.52,4.6.2-.9-1.66,4.61.37-.86-2,4,.5-.8a12.84,12.84,0,0,1-4.59,4.64,19,19,0,0,1-6.6,2.6l1.89-.38-4,.43,18.26.47-4.73-1,1.79.42c-9.64-3.18-21.83-9.51-31.65-3.65-1.18.74-2.34,1.52-3.48,2.32a55.1,55.1,0,0,0-3.77,4.31c-2.52,3.08-5.48,6.2-6.91,10-2.5,6.61-4.4,13.07-3.81,20a68.78,68.78,0,0,0,2,7.85A47.7,47.7,0,0,0,85.73,265a129.4,129.4,0,0,0,16.21,16.14q6.63,5.6,13.23,11.23a135.22,135.22,0,0,1,13,12.69l-.6-.64c4.15,5.05,8.34,10,11.71,15.63a23,23,0,0,1,3,5.7,39.5,39.5,0,0,1,2.78,8.14l-.18-.88,1.11,5.87-.1-.9.54,5.88,0-.91.14,5.73v-.91a238.93,238.93,0,0,1-2.53,25,164,164,0,0,1-5.7,25.64,35.42,35.42,0,0,1-3.7,9.37,36.41,36.41,0,0,1-4.18,7.65c-1.68,2.31-3.54,4.5-5.4,6.66a66.26,66.26,0,0,0-5,5.88,43.86,43.86,0,0,0-6.18,12.65,28.19,28.19,0,0,0-.28,12.06,33.32,33.32,0,0,0,1.12,5.5,31.82,31.82,0,0,0,3.35,9.14c1.9,4.19,3.92,8.33,6,12.44,5.57,11.09,12.45,21.51,17.59,32.82,2.57,5.65,4.61,11.52,6.91,17.28A116.3,116.3,0,0,1,154.82,550,120.35,120.35,0,0,1,157,567.24c.58,10.71-1.11,21.36-2.77,31.88l.31-.9a29.33,29.33,0,0,1-7,12.91,70.55,70.55,0,0,1-7.82,8.67l.72-.7L135.7,623l.81-.61-5.35,3.6.9-.49-5,2.54,1-.37a49.79,49.79,0,0,1-9.23,2.93,34,34,0,0,1-7.4.28l1.1.21-4.49-1,1.09.3a28.58,28.58,0,0,0-4.83-1.75l1.06.38C100.14,627.08,95,625,90,622.6c-2.64-1.25-5.19-2.66-7.75-4.07-3.22-1.78-6.21-3.95-9.25-6l16.85,20.28a102.93,102.93,0,0,1-12.21-22.93A17.42,17.42,0,0,0,72.57,604a12.84,12.84,0,0,0-4.18-1.37c-2.77-.67-5.56-1.24-8.37-1.69l-6.24-1a19.34,19.34,0,0,0-6.6-.44l-2.8,1.09c-3,1.15,3.61,2.49,4.09,2.58,2.83.57,5.67,1,8.54,1.35Q62.4,605.29,67.83,605.63Z"/>
    <path class="cls-5" d="M70.92,595l6.92-.58-11.32.23a22.39,22.39,0,0,1,7.42,2.07l-1-.77c4,6,7.36,12.37,11.19,18.48a65.46,65.46,0,0,0,9,10.78c8.45,8.57,17.51,17.25,28.63,22.23a38,38,0,0,0,7.76,2.72c4.52.93,8.34.14,12.61-1.73a50.1,50.1,0,0,0,11.94-7.79c8.66-7.14,15.35-16.92,20.37-26.86,6.28-12.44,9.56-25.74,11.23-39.5a97.32,97.32,0,0,0-2.07-32.76,153.62,153.62,0,0,0-10.14-29.71c-7.45-16.27-17.16-31.49-26.53-46.69-5.08-8.23-10.11-16.58-13.81-25.55a69.56,69.56,0,0,1-3.85-11.69,33.87,33.87,0,0,1-.3-10.1l-.29,1.76,3.09-8-6.93,11.78,7.94-12L124.63,422l8.29-9.59-5.66,6.1,9-8.83-6.06,5.55q6.45-5.47,13.17-10.62,5-3.68,9.61-7.69a36.23,36.23,0,0,0,6.63-7.79,88.36,88.36,0,0,0,7-19.58,145.8,145.8,0,0,0,3.64-21.68c.53-6.39,1-12.86,1-19.28a58.78,58.78,0,0,0-7.37-29.73,54.1,54.1,0,0,0-6.4-9.68,104.47,104.47,0,0,0-12.87-13.06c-10-8.93-21-16.81-31.64-24.93l.7.56c-6.25-5-13.24-10.25-18.26-16.61l-4-5.49a26.61,26.61,0,0,1-4-11.08l-.08,5.34,1.69-10.2L86.64,222l4-11.95-4.15,9.17,6.1-12.55L88,215.54l7-12-7.16,11.38,7.24-10L90,211.5,95.82,206l-1.49.78,5.26-2.55-1.55.56,6.46-1.45-1.54.34,6.66-.67-1.52.09q6.3.5,12.58,1.26a54.22,54.22,0,0,0,9.44.73A66.18,66.18,0,0,0,140.61,204c4.08-.71,8.45-1.42,11.56-4.49,2.41-2.39,3.8-7,4.39-10.17,1.47-7.71-.51-15.88-3.59-22.93a77.45,77.45,0,0,0-10.66-16.69,83.93,83.93,0,0,0-11.37-10.69,61.31,61.31,0,0,0-12.47-8.74A104.33,104.33,0,0,0,101.39,122a170.49,170.49,0,0,0-31-8.72l.82.2a15.68,15.68,0,0,1-8-2.92,9.82,9.82,0,0,1-4.51-4.14l3.45,8.68L58,101.28l1.3,15.89L60,94.44l-2,16.15,2.45-11.44-2.06,7.95A33.62,33.62,0,0,1,65.64,94a32.12,32.12,0,0,1,5.88-5l-1.43.88,5-2.79-1.5.7L79,85.69l-1.55.51,5-.6,5.24.07,6.07,2L100,90.55l6,4.13L109,97a23,23,0,0,1,4.27,5.77,8.77,8.77,0,0,1,2,5.4,116.11,116.11,0,0,1,1.86,13.53,16.83,16.83,0,0,1,0,6.67q-.33,3.13-.73,6.24c-.39,3.12-.7,6.24-.91,9.37a13.56,13.56,0,0,0,.18,4.46,36.22,36.22,0,0,0,5,12.47c1.41,2.25,3.2,4.67,5.68,5.84l3.49.68,4.27-.26.74-.12L140,165.2l6.58-5.13,6.59-8.16,5.3-10.17a17.72,17.72,0,0,0,1.9-7,61.05,61.05,0,0,0,2.45-12.77c.34-2.26.64-4.53.92-6.8a64,64,0,0,0,.48-6.93q.25-3.46.45-6.93c-.09-3.36-.64-7.35-1.07-10.68-.63-4.79-1.48-9.55-2.35-14.3a230.73,230.73,0,0,0-7.91-31.15A140.12,140.12,0,0,0,148,31a43,43,0,0,0-2.68-5.23l-3.73-5-5.47-4.55-7.19-3.72-9.39-2.43L109.22,9l-10.7.23-10.9,1.95L77,14l-9.62,4.17a78.81,78.81,0,0,0-13.22,7.23A155.83,155.83,0,0,0,39,36.11c-4.29,3.5-8.44,7.12-12.37,11-4.4,4.36-8.49,8.91-12.52,13.62-1,1.24,3.64,2.6,4.15,2.77a39.54,39.54,0,0,0,4.16,1.19,4.51,4.51,0,0,0,3.07.15l4.91-5.2-.55.54c7.2-7,14.53-13.73,22.88-19.37q7.29-4.74,15-8.75a102.65,102.65,0,0,1,12.81-4.66,32.41,32.41,0,0,1,13.75-2.17,49.11,49.11,0,0,1,17.57,1.53,58.66,58.66,0,0,1,15,5.84A33.64,33.64,0,0,1,135,40.32l-.5-.74L138,45.11l-.46-.76c4.84,10.71,8.32,21.89,11.43,33.21q1.52,5.31,2.62,10.72,5.49,16.75-3.06,33.78,3.31,19.89-10,31.41-6.95,6.45-14.87,4.21l.76.5a14.6,14.6,0,0,1-4.7-5.11l2.49,5.34a15.75,15.75,0,0,1-.48-7.09,32,32,0,0,1,1.06-8.76c1.11-5.64,2.6-11.17,3.14-16.9.36-3.57.66-7.14.87-10.73l.08-7.49a31.73,31.73,0,0,0-1.76-7l-2.54-4.68a15.6,15.6,0,0,1-5.71-5.47,35.42,35.42,0,0,0-7.5-7.67l-.61-.56a32,32,0,0,0-11.4-6.52L91.84,74.1a24,24,0,0,0-7.52,0A33.22,33.22,0,0,0,64.61,84.22a37,37,0,0,0-6.3,8.38,18.15,18.15,0,0,0-2.51,8.53,101.94,101.94,0,0,0-.23,11.19,15.78,15.78,0,0,0,2,6.59A8.33,8.33,0,0,0,61,123.3a21.76,21.76,0,0,0,5.39,3.49c5.22,2.57,10.87,3.77,16.45,5.35l-.81-.25a150.73,150.73,0,0,1,17.05,6.39A94.45,94.45,0,0,1,116,148l6.46,5.07,6,6.21a34.85,34.85,0,0,1,7.09,10.12,47.27,47.27,0,0,1,4.6,10.68l-.17-.84,1.12,6.69,0-.86,0,6.76.05-.85a14.36,14.36,0,0,1-2.07,6.15,7.27,7.27,0,0,1-3.15,3.93l1.24-.73-4.63,1.81L143,201.09l-4.62-.46,1.38.29a78.92,78.92,0,0,1-10.39-3.42,55.08,55.08,0,0,0-8.55-3.21c-5.28-1.66-10.31-2.9-15.8-1.54a5.94,5.94,0,0,0-3.64,1.5,86.15,86.15,0,0,0-11.64,11.51l-1.67,3.11q-2.22,4.51-4.15,9.17a35,35,0,0,0-2.41,11.37,31.52,31.52,0,0,0,1.26,9.44,41.26,41.26,0,0,0,6.39,11.23l4.65,5.38a138.8,138.8,0,0,0,11.65,10.7q7.22,5.93,14.5,11.81l-.68-.57L127,284l-.65-.6,7.08,6.83-.61-.65c4.6,5.15,9.34,10.18,13.33,15.83a27,27,0,0,1,3.63,5.85,44.22,44.22,0,0,1,3.7,8.39l-.26-.86,1.65,6-.2-.87a78,78,0,0,1,1.36,14.95C156,344,155.44,349,154.94,354c-.87,8.82-2,17.67-4.4,26.24l-3,9.82a47.44,47.44,0,0,1-6.76,12.31l1-1.3-7.48,7,9.84-8.26A50.24,50.24,0,0,0,131,409a12.53,12.53,0,0,0-3.37,4.1,82.29,82.29,0,0,0-6.93,11.78c-2.29,5-2.11,11-1.28,16.28a33,33,0,0,0,3.71,11.71q2.14,4.69,4.5,9.31c3.77,7.51,8.15,14.67,12.51,21.85a235,235,0,0,1,12.95,23.54q2.56,5.7,5.53,11.2a132.59,132.59,0,0,1,6.83,16.45A102.32,102.32,0,0,1,170,552.61a98.27,98.27,0,0,1,1.49,18.2l0-.82L171,580.17l.1-.82-1.77,10.27.14-.8L168,595.1l.22-.78-2,6.56.27-.75L164,606.74l.34-.72c-3.14,6.56-6.23,12.83-10.83,18.52l-4.62,5.4a63.81,63.81,0,0,1-10.31,8.29l.67-.37-5.43,2.58.7-.3a14.19,14.19,0,0,1-7.47,1.42,37.17,37.17,0,0,1-6.34-1.39l.93.37a81.93,81.93,0,0,1-10.86-5.09,89.67,89.67,0,0,1-9.91-6.7l3.76,3.49a48.07,48.07,0,0,1-8-10,41,41,0,0,1-4.24-8.73q-2.06-5.19-3.7-10.52a12.66,12.66,0,0,0-2.83-6.73,14,14,0,0,0-3.76-4.23,8.7,8.7,0,0,0-4.38-.55,66.49,66.49,0,0,0-14.5,1.37c-.66.14-2.84,1.11-1.33,2l1.53.37A64.78,64.78,0,0,0,70.92,595Z"/>
    <path class="cls-5" d="M60.05,606.74l19.43,13.44-32.6-21,34.39,27L60.05,606.74,84.13,629.8l-12.88-13c7.28,7.53,14.42,15.22,22,22.42a89.23,89.23,0,0,0,8.9,7.44,96.34,96.34,0,0,0,9.26,5.8,49.15,49.15,0,0,0,8.38,3.92A19.71,19.71,0,0,0,128,657.7a27.77,27.77,0,0,0,11.73-4.24,47.61,47.61,0,0,0,8.05-6.65,45.63,45.63,0,0,0,7.36-8.27,108,108,0,0,0,9.66-15.8,82.67,82.67,0,0,0,6.34-16.23l1.38-6.12a37.61,37.61,0,0,0,2.65-14.79,98.1,98.1,0,0,0-.13-16.17l-1.59-10A86.17,86.17,0,0,0,169.68,545q-2.12-6.93-4.88-13.65c-5.75-13.26-12.85-25.93-20-38.5-3.78-6.67-7.77-13.26-11.27-20.09a189.64,189.64,0,0,1-8.08-18.28l.35,1-2.07-6.9.31,1.06a29.46,29.46,0,0,1-.91-7.87,17.76,17.76,0,0,1,.75-7l-.94,2.47,2.67-6.41-4.08,6.91,5.32-8L118.53,440l11.18-13.11-9.31,9.47a205.32,205.32,0,0,1,19-17.39q2.7-2.31,5.37-4.68c5-5,7.38-10.79,9.72-17.48a101.77,101.77,0,0,0,4.08-15.32,112,112,0,0,0,2.59-16.2,197.61,197.61,0,0,0,1.27-21.48,52.8,52.8,0,0,0-4.87-22,73.16,73.16,0,0,0-12.63-18.17c-8.45-9-18.36-16.74-27.93-24.53q-7-5.53-13.67-11.37a103,103,0,0,1-11-11l.7.82a34.36,34.36,0,0,1-5.55-8.29,23.42,23.42,0,0,1-3.17-8.38l.15,2.54.06-5.81,0,2.53.52-6.05-.24,2.53a35.1,35.1,0,0,1,1.15-5.46,20.64,20.64,0,0,1,2-5.36L78,243.42l14.13-23.94L73.88,241.3,119.67,216,88.9,222l32.82-4.1-23.27,1.92q15-.6,30.06-1.58c1.76-.08,3.52-.24,5.26-.48,2.82-.54,6.76-2.19,8.65-4.5l2.55-4.16a18.53,18.53,0,0,0,1.54-8.44,21.66,21.66,0,0,0-1.26-9.74,35.1,35.1,0,0,0-4.61-10.27,79.86,79.86,0,0,0-12.54-15.93,64,64,0,0,0-9.58-8.21q-5.05-3.92-10.47-7.32a123.41,123.41,0,0,0-22.21-10.09l-7.15-2.3a79.3,79.3,0,0,1-12.28-3.51l1,.34a24.7,24.7,0,0,1-7.23-5.56l1.47,2L58.34,125l3.13,6.79-2.82-7.7,3,11.71-3.34-14.88L60.45,140l-1.7-22.45,0,19.17.9-22.49-3.18,24.13L63,107.85l-6.38,18.46L65.37,105,54.7,127.26l13.4-24.91L55,123.71l16.16-23.52-18.36,22,61.83-3.41L79.82,100.67l34.51,51.63-13.4-30,9.21,23.92-7.3-20.75q5.09,14.86,9.92,29.83a54.26,54.26,0,0,0,3.29,9,18.53,18.53,0,0,0,3.58,6,14.11,14.11,0,0,0,2.82,2.4l3,.86a10.28,10.28,0,0,0,6.34-1.11,12.54,12.54,0,0,0,7.75-6.12l5-7.74a31.55,31.55,0,0,0,4.51-14.81c1.06-8.1,1.25-16.25,1.6-24.41q.27-7,.62-14A44.58,44.58,0,0,0,150.59,92l-.94-8.47q-1.14-5.7-2.45-11.35a132.42,132.42,0,0,0-4.55-15.75l-1.88-5a20.74,20.74,0,0,0-3.54-6.64,19,19,0,0,0-6.35-6.53l-6.28-3.45a42.47,42.47,0,0,0-11.81-2.39,54.28,54.28,0,0,0-13-.34A102.28,102.28,0,0,0,78.43,36.5q-6.48,2-12.74,4.57l-7.9,4.23A113,113,0,0,0,37.17,59.76c-5.28,4.73-10.16,9.87-15,15.05a4.62,4.62,0,0,0,3.94.87q5.13-.14,10.24-.58,6.41-.43,12.78-1.1a34.69,34.69,0,0,0,8.78-1.46c4.68-3,8.88-6.52,13.36-9.79l-1,.62,6.34-3.73-1,.57,6.55-3.44-1,.5A108.3,108.3,0,0,1,93.62,54a49.07,49.07,0,0,1,8.22.74,11.18,11.18,0,0,1,6,1.9,25.84,25.84,0,0,0,6.85,3.85l-.84-.6,3.23,2.79-.7-.78q1.71,2.7,3.58,5.3a13.55,13.55,0,0,1,2.5,4.88l-.3-1.06,1.26,5.25-.22-1.09.82,4.55-.16-1.1c.58,4.28,1.24,8.56,1.74,12.85a145,145,0,0,1,.62,15.46l.12-1.11-1.49,7.54.23-1.1-1.9,7.63.35-1.08c-2.69,3.44-5.48,6.73-8.34,10l9.38-1.48q-8.07,3.62-14.59.08l1.16.93a3.91,3.91,0,0,1-1.28-1.7,6.85,6.85,0,0,0-1.94-2.53c-2.48-3.19-4.59-6.76-6.85-10.08l14.88,42.31-4.35-46.83a5,5,0,0,0-3.66-2.19q-7.37-2.31-14.86-4.2t-15-3.59a5,5,0,0,0-4.26.12l-1.67.66,36.47,8a57.19,57.19,0,0,0-9.25-8.75,31.64,31.64,0,0,0-7.84-4,23,23,0,0,0-4.86-1.21,27,27,0,0,0-7.49,0,27.69,27.69,0,0,0-6.58,4.49q-4.5,3.56-8.85,7.28c-2.36,1.94-4.66,4-6.88,6.06A3.84,3.84,0,0,0,55,115.21a95.18,95.18,0,0,0,1.31,27.67,6.48,6.48,0,0,0,2.81,4.72,33.79,33.79,0,0,0,6,4.4,46.33,46.33,0,0,0,6.22,3.22,22.1,22.1,0,0,0,3,1.18,33.66,33.66,0,0,1,7.12,3.32L87,161.89a39.75,39.75,0,0,0,5.55,3.8,84.89,84.89,0,0,1,7.33,4.89l4.16,4.09a18.78,18.78,0,0,1,5.21,6.74,39.3,39.3,0,0,1,3.27,7.17,30.08,30.08,0,0,1,0,10.91l.23-1.11q-1.23,2.77-2.34,5.61l.67-1q-2,2.46-3.89,5l1-.81L104.83,210l1-.72q-3.3,2-6.47,4.21l1.08-.64c-3.07,1.51-6.07,3.16-9.17,4.59-8.34,3.84-8.61,9.77-15.19,20.37-1.32,2.14-3.16,4.42-3.81,6.9v4.4a22.18,22.18,0,0,0,.88,6.74,42.75,42.75,0,0,0,2.25,7.62c1,2.35,2.16,4.69,3.42,6.93a87.05,87.05,0,0,0,11.07,15c8.52,9.59,18.3,18,26.52,27.84a82.6,82.6,0,0,1,7.9,11.21c2.43,4.16,5,8.23,6.61,12.81,4.87,14,1.48,29.32-1,43.39s-5.57,28.52-12.13,41.47c-2.17,4.29-4.59,8.48-6.5,12.89a61.18,61.18,0,0,0-3.87,10.9,53.73,53.73,0,0,0-1.28,9.62c-.32,7.82,1.78,15.63,4.71,22.8,1.83,4.47,4.29,8.67,6.45,13,2.51,5,4.8,10.19,7.22,15.27,4.33,9.11,8.26,18.2,10.54,28.05a60.21,60.21,0,0,0,2.09,8.8,63.29,63.29,0,0,1,1.77,6.89,93.38,93.38,0,0,1,2.33,17.55,117,117,0,0,1-.5,15.55A90.54,90.54,0,0,1,138.2,598a16.8,16.8,0,0,1-5.79,11.4l3.94-2.11a17,17,0,0,0-9.25,4.81l1.11-.68c-4.85,2.94-9.72,5.93-15.49,6.61a24.54,24.54,0,0,1-5.74.25c-1-.09-1.88-.21-2.82-.37a10.63,10.63,0,0,1-4.13-1.24l1.34.66c-2.4-1.63-5.08-2.42-7.8-3.43-3.73-1.38-7.46-2.74-11.17-4.18-9.76-3.8-19.28-8.16-29-12.08q-2.24-1.12-.95,1A53.65,53.65,0,0,0,60.05,606.74Z"/>
    <path class="cls-5" d="M66.37,599.38l1.4-.16-47.58-2.06,44.75,4-47-6.34,56.29,16.75L27.42,590.88,85.11,625.2l-3.47-2.49c6.48,5.23,12.83,10.53,20,14.72A106.62,106.62,0,0,0,112.48,643c2.88,1.27,6.89,2.85,10.12,2.86,9.35,0,17.29-6.18,23.67-12.38a79.29,79.29,0,0,0,6.78-8.31,52.27,52.27,0,0,0,5.81-9,102.46,102.46,0,0,0,7-15.57,32.84,32.84,0,0,0,1.83-6.14q1.44-6,3.15-12l.62-10.11a60,60,0,0,0-1-15,110.55,110.55,0,0,0-2.84-14.41l-2.92-9a194.82,194.82,0,0,0-11.09-25.26c-6.11-12-12.87-23.57-19.26-35.38a157.48,157.48,0,0,1-8.87-18.65l-2.15-5.9a46.21,46.21,0,0,1-2.26-11l.11,1.61a25.52,25.52,0,0,1,.76-9.65l-1.5,4.14,3.2-8L100.16,467.8l32.15-50.63-25.63,29.14,32.11-34.25-3,3.14a61.78,61.78,0,0,0,8.81-9.55c1-1.75,2.09-3.5,3.11-5.27a125,125,0,0,0,6.62-19.85L156.57,370a130.89,130.89,0,0,0,1.93-16.63q.5-5.31.82-10.63A61.4,61.4,0,0,0,157.64,324a57.44,57.44,0,0,0-10.38-20.57c-6.3-8.09-14.49-14.72-22.34-21.22-8-6.65-16.36-13-24-20a96.15,96.15,0,0,1-10.57-11.07,42.45,42.45,0,0,1-6.61-11.2l.63,1.5-1.56-5.63,0,4.42.28-7.66-.2,4.4.78-7.89-.46,4.38,1.3-7.9-.72,4.32.87-3.67L70,267.41,94.75,210l-27.44,39,32.42-37.58L65,243.45l43.37-31L67.49,234.77q32.25-11,63.82-23.79a9.49,9.49,0,0,0,3.29-1.67l3.49-2.9a14.65,14.65,0,0,0,3.49-7.11,21.2,21.2,0,0,0,1.19-8.92l-1.26-6.73A26.85,26.85,0,0,0,137,173.2a58.2,58.2,0,0,0-7.11-9.91c-9.47-10-21.12-17.44-33.48-23.26a132.74,132.74,0,0,0-20.7-7.72l-6.33-1.64A17.62,17.62,0,0,1,60,125.76l1.19,1.07-4-6.55L69.15,157.5l-12.21-44,6.78,52,4.37-70-18,43.9L72.81,95.68,49.12,131.49,80,94.14,46.28,126.69,99.56,99.6l-48.29,12,57.84.76L59.45,100.21l51.42,48.48-6-11.43q2.83,6.56,6.25,12.81,1.24,2.37,2.59,4.68a24.24,24.24,0,0,0,3.12,3.44,10.59,10.59,0,0,0,9.3,2.53l4.79-1.57a30.8,30.8,0,0,0,7.46-8.31,43.29,43.29,0,0,0,6.88-12.45l1.3-10q.25-7.23.18-14.47,0-4.55-.12-9.07c-.33-14.34-1-28.81-4.35-42.83a137.64,137.64,0,0,0-4.1-14.37c-1.45-4.06-3-8-5.9-11.2l-4.76-4.08a17.74,17.74,0,0,0-10.24-4.14A51.84,51.84,0,0,0,104.89,27l-9,.33a114.24,114.24,0,0,0-12.48,3.22A61.81,61.81,0,0,0,71.64,35l-7.42,3.38q-5.3,2.87-10.46,6C42.41,51.13,32.57,60,23.44,69.47a8.92,8.92,0,0,0,5.56,2q7.57,1.32,15.2,2.34,9.49,1.38,19,2.54a76.82,76.82,0,0,0,13.28,1.06L81.25,76a58.13,58.13,0,0,1,5.93-2.5,47.53,47.53,0,0,1,10.24-2.25l-1.56,0,4.93.45-1.54-.18,5.1,1-5-2.66,5.19,3.51-24.8-27q14,17.14,29,33.34l-.57-1.43a12.38,12.38,0,0,0,.5,3.37,8,8,0,0,1,1.42,4.1L110,84.14a186,186,0,0,1-.77,18.73l.32-1.51-1.29,5.52.42-1.47-1.6,5.71,26.71-26.59-30.15,27.29,1.33.89-2.07-1.44,1.25,1a9.88,9.88,0,0,1-2.05-2.55,12.63,12.63,0,0,0-3.46-2.7q-2.61-1.92-5.09-4A68.5,68.5,0,0,0,68,93.83a8.7,8.7,0,0,0-3.32,4.81q-4.55,9.78-8.69,19.75t-8.1,20a8.76,8.76,0,0,0-1.13,5.73,30.3,30.3,0,0,0,4.82,10.37q2,3,4.2,5.89a48.32,48.32,0,0,0,9.57,7.91c3.55,2.19,7.29,4.35,11,6.17l4.58,2.1a49.08,49.08,0,0,0,7.34,5.14l-1.16-1.09c2.18,3.34,5,6.11,7.42,9.24l-.83-1.32L96,192.67l-.69-1.39,2,4.63-.53-1.46a16.64,16.64,0,0,1,.48,5l1.12-4-1.47,5.23,1.7-3.77-2.65,5.51,7.72-10.29L94.21,204,91,207.19,65.38,247.68a7.77,7.77,0,0,0-2.26,4.58c-.42,2.51.22,5.45.59,7.94A65,65,0,0,0,66.1,270c2.25,7.19,6.25,13.6,10.52,19.76A277,277,0,0,0,94.21,312c6.25,7.27,12.85,14.56,17.18,23.19,1.42,2.83,2.53,5.77,3.89,8.62a32.25,32.25,0,0,1,2.4,7.69c1.1,5.6.54,11.63-.17,17.26-.87,6.76-2.38,13.47-3.76,20.13-2.62,12.64-5.49,25.12-10,37.26-1.45,3.94-3.06,7.84-4.2,11.88-.71,2.56-1.45,5.1-2.21,7.64l-.88,5.21a66.6,66.6,0,0,0-.92,10.55,81.49,81.49,0,0,0,.66,10.81,101.74,101.74,0,0,0,2.17,11.05,83.44,83.44,0,0,0,5.92,15c2,4.12,4.2,8.08,6,12.28,1.64,3.9,3.26,7.79,4.81,11.72,3.2,8.14,5.85,16.27,6.54,25l.27,4.66,1.09,5.4a106.75,106.75,0,0,1,1.21,10.83l-.09,8.37a24.91,24.91,0,0,1-.44,5.91,58.08,58.08,0,0,1-1.07,6.42,47.07,47.07,0,0,1-2.87,10.4l1.12-1.11-5.18,5,5.27-2.4c-4.79,1.31-9.45,2.72-14.21,4.09l1.51-.39-4.07.57,1.56-.21-3.42.28,1.57,0-3.85-.34,1.58.16-3.46-.35,1.56.33q-3-.89-6-1.67l1.49.61-4-1.79,1.46.71a18.57,18.57,0,0,0-5.24-2.41c-2.9-1-5.82-1.91-8.75-2.84-19.7-6.24-28.76-4.39-58.35-2.7L16,595a4.59,4.59,0,0,0-3.18,2.65,8.85,8.85,0,0,0,5.75,1.3q7.67.43,15.34.56,9.59.29,19.18.32A76.61,76.61,0,0,0,66.37,599.38Z"/>
    <path class="cls-5" d="M73.35,615.51l10.25,5.68-30.51-21,30.08,23.2L62.32,606.22,86,627,73.35,615.51c11.3,10.78,22.41,23.22,36,31.47a56.92,56.92,0,0,0,15.33,6.8c8.1,2,15.94-2.84,22.06-7.62a45.84,45.84,0,0,0,7.78-7.72,74,74,0,0,0,6.87-8.88A102.55,102.55,0,0,0,170,613.29a55.5,55.5,0,0,0,2.48-6.58,52,52,0,0,0,2.59-9.5l2.42-9.59a96,96,0,0,0,.27-16.26,43,43,0,0,0-1-10.43,107.93,107.93,0,0,0-3.12-14.87A165.77,165.77,0,0,0,165,523.47c-6.11-13-13.12-25.52-20.32-38-3.19-5.5-6.41-11-9.35-16.65a171.42,171.42,0,0,1-8-18.26l.33,1.1-2-6.92.28,1.11a28.64,28.64,0,0,1-.82-7.87,17.71,17.71,0,0,1,.86-7l-1,2.63,2.83-6.52-17.45,25.45,26.63-34L124.35,430.3q8.46-7.64,17.39-14.67a51.05,51.05,0,0,0,8.43-8.06,27.21,27.21,0,0,0,3-4.78L157,393.3c4.37-11.92,6.12-24.69,7-37.26.46-6.19,1.06-12.33.69-18.53A53.11,53.11,0,0,0,159.83,318c-3.86-8.2-9.65-15-16.14-21.21-8-7.66-16.56-14.64-25.19-21.57q-7-5.5-13.75-11.33a98.41,98.41,0,0,1-11-11l.68.89-4.71-6.44.66.92A30.84,30.84,0,0,1,85.88,237l.07,2.71.23-6-.12,2.71.69-6.23-.33,2.7a36.57,36.57,0,0,1,5.34-14.11L76.38,241.72l20.91-28.18L75.8,235.67l51.28-21.57L100.5,218A229.62,229.62,0,0,0,134.68,215a21.58,21.58,0,0,0,5.6-1.49l1.05-.7a9.19,9.19,0,0,0,4.8-4.72,14.63,14.63,0,0,0,2.81-7.57l.24-6.17A32.11,32.11,0,0,0,146.49,184a34.66,34.66,0,0,0-5.42-10.4A93.7,93.7,0,0,0,127,158a110.92,110.92,0,0,0-17.46-12.72q-5.57-3-11.35-5.57A61.29,61.29,0,0,0,87,135.38l-7.19-2.23a75.67,75.67,0,0,1-12.35-3.44l1,.42a23.45,23.45,0,0,1-7.18-5.59l1.41,2.15-3.21-5.31L66.71,143l-7.8-28.14,2.25,28.08,4-41.34-7.54,22.29,9.53-22.51-11.57,23.8L70,98.76l-16.87,25.3,56.64-18.3-33-4.42,35.3,8.77L82.23,100.7l16.83,7.81-14.33-6.92,8.2,5.41-7.69-5.78,28.89,40.27-15.95-29,13,27.38-10.8-24.15L112,143.93l-7.13-18.5a233.87,233.87,0,0,0,12,33.62c.68,1.55,1.39,3.09,2.13,4.6a14.4,14.4,0,0,0,2.75,3.36,5.7,5.7,0,0,0,3.75,2.31,8.61,8.61,0,0,0,5.34.34l4.87-1.73a25.37,25.37,0,0,0,7.83-8.5,35.68,35.68,0,0,0,6.5-13.09l1.71-10.28q.69-7.37,1.22-14.75.43-4.82.59-9.65.34-7.14.63-14.28l-1.05-9a69.24,69.24,0,0,0-1.95-12.49q-1.2-5.61-2.6-11.16c-1.4-4.95-3-9.87-4.83-14.65a64.16,64.16,0,0,0-3-6.8l-3.27-4.68-4.86-4.22A21.92,21.92,0,0,0,122.32,30a45.41,45.41,0,0,0-12.45-1.72l-8.91.22a90.69,90.69,0,0,0-12.9,2.27,67.34,67.34,0,0,0-12.88,3.82l-8.39,3.22q-6,3-11.68,6.51C43,51.4,32.76,61.23,23.4,71.57A4,4,0,0,0,27,72.63c3.15.09,6.29.07,9.44-.06q5.9-.1,11.78-.46a29.73,29.73,0,0,0,8.14-1c4.78-3.12,9.18-6.71,13.82-10l-.93.57,6.55-3.81-1,.52,6.78-3.51-1,.46A111.69,111.69,0,0,1,93.47,51.8a67.58,67.58,0,0,1,11.36,1.11,25,25,0,0,1,6.76,3.73c1.22.63,2.45,1.22,3.7,1.76l-.83-.66,3.35,2.89-.69-.84c1.89,2.82,4.16,5.49,5.57,8.56a38.19,38.19,0,0,1,2.54,9.35q.78,4.48,1.54,9a158.31,158.31,0,0,1,1.72,18.19l.11-1.14-1.06,7.77.2-1.12-1.45,7.87.31-1.11c-2.64,4.12-5.38,8.08-8.31,12l.83-.78-3.18,2.44,3.92-.63a12,12,0,0,1-8.19-.76l1.13.75-.91-.94,1.73,3.08-2.57-4.65a19.75,19.75,0,0,1-2.2-3c-1.39-2.13-2.61-4.37-3.95-6.53l13.26,38.6c-.34-5.74-1-11.49-.69-17.24.18-3.94.52-7.86.62-11.81l.13-6.21-.24-5.93-1.62-5.32a14.63,14.63,0,0,0-2.89-4.16,34,34,0,0,0-6-5.09,40.73,40.73,0,0,0-8-6.15,13.37,13.37,0,0,0-4.91-2.46A14.9,14.9,0,0,0,89.61,91a18.87,18.87,0,0,0-5.27-.42,33.7,33.7,0,0,0-7.1,1.11A31,31,0,0,0,71,97.3q-4.23,4.33-8.27,8.84-3.31,3.54-6.39,7.28a4.21,4.21,0,0,0-1.61,3.48,124.54,124.54,0,0,0,7.79,30.3,2.39,2.39,0,0,0,1.31,1.9c4.09,3.15,9,4.79,13.83,6.53l-1-.44a111.93,111.93,0,0,0,11.76,5.11l-1-.43a63.31,63.31,0,0,0,9.06,5.84l-.92-.59,5.88,4-.87-.67,5.13,4.79-.8-.76,4.89,5.32-.7-.85a55.38,55.38,0,0,1,5.36,10.48l-.43-1a26.59,26.59,0,0,1,.91,9v-1.16l-.35,3.61.22-1.16c-.74,2-1.47,4-2.16,6l.64-1L109.41,207l.93-.86L107,209l1-.78c-1.85,1.16-3.68,2.35-5.5,3.55q-3.72,1.68-7.35,3.52l9.27-1.2-11.63,1a4.2,4.2,0,0,0-3,2.37q-3,3.87-5.65,7.93-3.48,5-6.75,10.13a31.35,31.35,0,0,0-4.1,7.4c0,3.09-.29,6.36.36,9.4.44,2,.93,4.07,1.5,6.08a49.15,49.15,0,0,0,4.38,10.1c9.2,16.86,25.42,28.42,37.64,42.87a82.8,82.8,0,0,1,8.06,11.27c2.47,4.17,5.27,8.23,6.87,12.85a54.09,54.09,0,0,1,2.54,20.18c-.27,7-1.53,14-2.73,20.9-.88,5.09-1.77,10.19-2.84,15.25A115.07,115.07,0,0,1,125,406.65a69.19,69.19,0,0,1-5.65,13.93l.56-1.09c-2.84,5.27-5.8,10.51-8.22,16a49,49,0,0,0-4.51,18.28A56.16,56.16,0,0,0,108,465l1.59,5.75,2,5.8c2.22,5.47,5.35,10.56,7.85,15.89,3.89,8.32,8.11,16.48,11.68,24.95a90.84,90.84,0,0,1,4.33,12.42c1,3.95,1.78,7.91,3,11.81a116.44,116.44,0,0,1,3.41,13.9,107,107,0,0,1,1.48,14.51,108.69,108.69,0,0,1-.78,16.72,62,62,0,0,1-1.53,10,17.67,17.67,0,0,1-5.44,11.92l3.8-2.34a18.07,18.07,0,0,0-9.1,5.63l1-.75c-4.43,3.13-8.81,6.23-14.13,7.67q-3.09.64-6.22,1a50.71,50.71,0,0,1-5.9-.53l1.32.4-4.22-1.39,1.3.49a22.78,22.78,0,0,0-5-2.13c-4-1.41-8-3.06-12-4.67-9-3.66-17.72-8-26.55-12.17l-1.31-.26a3.74,3.74,0,0,0,1.41,2.63C63.89,607,69,611.36,73.35,615.51Z"/>
    <path class="cls-5" d="M75,612.06l5.35,1.07-6-1.68q5.7,2.41,6.51,9a6.66,6.66,0,0,0,.65,7q1.55,3.24,3.19,6.43,4.23,5.31,8.57,10.55c3.94,4.69,7.81,9.48,12.6,13.36a85.66,85.66,0,0,0,7.85,5.64c5.78,3.67,12.54,7.09,19.57,6.54,7.59-.59,14.49-4.87,20.12-9.72l6.28-5.82A110.28,110.28,0,0,0,170.3,640.2c9.23-15.1,13.85-32.39,15.6-49.89,1.26-12.69-.75-25.53-4-37.76a157.4,157.4,0,0,0-13.83-34.13c-4.39-8.19-9.09-16.2-14-24.09-4.41-7.13-9-14.15-13.2-21.41-4.4-7.6-8.49-15.43-10.91-23.91a33.58,33.58,0,0,1-1.54-10.57,24.83,24.83,0,0,1,1.63-9.27l-.78,1.47,3-4.09L131,428l6.59-4.87,3.79-1.87c2.95-1.47,6.09-2.91,8.95-4.59a37.1,37.1,0,0,0,4.23-3,20.89,20.89,0,0,0,6-6.89l.27-.62,3.52-9.64A142.85,142.85,0,0,0,170,370c.57-4.78.85-9.48,1.14-14.27a113.43,113.43,0,0,0,.38-13.67,58,58,0,0,0-1.48-11.3c-.55-2.06-1.23-4.12-1.91-6.13-3-8.88-8.66-16.91-15-23.64-10.42-11-23-19.73-35-28.78-7.92-5.95-15.94-11.91-22.58-19.31a26,26,0,0,1-4.34-5.52A24.55,24.55,0,0,1,86,233.57L86,235a52.09,52.09,0,0,1,2.32-6.29q7.94-18.33,23-15.81a56.37,56.37,0,0,1,10.43,4q3.54,1.72,7.11,3.4a32.35,32.35,0,0,0,15,2.87,14.1,14.1,0,0,0,9.21-4.54l2.69-4.74a24.61,24.61,0,0,0,1.62-7.33,36.46,36.46,0,0,0-1.57-15.69,31.37,31.37,0,0,0-3.44-9.18,68,68,0,0,0-5.27-8.76l-6-7.77a108,108,0,0,0-16.51-14.3c-12.9-8.68-27.77-14.62-42.79-18.47l-20.65-4.81q-7.66-12.13,0-20.54a39.51,39.51,0,0,1,9.19-8.16,27.76,27.76,0,0,1,16.48-4.51,15.88,15.88,0,0,1,11.69,4.77A24.74,24.74,0,0,1,110,108.25c1.39,2.14,2.82,4.24,4.31,6.3a17.18,17.18,0,0,1,4.1,10.3,79.1,79.1,0,0,1-.93,11.7,87.44,87.44,0,0,1-1.6,8.93q-.87,4.08-1.78,8.14-.41,4.5-.46,9a56.94,56.94,0,0,0,2.88,10.87,40.52,40.52,0,0,0,3.2,7.66,11.3,11.3,0,0,0,4.76,4.63c1.4.4,2.81.76,4.24,1.07a12.39,12.39,0,0,0,7-1.22,18.32,18.32,0,0,0,9.61-6.46A57.87,57.87,0,0,0,157.57,160,157.14,157.14,0,0,0,163,132.85q1-7.27,1.41-14.61l-1.35-11.74c-1.59-12-4.71-23.58-7.72-35.23a144,144,0,0,0-7.65-22.89,73.51,73.51,0,0,0-3.48-7.14,67.54,67.54,0,0,0-4.75-5.55c-3.39-3.26-9.18-7.08-13.68-8.45A75.62,75.62,0,0,0,106,24.5a66.48,66.48,0,0,0-22.33,3.1,42.17,42.17,0,0,0-11.1,3.59l-8.92,4.28c-20.53,10.44-37.85,26.38-52.38,44-.88,1.06.39,2,1.26,2.2,1.14.27,3.26.57,4.08-.49A171.68,171.68,0,0,1,55.71,43.63a54.67,54.67,0,0,1,29.4-10.88q23.25-11.85,46.43,1.42A32.35,32.35,0,0,1,142.8,47.28a61.69,61.69,0,0,1,3.35,7.91q1.78,4.64,3.28,9.37,2,7.51,3.63,15.12c4.61,18.37,9,26,4,52a114.57,114.57,0,0,1-7.92,24.37l-5.85,7.12A39.82,39.82,0,0,1,131,171.55a16,16,0,0,1-7.28.18l.79.18a8.77,8.77,0,0,1-4.14-1.52,7.69,7.69,0,0,1-2.47-2l.8,1-1.36-1.9,3.42,10.47a29.6,29.6,0,0,1-.91-7.2l0,1.1A89.6,89.6,0,0,1,121,162q1.05-4.71,2.12-9.42a115,115,0,0,0,3.09-21.75c.15-5.21-.37-11.1-3.78-15.35-5.3-6.62-10.23-13.88-17.18-18.92a15.58,15.58,0,0,0-3.4-1.92,32,32,0,0,0-8.43-3.57,31.21,31.21,0,0,0-15.39.44c-9.46,2.7-17.47,9.53-22.47,17.9a26,26,0,0,0-2.71,5.9c-1.13,3.63-1.21,4.8-.1,8.39a9.11,9.11,0,0,0,2.37,4.3l4.4,2.41q3.12,1,6.31,1.67a109.85,109.85,0,0,1,10.81,2q5.86,1.19,11.59,2.89a109.14,109.14,0,0,1,25.92,11l16.3,12a69.73,69.73,0,0,1,16.8,23.87l2.12,7.87a32.41,32.41,0,0,1,.38,14.43q-.61,10.75-10.24,13.91l2.9-.08a19.49,19.49,0,0,1-9-2.63c-2.71-1.31-5.43-2.64-8.13-4-5.2-2.41-11.31-5.28-17.23-4.88l-4.75.63c-.8.34-1.59.7-2.38,1.07a22,22,0,0,0-7.19,5,48.51,48.51,0,0,0-6.46,8.87,35.23,35.23,0,0,0-4.24,10c-.31,1.45.16,2.72.42,4.23a19,19,0,0,0,2.93,8.4l3.75,5.51c3,4.08,7.46,8,11.25,11.24,7.09,6.12,14.81,11.4,22.19,17.15l16.66,13.51A106,106,0,0,1,153,307.36c6,8.09,10.79,17.36,12.27,27.4a79.5,79.5,0,0,1,.74,13.62c-.14,5.56-.6,11.15-1,16.71a113.59,113.59,0,0,1-2.49,16.42A116.92,116.92,0,0,1,158.58,397L153,409.92a17.14,17.14,0,0,1-7.21,5.36,55.21,55.21,0,0,1-8.37,4.32,14.63,14.63,0,0,0-4.28,2.53,22.9,22.9,0,0,0-3.68,3.21,21,21,0,0,0-3.07,4.21,14.57,14.57,0,0,0-.8,3,20.4,20.4,0,0,0-.86,7.25,46.73,46.73,0,0,0,2.54,13.44c3.26,10.15,8.93,19.47,14.39,28.55,11.16,18.55,23.45,36.72,30.59,57.33l3.12,9.67A97.12,97.12,0,0,1,178.28,564a107.31,107.31,0,0,1,.36,25.33,96.38,96.38,0,0,1-6.15,24.36,61,61,0,0,1-4.82,10.24,85.41,85.41,0,0,1-6.09,10L156.5,640a42.63,42.63,0,0,1-11.79,10.1l-6.49,3.75a48.06,48.06,0,0,1-11.86,3l.81,0c-9.64-.42-18.25-5.19-26.31-10.14l1,.66a19.32,19.32,0,0,1-4.94-3.75q-1.7-1.51-3.26-3.17l3.71,4.54a46.38,46.38,0,0,1-4.18-6.47,89,89,0,0,1-3.37-8.74l-.39-5.33a9.34,9.34,0,0,0-.78-5.84c-.79-1.65-4.37-6.58-6.12-7.51-2.72-1.46-6.29-1.74-9.26-2.31-1-.19-3.16-.48-3,1.13S74,611.85,75,612.06Z"/>
  </g>
  <g id="PORTFOLIO-4" data-name="PORTFOLIO" class="cls-2">
    <g class="cls-2">
      <path class="cls-6" d="M135.93,588.08,25,589.2l-.28-27.54q-.11-10,3.47-16a21.07,21.07,0,0,1,10.4-8.81A44.57,44.57,0,0,1,55.09,534a34.8,34.8,0,0,1,15.24,2.93,22.32,22.32,0,0,1,10,9q3.56,6,3.65,15l.12,12.19,51.66-.52ZM73,573.23,73,566.11a29.63,29.63,0,0,0-1.61-10.54A9.6,9.6,0,0,0,66,550.15q-3.8-1.62-10.64-1.54a48.88,48.88,0,0,0-12.18,1.28,8.54,8.54,0,0,0-5.84,4.93c-1.08,2.47-1.59,6.32-1.53,11.52l.07,7.27Z"/>
      <path class="cls-6" d="M136.22,493.94q.1,11.24-4.21,18a23.92,23.92,0,0,1-12.44,9.72,57.36,57.36,0,0,1-19.08,3.07l-42.07.42a53.81,53.81,0,0,1-18.87-2.75,23.48,23.48,0,0,1-12.15-9.47q-4.24-6.6-4.36-17.84t4.07-17.86a24,24,0,0,1,12-9.64,53.16,53.16,0,0,1,18.74-3.13L100,464A55.23,55.23,0,0,1,119,466.78a25,25,0,0,1,12.64,9.39Q136.1,482.71,136.22,493.94Zm-12.2.12c0-4.11-.91-7.2-2.63-9.29a12.52,12.52,0,0,0-7.16-4.17,46.81,46.81,0,0,0-10.77-1l-48.64.49a44.9,44.9,0,0,0-10.61,1.2,11.82,11.82,0,0,0-6.81,4.32Q35,488.8,35.1,495t2.49,9.36a11.69,11.69,0,0,0,6.89,4.25,45.05,45.05,0,0,0,10.63,1l48.65-.49a46.62,46.62,0,0,0,10.74-1.21,12.29,12.29,0,0,0,7.08-4.39Q124.09,500.23,124,494.06Z"/>
      <path class="cls-6" d="M134.53,448.46l-111,1.12-.22-22.33q-.12-11.1,2.76-18.39A20.58,20.58,0,0,1,35.42,398q6.48-3.56,17-3.66a47.17,47.17,0,0,1,11.73,1.25,22.63,22.63,0,0,1,8.95,4.3,17,17,0,0,1,5.35,7.89L134,391.46l.15,14.94L82.18,421.45l.12,12.06,52.07-.53ZM71.21,433.62l-.06-5.9a29.18,29.18,0,0,0-1.76-10.67,11,11,0,0,0-5.68-6q-4-1.87-11.11-1.81-9.74.11-14,3.71t-4.17,14.16l.06,6.85Z"/>
      <path class="cls-6" d="M133.69,365.16l-99.48,1,.19,18.77L22.89,385l-.53-52.47,11.51-.12.19,18.22,99.47-1Z"/>
      <path class="cls-6" d="M133.24,320.76l-111,1.12L21.82,279l11.1-.11.28,27.41,37-.38L70,284.67l11-.11.22,21.24,51.93-.52Z"/>
      <path class="cls-6" d="M133.65,238.82q.12,11.24-4.2,18A24,24,0,0,1,117,266.53a57.62,57.62,0,0,1-19.08,3.07L55.86,270A53.72,53.72,0,0,1,37,267.26a23.41,23.41,0,0,1-12.16-9.47q-4.24-6.6-4.36-17.83t4.07-17.86a24,24,0,0,1,12-9.64,53.17,53.17,0,0,1,18.75-3.14l42.2-.42a54.94,54.94,0,0,1,18.93,2.75,25,25,0,0,1,12.64,9.4Q133.54,227.58,133.65,238.82Zm-12.19.12c0-4.11-.92-7.21-2.63-9.29a12.51,12.51,0,0,0-7.17-4.18,46.81,46.81,0,0,0-10.77-1L52.25,225a45.43,45.43,0,0,0-10.61,1.2,11.92,11.92,0,0,0-6.81,4.32q-2.36,3.18-2.3,9.34c0,4.11.87,7.24,2.49,9.37a11.67,11.67,0,0,0,6.9,4.24,45,45,0,0,0,10.63,1l48.64-.49a46.66,46.66,0,0,0,10.74-1.2,12.34,12.34,0,0,0,7.08-4.39Q121.52,245.11,121.46,238.94Z"/>
      <path class="cls-6" d="M132,193.34,21,194.46,20.82,179l99.88-1-.28-28.37,11.1-.11Z"/>
      <path class="cls-6" d="M131.4,138.12l-111,1.12L20.26,124l111-1.12Z"/>
      <path class="cls-6" d="M132,76.59q.1,11.23-4.21,18a23.92,23.92,0,0,1-12.44,9.72,57.11,57.11,0,0,1-19.08,3.07l-42.07.42A53.81,53.81,0,0,1,35.35,105,23.48,23.48,0,0,1,23.2,95.57Q19,89,18.84,77.73t4.07-17.86a24,24,0,0,1,12-9.64A53.08,53.08,0,0,1,53.61,47.1l42.2-.43a55.23,55.23,0,0,1,18.94,2.76,25,25,0,0,1,12.63,9.39Q131.91,65.36,132,76.59Zm-12.2.12c0-4.11-.91-7.2-2.63-9.29A12.56,12.56,0,0,0,110,63.25a46.81,46.81,0,0,0-10.77-1l-48.64.49A44.9,44.9,0,0,0,40,64a11.82,11.82,0,0,0-6.81,4.32c-1.58,2.11-2.34,5.23-2.3,9.34s.87,7.23,2.49,9.36a11.69,11.69,0,0,0,6.89,4.25,45.05,45.05,0,0,0,10.63,1l48.64-.49a47.21,47.21,0,0,0,10.75-1.21,12.36,12.36,0,0,0,7.08-4.39Q119.89,82.88,119.82,76.71Z"/>
    </g>
  </g>
  <g id="Michelle_Young-2" data-name="Michelle Young" class="cls-2">
    <g class="cls-2">
      <path class="cls-6" d="M31,615.72l.4-15.92,2.15,0,2.68,12.93,2.87-12.89h2.13l.18,15.92H39.66l-.1-11.56-2.72,11.54H35.6L33,604.18l-.25,11.55Z"/>
      <path class="cls-6" d="M43.78,615.81l.07-11.36,2.07,0-.07,11.36Zm.09-13v-2.2H46v2.21Z"/>
      <path class="cls-6" d="M51.13,616a3.31,3.31,0,0,1-2.08-.57,2.79,2.79,0,0,1-.94-1.59,10.65,10.65,0,0,1-.22-2.38l0-2.62a10.07,10.07,0,0,1,.26-2.44,2.75,2.75,0,0,1,1-1.55,3.29,3.29,0,0,1,2.06-.52,3.66,3.66,0,0,1,1.89.41A2.16,2.16,0,0,1,54,606a7,7,0,0,1,.24,2v.66H52.36v-.69a6.07,6.07,0,0,0-.09-1.18,1.06,1.06,0,0,0-.34-.63,1.16,1.16,0,0,0-.72-.2,1.13,1.13,0,0,0-.77.23,1.25,1.25,0,0,0-.36.79,8.83,8.83,0,0,0-.1,1.53L50,612a4.69,4.69,0,0,0,.26,2,1,1,0,0,0,1,.5,1.06,1.06,0,0,0,.77-.24,1.2,1.2,0,0,0,.31-.7,6.21,6.21,0,0,0,.08-1v-.92h1.87v.79a6.61,6.61,0,0,1-.28,2A2.26,2.26,0,0,1,53,615.6,3.35,3.35,0,0,1,51.13,616Z"/>
      <path class="cls-6" d="M56.08,615.9l.1-15.92h2.07l0,5.74a5.87,5.87,0,0,1,1.26-.93,3,3,0,0,1,1.55-.38,1.34,1.34,0,0,1,1,.36,2,2,0,0,1,.5.89,4.32,4.32,0,0,1,.14,1.08l-.06,9.2-2.07,0,.05-8.59a2,2,0,0,0-.16-.94.73.73,0,0,0-.72-.34,1.62,1.62,0,0,0-.76.21,3.86,3.86,0,0,0-.75.52l-.06,9.13Z"/>
      <path class="cls-6" d="M67.72,616.14a3.38,3.38,0,0,1-2-.53,2.77,2.77,0,0,1-1-1.54,9.43,9.43,0,0,1-.27-2.49l0-2.6a9.17,9.17,0,0,1,.31-2.51,2.73,2.73,0,0,1,1-1.51,3.4,3.4,0,0,1,2-.49,3,3,0,0,1,2.07.6,2.86,2.86,0,0,1,.87,1.71,14.64,14.64,0,0,1,.2,2.66v.93l-4.41,0v2.28a4,4,0,0,0,.11,1.13,1.23,1.23,0,0,0,.41.64,1.14,1.14,0,0,0,.72.21,1,1,0,0,0,.71-.22,1.22,1.22,0,0,0,.33-.65,4.78,4.78,0,0,0,.09-1V612l2,0v.43a4.52,4.52,0,0,1-.73,2.69A2.83,2.83,0,0,1,67.72,616.14Zm-1.19-6.95,2.38,0v-1a9.64,9.64,0,0,0-.07-1.19,1.3,1.3,0,0,0-.32-.73,1,1,0,0,0-.76-.25,1.11,1.11,0,0,0-.77.23,1.39,1.39,0,0,0-.36.79,9.9,9.9,0,0,0-.11,1.54Z"/>
      <path class="cls-6" d="M73,616l.11-15.92,2.07,0L75,616Z"/>
      <path class="cls-6" d="M77.39,616.05l.11-15.92,2.07,0-.11,15.92Z"/>
      <path class="cls-6" d="M84.72,616.26a3.38,3.38,0,0,1-2-.53,2.71,2.71,0,0,1-1-1.54,9.43,9.43,0,0,1-.27-2.49l0-2.6a9.28,9.28,0,0,1,.31-2.51,2.73,2.73,0,0,1,1-1.51,3.48,3.48,0,0,1,2-.49,3.12,3.12,0,0,1,2.07.6,2.92,2.92,0,0,1,.87,1.71,14.64,14.64,0,0,1,.2,2.66v.93l-4.41,0v2.28a4,4,0,0,0,.11,1.12,1.19,1.19,0,0,0,.41.64,1.14,1.14,0,0,0,.72.21,1,1,0,0,0,.71-.22,1.18,1.18,0,0,0,.33-.65,4.78,4.78,0,0,0,.09-1v-.69l2,0v.43a4.52,4.52,0,0,1-.74,2.69A2.8,2.8,0,0,1,84.72,616.26Zm-1.19-6.94h2.38v-1a6.85,6.85,0,0,0-.07-1.19,1.33,1.33,0,0,0-.31-.73,1,1,0,0,0-.76-.25,1.11,1.11,0,0,0-.77.23,1.42,1.42,0,0,0-.36.8,9.7,9.7,0,0,0-.11,1.54Z"/>
      <path class="cls-6" d="M96.77,616.19l0-5.62-3.32-10.32h2l2.35,7.7,2.41-7.66h2L98.9,610.59l0,5.62Z"/>
      <path class="cls-6" d="M106.19,616.42a3.27,3.27,0,0,1-2-.53,2.73,2.73,0,0,1-1-1.46,7.4,7.4,0,0,1-.28-2.22l0-3.3a7.3,7.3,0,0,1,.31-2.22,2.79,2.79,0,0,1,1-1.45,3.32,3.32,0,0,1,2-.5,3.27,3.27,0,0,1,1.95.53,2.75,2.75,0,0,1,1,1.46,7.38,7.38,0,0,1,.29,2.22l0,3.31a7.23,7.23,0,0,1-.31,2.21,2.72,2.72,0,0,1-1,1.45A3.26,3.26,0,0,1,106.19,616.42Zm0-1.55a1,1,0,0,0,.84-.35,2,2,0,0,0,.3-.93c0-.39,0-.79,0-1.21l0-3.56c0-.43,0-.84,0-1.22a1.93,1.93,0,0,0-.29-.93.91.91,0,0,0-.84-.37,1,1,0,0,0-.85.35,1.86,1.86,0,0,0-.3.93,11.73,11.73,0,0,0-.06,1.22l0,3.56a11.93,11.93,0,0,0,0,1.21,1.83,1.83,0,0,0,.29.94A1,1,0,0,0,106.2,614.87Z"/>
      <path class="cls-6" d="M112.94,616.47a1.47,1.47,0,0,1-1-.36,1.85,1.85,0,0,1-.51-.89,4,4,0,0,1-.14-1.08l.06-9.2h2.07l-.06,8.57a2.26,2.26,0,0,0,.17,1,.74.74,0,0,0,.71.35,1.48,1.48,0,0,0,.73-.21,4.24,4.24,0,0,0,.73-.49l.06-9.16h2.07l-.07,11.36h-2.07v-1.12a5.57,5.57,0,0,1-1.23.9A3.19,3.19,0,0,1,112.94,616.47Z"/>
      <path class="cls-6" d="M119.84,616.36l.08-11.36H122v1.12a6,6,0,0,1,1.24-.89,2.94,2.94,0,0,1,1.49-.36,1.4,1.4,0,0,1,1,.36,2,2,0,0,1,.5.89,4.32,4.32,0,0,1,.13,1.08l-.06,9.2-2.07,0,.06-8.59a2,2,0,0,0-.17-.94.71.71,0,0,0-.71-.34,1.49,1.49,0,0,0-.73.2,5.48,5.48,0,0,0-.73.49l-.06,9.17Z"/>
      <path class="cls-6" d="M131.21,620a6.81,6.81,0,0,1-1.82-.23,2.74,2.74,0,0,1-1.27-.7,1.64,1.64,0,0,1-.45-1.24,2,2,0,0,1,.23-1,2.59,2.59,0,0,1,.61-.71,3.57,3.57,0,0,1,.78-.5,1.48,1.48,0,0,1-.81-.51,1.15,1.15,0,0,1-.27-.71,1.78,1.78,0,0,1,.34-1.08,6.55,6.55,0,0,1,.91-1,3.17,3.17,0,0,1-1-1.26,5.64,5.64,0,0,1-.31-2.13,6,6,0,0,1,.37-2.23,2.86,2.86,0,0,1,1.07-1.35,3.19,3.19,0,0,1,1.74-.45,3.06,3.06,0,0,1,1.46.33,2,2,0,0,1,.83,1,3.44,3.44,0,0,1,.53-.54,3.81,3.81,0,0,1,1-.63l.31-.13.51,1.35a4.26,4.26,0,0,0-.67.19c-.27.09-.53.19-.77.29a1.41,1.41,0,0,0-.46.24,4.72,4.72,0,0,1,.24,1,6.79,6.79,0,0,1,.09,1.12,6.37,6.37,0,0,1-.3,2.05,2.83,2.83,0,0,1-1,1.38,3,3,0,0,1-1.85.48,3.65,3.65,0,0,1-.55,0l-.52-.1a3.72,3.72,0,0,0-.24.41.91.91,0,0,0-.13.45.39.39,0,0,0,.22.35,1.92,1.92,0,0,0,.7.17l1.74.17a2.9,2.9,0,0,1,2,.82,3.2,3.2,0,0,1,.19,3.53,2.54,2.54,0,0,1-1.29.94A6.23,6.23,0,0,1,131.21,620Zm.17-1.65a3.75,3.75,0,0,0,1.62-.25.9.9,0,0,0,.53-.85,1.26,1.26,0,0,0-.12-.59.86.86,0,0,0-.45-.38,3.52,3.52,0,0,0-1-.2l-1.76-.17-.41.42a2.19,2.19,0,0,0-.31.46,1.2,1.2,0,0,0-.12.52.84.84,0,0,0,.42.77A3.23,3.23,0,0,0,131.38,618.31Zm0-6.82a1.3,1.3,0,0,0,.7-.16,1,1,0,0,0,.4-.49,2.77,2.77,0,0,0,.19-.8c0-.31,0-.66.06-1.06s0-.75-.05-1.07a3.6,3.6,0,0,0-.16-.83,1,1,0,0,0-.39-.52,1.21,1.21,0,0,0-.7-.18,1.29,1.29,0,0,0-.71.17,1,1,0,0,0-.42.5,3,3,0,0,0-.2.8A9.05,9.05,0,0,0,130,609a8,8,0,0,0,0,1,2.54,2.54,0,0,0,.19.79,1.18,1.18,0,0,0,.41.54A1.16,1.16,0,0,0,131.33,611.49Z"/>
    </g>
  </g>
</svg>
