<svg id="Layer_1" data-name="Layer 1" xmlns="http://www.w3.org/2000/svg" viewBox="0 0 1597.08 395.23">
  <defs>
    <style>
      .cls-1 {
        opacity: 0.3;
      }

      .cls-1, .cls-2 {
        isolation: isolate;
      }

      .cls-3 {
        fill: #911a86;
      }

      .cls-4 {
        fill: #930f93;
      }

      .cls-5 {
        fill: #97ceff;
        opacity: 0.11;
      }

      .cls-6 {
        fill: #fcc0f3;
      }
    </style>
  </defs>
  <title>forsidetxtdesk</title>
  <g id="Michelle_Young" data-name="Michelle Young" class="cls-1">
    <g class="cls-2">
      <path class="cls-3" d="M41.41,32l43.09,1.5-.1,5.82-35.1,6.9,34.84,8.12L84,60.05l-43.12.07L41,55.35l31.3.06-31.17-7.7.06-3.35,31.41-6.6-31.28-1Z"/>
      <path class="cls-3" d="M40.81,66.5,71.57,67l-.1,5.6-30.76-.51Zm35.33.59,6,.1L82,72.8l-6-.1Z"/>
      <path class="cls-3" d="M40,86.39a8.91,8.91,0,0,1,1.61-5.6A7.5,7.5,0,0,1,46,78.29a28.56,28.56,0,0,1,6.45-.54l7.08.12a27.37,27.37,0,0,1,6.61.79,7.26,7.26,0,0,1,4.16,2.66,9.09,9.09,0,0,1,1.37,5.6A9.93,9.93,0,0,1,70.47,92a5.65,5.65,0,0,1-3.29,2.43,17.83,17.83,0,0,1-5.36.59L60,95l.09-5.08L62,90a15,15,0,0,0,3.2-.2,2.91,2.91,0,0,0,1.72-.92,3.08,3.08,0,0,0,.56-1.93,3,3,0,0,0-.6-2.1,3.5,3.5,0,0,0-2.14-1,28.94,28.94,0,0,0-4.12-.3l-9.68-.16c-2.63,0-4.39.17-5.28.64a2.73,2.73,0,0,0-1.38,2.6,2.78,2.78,0,0,0,.63,2.08,3.37,3.37,0,0,0,1.88.87,20,20,0,0,0,2.76.23l2.5,0-.09,5.08-2.13,0a17.44,17.44,0,0,1-5.3-.8,6,6,0,0,1-3.37-2.57A9.19,9.19,0,0,1,40,86.39Z"/>
      <path class="cls-3" d="M40.23,99.8l43.11.72-.1,5.61-15.54-.26a16.12,16.12,0,0,1,2.5,3.44,8.53,8.53,0,0,1,1,4.21,3.74,3.74,0,0,1-1,2.73,5.13,5.13,0,0,1-2.41,1.32,11.21,11.21,0,0,1-2.94.35l-24.9-.42.1-5.6,23.25.39a5.79,5.79,0,0,0,2.56-.43,2,2,0,0,0,.94-1.92,4.29,4.29,0,0,0-.55-2.08,11,11,0,0,0-1.4-2l-24.69-.41Z"/>
      <path class="cls-3" d="M39.26,131.32a9.25,9.25,0,0,1,1.51-5.48,7.4,7.4,0,0,1,4.2-2.63,25.55,25.55,0,0,1,6.74-.64l7,.12a24.87,24.87,0,0,1,6.8.89,7.33,7.33,0,0,1,4,2.82,9.28,9.28,0,0,1,1.29,5.44c0,2.55-.61,4.42-1.69,5.61a8,8,0,0,1-4.65,2.3,39.47,39.47,0,0,1-7.22.46l-2.5-.05L55,128.23l-6.17-.11a11.28,11.28,0,0,0-3,.29,3.17,3.17,0,0,0-1.75,1.07,3.22,3.22,0,0,0-.59,2,2.66,2.66,0,0,0,.57,1.92,3.3,3.3,0,0,0,1.75.92,13.62,13.62,0,0,0,2.68.28l1.86,0L50.24,140l-1.17,0A12.23,12.23,0,0,1,41.81,138C40.06,136.64,39.21,134.42,39.26,131.32Zm18.85-3L58,134.72l2.77.05a21.47,21.47,0,0,0,3.22-.16,3.55,3.55,0,0,0,2-.83,2.83,2.83,0,0,0,.7-2.06,3,3,0,0,0-.6-2.08,3.67,3.67,0,0,0-2.14-1,26.18,26.18,0,0,0-4.18-.33Z"/>
      <path class="cls-3" d="M39.44,145.51l43.11.72-.1,5.6-43.1-.72Z"/>
      <path class="cls-3" d="M39.24,157.5l43.1.72-.1,5.6-43.1-.72Z"/>
      <path class="cls-3" d="M38.47,177.34a9.26,9.26,0,0,1,1.5-5.48,7.37,7.37,0,0,1,4.2-2.62,25.18,25.18,0,0,1,6.75-.65l7,.12a24.51,24.51,0,0,1,6.8.9,7.27,7.27,0,0,1,4.05,2.81,9.28,9.28,0,0,1,1.29,5.44c0,2.55-.61,4.42-1.7,5.61a7.91,7.91,0,0,1-4.64,2.3,39.54,39.54,0,0,1-7.22.46l-2.5,0,.2-11.93-6.17-.11a11.37,11.37,0,0,0-3,.29,2.87,2.87,0,0,0-2.34,3,2.71,2.71,0,0,0,.58,1.92,3.23,3.23,0,0,0,1.74.92,13.62,13.62,0,0,0,2.68.28l1.87,0-.1,5.45-1.17,0A12.14,12.14,0,0,1,41,184C39.26,182.66,38.42,180.44,38.47,177.34Zm18.84-3-.11,6.44,2.77,0a21.55,21.55,0,0,0,3.22-.16,3.55,3.55,0,0,0,2-.83,2.84,2.84,0,0,0,.71-2.06,3,3,0,0,0-.61-2.08,3.73,3.73,0,0,0-2.14-1,26,26,0,0,0-4.17-.33Z"/>
      <path class="cls-3" d="M38.33,210l15.22.26,28-8.7L81.5,207l-20.92,6.14,20.7,6.74-.1,5.55-27.73-9.58-15.22-.25Z"/>
      <path class="cls-3" d="M37.46,235.45a8.9,8.9,0,0,1,1.48-5.26,7.37,7.37,0,0,1,4-2.68,19.71,19.71,0,0,1,6-.72l8.94.15a19.91,19.91,0,0,1,6,.92,7.36,7.36,0,0,1,3.89,2.81,10.77,10.77,0,0,1-.18,10.55,7.54,7.54,0,0,1-4,2.66,19.94,19.94,0,0,1-6,.71l-8.94-.15a19.93,19.93,0,0,1-6-.91,7.45,7.45,0,0,1-3.89-2.79A8.89,8.89,0,0,1,37.46,235.45Zm4.21.07a2.58,2.58,0,0,0,.92,2.3,5.21,5.21,0,0,0,2.51.82c1,.11,2.14.17,3.27.19L58,239c1.17,0,2.27,0,3.3-.07a5.36,5.36,0,0,0,2.54-.75,2.52,2.52,0,0,0,1-2.26,2.59,2.59,0,0,0-1-2.32,5.08,5.08,0,0,0-2.51-.85c-1-.11-2.12-.17-3.3-.19l-9.63-.16c-1.13,0-2.23,0-3.27.08a4.83,4.83,0,0,0-2.54.77A2.61,2.61,0,0,0,41.67,235.52Z"/>
      <path class="cls-3" d="M37.15,253.73a3.83,3.83,0,0,1,1-2.76,5,5,0,0,1,2.42-1.35,11.21,11.21,0,0,1,2.94-.35l24.9.42-.1,5.6-23.2-.38a5.86,5.86,0,0,0-2.59.42,2,2,0,0,0-1,1.92,4.13,4.13,0,0,0,.52,2,11.83,11.83,0,0,0,1.33,2l24.79.42-.09,5.6-30.76-.51.1-5.61,3,.05a14.71,14.71,0,0,1-2.39-3.36A8.33,8.33,0,0,1,37.15,253.73Z"/>
      <path class="cls-3" d="M37.25,272.42l30.76.52-.1,5.6-3-.05a16.35,16.35,0,0,1,2.39,3.39,8.17,8.17,0,0,1,.94,4.05,3.8,3.8,0,0,1-1,2.78A5.23,5.23,0,0,1,64.79,290a11.25,11.25,0,0,1-2.94.34L37,290l.09-5.6,23.26.39a5.52,5.52,0,0,0,2.56-.43,2,2,0,0,0,.94-1.92,4.07,4.07,0,0,0-.52-2,12.55,12.55,0,0,0-1.33-2L37.15,278Z"/>
      <path class="cls-3" d="M27.19,303.1a19.35,19.35,0,0,1,.67-4.91,7.38,7.38,0,0,1,1.93-3.42,4.51,4.51,0,0,1,3.37-1.2,5.2,5.2,0,0,1,2.6.67,6.86,6.86,0,0,1,1.91,1.65A10.09,10.09,0,0,1,39,298a4.21,4.21,0,0,1,1.4-2.18,3.08,3.08,0,0,1,2-.7,4.8,4.8,0,0,1,2.91.94,18,18,0,0,1,2.62,2.51A8.41,8.41,0,0,1,51.32,296a15,15,0,0,1,5.76-.8,16.44,16.44,0,0,1,6,1.07,7.58,7.58,0,0,1,3.62,2.94,8.42,8.42,0,0,1,1.17,4.71,8,8,0,0,1-.92,3.94,5.52,5.52,0,0,1-2.59,2.23,9.14,9.14,0,0,1,1.44,1.44,10.8,10.8,0,0,1,1.68,2.7l.36.85-3.7,1.35a10.63,10.63,0,0,0-.47-1.82c-.26-.75-.51-1.45-.77-2.11a4.26,4.26,0,0,0-.64-1.24,12.59,12.59,0,0,1-2.62.61,17.21,17.21,0,0,1-3,.24,17.64,17.64,0,0,1-5.52-.88,7.38,7.38,0,0,1-3.7-2.65,8.17,8.17,0,0,1-1.28-5,11.36,11.36,0,0,1,.14-1.47,11.63,11.63,0,0,1,.29-1.41c-.32-.21-.69-.44-1.11-.67a2.57,2.57,0,0,0-1.22-.36,1,1,0,0,0-.94.59,4.62,4.62,0,0,0-.48,1.9l-.51,4.7A7.94,7.94,0,0,1,40,312.12a7.53,7.53,0,0,1-5.35,1.63,7.39,7.39,0,0,1-4.21-1.22A6.89,6.89,0,0,1,27.94,309,17.45,17.45,0,0,1,27.19,303.1Zm4.47.5A10.16,10.16,0,0,0,32.3,308a2.41,2.41,0,0,0,2.29,1.45,3.49,3.49,0,0,0,1.6-.31,2.4,2.4,0,0,0,1-1.22,9.28,9.28,0,0,0,.58-2.56l.51-4.75c-.39-.39-.77-.77-1.15-1.12a5.31,5.31,0,0,0-1.24-.86,3.25,3.25,0,0,0-1.4-.34,2.28,2.28,0,0,0-2.1,1.12A8.86,8.86,0,0,0,31.66,303.6Zm18.47,0a3.47,3.47,0,0,0,.41,1.92,2.89,2.89,0,0,0,1.32,1.1,7.69,7.69,0,0,0,2.14.53c.85.1,1.81.16,2.87.18s2,0,2.91-.08a9.45,9.45,0,0,0,2.24-.44,2.77,2.77,0,0,0,1.43-1,3.32,3.32,0,0,0,.51-1.9,3.46,3.46,0,0,0-.45-1.92,2.83,2.83,0,0,0-1.33-1.15A8.62,8.62,0,0,0,60,300.3a25.17,25.17,0,0,0-3-.21,25.59,25.59,0,0,0-2.69.09,7.25,7.25,0,0,0-2.16.48,3.41,3.41,0,0,0-1.46,1.11A3.1,3.1,0,0,0,50.13,303.64Z"/>
    </g>
  </g>
  <g id="PORTFOLIO" class="cls-1">
    <g class="cls-2">
      <path class="cls-4" d="M118.37,321.75V21.24h74.57q27.09,0,43.23,9.83t23.55,28.39q7.42,18.56,7.42,44.89,0,23.75-8.34,41.18a60.51,60.51,0,0,1-24.68,26.9q-16.32,9.45-40.81,9.46h-33V321.75ZM160.3,151.84h19.29q18.16,0,28.56-4.09A25.89,25.89,0,0,0,223,133.47q4.44-10.2,4.45-28.75,0-21.51-3.16-33t-13.17-16q-10-4.45-31.16-4.46H160.3Z"/>
      <path class="cls-4" d="M373.25,325.09q-30.44,0-48.6-11.87t-26-34q-7.8-22.06-7.79-51.75V113.62q0-29.67,8-51t26-32.65q18-11.31,48.42-11.31t48.23,11.5q17.81,11.51,25.78,32.65t8,50.82V227.89q0,29.31-8,51.2T421.48,313Q403.68,325.09,373.25,325.09Zm0-33q16.69,0,25.23-6.86T410,265.92a127,127,0,0,0,3-29.13V105.09a122,122,0,0,0-3-28.75q-3-12.06-11.5-18.55t-25.23-6.5q-16.69,0-25.42,6.5T336.15,76.34q-3,12.06-3,28.75v131.7a126.43,126.43,0,0,0,3,29.13q3,12.43,11.68,19.29T373.25,292.07Z"/>
      <path class="cls-4" d="M496.42,321.75V21.24h60.47q30,0,49.71,8t29.13,25.6q9.45,17.62,9.46,46.19a126.27,126.27,0,0,1-3.71,31.72,61.35,61.35,0,0,1-11.88,24.11,46.21,46.21,0,0,1-21.51,14.29l42.66,150.62H610.31L571,180.77H538.34v141Zm41.92-171h15.95q17.81,0,28.94-4.45a29.79,29.79,0,0,0,16.32-15.21q5.19-10.75,5.2-30,0-26.34-9.65-38T556.89,51.29H538.34Z"/>
      <path class="cls-4" d="M722,321.75V52.41H671.16V21.24H813.25V52.41H763.91V321.75Z"/>
      <path class="cls-4" d="M842.18,321.75V21.24H958.31V51.29h-74.2V151.46h57.5v29.68h-57.5V321.75Z"/>
      <path class="cls-4" d="M1064,325.09q-30.42,0-48.6-11.87t-26-34q-7.8-22.06-7.79-51.75V113.62q0-29.67,8-51t26-32.65q18-11.31,48.42-11.31t48.23,11.5q17.81,11.51,25.78,32.65t8,50.82V227.89q0,29.31-8,51.2T1112.27,313Q1094.47,325.09,1064,325.09Zm0-33q16.7,0,25.23-6.86t11.5-19.29a126.43,126.43,0,0,0,3-29.13V105.09q0-16.7-3-28.75t-11.5-18.55q-8.55-6.49-25.23-6.5t-25.42,6.5q-8.71,6.49-11.68,18.55t-3,28.75v131.7a126.43,126.43,0,0,0,3,29.13q3,12.43,11.68,19.29T1064,292.07Z"/>
      <path class="cls-4" d="M1187.21,321.75V21.24h41.92V291.7h76.8v30.05Z"/>
      <path class="cls-4" d="M1336.71,321.75V21.24h41.19V321.75Z"/>
      <path class="cls-4" d="M1503.29,325.09q-30.43,0-48.6-11.87t-26-34q-7.8-22.06-7.79-51.75V113.62q0-29.67,8-51t26-32.65q18-11.31,48.42-11.31t48.23,11.5q17.81,11.51,25.78,32.65t8,50.82V227.89q0,29.31-8,51.2T1551.52,313Q1533.72,325.09,1503.29,325.09Zm0-33q16.7,0,25.23-6.86t11.5-19.29a127,127,0,0,0,3-29.13V105.09a122,122,0,0,0-3-28.75q-3-12.06-11.5-18.55t-25.23-6.5q-16.69,0-25.41,6.5t-11.69,18.55q-3,12.06-3,28.75v131.7a126.43,126.43,0,0,0,3,29.13q3,12.43,11.69,19.29T1503.29,292.07Z"/>
    </g>
  </g>
  <g>
    <path class="cls-5" d="M87,74.62,88.1,79l3.62-39.52L80.65,94.92l4-10.38q-4.29,10.13-9.23,19.95l1.64-3.31c-5.13,10-10.17,20-14.73,30.26Q55,147.88,48.43,164.64c-8.5,21.42-16.54,43.09-23.2,65.16a160.44,160.44,0,0,0-6.15,27.09A58.76,58.76,0,0,0,18.85,269l.81,7,2.23,7.71c2.2,6.75,5.78,12.9,9.67,18.79a107.89,107.89,0,0,0,13.67,16.84,155.4,155.4,0,0,0,30,23.45,143.89,143.89,0,0,0,31.37,14.46l6.76,2,11.73,3.4a164.85,164.85,0,0,0,29.58,4.21c35.33,2,70-6.72,102.72-19.5,31.56-12.34,61.5-28.29,91.83-43.31,14.08-7,28.27-13.79,42.81-19.78q9.15-3.78,18.5-7.08a273.7,273.7,0,0,1,27.1-7.76l-1.45.32c11.47-2.23,22.85-4,34.58-3.71a83.38,83.38,0,0,1,27.18,5c17.84,6.53,33.24,18.08,49.68,27.35,5.16,2.91,10.42,5.61,15.75,8.19a164.94,164.94,0,0,0,15.93,6.61q18,6.17,36.31,11.27a573.87,573.87,0,0,0,56.8,12.46c15.45,2.62,31.08,4.06,46.65,5.82,19.49,2.21,39.16,4.13,58.72,1.37,22-3.11,42.46-12.11,60.25-25.3,12.84-9.51,24.06-21.07,35.11-32.54,8.51-8.84,16.81-17.87,25.17-26.85,10.49-11.26,21-22.5,32.31-33q7.88-7.4,16.31-14.16a183.32,183.32,0,0,1,16.7-11.92l-1.33.78,9.88-5.76-1.34.76a118.42,118.42,0,0,1,17.51-7.77,39,39,0,0,1,14.13-3.2c7.9-.73,15.82-1.15,23.75-1.11a151.48,151.48,0,0,1,25.7,2.1,98.74,98.74,0,0,1,12.33,3,68.7,68.7,0,0,1,11.23,4.62l-3.32-1.81,8.33,4.79-3.19-2,7.67,5.45-8.79-7.26,9.82,8.82-20-21.47,29,33.33-22-33.41,26.5,44.44-4.83-9.88q4.77,10.68,8.82,21.64l-1.29-3.35c2.26,6.19,4.45,12.4,7.16,18.41a120,120,0,0,0,8.13,14.72,64.57,64.57,0,0,0,18.81,19.05,68.81,68.81,0,0,0,35,11.38,75.06,75.06,0,0,0,21.21-2.27,77.86,77.86,0,0,0,20.24-7.88,117.25,117.25,0,0,0,30.75-25.66,159.05,159.05,0,0,0,13.34-17.85c3.14-4.93,6-10,8.78-15.12,3.31-6.24,6.18-12.66,8.89-19.17,2.52-6.06,5-12.2,7.08-18.43,1.6-4.94,3-9.95,4.41-14.95a61,61,0,0,1,3-10.45,32.13,32.13,0,0,1,4.38-9.17l-.91,1.34a29.11,29.11,0,0,1,5.7-6.75,29.74,29.74,0,0,1,6.51-5.19l-3.81,2.15,8.56-4.77-3.88,1.93,8.89-4-4,1.68,9.18-3.35-4,1.43a105.88,105.88,0,0,1,16.5-3.64,177,177,0,0,1,21.36-.89h-4l9.8.51-4-.24,9.7,1-3.93-.45,9.57,1.53-3.87-.66,9.38,2.06-3.8-.87,9.15,2.59-3.72-1.08,8.86,3.13-3.62-1.29a61.82,61.82,0,0,1,18.06,10.81L1378.91,133l28.82,27.08-23-28.32,27.55,37.13-18.63-34.73,17.75,70,0-3.56-1.74,16.79,14.09-40.84-40.84,55.08,3-2.32c-7.22,4.64-14.55,9-21.27,14.41a129.2,129.2,0,0,0-13.88,12.78c-10.08,10.77-19.56,25.79-16.16,41.14a17.67,17.67,0,0,0,1.68,5.4,19.14,19.14,0,0,0,5.21,8.31l5.36,5.5,6.69,5.21,8.05,3.93a48.46,48.46,0,0,0,13.28,4.3,138.23,138.23,0,0,0,18.65,2.89q7.26.66,14.56.93l9.76-.24c6.34-.21,12.68-.55,19-1.06a322.26,322.26,0,0,0,44.32-7.09c11.65-2.6,23.23-5.53,34.67-8.95,9.11-2.72,18.32-5.68,26.9-9.84a50.63,50.63,0,0,0,11.16-7.33c4.59-4,8.18-9.65,10.76-15.1a66,66,0,0,0,6-19.88l.9-8.91-.18-9.07a118.72,118.72,0,0,0-3.65-23,140.8,140.8,0,0,0-7.34-22.2,251.62,251.62,0,0,0-18.83-35.69c-14.22-22.41-31.73-42.42-50.78-60.83a11.09,11.09,0,0,0-1.53,6.47q-1,12.28-1.58,24.61t-1,24.65a11.13,11.13,0,0,0,.86,6.59c8.45,10.67,16.54,21.64,23.32,33.46a105.05,105.05,0,0,1,8.61,17.88l1.77,5.75q1.14,5.16,1.79,10.4l1.52,5.73a70.45,70.45,0,0,1,1.72,11.09,47,47,0,0,1-.73,12.19,28.77,28.77,0,0,1-1.63,5.82,43.53,43.53,0,0,1-2.65,4.77,10.77,10.77,0,0,1-3.21,3.71,10.17,10.17,0,0,1-3.56,3.09,49.82,49.82,0,0,0-4.52,3.13l-3.76,1.82a46.3,46.3,0,0,1-9.7,3.83l-4,.84q-4.2,1.47-8.46,2.78a39.7,39.7,0,0,1-8.82,2.06c-6.53,1.24-13.08,2.39-19.65,3.38-7.16,1.07-14.43,2.07-21.66,2.53-7,.45-14.31.88-21.29-.34-4.93-.87-9.66-2.45-14.53-3.54a70.39,70.39,0,0,1-8.9-2.39,37.22,37.22,0,0,1-7.78-4.84l.88,1-2.22-2.66.68,1.13a44.5,44.5,0,0,1-1.94-4.28l.19,1.33q.12-1.47.21-2.94a1.71,1.71,0,0,1-.53-2.32l-.54,1.33q1.26-2.26,2.31-4.64l-.88,1.21,2.19-2.87,1.16-2.36c1-1.83,2.23-3.77,3.32-5.53,2.58-4.19,5.34-8.27,8.08-12.36,7.36-11,15.24-21.62,22.05-33,1.83-3.06,3.74-6.46,5.27-9.72l1-2.51q1.58-3.72,3-7.53c.66-2.48,1.08-5.07,1.53-7.6l.46-2.54q0-3.58-.36-7.16l-.19-2.4-6-18.13a41.62,41.62,0,0,0-2.74-4.76c-1.15-2-1.87-4.31-3.07-6.34a63,63,0,0,0-3.65-5.54c-9.88-13.4-25.06-22.17-41.18-25.66a101.61,101.61,0,0,0-25-2.45c-13.68.48-27.47,2.46-40.35,7.3a126.6,126.6,0,0,0-22.12,10.52,91.23,91.23,0,0,0-30,29.59c-4.19,6.76-7.45,14-11.08,21-1.73,3.37-3.72,6.68-5.27,10.13-1.32,2.93-2.46,5.95-3.77,8.88l-1.33,3c-1.57,2.08-3.19,4.13-4.84,6.14-1.81,2.22-3.25,4.58-4.84,7a94.85,94.85,0,0,1-17,19.45,58.77,58.77,0,0,1-14.81,9.56,44.74,44.74,0,0,1-8.51,2.77c-2.1.39-4.28.56-6.4.8a52.82,52.82,0,0,1-8.71-.15,42.93,42.93,0,0,1-7.12-1.14,52.77,52.77,0,0,1-11-3.48c-2.32-1.44-4.55-3-6.71-4.65a48.35,48.35,0,0,1-4.77-3.79c-13.22-11.16-22.48-26-33.2-39.41-5.91-7.39-12.17-15-19.75-20.76-7.34-5.59-15.16-10.42-24-13.3a111.58,111.58,0,0,0-24.55-4.92c-18.58-1.65-37.09.62-55.21,4.75a168.26,168.26,0,0,0-42.33,16.22c-25.08,13.55-46.69,32.67-67.44,52-18.18,16.92-36,34.3-55.55,49.68-8.38,6.59-17.13,12.44-26.9,16.72a101.44,101.44,0,0,1-32.31,8.21c-17.31,1.43-34.61-.45-51.74-2.9-9.63-1.38-19.25-2.89-28.86-4.42-7.36-1.17-14.66-2.69-22-4.05-15.41-2.86-30.77-6.2-45.88-10.37-19.36-5.34-38.63-11.46-57.42-18.53-9.54-3.59-19-7.53-28.43-11.26-12.91-5.08-26.2-10.15-39.85-12.87A156.15,156.15,0,0,0,454,245.4c-18.7-.36-37.3,2.82-55.31,7.71-48.85,13.27-93.4,38.35-140.33,56.73-25.65,10-52.35,18.42-80,20.37a151.32,151.32,0,0,1-36.26-1.66,145.49,145.49,0,0,1-17.73-4.21,118.1,118.1,0,0,1-13.4-4.68l-8.77-4.2a93.82,93.82,0,0,1-15.37-11.78,98.25,98.25,0,0,1-15.31-18,71.82,71.82,0,0,1-4-6.85,83.55,83.55,0,0,1-5.06-12.23A61.26,61.26,0,0,1,60,255.49a29,29,0,0,1-.56-6.09,14.39,14.39,0,0,1,1-7.92,26.66,26.66,0,0,0,1.36-4.64c.75-4.26,1.68-8.51,2.53-12.76s1.86-8,3.11-12.12q2-6.45,4-12.89c6.7-21.82,13.35-43.68,19-65.82,3.06-12,5.91-24.15,8-36.39,1.62-9.76,3.1-19.7,3-29.62A78.17,78.17,0,0,0,97,43.45c-.48-1.45-1-3-1.62-4.45l-2-4.11a19.87,19.87,0,0,0-4.51-5.56A6.4,6.4,0,0,0,87.49,34Q86.74,43,86.41,51.91T86,69.83A6.43,6.43,0,0,0,87,74.62Z"/>
    <path class="cls-5" d="M89.21,83.41l1.63,2.88-1.15-5.17.11,3.16,1.88-38.74L84.54,99.16,95.11,59.07,80.37,104.2,87.9,87.08,77.79,109.15q-2.51,4.91-5,9.83c-2.79,5.52-5.61,11-8.2,16.64-4.73,10.24-9.07,20.64-13.23,31.11-9.14,23-17.86,46.22-25,69.91-2.92,9.67-5.64,19.68-6.51,29.78a62.52,62.52,0,0,0,6,32.44c12.21,25,34.21,44,58.38,57a151,151,0,0,0,14.47,6.77,161.72,161.72,0,0,0,17.68,5.82l12,3.34a129,129,0,0,0,18.08,3,171.13,171.13,0,0,0,30,1.07,240.37,240.37,0,0,0,52.53-9.3,401.94,401.94,0,0,0,54.62-20.78c31.93-14.54,62.55-31.75,94.41-46.44,15.07-6.95,30.53-13.55,46.47-18.28,5.94-1.77,11.94-3.35,18-4.67a173.74,173.74,0,0,1,26.2-3.28l-1.53,0h8.47a84.27,84.27,0,0,1,16.22,1.94A81.64,81.64,0,0,1,506.35,280a154.88,154.88,0,0,1,19.55,10.68c13.75,8.52,27.11,17.68,41.73,24.73a156.73,156.73,0,0,0,15.89,6.65q18,6.17,36.38,11.23a570.07,570.07,0,0,0,57,12.36c14.09,2.25,28.21,3.57,42.38,5.16,9.94,1.12,19.89,2.28,29.88,2.8,20.12,1,40.23-.81,59.19-8a133.5,133.5,0,0,0,26.05-13.5c12.9-8.53,24-19.19,34.73-30.22,19.63-20.13,37.65-41.81,57.72-61.52a304.57,304.57,0,0,1,24.35-21.91,177.05,177.05,0,0,1,16.77-11.89,129.51,129.51,0,0,1,17.37-9.14l-1.42.56L994.22,194l-1.44.51a38.09,38.09,0,0,1,14.31-3q5.76-.44,11.54-.62a209.3,209.3,0,0,1,22.12.41,124.53,124.53,0,0,1,22.38,3.49,80.86,80.86,0,0,1,11.83,4,56.17,56.17,0,0,1,10.33,5.83l-3.27-2.38,7.66,6-9-8.39,9.82,9.76-13-15.19,16.27,19.58-23.07-32.44,30.61,46.17-16.08-31.21,19.66,42.86-4.23-11.11c3,8.73,5.87,17.52,9,26.19a99.06,99.06,0,0,0,6.7,15c4.9,8.71,11.24,16.74,19.27,22.77a66.37,66.37,0,0,0,18.28,9.48,67.07,67.07,0,0,0,20.91,3.95l8.78-.17a67.26,67.26,0,0,0,13-2.45,79.16,79.16,0,0,0,20.73-8.5A121.35,121.35,0,0,0,1251,264.05a194,194,0,0,0,20.5-34A246,246,0,0,0,1286,192.51q1.65-5.55,3.08-11.16l1.73-7,2.37-6.8a39.29,39.29,0,0,1,6.91-10.54l-1,1.15,4.2-4a33.87,33.87,0,0,1,7-4.59,69.55,69.55,0,0,1,13.06-5.11l-4,.91,9.54-2.17-4,.68,9.71-1.57-4,.43,9.85-1-4.06.21,9.92-.46-4.06,0a184.08,184.08,0,0,1,18.79.72,133.66,133.66,0,0,1,14.44,2.49l-3.91-1.09,9.46,2.65-3.84-1.29,9.22,3.17-3.77-1.49,8.92,3.71-3.68-1.69,8.55,4.26-3.57-1.89,8.12,4.8-3.45-2.09,8.21,6.49-22.49-22.47,28.87,30.34-23.51-31.78,27.62,40.93-18-34.61,19.45,44.67-11.48-36.65,11.26,42-8-37.42,7.14,42.72-4.1-37.84,2.75,43.35-.14-37.76a329,329,0,0,0-1.67,47.26,43.83,43.83,0,0,0,2.53,5.09l-.68-5.1.19,7.31,4.82-41.3-8.59,43.26,9.85-36.2-16.09,40.33,16.7-32.83-24,36.43,22.84-28.16-30.65,32,27.25-23.44-39.1,30.48q-4.47,3-8.81,6.2c-2.62,1.91-5.15,3.9-7.58,6a108.49,108.49,0,0,0-15.87,17.1,57.8,57.8,0,0,0-9.64,18.93,35.43,35.43,0,0,0-1.27,9.61,22.71,22.71,0,0,0,1,7.88l2,5.71,3.81,5.74,5.24,5.82,6.76,5.62a72.12,72.12,0,0,0,12.7,6.21,32.18,32.18,0,0,0,9.3,3,86.76,86.76,0,0,0,9.68,2.05,75.62,75.62,0,0,0,15.16,1.68l10.32.49c6.73,0,13.58-.49,20.29-1q11.76-.85,23.42-2.63c13.22-2,26.35-4.73,39.33-8,10.06-2.5,20.06-5.23,29.95-8.34,9-2.81,18.11-6,26.31-10.62a41.19,41.19,0,0,0,12.91-11.42,57.1,57.1,0,0,0,7.29-13.79c2.63-6.79,3.54-13.9,4-21.09a37.72,37.72,0,0,0,0-9,73.22,73.22,0,0,0-.81-9.11c-1.65-13.67-6-27.17-11.55-39.76a249.53,249.53,0,0,0-18.9-34.61c-14.2-22-31.54-41.64-50.32-59.79a7.15,7.15,0,0,0-1.69,4.94q-1.32,9.5-2.21,19t-1.57,19.1a7.16,7.16,0,0,0,.68,5.18,294.35,294.35,0,0,1,24.24,34,119.53,119.53,0,0,1,9.2,18.34,45.76,45.76,0,0,1,2.6,8.62c.64,2.6,1.16,5.23,1.58,7.88a76,76,0,0,1,2.44,9.11,61.24,61.24,0,0,1,1.52,8.81,52.79,52.79,0,0,1-.57,15.87,33.21,33.21,0,0,1-4.31,11.12c-1.13,1.38-2.28,2.75-3.43,4.11a12,12,0,0,1-4,3.46l-3.17,2.48q-4.12,2.3-8.41,4.31l-5.22,1.87a40.59,40.59,0,0,0-9.56,2.84l-6,2q-6,1.28-12.09,2.46c-6.85,1.32-13.71,2.58-20.6,3.63-13.06,2-26.59,4.06-39.8,2.4a87.7,87.7,0,0,1-9.11-1.47,86.25,86.25,0,0,1-10.39-1.31,24.72,24.72,0,0,1-8.71-2.52,16.22,16.22,0,0,1-7.45-4.67l.8,1.11a32,32,0,0,1-3.71-5.6l.36,1.31a5.85,5.85,0,0,0-1-4.43,2.79,2.79,0,0,1-.49-2.73l-.3,1.34q.84-2.81,1.84-5.55l-.62,1.25c2.25-3.83,4.11-7.85,6.41-11.67,2.16-3.58,4.48-7.08,6.84-10.53,2.77-4.05,5.62-8.05,8.51-12l6.21-8.48q17.39-22.35,18.28-53a7.28,7.28,0,0,0-.88-5.22q-2.36-6.43-5-12.77-3.19-8-6.62-15.82a62.1,62.1,0,0,0-5.22-10.68,72.68,72.68,0,0,0-10.82-7.86c-1.77-1-3.58-1.94-5.42-2.79a81.71,81.71,0,0,0-24-6.81,122.92,122.92,0,0,0-65.66,9.91c-10.36,4.68-20.41,11-28.37,19.14A98.61,98.61,0,0,0,1252.37,176c-3.1,5.72-5.91,11.66-8.8,17.49-1.8,3.64-3.2,7.15-4.76,11l-2.63,6.19c-1.51,2.12-3.06,4.2-4.65,6.26a41.89,41.89,0,0,0-4.74,7.3q-2.46,3.91-5.25,7.6a96,96,0,0,1-18.14,19,55.11,55.11,0,0,1-13.62,7.78,48.38,48.38,0,0,1-9,2.61,55,55,0,0,1-25.09-1.23l-3-1a19,19,0,0,1-7.63-3.83,91,91,0,0,1-14.68-12c-8.09-8.07-14.62-17.78-21.22-27.05s-13.31-19-21.89-26.68a80.6,80.6,0,0,0-12.47-9.44,82.69,82.69,0,0,0-25.39-9.75c-21.37-4.55-43.89-2.64-65.07,1.93a167.16,167.16,0,0,0-32,10.27c-17.72,7.8-33.8,19-48.74,31.19-26.51,21.6-49.89,46.69-75.83,68.94-12,10.28-24.41,20.44-39.21,26.45a115.71,115.71,0,0,1-36.29,8.08c-12.35.8-24.9-.35-37.14-1.84-5.29-.64-10.55-1.41-15.82-2.17-8.45-1.23-17-2.31-25.37-3.78-21.43-3.73-42.74-8-63.8-13.45l-18.07-5.13q-17.73-5.6-35.29-11.75c-8.15-3-16.19-6.32-24.21-9.67-11.89-5-23.75-10-36-13.87a156.8,156.8,0,0,0-38-7.23c-15.31-.94-30.86,1.22-45.79,4.52-17.45,3.86-34.42,9.7-51,16.26-35,13.82-68.49,31.07-103.47,44.89-33.06,13-68.3,23.43-104.22,20.66A146.4,146.4,0,0,1,131,331a125.87,125.87,0,0,1-13.9-4.09,89.39,89.39,0,0,1-14-5.57,98.65,98.65,0,0,1-23.12-17.14,90.27,90.27,0,0,1-18.42-24.94,96.42,96.42,0,0,1-4.22-10.66,81.83,81.83,0,0,1-2.54-11.88,20.24,20.24,0,0,1,.7-11.51l-.48,1.33a24.12,24.12,0,0,0,2.18-8.29q1.15-5.26,2.11-10.57a70,70,0,0,1,3.11-12.1l1.93-6.29c5.74-18.59,11.61-37.13,17-55.82,4.55-15.64,8.77-31.37,12.37-47.26,4.35-19.15,8.47-41.88,1.65-60.23a48,48,0,0,0-2.35-5.53,20.65,20.65,0,0,0-4.34-6.24,7.31,7.31,0,0,0-1.14,5.16q-.3,9.72-.15,19.45T88,78.27A7.34,7.34,0,0,0,89.21,83.41Z"/>
    <path class="cls-5" d="M85,79.64l1.25,6-.16-2.39-.34,7.79,1.39-2.89c-1.54.58-3.42.8-4.8,1.66L79,94.41q-2.79,3.65-5.38,7.42c-2.58,3.68-5.35,7.2-8.07,10.78-9.06,12-16,25.47-22.3,39q-9.14,19.71-16.88,40a466.48,466.48,0,0,0-15.23,45.18C8.35,247,5.81,257.78,6.65,268.37c.08.94.14,1.9.24,2.84a57.48,57.48,0,0,0,2.73,12.1A96.75,96.75,0,0,0,25,312c11.73,15.29,27.22,27.83,43.8,37.49a167.15,167.15,0,0,0,19.75,9.8c3.92,1.63,7.88,3.21,11.91,4.53,5.08,1.65,10.27,2.85,15.47,4.08,6.34,1.5,12.59,3,19,4.1a171.65,171.65,0,0,0,25.41,2.28,202.78,202.78,0,0,0,37.71-2.93c26.39-4.48,51.73-13.5,76.11-24.38,47-21,90.64-49.28,138.82-67.77,18.4-7.06,38-12.29,57.79-12.88a98.9,98.9,0,0,1,12.53.25l20.39,8.11a53.07,53.07,0,0,1,23.38,10.26c6.35,4.57,12.59,9.29,19,13.83A181.22,181.22,0,0,0,566,311.21c3.67,2,7.41,3.82,11.24,5.44,5.62,2.38,11.41,4.19,17.22,6.05,15.4,4.94,31,9.31,46.77,12.93,6.06,1.38,13.39,2.93,19.51,4.1A419.25,419.25,0,0,0,704.59,346c20.46,1.69,40.88,4.87,61.46,4.28a147.26,147.26,0,0,0,30.36-4,128.44,128.44,0,0,0,36-15.19,170.66,170.66,0,0,0,31.19-24.79c10.79-10.64,20.94-21.91,31-33.25,10.83-12.22,21.47-24.63,32.68-36.52q5.89-6.24,12-12.25c6.51-6.37,13.29-12.25,20.31-18.06l-.81.6,9.11-6.75-.81.6a135.88,135.88,0,0,1,17-10.15,102.36,102.36,0,0,1,17.6-6.86l12.63-2c3.8.08,7.59.21,11.39.39,6.19.26,12.35.6,18.51,1.35a132.27,132.27,0,0,1,18.85,3.5,75.52,75.52,0,0,1,22.46,9.91l-2.84-2c22.08,16.93,18.95,41,26.22,63.18,3.59,10.92,9.31,21.36,18.06,29a65.37,65.37,0,0,0,21.42,12.82l8.79,2.66a52.4,52.4,0,0,0,13.85,1.85,72.08,72.08,0,0,0,14.31-.32c1.72-.26,3.43-.58,5.14-.94a83.65,83.65,0,0,0,14.23-3.71,105.1,105.1,0,0,0,26.43-14.73A125.22,125.22,0,0,0,1253.25,263a174.92,174.92,0,0,0,16.63-24.72,238.73,238.73,0,0,0,20.62-49.45q2.77-9.5,5-19.14,1.29-5.52,2.4-11.06a38.42,38.42,0,0,1,5-12.92l-.76,1.1a31,31,0,0,1,12.82-11.5l-5.19,2.69,8.46-3.86-6.1,2.34a99,99,0,0,1,36.82-5.38,103.69,103.69,0,0,1,17.91,2.07l27.46,9.69a46.33,46.33,0,0,1,7,4.63,41.58,41.58,0,0,1,14.24,17.73,30.44,30.44,0,0,1,2.18,7.75,35.36,35.36,0,0,1,.89,8.08l-.55,5.52a64.27,64.27,0,0,1-2,8.57,35.61,35.61,0,0,1-3.25,8.5c-1.31,2.51-3.5,4.92-4,7.76-.57,3,1.3,5,1.09,8.31l1-3.59c-3.68,7.29-10.32,8.43-17.11,9.77a51,51,0,0,0-9.23,2l-4.41,1.18c-3.84,1.14-7.68,2.59-11.43,4a88.92,88.92,0,0,0-13.61,6.31c-14.62,8.62-27.88,21.91-32.75,38.55a40.22,40.22,0,0,0-1.55,13.53,39.17,39.17,0,0,0,9.17,23.21l6.58,7.24a33.11,33.11,0,0,0,8.86,7.13c6.9,3.88,14.61,8.34,22.3,10l11.2,2.15a128.22,128.22,0,0,0,23.41,1.4c7.37-.05,15.23-.55,22.56-1.32,19.85-2.1,39.43-6.06,58.8-10.82,16-3.95,32-8.41,47.6-13.83,6.27-2.18,12.5-4.55,18.56-7.27s11.85-6,16.57-10.86a47.65,47.65,0,0,0,7.25-9.89,21.73,21.73,0,0,0,2.53-4.31c3.11-6.77,4-10,5.87-17.3a47.32,47.32,0,0,0,1.54-10.82l.37-10.57c-.08-6.36-1.45-13.5-2.78-19.69-4.78-22.25-15.38-42.53-27.13-61.81-10.08-16.53-22.44-31.77-35.38-46.12-8.31-9.22-17-17.93-26.12-26.38-.48-.88-1-.87-1.4,0a16.61,16.61,0,0,0-.63,6.12q-.07,5.88.18,11.76a16.74,16.74,0,0,0,.82,6.1,465.12,465.12,0,0,1,36.77,40.48A234.42,234.42,0,0,1,1542.92,176q3.75,6,7,12.24,2.43,4.11,4.92,8.18l-.41-.74,4.51,8.22-.39-.74,4,8.23-.35-.75,3.44,8.26-.29-.76,3.09,8.54-.23-.76q1.93,6,3.28,12.25a59.69,59.69,0,0,1,1.86,11.11l-.23,9.29q-.48,19.72-12.13,33.52a25.75,25.75,0,0,1-7.33,7.19l-5.66,3.61c-2.53,1.21-5.09,2.36-7.68,3.43q-4.35,1.89-8.77,3.55c-13,4.89-26.43,8.77-39.82,12.42-15.9,4.33-32,8.28-48.2,11.17-20.9,3.73-42.71,6.51-63.82,3.22a62.4,62.4,0,0,1-26.08-9.85,32.17,32.17,0,0,1-11.22-9.23l-5.26-6.76a25.61,25.61,0,0,1-5.62-12.7l-.83-5.82a29,29,0,0,1,2-11.82,28.1,28.1,0,0,1,3.87-11l2.39-4.22c5-8.23,11.85-15.05,18.92-21.45l-.7.59c5.3-4,10.59-8.06,17-9.92,8.34-2.41,17.12-2.67,25.49-4.9a27.5,27.5,0,0,0,5-1.58,6.28,6.28,0,0,0,3.94-2.28,13.61,13.61,0,0,0,4-5.46,12.48,12.48,0,0,0,.57-2.7c.49-3.66,0-4.45-1.37-7.81l-.9,4.31,3.83-5.89a55.87,55.87,0,0,0,5.27-12,48.28,48.28,0,0,0,2.67-17.7,41.31,41.31,0,0,0-10.85-26c-13.45-14.58-33.07-21.05-52.23-23.84-14.11-2.06-28.82-1.68-42.42,2.79-6.75,2.22-13.67,5.54-19,10.34a41.72,41.72,0,0,0-8.59,11.17c-4.24,8-5.32,17.22-7.33,25.95a244,244,0,0,1-13.8,42.33c-7.12,16.44-16.14,32.23-28.17,45.61-16.41,18.25-38,31.48-64.88,31.79a70.48,70.48,0,0,1-26.13-4.67,64.52,64.52,0,0,1-20.76-12.67c-9.66-8.9-15.89-20.79-19.2-33.37-3-11.29-2.88-23.27-7.07-34.26a40.16,40.16,0,0,0-11.74-16.57c-12.48-10.48-28.57-14.83-44.43-17a180,180,0,0,0-19.68-1.46c-5.52-.13-11.11-.39-16.63-.19a57.46,57.46,0,0,0-16.61,3.05c-16.35,5-31,14.15-44.39,24.67-20.72,16.32-38.18,36.37-55.58,56.06-6.76,7.66-13.51,15.33-20.41,22.87s-13.71,15-21.16,21.94c-14.8,13.75-32,25-51.25,31.3-16.37,5.34-33.52,6.77-50.65,6.07-8.51-.35-17-1.22-25.46-2.11-15.62-1.66-31.25-2.91-46.78-5.29a544.76,544.76,0,0,1-74.85-17.12c-11.63-3.51-23.1-7.1-34-12.43-13.95-6.81-26.41-15.9-39.1-24.74-10.51-7.32-21.51-14.45-34-17.91-17.13-4.74-35.6-3.6-52.86-.2-16,3.15-31.61,8.47-46.62,14.79-19.45,8.18-38.28,17.62-57,27.36-44.06,22.94-88.47,48.15-137.75,57.85a199.82,199.82,0,0,1-36,3.91,180,180,0,0,1-24.56-1.35,187.89,187.89,0,0,1-24.39-5.07,163.94,163.94,0,0,1-22.11-6.65,151,151,0,0,1-45.19-27.71,122.18,122.18,0,0,1-18.65-20.63C21.75,294.71,14.72,279.19,15,263.68a90.36,90.36,0,0,1,2-16.05,257.9,257.9,0,0,1,6.79-25.45c5.31-17.11,11.43-34,17.89-50.69,6.13-15.85,12.58-31.62,20.55-46.65A136.69,136.69,0,0,1,74,106.43a54.92,54.92,0,0,1,5.65-6.89,66.74,66.74,0,0,1,8.47-7.2A5.45,5.45,0,0,0,89,89.68c.72-5.76-.29-10-1.29-15.66-.22-1.24-1.9-.88-2.38-.13C84.44,75.26,84.69,78.13,85,79.64Z"/>
    <path class="cls-5" d="M84.83,103.18l1.46,3.62L86,97.47l-.37,8.71,1.56-11.46a27.84,27.84,0,0,1-3.33,9.48q-1.78,3.61-3.89,7.07C75,119.8,69.5,128,64.15,136.34a312.21,312.21,0,0,0-21,37.68,635.36,635.36,0,0,0-27.42,69.31c-3.67,11.2-7.41,22.79-8.93,34.53a63.62,63.62,0,0,0-.57,13,67.26,67.26,0,0,0,4,18.33c3.84,10.45,10.11,20.05,17.2,28.54a150.2,150.2,0,0,0,40.25,33.67,171.2,171.2,0,0,0,39.48,16.79q7,1.64,13.93,3.36a136.83,136.83,0,0,0,18.94,3.68,199,199,0,0,0,31.82,1.28c43.68-1.79,85-17.78,123.82-36.82,18.66-9.16,36.92-19.12,55.36-28.72,17.23-9,34.62-17.86,52.64-25.16,14.75-6,29.79-11.05,45.43-14.14A123.13,123.13,0,0,1,475,289.2l8.29.38a74.69,74.69,0,0,1,15.7,2.85l-1.07-.34,8,2.91-1.09-.41a89.58,89.58,0,0,1,12.7,6.72q6,3.84,11.8,8.08c6.32,4.57,12.49,9.35,18.92,13.77a154.37,154.37,0,0,0,27.87,15.7c14.38,6,29.54,10.31,44.56,14.34q18.84,5.06,38,8.77,19.44,3.76,39.12,6c9.25.9,18.49,1.76,27.73,2.71,17.3,1.79,35,3.57,52.4,1.4a172.65,172.65,0,0,0,17.65-3.05,129.75,129.75,0,0,0,36.67-15,158.51,158.51,0,0,0,26.89-20.51c12.54-11.71,23.88-24.78,35.22-37.63,8-9.09,16-18.27,24.11-27.23,10.19-11.2,20.64-22.35,32.17-32.2a182.61,182.61,0,0,1,24.92-18.36,115.59,115.59,0,0,1,17.28-8.54,92.18,92.18,0,0,1,17.85-5l-.95.13c9.9-.18,19.78.4,29.64,1.18l-1-.1,7.28.81-1-.14,7.33,1.09-1-.19,7.31,1.41-1.05-.24,7.22,1.77-1-.28,7.06,2.18-1-.34a80,80,0,0,1,13.31,6.19,24.15,24.15,0,0,1,4.67,3.23,32.88,32.88,0,0,1,9.23,10.14l-3.23-5.13,4.33,7.85-3.09-6.62,5.17,12.1-2.64-7,4.19,12.76L1099,238q3.35,12.56,5.62,25.34.88,4.45,1.8,8.93a86.46,86.46,0,0,0,6.87,19.48,60.59,60.59,0,0,0,18.22,21.49c5.14,3.76,9.9,5.94,15.73,8.46a80,80,0,0,0,17.75,4.48,89.39,89.39,0,0,0,19.14.2,94.43,94.43,0,0,0,38.26-13c22-13.18,37.78-34.38,49.56-56.71,9-17,15.6-35.22,20.79-53.75q2-7.42,3.72-14.91a94.82,94.82,0,0,1,3.85-14.58,27,27,0,0,1,10.75-13,39.5,39.5,0,0,1,9.83-4.53c7.08-2.25,14.66-2.9,22-2.89a118.42,118.42,0,0,1,23,2.32,102.92,102.92,0,0,1,22,6.81,75.33,75.33,0,0,1,9.87,5.27,55.46,55.46,0,0,1,15.1,14l-3.39-4.53,4.6,6.85-3.42-6,5.5,12.06-2.07-5.82,2.6,14.78a47,47,0,0,1-1.54,11.13,23.24,23.24,0,0,1-2.37,8.72,32.52,32.52,0,0,0-2,5.64c-.65,2.46-1.18,5-1.58,7.5-.59,3.69-.1,4.08,1.5,7.75l-.07-4.19-.38,3.29,2.08-10.81-2.69,6.22.92-1.11a54.25,54.25,0,0,1-8.11,6.94l1.07-.81c-5,2.22-10.09,4.27-15.28,6.13-2.9,1-5.78,2-8.61,3.23q-3.52,1.48-7,3.06l-5.95,3.33c-4.47,2.5-8.67,5.06-13,7.91a95.4,95.4,0,0,0-17.92,14.94c-5,5.52-9.77,11.92-12.47,18.95a44.06,44.06,0,0,0-2.85,21.49,31.78,31.78,0,0,0,2.83,9.31,30,30,0,0,0,6.13,10.3l6.6,7a47.56,47.56,0,0,0,13.61,9.32,74.3,74.3,0,0,0,16.72,7.17l11.79,2.47a93.42,93.42,0,0,0,18.11,1.62,166.69,166.69,0,0,0,17.6-.2,376.39,376.39,0,0,0,56-8.56c12.85-2.85,25.63-6,38.27-9.69,10-2.89,20.08-5.84,29.79-9.62,6.85-2.67,13.77-5.27,20-9.16a34.11,34.11,0,0,0,8.45-6.64l5-6.32a42,42,0,0,0,6.14-11.66,64.31,64.31,0,0,0,4.37-13.72l1.36-10.21a68.91,68.91,0,0,0,0-15.79,102.23,102.23,0,0,0-2-15.88l-2.61-10.2a181.23,181.23,0,0,0-11.15-28.76,225.29,225.29,0,0,0-13.89-24.72c-17.28-27-38.63-51.05-62.16-72.73-2.07-1.91-3.63,3.2-2.29,4.45A394.91,394.91,0,0,1,1528.57,158c14.31,17.85,27.29,37.12,36.16,58.29,8.14,19.42,13.51,40.5,10.22,61.64a58.31,58.31,0,0,1-4.9,17.31l-3.78,7.63a68.76,68.76,0,0,1-9.55,11.63,59.18,59.18,0,0,1-11.26,7.47l.7-.33a265.78,265.78,0,0,1-26.71,9.94c-11.67,3.64-23.48,6.75-35.33,9.72l.75-.18c-29.33,6.92-59.38,13.35-89.69,11.88a47.21,47.21,0,0,1-10.73-1.15,64.13,64.13,0,0,1-10.55-2.17,43.2,43.2,0,0,1-14.87-5.83l-8.4-5.11L1344,333.1l-5.33-5.91a22.45,22.45,0,0,1-5.16-8.52,26.64,26.64,0,0,1-2.15-7.38l.08.78a43.19,43.19,0,0,1,.26-9.84,58,58,0,0,1,2.68-9.05c2.46-6,6.17-11.13,10-16.26l-.65.83c5.42-6.15,11.07-12,17.92-16.58l-4.19,2.38a111.88,111.88,0,0,1,13.78-5.58l-1.08.31c7-1.85,14.11-3,21.21-4.46a57,57,0,0,0,10.42-2.94l4.44-2.1a9.7,9.7,0,0,0,4.35-4.12,11.92,11.92,0,0,0,2.11-4.19,73.77,73.77,0,0,0,1.43-7.4c.32-2.17.52-4.35.68-6.54s-.38-3.45-1.13-5.72l-2.48,14.12a80.16,80.16,0,0,0,6.43-12,65.63,65.63,0,0,0,3.48-11.71,42.58,42.58,0,0,0-1.47-21.88,57.9,57.9,0,0,0-6.46-13c-7.12-10.69-19.2-17.61-31.09-21.75a114.64,114.64,0,0,0-48.54-5.32,69.86,69.86,0,0,0-21.63,5.3,39.42,39.42,0,0,0-9.36,5.79A25.37,25.37,0,0,0,1298,165a15.27,15.27,0,0,0-3.38,5.19,20,20,0,0,0-2.62,6.44c-1.49,4.72-2.56,9.54-3.79,14.34a136.91,136.91,0,0,1-4.72,15.45,137.47,137.47,0,0,1-5.26,15.6c-2,5.3-4.26,10.51-6.67,15.65a182.68,182.68,0,0,1-18.09,30.85,138.61,138.61,0,0,1-11.91,14.24,68.65,68.65,0,0,1-6.67,6.43,34.17,34.17,0,0,1-7.42,5.79,63.37,63.37,0,0,1-8.14,5.09,32.69,32.69,0,0,1-8.76,4.18,61.66,61.66,0,0,1-9.34,3.21,35.23,35.23,0,0,1-9.29,2.13,52.56,52.56,0,0,1-9.2,1,38,38,0,0,1-9.17.06,52.6,52.6,0,0,1-9.12-.91,46.58,46.58,0,0,1-12.81-3.05l.8.3-8.67-3.56.79.35a63.58,63.58,0,0,1-13.19-8.4,64.87,64.87,0,0,1-9.74-9.93c-5.45-6.85-9.08-14.5-12.35-22.56l.56,1.38c-2.34-7-4.48-14-6.3-21.19a71.19,71.19,0,0,0-2.44-8.06,55.59,55.59,0,0,0-8.44-15.41,41.67,41.67,0,0,0-12.78-10.23c-20.27-10.6-43.66-11.13-66-10.77a97,97,0,0,0-10.92.64,42.47,42.47,0,0,0-10,2.58,112.78,112.78,0,0,0-17.55,7.43c-22,11.47-40.35,29-57.41,46.68-11.25,11.69-22,23.86-33.08,35.72q-8.52,9.22-17.36,18.14-8.59,8.77-17.84,16.85a147.17,147.17,0,0,1-26.63,18.23,135.34,135.34,0,0,1-18.83,8A132.88,132.88,0,0,1,786,357.58l.79-.15-9.64,1.5.8-.12a197.31,197.31,0,0,1-25.72,1.07c-7.07-.25-14.11-.8-21.15-1.52-16.71-1.7-33.45-3.62-50.07-6.08-16.16-2.39-32.15-5.54-48-9.26q-14.06-3.25-27.85-7.49-13.56-3.82-26.83-8.57a219.93,219.93,0,0,1-36.18-17.87c-8.26-5-16.34-10.31-24.69-15.16a122.78,122.78,0,0,0-18.84-8.73,69.47,69.47,0,0,0-15.22-3.56,111.23,111.23,0,0,0-21-.44c-16.67,1.05-33.1,5.07-48.83,10.6-33.19,11.65-64.25,28.46-95.56,44.3-37.11,18.77-75.28,36.35-116.63,43.17A226.33,226.33,0,0,1,171,382.2a139.85,139.85,0,0,1-18.31-.63,132.73,132.73,0,0,1-18.2-2.28,211.21,211.21,0,0,1-44.61-13.63,158.87,158.87,0,0,1-34.58-21.39,121.93,121.93,0,0,1-18.3-18l-5.23-6.77a101.13,101.13,0,0,1-8.37-14.29l.33.74-3.29-8.05.29.76a47.8,47.8,0,0,1-3.17-14.5l-.13-4.37a79.26,79.26,0,0,1,1.95-15.4c2.89-14.62,7.83-28.91,12.74-42.94q7.78-22.28,16.73-44.14c6.58-16,13.68-32,22.64-46.87l-4.14,6.44c3.79-5.19,7.85-10.2,12-15.11,2.94-3.48,5.86-6.8,7.9-10.89a9.08,9.08,0,0,0,1.23-4.33c.43-2.83.76-5.66,1-8.51a34.58,34.58,0,0,0-.32-8.13,40.86,40.86,0,0,0-2-6.18c-.44-.74-.9-.76-1.4-.06a11.28,11.28,0,0,0-1,5c-.25,3.19-.4,6.38-.44,9.59A11.46,11.46,0,0,0,84.83,103.18Z"/>
    <path class="cls-5" d="M86.86,86.78l1.64,2.63-.89-6.35.21,7.66,4.86-56.63-16,76.35L87.84,84.85,71,120.49l2-4.15c-6,11.59-11.71,23.21-16.79,35.2Q49,168.46,42.48,185.63c-4.65,12.14-9.11,24.37-13.26,36.69-3.3,9.83-6.47,19.73-9,29.8-2.17,8.75-3.71,17.82-3,26.84l.79,7.23A59,59,0,0,0,21.83,298a84.75,84.75,0,0,0,10.59,19c16.28,21.85,39.12,38.27,64.31,48.35a128,128,0,0,0,14.18,4.7q7.71,2.07,15.41,4.21l12,2.23a184,184,0,0,0,59.38-1.23C234.06,368.64,268.07,354,301,337.8c30.63-15.07,60.57-31.75,92.18-44.75C408,287,423.29,281.49,439,278.35c5.85-1.17,11.73-2.12,17.67-2.74a139,139,0,0,1,25.56.13l-1.65-.23,9.64,1.64-1.64-.29a82,82,0,0,1,14.62,4.88,128.58,128.58,0,0,1,13.37,6.86c6.59,3.78,12.94,8,19.35,12.06,8.37,5.31,16.74,10.55,25.56,15.07,12.12,6.21,24.66,10.4,37.7,14.42,18.43,5.68,37.11,10.36,56,14.21q19.22,3.81,38.67,6.14,9.24.86,18.46,1.9c18.29,2,36.6,4.33,55,3.15a127,127,0,0,0,55.21-16.36C835,332,846.16,322.86,856.4,312.76c8.9-8.78,17.44-17.93,25.91-27.12,18.26-19.84,36-40.39,56.42-58.07a197.28,197.28,0,0,1,25-18.74,133.7,133.7,0,0,1,17.44-9.2,106.55,106.55,0,0,1,18.14-6l-1.59.36c15.28-1.39,30.64-2,45.91-.29a106.23,106.23,0,0,1,22.25,4.65,67.88,67.88,0,0,1,11.34,4.93,48,48,0,0,1,9.52,6.85l-3.36-3.16,7.2,7.33-30.92-40.35,40.93,61.75-5.34-13.13c3.47,9.38,6.86,18.7,9.92,28.21A133.41,133.41,0,0,0,1111,266c5.23,11.25,12.38,21.63,22.44,29.09a65,65,0,0,0,18.39,9.33,66.34,66.34,0,0,0,20.91,3.66l8.71-.29a69.52,69.52,0,0,0,12.88-2.68,77.3,77.3,0,0,0,20.41-8.84,122.76,122.76,0,0,0,32.67-30.62,198.87,198.87,0,0,0,19.87-33.45,248,248,0,0,0,14.19-36.88q1.63-5.46,3.08-11l1.72-6.87,2.38-6.71a39.85,39.85,0,0,1,6.94-10.52l-1.09,1.15,4.21-4,4.6-3.36a52.66,52.66,0,0,1,12.87-5.9,91.11,91.11,0,0,1,25.91-4.34,118.94,118.94,0,0,1,23.83,1.64,96.66,96.66,0,0,1,14.2,3.64,94,94,0,0,1,13,5.7l-3.87-2.38,8.53,5.31L1394,155l8,5.89-3.59-2.84,7.43,6.49-9.9-10,10,10.65L1377.66,129l39.07,58.73-18.93-51.93a296.6,296.6,0,0,1,15.34,87l7.22-50.54-10.78,51.75,12.81-44.61-15.71,46.72,16.68-42.82-20.08,44.81,20.7-41-24.23,42.68L1426.91,188l-41.49,50.87,36.3-33.63L1369.32,248l-3.84,2.82a105.57,105.57,0,0,0-9.18,8,102.09,102.09,0,0,0-15.22,18,55.12,55.12,0,0,0-7.54,17.42,31.83,31.83,0,0,0-.12,12.75,18.83,18.83,0,0,0,1.55,5.65,12.51,12.51,0,0,0,3,5.8,42.51,42.51,0,0,0,7.41,8.76l6.91,5.69,8.46,4.16,9.29,3.59,9.61,1.94,9.84,1.48q7.53.48,15.08.67a61.84,61.84,0,0,0,10-.09,366.22,366.22,0,0,0,42.45-4.21c12.89-2.13,25.67-4.95,38.33-8.16,9.76-2.48,19.45-5.21,29-8.36,5.11-1.68,10.17-3.55,15.11-5.68a62.16,62.16,0,0,0,10.6-5.47,42.83,42.83,0,0,0,11.84-13,22.52,22.52,0,0,0,3.49-6.87,37.25,37.25,0,0,0,2.63-7.61c3.6-12.49,3.2-26.14,1-38.84a153.32,153.32,0,0,0-12.56-38.19,280.4,280.4,0,0,0-16.35-30c-13.83-21.94-30.86-41.55-49.35-59.66a7.93,7.93,0,0,0-1.55,5.3q-1.05,10.13-1.67,20.28t-1,20.32a7.82,7.82,0,0,0,.83,5.46,259.76,259.76,0,0,1,22.54,33.71,99.86,99.86,0,0,1,7.85,17.85,39.1,39.1,0,0,1,1.85,8.2q.62,3.66.87,7.36a60.55,60.55,0,0,1,1.63,8.32,52.3,52.3,0,0,1,.76,7.81,43.05,43.05,0,0,1-1.68,13.32,12.34,12.34,0,0,1-1.92,4.68c-.75,1.29-1.51,2.58-2.29,3.85q-1.65,1.49-3.15,3.1a9,9,0,0,1-3.63,2.67l-3,2.12c-2.69,1.3-5.41,2.56-8.14,3.78l-5.12,1.68a38,38,0,0,0-9.46,2.59l-6,1.87q-5.94,1.11-11.9,2.14c-6.71,1.13-13.44,2.21-20.2,3-12.39,1.49-25.39,3-37.73.45a61.23,61.23,0,0,1-8-2,64.35,64.35,0,0,1-8.8-1.87,18.93,18.93,0,0,1-6.76-2.64,9.88,9.88,0,0,1-4.84-4l.69,1.44-1.54-3.76.45,1.56-.55-2.33.18,1.6a11.57,11.57,0,0,0,.34-2.41,1.52,1.52,0,0,0-.43-1.64l-.33,1.6.67-3-.54,1.55c.93-1.58,1.8-3.18,2.6-4.83l-.87,1.42,1.33-1.75a15.73,15.73,0,0,0,2.22-3.72c1.75-3,3.69-5.86,5.56-8.75,2.45-3.77,4.92-7.53,7.45-11.25,2.89-4.26,6-8.42,8.75-12.75,7.28-11.41,9.13-19.45,11.21-31.68l2.14-13.48q1.82-11.47,3.19-23l.21-4.64a16.39,16.39,0,0,0-2.18-5.2,46.67,46.67,0,0,1-5.47-9.81,54.15,54.15,0,0,0-8-10.44,64.27,64.27,0,0,0-14.58-11.69,77.29,77.29,0,0,0-17.9-7.38,108.22,108.22,0,0,0-39.09-3.11c-30.18,2.8-60.75,16.29-79.68,40.56-8.31,10.65-13.81,23.11-20.25,34.89l-2.43,4.48q-2.48,5.88-5.32,11.59l-3.14,3.8a46.31,46.31,0,0,0-6.32,8.4c-6.2,8.72-13.6,17-22.62,22.93a51.2,51.2,0,0,1-12.29,5.86,23.53,23.53,0,0,1-7.86,1.68,22,22,0,0,1-8,.18l-4.46-.25q-5-1-10-2.33l-5.47-2.09q-4.58-2.94-8.82-6.3c-8.65-6.87-15.66-15.38-22.42-24-9-11.55-17.56-23.65-28.53-33.49a86.37,86.37,0,0,0-18.1-12.62,90.16,90.16,0,0,0-26.8-8.46c-14.63-2.38-29.67-2-44.31,0a196.39,196.39,0,0,0-42.73,10.95c-41,15.58-73,47.24-104.68,76.4-7.78,7.15-15.6,14.25-23.65,21.11-7.84,6.68-15.82,13.5-24.34,19.32a103.67,103.67,0,0,1-43.09,17.18c-14.22,2.13-28.68,1.38-42.9-.2-7.77-.87-15.51-2-23.23-3.22-11.21-1.72-22.4-3.45-33.53-5.61l-18.43-3.43Q624,294,605.87,289.08c-17.93-4.85-35.71-10.61-53.18-16.92-16.46-5.94-32.49-13.06-49.1-18.61s-34-9.37-51.68-9.69c-18.85-.33-37.63,3.07-55.75,8-38.88,10.65-75.2,28.77-112.07,44.68C246.07,313,205.51,329,163.4,328.34A143.2,143.2,0,0,1,137,325.48a145.64,145.64,0,0,1-17.43-4.73A106.63,106.63,0,0,1,102,313.36a85.74,85.74,0,0,1-11.25-8.16,96.64,96.64,0,0,1-14.27-14.68,76.05,76.05,0,0,1-15-33.19l-.83-5.82a19.5,19.5,0,0,1,1.1-11,17.23,17.23,0,0,0,1.83-6.84q1.22-5.21,2.15-10.48L67,217l3.75-12.16c2.92-9.49,5.84-19,8.68-28.5,5.58-18.73,10.93-37.56,15.26-56.63,1.83-8,3.5-16.1,4.82-24.23,1.6-9.84,2.91-19.9,2.61-29.9a74.41,74.41,0,0,0-3-18.68,62,62,0,0,0-5.61-14.32A21.72,21.72,0,0,0,89,26.7,10.49,10.49,0,0,0,87.54,33q-.8,11.85-1.14,23.73t-.52,23.76A10.41,10.41,0,0,0,86.86,86.78Z"/>
    <path class="cls-5" d="M87.72,77.91l1.67,2.58-1-5.39L88.79,82l3.86-48.2-14,68.42L83.58,91c-6.33,13.26-13.15,26.3-19.15,39.72-4.85,10.85-9.38,21.84-13.79,32.88-9,22.6-17.61,45.5-24.57,68.83a164.79,164.79,0,0,0-6.16,27.1,59.05,59.05,0,0,0-.26,12.18l.78,7a58.16,58.16,0,0,0,3.74,11.6c4.82,12,12.74,22.71,21.71,31.94A153.49,153.49,0,0,0,111,361.4c9,2.58,17.77,5.33,27.06,6.71a207.3,207.3,0,0,0,23.73,2.13,180.84,180.84,0,0,0,29.41-1.74,239.21,239.21,0,0,0,28.8-5.58,354.37,354.37,0,0,0,49.47-17.2C302.09,332,333.08,314.86,365,299.64c15.27-7.29,30.81-14.33,46.85-19.79,6-2,12.05-3.93,18.17-5.58a201.06,201.06,0,0,1,26.52-5l-1.58.14,10.18-.75-1.58.1a118.84,118.84,0,0,1,16.77.41,73.42,73.42,0,0,1,15.37,3.25A117.63,117.63,0,0,1,516,281.63c8.87,4.84,17.28,10.5,26,15.68,5,3,10.12,5.82,15.26,8.61,13.14,7.12,27.11,11.8,41.37,16.21,18.41,5.71,37.06,10.43,55.93,14.32q19.2,3.87,38.63,6.27,9.24.93,18.44,2c10,1.14,20,2.36,30,3.08,19.92,1.43,39.73.41,58.83-5.85a130.39,130.39,0,0,0,30.28-14.51c11.12-7.18,20.87-15.93,30.28-25.18,20.18-19.85,38.62-41.36,58.53-61.47A319.86,319.86,0,0,1,948,214.83a181.83,181.83,0,0,1,16.73-11.92A133.31,133.31,0,0,1,982,193.7l-1.49.65a107.72,107.72,0,0,1,17.89-6.16c3.57-.38,7.16-.7,10.74-.95,7.16-.5,14.32-.7,21.49-.53a144.36,144.36,0,0,1,22.55,2.09,95,95,0,0,1,12.35,3,68.14,68.14,0,0,1,11.24,4.67l-3.61-2.15,8.6,5.17-3.46-2.34,7.92,5.84-9.55-8.36,10.31,9.6L1073.06,189l17.28,19.48-24.67-32.76,34.75,51.9-5.33-11.12q5,11.28,9.22,22.88l-1.41-3.76c3.57,9.91,6.95,20,12.48,29a92.42,92.42,0,0,0,7.87,11.37,65.51,65.51,0,0,0,13.94,12.33,69,69,0,0,0,35.24,11.3,75.16,75.16,0,0,0,21.32-2.39,78.06,78.06,0,0,0,20.33-8.08,117.34,117.34,0,0,0,30.59-26,161,161,0,0,0,13.17-17.88c3.09-4.93,6-9.93,8.64-15.08,3.25-6.22,6.07-12.6,8.74-19.08,2.48-6,5-12.13,7-18.33,1.57-4.9,3-9.87,4.34-14.84a60.25,60.25,0,0,1,3-10.39,31.72,31.72,0,0,1,4.39-9.14l-1,1.32,4.76-6.08-1.06,1.29a30.63,30.63,0,0,1,6.39-5.59,34.21,34.21,0,0,1,7.07-4.29l-4.15,1.79,9.23-3.93-4.23,1.54,9.51-3.24-4.29,1.27,9.74-2.59-4.33,1,9.92-2-4.35.76,10.05-1.41-4.37.49,10.15-.85-4.37.24,10.18-.31h-4.35l10.18.22-4.32-.24,10.13.75-4.28-.48,10,1.28-4.24-.7,9.9,1.81-4.17-.93,9.71,2.35-4.1-1.15,9.47,2.9-4-1.37,9.16,3.45-3.91-1.59,8.81,4-3.8-1.81,8.38,4.58-3.66-2,8.35,6.16-24.11-22.36,33.65,32.78-28.09-34.94,33.06,49.22-17.93-40.32,17,56.19-5-43.28-.29,67.8,12.28-42-17.47,42.53,21.56-38L1383.67,234l9.85-7.43c-6.66,4.58-13.33,9.12-20,13.68-2.7,1.84-5.29,3.8-7.82,5.85a120.84,120.84,0,0,0-17,16.64A66.66,66.66,0,0,0,1337.6,281a37.71,37.71,0,0,0-2.63,11.51,33.79,33.79,0,0,0,1.19,10.3,18,18,0,0,0,4.15,8.38,27.63,27.63,0,0,0,4.67,5.56,30,30,0,0,0,6,5.46,20.26,20.26,0,0,0,7.4,4.66,76.9,76.9,0,0,0,12.92,5.38l9.17,2a160,160,0,0,0,19.15,2.22,93.33,93.33,0,0,0,14.67.35c3.26-.07,6.51-.19,9.77-.36,7.77-.34,15.55-.87,23.27-1.85,13.26-1.69,26.38-4.17,39.4-7.16,11.43-2.62,22.82-5.54,34-9.06,9-2.82,18-5.88,26.29-10.42a20.67,20.67,0,0,0,5.55-3.69,19.35,19.35,0,0,0,5.06-4.78,41.21,41.21,0,0,0,6.61-9l3.25-7.17a68.69,68.69,0,0,0,4-16.34l.76-8.86a107.75,107.75,0,0,0-.8-13.56c-1.38-13.69-5.51-27.21-10.86-39.85a241.29,241.29,0,0,0-18.7-35c-14.12-22.17-31.47-42-50.32-60.23a10.37,10.37,0,0,0-1.64,6.21q-1.24,11.83-2,23.73t-1.39,23.77a10.44,10.44,0,0,0,.74,6.38c8.3,10.67,16.23,21.64,22.78,33.48a98.78,98.78,0,0,1,8.14,17.78l1.6,5.65c.64,3.36,1.13,6.73,1.45,10.13l1.33,5.59a67,67,0,0,1,1.36,10.74,43.53,43.53,0,0,1-1.07,11.55,30.3,30.3,0,0,1-1.68,5.39c-.81,1.48-1.68,2.93-2.62,4.33a34.85,34.85,0,0,1-6.54,6.18,38,38,0,0,0-4.42,2.93l-3.7,1.72a46.79,46.79,0,0,1-9.62,3.71l-4,.79c-2.79,1-5.6,1.88-8.43,2.73a38.29,38.29,0,0,1-8.78,2c-6.48,1.18-13,2.27-19.5,3.2-7.07,1-14.26,1.95-21.41,2.33-6.88.37-14,.73-20.81-.59-4.73-.91-9.24-2.54-13.92-3.64a62.08,62.08,0,0,1-8.45-2.4,32,32,0,0,1-7.11-4.66l.9,1.12-1.94-2.65.69,1.24-1.38-3.51.46,1.37q1.11-2.3-.21-3.8c-.48-.44-.48-1,0-1.65l-.54,1.4c.85-1.49,1.68-3,2.48-4.5l-.87,1.28a27.1,27.1,0,0,0,2.85-4.05c.66-1.28,1.48-2.4,2.24-3.62,2-3.24,4-6.53,6.07-9.73,6-9.19,12.37-18.12,18.39-27.3a165.27,165.27,0,0,0,8.63-14.41c1.28-2.47,2.68-5,3.79-7.5s1.94-5.17,2.84-7.75a42.7,42.7,0,0,0,1.78-7.75l.36-2.59q1.86-9.47-4.62-18.21c-1.5-4.71-3.24-11.58-5.52-17a67.68,67.68,0,0,0-3.29-6.32,44.21,44.21,0,0,0-6-7.86,79.75,79.75,0,0,0-6.54-6.59A65.53,65.53,0,0,0,1386.88,128c-12.7-5.89-27-8-40.88-7.89a127.79,127.79,0,0,0-40.57,7.18c-14.42,5-28.18,12.62-39.34,23.14a92.88,92.88,0,0,0-13.55,16.12,177.85,177.85,0,0,0-10,18.2c-2.68,5.28-5.73,10.39-8.31,15.71-1.39,2.85-2.51,5.84-3.85,8.72a11.66,11.66,0,0,1-3,4.89q-1.56,2-3.21,3.87c-1.81,2.13-3.23,4.43-4.84,6.71s-3.45,4.65-5.29,6.89a83.84,83.84,0,0,1-11.59,11.71,61.53,61.53,0,0,1-12.38,7.91,41.17,41.17,0,0,1-6.27,2.36l-3.84,1.07-4.17.44a31.47,31.47,0,0,1-6,.21c-2.15-.18-4.39-.16-6.52-.47A67.76,67.76,0,0,1,1156,253a36.63,36.63,0,0,1-8.07-2.82,53.52,53.52,0,0,1-6.54-4.66c-2.44-1.85-4.84-3.77-7.09-5.84a148.35,148.35,0,0,1-15.48-17.37c-9.06-11.48-17.52-23.51-28.12-33.65a88.06,88.06,0,0,0-17.56-13.22,83.82,83.82,0,0,0-22.9-8.75c-14.19-3.22-29.07-3.48-43.5-2.11a190.81,190.81,0,0,0-46.87,10.63c-39,14.19-70,42.76-99.91,70.52-16.71,15.51-33.44,31.1-51.73,44.77a109.1,109.1,0,0,1-22.54,13.16,100.1,100.1,0,0,1-24.9,7c-14.26,2.09-28.83,1.29-43.09-.31-7.78-.87-15.54-2-23.28-3.22-9.78-1.51-19.62-2.88-29.34-4.81-7.53-1.49-15.11-2.75-22.63-4.29-9.21-1.87-18.35-4.05-27.46-6.36s-18.14-4.75-27.09-7.51-17.65-5.78-26.43-8.78c-9.88-3.37-19.61-7-29.32-10.88-9.48-3.76-19-7.56-28.65-10.78-16.66-5.55-33.91-9.28-51.51-9.55-20.41-.31-40.72,3.75-60.22,9.46-40.42,11.85-78.08,31.18-116.78,47.47-36.61,15.41-75.82,29.49-116.15,27.39a142.42,142.42,0,0,1-30.75-4.94c-4.45-1.24-8.81-2.76-13.13-4.4a74.19,74.19,0,0,1-14.82-7.09,93.22,93.22,0,0,1-24.84-24,84.16,84.16,0,0,1-8.83-15.56,74.11,74.11,0,0,1-4.9-18.31l-.41-2.93L61,245.16c.32-2.57,1.49-4.9,2.26-7.32.66-2.09.83-4.53,1.3-6.67.82-3.75,1.5-7.53,2.29-11.29,1.57-7.41,4.21-14.64,6.43-21.88q3.93-12.83,7.75-25.68c5.56-18.81,10.8-37.73,15-56.91,2-9.27,3.8-18.61,5-28a129.63,129.63,0,0,0,1.11-25.51A77.9,77.9,0,0,0,97.3,41.21a58.61,58.61,0,0,0-2.79-6.59A15.56,15.56,0,0,0,92.41,31a15.29,15.29,0,0,0-3.53-4,7.78,7.78,0,0,0-1.31,5.31Q87,42.35,86.79,52.42t-.14,20.13A7.8,7.8,0,0,0,87.72,77.91Z"/>
    <path class="cls-5" d="M84.66,93.21l1.57,3.2-.29-2.91L85.85,97l2.37-22.54L85.33,94.66l4.32-22.1-6,25.8,6-21.61-8.09,25.71L87,87l-7.86,19.88,6.56-14.93L74.09,116.54,84.18,97,67.75,126.45q-2.52,4.1-4.82,8.34t-4.53,8.32c-5.19,9.7-9.77,19.72-14.09,29.83C35.24,194.18,27.06,215.87,20,237.85c-2.48,7.73-4.77,15.53-6.48,23.46s-2.86,15.74-2.24,23.85a34.21,34.21,0,0,0,2,11.44,40.22,40.22,0,0,0,2.89,8.16,89.46,89.46,0,0,0,11.18,19.62,141.09,141.09,0,0,0,29.79,29.07,159.09,159.09,0,0,0,34,19.1,153.54,153.54,0,0,0,14.9,5.19,256.66,256.66,0,0,0,25.82,6.08A186.19,186.19,0,0,0,187,385c18-2.24,35.63-6.89,52.72-12.8,33-11.42,64-27.68,94.91-43.68,14.43-7.47,28.87-14.93,43.6-21.78q9.33-4.33,18.82-8.3c9.07-3.79,18.28-7,27.63-10l-1,.31c11.68-3.29,23.35-6.18,35.48-7.25a105.45,105.45,0,0,1,29.15,1.13c18.92,3.65,34.15,15.37,49.72,26,6.46,4.41,13,8.71,19.87,12.51a173,173,0,0,0,24.07,11q18,6.18,36.35,11.2l18.75,4.73a495.72,495.72,0,0,0,67.29,11c20.05,2,40.21,5,60.41,4.17A131.54,131.54,0,0,0,825.26,346c24.2-13.93,42.92-35.07,61.52-55.48,10.87-11.93,21.49-24.09,32.63-35.78q7.8-8.25,16-16.07,7.84-7.45,16.28-14.21l-.77.61a197.67,197.67,0,0,1,21-14.32,114.05,114.05,0,0,1,21.89-9.9l9-2.43q4-.31,7.94-.42c4.91-.18,9.84-.24,14.76-.1a173.63,173.63,0,0,1,28.59,2.9,95.64,95.64,0,0,1,15.31,4.22l5.67,2.42a54.21,54.21,0,0,1,10.11,6.25l-2-1.62,6.24,5.49-1.9-1.76,6.65,8.94-6.36-11.38,8.94,16.8-5.46-11.94,7.47,17.67-4.53-12.43a228.93,228.93,0,0,1,8.46,27.49q.88,3.75,2,7.46a129.06,129.06,0,0,0,5.37,16.64,70.45,70.45,0,0,0,8.31,14.56,54.51,54.51,0,0,0,7.69,9,74,74,0,0,0,12.57,9.18c6.17,3.6,13.29,5.78,20.25,7.2a52.72,52.72,0,0,0,13.31,1.54l9.16-.31,9-1.51a58.58,58.58,0,0,0,13.22-4.23,95.17,95.17,0,0,0,20.67-11.41,136.29,136.29,0,0,0,14.63-12.5c11.22-11,20.34-24.34,27.74-38.11A261.76,261.76,0,0,0,1283.39,209c1.73-5,3.28-10.12,4.68-15.27,1-3.75,2-7.5,2.81-11.28a58.3,58.3,0,0,1,3.13-10.33l-.3.88,3-5.93a25.93,25.93,0,0,1,5.64-6.93,17.52,17.52,0,0,1,4.36-3.59,29,29,0,0,1,7.22-4.08l-1.88.72,7.1-2.62-2,.59,7.38-2-2,.46,7.6-1.43-2.06.33,7.76-.92-2.1.2,7.89-.46-2.14.07,8,0-2.17-.06,8,.4-2.19-.2,8,.82-2.21-.32,8,1.24-2.22-.46,7.94,1.66-2.22-.59,7.83,2.1-2.21-.72,7.67,2.53-2.2-.85,7.48,3-2.18-1,7.21,3.47-2.14-1.13,6.9,3.95-2.11-1.27,6.53,4.44-2-1.42a48.68,48.68,0,0,1,10.93,11.21L1399,157.32l15.85,26.35-8.67-18.6,10,23.6-7.24-19.34,7.85,24.64-6.86-25.35,5.54,25.46-3.48-20.64,3.13,26.13-1.65-21,.82,26.38.48-21.29-1.93,27,2.6-21.21q-3,16.27-5.67,32.61a7.91,7.91,0,0,0,1.66,6.56l0-2.76-.21,3.55,4.12-21.48-4.56,18.9,5.89-21.1-11.18,26.12,9.48-19.4-16.7,23.45,13-16.65-21.32,20.33,15.38-13.85-13.83,10.94,10.3-7.82-28.9,18.93q-5.4,3-10.56,6.44c-2.7,1.77-5.38,3.63-7.94,5.6a88.4,88.4,0,0,0-15.5,15.06c-8.35,10.48-14.77,23.59-12.31,37.28a36.67,36.67,0,0,0,6.62,15.26l5.59,6.43a39.92,39.92,0,0,0,11.7,8.5,47.38,47.38,0,0,0,9.31,4.52,36.25,36.25,0,0,0,10.18,3.41,129.17,129.17,0,0,0,16.2,3.42l11.3.63,11.36.25q8.1-.45,16.17-1.28c6.59-.63,13.13-1.48,19.68-2.45a445.72,445.72,0,0,0,45.16-9.41c11.5-2.93,23-6.13,34.23-9.85,9-3,18.17-6.27,26.47-11a30.57,30.57,0,0,0,8.37-6.12l4.84-5.61a63.43,63.43,0,0,0,7.61-14.11c2.83-6.9,4-14.44,4.71-21.82a63.78,63.78,0,0,0,.22-14.42l-.89-9.81-2-9.83-2.49-9.73a145.77,145.77,0,0,0-9.14-22.9,267.37,267.37,0,0,0-15.49-27.84c-15.26-23.7-34.16-44.81-54.54-64.19-2.28-2.17-2.1,4.79-2.11,5-.09,3.2-.07,6.41,0,9.61a11.4,11.4,0,0,0,.75,5,374.69,374.69,0,0,1,32.93,38.57A195,195,0,0,1,1536.86,193c3.76,6.79,6.56,14,9.61,21.07q2.64,5.9,4.74,12a159,159,0,0,1,4.22,16.95c1.06,8.12,1.49,16.47-.15,24.54-1.37,6.78-3.44,13.24-7.32,19.07a51.58,51.58,0,0,1-11.14,12.12,52.92,52.92,0,0,1-7.27,4.59,41.7,41.7,0,0,1-8.46,3.93,36.65,36.65,0,0,0-7,2.26q-4.74,1.88-9.56,3.56c-6.4,2-13.17,3.37-19.68,4.88q-11.37,2.65-22.81,4.93c-8.28,1.66-16.61,3.15-25,4.21-7.86,1-15.6.86-23.49.82q-9.69.46-19.4.11A108,108,0,0,1,1380,325.4a23.55,23.55,0,0,1-11.21-4.62,30.4,30.4,0,0,1-9.6-8l.59.93-3.33-5.42a13.25,13.25,0,0,1-3-5.59,8.81,8.81,0,0,1-.88-4.1,19.48,19.48,0,0,1-.07-5.06l-.21,1.1c.6-2.45,1.23-4.89,1.87-7.33l-.38,1,1.72-4.32-.43,1,2-4.5-.47,1a112.39,112.39,0,0,1,12.26-18.45q3.12-3.79,6.43-7.45c7.41-8.21,15.53-14.53,24.15-21.88l-23.26,15.89c6.83-2.35,13.76-4.35,20.62-6.56a43.06,43.06,0,0,0,10.31-4.63,9.63,9.63,0,0,0,2-1.63,4.08,4.08,0,0,0,2.13-2.58c2.11-4.49,3.17-9.7,4.46-14.5a126.31,126.31,0,0,0,3.25-13.4,21.83,21.83,0,0,0,0-6.2,11.83,11.83,0,0,0-1.36-6.65L1411,225a24.06,24.06,0,0,0,3.36-7.3,24.68,24.68,0,0,0,1.24-6.79c.83-6.14,1.52-12.31,1.94-18.49a29.13,29.13,0,0,0-.54-9.77q-1.62-4.27-3.51-8.43-2.26-5.22-4.74-10.37l-2.41-4.75a15,15,0,0,0-3.47-4.07,52.29,52.29,0,0,0-11-8.28c-9-5.14-19.54-7.77-29.76-9a117.59,117.59,0,0,0-30,.31c-10.8,1.46-22,4.17-31.64,9.34a61.78,61.78,0,0,0-12.34,8.49,54,54,0,0,0-9.93,12.15,76.6,76.6,0,0,0-4.46,9.21q-2.05,4.68-3.88,9.45c-2.75,7.2-4.91,14.57-7.35,21.88l.41-.85q-2.93,5.87-6.24,11.54-2.43,5.21-5.22,10.23a149.55,149.55,0,0,1-12.68,19.8c-10,13.12-22.52,24.83-38,31.13a68.72,68.72,0,0,1-19.71,4.72,82.33,82.33,0,0,1-21-1.07,34.16,34.16,0,0,1-13.46-4.56l-5.89-3.38c-8-4.86-14.1-11.42-20-18.52l.71.92a161.5,161.5,0,0,1-9.12-13.86c-2.2-3.83-4.27-7.72-6.29-11.65-4.45-8.64-8.75-17.61-14.75-25.32a56.08,56.08,0,0,0-21.63-17c-8.89-4-18.38-6-28-7.06a155.38,155.38,0,0,0-30.42,0,172.24,172.24,0,0,0-28,4.5,102.06,102.06,0,0,0-18.77,7.26,156.26,156.26,0,0,0-21.75,12.66,293.14,293.14,0,0,0-29.56,24c-25.66,23.47-48.65,49.67-75,72.41-11.59,10-24.37,18.6-38.64,24.34a122.2,122.2,0,0,1-36.16,8.26c-24.52,1.93-49-2.44-73.27-5.52-7.65-1-15.25-2.29-22.85-3.56-15.77-2.63-31.42-5.85-46.91-9.79-12.16-3.09-24.16-6.71-36.1-10.57C572.74,304,562,300,550.92,295.21l1,.48c-9.81-4.59-19.44-9.51-29.14-14.33-10.57-5.25-21.29-10.22-32.66-13.48a106.16,106.16,0,0,0-32.69-4,169.12,169.12,0,0,0-31.52,4.1c-19.06,4.23-37.48,11-55.43,18.59-27.66,11.69-54.37,25.47-81.7,37.87-26.49,12-53.72,22.91-82.31,28.74A197.47,197.47,0,0,1,164,357.37a175.48,175.48,0,0,1-47.71-7.57A127.81,127.81,0,0,1,88.65,338a132.44,132.44,0,0,1-22.17-16.12A102.53,102.53,0,0,1,46.2,297.18a87.85,87.85,0,0,1-6.12-12.66,42.78,42.78,0,0,1-2.28-6.89,58.41,58.41,0,0,1-2.37-10.95l-.09,1.15.77-7L36,262c.76-3.07,1-5.09,1.51-8.33,1-5.72,2.08-11.41,3.22-17.09l-.25,1.11c9.32-31.48,20.28-62.48,31.05-93.48q3.78-10.92,7.67-21.8c3-8.37,6.77-16.53,9.07-25.11q1.19-7.05,2-14.14l.89-8.35a33.76,33.76,0,0,0,.28-8.75A19.87,19.87,0,0,0,88,58.24c-.4-1.32-.86-1.35-1.4-.08a35,35,0,0,0-1.23,8.89q-.63,8.58-1,17.19A35.44,35.44,0,0,0,84.66,93.21Z"/>
    <path class="cls-5" d="M88.19,83.48l1.52,5.61-.3-4.2,0,8.62.85-5.24a17.83,17.83,0,0,1-3,3.84,26.53,26.53,0,0,0-4.07,5.22l-3.26,4.1q-2.79,4.62-5.88,9c-4.9,7.21-10,14.2-14.44,21.73C47.52,152.87,38.26,175.3,29.72,197.6c-4.88,12.74-9.55,25.62-13.37,38.72-2.86,9.79-5.48,19.75-6.3,30-.88,10.9,1.84,21.31,6.26,31.19a106.19,106.19,0,0,0,12.19,20.2,109,109,0,0,0,9.79,11,98.3,98.3,0,0,0,10.76,10c19.31,15.84,42,27.89,66.4,33.61q8.28,1.93,16.56,3.94l12.55,2.11a140.55,140.55,0,0,0,19.11,1.24,143.2,143.2,0,0,0,19-.48,231.32,231.32,0,0,0,30.86-4.81A299.57,299.57,0,0,0,242.88,366c20.67-7,40.56-16.26,60-26,18.61-9.32,36.86-19.32,55.35-28.88,15.63-8.09,31.39-15.91,47.63-22.72a254.46,254.46,0,0,1,27.57-9.94l9-2.47a166.29,166.29,0,0,1,17.71-3.45l-1.27.13,9.94-1.05-1.26.11c11-.46,22.39-.78,33,2.52l33.1,18.25q6.06,4.54,12.15,9.06c13.49,9.81,27.7,18.25,43.48,23.84l18.14,5.82q18.48,5.6,37.29,9.9A496.89,496.89,0,0,0,702.88,351q9.35.7,18.68,1.66,8.78.92,17.54,1.77c8.47.74,16.95,1.36,25.46,1.32a150.69,150.69,0,0,0,25.62-2.16A126.93,126.93,0,0,0,821,343.85a146.84,146.84,0,0,0,31.11-19.4c9.53-7.68,18.12-16.55,26.46-25.48,19.6-21,37.55-43.52,57.73-64a268.42,268.42,0,0,1,24.23-22.12,163,163,0,0,1,16.71-11.76,118.9,118.9,0,0,1,17.33-8.78l-1.31.49,10.22-3.62-1.31.45a30.43,30.43,0,0,1,11.61-2.4q4.07-.24,8.13-.19c6.09,0,12.27.32,18.34.86a161.66,161.66,0,0,1,19.25,2.64l6.34,1.46a77.63,77.63,0,0,1,23,10l-4.11-2.75,7.21,5.37-4.23-3.67,10.21,10.85-2.65-3.49a59.58,59.58,0,0,1,7.65,17.08l3.34,13.73c1.77,7.57,3.37,15.14,5.5,22.62a67.84,67.84,0,0,0,13.47,25.5,62.44,62.44,0,0,0,18.27,14.43,55.59,55.59,0,0,0,12.63,4.94,60,60,0,0,0,13.46,3c3.37.33,6.85.36,10.23.46a57.22,57.22,0,0,0,14.3-1.5,71.67,71.67,0,0,0,14.23-3.72,98.12,98.12,0,0,0,26.26-14.83,151.93,151.93,0,0,0,14.71-13.66,131.25,131.25,0,0,0,12-14.77A187.72,187.72,0,0,0,1276,237.08a309.36,309.36,0,0,0,17.35-44.39c2.42-7.69,4-15.58,5.85-23.43a70.89,70.89,0,0,1,3-10.48,34.74,34.74,0,0,1,6.54-10.79l-1.14,1.14,5.34-5-1.2,1.06a43,43,0,0,1,20.54-8.33l-7,1.42,73.44,10.13-5.38-3,10.22,6.1-5-3.2q15.27,9,20.1,24.62a47.76,47.76,0,0,1,1.88,10.55,58.84,58.84,0,0,1-2.54,17.08,39.17,39.17,0,0,1-3.67,8.7,12.22,12.22,0,0,0-1.92,4.26,24.82,24.82,0,0,0-.48,3.93,7.8,7.8,0,0,0,1.65,5.1l0-3.5-.28,5.43.94-5.56q-3.45,7.74-11.17,9.07a52.83,52.83,0,0,1-10.41,2.87,118.06,118.06,0,0,0-11.5,3.79,200.7,200.7,0,0,0-20.69,9.42,79.91,79.91,0,0,0-17.71,13.3c-6.23,6.15-11.69,13.28-15.06,21.43a46.08,46.08,0,0,0-3,10.42l-.46,5.42a24.33,24.33,0,0,0,1,8.83,35.31,35.31,0,0,0,3.28,9.74l4.94,7.23a50.76,50.76,0,0,0,10.74,10.47,44.72,44.72,0,0,0,14.58,8.84l11.75,4.54a104.26,104.26,0,0,0,18,3,92.48,92.48,0,0,0,17.84.77c3.77-.14,7.55-.32,11.32-.52a351.49,351.49,0,0,0,50.93-7.35c14.38-3.1,28.61-6.81,42.73-10.92,13.59-3.95,27.34-8.22,40.26-14.07l5.11-2.39a32.84,32.84,0,0,0,8.51-5.79,14.66,14.66,0,0,0,3.24-2.89l4.48-5.34a67.74,67.74,0,0,0,4.8-7.65l3.5-8.24a72.63,72.63,0,0,0,4.08-18.77l.5-10.16a94.85,94.85,0,0,0-1.37-15.33,145.15,145.15,0,0,0-6-24.82q-2.5-7.19-5.68-14.08a126,126,0,0,0-6.52-13.37q-4.32-8-9.06-15.7c-16.51-26.94-37.9-50.73-60.89-72.28-.44-.77-.91-.79-1.4,0a12.63,12.63,0,0,0-.9,5.24q-.32,5.07-.33,10.14a12.76,12.76,0,0,0,.56,5.29,408,408,0,0,1,41.77,48.53q5,6.8,9.33,14,3.8,6.55,7,13.43,4.33,7.73,8,15.77a169.74,169.74,0,0,1,6.29,16.67l-.22-.82,2.33,9.1-.15-.82,1.65,9a74.13,74.13,0,0,1,.86,12.71,37.1,37.1,0,0,1-.38,8.29,60,60,0,0,1-2.06,12l.26-.77L1566,284l.35-.73-3.64,7.37.41-.69-4.3,6.09.48-.64a28.49,28.49,0,0,1-6.9,6.74,33.9,33.9,0,0,1-7.84,5,148.94,148.94,0,0,1-15.84,6.46c-11.24,4.05-22.69,7.48-34.18,10.76-16.37,4.67-33,9-49.76,11.81-8,1.36-16.13,2.54-24.26,3.37q-7.95.93-16,1.17a71.12,71.12,0,0,1-16-.61,95.48,95.48,0,0,1-16.17-2.72l-10.49-4.65a34.5,34.5,0,0,1-12.25-8.31,47.94,47.94,0,0,1-8.6-9.49l-4.16-6.59a48.11,48.11,0,0,1-2.57-11.3l2.11-14a32.75,32.75,0,0,1,2.79-6.76c7.38-14.69,19.49-27.77,34.25-35.18l-3.43,1.36c3.14-1,6.29-2,9.49-2.84,4.9-1.21,9.94-1.88,14.91-2.75a76.15,76.15,0,0,0,10.65-2.37l4.71-1.76a8.15,8.15,0,0,0,2-1.59,12,12,0,0,0,2.89-3.28,9.17,9.17,0,0,0,1.58-4,30,30,0,0,0,.36-4.83,14.4,14.4,0,0,0-.06-2.46,7.42,7.42,0,0,0-1.38-4l-.81,6.68a62.91,62.91,0,0,0,10.38-23,39.67,39.67,0,0,0,1.16-12.47,41.14,41.14,0,0,0-7.11-21.06,53.76,53.76,0,0,0-9.06-9.88,55.23,55.23,0,0,0-4.65-3.39,70.39,70.39,0,0,0-7.61-5,78.9,78.9,0,0,0-14.22-6.17,119.1,119.1,0,0,0-25-5.12,112.25,112.25,0,0,0-28.13.81c-14.77,2.36-29.93,8.39-38.47,21.35a55.26,55.26,0,0,0-5.74,12.29q-2,5.9-3.73,11.89-1.67,8.24-3.67,16.39-2.12,6-4.56,11.94-2.52,7.55-5.52,14.92-3.11,7.61-6.76,15-3.63,7.17-7.92,14a142.57,142.57,0,0,1-10,14.07l.49-.6-6.14,7.12.53-.56c-6,6.07-12.36,12.56-19.78,17s-16,8.58-24.71,10.11l-34-.2a53.3,53.3,0,0,1-12.11-4.39,48.38,48.38,0,0,1-10.69-6l-5.88-4.77a42.51,42.51,0,0,1-8.72-10.46,45.72,45.72,0,0,1-6.67-11.23,65,65,0,0,1-3.26-8.48,57.1,57.1,0,0,1-3.15-15.7c-1.45-8.79-2.78-18.19-7.89-25.74a53.87,53.87,0,0,0-12.24-13c-7.73-5.81-16.6-9.53-25.88-12.11a127.9,127.9,0,0,0-20.48-3.55,186.46,186.46,0,0,0-20.46-1,158.93,158.93,0,0,0-15.89.65,58.83,58.83,0,0,0-8.25,1.22l-5.38,1.61c-34.24,10.24-61,36.25-84.58,61.92-14.81,16.12-28.78,33-44,48.82-7.79,8.11-15.69,16.22-24.67,23a147.89,147.89,0,0,1-20.52,13.22,120.17,120.17,0,0,1-45.35,13.53c-15.18,1.32-30.31.31-45.42-1.27-7.31-.76-14.6-1.57-21.9-2.28-16-1.57-31.86-3.75-47.66-6.81a535.26,535.26,0,0,1-55.92-13.88l-18.11-5.8a147.51,147.51,0,0,1-15.94-6.57l.86.43c-7.32-3.77-14.43-7.76-21.37-12.18-7.88-5-15.46-10.51-23.32-15.57A123,123,0,0,0,504,270.82a81.7,81.7,0,0,0-24.74-5.41c-33.47-2.27-66.48,9.16-96.55,22.77C343.21,306,306,328.54,266.32,345.94c-20.6,9-41.86,16.65-63.93,21.16a195.35,195.35,0,0,1-35.45,3.61,164,164,0,0,1-42-5c-8.1-2-16.18-3.8-24-6.68q-5.61-2-11-4.46a99.29,99.29,0,0,1-18.68-10.85A90,90,0,0,1,53,330.73a86.44,86.44,0,0,1-9.68-9.55c-7-7.66-13.48-16.12-17.7-25.67-3.79-8.58-6.87-18-6.6-27.44a94.11,94.11,0,0,1,2-15.95c2.76-13.42,7-26.51,11.36-39.47q7.55-22.29,16.28-44.17C54,155,59.78,141.65,66.41,128.72A90.29,90.29,0,0,1,79.4,109l3.8-4c2.14-2.31,4.31-4.56,6.47-6.85s2.75-4.09,3-7.17c.48-6.36-.76-11.23-2.19-17.3-.43-1.81-1.89-1.41-2.39,0a27.89,27.89,0,0,0-.25,4.92A27.79,27.79,0,0,0,88.19,83.48Z"/>
    <path class="cls-5" d="M87.67,94.56l1.58,3-1-13.83-.06,11.63L91,54.91l-6,47.47,7.84-39L82.7,106.24,93.28,68.47,77.44,114.78,89.7,86.69,74.6,119.58l8.59-17.1c-5.61,10.82-11.3,21.58-16.93,32.38-2.94,5.64-5.87,11.28-8.56,17-4.81,10.34-9.22,20.86-13.44,31.45-8.95,22.5-17.45,45.36-24,68.69q-2.1,7.5-3.47,15.17a72.67,72.67,0,0,0-1.43,13.32l.27,4.61a35,35,0,0,0,1.91,11.36,78,78,0,0,0,8.58,19.95c14.78,24.14,38.12,42.72,63.81,54.19a142.79,142.79,0,0,0,14.8,5.74,103.47,103.47,0,0,0,10.83,3l12.21,3.23a167.72,167.72,0,0,0,30.53,3.65A180.41,180.41,0,0,0,188.5,385c37.31-5,72.29-19.15,105.94-35.52,31.22-15.18,61.48-32.39,93.27-46.37,14.89-6.55,30.28-12.63,46.11-16.53,5.9-1.45,11.85-2.69,17.85-3.64a150.61,150.61,0,0,1,25.9-1.38l-1.42-.1,9.75.86-1.42-.16a70.31,70.31,0,0,1,15.39,3.75,97.7,97.7,0,0,1,13.71,6.32c6.59,3.61,12.84,7.84,19.08,12,8,5.34,16,10.67,24.25,15.51a168.35,168.35,0,0,0,26.65,12.57q18,6.18,36.37,11.21l18.73,4.73q19,4.45,38.29,7.49,14.37,2.4,28.88,3.55c18.64,1.86,37.28,4.56,56,4.25,19.21-.31,38.06-4.25,55.37-12.69a145.85,145.85,0,0,0,34.49-23.74c9.15-8.41,17.69-17.48,26.13-26.61,18.78-20.32,36.6-41.67,56.81-60.63a231.39,231.39,0,0,1,24.62-20.43,148.41,148.41,0,0,1,17.1-10.54,113.35,113.35,0,0,1,17.79-7.49l-1.29.39,10.44-2.85-1.31.34c15.22-1,30.51-1.27,45.65.78a104.06,104.06,0,0,1,22,5.15,64.91,64.91,0,0,1,11.17,5.23,46.39,46.39,0,0,1,9.28,7.15l-2.75-2.73,6.45,7.06-24.51-35.13L1103,244l-4.28-11.27c2.65,8.24,5.19,16.4,7.6,24.7a138.9,138.9,0,0,0,5.88,17.2,74.47,74.47,0,0,0,16.29,24,62.32,62.32,0,0,0,16.44,11.06,66.51,66.51,0,0,0,20.49,6.22l8.88.6a50.54,50.54,0,0,0,13.39-1.16,78.26,78.26,0,0,0,21.62-6.89,111.72,111.72,0,0,0,15.86-9.69,73.26,73.26,0,0,0,10.66-9.14,123.74,123.74,0,0,0,9.68-10.15,180.8,180.8,0,0,0,22.15-34.22,293.45,293.45,0,0,0,15.5-38.14c2.06-6.16,3.71-12.45,5.3-18.76l1.67-6.86a42.45,42.45,0,0,1,5.46-12.58l-.73,1,4.47-5.87-.78,1,4.21-4.07,4.63-3.32a48.74,48.74,0,0,1,13-5.59,89.17,89.17,0,0,1,26-3.38,119.67,119.67,0,0,1,23.72,2.54,97.17,97.17,0,0,1,14,4.16,93.26,93.26,0,0,1,12.76,6.2l-3.12-2.09,7.67,5.2-3-2.28,7.18,5.76-2.9-2.48,6.61,6.32-26.75-32.66L1419.2,196l-13.75-40.72,11.67,48-5.71-38.62,4.56,44-2.11-39,.38,44.63,1.57-38.87a298.37,298.37,0,0,0-3.94,48.52,35,35,0,0,0,2.41,5.24l-.53-5.28-.1,7.48,4.43-34.77-5.89,33.83,9.14-42-24.11,53.3,23.61-37.52-34.45,39.07L1412.25,219l-24.63,21.42,15.87-13.18-19.82,15.63,16.45-12.16c-12.44,8.84-25.1,17.42-37.28,26.62-3,2.29-5.95,4.64-8.75,7.2A91.73,91.73,0,0,0,1340,281a55.17,55.17,0,0,0-7.68,16.2A36.7,36.7,0,0,0,1331,307a24.65,24.65,0,0,0,.94,8.18l2.07,6,3.81,6.15,5.44,6.25,7.13,6a67.82,67.82,0,0,0,13.39,6.69,34,34,0,0,0,9.86,3.22,83.9,83.9,0,0,0,10.29,2.14,71.68,71.68,0,0,0,16,1.59l10.8.34c7-.1,14-.78,20.91-1.42,7.93-.74,15.81-1.8,23.65-3.13,13.27-2.25,26.45-5.14,39.48-8.52,10-2.61,20-5.43,29.91-8.63,8.94-2.9,18.11-6.18,26.26-10.91a29.43,29.43,0,0,0,8.15-6.11l4.66-5.64a59.32,59.32,0,0,0,7.09-14.09c2.52-6.84,3.36-14.08,3.71-21.3a107.87,107.87,0,0,0-.89-18.23c-3.28-27.25-15.66-52.36-30.24-75.27-14.17-22.25-31.79-42.08-50.69-60.38a3.66,3.66,0,0,0-1.36,3.25q-.69,6.21-.94,12.46t-.3,12.5a3.64,3.64,0,0,0,1,3.37c10.5,12.19,20.43,24.8,28.89,38.52a126.36,126.36,0,0,1,10.22,19.74c2.38,6,3.65,12.28,5.61,18.41,2.53,7.92,4.67,16.23,4.71,24.61,0,6-.34,12.29-2.33,18l-2,5.05a25.55,25.55,0,0,1-4.85,7.54l-2.59,3q-3.37,2.72-6.8,5.39c-2.15,1.28-4.34,2.46-6.58,3.56a39.53,39.53,0,0,1-7.91,3.32,25.78,25.78,0,0,0-6.85,1.93q-4.59,1.73-9.25,3.27c-3,.69-6.07,1.35-9.12,2-3.29.71-6.6,1.4-9.9,2.05q-10.93,2.19-21.93,4c-7.74,1.25-15.53,2.27-23.35,2.77a82.45,82.45,0,0,1-14.4-.26l-6.41-.73a154.91,154.91,0,0,1-16.25-1,60.85,60.85,0,0,1-10.36-3,14.93,14.93,0,0,1-7.24-4,21.19,21.19,0,0,1-5.08-6l.47,1.3a14.19,14.19,0,0,0-2-5.65,5.45,5.45,0,0,1-1-3.82l-.15,1.36.68-4.38-.32,1.34.86-3.54-.43,1.29c1-2.15,1.85-4.17,2.72-6.39l-.6,1.21c1.29-2.43,2.58-4.87,3.85-7.31l-.68,1.14,2.74-4.47-.71,1.12,3-4.7-.72,1.11c2.65-3.84,5.32-7.65,8.2-11.34l3.1-3.93a63.43,63.43,0,0,1,27.93-21.14,7.42,7.42,0,0,0,1.94-5q1.82-9.63,3.19-19.35t2.57-19.44a7.47,7.47,0,0,0-.42-5.32l-21.7-37.15a7.32,7.32,0,0,0-3.39-4.06c-1.64-1.08-3.32-2.13-5-3.09a72.4,72.4,0,0,0-22.45-8,117.34,117.34,0,0,0-62.81,5.94,90.38,90.38,0,0,0-25.35,14.47,70.15,70.15,0,0,0-11.44,11.79,89.87,89.87,0,0,0-7.21,11.48c-2.67,4.9-4.86,10.09-7.28,15.12l-1.37,2.85a77.81,77.81,0,0,0-4.83,11.77l-2.75,6.89-3.09,4.56a64,64,0,0,0-6.44,10.13l-3.64,5.75c-11.16,17-27.4,33.32-48,37.57a55,55,0,0,1-10.45,1.16l-5.53,0q-4.48-.45-8.91-1.32l-3.18-.57a26.63,26.63,0,0,1-11.48-4.77,85.38,85.38,0,0,1-15.13-12c-14.17-14.34-22.83-32.91-35.2-48.64a76.65,76.65,0,0,0-15.85-15.3,74.61,74.61,0,0,0-27.16-11.52c-21.71-4.82-44.82-3-66.37,1.89a145,145,0,0,0-28.81,9.5c-17.45,8-33.15,19.16-47.84,31.45-26.86,22.47-50.52,48.46-77.1,71.25-6.79,5.81-13.58,11.67-21.21,16.38a127.58,127.58,0,0,1-15.8,8.48A114.84,114.84,0,0,1,753.18,325a221.39,221.39,0,0,1-34-1.66c-8.1-.91-16.16-2.15-24.24-3.29-5.8-.83-11.64-1.54-17.42-2.46-48.42-7.77-96.24-20.14-141.22-39.86-12.72-5.58-25.35-11.49-38.56-15.89a137.2,137.2,0,0,0-37-7.16c-13.66-.64-27.17,1.05-40.53,3.73-18.93,3.8-37.46,10.36-55.3,17.62-35.31,14.38-69.15,32.17-104.65,46.11C227.37,335,192.67,345.28,157,343.26A154.57,154.57,0,0,1,132.85,340a142,142,0,0,1-14.62-3.94,108.49,108.49,0,0,1-14.92-5.41,111.08,111.08,0,0,1-25.74-17.2c-8.46-7.47-16-16.07-21.45-26A97.85,97.85,0,0,1,51,276.22a84.86,84.86,0,0,1-3.26-12.46,19.91,19.91,0,0,1,.26-12.1L47.69,253c.47-1.33.89-2.67,1.29-4q.65-4.6,1.68-9.13,1.05-6,2.35-12,1.85-6.11,3.76-12.17c5.65-18,11.54-36,17.23-54q4.35-13.8,8.54-27.66,2.31-7.69,4.53-15.41a34.19,34.19,0,0,0,2.32-8.89Q92,84.52,94.54,59.27A13.07,13.07,0,0,0,93.17,51c-.51-1.22-1.07-2.42-1.66-3.6A14,14,0,0,0,88.57,43a8,8,0,0,0-1.29,5.38q-.56,10.18-.67,20.37t0,20.39A7.92,7.92,0,0,0,87.67,94.56Z"/>
    <path class="cls-5" d="M86.73,82.09,88.4,84.7l2.3-54.08-13.57,75.6L82.46,94c-4.08,8.48-8.15,16.94-12.46,25.31q-3.84,7.47-7.34,15.13c-5.48,12-10.52,24.21-15.36,36.47-8.86,22.42-17.36,45.11-24,68.29a148,148,0,0,0-5.56,26.55,32.5,32.5,0,0,0-.08,7.31q.27,4.74,1,9.43a81.28,81.28,0,0,0,5.36,15.58,87.8,87.8,0,0,0,11.73,18.3,133.37,133.37,0,0,0,15.11,16A151.3,151.3,0,0,0,85.71,356c4.65,2.24,9.42,4.31,14.25,6.14,6.42,2.44,13.2,4.05,19.8,5.9,19.32,5.42,39.42,6.82,59.39,5.22,37-3,72-16.14,105.52-31.5,33.16-15.2,64.89-33.42,98.36-47.95a337.62,337.62,0,0,1,41.56-15.33A190.43,190.43,0,0,1,447,273.4l8.77-1.14a127.24,127.24,0,0,1,17.13-.61l-1.6,0,9.95.64-1.6-.11a73,73,0,0,1,15.46,3.33A98.16,98.16,0,0,1,509,281.29c6.71,3.35,13.12,7.34,19.48,11.29,8.22,5.11,16.4,10.27,24.85,15a185,185,0,0,0,26.87,12.37q18,6.15,36.35,11.23l18.68,4.77a516.06,516.06,0,0,0,66.93,11.28c18.55,2,37.1,4.73,55.79,4.59,19-.14,37.7-3.71,55-11.74a142.69,142.69,0,0,0,34.3-22.69c9.14-8.11,17.67-16.9,26.08-25.76,18.94-19.94,36.85-41,57-59.72a243,243,0,0,1,24.62-20.41,154.6,154.6,0,0,1,17-10.63,117.69,117.69,0,0,1,17.7-7.7l-1.52.51,10.62-3.12-1.54.45c14.05-1.37,28.21-2.13,42.31-.95a122.07,122.07,0,0,1,19.3,3,82.33,82.33,0,0,1,12,3.91,56.72,56.72,0,0,1,10.5,5.7l-3.46-2.64,8,6.21-3.29-2.84,7.15,6.91-8.86-9.89,9.16,11.15-19.6-28.28,27.58,42.29-16.82-34.72,20.71,46.36-1.64-4c2.25,6.36,4.35,12.8,6.74,19.11a129.33,129.33,0,0,0,6.91,15,69.52,69.52,0,0,0,19.32,23,65.38,65.38,0,0,0,18.19,9.36,66.48,66.48,0,0,0,20.68,3.82l8.64-.2a69.15,69.15,0,0,0,12.77-2.49,77.68,77.68,0,0,0,20.3-8.43,121.49,121.49,0,0,0,33-29.87,194.94,194.94,0,0,0,20.31-33.26,244.12,244.12,0,0,0,14.57-37q1.68-5.49,3.15-11l1.76-6.91,2.41-6.75a40.19,40.19,0,0,1,6.91-10.51l-1,1.21a31.66,31.66,0,0,1,6.44-5.68,34.86,34.86,0,0,1,7.14-4.39,85.07,85.07,0,0,1,16-5.37l-4.28.78,10-1.8-4.3.52a181.16,181.16,0,0,1,18.9-1.65,110.35,110.35,0,0,1,14.76.68c3.88.48,7.75,1.12,11.57,1.95a98.07,98.07,0,0,1,16.27,5.36l-3.91-1.87,8.86,4.34-3.8-2.09,8.43,4.92-3.66-2.31,7.93,5.5-3.51-2.54,7.35,6.09-9.68-9,9.91,9.94-27.72-33.2,38.64,55-17.42-43.85,16.2,60-4.21-46.9,2.44,62.09,1-13.12-1.89,15.46,9.54-42.15-11.91,45,12.69-41.42-18.79,45.74,22.95-41.54-48.9,56.88,3.41-2.69c-7.18,4.9-14.45,9.63-21,15.41A121.49,121.49,0,0,0,1347,265.81a66.94,66.94,0,0,0-11.14,18.37,38.47,38.47,0,0,0-2.68,11.62,34.53,34.53,0,0,0,1.16,10.46,17.89,17.89,0,0,0,4.17,8.55,27.63,27.63,0,0,0,4.73,5.67,31,31,0,0,0,6.12,5.6,20,20,0,0,0,7.58,4.75,80.74,80.74,0,0,0,13.26,5.46l9.4,1.91,9.61,1.45,9.88.58a93.76,93.76,0,0,0,14.8.18q4.91-.17,9.81-.47c7.78-.41,15.56-1,23.29-2.06,13.21-1.78,26.29-4.31,39.27-7.33,11.39-2.65,22.74-5.59,33.89-9.14,8.91-2.83,18-5.9,26.18-10.48a20.1,20.1,0,0,0,5.5-3.71,19.18,19.18,0,0,0,5-4.82,40.87,40.87,0,0,0,6.44-9l3.11-7.19a68.86,68.86,0,0,0,3.73-16.27l.6-8.74a108.39,108.39,0,0,0-1-13.35c-1.51-13.45-5.65-26.7-10.94-39.12a246,246,0,0,0-18.39-34.52c-14-22.08-31.13-41.8-49.79-60a9.16,9.16,0,0,0-1.53,5.77q-1,11-1.62,22t-1,22a9.1,9.1,0,0,0,.85,5.9,264.07,264.07,0,0,1,22.63,33.6,100.88,100.88,0,0,1,8,17.82,38.93,38.93,0,0,1,1.92,8.25c.42,2.46.73,4.95.92,7.45a60.79,60.79,0,0,1,1.67,8.35,49,49,0,0,1,.78,7.84,41.42,41.42,0,0,1-1.73,13.42,26.26,26.26,0,0,1-4.41,8.55q-1.68,1.47-3.24,3.08a9.2,9.2,0,0,1-3.71,2.63l-3,2.1c-2.71,1.27-5.42,2.52-8.15,3.74l-5.13,1.67a38.71,38.71,0,0,0-9.45,2.58l-6,1.86c-4,.74-8,1.45-11.94,2.13-6.72,1.12-13.47,2.2-20.24,3-12.42,1.45-25.48,2.93-37.82.16a56.74,56.74,0,0,1-8-2.18,62,62,0,0,1-8.61-2.06c-4.21-1.22-8.46-3.13-11.11-6.75l.67,1.35-1.4-3.61.43,1.48-.51-2.12.16,1.52a9.14,9.14,0,0,0,.38-2.26,1.28,1.28,0,0,0-.45-1.53l-.35,1.53.67-2.85-.56,1.49q1.37-2.28,2.58-4.64l-.9,1.36,2.31-3a25.22,25.22,0,0,1,2.88-4.81c2.05-3.25,4-6.55,6.11-9.77,5.51-8.41,11.37-16.59,16.89-25,3.06-4.65,6.11-9.34,8.83-14.2,12.25-21.92,13-33.81-2.61-68.09-2-4.43-5.36-8.29-8.71-11.77a66.4,66.4,0,0,0-20.28-14.49c-11.77-5.4-24.93-7.68-37.81-7.89a127.16,127.16,0,0,0-40.69,6.16,122.16,122.16,0,0,0-31.77,15.58,92,92,0,0,0-15.93,14A111.22,111.22,0,0,0,1245,178.84c-3,5.71-5.89,11.45-9,17.12l-2.44,4.52q-2.47,5.86-5.29,11.58l-3.2,3.87a46.17,46.17,0,0,0-6.4,8.45,104.88,104.88,0,0,1-10.91,13.06c-6.88,6.91-14.88,12.58-24.24,15.48-9.83,3-20.44,2.1-30.16-1l-5.45-2.13q-4.55-2.94-8.79-6.32A106.63,106.63,0,0,1,1125.35,230c-7.78-8.93-14.56-18.67-22.07-27.82-9.44-11.48-20-22-33.41-28.8-14.9-7.56-32-10-48.52-9.88a184.12,184.12,0,0,0-86.45,22.6c-40.77,22.36-72,58-107,87.77-12.12,10.31-24.59,20.91-39.08,27.77a106.51,106.51,0,0,1-42.4,9.74c-14.82.46-29.62-1.38-44.25-3.51-26.22-3.84-52.42-8.22-78.22-14.34a657.55,657.55,0,0,1-87.8-27.79c-16.28-6.38-32.5-13.1-49.53-17.28a156,156,0,0,0-53.21-3.81c-19.1,1.94-37.85,6.9-56,13-38.45,13-74.65,31.69-112.24,46.87s-78.58,28.14-119.64,22.22a144.73,144.73,0,0,1-26.11-6.34A103.81,103.81,0,0,1,102,313a62.42,62.42,0,0,1-7.39-5.23,97.73,97.73,0,0,1-20.85-22,73.18,73.18,0,0,1-12.65-34.59l-.19-6.07a28.44,28.44,0,0,1,2.32-7.4q.74-4.56,1.82-9,1.1-6,2.41-12c1.64-6.31,3.87-12.55,5.78-18.79,3-9.84,6-19.69,8.9-29.57,5.52-18.87,10.72-37.86,14.7-57.12,1.63-7.92,3.09-15.89,4.1-23.91,1.21-9.49,2.12-19.33.89-28.87A83.22,83.22,0,0,0,97.4,41.06a47,47,0,0,0-3.84-8.75A21.22,21.22,0,0,0,89,26.6a9.08,9.08,0,0,0-1.43,5.77q-.82,11-1.21,21.92t-.57,21.94A9,9,0,0,0,86.73,82.09Z"/>
    <path class="cls-5" d="M88.6,89.18l1.61,3-.67-10.8.19,10.56L90.82,64.1,88.55,95.36l3.91-34.44L86.63,99,93,65.28l-8.7,37.63,8.92-32.53L81.76,107.14,93.14,75.77l-16.89,40.6,7.46-14.63c-5.22,9.93-10.56,19.81-15.74,29.77-2.91,5.59-5.82,11.17-8.48,16.89-4.83,10.36-9.26,20.89-13.5,31.51-8.13,20.4-15.83,41.08-22.07,62.14a168.12,168.12,0,0,0-6.19,27.18,60.56,60.56,0,0,0-.32,12.26l.77,7.25A59.87,59.87,0,0,0,22,300.82c5,12.53,13.19,23.75,22.58,33.4a150,150,0,0,0,35.56,26.85,151.22,151.22,0,0,0,33.17,13.54c9.31,2.49,18.46,5.17,28.06,6.45a211.54,211.54,0,0,0,24.38,1.82,185.06,185.06,0,0,0,30.11-2.28,244.81,244.81,0,0,0,29.34-6.21,366.13,366.13,0,0,0,50-18.28c32.56-14.33,63.55-31.86,95.57-47.31,15.24-7.35,30.79-14.43,46.85-19.84,6-2,12.06-3.88,18.19-5.49a192.68,192.68,0,0,1,26.55-4.71l-1.35.1,10-.59-1.36.06a114.3,114.3,0,0,1,16.75.75,70,70,0,0,1,15.3,3.68,113.91,113.91,0,0,1,20.05,10c13.6,8.14,26.13,17.93,40.17,25.37a161,161,0,0,0,15,7.33,248.24,248.24,0,0,0,26.18,9.05c18.45,5.7,37.16,10.36,56.07,14.2q19.27,3.8,38.79,6.12,9.29.85,18.56,1.86c10,1.08,20.09,2.26,30.17,2.92a183.06,183.06,0,0,0,29.34-.13,127.61,127.61,0,0,0,29.93-6.52,131.5,131.5,0,0,0,30.51-15.35c11.17-7.53,20.92-16.64,30.33-26.23C886.74,291,905,269.08,925,248.67a302.56,302.56,0,0,1,28.33-26.07,175.06,175.06,0,0,1,16.77-11.87,127.11,127.11,0,0,1,17.4-9.06l-1.22.51a103.8,103.8,0,0,1,18-5.88q5.43-.44,10.86-.64a225.64,225.64,0,0,1,24.81.34,128.58,128.58,0,0,1,25.57,4.16,79.44,79.44,0,0,1,11.76,4.27,55.07,55.07,0,0,1,10.24,6.08l-2.81-2.19,7.13,6-2.68-2.35L1093,216l-10.92-14,14,18.56-19.14-29.81,24.13,40.63-11.41-25.48L1103,237.2l-6.09-16.43c4.24,12.1,8.21,24,12,36.15a127.79,127.79,0,0,0,4.94,13.83A74.65,74.65,0,0,0,1130,294.49a62.84,62.84,0,0,0,16.34,11.1,67,67,0,0,0,20.37,6.39l8.9.69a52,52,0,0,0,13.41-1,79.51,79.51,0,0,0,21.71-6.56,111.3,111.3,0,0,0,16-9.46,72.73,72.73,0,0,0,10.83-9,120.4,120.4,0,0,0,9.85-10.1A177.09,177.09,0,0,0,1270,242.21a292,292,0,0,0,15.73-38.4c2.08-6.2,3.74-12.52,5.33-18.86l1.67-6.92a42.64,42.64,0,0,1,5.46-12.64l-.71,1,4.44-5.88-.76,1a38.76,38.76,0,0,1,8.8-7.29,50.51,50.51,0,0,1,10.2-4.66,82.59,82.59,0,0,1,22.71-3.91,116.15,116.15,0,0,1,23.63,1.35,112.78,112.78,0,0,1,22.4,6.22l-3.18-1.42,8.3,3.8-3.11-1.6,8,4.32-3-1.78,7.54,4.85-2.94-1.95,11.34,10.79-21.54-28,26.6,37-17.15-30.53,19.48,40.54-12-32.61,12.1,37.86-9-33.2,8.52,38.69-6-33.74,4.9,39.13-2.63-34.05.94,39.64.79-33.84a209.83,209.83,0,0,0-3,43c.79,1.69,1.6,3.36,2.41,5l-.68-4.59,0,3.53,3.37-26.73-3.8,22.86,6.52-29.44-21,44.5L1420,206.47l-32,34,22.92-20.2-22.36,18.08,14.07-10.85-18.1,13.27,14.58-9.95c-11.62,7.73-23.49,15.17-34.73,23.47a109.5,109.5,0,0,0-8.63,7,85.67,85.67,0,0,0-14.17,16.41,57.28,57.28,0,0,0-7.58,16,36.42,36.42,0,0,0-1.31,9.74,24.43,24.43,0,0,0,.93,8.05l2,5.89,3.77,6.05,5.34,6.17,7,5.92a70.4,70.4,0,0,0,13.14,6.77,33.48,33.48,0,0,0,9.76,3.34,88.15,88.15,0,0,0,10.27,2.33,67.67,67.67,0,0,0,16.12,1.81l11,.42c7-.06,14.11-.74,21.07-1.37q11.93-1.1,23.74-3.08c13.33-2.23,26.57-5.13,39.65-8.51,10.08-2.6,20.1-5.41,30-8.6,9-2.89,18.16-6.16,26.36-10.86a30.19,30.19,0,0,0,8.23-6.08l4.72-5.59a59.51,59.51,0,0,0,7.28-14c2.61-6.85,3.57-14.19,4-21.45a40.09,40.09,0,0,0,0-9.16,74.19,74.19,0,0,0-.82-9.3c-1.68-14-6.09-27.85-11.78-40.75a251.18,251.18,0,0,0-19.19-35c-14.39-22.21-32-42-51-60.36a4,4,0,0,0-1.45,3.44c-.59,4.41-1,8.85-1.31,13.29s-.6,8.89-.67,13.34a4,4,0,0,0,.92,3.62c10.53,12.19,20.5,24.78,29.06,38.45a134,134,0,0,1,10.46,19.69c2.49,6,3.78,12.34,5.88,18.49,2.7,7.95,5.05,16.31,5.41,24.75.26,6.16.13,12.61-1.69,18.54l-1.89,5.31a27.77,27.77,0,0,1-4.75,8.06l-2.6,3.24q-3.37,2.93-6.83,5.74-3.2,2-6.58,3.73a38.35,38.35,0,0,1-7.91,3.44,26.43,26.43,0,0,0-6.85,2q-4.55,1.76-9.17,3.34-4.57,1.08-9.16,2.1-5,1.13-9.93,2.16-11,2.31-22,4.26c-7.8,1.37-15.66,2.54-23.55,3.21-7.23.61-14.21,0-21.39-.47q-8.43.13-16.83-.57a70.33,70.33,0,0,1-11.16-2.88,16.57,16.57,0,0,1-8.12-4.14,23.6,23.6,0,0,1-6.09-6.51l.54,1.12a22.49,22.49,0,0,0-2.61-5.93,6.78,6.78,0,0,1-1.33-4.27l0,1.23.41-4.53-.22,1.22.69-3.58-.34,1.18c.9-2.18,1.71-4.29,2.52-6.51l-.51,1.11c1.22-2.45,2.45-4.9,3.71-7.33l-.6,1.05,2.63-4.42-.62,1a173.57,173.57,0,0,1,12-16.8c2.11-2.62,4.25-5.23,6.46-7.77,14-16.16,36.33-67.71,32.6-60.62a6.06,6.06,0,0,0-.85-4.69q-2.33-5.7-4.92-11.26-3.13-7-6.49-13.91a49.54,49.54,0,0,0-5.13-9.34,52.16,52.16,0,0,0-9.12-7.23,53.44,53.44,0,0,0-10.59-5.42,89.66,89.66,0,0,0-23.54-5.63,118.37,118.37,0,0,0-50.92,5.9,94.71,94.71,0,0,0-24.29,12.38,68.21,68.21,0,0,0-14.13,13.59c-4.9,6.31-8.37,13.42-11.69,20.64q-2,4.44-4.12,8.85a72.4,72.4,0,0,0-4.67,11.9,30.3,30.3,0,0,1-5.69,11.66,61.88,61.88,0,0,0-6.33,10.39c-8.8,15.23-20.2,30.06-35.58,39.14a59.4,59.4,0,0,1-21.52,7.83,68,68,0,0,1-23.7-1.08,27.09,27.09,0,0,1-11.84-4.64,80.83,80.83,0,0,1-10.62-7.47c-6.88-5.79-12.28-12.81-17.52-20l.78,1.11c-4.46-6.71-8.67-13.56-12.88-20.42s-8.55-13.88-13.92-19.9a72.47,72.47,0,0,0-15.38-13.44,69.73,69.73,0,0,0-19.08-8.15,123.63,123.63,0,0,0-30.76-4,180.31,180.31,0,0,0-51.72,7.23c-18.79,5.51-35.83,15.62-51.41,27.31-21.86,16.4-41,36-60.52,55-8,7.8-16.13,15.55-24.48,23-9.27,8.31-18.67,16.47-29.34,22.95A107.51,107.51,0,0,1,782,322.26a126,126,0,0,1-26.32,4.14c-18.22.94-36.37-1.55-54.37-4.06-8.64-1.21-17.32-2.23-25.91-3.72-10.81-1.88-21.6-3.71-32.34-6q-18.55-3.89-36.79-9c-12-3.34-23.76-7.2-35.51-11.25-5.68-1.95-11.29-3.91-16.85-6.16-9.15-3.72-18.1-7.91-27.09-12-12.37-5.63-24.85-11.05-38-14.68A128.48,128.48,0,0,0,459,255.1c-10.54-.39-21.25.93-31.6,2.79a256.77,256.77,0,0,0-36.68,9.65C345,283,302.82,307,258.05,324.69c-23.86,9.43-48.69,17.29-74.31,19.91a165.87,165.87,0,0,1-39.52-.53c-4.95-.69-9.84-1.7-14.7-2.84a147.25,147.25,0,0,1-15-4.12l-10.21-3.81a109.51,109.51,0,0,1-19.48-11.41,116.2,116.2,0,0,1-16.6-14.4,89.37,89.37,0,0,1-14.86-20.64c-1.43-2.84-2.82-5.73-4-8.69-2.53-6.33-3.55-13-4.41-19.69l-.18,1.26L45.92,253l-.25,1.24A60.55,60.55,0,0,0,47.48,246c1.05-5.66,2.18-11.31,3.34-16.94l-.34,1.21c9.59-31.7,20.36-63,30.23-94.64,2.35-7.53,4.68-15.06,6.93-22.62a90.6,90.6,0,0,0,4.48-20.94l.58-7.21q.64-10.3,1-20.61l.1-7.23a11.81,11.81,0,0,0-1.94-7.2,28.49,28.49,0,0,0-3-4.3,6.25,6.25,0,0,0-1.15,4.71q-.24,6.26-.16,12.51,0,7.83.19,15.64A50.83,50.83,0,0,0,88.6,89.18Z"/>
    <path class="cls-5" d="M87.21,105.63l1.45,3.85L88,100.69l-.22,8.72,1.08-10.58a22.05,22.05,0,0,1-2,5.69,32.84,32.84,0,0,1-3.81,6.72c-2.73,4.24-5.5,8.46-8.23,12.7-8.34,13-16.59,26.13-23.67,39.87C44.81,176.16,39.22,188.89,34,201.75c-5.45,13.39-10.62,26.93-15.17,40.65a269.09,269.09,0,0,0-9,32.36,70.71,70.71,0,0,0-1.71,16.41l.4,5a42.89,42.89,0,0,0,2.7,12.06c9,27.61,31.24,49,55.45,63.82,13.44,8.25,28.2,15.09,43.55,19,8.8,2.21,17.64,4.37,26.59,5.85a192.62,192.62,0,0,0,31.81,2.48,154.64,154.64,0,0,0,19-1.25,164.94,164.94,0,0,0,18.76-2.73,288.4,288.4,0,0,0,30.36-7.86c21.2-6.7,41.58-15.77,61.47-25.66,17-8.43,33.65-17.38,50.42-26.17,18.83-9.88,37.82-19.75,57.55-27.73,14.76-6,29.8-11.05,45.44-14.13a123.22,123.22,0,0,1,25.84-2.47l8.29.39a74,74,0,0,1,15.76,2.88l-1.08-.34,8.18,3-1.07-.4a93.85,93.85,0,0,1,12.89,7q6,3.88,11.74,8.13c6.31,4.58,12.49,9.36,18.91,13.79a165.85,165.85,0,0,0,24.05,13.91A101.22,101.22,0,0,0,587,344.63q18.1,6.19,36.59,11.13A571.58,571.58,0,0,0,681,367.86c15.72,2.51,31.6,3.7,47.42,5.31,17.29,1.76,34.65,3.26,52,1.36a131.47,131.47,0,0,0,54.32-18.32c13.16-8,24.75-18.19,35.43-29.25,9.1-9.43,17.84-19.2,26.5-29,18-20.45,35.61-41.58,56.26-59.47a175.27,175.27,0,0,1,24.91-18.35,115.16,115.16,0,0,1,17.29-8.53,93.26,93.26,0,0,1,17.87-5l-.95.13c7.85-.12,15.67.3,23.51.71l-1-.06,7.17.58-1-.11,7.28.83-1-.15,7.34,1.11-1.06-.2,7.33,1.42-1.07-.25,7.24,1.8-1.06-.3,7.08,2.2-1.07-.34a79.55,79.55,0,0,1,13.73,6.53,25.77,25.77,0,0,1,4.69,3.34,32.81,32.81,0,0,1,9.11,10.29l-4.86-7.91,5.89,10.82-3.1-6.3a186.8,186.8,0,0,1,9.9,36q1.4,7.5,3.48,14.81a74.49,74.49,0,0,0,8.68,19c5.41,8.25,13.19,15.68,22.1,20.05,2.93,1.44,5.91,2.77,8.92,4a80.25,80.25,0,0,0,17.82,4.34,89.3,89.3,0,0,0,19.13.07,92.62,92.62,0,0,0,38-13.34c21.69-13.41,37.51-34.7,49.19-56.95,10.22-19.45,17.52-40.42,22.79-61.73q1-3.87,1.82-7.75a91.33,91.33,0,0,1,3.7-13.88,27.09,27.09,0,0,1,10.81-13,29.27,29.27,0,0,1,7.29-3.54c13.13-5,28.15-4.5,41.83-2.43a112,112,0,0,1,22.45,5.71,85.66,85.66,0,0,1,10.35,4.65A61.3,61.3,0,0,1,1412.52,180l-3.46-4,7.75,10.49-3.42-5.69,3.76,7.29-2.42-5.29a32.51,32.51,0,0,1,4,17,38.15,38.15,0,0,1-.64,8.39,33.37,33.37,0,0,1-2.08,8.89,42.67,42.67,0,0,1-4,9.35,43,43,0,0,0-1.39,8.93l-.06,2.36a16.59,16.59,0,0,0,2.09,4.86l-.15-7.2-.48,6.75,1.38-9.65-1.34,3.41.71-1.08-2.94,4.35.8-1a45,45,0,0,1-6.32,4.11,21.15,21.15,0,0,1-7.13,3c-4,1.31-8,2.65-12,4.05-3.36,1.18-6.64,2.51-9.92,3.9a111.79,111.79,0,0,0-12.09,6.29,123.41,123.41,0,0,0-16.73,11.68,88.5,88.5,0,0,0-8.66,8.22,64.92,64.92,0,0,0-12.26,18.89,41.32,41.32,0,0,0-3.17,15.06l.26,5.72c.27,1.18.53,2.36.8,3.54a49.23,49.23,0,0,0,3.5,10.25,44,44,0,0,0,8.17,10.74A51.33,51.33,0,0,0,1347,354l10.37,5.43a57.73,57.73,0,0,0,17.61,5.59,102.77,102.77,0,0,0,18.15,2.55,162.15,162.15,0,0,0,17.5,0c19.2-.73,38.34-3.77,57.1-7.83,14.4-3.11,28.7-6.66,42.85-10.75,10-2.89,20-5.91,29.67-9.65,7.91-3.06,16-6.12,23-11a31.89,31.89,0,0,0,8-8,47.18,47.18,0,0,0,6.9-10.5,79.77,79.77,0,0,0,7.41-28.38l.37-10.51A102.53,102.53,0,0,0,1584.2,255a156.34,156.34,0,0,0-6.54-25.56q-2.6-7.23-5.87-14.17a142.74,142.74,0,0,0-6.64-13.41q-3.42-6.21-7.11-12.27c-17.32-28.64-39.92-54-64.46-76.59-1.75-1.61-3.53,1.58-2.15,2.86a392.89,392.89,0,0,1,39.84,42.45c14.48,18.08,27.45,37.59,36.39,59,4.4,10.56,8,21.55,9.62,32.94l1.08,10a72.4,72.4,0,0,1-.8,19.39,57.76,57.76,0,0,1-5,17.41l-3.85,7.66a68.77,68.77,0,0,1-9.63,11.69,58.07,58.07,0,0,1-11.3,7.5l.71-.33-5.74,2.49.71-.31c-15.84,6.34-32.07,11.12-48.53,15.55l.75-.2c-28.52,7.26-57.58,13.8-87.09,14.93a91.07,91.07,0,0,1-10.45.12,52.37,52.37,0,0,1-10.68-.77,94.82,94.82,0,0,1-15.76-2.81l-10.34-4.27-8.87-4.88-7.13-5.8a46.78,46.78,0,0,1-8-9.24,19.43,19.43,0,0,1-4.44-8.76l.2.73c-1.73-7.14-2.24-13.36-.16-20.26a65,65,0,0,1,5.89-13l-.47.77a97.73,97.73,0,0,1,8.9-11.45,87.36,87.36,0,0,1,13.56-11.82l-3.85,2.53a73.18,73.18,0,0,1,16.22-7.1l-.94.25c6.79-1.71,13.62-2.77,20.53-3.9a58.63,58.63,0,0,0,10.62-2.53l4.72-1.93a10.53,10.53,0,0,0,4.55-4.23,9.6,9.6,0,0,0,2-4,58.72,58.72,0,0,0,.93-6.61,54.56,54.56,0,0,0,.22-5.86c0-2.41-.63-3.29-1.72-5.68l-1.73,13.53a96.25,96.25,0,0,0,6.9-11.93,57.85,57.85,0,0,0,4-11.86,48,48,0,0,0,1.09-12.75c-.64-9.68-4.88-18.44-10.63-26.07-7.84-10.39-19.78-16.93-32-20.79a120,120,0,0,0-48.37-4.34c-7.23,1-14.6,2.58-21.12,6a38.49,38.49,0,0,0-9,6.39,34.34,34.34,0,0,0-4.27,5.07l-3,5.8-2.23,7.08c-1.36,4.84-2.38,9.78-3.71,14.63a269.18,269.18,0,0,1-14,39.17c-10.52,23.39-25.21,46.4-46.22,61.64a60.63,60.63,0,0,1-7.74,5.17,31.58,31.58,0,0,1-8.37,4.29,57.7,57.7,0,0,1-9,3.37,34.56,34.56,0,0,1-9.12,2.33,53.1,53.1,0,0,1-9.23,1.26,38.13,38.13,0,0,1-9.18.31,52.54,52.54,0,0,1-9.12-.67,47.91,47.91,0,0,1-12.88-2.68l.78.28-8.75-3.29.77.32a64.45,64.45,0,0,1-13.87-8.16,46.74,46.74,0,0,1-7.85-7.35,48.52,48.52,0,0,1-6.32-7.95,78.34,78.34,0,0,1-6.22-11.37l.56,1.27a159.28,159.28,0,0,1-7-21.53l1.45,7.24c-1.07-6.19-1.9-12.51-3.84-18.51a67,67,0,0,0-3.56-9c-2.46-5-5.43-10-9.57-13.8a52.21,52.21,0,0,0-14-9.32,103.75,103.75,0,0,0-31.66-8,187.29,187.29,0,0,0-22-.91c-4.76.06-9.58-.07-14.32.28-1.78.13-3.56.31-5.32.55l-9,2.43c-12.37,3.76-23.92,10.43-34.42,17.85-21.24,15-39,34.41-56.57,53.45-8.52,9.26-17,18.58-25.66,27.66-11.11,11.58-22.45,23.45-35.49,32.91a147.37,147.37,0,0,1-26.48,15.74,124,124,0,0,1-18.27,6.4,138,138,0,0,1-17.91,3.53l.8-.11a156.2,156.2,0,0,1-17.29,1.28q-6.36.15-12.71-.21c-8.54-.37-17-1.2-25.51-2.16-10.57-1.19-21.17-2.26-31.72-3.6a556.34,556.34,0,0,1-57.85-10.55q-14.08-3.29-27.92-7.43-13.73-3.79-27.17-8.52a183.55,183.55,0,0,1-22.76-10.12c-13.79-7.32-26.48-16.46-40-24.17-10.19-5.8-21-10.68-32.81-12-17.33-2-34.8.24-51.6,4.59C415,293.2,396.66,300.83,378.76,309,355.35,319.77,332.6,332,309.59,343.5l.69-.34C282.14,356.93,253.54,370.33,223,378c-29.71,7.43-60.7,9.67-90.83,3.48A155.8,155.8,0,0,1,114.27,377q-7-1.75-13.86-4.2a160.94,160.94,0,0,1-28.26-13.48,149,149,0,0,1-26.79-20.13,126,126,0,0,1-11.53-12.9,110.13,110.13,0,0,1-9.29-14.75l.34.7-3.72-8.4.3.71a51.46,51.46,0,0,1-3.85-15.34,46.31,46.31,0,0,1-.07-9.49,118.49,118.49,0,0,1,2.83-16.95c3.82-16.39,9.59-32.32,15.28-48.12l-.35,1c9.46-25.46,19.32-51.05,32.43-74.89l-3.1,5.11A187.77,187.77,0,0,1,78.26,128l-.84.94c3.39-3.75,7.35-7.58,10.18-11.8,1.85-2.76,2.65-4.33,3.06-7.49A65,65,0,0,0,91.27,99l-.39-5.59q-1-3.27-2.06-6.53c-.46-.7-.92-.7-1.4,0a10.48,10.48,0,0,0-.78,4.77c-.14,3.07-.18,6.13-.11,9.2A10.47,10.47,0,0,0,87.21,105.63Z"/>
  </g>
  <g id="PORTFOLIO-2" data-name="PORTFOLIO" class="cls-2">
    <g class="cls-2">
      <path class="cls-6" d="M112.37,315.75V15.24h74.57q27.09,0,43.23,9.83t23.55,28.39q7.43,18.56,7.42,44.89,0,23.75-8.34,41.18a60.51,60.51,0,0,1-24.68,26.9q-16.32,9.45-40.81,9.46h-33V315.75ZM154.3,145.84h19.29q18.16,0,28.56-4.09A25.89,25.89,0,0,0,217,127.47q4.44-10.2,4.45-28.75,0-21.51-3.16-33t-13.17-16q-10-4.45-31.16-4.46H154.3Z"/>
      <path class="cls-6" d="M367.25,319.09q-30.44,0-48.6-11.87t-26-34q-7.8-22.06-7.79-51.75V107.62q0-29.67,8-51t26-32.65q18-11.31,48.42-11.31t48.23,11.5q17.81,11.51,25.78,32.65t8,50.82V221.89q0,29.31-8,51.2T415.48,307Q397.68,319.09,367.25,319.09Zm0-33q16.69,0,25.23-6.86T404,259.92a127,127,0,0,0,3-29.13V99.09a122,122,0,0,0-3-28.75q-3-12.06-11.5-18.55t-25.23-6.5q-16.69,0-25.42,6.5T330.15,70.34q-3,12.06-3,28.75v131.7a126.43,126.43,0,0,0,3,29.13q3,12.43,11.68,19.29T367.25,286.07Z"/>
      <path class="cls-6" d="M490.42,315.75V15.24h60.47q30,0,49.71,8t29.13,25.6q9.45,17.62,9.46,46.19a126.27,126.27,0,0,1-3.71,31.72,61.35,61.35,0,0,1-11.88,24.11,46.21,46.21,0,0,1-21.51,14.29l42.66,150.62H604.31L565,174.77H532.34v141Zm41.92-171h15.95q17.81,0,28.94-4.45a29.79,29.79,0,0,0,16.32-15.21q5.19-10.75,5.2-30,0-26.34-9.65-38T550.89,45.29H532.34Z"/>
      <path class="cls-6" d="M716,315.75V46.41H665.16V15.24H807.25V46.41H757.91V315.75Z"/>
      <path class="cls-6" d="M836.18,315.75V15.24H952.31V45.29h-74.2V145.46h57.5v29.68h-57.5V315.75Z"/>
      <path class="cls-6" d="M1058,319.09q-30.42,0-48.6-11.87t-26-34q-7.8-22.06-7.79-51.75V107.62q0-29.67,8-51t26-32.65q18-11.31,48.42-11.31t48.23,11.5q17.81,11.51,25.78,32.65t8,50.82V221.89q0,29.31-8,51.2T1106.27,307Q1088.47,319.09,1058,319.09Zm0-33q16.7,0,25.23-6.86t11.5-19.29a126.43,126.43,0,0,0,3-29.13V99.09q0-16.7-3-28.75t-11.5-18.55q-8.55-6.49-25.23-6.5t-25.42,6.5q-8.71,6.49-11.68,18.55t-3,28.75v131.7a126.43,126.43,0,0,0,3,29.13q3,12.43,11.68,19.29T1058,286.07Z"/>
      <path class="cls-6" d="M1181.21,315.75V15.24h41.92V285.7h76.8v30.05Z"/>
      <path class="cls-6" d="M1330.71,315.75V15.24h41.19V315.75Z"/>
      <path class="cls-6" d="M1497.29,319.09q-30.43,0-48.6-11.87t-26-34q-7.8-22.06-7.79-51.75V107.62q0-29.67,8-51t26-32.65q18-11.31,48.42-11.31t48.23,11.5q17.81,11.51,25.78,32.65t8,50.82V221.89q0,29.31-8,51.2T1545.52,307Q1527.72,319.09,1497.29,319.09Zm0-33q16.7,0,25.23-6.86t11.5-19.29a127,127,0,0,0,3-29.13V99.09a122,122,0,0,0-3-28.75q-3-12.06-11.5-18.55t-25.23-6.5q-16.69,0-25.41,6.5t-11.69,18.55q-3,12.06-3,28.75v131.7a126.43,126.43,0,0,0,3,29.13q3,12.43,11.69,19.29T1497.29,286.07Z"/>
    </g>
  </g>
  <g id="Michelle_Young-2" data-name="Michelle Young" class="cls-2">
    <g class="cls-2">
      <path class="cls-6" d="M40.41,31l43.09,1.5-.1,5.82-35.1,6.9,34.84,8.12L83,59.05l-43.12.07L40,54.35l31.3.06-31.17-7.7.06-3.35,31.41-6.6-31.28-1Z"/>
      <path class="cls-6" d="M39.81,65.5,70.57,66l-.1,5.6-30.76-.51Zm35.33.59,6,.1L81,71.8l-6-.1Z"/>
      <path class="cls-6" d="M39,85.39a8.91,8.91,0,0,1,1.61-5.6A7.5,7.5,0,0,1,45,77.29a28.56,28.56,0,0,1,6.45-.54l7.08.12a27.37,27.37,0,0,1,6.61.79,7.26,7.26,0,0,1,4.16,2.66,9.09,9.09,0,0,1,1.37,5.6A9.93,9.93,0,0,1,69.47,91a5.65,5.65,0,0,1-3.29,2.43,17.83,17.83,0,0,1-5.36.59L59,94l.09-5.08L61,89a15,15,0,0,0,3.2-.2,2.91,2.91,0,0,0,1.72-.92,3.08,3.08,0,0,0,.56-1.93,3,3,0,0,0-.6-2.1,3.5,3.5,0,0,0-2.14-1,28.94,28.94,0,0,0-4.12-.3l-9.68-.16c-2.63,0-4.39.17-5.28.64a2.73,2.73,0,0,0-1.38,2.6,2.78,2.78,0,0,0,.63,2.08,3.37,3.37,0,0,0,1.88.87,20,20,0,0,0,2.76.23l2.5,0-.09,5.08-2.13,0a17.44,17.44,0,0,1-5.3-.8,6,6,0,0,1-3.37-2.57A9.19,9.19,0,0,1,39,85.39Z"/>
      <path class="cls-6" d="M39.23,98.8l43.11.72-.1,5.61-15.54-.26a16.12,16.12,0,0,1,2.5,3.44,8.53,8.53,0,0,1,1,4.21,3.74,3.74,0,0,1-1,2.73,5.13,5.13,0,0,1-2.41,1.32,11.21,11.21,0,0,1-2.94.35l-24.9-.42.1-5.6,23.25.39a5.79,5.79,0,0,0,2.56-.43,2,2,0,0,0,.94-1.92,4.29,4.29,0,0,0-.55-2.08,11,11,0,0,0-1.4-2l-24.69-.41Z"/>
      <path class="cls-6" d="M38.26,130.32a9.25,9.25,0,0,1,1.51-5.48,7.4,7.4,0,0,1,4.2-2.63,25.55,25.55,0,0,1,6.74-.64l7,.12a24.87,24.87,0,0,1,6.8.89,7.33,7.33,0,0,1,4,2.82,9.28,9.28,0,0,1,1.29,5.44c0,2.55-.61,4.42-1.69,5.61a8,8,0,0,1-4.65,2.3,39.47,39.47,0,0,1-7.22.46l-2.5-.05L54,127.23l-6.17-.11a11.28,11.28,0,0,0-3,.29,3.17,3.17,0,0,0-1.75,1.07,3.22,3.22,0,0,0-.59,2,2.66,2.66,0,0,0,.57,1.92,3.3,3.3,0,0,0,1.75.92,13.62,13.62,0,0,0,2.68.28l1.86,0L49.24,139l-1.17,0A12.23,12.23,0,0,1,40.81,137C39.06,135.64,38.21,133.42,38.26,130.32Zm18.85-3L57,133.72l2.77.05a21.47,21.47,0,0,0,3.22-.16,3.55,3.55,0,0,0,2-.83,2.83,2.83,0,0,0,.7-2.06,3,3,0,0,0-.6-2.08,3.67,3.67,0,0,0-2.14-1,26.18,26.18,0,0,0-4.18-.33Z"/>
      <path class="cls-6" d="M38.44,144.51l43.11.72-.1,5.6-43.1-.72Z"/>
      <path class="cls-6" d="M38.24,156.5l43.1.72-.1,5.6-43.1-.72Z"/>
      <path class="cls-6" d="M37.47,176.34a9.26,9.26,0,0,1,1.5-5.48,7.37,7.37,0,0,1,4.2-2.62,25.18,25.18,0,0,1,6.75-.65l7,.12a24.51,24.51,0,0,1,6.8.9,7.27,7.27,0,0,1,4.05,2.81,9.28,9.28,0,0,1,1.29,5.44c0,2.55-.61,4.42-1.7,5.61a7.91,7.91,0,0,1-4.64,2.3,39.54,39.54,0,0,1-7.22.46l-2.5,0,.2-11.93-6.17-.11a11.37,11.37,0,0,0-3,.29,2.87,2.87,0,0,0-2.34,3,2.71,2.71,0,0,0,.58,1.92,3.23,3.23,0,0,0,1.74.92,13.62,13.62,0,0,0,2.68.28l1.87,0-.1,5.45-1.17,0A12.14,12.14,0,0,1,40,183C38.26,181.66,37.42,179.44,37.47,176.34Zm18.84-3-.11,6.44,2.77,0a21.55,21.55,0,0,0,3.22-.16,3.55,3.55,0,0,0,2-.83,2.84,2.84,0,0,0,.71-2.06,3,3,0,0,0-.61-2.08,3.73,3.73,0,0,0-2.14-1,26,26,0,0,0-4.17-.33Z"/>
      <path class="cls-6" d="M37.33,209l15.22.26,28-8.7L80.5,206l-20.92,6.14,20.7,6.74-.1,5.55-27.73-9.58-15.22-.25Z"/>
      <path class="cls-6" d="M36.46,234.45a8.9,8.9,0,0,1,1.48-5.26,7.37,7.37,0,0,1,4-2.68,19.71,19.71,0,0,1,6-.72l8.94.15a19.91,19.91,0,0,1,6,.92,7.36,7.36,0,0,1,3.89,2.81,10.77,10.77,0,0,1-.18,10.55,7.54,7.54,0,0,1-4,2.66,19.94,19.94,0,0,1-6,.71l-8.94-.15a19.93,19.93,0,0,1-6-.91,7.45,7.45,0,0,1-3.89-2.79A8.89,8.89,0,0,1,36.46,234.45Zm4.21.07a2.58,2.58,0,0,0,.92,2.3,5.21,5.21,0,0,0,2.51.82c1,.11,2.14.17,3.27.19L57,238c1.17,0,2.27,0,3.3-.07a5.36,5.36,0,0,0,2.54-.75,2.52,2.52,0,0,0,1-2.26,2.59,2.59,0,0,0-.95-2.32,5.08,5.08,0,0,0-2.51-.85c-1-.11-2.12-.17-3.3-.19l-9.63-.16c-1.13,0-2.23,0-3.27.08a4.83,4.83,0,0,0-2.54.77A2.61,2.61,0,0,0,40.67,234.52Z"/>
      <path class="cls-6" d="M36.15,252.73a3.83,3.83,0,0,1,1-2.76,5,5,0,0,1,2.42-1.35,11.21,11.21,0,0,1,2.94-.35l24.9.42-.1,5.6-23.2-.38a5.86,5.86,0,0,0-2.59.42,2,2,0,0,0-1,1.92,4.13,4.13,0,0,0,.52,2,11.83,11.83,0,0,0,1.33,2l24.79.42-.09,5.6-30.76-.51.1-5.61,3,.05a14.71,14.71,0,0,1-2.39-3.36A8.33,8.33,0,0,1,36.15,252.73Z"/>
      <path class="cls-6" d="M36.25,271.42l30.76.52-.1,5.6-3-.05a16.35,16.35,0,0,1,2.39,3.39,8.17,8.17,0,0,1,.94,4.05,3.8,3.8,0,0,1-1,2.78A5.23,5.23,0,0,1,63.79,289a11.25,11.25,0,0,1-2.94.34L36,289l.09-5.6,23.26.39a5.52,5.52,0,0,0,2.56-.43,2,2,0,0,0,.94-1.92,4.07,4.07,0,0,0-.52-2,12.55,12.55,0,0,0-1.33-2L36.15,277Z"/>
      <path class="cls-6" d="M26.19,302.1a19.35,19.35,0,0,1,.67-4.91,7.38,7.38,0,0,1,1.93-3.42,4.51,4.51,0,0,1,3.37-1.2,5.2,5.2,0,0,1,2.6.67,6.86,6.86,0,0,1,1.91,1.65A10.09,10.09,0,0,1,38,297a4.21,4.21,0,0,1,1.4-2.18,3.08,3.08,0,0,1,2-.7,4.8,4.8,0,0,1,2.91.94,18,18,0,0,1,2.62,2.51A8.41,8.41,0,0,1,50.32,295a15,15,0,0,1,5.76-.8,16.44,16.44,0,0,1,6,1.07,7.58,7.58,0,0,1,3.62,2.94,8.42,8.42,0,0,1,1.17,4.71,8,8,0,0,1-.92,3.94,5.52,5.52,0,0,1-2.59,2.23,9.14,9.14,0,0,1,1.44,1.44,10.8,10.8,0,0,1,1.68,2.7l.36.85-3.7,1.35a10.63,10.63,0,0,0-.47-1.82c-.26-.75-.51-1.45-.77-2.11a4.26,4.26,0,0,0-.64-1.24,12.59,12.59,0,0,1-2.62.61,17.21,17.21,0,0,1-3,.24,17.64,17.64,0,0,1-5.52-.88,7.38,7.38,0,0,1-3.7-2.65,8.17,8.17,0,0,1-1.28-5,11.36,11.36,0,0,1,.14-1.47,11.63,11.63,0,0,1,.29-1.41c-.32-.21-.69-.44-1.11-.67a2.57,2.57,0,0,0-1.22-.36,1,1,0,0,0-.94.59,4.62,4.62,0,0,0-.48,1.9l-.51,4.7A7.94,7.94,0,0,1,39,311.12a7.53,7.53,0,0,1-5.35,1.63,7.39,7.39,0,0,1-4.21-1.22A6.89,6.89,0,0,1,26.94,308,17.45,17.45,0,0,1,26.19,302.1Zm4.47.5A10.16,10.16,0,0,0,31.3,307a2.41,2.41,0,0,0,2.29,1.45,3.49,3.49,0,0,0,1.6-.31,2.4,2.4,0,0,0,1-1.22,9.28,9.28,0,0,0,.58-2.56l.51-4.75c-.39-.39-.77-.77-1.15-1.12a5.31,5.31,0,0,0-1.24-.86,3.25,3.25,0,0,0-1.4-.34,2.28,2.28,0,0,0-2.1,1.12A8.86,8.86,0,0,0,30.66,302.6Zm18.47,0a3.47,3.47,0,0,0,.41,1.92,2.89,2.89,0,0,0,1.32,1.1,7.69,7.69,0,0,0,2.14.53c.85.1,1.81.16,2.87.18s2,0,2.91-.08a9.45,9.45,0,0,0,2.24-.44,2.77,2.77,0,0,0,1.43-1,3.32,3.32,0,0,0,.51-1.9,3.46,3.46,0,0,0-.45-1.92,2.83,2.83,0,0,0-1.33-1.15A8.62,8.62,0,0,0,59,299.3a25.17,25.17,0,0,0-3-.21,25.59,25.59,0,0,0-2.69.09,7.25,7.25,0,0,0-2.16.48,3.41,3.41,0,0,0-1.46,1.11A3.1,3.1,0,0,0,49.13,302.64Z"/>
    </g>
  </g>
</svg>
