<svg id="Layer_1" data-name="Layer 1" xmlns="http://www.w3.org/2000/svg" viewBox="0 0 685.06 180">
  <defs>
    <style>
      .cls-1 {
        opacity: 0.79;
      }

      .cls-2 {
        fill: #9fc770;
      }

      .cls-3 {
        isolation: isolate;
      }
    </style>
  </defs>
  <title>klikforprototype</title>
  <g id="Rectangle_21" data-name="Rectangle 21" class="cls-1">
    <rect class="cls-2" x="296.13" y="-296" width="93.7" height="685.96" transform="translate(295.54 389.89) rotate(-89.92)"/>
    <rect class="cls-2" x="297.13" y="-294.89" width="91.7" height="683.74" transform="translate(295.54 389.89) rotate(-89.92)"/>
  </g>
  <g id="Rectangle_21-2" data-name="Rectangle 21" class="cls-1">
    <rect class="cls-2" x="296.01" y="-64.99" width="86" height="403.99" transform="translate(201.54 475.82) rotate(-89.92)"/>
    <rect class="cls-2" x="296.92" y="-64.34" width="84.17" height="402.68" transform="translate(201.54 475.82) rotate(-89.92)"/>
  </g>
  <g id="SE_VORES_UDVALG" data-name="SE VORES UDVALG" class="cls-3">
    <g class="cls-3">
      <path d="M18.13,80V11.83h9.5V44L43.27,11.83H52.1l-13.45,30L54.29,80H45L32,48,27.63,55.9V80Z"/>
      <path d="M61.27,80V11.83h9.5V73.14H88.18V80Z"/>
      <path d="M96.67,80V11.83H106V80Z"/>
      <path d="M118.54,80V11.83H128V44l15.64-32.13h8.83l-13.45,30L154.7,80h-9.25l-13-32L128,55.9V80Z"/>
      <path d="M182.45,80V11.83h26.32v6.81H192V41.35h13v6.73H192V80Z"/>
      <path d="M234.25,80.71q-6.9,0-11-2.69a14.76,14.76,0,0,1-5.89-7.7,35.13,35.13,0,0,1-1.77-11.73V32.77a32.94,32.94,0,0,1,1.81-11.56,14.45,14.45,0,0,1,5.89-7.4q4.08-2.57,11-2.57t10.93,2.61a14.73,14.73,0,0,1,5.85,7.4,32.85,32.85,0,0,1,1.81,11.52v25.9A34,34,0,0,1,251,70.28,15.29,15.29,0,0,1,245.18,78Q241.15,80.72,234.25,80.71Zm0-7.49A9,9,0,0,0,240,71.67a7.73,7.73,0,0,0,2.61-4.38,28.54,28.54,0,0,0,.67-6.6V30.84a27.47,27.47,0,0,0-.67-6.52,7.25,7.25,0,0,0-2.61-4.2,9.37,9.37,0,0,0-5.72-1.48,9.56,9.56,0,0,0-5.76,1.48,7.16,7.16,0,0,0-2.65,4.2,27.47,27.47,0,0,0-.67,6.52V60.69a28.54,28.54,0,0,0,.67,6.6,7.62,7.62,0,0,0,2.65,4.38A9.22,9.22,0,0,0,234.25,73.22Z"/>
      <path d="M263.68,80V11.83h13.71a30.32,30.32,0,0,1,11.27,1.81,12.61,12.61,0,0,1,6.6,5.8,22.15,22.15,0,0,1,2.15,10.47,28.55,28.55,0,0,1-.84,7.19,14.1,14.1,0,0,1-2.69,5.47A10.54,10.54,0,0,1,289,45.81L298.67,80H289.5l-8.91-32h-7.4V80Zm9.51-38.77h3.61a17.72,17.72,0,0,0,6.56-1,6.73,6.73,0,0,0,3.7-3.45,15.86,15.86,0,0,0,1.18-6.81q0-6-2.19-8.62c-1.45-1.76-4.34-2.65-8.66-2.65h-4.2Z"/>
      <path d="M325.91,80l14.47-68.12h9.16L364.09,80h-9L352,62.79H338.11L334.83,80Zm13.46-24h11.35L345,25.29Z"/>
      <path d="M377.3,80v-61H365.78V11.83H398V18.9H386.8V80Z"/>
      <path d="M426.83,80V11.83h15.64a28.53,28.53,0,0,1,8,1A14.14,14.14,0,0,1,456.18,16a12.71,12.71,0,0,1,3.36,5.34,23.83,23.83,0,0,1,1.09,7.61,22.56,22.56,0,0,1-1.05,7.28A10.39,10.39,0,0,1,456.39,41a11,11,0,0,1-5.51,2.27,14.71,14.71,0,0,1,6.64,3.16,13.26,13.26,0,0,1,3.74,5.72,25.21,25.21,0,0,1,1.22,8.36,29.37,29.37,0,0,1-1,8,15.9,15.9,0,0,1-3.15,6.14,14.22,14.22,0,0,1-5.46,3.91A20.27,20.27,0,0,1,445,80Zm9.5-39.69H442a14.26,14.26,0,0,0,6.31-1.14,6.35,6.35,0,0,0,3.2-3.66,19.58,19.58,0,0,0,.92-6.56c0-3.14-.47-5.41-1.43-6.81a6.51,6.51,0,0,0-4.45-2.65,46.78,46.78,0,0,0-7.91-.54h-2.27Zm0,32.88h6.39q6.39,0,8.54-3t2.14-9.63a20,20,0,0,0-1.13-7.19A8.55,8.55,0,0,0,448.65,49,13.06,13.06,0,0,0,442,47.49h-5.63Z"/>
      <path d="M472.41,80V11.83h26.4V18.9h-16.9V41.43h13.71v6.73H481.91v25H499V80Z"/>
      <path d="M524.21,80.71a17.67,17.67,0,0,1-9.8-2.53,15.85,15.85,0,0,1-5.93-7,29,29,0,0,1-2.35-10.34l8.41-2.27a37.8,37.8,0,0,0,1.13,7,12.59,12.59,0,0,0,2.9,5.51,7.38,7.38,0,0,0,5.64,2.14,7.18,7.18,0,0,0,5.59-2.06,8.46,8.46,0,0,0,1.89-5.93,12.16,12.16,0,0,0-2.1-7.44,39.19,39.19,0,0,0-5.3-5.68L512.86,42a19.17,19.17,0,0,1-5-6.43A20.77,20.77,0,0,1,506.3,27q0-7.48,4.29-11.61t11.68-4.12a21.94,21.94,0,0,1,7.11,1,12.59,12.59,0,0,1,5.13,3.24A16,16,0,0,1,537.79,21a31.32,31.32,0,0,1,1.64,7.78L531.36,31a34.06,34.06,0,0,0-1-6.19,9.29,9.29,0,0,0-2.65-4.54,7.83,7.83,0,0,0-5.43-1.72,7.62,7.62,0,0,0-5.5,1.89,7.39,7.39,0,0,0-2,5.59,11,11,0,0,0,1.05,5.13,15,15,0,0,0,3.41,4.12l11.52,10.1a35.87,35.87,0,0,1,6.81,8,20.32,20.32,0,0,1,2.94,11.06,17.19,17.19,0,0,1-2.1,8.7,14.15,14.15,0,0,1-5.76,5.59A17.82,17.82,0,0,1,524.21,80.71Z"/>
      <path d="M566.85,80.71q-6.9,0-11-2.69a14.76,14.76,0,0,1-5.89-7.7,35.14,35.14,0,0,1-1.76-11.73V32.77A33.18,33.18,0,0,1,550,21.21a14.45,14.45,0,0,1,5.89-7.4q4.08-2.57,11-2.57t10.93,2.61a14.71,14.71,0,0,1,5.84,7.4,32.62,32.62,0,0,1,1.81,11.52v25.9a33.78,33.78,0,0,1-1.81,11.61A15.27,15.27,0,0,1,577.78,78Q573.75,80.72,566.85,80.71Zm-9.26,5.46-3.27-1L575.51,6l3.36.84Zm9.26-13a9,9,0,0,0,5.71-1.55,7.73,7.73,0,0,0,2.61-4.38,28.54,28.54,0,0,0,.67-6.6V30.84a27.47,27.47,0,0,0-.67-6.52,7.25,7.25,0,0,0-2.61-4.2,9.33,9.33,0,0,0-5.71-1.48,9.57,9.57,0,0,0-5.77,1.48,7.14,7.14,0,0,0-2.64,4.2,27.42,27.42,0,0,0-.68,6.52V60.69a28.5,28.5,0,0,0,.68,6.6,7.61,7.61,0,0,0,2.64,4.38A9.23,9.23,0,0,0,566.85,73.22Z"/>
      <path d="M612.59,80.79q-6.39,0-10.21-2.73a15.19,15.19,0,0,1-5.55-8,39.83,39.83,0,0,1-1.73-12.53V34.79a45.2,45.2,0,0,1,1.56-12.74,14.3,14.3,0,0,1,5.55-8q4-2.77,11.14-2.78,6.39,0,10.3,2.15A12.48,12.48,0,0,1,629.33,20a30.19,30.19,0,0,1,1.76,11.14v2.52h-8.91v-2.1a36.84,36.84,0,0,0-.59-7.27,6.81,6.81,0,0,0-2.4-4.21c-1.2-.92-3.09-1.39-5.67-1.39q-4.21,0-6.1,1.94a9,9,0,0,0-2.35,5.25,54.81,54.81,0,0,0-.47,7.53V58.59a38.92,38.92,0,0,0,.72,8.16,8.16,8.16,0,0,0,2.73,4.87,9,9,0,0,0,5.72,1.6,8.45,8.45,0,0,0,5.72-1.76,9.38,9.38,0,0,0,2.77-5.22,40.52,40.52,0,0,0,.76-8.58V53h-8.66V46.23H631.6V80h-6l-.93-7.82a14.25,14.25,0,0,1-4.2,6.22C618.59,80,616,80.79,612.59,80.79Z"/>
      <path d="M642.87,80V11.83h26.4V18.9h-16.9V41.43h13.71v6.73H652.37v25h17.07V80Z"/>
    </g>
  </g>
  <g id="SE_VORES_UDVALG-2" data-name="SE VORES UDVALG" class="cls-3">
    <g class="cls-3">
      <path d="M162,171V102.83h16.91q6.13,0,9.79,2.23a12.92,12.92,0,0,1,5.34,6.43,27.5,27.5,0,0,1,1.68,10.18A21.4,21.4,0,0,1,193.8,131a13.67,13.67,0,0,1-5.59,6.1,18.22,18.22,0,0,1-9.25,2.15h-7.49V171Zm9.5-38.52h4.38a18.16,18.16,0,0,0,6.47-.92,5.93,5.93,0,0,0,3.37-3.24,16.82,16.82,0,0,0,1-6.52,29.72,29.72,0,0,0-.72-7.48,5.26,5.26,0,0,0-3-3.62,18.54,18.54,0,0,0-7.07-1h-4.46Z"/>
      <path d="M203.85,171V102.83h13.71a30.32,30.32,0,0,1,11.27,1.81,12.61,12.61,0,0,1,6.6,5.8,22.15,22.15,0,0,1,2.14,10.47,28.55,28.55,0,0,1-.84,7.19,14,14,0,0,1-2.69,5.47,10.51,10.51,0,0,1-4.87,3.24L238.84,171h-9.17l-8.92-32h-7.4v32Zm9.5-38.77H217a17.76,17.76,0,0,0,6.56-1,6.76,6.76,0,0,0,3.7-3.45,16,16,0,0,0,1.18-6.81q0-6-2.19-8.62c-1.46-1.76-4.34-2.65-8.66-2.65h-4.21Z"/>
      <path d="M266.42,171.71q-6.9,0-11-2.69a14.69,14.69,0,0,1-5.88-7.7,35.13,35.13,0,0,1-1.77-11.73V123.77a32.94,32.94,0,0,1,1.81-11.56,14.38,14.38,0,0,1,5.88-7.4q4.08-2.57,11-2.57t10.93,2.61a14.78,14.78,0,0,1,5.85,7.4,32.87,32.87,0,0,1,1.8,11.52v25.9a34,34,0,0,1-1.8,11.61,15.34,15.34,0,0,1-5.85,7.69Q273.32,171.72,266.42,171.71Zm0-7.49a9,9,0,0,0,5.72-1.55,7.72,7.72,0,0,0,2.6-4.38,28.5,28.5,0,0,0,.68-6.6V121.84a27.42,27.42,0,0,0-.68-6.52,7.24,7.24,0,0,0-2.6-4.2,9.37,9.37,0,0,0-5.72-1.48,9.54,9.54,0,0,0-5.76,1.48,7.16,7.16,0,0,0-2.65,4.2,27.47,27.47,0,0,0-.67,6.52v29.85a28.54,28.54,0,0,0,.67,6.6,7.62,7.62,0,0,0,2.65,4.38A9.2,9.2,0,0,0,266.42,164.22Z"/>
      <path d="M303.33,171v-61H291.81v-7.07H324v7.07H312.84v61Z"/>
      <path d="M349.5,171.71c-4.59,0-8.27-.9-11-2.69a14.76,14.76,0,0,1-5.89-7.7,35.13,35.13,0,0,1-1.77-11.73V123.77a33.17,33.17,0,0,1,1.81-11.56,14.45,14.45,0,0,1,5.89-7.4q4.08-2.57,11-2.57t10.94,2.61a14.76,14.76,0,0,1,5.84,7.4,32.62,32.62,0,0,1,1.81,11.52v25.9a33.78,33.78,0,0,1-1.81,11.61,15.33,15.33,0,0,1-5.84,7.69Q356.41,171.72,349.5,171.71Zm0-7.49a9,9,0,0,0,5.72-1.55,7.73,7.73,0,0,0,2.61-4.38,28.54,28.54,0,0,0,.67-6.6V121.84a27.47,27.47,0,0,0-.67-6.52,7.25,7.25,0,0,0-2.61-4.2,9.35,9.35,0,0,0-5.72-1.48,9.56,9.56,0,0,0-5.76,1.48,7.16,7.16,0,0,0-2.65,4.2,27.47,27.47,0,0,0-.67,6.52v29.85a28.54,28.54,0,0,0,.67,6.6,7.62,7.62,0,0,0,2.65,4.38A9.22,9.22,0,0,0,349.5,164.22Z"/>
      <path d="M386.42,171v-61H374.9v-7.07h32.21v7.07H395.92v61Z"/>
      <path d="M425.61,171v-24l-14.72-44.07h8.83l10.43,32.88,10.26-32.88h8.91L434.69,146.9v24Z"/>
      <path d="M457.14,171V102.83h16.91c4.09,0,7.36.75,9.79,2.23a12.92,12.92,0,0,1,5.34,6.43,27.49,27.49,0,0,1,1.69,10.18A21.25,21.25,0,0,1,489,131a13.67,13.67,0,0,1-5.59,6.1,18.22,18.22,0,0,1-9.25,2.15h-7.48V171Zm9.51-38.52H471a18.22,18.22,0,0,0,6.48-.92,5.91,5.91,0,0,0,3.36-3.24,16.82,16.82,0,0,0,1-6.52,29.72,29.72,0,0,0-.72-7.48,5.24,5.24,0,0,0-3-3.62,18.54,18.54,0,0,0-7.07-1h-4.45Z"/>
      <path d="M499,171V102.83h26.41v7.07h-16.9v22.53h13.7v6.73h-13.7v25H525.6V171Z"/>
    </g>
  </g>
</svg>
