<svg id="Layer_1" data-name="Layer 1" xmlns="http://www.w3.org/2000/svg" viewBox="0 0 686.08 180.63">
  <defs>
    <style>
      .cls-1 {
        opacity: 0.79;
      }

      .cls-2 {
        fill: #fff278;
      }

      .cls-3 {
        isolation: isolate;
      }
    </style>
  </defs>
  <title>klikfordesignspringprototype</title>
  <g id="Rectangle_21" data-name="Rectangle 21" class="cls-1">
    <rect class="cls-2" x="296.19" y="-295.66" width="93.7" height="685.96" transform="translate(295.26 390.29) rotate(-89.92)"/>
    <rect class="cls-2" x="297.19" y="-294.55" width="91.7" height="683.74" transform="translate(295.26 390.29) rotate(-89.92)"/>
  </g>
  <g id="Rectangle_21-2" data-name="Rectangle 21" class="cls-1">
    <rect class="cls-2" x="296.07" y="-64.65" width="86" height="403.99" transform="translate(201.27 476.23) rotate(-89.92)"/>
    <rect class="cls-2" x="296.99" y="-64" width="84.17" height="402.68" transform="translate(201.27 476.23) rotate(-89.92)"/>
  </g>
  <g id="SE_VORES_UDVALG" data-name="SE VORES UDVALG" class="cls-3">
    <g class="cls-3">
      <path d="M18.19,80.29V12.17H27.7V44.3L43.34,12.17h8.83l-13.46,30,15.64,38.1H45.1l-13-32L27.7,56.24V80.29Z"/>
      <path d="M61.33,80.29V12.17h9.51V73.48H88.25v6.81Z"/>
      <path d="M96.74,80.29V12.17h9.33V80.29Z"/>
      <path d="M118.6,80.29V12.17h9.5V44.3l15.65-32.13h8.83l-13.46,30,15.64,38.1h-9.25l-13-32-4.38,7.91V80.29Z"/>
      <path d="M182.51,80.29V12.17h26.32V19H192V41.69h13v6.73H192V80.29Z"/>
      <path d="M234.32,81.05q-6.9,0-11-2.69a14.76,14.76,0,0,1-5.89-7.7,35.18,35.18,0,0,1-1.76-11.73V33.11a33.18,33.18,0,0,1,1.8-11.56,14.41,14.41,0,0,1,5.89-7.4q4.08-2.57,11-2.57t10.93,2.61a14.67,14.67,0,0,1,5.84,7.4,32.62,32.62,0,0,1,1.81,11.52V59a33.78,33.78,0,0,1-1.81,11.61,15.27,15.27,0,0,1-5.84,7.69Q241.22,81.06,234.32,81.05Zm0-7.49A9,9,0,0,0,240,72a7.73,7.73,0,0,0,2.61-4.38,28.6,28.6,0,0,0,.67-6.6V31.18a27.47,27.47,0,0,0-.67-6.52A7.31,7.31,0,0,0,240,20.45,9.34,9.34,0,0,0,234.32,19a9.58,9.58,0,0,0-5.77,1.47,7.2,7.2,0,0,0-2.64,4.21,27.42,27.42,0,0,0-.68,6.52V61a28.56,28.56,0,0,0,.68,6.6A7.61,7.61,0,0,0,228.55,72,9.23,9.23,0,0,0,234.32,73.56Z"/>
      <path d="M263.75,80.29V12.17h13.71A30.06,30.06,0,0,1,288.72,14a12.6,12.6,0,0,1,6.61,5.8,22.15,22.15,0,0,1,2.14,10.47,28.61,28.61,0,0,1-.84,7.19,14,14,0,0,1-2.69,5.47,10.56,10.56,0,0,1-4.88,3.24l9.67,34.14h-9.16l-8.92-32h-7.4v32Zm9.5-38.77h3.62a18,18,0,0,0,6.56-1,6.76,6.76,0,0,0,3.7-3.45,16,16,0,0,0,1.17-6.81c0-4-.72-6.85-2.18-8.62S281.77,19,277.46,19h-4.21Z"/>
      <path d="M326,80.29l14.46-68.12h9.17l14.55,68.12h-9l-3.11-17.16H338.17l-3.28,17.16Zm13.45-24h11.36l-5.72-30.69Z"/>
      <path d="M377.36,80.29V19.24H365.84V12.17h32.21v7.07H386.86V80.29Z"/>
      <path d="M426.89,80.29V12.17h15.64a28.48,28.48,0,0,1,8,1,14.07,14.07,0,0,1,5.68,3.11,12.55,12.55,0,0,1,3.36,5.34,23.81,23.81,0,0,1,1.1,7.61,22.56,22.56,0,0,1-1.05,7.28,10.54,10.54,0,0,1-3.2,4.83,11,11,0,0,1-5.51,2.27,14.75,14.75,0,0,1,6.65,3.16,13.35,13.35,0,0,1,3.74,5.72,25.47,25.47,0,0,1,1.22,8.36,29.76,29.76,0,0,1-1,8A15.91,15.91,0,0,1,458.38,75a14.14,14.14,0,0,1-5.46,3.91,20.26,20.26,0,0,1-7.86,1.39Zm9.5-39.69H442a14.24,14.24,0,0,0,6.3-1.14,6.38,6.38,0,0,0,3.2-3.66,19.3,19.3,0,0,0,.93-6.56q0-4.71-1.43-6.81a6.54,6.54,0,0,0-4.46-2.65,46.7,46.7,0,0,0-7.91-.54h-2.27Zm0,32.88h6.4c4.25,0,7.1-1,8.53-3s2.14-5.2,2.14-9.63a19.8,19.8,0,0,0-1.13-7.19,8.5,8.5,0,0,0-3.62-4.37A13.05,13.05,0,0,0,442,47.83h-5.64Z"/>
      <path d="M472.47,80.29V12.17h26.41v7.07H482V41.77h13.71V48.5H482v25H499v6.81Z"/>
      <path d="M524.27,81.05a17.63,17.63,0,0,1-9.79-2.53,15.79,15.79,0,0,1-5.93-7,29,29,0,0,1-2.36-10.34l8.41-2.27a37.81,37.81,0,0,0,1.14,7,12.48,12.48,0,0,0,2.9,5.51,7.34,7.34,0,0,0,5.63,2.14,7.22,7.22,0,0,0,5.6-2.06,8.46,8.46,0,0,0,1.89-5.93,12.09,12.09,0,0,0-2.11-7.44,39.09,39.09,0,0,0-5.29-5.68L512.92,42.36a19.13,19.13,0,0,1-5-6.43,20.6,20.6,0,0,1-1.6-8.62q0-7.48,4.29-11.61t11.69-4.12a21.88,21.88,0,0,1,7.1,1.05,12.49,12.49,0,0,1,5.13,3.24,15.83,15.83,0,0,1,3.28,5.51,30.87,30.87,0,0,1,1.64,7.78l-8.07,2.19a33.21,33.21,0,0,0-1-6.19,9.22,9.22,0,0,0-2.65-4.54,7.77,7.77,0,0,0-5.42-1.72,7.65,7.65,0,0,0-5.51,1.89,7.39,7.39,0,0,0-2,5.59,10.91,10.91,0,0,0,1.06,5.13,14.9,14.9,0,0,0,3.4,4.12l11.52,10.1a35.87,35.87,0,0,1,6.81,8,20.24,20.24,0,0,1,3,11.06,17.09,17.09,0,0,1-2.11,8.7,14.15,14.15,0,0,1-5.76,5.59A17.77,17.77,0,0,1,524.27,81.05Z"/>
      <path d="M566.91,81.05q-6.9,0-11-2.69a14.69,14.69,0,0,1-5.88-7.7,35.17,35.17,0,0,1-1.77-11.73V33.11a32.94,32.94,0,0,1,1.81-11.56,14.34,14.34,0,0,1,5.88-7.4q4.08-2.57,11-2.57t10.93,2.61a14.74,14.74,0,0,1,5.85,7.4,32.87,32.87,0,0,1,1.8,11.52V59a34,34,0,0,1-1.8,11.61,15.34,15.34,0,0,1-5.85,7.69Q573.8,81.06,566.91,81.05Zm-9.25,5.46-3.28-1L575.57,6.28l3.36.85Zm9.25-13A9,9,0,0,0,572.63,72a7.66,7.66,0,0,0,2.6-4.38,28.56,28.56,0,0,0,.68-6.6V31.18a27.42,27.42,0,0,0-.68-6.52,7.25,7.25,0,0,0-2.6-4.21A9.37,9.37,0,0,0,566.91,19a9.54,9.54,0,0,0-5.76,1.47,7.21,7.21,0,0,0-2.65,4.21,27.47,27.47,0,0,0-.67,6.52V61a28.6,28.6,0,0,0,.67,6.6A7.62,7.62,0,0,0,561.15,72,9.2,9.2,0,0,0,566.91,73.56Z"/>
      <path d="M612.66,81.13q-6.39,0-10.22-2.73a15.3,15.3,0,0,1-5.55-8,40.12,40.12,0,0,1-1.73-12.53V35.13a45.2,45.2,0,0,1,1.56-12.74,14.4,14.4,0,0,1,5.55-8q4-2.77,11.14-2.78,6.39,0,10.3,2.15a12.48,12.48,0,0,1,5.68,6.56,30.14,30.14,0,0,1,1.77,11.14V34h-8.92v-2.1a36,36,0,0,0-.59-7.27,6.85,6.85,0,0,0-2.39-4.21c-1.21-.92-3.1-1.39-5.68-1.39q-4.2,0-6.1,1.94a9.08,9.08,0,0,0-2.35,5.25,54.92,54.92,0,0,0-.46,7.53V58.93a39.69,39.69,0,0,0,.71,8.16A8.17,8.17,0,0,0,608.12,72a9,9,0,0,0,5.71,1.6,8.44,8.44,0,0,0,5.72-1.76,9.38,9.38,0,0,0,2.78-5.22,41.26,41.26,0,0,0,.75-8.58V53.29h-8.66V46.57h17.24V80.29h-6l-.92-7.82a14.27,14.27,0,0,1-4.21,6.22C618.66,80.32,616,81.13,612.66,81.13Z"/>
      <path d="M642.93,80.29V12.17h26.41v7.07H652.43V41.77h13.71V48.5H652.43v25H669.5v6.81Z"/>
    </g>
  </g>
  <g id="SE_VORES_UDVALG-2" data-name="SE VORES UDVALG" class="cls-3">
    <g class="cls-3">
      <path d="M162,171.29V103.17h16.9q6.13,0,9.8,2.23a13,13,0,0,1,5.34,6.43A27.5,27.5,0,0,1,195.76,122a21.4,21.4,0,0,1-1.89,9.33,13.75,13.75,0,0,1-5.6,6.1,18.19,18.19,0,0,1-9.25,2.15h-7.48v31.7Zm9.5-38.52h4.37a18.18,18.18,0,0,0,6.48-.92,5.88,5.88,0,0,0,3.36-3.24,16.82,16.82,0,0,0,1-6.52,29.72,29.72,0,0,0-.72-7.48,5.24,5.24,0,0,0-3-3.62,18.48,18.48,0,0,0-7.06-1h-4.46Z"/>
      <path d="M203.92,171.29V103.17h13.7A30.12,30.12,0,0,1,228.89,105a12.61,12.61,0,0,1,6.6,5.8,22.15,22.15,0,0,1,2.15,10.47,28.61,28.61,0,0,1-.84,7.19,14,14,0,0,1-2.69,5.47,10.62,10.62,0,0,1-4.88,3.24l9.67,34.14h-9.17l-8.91-32h-7.4v32Zm9.5-38.77H217a17.93,17.93,0,0,0,6.56-1,6.7,6.7,0,0,0,3.7-3.45,15.86,15.86,0,0,0,1.18-6.81q0-6-2.18-8.62c-1.46-1.76-4.35-2.65-8.67-2.65h-4.2Z"/>
      <path d="M266.48,172.05q-6.9,0-11-2.69a14.76,14.76,0,0,1-5.89-7.7,35.17,35.17,0,0,1-1.77-11.73V124.11a33.17,33.17,0,0,1,1.81-11.56,14.41,14.41,0,0,1,5.89-7.4q4.08-2.57,11-2.57t10.94,2.61a14.72,14.72,0,0,1,5.84,7.4,32.85,32.85,0,0,1,1.81,11.52V150a34,34,0,0,1-1.81,11.61,15.33,15.33,0,0,1-5.84,7.69Q273.37,172.05,266.48,172.05Zm0-7.49A9,9,0,0,0,272.2,163a7.73,7.73,0,0,0,2.61-4.38,28.6,28.6,0,0,0,.67-6.6V122.18a27.47,27.47,0,0,0-.67-6.52,7.31,7.31,0,0,0-2.61-4.21,9.37,9.37,0,0,0-5.72-1.47,9.56,9.56,0,0,0-5.76,1.47,7.21,7.21,0,0,0-2.65,4.21,27.47,27.47,0,0,0-.67,6.52V152a28.6,28.6,0,0,0,.67,6.6,7.62,7.62,0,0,0,2.65,4.38A9.22,9.22,0,0,0,266.48,164.56Z"/>
      <path d="M303.4,171.29v-61H291.88v-7.07h32.21v7.07H312.9v61.05Z"/>
      <path d="M349.57,172.05q-6.9,0-11-2.69a14.76,14.76,0,0,1-5.89-7.7,35.44,35.44,0,0,1-1.76-11.73V124.11a32.94,32.94,0,0,1,1.81-11.56,14.34,14.34,0,0,1,5.88-7.4q4.08-2.57,11-2.57t10.93,2.61a14.67,14.67,0,0,1,5.84,7.4,32.62,32.62,0,0,1,1.81,11.52V150a33.78,33.78,0,0,1-1.81,11.61,15.27,15.27,0,0,1-5.84,7.69Q356.47,172.05,349.57,172.05Zm0-7.49a9,9,0,0,0,5.72-1.55,7.72,7.72,0,0,0,2.6-4.38,28.56,28.56,0,0,0,.68-6.6V122.18a27.42,27.42,0,0,0-.68-6.52,7.3,7.3,0,0,0-2.6-4.21,9.37,9.37,0,0,0-5.72-1.47,9.52,9.52,0,0,0-5.76,1.47,7.21,7.21,0,0,0-2.65,4.21,27.47,27.47,0,0,0-.67,6.52V152a28.6,28.6,0,0,0,.67,6.6,7.62,7.62,0,0,0,2.65,4.38A9.18,9.18,0,0,0,349.57,164.56Z"/>
      <path d="M386.48,171.29v-61H375v-7.07h32.21v7.07H396v61.05Z"/>
      <path d="M425.67,171.29v-24L411,103.17h8.83l10.42,32.88,10.26-32.88h8.92l-14.64,44.07v24Z"/>
      <path d="M457.21,171.29V103.17h16.9q6.13,0,9.8,2.23a12.92,12.92,0,0,1,5.34,6.43A27.5,27.5,0,0,1,490.93,122a21.4,21.4,0,0,1-1.89,9.33,13.72,13.72,0,0,1-5.59,6.1,18.26,18.26,0,0,1-9.26,2.15h-7.48v31.7Zm9.5-38.52h4.37a18.18,18.18,0,0,0,6.48-.92,5.88,5.88,0,0,0,3.36-3.24,16.82,16.82,0,0,0,1-6.52,30.29,30.29,0,0,0-.71-7.48,5.25,5.25,0,0,0-3-3.62,18.48,18.48,0,0,0-7.06-1h-4.46Z"/>
      <path d="M499.09,171.29V103.17h26.4v7.07h-16.9v22.53H522.3v6.73H508.59v25h17.07v6.81Z"/>
    </g>
  </g>
</svg>
