<svg id="Layer_1" data-name="Layer 1" xmlns="http://www.w3.org/2000/svg" viewBox="0 0 1157.14 59.77">
  <defs>
    <style>
      .cls-1 {
        fill: #eb8ac4;
        opacity: 0.11;
      }
    </style>
  </defs>
  <title>menustreg</title>
  <g>
    <path class="cls-1" d="M46.27,25l5.88-2.38-1.09.29a49.77,49.77,0,0,1,9.72-1.26,62.91,62.91,0,0,1,9.9-.11A168.38,168.38,0,0,1,91.05,24c12,2.06,24,4.54,36.08,6,5,.61,9.93,1.08,14.92,1.3,9.21.4,18.74-.63,27.86-1.73,9.51-1.14,19-2.62,28.51-3.61l9.31-.89a158.7,158.7,0,0,1,18-.47l-1.08-.07,9.62.74-1.07-.1a27.65,27.65,0,0,1,12.07,3c1.76,1,3.48,2.07,5.14,3.23A45.08,45.08,0,0,0,260,36.72c5.83,2.15,12,2.24,18.12,1.63,6.93-.69,13.77-2,20.63-3.2a125.55,125.55,0,0,1,19.42-2.32c5.69-.1,11.39.35,17.08.17,5.95-.19,11.58-1.61,17.25-3.27Q358,28,363.58,26.49A37.42,37.42,0,0,1,374,25.21h-1.09a91,91,0,0,1,13.4.9A86.71,86.71,0,0,1,395,27.37c7.36,1.25,14.66,2.81,22,4.15a211.16,211.16,0,0,0,24.15,3.21c10.51.69,21-.07,31.52-.78,27.89-1.89,55.64-5.51,83.54-7.36,13.63-.91,27.26-1.52,40.93-1.44s27.11,1.07,40.69,2.1c11,.84,22.09,1.68,33.15,2.39,16.7,1.07,33.61,1.92,50.36,1.72,21.26-.25,42.46-1.86,63.7-2.72,11.6-.47,23.2-.67,34.8-.32a297.65,297.65,0,0,1,33.72,3.3c10.81,1.57,21.64,3.13,32.5,4.36,13.49,1.52,27,2.33,40.55,2.86a5.18,5.18,0,0,0-2.24-3.13q-5.13-4.82-10.49-9.4t-10.8-9a5.23,5.23,0,0,0-3.41-1.77c-13.5-.73-27-1.7-40.42-3s-26.89-2.85-40.36-4C791,6,763.05,7.23,735.09,8.28c-14,.52-28,1.1-42.07,1.16-16.78.07-33.66-.85-50.41-1.7s-33.67-2-50.51-2.57c-16.51-.55-33-.31-49.48.49-32.73,1.58-65.32,5.22-98.08,6.25a200,200,0,0,1-21.06.24q-7.12-.11-14.21-.84c-9.54-.83-19-2.13-28.56-3.06A231.7,231.7,0,0,0,351.86,7a154.22,154.22,0,0,0-20,1.82c-4.85.75-9.77,1.59-14.64,2.11-5.57.59-11.16.76-16.74,1.19-6.23.49-12.41,1.23-18.66,1.56-5.87.31-11.82.87-17.69.36L259,13.4a83.09,83.09,0,0,0-10.68-1.2l-5.65-1a76.82,76.82,0,0,1-9.45-2.37,116.76,116.76,0,0,0-14.55-2.93,170.46,170.46,0,0,0-23.15-1c-18.44.43-36.7,3-55.09,4.25a255.49,255.49,0,0,1-27.11.83C105.83,9.67,98.4,9,91,8.57,82,8,73,7.49,64,7.49A165.2,165.2,0,0,0,40.62,9.06c-4.77.67-9.49,1.61-14.21,2.57q-5,1-10,2A36.1,36.1,0,0,0,9.64,16a5.71,5.71,0,0,0,3.63,1.81q7.17,2.05,14.42,3.77T42.22,24.9A5.66,5.66,0,0,0,46.27,25Z"/>
    <path class="cls-1" d="M49.72,30.13a31,31,0,0,1,12.54-3.37l-1.14.16A59.69,59.69,0,0,1,71,26.65a75.14,75.14,0,0,1,10,.74c6.92.83,13.8,2.19,20.65,3.52,13.38,2.6,26.79,5.39,40.42,6.28,16.95,1.11,33.8-2,50.56-4.1,9.24-1.17,18.55-2.42,27.88-2.54l8.85.05a86.83,86.83,0,0,1,16.68,2.19L245,32.54a26.44,26.44,0,0,1,7.26,3.92Q255.51,38.89,259,41a33.07,33.07,0,0,0,9.49,3.64c6.41,1.24,13.66.15,20-.84,8.07-1.27,16-3.19,24.09-4.29a55.68,55.68,0,0,1,9.39-.76c3.79,0,7.59.14,11.38.28a67,67,0,0,0,17.22-1.71c5.68-1.42,11.13-3.6,16.8-5,9.31-2.38,18.78-.88,28.15.35l-1.13-.19c7.68,1.4,15.33,2.94,23,4.49A202.88,202.88,0,0,0,440,40.62a163.45,163.45,0,0,0,19.42.47c14.08-.44,28.17-1.85,42.18-3.18,24.9-2.37,49.79-5.23,74.8-6.35,13.56-.61,27.12-.67,40.67,0s27.32,2,41,3c24.64,1.79,49.34,3.29,74.06,2.74,21.24-.48,42.43-2.22,63.67-2.92,11.54-.39,23.07-.31,34.59.4,11.23.69,22.25,2.34,33.39,3.94,8.62,1.25,17.26,2.45,25.91,3.47,13.51,1.59,27,2.33,40.56,2.85A5.89,5.89,0,0,0,928,41.61Q922.7,36.1,917.2,30.84T906.09,20.41a5.86,5.86,0,0,0-3.52-2.16c-13.51-.72-26.94-1.64-40.41-3s-26.81-3.07-40.24-4.2c-11.64-1-23.26-1.52-34.95-1.55s-23.28.32-34.92.74c-14,.5-28,1.22-42,1.57-15.89.4-31.78,0-47.67-.67-27.92-1.23-55.82-3.57-83.78-3.91-32.91-.41-65.73,3.17-98.52,5.49C457.53,14.32,434.78,16,412.18,14c-19-1.6-37.93-5.41-57.1-4.89a123.88,123.88,0,0,0-17.43,1.4c-4.94.85-9.89,1.68-14.84,2.4-4.43.65-8.93,1-13.39,1.3a84.39,84.39,0,0,0-9,.54q-4.79.45-9.56,1-7.59.55-15.2,1a88.79,88.79,0,0,1-16.54-.62,78.79,78.79,0,0,0-8.25-.76l-5.65-1c-4.73-.93-9.31-2.55-14-3.74a90.38,90.38,0,0,0-14.69-2.68A184.15,184.15,0,0,0,194,7.38c-16.94.57-33.71,3-50.61,4.22a243.48,243.48,0,0,1-27.14,1c-6.13-.25-12.25-.76-18.37-1.23C83.71,10.23,69.42,9,55.17,9.7a164.87,164.87,0,0,0-22.7,2.83l-7,1.37A41,41,0,0,0,13.27,17a6,6,0,0,0,3.52,2.21q7.11,2.86,14.32,5.4t14.48,5A6,6,0,0,0,49.72,30.13Z"/>
    <path class="cls-1" d="M53.59,23.89q5.59-1.26,11.16-2.65a34,34,0,0,1,21.14.85c8.24,1.49,16.38,3.7,24.51,5.67,5.78,1.39,11.58,2.7,17.42,3.79a129.48,129.48,0,0,0,21.41,2.5c12.84.22,25.55-1.65,38.22-3.46q9.33-1.48,18.73-2.42a146.1,146.1,0,0,1,18.21-1.49l8.79.14A24.51,24.51,0,0,1,250,31.94a31.19,31.19,0,0,1,11.51,6.81l.71.49a23.77,23.77,0,0,0,8.8,3.38l6.51.28a65.16,65.16,0,0,0,10.71-1.21c6.21-1,12.29-2.61,18.42-4a65.24,65.24,0,0,1,13.1-2.14,36.19,36.19,0,0,1,11.61-.35,106.58,106.58,0,0,0,11.31.35,53.92,53.92,0,0,0,12-1.91c2.94-.89,5.86-1.86,8.75-2.89s5.67-2,8.54-2.82l9.75-1.16a80.4,80.4,0,0,1,13.14,1.43c7.2,1.18,14.27,2.9,21.38,4.54,8.79,2,17.82,4.09,26.83,4.86a134,134,0,0,0,15.12.46c13-.32,26-1.61,39-2.82,22.14-2.07,44.23-5,66.43-6.43,13.62-.9,27.22-1.51,40.87-1.36s27,1.29,40.47,2.43c30.08,2.54,60.25,4.85,90.46,4.11,16.6-.41,33.14-1.71,49.72-2.5,11.64-.55,23.26-.93,34.91-.7q10.26,0,20.47,1.07L854,33.56c12.93,1.79,25.73,4.22,38.72,5.68L905.8,40.6q13.71,1.23,27.48,1.44c.81,0,1.5-.45,1.16-1.36s-2.42-2.79-3.32-2.83c-13.62-.47-27.06-1.22-40.61-2.79-13.07-1.51-26-3.85-39-5.62a294.94,294.94,0,0,0-40.94-2.86c-11.69.06-23.37.57-35,1.22Q750.76,29.23,726,30l-16.86-.15c-16.74-.31-33.47-1.5-50.16-2.74-16.35-1.22-32.7-3.07-49.08-3.62a453.06,453.06,0,0,0-49,1.28c-25.27,1.89-50.44,4.93-75.68,7.13q-12.68,1.2-25.4,1.89l-18.88-.36c-9.17-.69-18.22-2.82-27.18-4.77-8.66-1.89-17.44-4.19-26.28-5.08-6.67-.68-13.33-1.12-19.89.67-4.7,1.28-9.27,3.09-13.92,4.54A61.22,61.22,0,0,1,345.12,31a64.66,64.66,0,0,1-13.62.27c-2.75-.19-5.5-.34-8.26-.47l-6.09.34a98.59,98.59,0,0,0-13.9,2.44c-7.05,1.56-14.13,3.61-21.33,4.35l-6.8.53A18.35,18.35,0,0,1,261.48,35a20.72,20.72,0,0,1-5.51-3.9c-.7-.58-1.42-1.14-2.16-1.67a36.11,36.11,0,0,0-6-3.69,20.26,20.26,0,0,0-9-2l-8.54-.82c-8.95-.62-18.36.21-27.24,1.24-6.54.76-13,1.71-19.53,2.62L174,28a128.24,128.24,0,0,1-18.36,1.55,74,74,0,0,1-16.09,0q-5.44-.48-10.83-1.38c-6-.94-12-2.13-18-3.39-9.32-2-18.6-4.37-28-5.83a91.27,91.27,0,0,0-13.87-1.37l-6.76.23a47.58,47.58,0,0,1-14.64,3.36c-1.19.21-1.22,1.21-.27,1.77a15.75,15.75,0,0,0,3.18.72A16.83,16.83,0,0,0,53.59,23.89Z"/>
    <path class="cls-1" d="M53.94,41a84.72,84.72,0,0,0,10.58-2.38,18.28,18.28,0,0,1,9.29-.84l19.66,3.16q6.68,1.58,13.31,3.22c11.47,2.77,23,5.32,34.73,6.53C159.76,52.56,178,48.9,196,46.51c7.78-1,15.55-2,23.39-2.37a103.31,103.31,0,0,1,21.67.69,25.7,25.7,0,0,1,15.17,6.72,63.7,63.7,0,0,0,5.39,4.32,25,25,0,0,0,14.55,3.9c7.63-.07,15.08-1.66,22.5-3.28,6.82-1.48,13.58-3.23,20.52-4,5.76-.68,11.25.09,17,.23a63.57,63.57,0,0,0,11.86-.52,63.13,63.13,0,0,0,9.17-2.32c4.67-1.45,9.24-3.24,14-4.52,6.2-1.69,12.71-1.46,19-.63,16.07,2.09,31.56,7.15,47.61,9.33A103,103,0,0,0,452,55.26l10-.2q12.82-.66,25.6-1.88Q500.3,52.11,513,50.74c30.27-3.08,60.55-6.42,91-6.12,13.52.14,26.93,1.25,40.39,2.37,16.52,1.38,33.08,2.78,49.64,3.51,15.94.69,31.9,1.07,47.85.45,11.87-.46,23.74-1.22,35.6-1.89,11.7-.66,23.41-1.18,35.13-1.24a276.43,276.43,0,0,1,40.65,2.82C866.2,52.46,879,54.81,892,56.27l13.11,1.37q13.7,1.24,27.47,1.48c2,.07-.23-2.81-.47-3.17q-1.56-2.16-3.31-4.19a4.89,4.89,0,0,0-2.15-1.83q-13.74-.33-27.44-1.55-9.81-.85-19.56-2.14t-19.32-2.59q-13.12-2.09-26.36-3.35c-28-2.12-55.86,0-83.79,1.31-15.1.7-30.17.94-45.28.64C685.41,41.86,666,40.44,646.61,39c-18.91-1.42-37.77-3.06-56.75-2.7-16.48.32-32.91,1.4-49.32,2.81-16.83,1.45-33.62,3.27-50.45,4.7-14.6,1.24-29.31,2.65-44,2.38C435.36,46,424.69,44.06,414.18,42c-9.92-1.94-19.92-4.39-30-5.12-6.4-.46-12.6-.55-18.9.88Q358,39.9,350.63,41.56a42.43,42.43,0,0,1-14.74,2.56c-5.51.17-11-.39-16.5-.4-9.27,0-18.62,2.33-27.67,4l.59-.1-8.1,1.3.6-.08-7.73.72.6-.05c-4.28,0-8.7.17-12.92-.68a30.38,30.38,0,0,1-9.62-4.34c-2.65-1.68-5.19-3.5-8-5-3.78-2-8-2.57-12.15-3.08a116,116,0,0,0-17.18-.63c-14.18.39-28.28,2.65-42.32,4.42-12,1.52-24.16,2.8-36.31,2.07a263.27,263.27,0,0,1-31.48-4.24c-9-1.64-17.92-3.55-27-4.83a87.14,87.14,0,0,0-16.69-.9,7.63,7.63,0,0,0-5.67,1.3,17.15,17.15,0,0,1-11.86,1.88.68.68,0,0,0-.52.92,3.63,3.63,0,0,0,1.74,1.63q1.89,1.2,3.89,2.21A3.53,3.53,0,0,0,53.94,41Z"/>
    <path class="cls-1" d="M47.17,31.65a19.18,19.18,0,0,1,9.1-3,48,48,0,0,1,9.87-.8l-1.24,0a152.75,152.75,0,0,1,20.36,1.79c6.28,1,12.52,2.24,18.76,3.49,6,1.19,11.91,2.35,17.9,3.35a152.82,152.82,0,0,0,21.64,2.35c15.75.3,31.35-2.33,46.91-4.38,9.17-1.2,18.58-2.42,27.85-2.53l8.87.06a86.61,86.61,0,0,1,16.73,2.23l-1.2-.41,3.9,1.72,3.48,2.25c2.26,1.54,4.42,3.23,6.78,4.61a35,35,0,0,0,5,2.55,31.39,31.39,0,0,0,10.87,1.74,80.6,80.6,0,0,0,13.68-1.45c4.65-.77,9.25-1.78,13.87-2.67,4.39-.84,8.83-1.74,13.28-2.14a97.6,97.6,0,0,1,11.85-.16c3.75.1,7.53.36,11.29.19a56.46,56.46,0,0,0,11.56-1.74c7.33-1.87,14.39-5.24,22-6.14a68.33,68.33,0,0,1,14.08.28c5.9.56,11.78,1.66,17.58,2.79,13.56,2.66,26.92,5.83,40.75,6.72A183.43,183.43,0,0,0,465.79,42c11.24-.7,22.46-1.63,33.67-2.7,22.16-2.11,44.29-4.54,66.51-5.86,10.9-.65,21.78-1,32.7-.92s21.68.7,32.51,1.55c22.14,1.75,44.28,3.53,66.48,4.34,10.78.39,21.55.57,32.33.32,9.46-.21,18.91-.68,28.36-1.21,18.7-1,37.4-2.17,56.13-1.85a268.63,268.63,0,0,1,27.33,1.76c8.8,1,17.55,2.43,26.33,3.67s17.34,2.34,26.05,3.23c11.33,1.16,22.6,1.74,34,2.17a7.53,7.53,0,0,0-2.46-4q-5.67-6.63-11.58-13T902.21,16.75a7.55,7.55,0,0,0-3.78-2.81C884.92,13.22,871.48,12.29,858,11s-27-2.93-40.45-4c-11.68-.92-23.34-1.43-35.06-1.45s-23.27.32-34.91.71c-14,.48-27.94,1.15-41.92,1.49-15.9.39-31.79,0-47.67-.66-28-1.2-56-3.39-84-3.67-32.88-.32-65.65,3.17-98.41,5.32-22.5,1.48-45.13,2.9-67.64,1.1C388.73,8.3,369.62,5,350.26,5.6A139.07,139.07,0,0,0,332.84,7c-4.85.78-9.72,1.48-14.6,2.13-4.42.6-8.91.9-13.37,1.24q-4.56.07-9.08.59-4.85.45-9.67,1c-5,.31-9.94.49-14.9.61a91.4,91.4,0,0,1-15.85-1.05,55.43,55.43,0,0,0-8.14-.81l-5.64-1c-4.85-.91-9.57-2.36-14.41-3.39A107.5,107.5,0,0,0,212,4a220,220,0,0,0-22.68-.38c-16.88.62-33.62,2.87-50.46,4a264,264,0,0,1-27.12.93c-6.16-.22-12.33-.67-18.48-1C78.84,6.66,64.32,5.83,49.87,7a199.45,199.45,0,0,0-22.94,3.39l-7,1.39A32.54,32.54,0,0,0,8.11,14.9a7,7,0,0,0,3.74,2.58Q19.46,21,27.19,24.32t15.54,6.4A7,7,0,0,0,47.17,31.65Z"/>
    <path class="cls-1" d="M47.3,27l5.81-2.44-1.18.21a50.13,50.13,0,0,1,9.75-1.23,63.17,63.17,0,0,1,9.92-.07A170.58,170.58,0,0,1,92,26.07c13.42,2.33,26.77,5.17,40.32,6.63a144.94,144.94,0,0,0,19.87.78c9.43-.27,19-1.68,28.33-2.9s18.82-2.66,28.29-3.3l9.11-.49a114.93,114.93,0,0,1,17.4.72l-1.16-.2,9.32,1.63-1.14-.23a27.32,27.32,0,0,1,7.34,3.78c1.64,1.19,3.32,2.31,5.05,3.34a34.34,34.34,0,0,0,9,4c7.24,2,14.89,1,22.2-.12,6.92-1.06,13.76-2.56,20.67-3.61A103.76,103.76,0,0,1,325,35.05c5.77.12,11.49.34,17.23-.4s11.35-2.84,16.93-4.52a68.19,68.19,0,0,1,10.76-2.56,72.62,72.62,0,0,1,14.06.21l-1.17-.14,10,1.24-1.16-.17,9.89,1.71-1.15-.21C414.25,33,428.09,36,442.23,37c10.51.69,21-.08,31.53-.8,11.23-.78,22.43-1.84,33.64-2.89,27.48-2.6,55.07-5.82,82.71-6q16.23-.11,32.42.91c13.75.88,27.48,2.14,41.23,3.09,24.22,1.67,48.56,2.89,72.84,2,21.19-.79,42.33-2.47,63.54-2.84,9.23-.17,18.42-.05,27.63.5,11.23.68,22.3,2.29,33.42,3.88,8.64,1.23,17.28,2.4,25.95,3.41,13.51,1.58,27,2.33,40.55,2.85a6.24,6.24,0,0,0-2.46-3.47q-5.6-5.51-11.41-10.78T902.1,16.39a6.27,6.27,0,0,0-3.67-2.16c-13.51-.73-27-1.66-40.43-3s-26.93-2.92-40.43-4c-11.67-.91-23.32-1.4-35-1.42s-23.27.33-34.9.72c-14,.48-27.93,1.15-41.9,1.48-15.89.37-31.78,0-47.66-.7-28-1.2-56-3.39-84-3.64-32.88-.3-65.65,3.2-98.41,5.35-22.53,1.48-45.19,2.85-67.73,1-19.19-1.55-38.28-4.85-57.61-4.16A140.54,140.54,0,0,0,333,7.31c-4.88.78-9.77,1.45-14.66,2.1-4.42.6-8.9.89-13.35,1.24q-4.51.07-9,.59-4.77.45-9.54,1c-5,.32-10,.51-15,.62a90.58,90.58,0,0,1-16.11-1.15,58.92,58.92,0,0,0-8.18-.85l-5.65-1c-4.84-.92-9.55-2.34-14.38-3.35a107.41,107.41,0,0,0-15-2.17A219.42,219.42,0,0,0,189.43,4c-16.88.64-33.62,2.91-50.47,4a263.42,263.42,0,0,1-27.09.85c-6.18-.23-12.35-.69-18.52-1.08C78.94,6.86,64.44,6,50,7.14a185.9,185.9,0,0,0-22.89,3.45l-7.08,1.48A35.74,35.74,0,0,0,8,15.38a6.54,6.54,0,0,0,3.86,2.08Q19.55,20,27.33,22.29t15.6,4.38A6.62,6.62,0,0,0,47.3,27Z"/>
    <path class="cls-1" d="M49.58,35.3a49.48,49.48,0,0,1,12-2.82l6.61-.31c6.66-.11,13.51,1,20,2.22,14,2.6,27.8,6.43,42,8.29a141.88,141.88,0,0,0,15.12,1.43,186.25,186.25,0,0,0,27.91-1.85c8-1,15.91-2.22,23.88-3.23q7-1,14.06-1.52a145.46,145.46,0,0,1,18-.42l-.82,0a84.56,84.56,0,0,1,16.62,2.25,25.62,25.62,0,0,1,7.17,4.12c3.29,2.48,6.39,5.33,10.31,6.85,11.43,4.43,24.34,1,35.86-1.41,7.65-1.61,15.35-3.41,23.21-3.48,5.71-.05,11.42.51,17.12.29a66.34,66.34,0,0,0,17.27-3.44q5.55-1.95,11.2-3.52a35,35,0,0,1,10.43-1.39l-.81,0A157,157,0,0,1,394.38,39c5.81,1,11.57,2.32,17.33,3.55,10.8,2.31,21.54,4.46,32.57,5.2a178.29,178.29,0,0,0,23.11-.39c11.28-.71,22.54-1.68,33.79-2.78,24.91-2.45,49.85-5.49,74.88-6.5,10.84-.43,21.73-.7,32.59-.36s21.67,1.33,32.49,2.21c22.15,1.79,44.34,3.55,66.57,4.08s44.36-.79,66.54-2c9.37-.52,18.74-.94,28.12-1.11q6.95-.25,13.88,0,10.31,0,20.55,1l-.82-.1,14.27,1.73-.82-.12c13.21,2,26.44,4.18,39.73,5.68l13.13,1.36q13.68,1.24,27.41,1.5a2.9,2.9,0,0,0-1-2.54c-1.94-2.58-4-5.09-6.09-7.54s-4.23-4.89-6.46-7.23a2.93,2.93,0,0,0-2.35-1.38c-9.08-.44-18.13-.93-27.19-1.69-11-.92-21.88-2.27-32.79-3.6-8.93-1.09-17.85-2.22-26.81-3-9.21-.82-18.41-1.2-27.66-1.25-21.06-.14-42.09,1.17-63.12,2-9.47.39-19,.78-28.42.81-14,0-28-.59-41.93-1.32-22.14-1.16-44.25-3.11-66.4-3.84-24.69-.83-49.33.68-73.93,2.67-22.11,1.79-44.18,4-66.34,5.13a241.1,241.1,0,0,1-30.88.14c-7.77-.59-15.42-1.69-23.12-2.82l.81.12c-14-2.22-27.85-4.62-42-4.24a55.22,55.22,0,0,0-10,.76q-5.3,1-10.56,2.17a125.41,125.41,0,0,1-15.66,2.62c-6,.54-12,.49-18,1-6.42.54-12.83,1.12-19.23,1.89a133.38,133.38,0,0,1-18.92,1.38q-5.62-.36-11.25-.66a37.67,37.67,0,0,1-10.12-2.25l.79.28c-6.85-2.86-13.8-6.42-21.22-7.46a142.67,142.67,0,0,0-27.25-1c-14.05.73-28,2.66-42,4.12-7.67.8-15.38,1.48-23.1,1.66a197,197,0,0,1-23.29-1.14l.81.08c-14.54-1.65-29.09-4.16-43.72-4.8a117.29,117.29,0,0,0-21.36.76C43.43,22.61,37,24,30.57,25.22c-.67.13-.95.29-.47,1l1.39,1.1c1.77,1.05,3.57,2,5.42,2.94,2.82,1.44,5.65,2.86,8.55,4.13C46.75,34.91,48.17,35.73,49.58,35.3Z"/>
    <path class="cls-1" d="M56.57,27.83a44.26,44.26,0,0,1,21.21-3.09,62.71,62.71,0,0,1,10,1.2c5.71,1,11.37,2.4,17,3.77,13,3.16,26.22,6.54,39.62,7.72,30.56,2.69,60.37-8,90.94-6.73q12-1.87,20.2,5.5a48.63,48.63,0,0,1,5.58,4.08A28.21,28.21,0,0,0,268.5,45a36.21,36.21,0,0,0,4.8,1.53l6.42.33a62.64,62.64,0,0,0,10.59-1.17,111,111,0,0,0,11-2.23c5.81-1.35,11.58-2.79,17.48-3.73a49.29,49.29,0,0,1,9.39-.89l5.55.24c5.54.28,11.41.86,16.92-.11A96.09,96.09,0,0,0,365,34.9c4.44-1.53,9.05-3.32,13.74-3.86l21.83,1.52q6.5,1.27,12.94,2.81c13.62,3.16,27.54,6.62,41.6,6.74,11.83.1,23.64-1.07,35.4-2.12,14.07-1.26,28.1-2.78,42.14-4.21,30-3.07,60.12-5.63,90.29-3.9,13.65.79,27.24,2.13,40.86,3.22,16.64,1.33,33.39,2.5,50.08,2.81q15.51.3,31-.17c14.21-.45,28.38-1.63,42.58-2.31,11.64-.56,23.26-1,34.91-.74q10.29,0,20.52,1l13.41,1.69c13,1.79,25.81,4.24,38.82,5.73l13.13,1.38Q922,45.75,935.73,46c1.91.07-.62-2.6-.68-2.65a37.53,37.53,0,0,0-3.28-2.77,3.36,3.36,0,0,0-2.06-1Q916,39.27,902.34,38l-13.17-1.37C876,35.19,863,32.86,849.87,31.1a293.25,293.25,0,0,0-41.25-2.62c-14,.1-28,.86-42,1.63s-28.17,1.69-42.27,1.7-28-.49-42-1.29c-16.66-.94-33.28-2.31-49.92-3.62-13.61-1.08-27.19-1.68-40.84-1.59-33.16.22-66.16,4.79-99.13,7.79q-12.57,1.24-25.17,2-9.08.78-18.17.66c-12.22-.33-24.22-2.77-36.13-5.28-10.75-2.26-21.41-4.7-32.42-5a39,39,0,0,0-9.83.38,45.16,45.16,0,0,0-7.87,1.91c-5.41,1.64-10.72,3.51-16.27,4.65a64.2,64.2,0,0,1-14.05.91c-3.71-.18-7.41-.32-11.12-.42l-6.07.44c-6.69.67-13.35,2.54-19.9,4s-13.52,2.93-20.24,2.83l-6.26-.32a25.48,25.48,0,0,1-11.18-5.71A46.06,46.06,0,0,0,250.3,29l-4.22-1.93-4.62-.82a101.13,101.13,0,0,0-17.81-1.47c-17.18,0-34.11,3.1-51.1,5.26a183.07,183.07,0,0,1-27.48,1.72,149.51,149.51,0,0,1-20.89-2.32c-7.34-1.24-14.61-2.85-21.89-4.37s-14.43-3.17-21.75-4a82.49,82.49,0,0,0-17.84-.34C57,21.33,51.57,22.84,46,24.21a.6.6,0,0,0-.25,1,5.08,5.08,0,0,0,2.63,1.19q2.64.75,5.31,1.28A5.18,5.18,0,0,0,56.57,27.83Z"/>
    <path class="cls-1" d="M49.94,36A30.77,30.77,0,0,1,62.4,32.69l-1,.08a59.07,59.07,0,0,1,10-.15,74.29,74.29,0,0,1,10.1.88c6.94.94,13.84,2.42,20.7,3.86,13.35,2.8,26.67,5.78,40.31,6.72,17,1.16,33.81-2,50.56-4.23,9.24-1.2,18.55-2.47,27.89-2.58l8.85.08a84.48,84.48,0,0,1,16.68,2.3l-1-.32,3.85,1.8,3.41,2.31c2.21,1.59,4.28,3.42,6.63,4.79a38.41,38.41,0,0,0,4.85,2.51,29.59,29.59,0,0,0,10.83,1.79A79,79,0,0,0,288.64,51c4.69-.81,9.33-1.86,14-2.81A131.74,131.74,0,0,1,316,45.93a96.44,96.44,0,0,1,11.9-.22c3.76.1,7.55.37,11.31.2a55.25,55.25,0,0,0,11.57-1.76c7.37-1.93,14.45-5.4,22.07-6.33a65.71,65.71,0,0,1,14.09.29A175.65,175.65,0,0,1,404.48,41c13.5,2.76,26.79,6,40.59,6.93a178.13,178.13,0,0,0,23.1-.39c11.26-.72,22.49-1.68,33.72-2.77,22.18-2.16,44.33-4.63,66.58-6,10.9-.65,21.79-1,32.71-.91s21.65.72,32.47,1.6c22.12,1.79,44.23,3.61,66.41,4.42,10.78.4,21.56.57,32.34.32,9.47-.22,18.93-.7,28.39-1.24C779.5,42,798.2,40.8,817,41.13a262.48,262.48,0,0,1,27.3,1.8C853,44,861.77,45.4,870.53,46.67s17.31,2.38,26,3.28c11.32,1.17,22.59,1.75,34,2.17a5.52,5.52,0,0,0-1.86-3.53q-4.56-5.75-9.38-11.28t-9.75-11A5.51,5.51,0,0,0,906.31,24c-13.49-.71-26.9-1.61-40.34-3s-26.67-3.17-40-4.35c-11.6-1-23.18-1.6-34.83-1.64s-23.31.32-35,.76c-14,.52-28.09,1.27-42.13,1.65-15.92.43-31.83.08-47.74-.64-27.82-1.26-55.62-3.71-83.48-4.11-33-.48-65.87,3.18-98.71,5.6-22.6,1.66-45.43,3.47-68.07,1.49-18.78-1.64-37.44-5.84-56.37-5.44a111.13,111.13,0,0,0-17.48,1.46c-5,.92-10.07,1.87-15.13,2.64-4.46.67-9,1-13.51,1.31a72.71,72.71,0,0,0-9.09.54c-3.28.32-6.55.67-9.83,1-10.71.87-21.53,2.2-32.25.85-4.65-.58-9.29-.76-13.9-1.72s-9-2.72-13.46-4a78.18,78.18,0,0,0-14.28-3,166.92,166.92,0,0,0-22.36-.68c-17,.55-33.88,3.09-50.85,4.39-9,.7-18.19,1.43-27.26,1-6-.27-12.07-.82-18.09-1.36C88.3,15.52,74.38,14,60.44,14.29a151.63,151.63,0,0,0-22.19,2.2L31.4,17.72a44.1,44.1,0,0,0-11.71,2.75,4.83,4.83,0,0,0,2.76,2.42q5.85,3.32,11.85,6.34t12.06,5.92A4.8,4.8,0,0,0,49.94,36Z"/>
    <path class="cls-1" d="M46.6,29.22a25.88,25.88,0,0,1,12.29-3.47l-1.21.13A83.07,83.07,0,0,1,71,25.65l6.75.58c7,.71,13.92,2.07,20.79,3.34,12.28,2.27,24.57,5,37.05,6a144.75,144.75,0,0,0,25.58-.29c9.54-.92,19-2.35,28.52-3.55,7.75-1,15.49-1.87,23.3-2.28a115.55,115.55,0,0,1,13.42-.2,88.11,88.11,0,0,1,16.73,2.17L242,31.05l3.9,1.68,3.48,2.19c2.26,1.49,4.41,3.24,6.81,4.5a48.29,48.29,0,0,0,5,2.43A32.32,32.32,0,0,0,272,43.6a83.27,83.27,0,0,0,13.63-1.35c4.64-.72,9.23-1.67,13.84-2.53,4.4-.81,8.83-1.68,13.29-2.08a106.61,106.61,0,0,1,11.86-.19c3.75.1,7.54.33,11.29.16a58.64,58.64,0,0,0,11.57-1.7c7.34-1.83,14.42-5.13,22-6a69,69,0,0,1,14.08.24c5.89.53,11.76,1.59,17.57,2.7,13.56,2.59,26.93,5.72,40.75,6.61A185.2,185.2,0,0,0,465,39.11c11.24-.68,22.45-1.59,33.66-2.65,22.16-2.08,44.29-4.49,66.51-5.81,10.91-.65,21.79-1,32.71-.93s21.68.68,32.51,1.52c22.14,1.72,44.28,3.49,66.47,4.29,10.78.39,21.55.57,32.33.33,9.47-.21,18.92-.67,28.37-1.19,18.7-1,37.4-2.14,56.13-1.84,9.15.15,18.23.67,27.33,1.73,8.8,1,17.56,2.39,26.34,3.63s17.34,2.31,26,3.2c11.32,1.15,22.6,1.74,34,2.17A6.76,6.76,0,0,0,925,39.83Q919.41,33.77,913.63,28T902,16.4a6.66,6.66,0,0,0-3.69-2.48c-13.51-.73-26.95-1.66-40.42-3s-27-2.91-40.45-4c-11.68-.91-23.34-1.41-35-1.43s-23.27.32-34.91.71c-14,.48-27.94,1.15-41.91,1.49-15.89.37-31.78,0-47.66-.68-28-1.2-56-3.39-84-3.65C541,3.11,508.23,6.6,475.47,8.75,453,10.22,430.32,11.61,407.81,9.8,388.58,8.26,369.48,5,350.13,5.63A140.52,140.52,0,0,0,332.72,7c-4.87.78-9.75,1.46-14.62,2.11-4.42.6-8.91.9-13.36,1.24-3,.06-6.05.25-9.05.59-3.21.3-6.41.62-9.62,1-5,.31-9.94.49-14.91.6a91.32,91.32,0,0,1-15.93-1.12,57.27,57.27,0,0,0-8.16-.83l-5.64-1c-4.86-.92-9.58-2.35-14.42-3.36A108.48,108.48,0,0,0,211.87,4a219.77,219.77,0,0,0-22.67-.35c-16.87.63-33.61,2.88-50.45,4a266.8,266.8,0,0,1-27.11.9c-6.17-.22-12.34-.68-18.51-1.06C78.7,6.62,64.18,5.8,49.74,6.94a192.61,192.61,0,0,0-22.92,3.45l-7,1.43a33.3,33.3,0,0,0-11.9,3.24,6.65,6.65,0,0,0,3.75,2.33q7.56,3.06,15.22,5.82t15.39,5.37A6.6,6.6,0,0,0,46.6,29.22Z"/>
    <path class="cls-1" d="M51.44,33.69l6.13-2.31-1,.16a45.27,45.27,0,0,1,9.63-1.15,58,58,0,0,1,10,.1A169.24,169.24,0,0,1,96.53,33.6c13.28,2.66,26.48,5.74,39.95,7.31a135.49,135.49,0,0,0,19.83.83c9.45-.28,19-1.75,28.38-3S203.53,36,213,35.3l9.12-.48a109.62,109.62,0,0,1,17.37.8l-1-.18,9.15,1.7-1-.21a26,26,0,0,1,7.22,4q2.37,1.91,4.9,3.57a30.44,30.44,0,0,0,8.76,4.18c7.22,2.1,15,1,22.27-.27,7-1.2,13.92-2.87,20.93-4a96,96,0,0,1,18.47-1.18c5.76.14,11.49.4,17.23-.35s11.39-3,17-4.77a66,66,0,0,1,10.81-2.69,68.33,68.33,0,0,1,14.08.25l-1-.12,9.81,1.33-1-.16,9.7,1.82-1-.2c13.76,2.92,27.48,6.15,41.55,7.07,10.52.7,21.06-.13,31.57-.89,11.25-.82,22.47-1.93,33.7-3,13.89-1.36,27.77-2.81,41.68-4,13.65-1.12,27.38-2.1,41.09-2.16q16.22-.08,32.39,1c13.73.92,27.44,2.24,41.17,3.21,24.22,1.72,48.56,3,72.84,2,21.2-.82,42.36-2.56,63.58-2.94,9.23-.17,18.41,0,27.62.54,11.22.7,22.25,2.37,33.36,4,8.61,1.28,17.24,2.49,25.88,3.52,13.51,1.62,27,2.35,40.55,2.86a4.8,4.8,0,0,0-1.83-3.19q-4.46-5.06-9.17-9.88T911.2,27A4.79,4.79,0,0,0,908.08,25c-13.5-.7-26.91-1.61-40.35-3s-26.63-3.23-40-4.45C816.17,16.49,804.6,15.9,793,15.86s-23.3.33-35,.77c-14,.54-28.07,1.3-42.12,1.69-15.92.43-31.82.09-47.72-.65-27.81-1.28-55.6-3.79-83.44-4.22-33-.51-65.88,3.19-98.72,5.68-22.64,1.72-45.51,3.62-68.18,1.59C399.08,19,380.47,14.62,361.57,15a106.36,106.36,0,0,0-17.47,1.48c-5.06,1-10.11,2-15.19,2.76-4.46.7-9,1.05-13.49,1.35a69.65,69.65,0,0,0-9,.52q-4.86.48-9.72,1c-10.84.93-21.78,2.48-32.64,1.22-4.69-.54-9.34-.72-14-1.7s-8.94-2.83-13.35-4.22a74.21,74.21,0,0,0-14.13-3.23,158.41,158.41,0,0,0-22.32-.74c-17,.53-33.89,3.14-50.87,4.48-9,.72-18.18,1.46-27.25,1-6-.28-12.08-.86-18.1-1.44-13.83-1.32-27.72-3-41.64-2.89a139.82,139.82,0,0,0-22.19,2L33.3,17.84a48,48,0,0,0-11.94,2.79,4.55,4.55,0,0,0,2.79,2.19Q30,25.66,36,28.2t12,4.94A4.53,4.53,0,0,0,51.44,33.69Z"/>
    <path class="cls-1" d="M55.89,42.65q5.24-1.09,10.39-2.48a19.2,19.2,0,0,1,9.35-.81l19.66,3.16q5,1.18,10.07,2.46c12.6,3.14,25.35,6.41,38.33,7.5a128.06,128.06,0,0,0,20.91,0c8-.63,16-1.75,24-2.87,16.7-2.35,33.6-5.1,50.5-3.41a33.13,33.13,0,0,1,17.82,6l2.92,2.57a29.71,29.71,0,0,0,7.59,5.07c8.26,3.2,17.56,1.54,26,0,9.29-1.7,18.6-5,28-5.7a103.27,103.27,0,0,1,14.29.12,72,72,0,0,0,8.31.21L350,54a89.15,89.15,0,0,0,12.43-3.37c6.1-2.07,12.15-4.51,18.66-4.79,6.7-.29,13.33.82,19.9,2,8.59,1.56,17,4,25.58,5.7a170.87,170.87,0,0,0,22.86,3.22c10.63.67,21.25-.28,31.85-1.07,17-1.26,33.89-3.26,50.82-4.94,27.36-2.71,54.73-5,82.25-4.28,16.25.43,32.53,2.43,48.72,3.65,13.87,1.06,27.73,2,41.63,2.47,13.16.48,26.29.55,39.45.13,14.25-.45,28.47-1.63,42.7-2.3,11.64-.55,23.26-.94,34.91-.71q10.24,0,20.44,1l13.33,1.69c12.91,1.77,25.68,4.19,38.64,5.65l13.12,1.37q13.71,1.23,27.48,1.46c1.95.07-.1-2.72-.37-3.13-1-1.44-2-2.83-3.15-4.17a4.77,4.77,0,0,0-2.07-1.84q-13.75-.3-27.46-1.51-13-1.17-26-2.92c-13.06-1.75-26.07-4.07-39.2-5.22-32.67-2.86-65.35,1-98,1.85s-65.06-1.3-97.53-3.76q-16.14-1.45-32.34-2.07-16.23-.39-32.46.39c-16.6.82-33.15,2.27-49.7,3.83C509.5,44,492.6,45.73,475.65,46.9q-13.48,1.2-27,1.14a115.05,115.05,0,0,1-14.13-1.17c-10.36-1.29-20.51-3.55-30.76-5.51Q397.4,40,391,39.23a88.44,88.44,0,0,0-13.21-1.14c-6.72.15-12.86,2-19.24,3.91a113.19,113.19,0,0,1-14.2,3.5,86.12,86.12,0,0,1-11.58.44c-5.69-.14-11.11-.69-16.82-.16-9.75.91-19.41,3.31-29.06,4.94l.6-.07-7.77.83.6,0-7.44.16h.61a24,24,0,0,1-10.71-1.94,37,37,0,0,1-9.5-5.73,40.91,40.91,0,0,0-4.12-2.56,24.5,24.5,0,0,0-11.6-3c-11.77-1.53-23.74-.63-35.49.63-12.8,1.38-25.51,3.55-38.34,4.7a157.46,157.46,0,0,1-32.63-.33c-9.44-1.11-18.76-3-28.08-4.83-9-1.77-18-3.7-27.12-4.44a67.27,67.27,0,0,0-13.31,0,23.62,23.62,0,0,1-14,3.12c-2,.21,1.19,2.55,1.18,2.55A43.2,43.2,0,0,0,53.62,42,3.57,3.57,0,0,0,55.89,42.65Z"/>
  </g>
</svg>
