<svg id="Layer_1" data-name="Layer 1" xmlns="http://www.w3.org/2000/svg" viewBox="0 0 1141.05 72.11">
  <defs>
    <style>
      .cls-1 {
        fill: #ec9cff;
      }

      .cls-2 {
        fill: none;
        stroke: #ec9cff;
        stroke-miterlimit: 10;
        stroke-width: 15px;
      }
    </style>
  </defs>
  <title>menustregweb</title>
  <g>
    <path class="cls-1" d="M385,31.17c-2.19,2.16-2.63,5-2.46,8,.17,3.13.13,6.26.13,9.39,0,6.44,10,6.45,10,0,0-2.51.08-5,0-7.54,0-.73-.11-1.46-.15-2.19-.07-1.42.48-1.49-.44-.59,4.59-4.53-2.48-11.6-7.07-7.07Z"/>
    <path class="cls-2" d="M7.72,60.5s-2.64-56,10.54-50-2.64,54,9.22,50,7.9-50,17.13-50-2.64,54,9.22,50,4-50,17.13-50,1.32,51,13.17,50,4-49,17.13-50-1.31,51,15.81,50,2.64-47,17.13-50-3.95,48,14.5,50,2.63-50,15.81-50,0,50,18.44,50-3.95-51,13.18-50,1.32,54,21.08,54c21.08,0-5.27-54,14.49-54s4,51,25,50-9.23-49,9.22-50,6.59,48,25,50-9.22-51,9.23-50,7.9,54,23.71,54c18.45,0-5.27-54,15.82-54s-1.32,54,14.49,51-3.95-51,17.13-51-6.59,51,15.81,50c18.41-.82-3.95-50,18.44-50s-6.86,42.93,21.09,50c15.81,4-5.27-49,10.54-50s6.58,50,25,50-11.86-53,9.22-50,7.91,53,25,50-5.27-46,10.54-50,3.95,44,17.13,50-2.64-46,13.17-50-2.63,48,11.86,50,4-46,21.08-50-1.32,51,10.54,50,9.23-49,21.08-50-2.63,50,13.18,50,0-44,13.18-50,2.63,48,21.08,50-4-47,13.17-50,5.27,50,25,50-7.91-50,10.54-50c13.24,0,5.27,48,19.76,50s-2.63-53,14.49-50-1.31,51,17.13,50-5.27-50,14.5-50,1.31,51,19.76,50-5.31-50,17.13-50c21.08,0-3.65,53,22.4,50,17.13-2-13.18-50,18.44-50,13.18,0-8.06,54,14.5,54,14.49,0,1.31-54,17.13-54s0,57,15.81,54,0-55,21.08-54-7.94,54,17.13,54c15.81,0,0-55,19.76-54s-6.59,54,19.76,54c15.81,0-5.59-60.08,18.45-54,15.81,4-7.91,54,18.45,54,18.44,0-9.27-57,13.17-57,19.77,0,4,53.39,18.45,54,23.71,1-1.17-50.14,18.44-52,21.09-2-5.16,51.81,21.09,50,14.49-1-10.55-48,18.44-49,13.23-.46-4,47,9.22,49s4-49,25-48c15.83.75-5.27,53-5.27,53"/>
    <path class="cls-1" d="M17.12,31.24c0,2.64.51,5.27.32,7.91a7.82,7.82,0,0,1-2.17,4.67,5,5,0,0,1-.74.66s-.11,0,.05,0c-.31,0,0,0,0,0a2.12,2.12,0,0,1,.43.28c.14.1-.11-.25,0,0a4,4,0,0,1-.15-.52,4.42,4.42,0,0,1-.13-1,43.64,43.64,0,0,1,.11-5.36c.17-3.18,1.36-6.15,1.77-9.29a1.5,1.5,0,0,0-1.5-1.5,1.54,1.54,0,0,0-1.5,1.5,50.74,50.74,0,0,1-1.17,5,25.21,25.21,0,0,0-.61,4.39,31.4,31.4,0,0,0,0,6.43,4.08,4.08,0,0,0,1,2.42,2.69,2.69,0,0,0,3.3.05,10.85,10.85,0,0,0,3.84-5.58c1-3.23.06-6.84,0-10.13a1.5,1.5,0,0,0-3,0Z"/>
    <path class="cls-1" d="M13.65,26.9c0,2.83.66,5.6.84,8.41.2,3,0,6,0,8.92a1.5,1.5,0,0,0,3,0c0-3,.17-6,0-8.92s-.82-5.58-.84-8.41a1.5,1.5,0,0,0-3,0Z"/>
    <path class="cls-1" d="M64.74,33c0,3,.08,6.08,0,9.11s-.73,6-.89,9.08c-.35,6.43,9.65,6.41,10,0,.16-3,.82-6,.89-9.08s0-6.07,0-9.11c0-6.44-10-6.45-10,0Z"/>
    <path class="cls-1" d="M95.93,27.77V46c0,6.44,10,6.45,10,0V27.77c0-6.43-10-6.45-10,0Z"/>
    <path class="cls-1" d="M121.52,51.16c0-5.19.47-10.52-1.18-15.52-1.52-4.6-2.45-8.87.5-13.14,3.66-5.31-5-10.32-8.63-5.05a21.27,21.27,0,0,0-3,15.6c.44,2.73,1.83,5.19,2.26,7.9.51,3.24.07,6.94.07,10.21,0,6.44,10,6.45,10,0Z"/>
    <path class="cls-1" d="M118.26,32.77c6.43,0,6.44-10,0-10s-6.45,10,0,10Z"/>
    <path class="cls-1" d="M154.45,53.76c0-11.32-.85-22.51-.87-33.79,0-6.43-10-6.44-10,0,0,11.29.85,22.46.87,33.79,0,6.44,10,6.45,10,0Z"/>
    <path class="cls-1" d="M187.37,54.63c0-4.63.13-9.33-.76-13.9s-2.76-8.15-2.71-13c.08-6.44-9.92-6.44-10,0-.05,4.62.85,8,2.24,12.34,1.5,4.7,1.25,9.65,1.23,14.52,0,6.43,10,6.44,10,0Z"/>
    <path class="cls-1" d="M222,57.23c.07-9.33-1.86-18.48-1.74-27.73.09-6.43-9.91-6.44-10,0-.12,9.28,1.81,18.39,1.74,27.73-.05,6.43,9.95,6.44,10,0Z"/>
    <path class="cls-1" d="M190.18,19c.66,1,.49,3.44.72,4.65.36,1.94.61,3.91.95,5.88.76,4.56,1.64,9.19,2,13.81.48,6.37,10.48,6.43,10,0-.41-5.56-1.54-11-2.34-16.5-.59-4.06-.39-9.39-2.67-12.89-3.5-5.37-12.17-.36-8.64,5.05Z"/>
    <path class="cls-1" d="M226.76,20.84c0,8.55,0,17.1,0,25.65,0,6.43,10,6.44,10,0a20.6,20.6,0,0,1,.9-6.34l-9.14,1.19c1.8,2.94,1.71,8.91,1.7,12.17h10V50.3c0-6.44-10-6.45-10,0v3.21c0,6.44,10,6.45,10,0,0-5.15-.29-12.68-3.07-17.22a5.06,5.06,0,0,0-9.14,1.2,31.06,31.06,0,0,0-1.25,9h10c0-8.55,0-17.1,0-25.65,0-6.44-10-6.45-10,0Z"/>
    <path class="cls-1" d="M261.41,19.11c.25,5.88,2.16,11.06,3.3,16.72.52,2.54.39,5.19.88,7.75.66,3.43,1.73,6.68,1.89,10.18.29,6.41,10.29,6.45,10,0-.28-6-2.07-11.92-2.69-17.94-.59-5.7-3.13-10.87-3.38-16.71-.27-6.42-10.27-6.45-10,0Z"/>
    <path class="cls-1" d="M260.15,54.63c.1-3.7.22-7.15-1.5-10.52A28.1,28.1,0,0,1,256,33.94c-.58-5.21,1.32-10.57-2.53-14.9-4.29-4.82-11.34,2.27-7.07,7.07-.21-.24-.53,3.29-.56,4.14a41.81,41.81,0,0,0,.81,8.34c.42,2.61.63,5.36,1.72,7.79a31.07,31.07,0,0,1,1.72,3.07c.47,1.54.08,3.61,0,5.18-.17,6.44,9.83,6.43,10,0Z"/>
    <path class="cls-1" d="M294.63,49.83c-.81-4-1-8.14-1.9-12.13-.85-3.71-2.21-6.9-2.26-10.8-.06-6.43-10.06-6.44-10,0,0,4.33,1.13,7.88,2.25,12,1.19,4.43,1.36,9.11,2.27,13.6,1.27,6.31,10.91,3.64,9.64-2.66Z"/>
    <path class="cls-1" d="M294.34,20c0,5.46.26,10.87,2.27,16,1.91,4.91,3.76,9.85,3.79,15.19,0,6.44,10,6.45,10,0,0-2.31-.71-4.45-.84-6.74a21.29,21.29,0,0,0-1.86-7.94A38.16,38.16,0,0,1,304.34,20c0-6.43-10-6.44-10,0Z"/>
    <path class="cls-1" d="M335.93,19.11V49.43c0,6.43,10,6.45,10,0V19.11c0-6.44-10-6.45-10,0Z"/>
    <path class="cls-1" d="M326.86,56.36c0-4.08,1-9.51-.33-13.46C326,41.22,324.74,40,324,38.4a19.8,19.8,0,0,1-1.5-6.82c-.13-2.13.07-4.27,0-6.41-.06-2.37.39-2.36-2.49-2.18-4.27.27-2.2-.3-1.59.9.31.61,1.13,1,1.53,1.56.85,1.2-.39-.25-.4-.38.2,2.35.77,4.68.75,7-.06,6.44,9.94,6.44,10,0,.05-5.41-.55-11.11-4.51-15-3.63-3.54-9.92-4.69-12.57.79-1.33,2.76-.74,5.92-.73,8.86a48.12,48.12,0,0,0,.85,11c.69,3,2.61,5.36,3.49,8.08.94,2.91,0,7.48,0,10.53,0,6.44,10,6.45,10,0Z"/>
    <path class="cls-1" d="M368,20.84c.09,10.32-2.85,20.06-2.6,30.32.17,6.43,10.17,6.45,10,0a35.81,35.81,0,0,1,.23-7.95,68.29,68.29,0,0,0,1.55-6.8A139.38,139.38,0,0,0,378,20.84c-.05-6.43-10.05-6.45-10,0Z"/>
    <path class="cls-1" d="M400.91,21.7V46.83c0,6.44,10,6.45,10,0V21.7c0-6.43-10-6.44-10,0Z"/>
    <path class="cls-1" d="M432.57,48.56a19.68,19.68,0,0,0-1.2-7c-.68-1.89-2.14-3.3-2.31-5.24-.38-4.51,1.24-8.26-2.29-12-4.4-4.71-11.46,2.37-7.07,7.08-.93-1-.18-.37-.33.68-.11.81-.09,1.66-.16,2.48a16.27,16.27,0,0,0,0,4.57c.7,3.5,3.42,5.78,3.33,9.52-.16,6.44,9.84,6.44,10,0Z"/>
    <path class="cls-1" d="M433,24.3a82.57,82.57,0,0,0,.73,8.62c.11,1,0,2.07.17,3.12s.87,2.12.83,3c-.3,6.44,9.7,6.42,10,0a10.51,10.51,0,0,0-.6-3.53,16.32,16.32,0,0,1-.42-3.24,77.67,77.67,0,0,1-.71-8c0-6.43-10-6.44-10,0Z"/>
    <path class="cls-1" d="M466.76,20.84c0,2.92-.15,5.9.07,8.81.2,2.59,1.37,4.87,1.65,7.4.23,2.16.11,4,.8,6.14.9,2.71.78,5,1,7.84.16,2,1.42,4.41,3.67,4.82a13.94,13.94,0,0,0,3.86.31c6.38-.48,6.43-10.49,0-10l-1.2.05L480.29,51c-.21-2.54.2-5.14-.33-7.66-.49-2.33-1.35-3.78-1.43-6.19s-.92-4.3-1.42-6.55c-.7-3.16-.35-6.56-.35-9.79,0-6.44-10-6.45-10,0Z"/>
    <path class="cls-1" d="M468.09,51.16c-.24-9.16-7.35-16.81-7.8-26-.31-6.41-10.31-6.44-10,0a37.83,37.83,0,0,0,3.28,13.09c1.55,3.75,4.41,8.84,4.52,12.9.17,6.43,10.17,6.45,10,0Z"/>
    <path class="cls-1" d="M501,48.56V27.77c0-6.43-10-6.45-10,0V48.56c0,6.44,10,6.45,10,0Z"/>
    <path class="cls-1" d="M569,20.84c-.08,5.73-1.67,11.18-2.52,16.82-.37,2.41-1.32,4.53-1.89,6.92-.28,1.12-.19,5.66-.78,6.43l9.14,1.2c-1-4.26.44-8.11.79-12.32C574,36.74,573,32.56,575,29.8L565.85,26a13.84,13.84,0,0,1-5.39,6.55,11,11,0,0,1-3.52,1.14L555,34c-.93,0-.75.3.55.77-.54-3,0-6.14.08-9.19.14-6.44-9.83-6.44-10,0a33.91,33.91,0,0,0,1.91,12.19c1.93,6.12,11.59,3.51,9.64-2.66a25.94,25.94,0,0,1-1.55-9.53h-10c-.14,6.35-1.66,16.28,6.61,18.27,4.2,1,10.42-.77,13.93-3.05a25.15,25.15,0,0,0,9.36-12.18c2.11-5.7-6.06-8.1-9.14-3.86-2.9,4-2.29,9.21-2.57,13.8-.35,5.65-1.84,10.58-.49,16.32,1.09,4.6,6.75,4.37,9.14,1.19,1.64-2.18,1.14-4.14,1.33-6.66.23-3,2-5.71,2.48-8.68,1.12-6.54,2.64-13.22,2.74-19.88.1-6.44-9.9-6.44-10,0Z"/>
    <path class="cls-1" d="M621.45,51.16c0-2.3.08-4.61,0-6.91-.07-2.62-.9-4.07-1.57-6.45-1-3.53-1.11-8.07-1-11.76.11-6.44-9.89-6.44-10,0a74.47,74.47,0,0,0,1,13c.26,1.64,1.19,2.77,1.61,4.3.59,2.13-.06,5.55,0,7.81,0,6.44,10,6.45,10,0Z"/>
    <path class="cls-1" d="M653.51,51.16c-.08-4.3-1.62-7.59-2.4-11.71-.9-4.77-.2-10.28-.2-15.15,0-6.43-10-6.44-10,0,0,5-.37,10.17.14,15.13.41,4.1,2.38,7.58,2.46,11.73.11,6.43,10.11,6.45,10,0Z"/>
    <path class="cls-1" d="M693.63,49.36c-2.42-2.65-2.83-7-3.54-10.38A63.93,63.93,0,0,1,689,25.17c0-6.43-10-6.44-10,0,0,10,.37,23.44,7.53,31.26,4.35,4.76,11.41-2.33,7.07-7.07Z"/>
    <path class="cls-1" d="M670,25.17a10.25,10.25,0,0,0-2.57-7.64c-1.62-2-5.44-1.9-7.07,0-3.32,3.85-2.29,8.94-2.08,13.64a80.84,80.84,0,0,0,1.3,9.44,38.75,38.75,0,0,1,.33,5.25c.07,2.13.86,4.09,1,6.17.29,6.41,10.29,6.44,10,0-.25-5.74-1.39-11.47-2.29-17.18-.31-2-.28-4-.4-6.06-.06-1.08,0-2.3-.2-3.37-.18-1.23.8-2.38-.54-.82h-7.07q-.57-1.25-.36.57c-.34,6.43,9.66,6.41,10,0Z"/>
    <path class="cls-1" d="M723.69,46c0-5.39,1-11.52-.9-16.65-1.33-3.68-2.27-8.16-4.9-11.14-4.27-4.83-11.32,2.26-7.07,7.07.52.59.65,2.36.89,3.13.53,1.65,1.62,3.33,2,5,.81,3.82,0,8.65,0,12.57,0,6.44,10,6.45,10,0Z"/>
    <path class="cls-1" d="M728.42,21.7V48.56c0,6.44,10,6.45,10,0V21.7c0-6.43-10-6.44-10,0Z"/>
    <path class="cls-1" d="M744.88,27.77c0,7.57-.63,15-.87,22.53-.2,6.43,9.8,6.43,10,0,.24-7.54.86-14.95.87-22.53,0-6.43-10-6.45-10,0Z"/>
    <path class="cls-1" d="M759.61,19.11V51.16c0,6.44,10,6.45,10,0v-32c0-6.44-10-6.45-10,0Z"/>
    <path class="cls-1" d="M762,37.1c6.43,0,6.44-10,0-10s-6.45,10,0,10Z"/>
    <path class="cls-1" d="M788.67,49.43q0-6.48,0-13c0-3.91-1.77-7.53-1.75-11.3.05-6.44-9.95-6.44-10,0,0,3.92,1.75,7.38,1.75,11.3q0,6.48,0,13c0,6.43,10,6.45,10,0Z"/>
    <path class="cls-1" d="M797.73,16.51c-.31,2.75-2.63,5.35-3.67,7.88a25.39,25.39,0,0,0-1.53,10.45c.13,6.71,2.53,13,2.6,19.79.07,6.43,10.07,6.45,10,0a64.8,64.8,0,0,0-.74-9.84c-.54-3.36-1.76-6.53-1.86-9.95-.21-7,4.44-11.59,5.2-18.33.72-6.39-9.29-6.34-10,0Z"/>
    <path class="cls-1" d="M826.61,50.7c-1.82-8.61-4.23-16.69-4.15-25.53,0-6.44-10-6.44-10,0C812.38,35,815,43.83,817,53.36c1.33,6.29,11,3.63,9.64-2.66Z"/>
    <path class="cls-1" d="M833.94,16.58c-2.39,4.92-1.55,10.1-1.55,15.42V50.3c0,6.43,10,6.44,10,0V35.23c0-2.16,0-4.31,0-6.46s-.75-5.21.18-7.14c2.79-5.77-5.83-10.84-8.63-5.05Z"/>
    <path class="cls-1" d="M861.45,55.5c0-6,.29-12-.54-18A39.74,39.74,0,0,1,861.27,23c1.52-6.25-8.12-8.91-9.64-2.65a48,48,0,0,0-1.07,15.23c.53,6.72.94,13.12.89,19.89-.05,6.43,9.95,6.44,10,0Z"/>
    <path class="cls-1" d="M867.91,23.44V48.56c0,6.44,10,6.45,10,0V23.44c0-6.44-10-6.45-10,0Z"/>
    <path class="cls-1" d="M894.37,48.56V28.64c0-6.44-10-6.45-10,0V48.56c0,6.44,10,6.45,10,0Z"/>
    <path class="cls-1" d="M904.3,18.24c0,3.26.28,6.52.26,9.78,0,3.77-1.08,6.86-1.73,10.51a40,40,0,0,0-.2,8.95c.09,1.75.87,4.91-.25,6.36-3.93,5.09,4.76,10.07,8.64,5,3.57-4.63,1.1-11.8,1.49-17.11.29-3.8,1.76-7.41,2-11.29.23-4.08-.14-8.17-.19-12.25-.08-6.43-10.08-6.45-10,0Z"/>
    <path class="cls-1" d="M933.36,57.23c-.14-5.95-1.76-11.81-1.74-17.72,0-6.8,0-13.6,0-20.4,0-6.44-10-6.45-10,0,0,6.8,0,13.6,0,20.4,0,6,1.6,11.75,1.74,17.72.16,6.42,10.16,6.45,10,0Z"/>
    <path class="cls-1" d="M942.42,21.7c0,12.21,0,25.13-4.15,36.8-2.17,6.07,7.49,8.69,9.64,2.66,4.44-12.47,4.51-26.42,4.51-39.46,0-6.43-10-6.44-10,0Z"/>
    <path class="cls-1" d="M968,57.23c0-5.12-.24-10.3,0-15.41.21-4.47,1-8.66.86-13.18-.14-6.43-10.14-6.45-10,0,.1,4.5-.65,8.72-.86,13.18-.24,5.11,0,10.29,0,15.41,0,6.43,10,6.44,10,0Z"/>
    <path class="cls-1" d="M978,20.84c.08,5,1,10.19-.21,15.06-1,4.13-2.36,8.38-2.39,12.66-.05,6.44,9.95,6.45,10,0,0-4.46,2.06-8.84,2.67-13.22.68-4.82,0-9.67-.07-14.5-.12-6.43-10.12-6.45-10,0Z"/>
    <path class="cls-1" d="M1006.41,56.29c-2-1.93-1.93-8.64-2-11.42-.12-5.12,0-10.25,0-15.37,0-6.43-10-6.44-10,0s-.66,13.39.38,19.77c.88,5.39.27,10,4.55,14.09,4.65,4.46,11.73-2.61,7.07-7.07Z"/>
    <path class="cls-1" d="M1011.74,19.11c0,6.81.09,13.64-.07,20.45a58.48,58.48,0,0,0,.77,8.59c.38,3.05-.08,5.47,1.71,8.14,3.58,5.31,12.24.31,8.64-5-.6-.88-.49-4.27-.7-5.75a49.89,49.89,0,0,1-.35-8.38c.07-6,0-12,0-18,0-6.44-10-6.45-10,0Z"/>
    <path class="cls-1" d="M1052.46,17.37c0,4.86.26,9.74.08,14.6s-1.71,9.55-2.5,14.4c-1,6.29,8.6,9,9.64,2.66.84-5.11,2.47-10.05,2.8-15.24.34-5.45,0-11,0-16.42,0-6.43-10-6.44-10,0Z"/>
    <path class="cls-1" d="M1083.65,21.7c0,7.25.74,15-.69,22.07-1.27,6.28,8.37,9,9.64,2.66,1.64-8.11,1.05-16.47,1.05-24.73,0-6.43-10-6.44-10,0Z"/>
    <path class="cls-1" d="M1120.9,20c0,3.39.53,7.23,0,10.59-.26,1.71-.85,2.08-1.42,3.68-.45,1.23-.25,2.58-.57,3.82-1.46,5.55-6.33,9.36-7.38,15.24-1.11,6.29,8.52,9,9.65,2.66.62-3.5,2.67-6,4.47-9a32.81,32.81,0,0,0,3.19-8.24c.47-1.58,1.94-4,2.11-6.64.26-4,0-8.15-.07-12.16,0-6.43-10-6.44-10,0Z"/>
    <path class="cls-1" d="M1040.8,52c0-9-.57-17.87-.87-26.86-.22-6.42-10.22-6.45-10,0,.3,9,.87,17.84.87,26.86,0,6.43,10,6.44,10,0Z"/>
  </g>
</svg>
