<svg id="Layer_1" data-name="Layer 1" xmlns="http://www.w3.org/2000/svg" viewBox="0 0 359.5 359.5">
  <defs>
    <style>
      .cls-1 {
        fill: #dceeff;
      }

      .cls-2 {
        opacity: 0.3;
      }

      .cls-3 {
        fill: #ff3bc8;
      }

      .cls-4 {
        fill: #295cff;
      }
    </style>
  </defs>
  <title>popartklikher</title>
  <rect class="cls-1" width="359.5" height="359.5"/>
  <polyline class="cls-2" points="289 52.5 241 74.5 220 52.5 152 100.5 146 74.5 106 57.5 89 147.5 128 175.5 60 305.5 184 359.5 359 359.5 360 218.5"/>
  <g>
    <path class="cls-3" d="M69.8,165q4.89-22,9.28-43,1.8-8.79,3.75-18.56t3.74-19.21Q88.36,74.82,90,66t2.77-16.11c3.14-1,6.24-1.82,9.27-2.53s6.16-1.32,9.36-1.87a54.42,54.42,0,0,1,9-.81,27.69,27.69,0,0,1,12.29,2.44,21.86,21.86,0,0,1,8.05,6.59,26,26,0,0,1,4.4,9.69,51.68,51.68,0,0,1,1.3,11.88,47.39,47.39,0,0,1-3.34,17.58,52.72,52.72,0,0,1-8.95,15.06,44.8,44.8,0,0,1-12.86,10.5,31.34,31.34,0,0,1-15,3.91h-1.79q-1.31,5.54-2.45,12t-2,12.05q-1.14,6.51-2.12,13Zm41.84-80.26q-1.8,9.62-3.91,20.51a14,14,0,0,0,5.45-3,26,26,0,0,0,5.29-6.18,34,34,0,0,0,3.91-8.88,37.61,37.61,0,0,0,1.47-10.58q0-6-2.69-9.11a7.82,7.82,0,0,0-5.94-3.1Q113.42,75.15,111.64,84.74Z"/>
    <path class="cls-3" d="M224.2,101.92a109.84,109.84,0,0,1-7.57,21.65,89,89,0,0,1-11,17.58,86,86,0,0,1-13.1,13.18,56.32,56.32,0,0,1-13.84,8.31,35.37,35.37,0,0,1-13.35,2.84,22.89,22.89,0,0,1-9.76-2,21.45,21.45,0,0,1-7.65-6,29.19,29.19,0,0,1-5.13-10.26,53,53,0,0,1-1.87-15.06,87.31,87.31,0,0,1,2.28-19.21,138.05,138.05,0,0,1,6.18-20A110.63,110.63,0,0,1,159,74a94.41,94.41,0,0,1,12.53-15.87,58.86,58.86,0,0,1,14.65-11,34.82,34.82,0,0,1,16.28-4.07q7.32,0,12.12,3a21.57,21.57,0,0,1,7.49,7.82,35.59,35.59,0,0,1,3.83,10.82,65.54,65.54,0,0,1,1.14,12A107.41,107.41,0,0,1,224.2,101.92Zm-58.36,29.7a11.11,11.11,0,0,0,1.79,3.42,10.74,10.74,0,0,0,2.85,2.53,6.87,6.87,0,0,0,3.66,1.05,19.11,19.11,0,0,0,13-5,41.79,41.79,0,0,0,9.44-12.37,72.45,72.45,0,0,0,5.78-15.63,64.42,64.42,0,0,0,2-15.14,40.59,40.59,0,0,0-.24-4.23,17.45,17.45,0,0,0-1-4.23,8.31,8.31,0,0,0-2.28-3.34,6,6,0,0,0-4.15-1.39,18.46,18.46,0,0,0-9.6,2.61,29.57,29.57,0,0,0-7.9,6.92,48.59,48.59,0,0,0-6.1,9.76,96.77,96.77,0,0,0-4.48,11.07,66.81,66.81,0,0,0-2.69,11,63.54,63.54,0,0,0-.81,9.28A11.88,11.88,0,0,0,165.84,131.62Z"/>
    <path class="cls-3" d="M219.56,165q4.88-22,9.28-43,1.78-8.79,3.74-18.56t3.74-19.21q1.8-9.44,3.42-18.23t2.77-16.11q4.73-1.47,9.28-2.53t9.36-1.87a54.4,54.4,0,0,1,9-.81,27.69,27.69,0,0,1,12.29,2.44,22,22,0,0,1,8.06,6.59,26,26,0,0,1,4.39,9.69,51.68,51.68,0,0,1,1.3,11.88,47.58,47.58,0,0,1-3.33,17.58,53.18,53.18,0,0,1-8.95,15.06,45.08,45.08,0,0,1-12.86,10.5A31.38,31.38,0,0,1,256,122.35h-1.79q-1.3,5.54-2.44,12t-2,12.05q-1.14,6.51-2.11,13Zm41.83-80.26q-1.78,9.62-3.91,20.51a14,14,0,0,0,5.46-3,26.51,26.51,0,0,0,5.29-6.18,33.7,33.7,0,0,0,3.9-8.88A37.61,37.61,0,0,0,273.6,76.6q0-6-2.69-9.11a7.82,7.82,0,0,0-5.94-3.1Q263.18,75.15,261.39,84.74Z"/>
  </g>
  <g>
    <path class="cls-3" d="M114.16,304.48,105.37,306c.43-3.58.87-7.11,1.3-10.58q.49-4.56.9-9.12t.73-7.81H94.14l-6.51,23.44q-3.59.5-8.47,1.06L70.05,304c-3.48.43-6.89.87-10.26,1.3q6.51-21.65,12.86-42.65l5.46-18.4q2.83-9.6,5.69-19.13t5.46-18.31q2.59-8.79,4.55-16.12,11.07-.81,22.55-1.95t22.38-3.09q-.48,5.21-1.06,12.94t-1.06,16.85q-.48,9.12-1,19t-1,19.54q-.81,22.47-1.79,47.7-4.87.81-9.77,1.3Q119,303.66,114.16,304.48ZM98.05,262.16c.43,0,1.22,0,2.36-.08l3.58-.17c1.24-.05,2.41-.1,3.5-.16a13.27,13.27,0,0,0,2.28-.24c0-.65.08-1.77.24-3.34s.33-3.36.49-5.37.35-4.21.57-6.59.43-4.73.65-7q.65-8.31,1.63-17.91l1-14.16-2.44.16-3.74,14Z"/>
    <path class="cls-3" d="M138.25,306.44q4.4-21.65,8.47-42.33,1.46-8.79,3.25-18.31t3.34-18.89q1.55-9.34,2.93-18.07t2.2-15.87a115.37,115.37,0,0,1,20-4.31,167.18,167.18,0,0,1,21.32-1.38,31.84,31.84,0,0,1,10.5,1.46,15.16,15.16,0,0,1,6.51,4.15,15.46,15.46,0,0,1,3.34,6.27,30.38,30.38,0,0,1,1,8,37,37,0,0,1-2.28,12.77,53.74,53.74,0,0,1-6.11,11.89,61,61,0,0,1-8.79,10.25,46.87,46.87,0,0,1-10.66,7.57q2.94,6.52,6.27,14.25t6.27,14.73q3.25,8.14,6.67,16.28l-25.23,8.79q-3.25-11.24-5.86-21.16-1.14-4.06-2.28-8.39c-.76-2.87-1.46-5.58-2.12-8.14s-1.19-4.8-1.62-6.75a41,41,0,0,1-.82-4.56l-2.11.65q-1,5.22-2.36,12.7t-2.53,14.49q-1.45,8.3-2.93,17.09Zm38.26-70.65a22.92,22.92,0,0,0,7.57-2.61,53.36,53.36,0,0,0,8.54-5.45,49,49,0,0,0,7-6.59q2.92-3.42,2.93-6a3.71,3.71,0,0,0-1.14-2.85,7.69,7.69,0,0,0-3.17-1.62,22.17,22.17,0,0,0-4.48-.74c-1.63-.1-3.31-.16-5-.16-1.19,0-2.41,0-3.66.08s-2.36.08-3.34.08Z"/>
    <path class="cls-3" d="M226.8,306.44q3.75-17.91,7.17-35.33,1.46-7.32,2.93-15.3t2.85-15.71q1.38-7.72,2.44-15c.7-4.82,1.32-9.25,1.87-13.26a43.4,43.4,0,0,0-7.57-.33,22.51,22.51,0,0,1-7.57-1q.17-2.6.16-6t.17-6.84q.15-3.74.32-8,4.23.33,8.47.49c2.82.1,5.64.16,8.46.16q8.31,0,16-.41t14.32-1q6.58-.55,12.94-1.38L288,196.39q-.81,3.75-1.55,7.65c-.48,2.61-.95,4.83-1.38,6.68a47.39,47.39,0,0,1-7.24,1.38c-2.45.27-4.86.63-7.25,1.06q-1.14,5.53-2.44,12.29t-2.52,14q-1.23,7.25-2.36,14.73T261,268.51q-2.61,16.11-4.88,33.37Z"/>
  </g>
  <rect class="cls-4" x="83" y="132.5" width="191" height="44"/>
  <rect class="cls-4" x="110" y="176.34" width="127" height="44.16"/>
  <g>
    <path d="M93.91,171.58V139h4.52v15.37L105.87,139h4.2l-6.4,14.37,7.44,18.22h-4.4l-6.2-15.29-2.08,3.79v11.5Z"/>
    <path d="M113.71,171.58V139h4.52v29.33h8.28v3.26Z"/>
    <path d="M129.83,171.58V139h4.44v32.59Z"/>
    <path d="M139.5,171.58V139H144v15.37L151.47,139h4.2l-6.4,14.37,7.44,18.22h-4.4l-6.2-15.29L144,160.08v11.5Z"/>
    <path d="M168.46,171.58V139H181v3.26h-8v10.87h6.2v3.21H173v15.25Z"/>
    <path d="M192.38,171.94a9.43,9.43,0,0,1-5.24-1.28,7.1,7.1,0,0,1-2.8-3.68,17,17,0,0,1-.84-5.62V149a16,16,0,0,1,.86-5.53,7,7,0,0,1,2.8-3.54,9.69,9.69,0,0,1,5.22-1.23,9.46,9.46,0,0,1,5.2,1.25,7,7,0,0,1,2.78,3.54,15.59,15.59,0,0,1,.86,5.51V161.4a16.2,16.2,0,0,1-.86,5.56,7.31,7.31,0,0,1-2.78,3.68A9.12,9.12,0,0,1,192.38,171.94Zm0-3.58a4.22,4.22,0,0,0,2.72-.74,3.63,3.63,0,0,0,1.24-2.09,13.43,13.43,0,0,0,.32-3.16V148.09a12.91,12.91,0,0,0-.32-3.12,3.43,3.43,0,0,0-1.24-2,4.42,4.42,0,0,0-2.72-.71,4.52,4.52,0,0,0-2.74.71,3.5,3.5,0,0,0-1.26,2,13.43,13.43,0,0,0-.32,3.12v14.28a14,14,0,0,0,.32,3.16,3.71,3.71,0,0,0,1.26,2.09A4.32,4.32,0,0,0,192.38,168.36Z"/>
    <path d="M205.66,171.58V139h6.52a14.21,14.21,0,0,1,5.36.87,6,6,0,0,1,3.14,2.78,10.6,10.6,0,0,1,1,5,13.59,13.59,0,0,1-.4,3.44A6.49,6.49,0,0,1,220,153.7a4.94,4.94,0,0,1-2.32,1.55l4.6,16.33h-4.36l-4.24-15.29h-3.52v15.29ZM210.18,153h1.72a8.5,8.5,0,0,0,3.12-.49,3.2,3.2,0,0,0,1.76-1.65,7.58,7.58,0,0,0,.56-3.26,6.47,6.47,0,0,0-1-4.12c-.69-.84-2.06-1.27-4.12-1.27h-2Z"/>
    <path d="M233.82,171.58,240.7,139h4.36L252,171.58H247.7l-1.48-8.21h-6.6l-1.56,8.21Zm6.4-11.46h5.4l-2.72-14.69Z"/>
    <path d="M257.54,171.58V142.37h-5.48V139h15.32v3.38h-5.32v29.21Z"/>
  </g>
  <g>
    <path d="M117.72,214v-32.4h7.44a13.5,13.5,0,0,1,3.82.48,6.67,6.67,0,0,1,2.7,1.48,6,6,0,0,1,1.6,2.54,11.24,11.24,0,0,1,.52,3.62,10.8,10.8,0,0,1-.5,3.46,5,5,0,0,1-1.52,2.3,5.25,5.25,0,0,1-2.62,1.08,6.91,6.91,0,0,1,3.16,1.5,6.37,6.37,0,0,1,1.78,2.72,12,12,0,0,1,.58,4,14.11,14.11,0,0,1-.48,3.8,7.56,7.56,0,0,1-1.5,2.92,6.8,6.8,0,0,1-2.6,1.86,9.65,9.65,0,0,1-3.74.66Zm4.52-18.88h2.68a6.82,6.82,0,0,0,3-.54,3,3,0,0,0,1.52-1.74,9.31,9.31,0,0,0,.44-3.12,6,6,0,0,0-.68-3.24,3.06,3.06,0,0,0-2.12-1.26,22.26,22.26,0,0,0-3.76-.26h-1.08Zm0,15.64h3c2,0,3.38-.47,4.06-1.42a8,8,0,0,0,1-4.58,9.44,9.44,0,0,0-.54-3.42,4,4,0,0,0-1.72-2.08,6.2,6.2,0,0,0-3.18-.7h-2.68Z"/>
    <path d="M138.44,214v-32.4H151v3.36h-8v10.72h6.52v3.2H143v11.88h8.12V214Z"/>
    <path d="M162.12,214.34a8.43,8.43,0,0,1-4.66-1.2,7.58,7.58,0,0,1-2.82-3.32,13.59,13.59,0,0,1-1.12-4.92l4-1.08a18,18,0,0,0,.54,3.32,5.93,5.93,0,0,0,1.38,2.62,3.5,3.5,0,0,0,2.68,1,3.45,3.45,0,0,0,2.66-1,4,4,0,0,0,.9-2.82,5.74,5.74,0,0,0-1-3.54,19.35,19.35,0,0,0-2.52-2.7l-5.44-4.8a9.09,9.09,0,0,1-2.36-3.06,9.78,9.78,0,0,1-.76-4.1,7.31,7.31,0,0,1,2-5.52,7.67,7.67,0,0,1,5.56-2,10.5,10.5,0,0,1,3.38.5,5.93,5.93,0,0,1,2.44,1.54,7.67,7.67,0,0,1,1.56,2.62,15.42,15.42,0,0,1,.78,3.7l-3.84,1a15.84,15.84,0,0,0-.48-2.94,4.41,4.41,0,0,0-1.26-2.16,3.68,3.68,0,0,0-2.58-.82,3.64,3.64,0,0,0-2.62.9,3.51,3.51,0,0,0-.94,2.66,5.17,5.17,0,0,0,.5,2.44,7.08,7.08,0,0,0,1.62,2l5.48,4.8a17.55,17.55,0,0,1,3.24,3.82,9.67,9.67,0,0,1,1.4,5.26,8.24,8.24,0,0,1-1,4.14,6.74,6.74,0,0,1-2.74,2.66A8.51,8.51,0,0,1,162.12,214.34Z"/>
    <path d="M181.44,214.34a9.47,9.47,0,0,1-5.24-1.28,7,7,0,0,1-2.8-3.66,16.8,16.8,0,0,1-.84-5.58V191.54a15.57,15.57,0,0,1,.86-5.5,6.8,6.8,0,0,1,2.8-3.52,9.74,9.74,0,0,1,5.22-1.22,9.48,9.48,0,0,1,5.2,1.24,7,7,0,0,1,2.78,3.52,15.64,15.64,0,0,1,.86,5.48v12.32a16.16,16.16,0,0,1-.86,5.52,7.36,7.36,0,0,1-2.78,3.66A9.14,9.14,0,0,1,181.44,214.34Zm-4.4,2.6-1.56-.48,10.08-37.68,1.6.4Zm4.4-6.16a4.3,4.3,0,0,0,2.72-.74A3.66,3.66,0,0,0,185.4,208a13.8,13.8,0,0,0,.32-3.14v-14.2a13.31,13.31,0,0,0-.32-3.1,3.45,3.45,0,0,0-1.24-2,4.44,4.44,0,0,0-2.72-.7,4.5,4.5,0,0,0-2.74.7,3.38,3.38,0,0,0-1.26,2,12.79,12.79,0,0,0-.32,3.1v14.2a13.25,13.25,0,0,0,.32,3.14A3.58,3.58,0,0,0,178.7,210,4.37,4.37,0,0,0,181.44,210.78Z"/>
    <path d="M202.24,214.38a8.16,8.16,0,0,1-4.86-1.3,7.29,7.29,0,0,1-2.64-3.78,19,19,0,0,1-.82-6V192.5a21.36,21.36,0,0,1,.74-6.06,6.79,6.79,0,0,1,2.64-3.82,9.17,9.17,0,0,1,5.3-1.32,10.19,10.19,0,0,1,4.9,1,5.94,5.94,0,0,1,2.7,3.12,14.4,14.4,0,0,1,.84,5.3v1.2H206.8v-1a17.2,17.2,0,0,0-.28-3.46,3.29,3.29,0,0,0-1.14-2,4.47,4.47,0,0,0-2.7-.66,3.92,3.92,0,0,0-2.9.92,4.27,4.27,0,0,0-1.12,2.5,25.64,25.64,0,0,0-.22,3.58v12a18.37,18.37,0,0,0,.34,3.88,3.87,3.87,0,0,0,1.3,2.32,4.26,4.26,0,0,0,2.72.76,4,4,0,0,0,2.72-.84,4.46,4.46,0,0,0,1.32-2.48,19.4,19.4,0,0,0,.36-4.08v-2.24h-4.12v-3.2h8.2v16h-2.84l-.44-3.72a6.87,6.87,0,0,1-2,3A5.64,5.64,0,0,1,202.24,214.38Z"/>
    <path d="M215.68,214v-32.4h12.56v3.36h-8v10.72h6.52v3.2H220.2v11.88h8.12V214Z"/>
  </g>
</svg>
