<svg id="Layer_1" data-name="Layer 1" xmlns="http://www.w3.org/2000/svg" viewBox="0 0 267.79 67.54">
  <defs>
    <style>
      .cls-1 {
        fill: #cb49ea;
        opacity: 0.11;
      }

      .cls-2 {
        isolation: isolate;
      }
    </style>
  </defs>
  <title>seassetliste_1</title>
  <g>
    <path class="cls-1" d="M16.28,14.69l-.87,1.68.23-.29a32.3,32.3,0,0,0-2.72,2.77,24.93,24.93,0,0,0-3.56,7.08C5.79,36.81,4.88,48.56,3.16,59.82h.37c5.2-.53,6.21-.33,11.05-2.43A19.3,19.3,0,0,0,22.47,52a51.65,51.65,0,0,0,4-4.93,84,84,0,0,1,7.63-8.71c4.87-4.86,9.51-9.93,14.33-14.84l-.26.26a49.66,49.66,0,0,1,8.48-6.91q2.33-1.8,4.57-3.67l-.3.24,2.54-2-.3.23a33,33,0,0,1,4.67-3.07A12.08,12.08,0,0,1,72.42,7.1l-6.09.36,7.28-.15-10-.5L75.43,8.08,64.72,5.83c-2.25.63-2.58-.69-3.35,1.16q-2.05,6.23-3.84,12.54c-.47,2.92-1,5.84-1.53,8.76a54.44,54.44,0,0,0,.49,14.42A23.8,23.8,0,0,0,60,52.52C66.27,62.09,79.4,59.05,88,55c5.84-2.74,11.08-6.5,16.8-9.45a72.15,72.15,0,0,1,15.73-5.75l-.35.08c7.62-1,11.13-.39,19.44,3.31,4.87,2.18,9.33,5.16,14.08,7.55C160.31,54,167.37,57,174.85,57c6.72,0,12.08-3.66,17.11-7.78A103.28,103.28,0,0,1,206.28,39l5.83-3.14a82.44,82.44,0,0,1,12-4.76l-.36.11A73.79,73.79,0,0,1,236,28.49a45.41,45.41,0,0,1,9-.45,40.77,40.77,0,0,1,8.74.76,28.51,28.51,0,0,1,7.36,3l-2.36-1.58,3.36,2.53-6.75-6.24,8.11,8-6-6.85,6.78,8.8-4.84-7.35,5.12,9.65-3.6-7.86,3.41,10.53L262,33l1.77,11.24-.53-9.55-2,15.78,3.3-9.06-4.14,9.12,4.66-8.15L254.3,52.15l8.52-5.35-10.16,5.07,8.84-3.27-12.11,3.67,9.28-1.6-12.53,1.17,9.72.15-12.72-1.3,9.58,1.86L240.19,49l9.45,3.62L237.41,47l8.82,5.12-11.57-7.45,6.56,5.2a115.82,115.82,0,0,1-17.5-16.7q-2.28-2.61-4.6-5.18c-1.46-1.59-3-3.12-4.48-4.65a45.44,45.44,0,0,0-7.79-7.07A49.49,49.49,0,0,0,198,10.31a33.17,33.17,0,0,0-15-5,135.87,135.87,0,0,0-17.08-1.93A2.66,2.66,0,0,0,166.37,5q1.31,2.73,2.72,5.41T172,15.72A2.64,2.64,0,0,0,173,17a117,117,0,0,1,15.54,2.73,35,35,0,0,1,13.82,5.37,74.91,74.91,0,0,1,8.7,5.82,82.73,82.73,0,0,1,8.34,6.74c5.47,4.25,11.13,8.69,17.34,11.82a42.06,42.06,0,0,0,7.09,2.86,16.15,16.15,0,0,0,7.63.24,64.8,64.8,0,0,0,7.36-1.33c7.06-1.94,5-10.35,5.71-16.06a1.65,1.65,0,0,0-.57-1.11c-.67-.84-1.36-1.66-2.08-2.47-.87-1-1.76-2-2.66-3a13.66,13.66,0,0,0-2-2,27.7,27.7,0,0,0-10.54-2.81,76.3,76.3,0,0,0-15.7.26,93.06,93.06,0,0,0-28.19,8.46A83.66,83.66,0,0,0,194,37.06q-5.19,3-10.41,6a43.52,43.52,0,0,1-7.72,4.31c-8.13,3.13-16.39-.53-24.16-3.11l.33.13c-8-3.18-15.79-6.67-24.21-8.45a37.61,37.61,0,0,0-10.83-1c-1.28.1-2.63.31-3.89.53-5.63,1-10.78,3.28-16.07,5.32-5,1.93-9.86,4.13-14.87,6a30.83,30.83,0,0,1-6.41,1.59,5.33,5.33,0,0,1-2.91,0,3.35,3.35,0,0,1-2.46-.76,8.26,8.26,0,0,1-3.25-2.18,15.29,15.29,0,0,1-2.31-5.1,37.9,37.9,0,0,1-1.33-11.9L64,25.2V20.84A9.72,9.72,0,0,0,63.67,14a39.47,39.47,0,0,1-1.62-7.59l-2.86,9.32,2.24-1.39q2.43-1,4.9-1.79c1.37-.46,2.73-.95,4.08-1.46a5.63,5.63,0,0,0,4.54-4,1.94,1.94,0,0,0-1.31-.37c-1.18-.1-2.36-.18-3.55-.24-1.47-.09-3-.16-4.43-.21a15.85,15.85,0,0,0-3.08,0c-5.07,1.68-9.07,4.89-13,8.5-2.2,2-4.39,4.1-6.62,6.11-5.49,4.93-7.52,7.4-12.38,13l.25-.27-6.39,6.21L30,38l-6.42,1.89L31,38.55a32.91,32.91,0,0,1-11.71,1.31h-.33a16,16,0,0,1,.23,12.78l1.33-6.2-6.66,7.44,1.78-1.57L5.92,57.89l8.21-4.14c1.23-6.89,2.34-13.81,3.86-20.64a68.69,68.69,0,0,1,3.33-11.69,51.67,51.67,0,0,1,3.45-6.75A34.55,34.55,0,0,0,27.59,9.5a1.82,1.82,0,0,0-1.31.27c-1.51.63-3,1.29-4.5,2s-3,1.39-4.44,2.13A1.86,1.86,0,0,0,16.28,14.69Z"/>
    <path class="cls-1" d="M16.58,16.34,15.71,18l.17-.31a39.47,39.47,0,0,0-2.74,2.9C10.81,23.5,9.44,28,8.57,31.5a169.35,169.35,0,0,0-3.2,17.16q-.9,6.45-1.93,12.87a19.66,19.66,0,0,0,8.4-1.37A27.85,27.85,0,0,0,19.28,57l3.55-3c2.91-2.66,5.44-6.16,8-9.12,2-2.31,4.07-4.54,6.21-6.74l6.09-6.91a96.33,96.33,0,0,1,12.76-11.8l-.29.21C59.52,17.06,63,14,66.83,11.29l-.33.19L69.21,9.9l-.33.18a9.83,9.83,0,0,1,5.84-1.33L64.79,7.11l11.8,2.47L65.66,6.22c-.23.75-.81,1-1.73.73q-3,7.26-5.73,14.59A50.77,50.77,0,0,0,55.93,34.4a51.77,51.77,0,0,0,1.3,13.24,17.94,17.94,0,0,0,5,9.27c9.12,8.32,22.33,2.88,31.56-2.32,5.32-3,10.28-6.58,15.89-9.05A78.5,78.5,0,0,1,118,42.46a33.37,33.37,0,0,1,7.61-1.4l-.37,0a22.92,22.92,0,0,1,7.28.71,49.7,49.7,0,0,1,6,2.28,153.62,153.62,0,0,1,14.07,7.44,64.18,64.18,0,0,0,12.66,5.82c4,1.2,8.28,2.2,12.52,1.76,7.63-.81,13.14-6.25,18.77-10.9a89.78,89.78,0,0,1,16.84-10.72,81.31,81.31,0,0,1,12-4.73,72.81,72.81,0,0,1,12.22-2.6l-.37.05a70.59,70.59,0,0,1,14.89.05,25.18,25.18,0,0,1,10.22,3.51l-2.41-1.87,3.36,2.77-5.5-5.61,6.81,7.42-6.14-7.71,6.82,9.72-5.37-9,5.25,14.08-2.42-9,1.77,11.9-.73-10.12-1,14,1.65-8.73L261.86,51.7l3.06-9.38L257.37,53.2l6.3-6.59-7.15,5.59,5.4-4-9.09,5.35,7.67-3.7-10.9,4,8-2.23L246.43,53.3l8.24-.74-11.16-.47,8.06.74-10.91-2.44,7.88,2.22-10.6-4.23,7.29,3.51-10-5.78L242,50.86a85.65,85.65,0,0,1-17.5-15.78l-2.34-2.61c-2.92-3.22-6-6.26-9.09-9.29A66.45,66.45,0,0,0,195.52,11a25.68,25.68,0,0,0-11.67-3.4,133.27,133.27,0,0,0-17-2,1.63,1.63,0,0,0,.31,1.21c.67,1.37,1.38,2.72,2.11,4.05s1.47,2.68,2.26,4a1.66,1.66,0,0,0,.84.92,153.18,153.18,0,0,1,19.55,3.74,17.67,17.67,0,0,1,7,2.68,41.89,41.89,0,0,1,6.05,3.5,71.91,71.91,0,0,1,8.58,6.07L219,36.44c1.54,1.24,3.1,2.47,4.66,3.68a99.76,99.76,0,0,0,11.95,8.38,61.77,61.77,0,0,0,6.84,3.22c7.28,3,8.22,2.65,14.44,2.49a1.36,1.36,0,0,0,1-.6c1-1,1.95-2,2.88-3s3-2.67,3.3-4.11l1.63-9.21A2,2,0,0,0,265,36.1c-.69-.93-1.39-1.86-2.12-2.76q-1.34-1.73-2.71-3.4a15.91,15.91,0,0,0-2-2.24c-4.27-2.37-8.78-3.09-13.62-3.38-11.84-.7-23.59,1.69-34.6,6-8,3.12-15.33,7.4-22.69,11.78-3.83,2.29-7.32,5-11.56,6.54a20.89,20.89,0,0,1-11.15.41,70.89,70.89,0,0,1-9.29-2.81c-4.32-1.46-8.5-3.3-12.72-5a88.73,88.73,0,0,0-10.72-3.82,54.15,54.15,0,0,0-9.6-1.88A34.41,34.41,0,0,0,114,36C103.7,37.8,94.43,43.25,84.93,47.31a39.23,39.23,0,0,1-7.08,2.44l-3.24.5L71.31,50a13.1,13.1,0,0,1-4-2.28A11.31,11.31,0,0,1,64.89,44,28.27,28.27,0,0,1,62.6,33.88a55.87,55.87,0,0,1,.62-11.11c1.07-8.87-.29,1.82.27-13.51l-3,8.28,1.95-1.38a51.58,51.58,0,0,1,4.9-2c1.37-.49,2.74-1,4.1-1.5a30.79,30.79,0,0,0,6.56-3A2,2,0,0,0,76.75,9q-2.4-.77-4.84-1.43T67,6.3a2,2,0,0,0-1.37-.08c-3,.7-4.39,1-6.84,2.31a43.05,43.05,0,0,0-8,6.16c-2,1.82-3.95,3.67-6,5.43q-3.74,3.21-7.19,6.72-6,6.87-11.89,13.75l.26-.23c-1.91.74-3.73,1.67-5.62,2.44q-4.79,1.59-3.73,8.67a15.6,15.6,0,0,1-5,3.64l1.17-.48c1.56-9,2.74-18.11,5.28-26.86a55.51,55.51,0,0,1,5.33-12.46l-.19.29a30.5,30.5,0,0,0,3.08-5.48,1.64,1.64,0,0,0-1.18.4c-1.32.77-2.63,1.56-3.91,2.39s-2.57,1.66-3.83,2.53A1.68,1.68,0,0,0,16.58,16.34Z"/>
    <path class="cls-1" d="M12.85,14.67c-.79,1.5-2.18,2.53-3.21,3.81a24.54,24.54,0,0,0-3.5,7.16,85.29,85.29,0,0,0-2,8.35c-1.77,8.58-2.73,17.34-4,26a.31.31,0,0,0,.32.39,22,22,0,0,0,9.66-.68,29.31,29.31,0,0,0,9.15-3.1c1.08-.73,3.09-2.49,4.1-3.34a64,64,0,0,0,9.93-10.54c1.8-2.39,3.47-4.87,5.37-7.19a116,116,0,0,1,12.86-14L58,16.11a24.93,24.93,0,0,0,3-2.07c1.84-1.39,3.61-2.87,5.48-4.22l2.3-1.59a13.21,13.21,0,0,1,4.67-2.09l-1.67.35,6.35.68-.11-.5a32.52,32.52,0,0,1-10.5,6.26q-3.3,1.35-6.6,2.74a24.3,24.3,0,0,0-3.16,1.76c-1.4,1.09-3.45,6.22-3.93,7.88a31.74,31.74,0,0,0-1,8.35,55.53,55.53,0,0,0,1.18,10.48,29,29,0,0,0,2.4,7.42,18,18,0,0,0,2.53,4,18.36,18.36,0,0,0,6.31,4.23c5.76,2.37,11.65,1.54,17.43-.31,8-2.54,14.49-7.34,21.48-11.72a65.19,65.19,0,0,1,13.55-6.56,29.54,29.54,0,0,1,5.8-1.55Q130.68,38.07,137,43a41.59,41.59,0,0,1,14.18,6.45l4.77,2.87A46.12,46.12,0,0,0,171.31,58a29.43,29.43,0,0,0,5.75.3,22.21,22.21,0,0,0,8.41-2.19c3.6-1.64,6.62-4.33,9.57-6.9,4.59-4,9.15-8,14.49-11l11.57-5.62a55.68,55.68,0,0,1,9.08-2.79,64.24,64.24,0,0,1,15.11-2c11.22,0,22.06,3,20.32,12.76l-.72,2.94a9.34,9.34,0,0,1-2.33,5.16l-1.25,1.65a3.34,3.34,0,0,1-3.9,1.62,9.84,9.84,0,0,1-5.22-.06l-2.77-.2A15.18,15.18,0,0,1,239.23,48a55.75,55.75,0,0,1-12.17-12.81c-1.88-2.35-3.7-4.75-5.61-7.08-5.28-6.45-10.91-12.55-17.69-17.46a51.62,51.62,0,0,0-9.4-5.32c-1.16-.6-2.33-1.16-3.52-1.69l-8.53-1.78A137.75,137.75,0,0,0,165,0c-.41,0,1.11,2.91,1.06,2.8.26.49.95,2.37,1.72,2.45a132.32,132.32,0,0,1,16.81,2.27A51.6,51.6,0,0,1,205,16.26,120.44,120.44,0,0,1,217.47,27c3,2.83,5.77,5.88,8.59,8.87,2.16,2.3,4.35,4.59,6.36,7,2.48,3,5.49,6.36,9.07,8.05l3.31,1.28c2.15.26,4.29.52,6.44.8,2.64.42,6.48,1.61,8.94-.16a17.19,17.19,0,0,0,4.42-5.27,39.66,39.66,0,0,0,1.62-4.75,12.74,12.74,0,0,0,.77-4.2c0-3.61-2.47-6.41-5.42-8.2a27.2,27.2,0,0,0-5.94-2.5,52.67,52.67,0,0,0-11.81-1.13,65.23,65.23,0,0,0-12.23,1.34,77,77,0,0,0-18.09,6.18A87.89,87.89,0,0,0,202,41.19a55.14,55.14,0,0,0-8.53,7A43.13,43.13,0,0,1,189,51.91a24.42,24.42,0,0,1-11,4.92,19.92,19.92,0,0,1-8-.69,25,25,0,0,1-9.67-2.77c-8.11-3.56-15-9.44-23.23-12.75a27.8,27.8,0,0,0-11.25-2.37c-4.7.14-9.19,1.78-13.49,3.54A54.6,54.6,0,0,0,103,46.85c-11.46,7.46-26.22,19-40.26,9.88C57.27,53.15,55.85,46.36,55,40.5a42.13,42.13,0,0,1-.62-11.21,11.6,11.6,0,0,1,4.59-10.42,10.16,10.16,0,0,1,6-4.32,86.57,86.57,0,0,0,10.27-4.11c1.68-1,3.33-2,4.93-3.13.2-.12,0-.42-.11-.49a8.24,8.24,0,0,0-5-1.51,19.7,19.7,0,0,0-3,.41c-4.71,1-8.43,4.56-12.11,7.46s-7,5.19-10.43,8.4a106.47,106.47,0,0,0-13.34,15c-2.18,3-4.08,6.1-6.29,9a37.58,37.58,0,0,1-16.73,12.6A26.49,26.49,0,0,1,2,59.24l.32.39C3.63,51,4.61,42.31,6.46,33.81a60.76,60.76,0,0,1,2.82-10.1,22.29,22.29,0,0,1,3.63-6.45,10.19,10.19,0,0,0,1.94-2.92C15.16,13.69,13.09,14.23,12.85,14.67Z"/>
    <path class="cls-1" d="M13,20.32c-.86,1.56-2.41,2.64-3.49,4A24.9,24.9,0,0,0,6,31.52a81,81,0,0,0-2,8.31C2.24,48.38,1.27,57.11,0,65.75A.22.22,0,0,0,.23,66a23.55,23.55,0,0,0,9.71-.76,29.72,29.72,0,0,0,9-3,52.69,52.69,0,0,0,4.51-3.4c5.22-4.31,9.27-9.9,13.31-15.26a115.63,115.63,0,0,1,8.58-10.34l6.17-6.1c3.14-2.56,6.33-5,9.57-7.47,1.85-1.38,3.62-2.86,5.49-4.21l2.31-1.57A10.42,10.42,0,0,1,77.71,12l-1.49-.52,3,1.49L77.79,11.7l-3.63,3-4.57,2.41c-2.83,1.33-5.83,2.31-8.61,3.76a17.57,17.57,0,0,0-3.1,1.86,26.72,26.72,0,0,0-2.63,4.36,27.64,27.64,0,0,0-2.53,12.38,53.43,53.43,0,0,0,1.8,13.42,21.48,21.48,0,0,0,4.24,8.23,18.39,18.39,0,0,0,10.35,5.51,28,28,0,0,0,10.56-.47A43.27,43.27,0,0,0,90.53,62c7.92-4.13,14.76-10.19,23.1-13.54a53.86,53.86,0,0,1,8-2.63,16,16,0,0,1,3.75-.63,10.91,10.91,0,0,1,7,1,17.06,17.06,0,0,1,7.46,2.34A31,31,0,0,1,144.35,51c3.05,1.83,6.07,3.72,9.13,5.55,7.83,4.7,17.49,9,26.81,7,5.1-1.09,9.24-3.89,13.15-7.23q1.69-1.39,3.3-2.9A40.27,40.27,0,0,1,203.88,48a39.31,39.31,0,0,1,8.36-5.46,38.93,38.93,0,0,1,5.88-2.86,69.93,69.93,0,0,1,24.16-5.89,28.08,28.08,0,0,1,5.94,0,19.34,19.34,0,0,1,6.94,1.1,11.89,11.89,0,0,1,5.17,1.55A11.42,11.42,0,0,1,264.92,40l-1.38-1.81a9.63,9.63,0,0,1,1.15,8.82c-.42,5.4-2.55,8.52-6.42,9.35-2.4.66-4.9.45-7.36.44a20.59,20.59,0,0,1-14.11-5.21,47.69,47.69,0,0,1-5-5.26c-2.44-2.82-4.75-5.74-7.07-8.67A146.32,146.32,0,0,0,209,20a61.73,61.73,0,0,0-11.67-8l-6.65-3.15a25.75,25.75,0,0,0-8.74-1.78,137.23,137.23,0,0,0-17.4-1.83c-.71,0-.11,1.26.35,1.3,13.32,1,27,2.26,38.28,10.28A88.65,88.65,0,0,1,215.61,28c5.09,5.31,9.32,11.35,13.87,17.1,3.92,5,8.57,11.11,15,12.83q3.21.48,6.44.92l2.77.43c2,.25,4.6.56,6.32-.7l1.45-1.39q1.56-1.92,2.95-4a25.22,25.22,0,0,0,2.08-6.13,10.31,10.31,0,0,0-1.89-8.6c-2.28-3.14-5.85-4.66-9.46-5.76a23.8,23.8,0,0,0-6-.88,59.67,59.67,0,0,0-12,.25A77.56,77.56,0,0,0,219,36.74a84.08,84.08,0,0,0-17.29,9.32c-3.66,2.54-6.9,5.42-10.41,8.13A29.34,29.34,0,0,1,180,60c-5.35,1.28-10.82.53-16-1.09a77.49,77.49,0,0,1-14.42-6.72c-4.43-2.47-8.78-5.3-13.56-7.07a29.34,29.34,0,0,0-7.22-1.9,28.17,28.17,0,0,0-10.94,1.26,56.41,56.41,0,0,0-11.58,5c-4.18,2.35-8.06,5.2-12.2,7.62C89.4,59.82,84.71,62.1,79.23,63a20.15,20.15,0,0,1-9.67-.1l-3.64-1.3C60.25,59.12,57,53.32,55.85,47.53a57.81,57.81,0,0,1-1.38-9.61,12,12,0,0,1,3.81-12,9.06,9.06,0,0,1,6.79-5.88,102.23,102.23,0,0,0,10-4.06,33,33,0,0,0,4.79-2.9c.72-.44-1.11-1.28-1.3-1.38a10.22,10.22,0,0,0-9.41,0c-3.27,1.57-6.1,4.21-8.9,6.46-1.28,1-2.59,2-3.9,2.94l-6.43,5.46a74.65,74.65,0,0,0-8.83,9.47c-3.52,4.24-6.58,8.74-9.94,13.1a30.73,30.73,0,0,1-4.83,5.3,16.1,16.1,0,0,1-8.26,6,13.1,13.1,0,0,1-7.52,2.89Q6,65.52,6,59.6a8.35,8.35,0,0,1-1.24-8.53c.33-2.86.78-5.71,1.36-8.53.64-3.5,1.28-7,2.22-10.42a15.63,15.63,0,0,1,1.29-3.78,11.94,11.94,0,0,1,2.29-4.12c1.18-1.77,2.58-3.23,3.58-5.08.28-.5,0-.47-.37-.47A5.17,5.17,0,0,0,13,20.32Z"/>
    <path class="cls-1" d="M15.88,17,15,18.7l.22-.35a21,21,0,0,0-4.73,6.29A51.85,51.85,0,0,0,7,36.46Q5.15,45,4.1,53.67-2,65.73,8.73,61.5a38.64,38.64,0,0,0,9.87-4.28,28.51,28.51,0,0,0,5.06-4.69c2.95-3.23,5.65-6.68,8.48-10a27,27,0,0,1,3.77-3.94q4.46-5.09,9.26-9.83a73.88,73.88,0,0,1,9.67-8.69,34.07,34.07,0,0,0,4.1-2.95,80.54,80.54,0,0,1,9.2-6.62l-.36.17L70.47,9.5l-.37.15,2.33-.5L62.77,8l13.83,2.2L65.16,6q-8-3.12-5.55,10.81l2.24-7c-2.37,6.78-5.18,13.68-6.14,20.88a49.58,49.58,0,0,0,0,11.55c.41,4,1,8.13,3,11.75a14.49,14.49,0,0,0,8.94,7c5.29,1.65,10.93.53,16-1.38,5.56-2.09,10.59-5.43,15.62-8.5A75.75,75.75,0,0,1,113,44.26,49.47,49.47,0,0,1,120.91,42a26.51,26.51,0,0,1,7.44-.37l-.41,0a23.33,23.33,0,0,1,7.25,1.9l4.9,2.07c5,2.27,9.61,5.34,14.45,7.93,8,4.3,18.2,8.31,27.25,4.89a31.75,31.75,0,0,0,9.05-5.68,129.16,129.16,0,0,1,12.9-9.8,83.86,83.86,0,0,1,17.63-8.59,59.3,59.3,0,0,1,9.17-2.63,66.79,66.79,0,0,1,12.21-1.48h-.42l6.39.16-.41,0,6.22.82-.41-.06a37,37,0,0,1,7.43,3.13l-7.4-7,10.43,10.4-8-11.16L264.87,45l-2.85-12,1.85,13.85-.65-11.19L263,48.87,263.9,38l-1.67,12.69L264.4,39.9l-3.1,12.2,3.37-10.61-4.49,11.42,5.06-10.68L251.53,54.45l10.13-5.74-12.4,5.42L259,50.77l-12.79,2.9L257.28,52l-14,.45,9.89.18-12.69-1.8,9.73,1.89-12.39-3.83,9,3.42-11.7-5.59,8.42,4.88-11-7.25,6,4.66A100.71,100.71,0,0,1,224.23,36c-1.53-1.68-3.09-3.35-4.66-5-3-3.08-6-6.34-9.29-9.08a73.78,73.78,0,0,0-11.91-8.3,33.53,33.53,0,0,0-14.92-5,132.86,132.86,0,0,0-17-2,2.07,2.07,0,0,0,.46,1.31c.84,1.47,1.72,2.92,2.62,4.36s1.8,2.87,2.75,4.28a2,2,0,0,0,1,1,114.13,114.13,0,0,1,15.46,2.8,35.1,35.1,0,0,1,13.79,5.43,104.8,104.8,0,0,1,11.56,8,68.63,68.63,0,0,0,6.74,5.54c2.14,1.57,4.23,3.16,6.41,4.68,14.39,10,9.13,3.43,37.73-6,.32-.11-4-6.25-3.91-6.11-1.1-1.56-2.23-3.09-3.39-4.61a2.52,2.52,0,0,0-1.13-1.06,26.44,26.44,0,0,0-7.79-2.25,73.18,73.18,0,0,0-18.82.09,93.76,93.76,0,0,0-24.95,7,171.79,171.79,0,0,0-17.13,8.93,65.44,65.44,0,0,0-7.5,4.52,26,26,0,0,1-4.92,2.47,19.81,19.81,0,0,1-10.35.91,38.55,38.55,0,0,1-8.24-2.26,101.6,101.6,0,0,1-10.61-3.83q-5.33-2.08-10.68-4.08a62.62,62.62,0,0,0-8.53-2,50,50,0,0,0-6.89-1,36,36,0,0,0-8,.67c-5.49,1-10.54,3.14-15.71,5.13-4.33,1.66-8.54,3.57-12.84,5.3-3.39,1.37-7,2.85-10.76,2.45a8.32,8.32,0,0,1-5.58-2.9c-1.84-2.41-2.68-5.81-3.12-8.74-.24-1.79-.4-3.59-.48-5.39A16,16,0,0,1,64,25.09a42,42,0,0,1,.62-8,46.41,46.41,0,0,1-1.39-9.82L59.5,18.11l2.24-1.61a43.85,43.85,0,0,1,4.88-2c1.34-.5,2.69-1,4-1.45A28.78,28.78,0,0,0,77,10.18a2.33,2.33,0,0,0-1.31-.74C74,8.81,72.22,8.22,70.46,7.66S66.94,6.54,65.16,6a2.33,2.33,0,0,0-1.49-.17,19.87,19.87,0,0,0-6.86,2.6,55.72,55.72,0,0,0-6.9,5.34c-2.1,1.87-4.11,3.84-6.21,5.72q-4.22,3.63-8.13,7.61a131.59,131.59,0,0,1-12.13,13l1.27-.45a27.28,27.28,0,0,0-3.46.73,26,26,0,0,1-2.78.63,8.36,8.36,0,0,1,.25,5.29,25.33,25.33,0,0,1-13,13.32l8.75-6.11c1.22-6.89,2.33-13.8,3.88-20.62A69.41,69.41,0,0,1,21.7,21.23a56.74,56.74,0,0,1,3.48-6.87A36.38,36.38,0,0,0,28,9a2.42,2.42,0,0,0-1.44.59c-1.63,1-3.25,2-4.84,3.1S18.55,14.84,17,16A2.39,2.39,0,0,0,15.88,17Z"/>
    <path class="cls-1" d="M16.48,15.33,15.62,17l.23-.31a33.55,33.55,0,0,0-2.69,2.78A25.36,25.36,0,0,0,9.6,26.58C6,37.46,5.1,49.21,3.37,60.48l.39,0a15.52,15.52,0,0,0,5.73-.7L14.38,58c5.29-2.13,8.79-5.89,12.23-10.26,2.12-2.68,4.45-5.19,6.74-7.72a23.91,23.91,0,0,1,2.9-2.88q6-6.72,12.39-13l-.3.25,6.85-5.81-.31.24c3.88-2.62,7.36-5.72,11.17-8.44l-.34.22L68.42,9l-.34.21a12,12,0,0,1,4.57-1.5l-3.32.11,4.45,0L63,6.84l12.6,1.83L64.16,5.79l-2.09.06C61.59,5.86,60.9,9,61,8.57c-2.08,7.31-4.57,14.81-4.95,22.48a63.08,63.08,0,0,0,.41,10.82c.42,3.44,1,7,2.8,10.09a14.74,14.74,0,0,0,6.91,6.3c8.87,4,18.94-.73,26.77-5,4.14-2.24,8-4.92,12.2-7.13a67.86,67.86,0,0,1,15.74-5.71l-.39,0,4.15-.53-.38,0a23.11,23.11,0,0,1,7.27.64l3.56,1.2c5,1.8,9.6,4.45,14.24,7,7.93,4.41,16.52,8.93,25.85,8.85,7.58-.07,13.2-4.6,18.74-9.25A91.2,91.2,0,0,1,209.51,38a64.26,64.26,0,0,1,8.88-4.19,77.3,77.3,0,0,1,12.17-3.71l-.39.07,6.5-1.12-.39.06a71.25,71.25,0,0,1,14.89,0,26.23,26.23,0,0,1,10.25,3.38l-2.56-1.85,3.49,2.71-5.88-5.61,7.23,7.38-6.58-7.79,7.33,9.73-5.76-9.18,5.81,14.17-2.61-9.41L264,44.88l-.83-9.67L263.2,47l.65-9.42-1.37,11.19,1.9-9.28L261.63,50.2l3.06-9.15-4.1,10,4.68-9.15L254.46,52.73l8.65-6.24-10.23,5.87,9-4-12.2,4.43,9.46-2.27-12.65,1.87,9.93-.46-12.88-.66,9.77,1.32-12.67-3,9.63,3.11-12.39-5.07,9,4.65-11.7-6.9,6.66,4.85a101.7,101.7,0,0,1-17.67-16.1q-2.3-2.58-4.63-5.12c-1.47-1.57-3-3.09-4.49-4.6a45.88,45.88,0,0,0-7.81-7.06,50,50,0,0,0-8.87-5.91,33.11,33.11,0,0,0-15-5,135.14,135.14,0,0,0-17-2,2.47,2.47,0,0,0,.45,1.5c.86,1.74,1.74,3.47,2.65,5.17s1.83,3.42,2.79,5.1a2.55,2.55,0,0,0,1,1.22c5.21.75,10.34,1.56,15.47,2.76A27.07,27.07,0,0,1,199.38,24a42.52,42.52,0,0,1,6,3.5,104.8,104.8,0,0,1,11.38,8.38c2.51,2.1,5.07,4.13,7.72,6,6.32,4.58,13.26,9.28,21,10.93a15.43,15.43,0,0,0,3,0c1.46,0,2.92-.11,4.38-.19,1.17-.06,2.33-.13,3.5-.24a1.86,1.86,0,0,0,1.3-.36L264.8,36a2,2,0,0,0-.64-1.23c-.74-.94-1.5-1.88-2.27-2.79q-1.44-1.74-2.91-3.43a17.68,17.68,0,0,0-2.15-2.26,31.75,31.75,0,0,0-12.49-2.78,85.09,85.09,0,0,0-33.13,5.12c-9.07,3.25-17.32,8.08-25.69,12.79-3.73,2.1-7.13,4.59-11.23,6s-8.48.81-12.58-.22c-3.45-.87-7-2.14-10.3-3.34-4.33-1.56-8.59-3.37-12.89-5a70.28,70.28,0,0,0-11.11-3.14,44.35,44.35,0,0,0-7.06-1,40.36,40.36,0,0,0-12,1.57,141.06,141.06,0,0,0-15,5.51c-4.84,1.91-9.54,4.44-14.63,5.62a15.86,15.86,0,0,1-5.84.62A2.34,2.34,0,0,1,71,47.45a6,6,0,0,0-1.36-.69c-2.87-1.31-4.16-5.09-4.83-8a44.28,44.28,0,0,1-1-10.66,19.65,19.65,0,0,0,.44-5.46,23.77,23.77,0,0,1,.16-4.3,6.61,6.61,0,0,0-.57-4.69,39.06,39.06,0,0,1-1.69-7.49L59.4,16.33l2.25-1.43q2.41-1,4.9-1.82c1.36-.47,2.72-.95,4.07-1.44a5.76,5.76,0,0,0,4.62-3.9,2.21,2.21,0,0,0-1.4-.44c-1.26-.17-2.52-.32-3.79-.44q-2.37-.25-4.74-.45A19.27,19.27,0,0,0,62,6.27c-5.07,1.75-9.1,5-13,8.6-2,1.86-4,3.75-6,5.56q-3.72,3.27-7.18,6.84A105.31,105.31,0,0,1,23.62,40.16L26.92,39l-4.7,1.16,5.85-.86a45,45,0,0,1-9.68.75,14.1,14.1,0,0,1,.77,10.48l.65-4.74-5.92,7.95L15.67,52,4.39,59.49l10.18-6c1.23-6.88,2.35-13.79,3.88-20.61a69.65,69.65,0,0,1,3.36-11.66,55.69,55.69,0,0,1,3.46-6.8,34.47,34.47,0,0,0,2.82-5.25,2.08,2.08,0,0,0-1.35.38q-2.34,1.14-4.63,2.37c-1.53.81-3.05,1.64-4.55,2.51A2,2,0,0,0,16.48,15.33Z"/>
    <path class="cls-1" d="M14.35,18.37l-2.09,2.8A7.42,7.42,0,0,0,10,24.11a30.34,30.34,0,0,0-2.58,5.54A70.62,70.62,0,0,0,5.34,37.9C3.51,46.42,2.55,55.17,1.26,63.78h.28c5.31-.27,6.1.08,11.05-1.73a40.72,40.72,0,0,0,12.9-8.21,46.34,46.34,0,0,0,4.65-4.75c2.26-2.74,4.36-5.61,6.67-8.3s4.57-5.44,6.77-8.24l6.11-6.15C53.28,23,56.56,20.91,60.22,18a73.51,73.51,0,0,1,6.68-5.13c2.76-1.72,5.13-2.81,8.58-2.52L71.4,9.23l5.86,2L71.61,8.41c-.41,2.54-2,4.23-4.75,5.06Q63.47,17.12,60,20.69c-3.07,3.63-5.3,7.15-6,12a47.07,47.07,0,0,0,.69,14.4,26.55,26.55,0,0,0,2.89,9,15.69,15.69,0,0,0,11.25,7.7,32,32,0,0,0,15-1.84c6.65-2.38,12.53-6.55,18.49-10.23s12.4-6.95,19.3-8.19a24.93,24.93,0,0,1,14.4,1.63c6.62,2.69,12.4,6.76,18.65,10.14,7.66,4.14,17.21,8.08,26,5.55,4.84-1.39,8.71-4.56,12.49-7.75a89.59,89.59,0,0,1,8.7-7,81.7,81.7,0,0,1,23.24-11.48,64.57,64.57,0,0,1,24.15-2.8c5.36.47,10.17,1.63,14.21,5.34l-3-3.92,4.25,5.84-3.27-5.41,3.85,7.56-2.55-5.71,2.15,7-1.3-4.77L264,48.22l.3-5-2.21,9.09,1.49-4.76L261,53.74l2-4.64-1.49,2.41L262.65,50a42.42,42.42,0,0,1-11.15,5.7l4.21-1.58-16.82-3.45L225.8,38.48c-1.73-2-3.36-4-5.06-6a100.3,100.3,0,0,0-14.16-14.09,66.7,66.7,0,0,0-12.11-7.48C190,8.74,192,9.49,186.83,8.37A162.58,162.58,0,0,0,165.5,5.54c-.78-.06.29,1.28.35,1.37.47.69,1,1.36,1.49,2a3.21,3.21,0,0,0,.92,1q21-.36,37,11l5.49,4.26c3.24,2.68,6.34,5.91,9.37,8.89,2.39,2.37,4.77,4.78,7.08,7.23,2.46,2.6,4.7,5.39,7.23,7.93A30.87,30.87,0,0,0,243,55.58c3,1.41,6.41,1.13,9.65,1.25,3.64.14,6.94.69,9.32-2.57,1.37-1.87,3.1-4.83,3.35-7.13a38.83,38.83,0,0,0,.07-4.18,5.93,5.93,0,0,0-.19-4.14,30.35,30.35,0,0,0-2.55-4.33,9.06,9.06,0,0,0-2.94-3,20.43,20.43,0,0,0-7.36-2.74,54.68,54.68,0,0,0-15-.72,80.37,80.37,0,0,0-30.63,9,145.21,145.21,0,0,0-16.58,10.21c-2.92,2.08-5.78,4.37-9.1,5.79a21.66,21.66,0,0,1-8.67,2,35.37,35.37,0,0,1-11.57-2.24,136.2,136.2,0,0,1-14.74-6.37,81.78,81.78,0,0,0-15.37-6.11,27.22,27.22,0,0,0-11.07-.81,43.62,43.62,0,0,0-7.48,1.81c-6.84,2.31-13,6-19.31,9.32A64.77,64.77,0,0,1,82.2,55.2a20.85,20.85,0,0,1-6.91,1.35A7.78,7.78,0,0,1,69.67,56l-3.5-1.54a8.58,8.58,0,0,1-2.89-2.66,19.88,19.88,0,0,1-3.48-7A38.87,38.87,0,0,1,58,33.49a34.65,34.65,0,0,1,.35-5.09,15.18,15.18,0,0,1,5.11-10l-2.39,2.19A29.51,29.51,0,0,1,70,15.69a35.16,35.16,0,0,0,8.09-4.43c.21-.13-2.1-1.33-2.32-1.43-1.15-.53-2.58-1.47-3.88-1.51a14.62,14.62,0,0,0-8.62,2.37,51,51,0,0,0-6.64,5.18c-4,3.48-8.21,6.82-12,10.54A90.39,90.39,0,0,0,32.67,40.8a29.16,29.16,0,0,0-2.06,2.39c-3.37,4.12-6.77,8.23-11.39,11A33.45,33.45,0,0,1,7.83,58.42q1-6.31,2-12.65C11.1,37.89,12.24,29.35,16,22.15,17.51,19.24,19.76,17,21.15,14c.48-1-2.31,1-2,.75C18.07,15.5,17,16.25,15.93,17A7.53,7.53,0,0,0,14.35,18.37Z"/>
    <path class="cls-1" d="M13.74,16.18c-.8,1.49-2.24,2.51-3.26,3.79A24.91,24.91,0,0,0,7,27.14a82.52,82.52,0,0,0-2,8.35c-1.77,8.57-2.73,17.33-4,26,0,.27.16.35.38.35,1.94,0,4.49.1,6.42-.06A29.64,29.64,0,0,0,17,59.09a10.74,10.74,0,0,0,5-2.83,65.56,65.56,0,0,0,7.62-6.9,90.8,90.8,0,0,0,6.85-8.54C37.75,39.15,39,37.5,40.3,35.9l5.63-6.69,14.3-12.63C64.85,12.93,70,8.31,75.94,7.35l-2.54.13,4.09.17-2.43-.24,3.62,1-1.53-1A30.58,30.58,0,0,1,66,15.21a44.52,44.52,0,0,0-7.37,3.61,15.79,15.79,0,0,0-2.43,4A22.27,22.27,0,0,0,54,30.73a40.58,40.58,0,0,0,.26,10.21A39.5,39.5,0,0,0,56.6,51.56,20.26,20.26,0,0,0,60,57.13c3.66,4,9.81,5.93,15.1,5.54a42.78,42.78,0,0,0,16.43-5.08c6-3.14,11.39-7.38,17.31-10.71,6.66-3.76,14.65-6.77,22.44-6.06,8.79.81,17.64,8.45,25.46,12.77,8.91,4.92,19.7,8.62,29.43,3.95,4.94-2.37,8.69-6.34,12.8-9.85a80.33,80.33,0,0,1,22.7-13.63c12.64-4.94,28-7.5,40.81-1.46l-1.65-1q8.25,9.09,2.57,17.94a8.44,8.44,0,0,1-3.63,3.54c-2,.74-4.69.25-6.7.1s-4-.22-5.93-.35a10.79,10.79,0,0,1-4.48-1.72c-5.82-3.31-10.27-8.92-14.41-14-2.32-2.85-4.53-5.79-6.87-8.62a94.53,94.53,0,0,0-11.17-11.89C204.8,12,198.62,7.71,192,5.35a36.9,36.9,0,0,0-8.74-1.87A138.11,138.11,0,0,0,165.9,1.57c-.44,0,.81,2.34.76,2.26.26.48.74,1.83,1.44,1.9A130.27,130.27,0,0,1,185,8a44.25,44.25,0,0,1,17.52,7A50.31,50.31,0,0,1,211,21q3.47,3.32,7,6.59c2.17,2.1,4.26,4.28,6.3,6.5,3.38,3.69,6.5,7.67,9.89,11.34a33.94,33.94,0,0,0,8.23,7c3.34,1.84,7.3,1.62,10.95,2.24,2.46.41,5.32,1,7.61-.43a13.33,13.33,0,0,0,3-3.22c1.82-2.4,1.61-2,2.67-5.19a17.39,17.39,0,0,0,1.23-5.91c-.05-3.77-2.57-6.12-5.42-8.16-3.74-2.69-8.79-3.56-13.23-3.91a67.68,67.68,0,0,0-27.93,4.2,78.62,78.62,0,0,0-17.33,8.71A83.66,83.66,0,0,0,196,46.47a44.1,44.1,0,0,1-18,10.93,33.53,33.53,0,0,1-12.5-1.48c-5.14-1.6-9.9-4.3-14.52-7-6.32-3.66-12.79-8.11-20.15-9.31-6-1-11.52.33-17.13,2.58-8.5,3.41-15.41,9.42-23.42,13.76-5.27,2.86-11.46,5.15-17.53,4.61C66.29,60,61,56.78,58.21,50.29A38.5,38.5,0,0,1,56,41.5a42.33,42.33,0,0,1-.64-11.12,23.26,23.26,0,0,1,1.86-7.52l5.34-5.35q4.11-2,8.37-3.59A40.2,40.2,0,0,0,80.4,8.61c.27-.18,0-.43-.16-.53a8.85,8.85,0,0,0-4.32-1.33,14.89,14.89,0,0,0-3.2.1c-5.52.8-9.8,5-13.9,8.36-3.46,2.88-6.78,5.27-10.08,8.51A98.13,98.13,0,0,0,36.37,38.05c-2.92,4.3-5.57,8.65-9.14,12.47a34.82,34.82,0,0,1-7.7,6.62A32.88,32.88,0,0,1,2.92,60.41l.38.35c1.09-7.17,2-14.36,3.32-21.48.76-4.13,1.42-8.6,2.86-12.56a29.25,29.25,0,0,1,4.4-8.27c1.61-2,.82-.59,2-2.94.25-.49-.69-.24-.74-.23A2.56,2.56,0,0,0,13.74,16.18Z"/>
    <path class="cls-1" d="M15.58,18.28a18.43,18.43,0,0,1-3.36,4.15,30.27,30.27,0,0,0-2.12,3.66C7.06,32.3,6,39.85,4.9,46.55Q4,53,3,59.47-.23,66.9,8.28,63.25a38,38,0,0,0,10.07-4,44.14,44.14,0,0,0,7-6c8.43-8.46,15.09-18.57,24-26.61,3.94-3.59,8.63-6.84,12.87-10.19a54.94,54.94,0,0,1,4.58-3.41,11.68,11.68,0,0,1,9-2.44l-7.37-2,8.39,2.74L67.74,7.24c.23.78,0,1.28-.7,1.49a3.56,3.56,0,0,1-2.23.74l-.15.22-1.77,6.8,1.31-4.44C61,18.71,56.47,24.84,55.28,32.3A39.11,39.11,0,0,0,55,41a41.25,41.25,0,0,0,2.21,12.17,15.42,15.42,0,0,0,7,8.46c10.35,5.91,22.84-.44,31.85-6,4.5-2.79,8.9-5.79,13.74-8a74.27,74.27,0,0,1,8.28-3.1,31.78,31.78,0,0,1,7.61-1.38h-.35l4,.1H129a22.2,22.2,0,0,1,7.18,2,50.57,50.57,0,0,1,7.22,3.4c4,2.14,7.77,4.58,11.75,6.71,7.6,4.08,17.11,8.14,25.89,5.55a27.56,27.56,0,0,0,9.19-5.16c2.15-1.77,4.26-3.59,6.34-5.44l5.36-4a85.39,85.39,0,0,1,17.42-9.4,77.68,77.68,0,0,1,12.19-3.66,65.74,65.74,0,0,1,12.19-1.42h-.35l6.31.18h-.35a23.92,23.92,0,0,1,8.54,1.73,16,16,0,0,1,6.33,4l-5.43-6.56,6,7.77-5.23-8,5.89,10.15-4.5-9.35,4.18,14.56-1.77-9.24,1,12.17-.25-9.36-.78,11.48.94-9.07-2.92,12.27,3.27-9.5-6.18,10.7,5.15-7.73a40.07,40.07,0,0,1-11.73,7.89l7-3.71L252,54.48l4.3-1.3-5.44.88,2.18-.2-17.7-6,4.15,2.44-6.8-4.88,3.67,2.92-7.2-6.29,3.33,3.27c-4.48-4.64-8.73-9.42-13.11-14.15a124,124,0,0,0-9.11-9.09,71.73,71.73,0,0,0-11.82-8.18,33.68,33.68,0,0,0-15-5,132.45,132.45,0,0,0-17.07-2c-.26,0,2,3.51,1.94,3.42.43.61,1.59,2.87,2.56,3,13.06,1.6,24.34,3.23,35.89,11.51L212.37,29q3.09,3,6.35,5.71c5.39,4.57,10.62,9.16,16.29,13.39l-3.68-2.92c3.53,3.66,7.16,7.32,11.72,9.66a9,9,0,0,0,3.27,1.23c2.41.58,4.76.37,7.23.45s5.41.62,7.67-.91c4.09-2.8,4.18-14,4.48-15.9a1.8,1.8,0,0,0-.45-1.23c-.57-1-1.17-1.93-1.79-2.88-.75-1.19-1.52-2.38-2.31-3.55a15.5,15.5,0,0,0-1.75-2.36,20.08,20.08,0,0,0-4.79-2.34,39.39,39.39,0,0,0-8.76-1.44c-17.12-1.27-34.07,4.34-48.76,12.78-3.54,2-7.11,4.16-10.52,6.42-1.89,1.25-3.7,2.62-5.7,3.7a21.88,21.88,0,0,1-10.66,2.86c-5.67-.08-11.27-2.28-16.49-4.28C147.7,45.1,142,42,135.84,40a58,58,0,0,0-12.08-2.92,35.57,35.57,0,0,0-13.62,1.78,98.93,98.93,0,0,0-15.06,6.24c-4.81,2.41-9.6,5-14.79,6.53a21.62,21.62,0,0,1-7.66,1,3,3,0,0,1-2.58-.51,10.87,10.87,0,0,0-1.74-.87c-2.94-1.34-4.6-4.32-5.65-7.26a35.39,35.39,0,0,1-1.84-12.16c0-6.31,1.82-12.4,4.09-18.25l-4.24,6.66a25.67,25.67,0,0,1,8.91-4.79A38.58,38.58,0,0,0,78,11.53a1.54,1.54,0,0,0-1-.72c-.93-.45-1.88-.87-2.83-1.26C73,9,71.83,8.54,70.63,8.06a12.79,12.79,0,0,0-2.55-.87,18.77,18.77,0,0,0-9.22,3.45c-4.2,2.79-7.7,6.54-11.53,9.79A114.66,114.66,0,0,0,34.26,33.71l-7.08,8.46c-1,.83-1.95,1.66-2.94,2.48s-2.11,1.74-3.2,2.57l-1,1.66-1.34,1.51c-2.73,1.94-5.45,3.91-8.15,5.88l.34-.06c2-12.19,3.33-24.79,8.56-36.11l-.15.31C21,17.6,23,15,24.31,12c.52-1.2-2.86,1.53-2.5,1.26-1.4,1.06-2.8,2.14-4.17,3.23A13.29,13.29,0,0,0,15.58,18.28Z"/>
    <path class="cls-1" d="M16,16.18l-.86,1.67.24-.34c-1,1-2,1.9-2.81,2.93-2.34,2.83-3.7,7.43-4.56,10.9C6.61,37,5.65,42.74,4.82,48.5c-.59,4.3-1.24,8.58-1.92,12.86a20,20,0,0,0,8.56-1.61,27.49,27.49,0,0,0,7.28-3.36l3.52-3.06c2.82-2.69,5.23-6.15,7.76-9.11,1.88-2.21,3.77-4.31,5.84-6.35l6.19-6.69A99.22,99.22,0,0,1,54.81,19.35l-.32.22c4.65-3.13,8.72-7,13.57-9.81l-.35.18a12.4,12.4,0,0,1,4.61-1.51l-11.78-.8,15.9,1.84L64,5.79a2.75,2.75,0,0,1-1-.19Q57,3.82,59.41,16l2.05-6.86c-2.66,8.1-5.82,16.32-5.92,25a63.75,63.75,0,0,0,.71,10.23A26,26,0,0,0,58.88,53a14.45,14.45,0,0,0,8.84,6.9c10.24,3.2,20.94-3.29,29.39-8.38a108,108,0,0,1,11.44-6.32,54.62,54.62,0,0,1,15.91-4.46h-.4a23.38,23.38,0,0,1,7.31.67,48,48,0,0,1,6,2.24A146.47,146.47,0,0,1,151.58,51a65.66,65.66,0,0,0,12.73,5.83c4,1.2,8.25,2.21,12.47,1.77,7.55-.8,13-6.18,18.6-10.76a89.56,89.56,0,0,1,16.8-10.63,82.4,82.4,0,0,1,12-4.75,74.34,74.34,0,0,1,12.24-2.63l-.4,0,6.47-.5h-.4c4.41.09,8.87,0,13.14,1.28a30.44,30.44,0,0,1,6,2.63L254.05,27l10.29,9.67-7.26-9.3,7.27,10.5-5.67-10,6.05,16.05-2.81-11.17,1.87,13.06-.64-10.44L263,47.87l.87-10.18-1.62,12,2.14-10-3,11.49,3.34-9.9L260.26,52l5-9.94L254,53.57l9-6.91-10.54,6.43,9.31-4.58-12.48,4.93,9.75-2.82L246.16,53l10.19-1-13.08-.12,10,.76-12.86-2.39,9.85,2.52-12.56-4.47,9.17,4.06L235,46.07l8.54,5.55-11.18-8,6.14,5.21A111.79,111.79,0,0,1,224,35.08l-2.35-2.6c-3-3.21-6-6.25-9.17-9.29A66.76,66.76,0,0,0,194.92,11a25.7,25.7,0,0,0-11.66-3.42,135.29,135.29,0,0,0-17-2A2.31,2.31,0,0,0,166.72,7q1.31,2.42,2.7,4.78c.92,1.58,1.87,3.15,2.85,4.69a2.24,2.24,0,0,0,1,1.11c5.21.76,10.34,1.57,15.46,2.79a27,27,0,0,1,10.7,3.77,43.57,43.57,0,0,1,6,3.51A109.83,109.83,0,0,1,216.83,36c2.51,2.11,5.08,4.14,7.75,6.06a106.53,106.53,0,0,0,9,5.89,52.79,52.79,0,0,0,8.79,4c9.93,3.48,4.48-1.12,22.36-15.12.48-.38-6.89-10.15-8.25-10.79a25.45,25.45,0,0,0-7.76-2.24,73,73,0,0,0-18.8.11A94.06,94.06,0,0,0,205,31c-4,1.72-7.9,3.75-11.72,5.86-3.42,1.89-7,3.75-10.27,5.82-3.16,2-6.24,4.06-9.92,5s-7.75.33-11.38-.58c-3.44-.87-6.93-2.14-10.26-3.34-3.57-1.29-7.06-2.77-10.6-4.12a82.16,82.16,0,0,0-13.67-4,40.3,40.3,0,0,0-9.09-1A50.5,50.5,0,0,0,102.44,38c-4.74,1.72-9.44,3.6-14.07,5.6a54.82,54.82,0,0,1-12.68,4.24A8.93,8.93,0,0,1,68,45.69c-2.07-2-3-5.38-3.52-8.15a34.9,34.9,0,0,1-.55-11c.37-2.6.23-5.22.5-7.84a6.92,6.92,0,0,0-.39-4.61,38.66,38.66,0,0,1-1.3-7.48L59.34,17.2l2.23-1.53a48.42,48.42,0,0,1,4.88-1.92l4-1.45a26.93,26.93,0,0,0,6.34-2.91,2.16,2.16,0,0,0-1.31-.65q-2.58-.79-5.19-1.47C68.6,6.79,66.85,6.35,65.1,6a2.23,2.23,0,0,0-1.46-.08,21.76,21.76,0,0,0-4.5,1.35A34.46,34.46,0,0,0,51,12.88c-2.51,2.16-4.86,4.5-7.32,6.72q-4.22,3.64-8.11,7.63A104.12,104.12,0,0,1,23.4,40.05l3.27-.94a53.85,53.85,0,0,1-7.36,1.13c-1-.19-1.17.22-.43,1.24a10.87,10.87,0,0,1,.17,7.09l.4-2.56L13.7,54l1.84-2L5.82,59l8.75-5.49c1.23-6.88,2.34-13.79,3.88-20.61a70.61,70.61,0,0,1,3.36-11.66,54.13,54.13,0,0,1,3.48-6.83,35.85,35.85,0,0,0,2.83-5.29,2.29,2.29,0,0,0-1.42.49q-2.44,1.32-4.83,2.74c-1.6.92-3.19,1.88-4.75,2.88A2.24,2.24,0,0,0,16,16.18Z"/>
    <path class="cls-1" d="M16,17.45a5.85,5.85,0,0,1-2.08,2.86A11.54,11.54,0,0,0,10.67,25a40.7,40.7,0,0,0-2.75,7.81Q6.38,39.17,5.34,45.67,4.15,54.3,2.82,62.88a25.56,25.56,0,0,0,11-2.06,21.47,21.47,0,0,0,6.71-3.7,64.21,64.21,0,0,0,11-10.52C33,44.77,34.54,43,36.1,41.16a108.93,108.93,0,0,1,11.83-11.8A57.71,57.71,0,0,1,58.52,19.05q2.19-1.64,4.3-3.37a43.73,43.73,0,0,1,6.67-4.61,10.29,10.29,0,0,1,6.86-1.2l-8.95-2,10,2.76-9-3.51a1.8,1.8,0,0,1-1.49,2.18,1.81,1.81,0,0,0-1.86.71c-.74.34-7,13.07-8.56,17.59-2,5.88-1.26,12.57-.35,18.59.6,4,1.82,8.21,4.5,11.33a16.87,16.87,0,0,0,9.24,5.12c6.56,1.52,13.84-1.17,19.61-4,5.3-2.58,10.16-5.91,15.22-8.92a57.69,57.69,0,0,1,13.83-6,24.79,24.79,0,0,1,14.52-.6,50.77,50.77,0,0,1,6,2.36c10,4.39,18.56,11.39,29.27,14.14,4.34,1.12,8.71,1.65,13.09.39,4.14-1.18,7.54-3.67,10.8-6.37,5.12-4.24,10.11-8.41,15.86-11.81a81,81,0,0,1,11.8-5.77A75.81,75.81,0,0,1,232,32.4l-.33.06,6.44-1.07-.33.05c8.73-.63,19-1.4,26.12,4.78l-4.62-5.16,5.88,7L260.07,31l5.73,9.17-4.09-7.43L265.22,41l-2.32-6.18,2.15,8.87-1.38-6.43,1.06,11-.37-8.19-.57,8.69.63-6.25L261.73,53.6l2.85-8.17-5.76,9.41,4.53-6.51a39,39,0,0,1-11.16,6.77l6.26-2.89-8.38,2.52,5-1.38-6.48.67,3.8-.22-14.29-4.39,4.13,2-6.85-4.2,3.74,2.6-7.28-5.82,3.4,3a133.72,133.72,0,0,1-10.71-11.11c-1.62-1.86-3.24-3.7-4.89-5.54a118.13,118.13,0,0,0-9.08-9.1A68.65,68.65,0,0,0,198.77,13a33.61,33.61,0,0,0-15-5A134.3,134.3,0,0,0,166.7,6c-.28,0,1.85,3.7,1.79,3.59.35.57,1.48,3.08,2.42,3.19A120.53,120.53,0,0,1,187,15.3a47.74,47.74,0,0,1,25.39,13.16c3.29,2.73,6.5,5.81,9.73,8.66,3,2.69,6.09,5.36,9.27,7.89,2.61,2.06,4.94,4.45,7.58,6.47a20.47,20.47,0,0,0,9.28,4.31q4.08,0,8.15,0a10.57,10.57,0,0,0,3.84-.38A5.58,5.58,0,0,0,263.07,53c.76-1.3,1.49-2.63,2.17-4,.36-3.39.65-6.8.85-10.21.1-1.21-1.52-2.72-2.18-3.65s-1.49-2.09-2.25-3.11A13,13,0,0,0,260,30,23.53,23.53,0,0,0,250,26.42a63.05,63.05,0,0,0-15.41-.28,82,82,0,0,0-19,4.26c-8.32,2.88-15.89,7.08-23.34,11.7a86.83,86.83,0,0,0-8,5.26,34.47,34.47,0,0,1-5.43,3,20.82,20.82,0,0,1-11.11,1.46,31.49,31.49,0,0,1-8.31-2.2,84.94,84.94,0,0,1-10-3.89q-5.06-2.3-10.15-4.53a59.69,59.69,0,0,0-8.14-2.59,34.88,34.88,0,0,0-10.48-1.51,40.29,40.29,0,0,0-11.73,2.39,115.35,115.35,0,0,0-14.87,6.7c-4.88,2.54-9.87,5.38-15.29,6.58a20,20,0,0,1-7.92.36,28.2,28.2,0,0,0-3.71-1.8c-2.74-1.74-4.29-5.09-5.2-8.07a37.72,37.72,0,0,1-1.49-14,47,47,0,0,1,4.32-14.88l-3.65,5.07A23.74,23.74,0,0,1,70,14.74a41.23,41.23,0,0,0,8.54-4,1.44,1.44,0,0,0-1-.66c-.92-.38-1.86-.74-2.8-1.07-1.17-.44-2.34-.86-3.52-1.25a11.56,11.56,0,0,0-2.51-.7,16.8,16.8,0,0,0-6.68,1.78A38,38,0,0,0,54.94,14c-2.07,1.79-4,3.69-6.1,5.49q-4.19,3.47-8.05,7.31Q34,34.14,28,42.06c-1.34,1.25-2.68,2.5-4,3.74a11.93,11.93,0,0,0-3.55,3.63l-1.61,1.51q-3.77,3.56-7-2.83Q13,39.7,14.9,31.42A56.37,56.37,0,0,1,18.73,20.6c1.51-2.92,3.68-5.33,5-8.32.49-1.1-2.55,1.18-2.22,1q-1.87,1.3-3.69,2.67A9.9,9.9,0,0,0,16,17.45Z"/>
    <path class="cls-1" d="M13.49,20.87c-1.05,1.85-2.29,2.43-3.5,3.89l-1.92,3.4a13.49,13.49,0,0,0-.82,2.05A57.29,57.29,0,0,0,4.51,40.39c-1.68,8.61-2.72,17.32-4,26a.25.25,0,0,0,.22.27l6.58-.1a30.6,30.6,0,0,0,9.35-2.68A11.05,11.05,0,0,0,21.85,61a25.36,25.36,0,0,0,4.09-3.51C31,52.62,34.83,47,39.24,41.56A130.2,130.2,0,0,1,49,30.69,67.34,67.34,0,0,1,60.59,21l2.1-1.57c1.48-1.13,2.93-2.31,4.43-3.42a15,15,0,0,1,4.53-2.59,7.71,7.71,0,0,1,6.65-.89L76.83,12l3,1.51L78.39,12.2a18.41,18.41,0,0,1-6,4.23,45.07,45.07,0,0,1-7.14,3.25A32.69,32.69,0,0,0,60,22.25a2.85,2.85,0,0,0-1.59,1L56,27.14a16.22,16.22,0,0,0-1.79,4.34,32.92,32.92,0,0,0-.89,8.33,49.12,49.12,0,0,0,2.86,16.63,16.6,16.6,0,0,0,9.49,9.72c9.56,3.5,19.55-.23,27.92-5,3.85-2.21,7.48-4.74,11.22-7.13a60.84,60.84,0,0,1,15.54-7.22,24.3,24.3,0,0,1,17.85,1.15c4.86,2.15,9.26,5.14,13.78,7.89,7.25,4.42,15,8.62,23.74,8.83a23.5,23.5,0,0,0,13.6-4c3.59-2.34,6.47-5.49,9.74-8.21l10.9-7.81a59.24,59.24,0,0,1,8.79-4.42c10.37-4.5,21.72-6.87,33-5.73a23.8,23.8,0,0,1,10.42,3.13l1,15.64a6.69,6.69,0,0,1-5.66,4.28l-2.26.13c-1.88-.09-3.76-.14-5.64-.17l-9.78-3.13a23.93,23.93,0,0,1-4.17-3.61C230.89,45.9,227,40.24,222.8,34.9c-2-2.59-4.14-5.18-6.39-7.58-3.81-4.06-7.8-8.16-12.47-11.24l-6.13-3.71a33.21,33.21,0,0,0-15.25-4.88,151.48,151.48,0,0,0-17.39-1.86c-.59,0-.68.86-.2.89a94.68,94.68,0,0,1,32.43,6.61,62.55,62.55,0,0,1,11.68,8,108.18,108.18,0,0,1,11,11.64c2.23,2.71,4.35,5.5,6.49,8.29,3,3.91,5.9,8.19,9.53,11.57a23,23,0,0,0,9.16,5.75c2.07.32,4.14.63,6.21.91a31.91,31.91,0,0,0,3.88.6,9.65,9.65,0,0,0,3.43,0c2.15-.5,3.31-2.06,4.61-3.73a6.76,6.76,0,0,0,1.68-2.37,31,31,0,0,0,1.61-4.47c1-3.38,1-6.43-.89-9.43a15,15,0,0,0-7.36-5.67c-3.29-1.31-4.63-1.48-8.7-1.83a63.05,63.05,0,0,0-21.05,2,83.83,83.83,0,0,0-31.81,16.26c-3.13,2.54-6.08,5.3-9.56,7.39-6.68,4-15.25,4-22.51,1.63a80.27,80.27,0,0,1-14.36-6.73,127.07,127.07,0,0,0-13.54-7.19,26.65,26.65,0,0,0-18.4-.75A58.66,58.66,0,0,0,107,49.9c-4.23,2.33-8.08,5.27-12.27,7.68-8.29,4.77-18.62,9.41-28.1,5.34-5.37-2.31-8.78-7.45-10.11-13-1.15-4.82-2.13-10.16-1.73-15.09a9.55,9.55,0,0,1,3.88-8.31,9.21,9.21,0,0,1,6.93-6q5.1-1.79,10-4.05a46.39,46.39,0,0,0,4.84-2.88c.73-.44-1.1-1.3-1.29-1.39A10.32,10.32,0,0,0,76.7,11.2a11.16,11.16,0,0,0-8,1.74A86.87,86.87,0,0,0,60,19.5c-2.07,1.64-4.08,3.14-6.11,4.86A99.73,99.73,0,0,0,39,39.89c-2.91,3.82-5.51,7.87-8.58,11.56l-6.95,7.16-9.72,5.1L8,64.8,4.1,56.36l1.17-8.6,1.56-8.59a60.48,60.48,0,0,1,1.46-6.26,17.45,17.45,0,0,1,2.16-5.45,6.44,6.44,0,0,1,2.12-4c.37-.37.76-.73,1.14-1.1a7.79,7.79,0,0,0,1.82-2.51c.25-.44-.08-.46-.39-.45S13.69,20.52,13.49,20.87Z"/>
  </g>
  <g id="SE_VORES_UDVALG" data-name="SE VORES UDVALG" class="cls-2">
    <g class="cls-2">
      <path d="M32.79,50.75a9.31,9.31,0,0,1-5.16-1.33,8.4,8.4,0,0,1-3.12-3.68,15.21,15.21,0,0,1-1.24-5.44l4.43-1.2a20.19,20.19,0,0,0,.6,3.68,6.7,6.7,0,0,0,1.52,2.9,3.9,3.9,0,0,0,3,1.13,3.8,3.8,0,0,0,3-1.09,4.46,4.46,0,0,0,1-3.12,6.37,6.37,0,0,0-1.11-3.92,20.57,20.57,0,0,0-2.79-3l-6-5.32A10,10,0,0,1,24.2,27a10.89,10.89,0,0,1-.84-4.54,8.06,8.06,0,0,1,2.26-6.11,8.47,8.47,0,0,1,6.15-2.17,11.57,11.57,0,0,1,3.75.55,6.51,6.51,0,0,1,2.7,1.71A8.44,8.44,0,0,1,40,19.32a16.43,16.43,0,0,1,.86,4.1l-4.25,1.15A18.35,18.35,0,0,0,36,21.31a4.86,4.86,0,0,0-1.4-2.39A4.12,4.12,0,0,0,31.77,18a4,4,0,0,0-2.9,1,3.9,3.9,0,0,0-1,2.94,5.71,5.71,0,0,0,.56,2.71,7.69,7.69,0,0,0,1.79,2.17l6.07,5.31a19.5,19.5,0,0,1,3.59,4.23,10.75,10.75,0,0,1,1.55,5.83,9,9,0,0,1-1.11,4.58,7.44,7.44,0,0,1-3,2.95A9.34,9.34,0,0,1,32.79,50.75Z"/>
      <path d="M46.08,50.35V14.47H60v3.72h-8.9V30.06h7.22v3.55H51.09V46.76h9v3.59Z"/>
      <path d="M73.9,50.35l7.62-35.88h4.83L94,50.35H89.27l-1.63-9H80.33l-1.73,9ZM81,37.73h6L84,21.56Z"/>
      <path d="M106.91,50.75a9.29,9.29,0,0,1-5.16-1.33,8.36,8.36,0,0,1-3.13-3.68,15.21,15.21,0,0,1-1.24-5.44l4.43-1.2a20.19,20.19,0,0,0,.6,3.68,6.61,6.61,0,0,0,1.53,2.9,3.9,3.9,0,0,0,3,1.13,3.76,3.76,0,0,0,2.94-1.09,4.42,4.42,0,0,0,1-3.12,6.37,6.37,0,0,0-1.11-3.92,20.57,20.57,0,0,0-2.79-3l-6-5.32A10,10,0,0,1,98.31,27a10.89,10.89,0,0,1-.84-4.54,8.06,8.06,0,0,1,2.26-6.11,8.51,8.51,0,0,1,6.16-2.17,11.51,11.51,0,0,1,3.74.55,6.51,6.51,0,0,1,2.7,1.71,8.29,8.29,0,0,1,1.73,2.9,16,16,0,0,1,.86,4.1l-4.25,1.15a17.48,17.48,0,0,0-.53-3.26,4.86,4.86,0,0,0-1.4-2.39,4.1,4.1,0,0,0-2.85-.91,4,4,0,0,0-2.9,1,3.87,3.87,0,0,0-1,2.94,5.83,5.83,0,0,0,.56,2.71,8,8,0,0,0,1.79,2.17l6.07,5.31A19.23,19.23,0,0,1,114,36.37a10.75,10.75,0,0,1,1.55,5.83,9,9,0,0,1-1.11,4.58,7.48,7.48,0,0,1-3,2.95A9.39,9.39,0,0,1,106.91,50.75Z"/>
      <path d="M128.66,50.75a9.29,9.29,0,0,1-5.16-1.33,8.36,8.36,0,0,1-3.13-3.68,15.21,15.21,0,0,1-1.24-5.44l4.43-1.2a20.19,20.19,0,0,0,.6,3.68,6.61,6.61,0,0,0,1.53,2.9,3.9,3.9,0,0,0,3,1.13,3.76,3.76,0,0,0,2.94-1.09,4.42,4.42,0,0,0,1-3.12,6.37,6.37,0,0,0-1.11-3.92,20.57,20.57,0,0,0-2.79-3l-6-5.32A10,10,0,0,1,120.06,27a10.89,10.89,0,0,1-.84-4.54,8.06,8.06,0,0,1,2.26-6.11,8.51,8.51,0,0,1,6.16-2.17,11.51,11.51,0,0,1,3.74.55,6.51,6.51,0,0,1,2.7,1.71,8.29,8.29,0,0,1,1.73,2.9,16.41,16.41,0,0,1,.87,4.1l-4.26,1.15a17.48,17.48,0,0,0-.53-3.26,4.84,4.84,0,0,0-1.39-2.39,4.14,4.14,0,0,0-2.86-.91,4,4,0,0,0-2.9,1,3.86,3.86,0,0,0-1,2.94,5.83,5.83,0,0,0,.55,2.71A8,8,0,0,0,126,26.83l6.07,5.31a19.23,19.23,0,0,1,3.59,4.23,10.75,10.75,0,0,1,1.55,5.83,9,9,0,0,1-1.11,4.58,7.42,7.42,0,0,1-3,2.95A9.39,9.39,0,0,1,128.66,50.75Z"/>
      <path d="M142,50.35V14.47h13.91v3.72H147V30.06h7.22v3.55H147V46.76h9v3.59Z"/>
      <path d="M164.72,50.35V18.19h-6.07V14.47h17v3.72h-5.9V50.35Z"/>
      <path d="M179.87,50.35V14.47h5V46.76H194v3.59Z"/>
      <path d="M198.52,50.35V14.47h4.91V50.35Z"/>
      <path d="M218.5,50.75a9.29,9.29,0,0,1-5.16-1.33,8.36,8.36,0,0,1-3.13-3.68A15.21,15.21,0,0,1,209,40.3l4.43-1.2a20.19,20.19,0,0,0,.6,3.68,6.61,6.61,0,0,0,1.53,2.9,3.9,3.9,0,0,0,3,1.13,3.76,3.76,0,0,0,2.94-1.09,4.42,4.42,0,0,0,1-3.12,6.37,6.37,0,0,0-1.11-3.92,20.57,20.57,0,0,0-2.79-3l-6-5.32A10,10,0,0,1,209.9,27a10.89,10.89,0,0,1-.84-4.54,8.06,8.06,0,0,1,2.26-6.11,8.51,8.51,0,0,1,6.16-2.17,11.51,11.51,0,0,1,3.74.55,6.51,6.51,0,0,1,2.7,1.71,8.29,8.29,0,0,1,1.73,2.9,16,16,0,0,1,.86,4.1l-4.25,1.15a17.48,17.48,0,0,0-.53-3.26,4.84,4.84,0,0,0-1.39-2.39,4.14,4.14,0,0,0-2.86-.91,4,4,0,0,0-2.9,1,3.86,3.86,0,0,0-1,2.94,5.83,5.83,0,0,0,.55,2.71,8,8,0,0,0,1.79,2.17L222,32.14a19.23,19.23,0,0,1,3.59,4.23,10.75,10.75,0,0,1,1.55,5.83A9,9,0,0,1,226,46.78a7.42,7.42,0,0,1-3,2.95A9.39,9.39,0,0,1,218.5,50.75Z"/>
      <path d="M235.73,50.35V18.19h-6.07V14.47h17v3.72h-5.9V50.35Z"/>
      <path d="M250.88,50.35V14.47h13.91v3.72h-8.9V30.06h7.22v3.55h-7.22V46.76h9v3.59Z"/>
    </g>
  </g>
</svg>
