<svg id="Layer_1" data-name="Layer 1" xmlns="http://www.w3.org/2000/svg" viewBox="0 0 299.79 65.54">
  <defs>
    <style>
      .cls-1 {
        fill: #f392cc;
        opacity: 0.11;
      }

      .cls-2 {
        isolation: isolate;
      }
    </style>
  </defs>
  <title>seassetliste</title>
  <g>
    <path class="cls-1" d="M23.82,35.32a5,5,0,0,0,1.43,3.13,8.58,8.58,0,0,0,3.1,2.88,26.63,26.63,0,0,0,9.26,3.43A106.76,106.76,0,0,0,55.26,46.7a75.05,75.05,0,0,0,16.05-1.24c6.09-1.06,12-2.83,18.07-4.21a192,192,0,0,1,20.54-3.38l8.79-1a141.19,141.19,0,0,1,18.85-.55l-.36,0,10.46.7-.36,0,10.47,1.16-.36,0,10.46,1.46-.36-.06c12.3,1.86,24.6,3.54,36.94,5.14,8.69,1.14,17.55,2.43,26.34,1.78,8-.6,16.44-1.45,24-4.4a28.92,28.92,0,0,0,6.54-3.48,18.11,18.11,0,0,0,5-5.45,18.51,18.51,0,0,0,1.64-8.79,6.54,6.54,0,0,0-2.31-5.38,14.24,14.24,0,0,0-5.09-3.55A20.62,20.62,0,0,0,253.72,14a20.19,20.19,0,0,0-6.45,2.4c-.49.23,2.82,5.72,2.78,5.65q1.22,2.16,2.52,4.28a1.94,1.94,0,0,0,.92,1,1.82,1.82,0,0,1,1.85-2,.91.91,0,0,1,1,1l.13-.33A1.42,1.42,0,0,0,256,27.7a1.27,1.27,0,0,1,0,1c-.17,1.35-1.17,1.95-2.11,2.74l-1.81,1.62a27.23,27.23,0,0,1-3.71,1.84,35.71,35.71,0,0,1-7.71,2.26,119.23,119.23,0,0,1-15,1.55,144.23,144.23,0,0,1-27.07-1.4c-13.39-1.71-26.78-3.47-40.18-5.1-8.6-1-17.2-1.86-25.85-2.18a186.67,186.67,0,0,0-24.23.74c-6.72.62-13.47,1.35-20.15,2.3-4.65.66-9.24,1.6-13.86,2.41-3.65.64-7.3,1.3-11,1.78a89.83,89.83,0,0,1-18.33.19l.32.13a5.92,5.92,0,0,0-2.64-1.46A17.13,17.13,0,0,1,40.29,35a5.54,5.54,0,0,0-2.23-.87l-1.28-.68a7.58,7.58,0,0,0-2.43-1.76c-1.35-1.23-1.53-2.44-1.51-4.24A1.75,1.75,0,0,0,31.7,28c-1.23,1-2.43,2-3.62,3.06s-2.36,2.09-3.51,3.18A1.78,1.78,0,0,0,23.82,35.32Z"/>
    <path class="cls-1" d="M24,37.14a7,7,0,0,0,2.18,4.26A17.77,17.77,0,0,0,31.48,45a41.9,41.9,0,0,0,10,2.69,89.9,89.9,0,0,0,31-.1c8.1-1.53,15.94-4.14,24-5.65,7.74-1.44,15.63-2.4,23.47-3.08a167.09,167.09,0,0,1,34,.75c11.81,1.36,23.52,3.44,35.29,5q11.43,1.56,22.91,2.93a100.32,100.32,0,0,0,22.71.62c8.3-.87,17.11-1.75,24.55-5.83,3-1.66,6.5-4.36,8-7.58a21.69,21.69,0,0,0,1.41-6,14.75,14.75,0,0,0-.72-6A14.5,14.5,0,0,0,261,16.93a18.47,18.47,0,0,0-6.63-1.1,18.74,18.74,0,0,0-6.19,2.26c-.46.22,3,5.25,3,5.27a13.73,13.73,0,0,0,1.8,2.54c.2.19.6.74.56.1l-.09-1.2-.06,1c.25.26.52.12.8-.4a2.42,2.42,0,0,1,2-.68l.91.44a1.15,1.15,0,0,1,.21,1.37,1.79,1.79,0,0,0,.09,1.62l-.2,1.24c-.39,1.4-2.88,3.45-3.86,4.18a25.45,25.45,0,0,1-8.2,3.54,58.85,58.85,0,0,1-8.43,1.61,125.09,125.09,0,0,1-20.65,1c-5.47-.26-10.92-.82-16.35-1.51-6.54-.83-13.06-1.72-19.61-2.5-20.49-2.47-41.05-6.11-61.77-4.88A292.61,292.61,0,0,0,80.9,35.38c-5.46,1-11,2.31-16.52,3l-5.65.57a71.22,71.22,0,0,1-13.06,0l.33.16c-2.47-1.73-5.6-2.19-8.33-3.45l-1.49-.8a12.56,12.56,0,0,0-2.7-2c-1.4-1.33-1.63-2.62-1.63-4.53a1.69,1.69,0,0,0-1,.72q-1.62,1.68-3.15,3.43t-3,3.52A1.74,1.74,0,0,0,24,37.14Z"/>
    <path class="cls-1" d="M20.3,36.9a9.85,9.85,0,0,0,3.32,4.43,15.25,15.25,0,0,0,3,2,39.07,39.07,0,0,0,11,3.8,65.93,65.93,0,0,0,10.76,1.15c4.09.16,8.24.31,12.33.23,8.61-.17,17.06-2.63,25.32-4.83,4-1.14,8-2.13,12-3q11.61-2,23.33-3.17c13-1.14,25.9-.2,38.84,1.55,11.73,1.58,23.37,3.73,35.11,5.23,13.52,1.72,27.27,4.4,40.92,2.8,9.14-1.07,18.74-2.28,26.57-7.49a19.41,19.41,0,0,0,6.77-7.28,19.84,19.84,0,0,0,1.56-10.7,10,10,0,0,0-2.75-6.4,15.8,15.8,0,0,0-6.15-4.44,20,20,0,0,0-8.34-1.39,25,25,0,0,0-8.41,2.35c-.52.19.48,2.13,1.08,2a30.2,30.2,0,0,1,11-.84A15.7,15.7,0,0,1,266,17a6.3,6.3,0,0,1,2.48,5l.19,3.09q0,7.17-6,12.3l-3.09,2c-6.33,3.83-14.18,4.91-21.37,5.85a102,102,0,0,1-19.14.52q-6.54-.59-13-1.51l-11.48-1.44c-20.14-2.54-40.13-7-60.51-7.18a191.91,191.91,0,0,0-26.87,2.09c-4.5.58-8.92,1.3-13.34,2.32-12.26,2.81-24,7.12-36.77,7C53,47,49,47,44.92,46.72c-8.56-.62-18.13-2.89-23.64-10.55C21,35.71,20,36.43,20.3,36.9Z"/>
    <path class="cls-1" d="M21,41.9c.28.82.56,1.64.85,2.46a12.87,12.87,0,0,0,4.49,4.31c4.32,2.76,9.78,4,14.79,4.67a106.15,106.15,0,0,0,12.73.7A61.61,61.61,0,0,0,67,53.59,120.14,120.14,0,0,0,79.8,51c8-2,15.75-4.39,23.87-5.61a222.2,222.2,0,0,1,26.24-2.7c13.46-.4,26.82,1.5,40.09,3.52,12.15,1.86,24.27,3.62,36.47,5.18,8.72,1.11,17.59,2.45,26.41,1.71,4.43-.38,8.9-.94,13.27-1.76,7.6-1.41,15.92-3.75,21-9.91a17.68,17.68,0,0,0,4-10.85,18.1,18.1,0,0,0-.9-6.93A17.58,17.58,0,0,0,265.13,18a19.21,19.21,0,0,0-12-3.54c-2.72.24-5.65,1.75-8.08,2.82-.37.16-.44.79,0,.59,7.53-3.29,13.22-3.33,19.22,1,5.41,3.87,5.55,12.1,2.92,17.79a21.89,21.89,0,0,1-5.17,5.6l-3.25,1.93c-5.58,3-12,4.11-18.27,5-3.19.44-6.42.74-9.63,1-6.64.5-13.32-.21-19.91-.94-7.64-.84-15.28-1.82-22.9-2.82-11.72-1.52-23.35-3.58-35.09-4.89a164.41,164.41,0,0,0-29.34-1,237.45,237.45,0,0,0-24.65,3c-12.32,2.16-24.18,6.47-36.73,7.33a106.25,106.25,0,0,1-13.47-.15,58.26,58.26,0,0,1-9.48-1.21,34.78,34.78,0,0,1-9.85-3.6A12.3,12.3,0,0,1,26,43.2a8.76,8.76,0,0,1-2.43-4.28c-.14-.36-1.16.89-1.24,1C22.06,40.24,20.85,41.4,21,41.9Z"/>
    <path class="cls-1" d="M23.35,37.9a7.06,7.06,0,0,0,2.24,4.25,18,18,0,0,0,5.35,3.56A42.05,42.05,0,0,0,41,48.26,92.24,92.24,0,0,0,71.8,48c8.06-1.54,15.87-4.16,23.94-5.66,7.73-1.45,15.62-2.39,23.45-3.08a168.11,168.11,0,0,1,34,.78c11.83,1.36,23.54,3.44,35.33,5.05q11.44,1.57,22.92,2.95a99.58,99.58,0,0,0,22.69.6c8.27-.88,17.06-1.76,24.45-5.86,3-1.64,6.46-4.38,7.92-7.58a22.94,22.94,0,0,0,1.26-6A14.87,14.87,0,0,0,267,23.4a14.52,14.52,0,0,0-7.17-5.59,19.49,19.49,0,0,0-6.51-1.11,18,18,0,0,0-6.06,2.46c-.51.25,2.43,5.15,2.41,5.12A31,31,0,0,0,252.76,29c.94-3.16,1.72-4.08,2.32-2.73.2.19.18.38,0,.57a.85.85,0,0,0,.1,1.22l-.14,1a2.87,2.87,0,0,1-1.27,1.53,22.05,22.05,0,0,0-2.37,2,27,27,0,0,1-5,2.37c-5.15,2-10.88,2.37-16.33,2.77-3,.22-6,.53-9.07.58a138.84,138.84,0,0,1-16.3-.85c-5.35-.54-10.64-1.4-16-2.09-8.5-1.11-17-2-25.53-3.1S146,30.24,137.31,29.79a197.88,197.88,0,0,0-25.07.23,333.81,333.81,0,0,0-35.51,4.47c-4.5.82-9,1.7-13.58,2.25l-5.57.49A67.57,67.57,0,0,1,44.86,37l.35.22a5.12,5.12,0,0,0-2.58-1.5A15.8,15.8,0,0,1,40.2,34.6,6.51,6.51,0,0,0,38,33.73L36.79,33a7.43,7.43,0,0,0-2.31-1.82c-1.3-1.29-1.39-2.54-1.31-4.32a2.51,2.51,0,0,0-1.26.95q-2,2.12-3.94,4.31t-3.82,4.41A2.54,2.54,0,0,0,23.35,37.9Z"/>
    <path class="cls-1" d="M24,36a6.89,6.89,0,0,0,2.2,4.18,17.65,17.65,0,0,0,5.21,3.45,41.39,41.39,0,0,0,9.73,2.54,89.43,89.43,0,0,0,30.53,0c8.07-1.48,15.9-4,24-5.53,7.74-1.43,15.63-2.37,23.46-3.06a168.75,168.75,0,0,1,34,.71c11.82,1.34,23.53,3.39,35.32,5q11.43,1.56,22.9,2.93a102,102,0,0,0,22.7.64c8.28-.84,17.06-1.7,24.51-5.7,3-1.62,6.51-4.27,8.07-7.44A21.87,21.87,0,0,0,268,27.88a15.24,15.24,0,0,0-.56-6,14.33,14.33,0,0,0-7-5.74,20.38,20.38,0,0,0-6.65-1.27,20,20,0,0,0-6.32,2.44C247,17.59,250.05,23,250,23a30.48,30.48,0,0,0,3.23,5.3l.62-2.27-.26.24c1-.43,1.67-.85,2,.3l.16-.32a1.12,1.12,0,0,0-.48,1.51,1.14,1.14,0,0,1,0,1c-.16,1.3-1.15,1.82-2.06,2.56l-1.78,1.57a26.42,26.42,0,0,1-3.67,1.78,35.73,35.73,0,0,1-7.66,2.21,122.4,122.4,0,0,1-14.92,1.5,144.87,144.87,0,0,1-27.05-1.41c-13.39-1.71-26.78-3.47-40.19-5.08-8.61-1-17.22-1.83-25.88-2.15a190.39,190.39,0,0,0-24.24.75c-6.71.62-13.45,1.34-20.12,2.28-4.63.65-9.21,1.57-13.81,2.37-3.62.62-7.26,1.26-10.91,1.73A89.08,89.08,0,0,1,44.89,37l.34.17a5.59,5.59,0,0,0-2.57-1.5,17.17,17.17,0,0,1-2.39-1.19,5.12,5.12,0,0,0-2.13-.87l-1.22-.68a6.68,6.68,0,0,0-2.3-1.75c-1.32-1.24-1.44-2.45-1.38-4.22a2,2,0,0,0-1.18.73q-1.91,1.72-3.72,3.52t-3.61,3.62A2,2,0,0,0,24,36Z"/>
    <path class="cls-1" d="M22,39.78a7.08,7.08,0,0,0,2.32,4.36,18,18,0,0,0,5.58,3.56,43.76,43.76,0,0,0,10.54,2.86A93,93,0,0,0,72.29,50c6.15-1.21,12.16-3,18.23-4.51a110.43,110.43,0,0,1,11.82-2.39q8.75-1.22,17.55-2.14l28.63.2q10.11,1,20.15,2.63c11.2,1.68,22.37,3.32,33.59,4.8,7.58,1,15.19,2.17,22.85,2.3a91.77,91.77,0,0,0,12.76-.81c8.32-1,17.76-2.37,24.62-7.67a17.39,17.39,0,0,0,6.85-15.28,9,9,0,0,0-2.41-5.9,15.58,15.58,0,0,0-8.76-5.38c-4.06-.88-7.52,0-11.37,1-.67.19.54.89.58.91a5.6,5.6,0,0,0,2.51,1.13,15.06,15.06,0,0,1,5.59.39,8.79,8.79,0,0,1,4.64,1.23,7.87,7.87,0,0,1,3.68,7.59c-.73,7.22-8,11.3-14.21,13.26a68.18,68.18,0,0,1-14,2.54c-3.13.32-6.26.66-9.41.81-8.71.41-17.57-.74-26.18-1.91-10.43-1.41-20.87-2.73-31.29-4.18C156.88,37,145,35.37,133,35.15A202,202,0,0,0,105.26,37q-7.26.69-14.41,2-5.77,1.17-11.5,2.49c-12.32,2.69-25.51,5.13-38,1.94a29.88,29.88,0,0,1-9.3-3.94,9.26,9.26,0,0,1-3.18-2.65,5.77,5.77,0,0,1-1.12-3.74,1.07,1.07,0,0,0-.83.51c-.81.84-1.59,1.7-2.34,2.59C24.25,36.6,21.75,38.91,22,39.78Z"/>
    <path class="cls-1" d="M21.75,37.73a9.36,9.36,0,0,0,3,4.76,21.67,21.67,0,0,0,6.12,3.76,46.63,46.63,0,0,0,15,3.17c9.52.67,19.1.65,28.48-1.29,8.16-1.69,16-4.48,24.22-6.09a222.72,222.72,0,0,1,23.44-3.24c13-1.16,25.93-.24,38.89,1.51,11.74,1.58,23.4,3.74,35.16,5.25,8.14,1,16.29,2.34,24.48,3A94.58,94.58,0,0,0,240,48c8.49-1.08,17.93-2.54,24.81-8,1.76-1.41,4.34-4.09,5.24-6.19a20.42,20.42,0,0,0,1.61-10.37,10,10,0,0,0-2.71-6.4,16,16,0,0,0-6.06-4.54A19.33,19.33,0,0,0,254.79,11a26.94,26.94,0,0,0-8.7,2.12c-.56.19,0,1.57.59,1.49,4.47-.71,8.66-1.23,13,.31,3.13,1.11,6.55,3.37,7.85,6.61,1,2.38.64,6.3,0,8.68-1.75,6.49-6.65,9.52-12.05,11.85a56,56,0,0,1-14.27,3.47c-3.08.43-6.18.83-9.28,1.07-6.56.51-13.31-.14-19.81-.89-9.37-1.08-18.75-2.26-28.08-3.64-11.8-1.74-23.6-3.91-35.49-4.91A163.47,163.47,0,0,0,119.63,37a208.44,208.44,0,0,0-23.2,3.24C89.61,41.64,83,43.77,76.18,45.36a85.71,85.71,0,0,1-9.24,1.82,64.53,64.53,0,0,1-12.73.44,97.93,97.93,0,0,1-12-.56,39.84,39.84,0,0,1-10.29-2.75,20.13,20.13,0,0,1-5.43-3.48,11.28,11.28,0,0,1-3.07-4.46C23.2,35.94,21.59,37.37,21.75,37.73Z"/>
    <path class="cls-1" d="M23,39.67A7.07,7.07,0,0,0,25.26,44a18,18,0,0,0,5.48,3.62,42,42,0,0,0,10.35,2.73A92,92,0,0,0,72.54,50c8.1-1.59,15.95-4.28,24.06-5.82,7.73-1.46,15.62-2.42,23.45-3.11a165.76,165.76,0,0,1,34,.81c11.81,1.38,23.51,3.49,35.28,5.12q11.43,1.57,22.89,3a98.15,98.15,0,0,0,22.72.58c8.3-.92,17.13-1.83,24.54-6,3.1-1.74,6.39-4.45,8-7.73a19.67,19.67,0,0,0,1.48-6.18,14.27,14.27,0,0,0-.79-5.94A15.15,15.15,0,0,0,261,18.37a16.85,16.85,0,0,0-6.61-1.28,17.31,17.31,0,0,0-6.24,1.81c-.28.11,1.59,1.78,1.77,1.93.59.51,1.2,1,1.81,1.48a4.83,4.83,0,0,0,1.38.9,2.58,2.58,0,0,0,2.31.27,2.91,2.91,0,0,1,2.37.21,3.38,3.38,0,0,1,1.73,3.13,11,11,0,0,1-.32,3.58c-.59,1.65-3.06,3.8-4.34,4.76a26.77,26.77,0,0,1-8.43,3.73,57.84,57.84,0,0,1-8.54,1.69,123.17,123.17,0,0,1-20.84,1.13c-5.46-.26-10.9-.82-16.33-1.51-6.5-.82-13-1.74-19.48-2.53-20.42-2.49-40.9-6.25-61.57-5a275.06,275.06,0,0,0-37.4,4.61c-5.57,1.1-11.18,2.46-16.82,3.16L59.75,41a79.87,79.87,0,0,1-13.83.33l.33.17c-2.76-1.81-6.28-2-9.28-3.43l-1.73-.91a23.23,23.23,0,0,0-3-2.19L31.09,33.7a5,5,0,0,1-.71-3.45,1.75,1.75,0,0,0-1,.8q-1.53,1.8-3,3.68T23.57,38.5A1.69,1.69,0,0,0,23,39.67Z"/>
    <path class="cls-1" d="M23.5,36.93a7,7,0,0,0,2.23,4.21A18,18,0,0,0,31,44.63a41.67,41.67,0,0,0,9.91,2.51A91.43,91.43,0,0,0,71.54,47c8.06-1.52,15.88-4.1,23.94-5.59,7.73-1.43,15.61-2.38,23.44-3.07a169,169,0,0,1,34,.74c11.82,1.35,23.54,3.42,35.33,5q11.43,1.56,22.9,2.94a100.83,100.83,0,0,0,22.7.62c8.26-.86,17-1.72,24.46-5.76,3-1.63,6.48-4.31,8-7.49a21.89,21.89,0,0,0,1.36-5.87,15,15,0,0,0-.64-5.88A14.42,14.42,0,0,0,260,17a20.15,20.15,0,0,0-6.57-1.21,19,19,0,0,0-6.2,2.42c-.5.25,2.59,5.46,2.56,5.42A29,29,0,0,0,253,28.72l.46-2.49-.26.21c1.23-.92,2-.87,2.14.14l.17-.31a1,1,0,0,0-.44,1.44,1.08,1.08,0,0,1,.06,1c-.14,1.28-1.11,1.8-2,2.52l-1.75,1.57a27.35,27.35,0,0,1-3.65,1.78,36,36,0,0,1-7.63,2.2,124.08,124.08,0,0,1-14.9,1.5,144.86,144.86,0,0,1-27.05-1.4c-13.38-1.72-26.76-3.48-40.16-5.08-8.61-1-17.23-1.84-25.89-2.16a190.71,190.71,0,0,0-24.26.75c-6.7.61-13.43,1.32-20.09,2.25C83.12,33.25,78.56,34.18,74,35c-3.62.63-7.25,1.27-10.89,1.74a90.94,90.94,0,0,1-18.22.2l.34.2a5.22,5.22,0,0,0-2.55-1.5,16,16,0,0,1-2.39-1.16,5.66,5.66,0,0,0-2.13-.86l-1.23-.69a7,7,0,0,0-2.3-1.77c-1.3-1.26-1.41-2.49-1.34-4.26a2.32,2.32,0,0,0-1.23.85c-1.33,1.28-2.64,2.58-3.91,3.92s-2.56,2.66-3.8,4A2.27,2.27,0,0,0,23.5,36.93Z"/>
    <path class="cls-1" d="M23.5,38.74a7,7,0,0,0,2.22,4.32,17.83,17.83,0,0,0,5.41,3.58,42,42,0,0,0,10.28,2.8,91.35,91.35,0,0,0,31.51-.31c8.12-1.57,16-4.24,24.1-5.78,7.74-1.47,15.63-2.43,23.47-3.12a165.59,165.59,0,0,1,34,.79c11.8,1.37,23.49,3.47,35.26,5.09q11.43,1.57,22.89,3a98.71,98.71,0,0,0,22.72.6c8.32-.9,17.15-1.81,24.59-5.94C263.05,42,266.35,39.31,268,36a20.25,20.25,0,0,0,1.57-6.16,14.53,14.53,0,0,0-.76-6,15.42,15.42,0,0,0-7.24-6.42,17.23,17.23,0,0,0-6.76-1.33A18.14,18.14,0,0,0,248.43,18c-.39.16,2.25,2.57,2.17,2.49.52.47,1.81,2,2.68,1.94a3.44,3.44,0,0,0,2.33.28,3.53,3.53,0,0,1,2.57.39,4.13,4.13,0,0,1,2,3.4,9.81,9.81,0,0,1-.24,3.78c-.58,1.75-3,4-4.34,5a26.54,26.54,0,0,1-8.47,3.86,58.26,58.26,0,0,1-8.58,1.75,121.28,121.28,0,0,1-20.85,1.19c-5.47-.26-10.92-.83-16.34-1.51-6.51-.82-13-1.74-19.52-2.54-20.4-2.52-40.86-6.33-61.51-5.12a266.23,266.23,0,0,0-37.44,4.69C77.33,38.71,71.71,40.1,66,40.84l-5.75.63a80.1,80.1,0,0,1-13.85.44l.32.11c-3-1.69-6.62-1.89-9.78-3.29l-1.84-.93a31.12,31.12,0,0,0-3.21-2.23l-1.2-1.31a5.1,5.1,0,0,1-.81-3.49,1.39,1.39,0,0,0-.91.65c-.89,1-1.76,2-2.6,3.1C26,35,23.22,37.77,23.5,38.74Z"/>
    <path class="cls-1" d="M21.47,42.6a17.72,17.72,0,0,0,.92,2.46A14,14,0,0,0,27,49.43c4.33,2.75,9.81,3.93,14.82,4.58a109.36,109.36,0,0,0,12.79.66,89.09,89.09,0,0,0,13.17-.47,114.24,114.24,0,0,0,12.69-2.62c7.94-2,15.73-4.36,23.83-5.65,12-1.89,24.23-3.11,36.36-2.58,13.46.58,26.79,3,40.09,5,12,1.86,24.1,3.52,36.19,4.78a96.67,96.67,0,0,0,21.17,0c3.61-.42,7.19-.93,10.74-1.68,8.48-1.78,19-5.65,21.82-14.8a22.7,22.7,0,0,0,1-7.41,9.11,9.11,0,0,0-.46-3.47,4.66,4.66,0,0,0-1.52-3.26,9.65,9.65,0,0,0-2.65-2.93,18,18,0,0,0-7.14-3.91,10.61,10.61,0,0,0-4.2-.77,6.09,6.09,0,0,0-4.2.39c-3.26.92-1.65.39-5.78,2.25-.16.08-.65.68-.34.54q11.55-7,22.11,3.41l1.89,2.77a22.21,22.21,0,0,1-1.54,12.75l-2.36,3c-2.44,2.8-6.13,4.81-9.53,6.17a62.63,62.63,0,0,1-14.56,3.38c-3.18.43-6.43.79-9.64,1a111.51,111.51,0,0,1-19.92-.91c-7.63-.86-15.3-1.8-22.91-2.82-10-1.34-20-3.13-30.06-4.36s-20.06-2.32-30.12-1.88a220.78,220.78,0,0,0-26.18,2.71c-6,1-11.91,2.42-17.83,3.92s-12.14,3.21-18.36,3.86a105.64,105.64,0,0,1-22.9-.27,43.26,43.26,0,0,1-10.28-2.38c-4.35-1.62-7.66-3.8-9.69-8.21C23.18,39.57,21.28,42.08,21.47,42.6Z"/>
  </g>
  <g id="SE_VORES_UDVALG" data-name="SE VORES UDVALG" class="cls-2">
    <g class="cls-2">
      <path d="M56.88,44.5a7.11,7.11,0,0,1-3.92-1,6.36,6.36,0,0,1-2.37-2.79,11.55,11.55,0,0,1-.94-4.13L53,35.66a15,15,0,0,0,.46,2.79,5,5,0,0,0,1.15,2.2,3,3,0,0,0,2.26.86,2.88,2.88,0,0,0,2.23-.83,3.41,3.41,0,0,0,.76-2.37,4.84,4.84,0,0,0-.84-3,15.68,15.68,0,0,0-2.12-2.27l-4.57-4a7.61,7.61,0,0,1-2-2.57A8.21,8.21,0,0,1,49.72,23a6.11,6.11,0,0,1,1.71-4.63,6.45,6.45,0,0,1,4.67-1.65,8.75,8.75,0,0,1,2.84.42A5,5,0,0,1,61,18.45a6.37,6.37,0,0,1,1.31,2.2A12.25,12.25,0,0,1,63,23.76l-3.23.88a13.71,13.71,0,0,0-.4-2.47,3.72,3.72,0,0,0-1.06-1.82,3.11,3.11,0,0,0-2.17-.69,3,3,0,0,0-2.2.76,3,3,0,0,0-.79,2.23,4.4,4.4,0,0,0,.42,2.05,6.11,6.11,0,0,0,1.36,1.65l4.61,4a14.72,14.72,0,0,1,2.72,3.21A8.17,8.17,0,0,1,63.39,38a7,7,0,0,1-.83,3.48,5.7,5.7,0,0,1-2.31,2.23A7,7,0,0,1,56.88,44.5Z"/>
      <path d="M67,44.19V17H77.51V19.8H70.75v9h5.48v2.69H70.75v10h6.83v2.72Z"/>
      <path d="M88.06,44.19,93.84,17H97.5l5.82,27.22h-3.6l-1.24-6.85H92.93l-1.31,6.85Zm5.38-9.57H98L95.69,22.35Z"/>
      <path d="M113.09,44.5a7.1,7.1,0,0,1-3.91-1,6.36,6.36,0,0,1-2.37-2.79,11.55,11.55,0,0,1-.94-4.13l3.36-.91a15.92,15.92,0,0,0,.45,2.79,5.15,5.15,0,0,0,1.16,2.2,3,3,0,0,0,2.25.86,2.88,2.88,0,0,0,2.24-.83,3.41,3.41,0,0,0,.76-2.37,4.84,4.84,0,0,0-.84-3,16.26,16.26,0,0,0-2.12-2.27l-4.57-4a7.61,7.61,0,0,1-2-2.57,8.21,8.21,0,0,1-.64-3.45,6.11,6.11,0,0,1,1.71-4.63,6.45,6.45,0,0,1,4.67-1.65,8.75,8.75,0,0,1,2.84.42,5,5,0,0,1,2,1.29,6.37,6.37,0,0,1,1.31,2.2,12.69,12.69,0,0,1,.66,3.11l-3.23.88a13.71,13.71,0,0,0-.4-2.47,3.72,3.72,0,0,0-1.06-1.82,3.12,3.12,0,0,0-2.17-.69,3,3,0,0,0-2.2.76,2.93,2.93,0,0,0-.79,2.23,4.4,4.4,0,0,0,.42,2.05,5.93,5.93,0,0,0,1.36,1.65l4.61,4a14.72,14.72,0,0,1,2.72,3.21A8.17,8.17,0,0,1,119.61,38a6.87,6.87,0,0,1-.84,3.48,5.61,5.61,0,0,1-2.3,2.23A7.06,7.06,0,0,1,113.09,44.5Z"/>
      <path d="M129.59,44.5a7.1,7.1,0,0,1-3.91-1,6.36,6.36,0,0,1-2.37-2.79,11.55,11.55,0,0,1-.94-4.13l3.36-.91a15.92,15.92,0,0,0,.45,2.79,5.15,5.15,0,0,0,1.16,2.2,3,3,0,0,0,2.25.86,2.88,2.88,0,0,0,2.24-.83,3.41,3.41,0,0,0,.76-2.37,4.84,4.84,0,0,0-.84-3,16.26,16.26,0,0,0-2.12-2.27l-4.57-4a7.61,7.61,0,0,1-2-2.57,8.21,8.21,0,0,1-.64-3.45,6.11,6.11,0,0,1,1.71-4.63,6.45,6.45,0,0,1,4.67-1.65,8.75,8.75,0,0,1,2.84.42,5,5,0,0,1,2.05,1.29,6.37,6.37,0,0,1,1.31,2.2,12.69,12.69,0,0,1,.66,3.11l-3.23.88a13.71,13.71,0,0,0-.4-2.47A3.72,3.72,0,0,0,131,20.35a3.12,3.12,0,0,0-2.17-.69,3,3,0,0,0-2.2.76,2.93,2.93,0,0,0-.79,2.23,4.4,4.4,0,0,0,.42,2.05,5.93,5.93,0,0,0,1.36,1.65l4.61,4a14.72,14.72,0,0,1,2.72,3.21A8.17,8.17,0,0,1,136.11,38a6.87,6.87,0,0,1-.84,3.48,5.61,5.61,0,0,1-2.3,2.23A7.06,7.06,0,0,1,129.59,44.5Z"/>
      <path d="M139.68,44.19V17h10.55V19.8h-6.76v9H149v2.69h-5.48v10h6.82v2.72Z"/>
      <path d="M157,44.19V19.8h-4.61V17h12.88V19.8h-4.47V44.19Z"/>
      <path d="M168.44,44.19V17h3.8v24.5h6.95v2.72Z"/>
      <path d="M182.59,44.19V17h3.73V44.19Z"/>
      <path d="M197.74,44.5a7.08,7.08,0,0,1-3.91-1,6.36,6.36,0,0,1-2.37-2.79,11.55,11.55,0,0,1-.94-4.13l3.36-.91a15,15,0,0,0,.45,2.79,5,5,0,0,0,1.16,2.2,3,3,0,0,0,2.25.86,2.9,2.9,0,0,0,2.24-.83,3.4,3.4,0,0,0,.75-2.37,4.84,4.84,0,0,0-.84-3,15.57,15.57,0,0,0-2.11-2.27l-4.57-4a7.77,7.77,0,0,1-2-2.57,8.37,8.37,0,0,1-.64-3.45,6.12,6.12,0,0,1,1.72-4.63A6.45,6.45,0,0,1,197,16.74a8.8,8.8,0,0,1,2.84.42,5,5,0,0,1,2.05,1.29,6.53,6.53,0,0,1,1.31,2.2,12.71,12.71,0,0,1,.65,3.11l-3.22.88a12.86,12.86,0,0,0-.41-2.47,3.71,3.71,0,0,0-1.05-1.82,3.12,3.12,0,0,0-2.17-.69,3,3,0,0,0-2.2.76,2.93,2.93,0,0,0-.79,2.23,4.4,4.4,0,0,0,.42,2.05,5.93,5.93,0,0,0,1.36,1.65l4.6,4a14.75,14.75,0,0,1,2.73,3.21A8.17,8.17,0,0,1,204.26,38a6.87,6.87,0,0,1-.84,3.48,5.67,5.67,0,0,1-2.3,2.23A7.08,7.08,0,0,1,197.74,44.5Z"/>
      <path d="M210.81,44.19V19.8h-4.6V17h12.87V19.8h-4.47V44.19Z"/>
      <path d="M222.31,44.19V17h10.55V19.8H226.1v9h5.48v2.69H226.1v10h6.83v2.72Z"/>
    </g>
  </g>
</svg>
