<svg id="Layer_1" data-name="Layer 1" xmlns="http://www.w3.org/2000/svg" viewBox="0 0 300 300">
  <defs>
    <style>
      .cls-1 {
        fill: #cacaca;
      }

      .cls-1, .cls-2, .cls-3, .cls-5 {
        opacity: 0.7;
      }

      .cls-3, .cls-4 {
        isolation: isolate;
      }

      .cls-5 {
        fill: #dfdfdf;
        stroke: #e95b34;
        stroke-miterlimit: 10;
        stroke-width: 2px;
      }

      .cls-6 {
        fill: #eecbf7;
      }
    </style>
  </defs>
  <title>sekeamap</title>
  <rect class="cls-1" y="-1" width="300" height="300"/>
  <g id="Velkommen_" data-name="Velkommen " class="cls-3">
    <g class="cls-4">
      <path d="M28.83,68h-6l-9.4-24.83h6.73l5.75,17.61h.14l5.72-17.61h6.63Z"/>
      <path d="M40.44,68V43.12h16.7v5.05H46.23v4.7H56.54v4.81H46.23v5.15H57.77V68Z"/>
      <path d="M61.73,68V43.12h6V62.73h9.61V68Z"/>
      <path d="M95.34,68,86.11,56.52H86V68H80.18V43.12H86v10.1h.11L95,43.12h7.51L91.83,54.55,103.16,68Z"/>
      <path d="M129.61,55.43a13.84,13.84,0,0,1-1,5.39A12.28,12.28,0,0,1,125.76,65a12.43,12.43,0,0,1-4.29,2.68,15.79,15.79,0,0,1-10.79,0A12.58,12.58,0,0,1,106.4,65a12.4,12.4,0,0,1-2.82-4.17,13.84,13.84,0,0,1-1-5.39,13.62,13.62,0,0,1,1-5.38A11.87,11.87,0,0,1,106.4,46a12.52,12.52,0,0,1,4.28-2.59,16.28,16.28,0,0,1,10.79,0A12.38,12.38,0,0,1,125.76,46a11.76,11.76,0,0,1,2.83,4.09A13.62,13.62,0,0,1,129.61,55.43Zm-6.42,0a8.5,8.5,0,0,0-.53-3A7.35,7.35,0,0,0,121.21,50,7,7,0,0,0,119,48.43a7.2,7.2,0,0,0-2.89-.57A6.83,6.83,0,0,0,111,50a6.75,6.75,0,0,0-1.46,2.41,8.73,8.73,0,0,0-.51,3,8.94,8.94,0,0,0,.53,3.11A7.27,7.27,0,0,0,111,61a6.66,6.66,0,0,0,2.23,1.6,7,7,0,0,0,8-1.6,7.16,7.16,0,0,0,1.47-2.43A8.94,8.94,0,0,0,123.19,55.43Z"/>
      <path d="M156.09,68l.14-17.57h-.11L149.67,68h-4.21l-6.28-17.57h-.1L139.22,68h-5.65V43.12h8.53L147.76,59h.14l5.4-15.92H162V68Z"/>
      <path d="M189.58,68l.14-17.57h-.1L183.16,68H179l-6.28-17.57h-.11L172.71,68h-5.65V43.12h8.54L181.25,59h.14l5.41-15.92h8.68V68Z"/>
      <path d="M200.56,68V43.12h16.7v5.05H206.35v4.7h10.31v4.81H206.35v5.15h11.54V68Z"/>
      <path d="M237.64,68l-10-16.24h-.11L227.67,68h-5.82V43.12h6.84l10,16.21h.11l-.14-16.21h5.82V68Z"/>
    </g>
  </g>
  <g id="til_KEA_Map" data-name="til KEA Map" class="cls-3">
    <g class="cls-4">
      <path d="M33.63,268.82H29V239.76H18.37v-4.07H44.25v4.07H33.63Z"/>
      <path d="M53.28,268.82H48.65V235.69h4.63Z"/>
      <path d="M66,264.7H80.75v4.12H61.33V235.69H66Z"/>
      <path d="M100.46,250.29h.09l14.79-14.6h6.41l-16.1,15.16,17.08,18h-6.65l-15.53-17.13h-.09v17.13H95.82V235.69h4.64Z"/>
      <path d="M131.29,264.7h17.32v4.12h-22V235.69h21.25v4.07H131.29v9.92h15.63v4H131.29Z"/>
      <path d="M156.14,268.82H151l14.36-33.13h4.21l14.23,33.13h-5.24l-3.37-8.14H159.47Zm5-12.21h12.4l-6.17-15.54Z"/>
      <path d="M216,261.15h.1l9.78-25.46h7.2v33.13h-4.63v-27.7h-.09l-11,27.7h-3l-10.95-27.7h-.09v27.7h-4.49V235.69h7.2Z"/>
      <path d="M242.53,268.82h-5.15l14.37-33.13H256l14.23,33.13H265l-3.37-8.14H245.85Zm5-12.21h12.4l-6.18-15.54Z"/>
      <path d="M274.45,235.69h10.1a20.46,20.46,0,0,1,4.87.54,10.51,10.51,0,0,1,3.74,1.66,7.59,7.59,0,0,1,2.39,2.85,9.51,9.51,0,0,1,.84,4.17,9.23,9.23,0,0,1-.91,4.26,7.87,7.87,0,0,1-2.53,2.9,11.23,11.23,0,0,1-3.83,1.66,20.34,20.34,0,0,1-4.8.54h-5.24v14.55h-4.63Zm4.63,14.65H284a14.38,14.38,0,0,0,3.11-.31,7.69,7.69,0,0,0,2.46-.93,4.36,4.36,0,0,0,1.59-1.66,5.17,5.17,0,0,0,.56-2.53,5,5,0,0,0-.58-2.51,4.68,4.68,0,0,0-1.59-1.63,6.82,6.82,0,0,0-2.41-.89,17,17,0,0,0-3-.26h-5Z"/>
    </g>
  </g>
  <circle class="cls-5" cx="178.5" cy="122.5" r="37.5"/>
  <g id="Find_rundt_på_KEA_-_hurtigere_end_dine_venner_" data-name="Find rundt på KEA - hurtigere end dine venner " class="cls-3">
    <g class="cls-4">
      <path d="M163.54,202.74h-1.1V191.91H169v1h-5.43v3.75h5.05v1h-5.05Z"/>
      <path d="M172,192.83a.64.64,0,0,1-.23.52.72.72,0,0,1-.5.21.76.76,0,0,1-.51-.21.71.71,0,0,1,0-1,.76.76,0,0,1,.51-.21.72.72,0,0,1,.5.21A.64.64,0,0,1,172,192.83Zm-.21,9.91h-1v-7.16h1Z"/>
      <path d="M175.46,195.58c0,.19,0,.41,0,.64s0,.43,0,.58h0a2.34,2.34,0,0,1,1-1,2.9,2.9,0,0,1,1.45-.39,2.54,2.54,0,0,1,2.05.81,3.23,3.23,0,0,1,.68,2.14v4.39h-1v-4a5.41,5.41,0,0,0-.09-1,2.1,2.1,0,0,0-.32-.78,1.57,1.57,0,0,0-.59-.52,2.21,2.21,0,0,0-.95-.18,2.05,2.05,0,0,0-.8.17,2,2,0,0,0-.7.51,2.79,2.79,0,0,0-.49.87,3.88,3.88,0,0,0-.18,1.25v3.67h-1v-5.58c0-.2,0-.45,0-.75s0-.58,0-.83Z"/>
      <path d="M189.32,201.53a2.94,2.94,0,0,1-1.2,1,3.39,3.39,0,0,1-1.51.36,3.94,3.94,0,0,1-1.53-.29,3.54,3.54,0,0,1-1.16-.8,3.65,3.65,0,0,1-.75-1.19,4.07,4.07,0,0,1-.27-1.49,4,4,0,0,1,.27-1.48,3.69,3.69,0,0,1,.75-1.2,3.51,3.51,0,0,1,1.16-.79,3.76,3.76,0,0,1,1.53-.29,3.39,3.39,0,0,1,1.51.36,3,3,0,0,1,1.2,1.06h0v-5.65h1v11.57h-1v-1.21ZM184,199.16a3.53,3.53,0,0,0,.19,1.13,2.8,2.8,0,0,0,.53.92,2.4,2.4,0,0,0,.85.61,3,3,0,0,0,2.25,0,2.69,2.69,0,0,0,1.44-1.52,3.2,3.2,0,0,0,0-2.28,3,3,0,0,0-.57-.92,2.79,2.79,0,0,0-.87-.61,2.93,2.93,0,0,0-2.25,0,2.43,2.43,0,0,0-.85.62,2.61,2.61,0,0,0-.53.92A3.42,3.42,0,0,0,184,199.16Z"/>
      <path d="M197,196.41c0-.31,0-.58,0-.83h1c0,.19,0,.41,0,.64s0,.43,0,.58h0a2.55,2.55,0,0,1,2.3-1.4h.36a1.91,1.91,0,0,1,.33.06l-.14,1-.31-.06a3,3,0,0,0-.42,0,2.18,2.18,0,0,0-.8.15,1.66,1.66,0,0,0-.67.48,2.57,2.57,0,0,0-.45.84,3.71,3.71,0,0,0-.18,1.23v3.66h-1v-5.58C197,197,197,196.71,197,196.41Z"/>
      <path d="M207.71,202.74c0-.19,0-.41,0-.64s0-.43,0-.58h0a2.37,2.37,0,0,1-1,1,2.93,2.93,0,0,1-1.46.39,2.5,2.5,0,0,1-2-.81,3.22,3.22,0,0,1-.68-2.15v-4.39h1v4a5.41,5.41,0,0,0,.09,1,2.25,2.25,0,0,0,.31.79,1.49,1.49,0,0,0,.6.51,2.16,2.16,0,0,0,.94.18,2.05,2.05,0,0,0,.81-.16,2,2,0,0,0,.69-.52,2.44,2.44,0,0,0,.49-.87,3.87,3.87,0,0,0,.19-1.25v-3.67h1v5.59c0,.19,0,.44,0,.75s0,.58.05.82Z"/>
      <path d="M212.33,195.58c0,.19,0,.41,0,.64s0,.43,0,.58h0a2.34,2.34,0,0,1,1-1,2.92,2.92,0,0,1,1.45-.39,2.54,2.54,0,0,1,2,.81,3.23,3.23,0,0,1,.68,2.14v4.39h-1v-4a5.41,5.41,0,0,0-.09-1,2.1,2.1,0,0,0-.32-.78,1.57,1.57,0,0,0-.59-.52,2.19,2.19,0,0,0-.94-.18,2.06,2.06,0,0,0-.81.17,1.88,1.88,0,0,0-.69.51,2.62,2.62,0,0,0-.5.87,3.88,3.88,0,0,0-.18,1.25v3.67h-1v-5.58c0-.2,0-.45,0-.75s0-.58,0-.83Z"/>
      <path d="M226.19,201.53a2.94,2.94,0,0,1-1.2,1,3.39,3.39,0,0,1-1.51.36,4,4,0,0,1-1.53-.29,3.54,3.54,0,0,1-1.16-.8,3.65,3.65,0,0,1-.75-1.19,4.07,4.07,0,0,1-.27-1.49,4,4,0,0,1,.27-1.48,3.69,3.69,0,0,1,.75-1.2,3.51,3.51,0,0,1,1.16-.79,3.79,3.79,0,0,1,1.53-.29,3.39,3.39,0,0,1,1.51.36,3,3,0,0,1,1.2,1.06h0v-5.65h1v11.57h-1v-1.21Zm-5.32-2.37a3.53,3.53,0,0,0,.19,1.13,2.8,2.8,0,0,0,.53.92,2.4,2.4,0,0,0,.85.61,2.76,2.76,0,0,0,1.14.22,2.72,2.72,0,0,0,1.11-.22,2.79,2.79,0,0,0,.87-.61,2.65,2.65,0,0,0,.57-.91,3.2,3.2,0,0,0,0-2.28,2.67,2.67,0,0,0-1.44-1.53,2.72,2.72,0,0,0-1.11-.22,2.76,2.76,0,0,0-1.14.23,2.43,2.43,0,0,0-.85.62,2.61,2.61,0,0,0-.53.92A3.42,3.42,0,0,0,220.87,199.16Z"/>
      <path d="M233.27,196.45h-2v4.18a2.37,2.37,0,0,0,.08.66.85.85,0,0,0,.22.4.69.69,0,0,0,.35.2,1.42,1.42,0,0,0,.42.06,1.88,1.88,0,0,0,.46-.06,2.75,2.75,0,0,0,.45-.17l0,.9a2.67,2.67,0,0,1-.57.16,3.36,3.36,0,0,1-.65.05,2.6,2.6,0,0,1-.61-.07,1.52,1.52,0,0,1-.6-.29,1.65,1.65,0,0,1-.45-.58,2.24,2.24,0,0,1-.18-1v-4.47h-1.48v-.87h1.48v-2h1v2h2Z"/>
      <path d="M239.76,206.42h-1V195.58h1v1.24h.05a2.81,2.81,0,0,1,1.18-1.06,3.45,3.45,0,0,1,1.51-.36,3.71,3.71,0,0,1,1.52.29,3.45,3.45,0,0,1,1.17.79,3.69,3.69,0,0,1,.75,1.2,4,4,0,0,1,.27,1.48,4.07,4.07,0,0,1-.27,1.49,3.65,3.65,0,0,1-.75,1.19,3.48,3.48,0,0,1-1.17.8,3.89,3.89,0,0,1-1.52.29,3.45,3.45,0,0,1-1.51-.36,2.9,2.9,0,0,1-1.18-1h-.05Zm5.34-7.26a3.42,3.42,0,0,0-.18-1.12,2.61,2.61,0,0,0-.53-.92,2.43,2.43,0,0,0-.85-.62,2.78,2.78,0,0,0-1.15-.23,2.7,2.7,0,0,0-1.1.22,2.67,2.67,0,0,0-1.44,1.53,3.2,3.2,0,0,0,0,2.28,2.65,2.65,0,0,0,.57.91,2.79,2.79,0,0,0,.87.61,2.7,2.7,0,0,0,1.1.22,2.78,2.78,0,0,0,1.15-.22,2.4,2.4,0,0,0,.85-.61,2.8,2.8,0,0,0,.53-.92A3.52,3.52,0,0,0,245.1,199.16Z"/>
      <path d="M253,198.11a1.85,1.85,0,0,0-.49-1.39,2.06,2.06,0,0,0-1.43-.45,3.11,3.11,0,0,0-1.19.23,2.94,2.94,0,0,0-.94.61l-.58-.69a3.54,3.54,0,0,1,1.17-.73,4.33,4.33,0,0,1,1.65-.29,3.5,3.5,0,0,1,1.09.16,2.51,2.51,0,0,1,.88.48,2,2,0,0,1,.6.81,2.91,2.91,0,0,1,.21,1.15v3.14a8.32,8.32,0,0,0,0,.85,5.94,5.94,0,0,0,.09.75h-.94c0-.17-.05-.36-.07-.56s0-.41,0-.6h0a3.07,3.07,0,0,1-1.11,1,3.43,3.43,0,0,1-2.35.2,2.49,2.49,0,0,1-.79-.37,2.2,2.2,0,0,1-.6-.68,2,2,0,0,1-.24-1,1.91,1.91,0,0,1,.43-1.32,2.53,2.53,0,0,1,1.12-.72,6.77,6.77,0,0,1,1.61-.31c.61,0,1.24-.07,1.9-.07Zm-.31,1q-.65,0-1.29.06a5.07,5.07,0,0,0-1.18.21,2.27,2.27,0,0,0-.87.47,1,1,0,0,0-.33.81,1.26,1.26,0,0,0,.14.64,1.31,1.31,0,0,0,.39.42,1.52,1.52,0,0,0,.54.23,2.54,2.54,0,0,0,.61.07,2.35,2.35,0,0,0,1-.19,2.22,2.22,0,0,0,.72-.52,2.3,2.3,0,0,0,.44-.76,2.75,2.75,0,0,0,.16-.9v-.54Zm-.06-6.37a1.4,1.4,0,0,1-.12.58,1.36,1.36,0,0,1-.32.47,1.45,1.45,0,0,1-.47.3,1.55,1.55,0,0,1-.56.11,1.52,1.52,0,0,1-.57-.11,1.57,1.57,0,0,1-.47-.3,1.7,1.7,0,0,1-.32-.47,1.56,1.56,0,0,1,0-1.15,1.52,1.52,0,0,1,.32-.46,1.57,1.57,0,0,1,.47-.3,1.35,1.35,0,0,1,.57-.12,1.38,1.38,0,0,1,.56.12,1.45,1.45,0,0,1,.47.3,1.23,1.23,0,0,1,.32.46A1.39,1.39,0,0,1,252.59,192.79Zm-.55,0a.87.87,0,0,0-.27-.64.92.92,0,0,0-.65-.26.91.91,0,0,0-.65.26.91.91,0,0,0,0,1.29.91.91,0,0,0,.65.26.92.92,0,0,0,.65-.26A.88.88,0,0,0,252,192.79Z"/>
      <path d="M261.6,196.77h0l5.16-4.86h1.57l-5.46,4.91,5.77,5.92H267L261.62,197h0v5.77h-1.1V191.91h1.1Z"/>
      <path d="M271.21,201.76H277v1h-6.91V191.91h6.72v1h-5.62v3.72h5.25v1h-5.25Z"/>
      <path d="M279.1,202.74h-1.21l4.68-10.83h1.07l4.66,10.83h-1.23l-1.19-2.84h-5.6Zm1.59-3.85h4.77l-2.38-5.76Z"/>
    </g>
    <g class="cls-4">
      <path d="M180.82,215H178.9v-.49h1.92Z"/>
      <path d="M184.77,213.47a1.17,1.17,0,0,1,.54-.56,1.72,1.72,0,0,1,.8-.2,1.43,1.43,0,0,1,1.15.45,1.85,1.85,0,0,1,.38,1.2v2.46h-.59V214.6A2.52,2.52,0,0,0,187,214a1.16,1.16,0,0,0-.17-.44.87.87,0,0,0-.34-.29,1.15,1.15,0,0,0-.52-.1,1.13,1.13,0,0,0-.45.09,1.11,1.11,0,0,0-.4.29,1.52,1.52,0,0,0-.27.49,2.07,2.07,0,0,0-.1.7v2h-.58v-6.48h.58v3.13Z"/>
      <path d="M192.06,216.82q0-.16,0-.36v-.32h0a1.39,1.39,0,0,1-.56.57,1.7,1.7,0,0,1-.81.22,1.44,1.44,0,0,1-1.15-.46,1.82,1.82,0,0,1-.38-1.2v-2.46h.58V215a2.65,2.65,0,0,0,.06.58,1.23,1.23,0,0,0,.17.44.78.78,0,0,0,.34.28,1.14,1.14,0,0,0,.52.11,1,1,0,0,0,.45-.1,1.08,1.08,0,0,0,.39-.28,1.46,1.46,0,0,0,.28-.49,2.11,2.11,0,0,0,.1-.7v-2.06h.58v3.13c0,.11,0,.25,0,.42s0,.33,0,.46Z"/>
      <path d="M194.12,213.27c0-.17,0-.32,0-.46h.56c0,.11,0,.23,0,.36s0,.24,0,.33h0a1.28,1.28,0,0,1,.51-.57,1.39,1.39,0,0,1,.78-.22h.2a.57.57,0,0,1,.18,0l-.08.56-.17,0h-.24a1.32,1.32,0,0,0-.44.08,1,1,0,0,0-.38.27,1.39,1.39,0,0,0-.25.47,2,2,0,0,0-.1.69v2h-.59v-3.55Z"/>
      <path d="M198.92,213.3h-1.14v2.34a1.27,1.27,0,0,0,.05.37.62.62,0,0,0,.12.23.52.52,0,0,0,.19.11,1,1,0,0,0,.24,0,.82.82,0,0,0,.26,0,1.06,1.06,0,0,0,.25-.09l0,.5a1.78,1.78,0,0,1-.33.09,2,2,0,0,1-.36,0,1.37,1.37,0,0,1-.34,0,.83.83,0,0,1-.59-.49,1.16,1.16,0,0,1-.1-.54v-2.5h-.83v-.49h.83v-1.13h.58v1.13h1.14Z"/>
      <path d="M200.54,211.27a.38.38,0,0,1-.13.29.42.42,0,0,1-.29.12.41.41,0,0,1-.28-.12.38.38,0,0,1-.13-.29.42.42,0,0,1,.13-.3.45.45,0,0,1,.28-.11.46.46,0,0,1,.29.11A.42.42,0,0,1,200.54,211.27Zm-.12,5.55h-.59v-4h.59Z"/>
      <path d="M202.18,217.63a2.08,2.08,0,0,0,1.54.74,1.89,1.89,0,0,0,.72-.13,1.17,1.17,0,0,0,.49-.34,1.42,1.42,0,0,0,.27-.5,2,2,0,0,0,.09-.61V216h0a1.57,1.57,0,0,1-.66.59,2,2,0,0,1-.86.2,2.3,2.3,0,0,1-.85-.15,1.85,1.85,0,0,1-.65-.43,1.87,1.87,0,0,1-.42-.64,2.21,2.21,0,0,1-.15-.82,2.15,2.15,0,0,1,.15-.8,2.06,2.06,0,0,1,.42-.66,1.89,1.89,0,0,1,.65-.45,2.11,2.11,0,0,1,.85-.16,2,2,0,0,1,.86.2,1.6,1.6,0,0,1,.66.6h0v-.7h.58v4a2.84,2.84,0,0,1-.09.69,1.68,1.68,0,0,1-.34.68,1.72,1.72,0,0,1-.66.51,2.43,2.43,0,0,1-1.09.21,2.71,2.71,0,0,1-1.06-.21,2.55,2.55,0,0,1-.87-.6Zm.11-2.86a1.73,1.73,0,0,0,.11.6,1.36,1.36,0,0,0,.29.49,1.27,1.27,0,0,0,.48.34,1.62,1.62,0,0,0,.64.13,1.59,1.59,0,0,0,.62-.12,1.46,1.46,0,0,0,.49-.31,1.59,1.59,0,0,0,.32-.5,1.81,1.81,0,0,0,.11-.63,1.64,1.64,0,0,0-.11-.6,1.71,1.71,0,0,0-.32-.5,1.54,1.54,0,0,0-.49-.34,1.44,1.44,0,0,0-.62-.13,1.47,1.47,0,0,0-.64.13,1.39,1.39,0,0,0-.48.34,1.32,1.32,0,0,0-.29.5A1.64,1.64,0,0,0,202.29,214.77Z"/>
      <path d="M211,214.7v.13s0,.09,0,.14H207.7a1.81,1.81,0,0,0,.12.57,1.62,1.62,0,0,0,.31.46,1.44,1.44,0,0,0,.46.31,1.4,1.4,0,0,0,.58.12,1.42,1.42,0,0,0,.78-.21,1.47,1.47,0,0,0,.5-.49l.44.35a2.18,2.18,0,0,1-2.55.69,2.18,2.18,0,0,1-.66-.44,2.17,2.17,0,0,1-.59-1.51,2.06,2.06,0,0,1,.16-.84,2,2,0,0,1,.42-.67,2,2,0,0,1,1.45-.6,2,2,0,0,1,.83.16,1.65,1.65,0,0,1,.6.43,1.79,1.79,0,0,1,.36.63A2.39,2.39,0,0,1,211,214.7Zm-.6-.19a1.44,1.44,0,0,0-.36-.94,1.24,1.24,0,0,0-1-.37,1.33,1.33,0,0,0-.54.1,1.37,1.37,0,0,0-.44.3,1.25,1.25,0,0,0-.3.42,1.19,1.19,0,0,0-.13.49Z"/>
      <path d="M212.28,213.27c0-.17,0-.32,0-.46h.56q0,.16,0,.36v.33h0a1.36,1.36,0,0,1,.52-.57,1.34,1.34,0,0,1,.77-.22h.2a.57.57,0,0,1,.18,0l-.07.56-.18,0H214a1.32,1.32,0,0,0-.44.08,1,1,0,0,0-.37.27,1.25,1.25,0,0,0-.26.47,2,2,0,0,0-.1.69v2h-.58v-3.13C212.29,213.59,212.28,213.45,212.28,213.27Z"/>
      <path d="M218.87,214.7v.13a.71.71,0,0,1,0,.14h-3.32a1.39,1.39,0,0,0,.12.57,1.41,1.41,0,0,0,.3.46,1.38,1.38,0,0,0,.47.31,1.32,1.32,0,0,0,.57.12,1.48,1.48,0,0,0,.79-.21,1.67,1.67,0,0,0,.5-.49l.43.35a2.16,2.16,0,0,1-.79.65,2.25,2.25,0,0,1-1.76,0,2.13,2.13,0,0,1-.65-.44,2.16,2.16,0,0,1-.44-.67,2.32,2.32,0,0,1-.15-.84,2.24,2.24,0,0,1,.15-.84,2,2,0,0,1,.43-.67,1.88,1.88,0,0,1,.64-.44,1.94,1.94,0,0,1,.8-.16,2,2,0,0,1,.83.16,1.65,1.65,0,0,1,.6.43,2,2,0,0,1,.37.63A2.39,2.39,0,0,1,218.87,214.7Zm-.59-.19a1.44,1.44,0,0,0-.37-.94,1.21,1.21,0,0,0-1-.37,1.37,1.37,0,0,0-.54.1,1.49,1.49,0,0,0-.44.3,1.6,1.6,0,0,0-.3.42,1.37,1.37,0,0,0-.13.49Z"/>
      <path d="M225.92,214.7v.13s0,.09,0,.14h-3.33a1.81,1.81,0,0,0,.12.57,1.62,1.62,0,0,0,.31.46,1.33,1.33,0,0,0,.46.31,1.4,1.4,0,0,0,.58.12,1.42,1.42,0,0,0,.78-.21,1.47,1.47,0,0,0,.5-.49l.44.35a2.18,2.18,0,0,1-2.55.69,2.18,2.18,0,0,1-.66-.44,2.17,2.17,0,0,1-.59-1.51,2.06,2.06,0,0,1,.16-.84,2,2,0,0,1,.42-.67,2,2,0,0,1,1.45-.6,2,2,0,0,1,.83.16,1.65,1.65,0,0,1,.6.43,1.79,1.79,0,0,1,.36.63A2.39,2.39,0,0,1,225.92,214.7Zm-.6-.19a1.44,1.44,0,0,0-.36-.94,1.24,1.24,0,0,0-1-.37,1.33,1.33,0,0,0-.54.1,1.37,1.37,0,0,0-.44.3,1.25,1.25,0,0,0-.3.42,1.19,1.19,0,0,0-.13.49Z"/>
      <path d="M227.69,212.81c0,.11,0,.23,0,.36s0,.24,0,.33h0a1.23,1.23,0,0,1,.56-.57,1.57,1.57,0,0,1,.81-.22,1.43,1.43,0,0,1,1.15.45,1.85,1.85,0,0,1,.38,1.2v2.46h-.59V214.6A2.52,2.52,0,0,0,230,214a1.16,1.16,0,0,0-.17-.44.87.87,0,0,0-.34-.29,1.15,1.15,0,0,0-.52-.1,1.13,1.13,0,0,0-.45.09,1,1,0,0,0-.39.29,1.37,1.37,0,0,0-.28.49,2.07,2.07,0,0,0-.1.7v2h-.58v-3.13c0-.1,0-.24,0-.42s0-.32,0-.46Z"/>
      <path d="M235.45,216.15a1.78,1.78,0,0,1-.67.58,2,2,0,0,1-.85.2,2.08,2.08,0,0,1-.85-.17,1.91,1.91,0,0,1-.66-.44,2,2,0,0,1-.42-.67,2.31,2.31,0,0,1-.15-.83A2.23,2.23,0,0,1,232,214a2,2,0,0,1,.42-.67,1.93,1.93,0,0,1,.66-.45,2.08,2.08,0,0,1,.85-.16,2,2,0,0,1,.85.2,1.67,1.67,0,0,1,.67.6h0v-3.17H236v6.48h-.58v-.67Zm-3-1.33a2.19,2.19,0,0,0,.1.63,1.53,1.53,0,0,0,.3.51,1.27,1.27,0,0,0,.48.34,1.59,1.59,0,0,0,1.26,0,1.47,1.47,0,0,0,.48-.33,1.72,1.72,0,0,0,.33-.51,1.92,1.92,0,0,0,0-1.28,1.65,1.65,0,0,0-.33-.52,1.5,1.5,0,0,0-.48-.34,1.59,1.59,0,0,0-.62-.12,1.44,1.44,0,0,0-.64.13,1.39,1.39,0,0,0-.48.34,1.58,1.58,0,0,0-.3.52A2.08,2.08,0,0,0,232.47,214.82Z"/>
      <path d="M243.05,216.15a1.71,1.71,0,0,1-.67.58,2,2,0,0,1-.85.2,2.11,2.11,0,0,1-.85-.17,1.87,1.87,0,0,1-.65-.44,2,2,0,0,1-.42-.67,2.31,2.31,0,0,1-.15-.83,2.23,2.23,0,0,1,.15-.83,2,2,0,0,1,.42-.67,1.89,1.89,0,0,1,.65-.45,2.11,2.11,0,0,1,.85-.16,2,2,0,0,1,.85.2,1.61,1.61,0,0,1,.67.6h0v-3.17h.58v6.48h-.58v-.67Zm-3-1.33a1.9,1.9,0,0,0,.11.63,1.51,1.51,0,0,0,.29.51,1.27,1.27,0,0,0,.48.34,1.47,1.47,0,0,0,.64.13,1.44,1.44,0,0,0,.62-.13,1.51,1.51,0,0,0,.49-.33,1.8,1.8,0,0,0,.32-1.79,1.82,1.82,0,0,0-.32-.52,1.54,1.54,0,0,0-.49-.34,1.59,1.59,0,0,0-.62-.12,1.47,1.47,0,0,0-.64.13,1.39,1.39,0,0,0-.48.34,1.55,1.55,0,0,0-.29.52A1.81,1.81,0,0,0,240.07,214.82Z"/>
      <path d="M245.92,211.27a.35.35,0,0,1-.13.29.39.39,0,0,1-.28.12.44.44,0,0,1-.29-.12.37.37,0,0,1-.12-.29.41.41,0,0,1,.12-.3.48.48,0,0,1,.29-.11.43.43,0,0,1,.28.11A.38.38,0,0,1,245.92,211.27Zm-.12,5.55h-.58v-4h.58Z"/>
      <path d="M247.87,212.81l0,.36c0,.13,0,.24,0,.33h0a1.28,1.28,0,0,1,.56-.57,1.6,1.6,0,0,1,.82-.22,1.41,1.41,0,0,1,1.14.45,1.85,1.85,0,0,1,.38,1.2v2.46h-.58V214.6a3.27,3.27,0,0,0-.05-.57,1.35,1.35,0,0,0-.18-.44.78.78,0,0,0-.33-.29,1.31,1.31,0,0,0-1,0,1,1,0,0,0-.39.29,1.36,1.36,0,0,0-.27.49,2.06,2.06,0,0,0-.11.7v2h-.58v-3.13c0-.1,0-.24,0-.42s0-.32,0-.46Z"/>
      <path d="M256,214.7v.13a.71.71,0,0,1,0,.14h-3.32a1.39,1.39,0,0,0,.12.57,1.44,1.44,0,0,0,.31.46,1.33,1.33,0,0,0,.46.31,1.39,1.39,0,0,0,.57.12,1.43,1.43,0,0,0,.79-.21,1.47,1.47,0,0,0,.5-.49l.44.35a2.19,2.19,0,0,1-.8.65,2.22,2.22,0,0,1-1.75,0,2.06,2.06,0,0,1-.66-.44,2.17,2.17,0,0,1-.59-1.51,2.24,2.24,0,0,1,.15-.84,2.2,2.2,0,0,1,.43-.67,1.92,1.92,0,0,1,.65-.44,1.89,1.89,0,0,1,.79-.16,2,2,0,0,1,.83.16,1.65,1.65,0,0,1,.6.43,1.81,1.81,0,0,1,.37.63A2.39,2.39,0,0,1,256,214.7Zm-.59-.19a1.49,1.49,0,0,0-.36-.94,1.24,1.24,0,0,0-1-.37,1.4,1.4,0,0,0-.54.1,1.63,1.63,0,0,0-.44.3,1.37,1.37,0,0,0-.29.42,1.19,1.19,0,0,0-.13.49Z"/>
      <path d="M261,216.82h-.64l-1.64-4h.65l1.31,3.4h0l1.31-3.4h.63Z"/>
      <path d="M267.21,214.7v.13a.71.71,0,0,1,0,.14h-3.32a1.39,1.39,0,0,0,.12.57,1.41,1.41,0,0,0,.3.46,1.48,1.48,0,0,0,.47.31,1.35,1.35,0,0,0,.57.12,1.46,1.46,0,0,0,.79-.21,1.56,1.56,0,0,0,.5-.49l.43.35a2.16,2.16,0,0,1-.79.65,2.25,2.25,0,0,1-1.76,0,2.1,2.1,0,0,1-1.24-2,2.24,2.24,0,0,1,.15-.84,2,2,0,0,1,.43-.67,1.88,1.88,0,0,1,.64-.44,1.94,1.94,0,0,1,.8-.16,2,2,0,0,1,.83.16,1.65,1.65,0,0,1,.6.43,2,2,0,0,1,.37.63A2.39,2.39,0,0,1,267.21,214.7Zm-.59-.19a1.44,1.44,0,0,0-.37-.94,1.21,1.21,0,0,0-1-.37,1.4,1.4,0,0,0-.54.1,1.49,1.49,0,0,0-.44.3,1.43,1.43,0,0,0-.43.91Z"/>
      <path d="M269,212.81c0,.11,0,.23,0,.36s0,.24,0,.33h0a1.26,1.26,0,0,1,.55-.57,1.6,1.6,0,0,1,.82-.22,1.4,1.4,0,0,1,1.14.45,1.8,1.8,0,0,1,.38,1.2v2.46h-.58V214.6a3.27,3.27,0,0,0-.05-.57,1.17,1.17,0,0,0-.18-.44.78.78,0,0,0-.33-.29,1.31,1.31,0,0,0-1,0,1.17,1.17,0,0,0-.39.29,1.52,1.52,0,0,0-.27.49,2.06,2.06,0,0,0-.11.7v2h-.58v-3.13c0-.1,0-.24,0-.42s0-.32,0-.46Z"/>
      <path d="M274,212.81c0,.11,0,.23,0,.36s0,.24,0,.33h0a1.26,1.26,0,0,1,.55-.57,1.6,1.6,0,0,1,.82-.22,1.4,1.4,0,0,1,1.14.45,1.8,1.8,0,0,1,.38,1.2v2.46h-.58V214.6a3.27,3.27,0,0,0-.05-.57,1.17,1.17,0,0,0-.18-.44.78.78,0,0,0-.33-.29,1.31,1.31,0,0,0-1,0,1.17,1.17,0,0,0-.39.29,1.52,1.52,0,0,0-.27.49,2.06,2.06,0,0,0-.11.7v2h-.58v-3.13c0-.1,0-.24,0-.42s0-.32,0-.46Z"/>
      <path d="M282.07,214.7v.13a.71.71,0,0,1,0,.14h-3.32a1.39,1.39,0,0,0,.12.57,1.44,1.44,0,0,0,.31.46,1.33,1.33,0,0,0,.46.31,1.39,1.39,0,0,0,.57.12,1.43,1.43,0,0,0,.79-.21,1.56,1.56,0,0,0,.5-.49l.44.35a2.19,2.19,0,0,1-.8.65,2.22,2.22,0,0,1-1.75,0,2.06,2.06,0,0,1-.66-.44,2.17,2.17,0,0,1-.59-1.51,2.24,2.24,0,0,1,.15-.84,2.2,2.2,0,0,1,.43-.67,1.92,1.92,0,0,1,.65-.44,1.89,1.89,0,0,1,.79-.16,2,2,0,0,1,.83.16,1.65,1.65,0,0,1,.6.43,1.81,1.81,0,0,1,.37.63A2.39,2.39,0,0,1,282.07,214.7Zm-.59-.19a1.49,1.49,0,0,0-.36-.94,1.24,1.24,0,0,0-1-.37,1.4,1.4,0,0,0-.54.1,1.63,1.63,0,0,0-.44.3,1.6,1.6,0,0,0-.3.42,1.36,1.36,0,0,0-.12.49Z"/>
      <path d="M283.31,213.27c0-.17,0-.32,0-.46h.56c0,.11,0,.23,0,.36s0,.24,0,.33h0a1.28,1.28,0,0,1,.51-.57,1.38,1.38,0,0,1,.77-.22h.2a.63.63,0,0,1,.19,0l-.08.56-.17,0h-.24a1.42,1.42,0,0,0-.45.08,1.07,1.07,0,0,0-.37.27,1.6,1.6,0,0,0-.26.47,2.31,2.31,0,0,0-.09.69v2h-.59v-3.13C283.32,213.59,283.32,213.45,283.31,213.27Z"/>
      <path d="M287.51,216.41a.48.48,0,0,1-.13.32.42.42,0,0,1-.34.14.4.4,0,0,1-.33-.14A.46.46,0,0,1,287,216a.46.46,0,0,1,.34.14A.48.48,0,0,1,287.51,216.41Zm-.16-1.23h-.62v-4.43h.62Z"/>
    </g>
  </g>
  <g class="cls-2">
    <path d="M155.06,109.51a1.7,1.7,0,0,1,.38,1.14,1.64,1.64,0,0,1-.67,1.39,3.33,3.33,0,0,1-2,.48h-3.23v-7h3a3,3,0,0,1,1.81.47,1.57,1.57,0,0,1,.65,1.33,1.63,1.63,0,0,1-1.07,1.59A1.83,1.83,0,0,1,155.06,109.51Zm-4.73-3.38v2.54h2.23a2.33,2.33,0,0,0,1.31-.32,1.11,1.11,0,0,0,.46-.95,1.09,1.09,0,0,0-.46-.94,2.25,2.25,0,0,0-1.31-.33Zm3.88,5.46a1.09,1.09,0,0,0,.49-1c0-.87-.64-1.31-1.91-1.31h-2.46v2.63h2.46A2.49,2.49,0,0,0,154.21,111.59Z"/>
    <path d="M158.58,107.49a2.53,2.53,0,0,1,1.22-.27v.69h-.17a1.69,1.69,0,0,0-1.3.51,2,2,0,0,0-.46,1.43v2.68h-.71v-5.26h.67v1A1.76,1.76,0,0,1,158.58,107.49Z"/>
    <path d="M166.09,107.26v5.26h-.68v-1a2.05,2.05,0,0,1-.77.75,2.4,2.4,0,0,1-1.12.26,2,2,0,0,1-2.22-2.26v-3H162v3a1.71,1.71,0,0,0,.41,1.26,1.52,1.52,0,0,0,1.17.43,1.75,1.75,0,0,0,1.31-.5,2,2,0,0,0,.47-1.41v-2.76Z"/>
    <path d="M173.12,107.26v4.62a2.67,2.67,0,0,1-.65,2,2.72,2.72,0,0,1-2,.64,4.54,4.54,0,0,1-1.39-.21,2.9,2.9,0,0,1-1.07-.6l.36-.54a2.66,2.66,0,0,0,.93.53,3.33,3.33,0,0,0,1.14.19,2,2,0,0,0,1.47-.46,1.93,1.93,0,0,0,.48-1.45v-.67a2.12,2.12,0,0,1-.87.76,2.6,2.6,0,0,1-1.19.26A2.85,2.85,0,0,1,169,112a2.45,2.45,0,0,1-1-.91,2.68,2.68,0,0,1,0-2.65,2.47,2.47,0,0,1,.94-.9,2.89,2.89,0,0,1,1.35-.32,2.66,2.66,0,0,1,1.21.27,2.18,2.18,0,0,1,.87.78v-1Zm-1.66,4.19a1.77,1.77,0,0,0,.72-.69,2.11,2.11,0,0,0,0-2,1.79,1.79,0,0,0-.71-.68,2.08,2.08,0,0,0-1-.25,2.13,2.13,0,0,0-1,.24,1.79,1.79,0,0,0-.71.68,2,2,0,0,0-.26,1,1.93,1.93,0,0,0,.26,1,1.81,1.81,0,0,0,.71.69,2.13,2.13,0,0,0,1,.24A2.17,2.17,0,0,0,171.46,111.45Z"/>
    <path d="M180,109.88,178.8,111v1.5h-.71V105.1h.71v5l3.14-2.87h.88l-2.25,2.15,2.46,3.11h-.87Z"/>
    <path d="M184.85,112.23a2.6,2.6,0,0,1-1-1,2.72,2.72,0,0,1-.35-1.38,2.77,2.77,0,0,1,.35-1.38,2.65,2.65,0,0,1,1-1,2.87,2.87,0,0,1,1.37-.34,2.81,2.81,0,0,1,1.37.34,2.5,2.5,0,0,1,1,1,2.77,2.77,0,0,1,.34,1.38,2.72,2.72,0,0,1-.34,1.38,2.46,2.46,0,0,1-1,1,2.7,2.7,0,0,1-1.37.34A2.76,2.76,0,0,1,184.85,112.23Zm2.38-.54a1.68,1.68,0,0,0,.69-.73,2.2,2.2,0,0,0,.25-1.07,2.22,2.22,0,0,0-.25-1.07,1.71,1.71,0,0,0-.69-.72,2.07,2.07,0,0,0-2,0,1.8,1.8,0,0,0-.7.72,2.23,2.23,0,0,0-.26,1.07,2.2,2.2,0,0,0,.26,1.07,1.76,1.76,0,0,0,.7.73,2.15,2.15,0,0,0,2,0Z"/>
    <path d="M192,107.49a2.53,2.53,0,0,1,1.22-.27v.69H193a1.66,1.66,0,0,0-1.29.51,2,2,0,0,0-.47,1.43v2.68h-.71v-5.26h.68v1A1.69,1.69,0,0,1,192,107.49Z"/>
    <path d="M197.63,112.2a1.37,1.37,0,0,1-.49.28,2.1,2.1,0,0,1-.61.09A1.38,1.38,0,0,1,195,111v-3.18h-1v-.6h1v-1.15h.71v1.15h1.59v.6H195.7V111a1,1,0,0,0,.23.72.91.91,0,0,0,.68.24,1.23,1.23,0,0,0,.42-.07.81.81,0,0,0,.35-.2Z"/>
    <path d="M203.5,110.11h-4.41a1.89,1.89,0,0,0,.63,1.33,2.13,2.13,0,0,0,1.45.5,2.35,2.35,0,0,0,.89-.17,1.85,1.85,0,0,0,.71-.52l.4.46a2.15,2.15,0,0,1-.87.64,3.17,3.17,0,0,1-2.59-.12,2.51,2.51,0,0,1-1-1,2.72,2.72,0,0,1-.35-1.38,2.88,2.88,0,0,1,.34-1.38,2.47,2.47,0,0,1,.92-1,2.65,2.65,0,0,1,1.32-.34,2.57,2.57,0,0,1,1.3.34,2.31,2.31,0,0,1,.91,1,2.82,2.82,0,0,1,.33,1.38Zm-3.82-1.79a1.92,1.92,0,0,0-.59,1.26h3.74a1.92,1.92,0,0,0-.59-1.26,1.92,1.92,0,0,0-2.56,0Z"/>
    <path d="M207.9,112.2a1.37,1.37,0,0,1-.49.28,2.11,2.11,0,0,1-.62.09,1.39,1.39,0,0,1-1.54-1.53v-3.18h-.94v-.6h.94v-1.15H206v1.15h1.6v.6H206V111a1,1,0,0,0,.24.72.9.9,0,0,0,.67.24,1.25,1.25,0,0,0,.43-.07.87.87,0,0,0,.35-.2Z"/>
  </g>
  <g class="cls-2">
    <path d="M148.05,134.83h2.62v.62h-2.62Z"/>
    <path d="M156,137.56a2.46,2.46,0,0,1-1-1,2.62,2.62,0,0,1-.35-1.38,2.67,2.67,0,0,1,.35-1.38,2.5,2.5,0,0,1,1-1,2.81,2.81,0,0,1,1.37-.34,2.87,2.87,0,0,1,1.37.34,2.55,2.55,0,0,1,1,1,2.77,2.77,0,0,1,.35,1.38,2.72,2.72,0,0,1-.35,1.38,2.5,2.5,0,0,1-1,1,2.76,2.76,0,0,1-1.37.34A2.7,2.7,0,0,1,156,137.56Zm2.37-.54a1.76,1.76,0,0,0,.7-.73,2.31,2.31,0,0,0,.25-1.07,2.34,2.34,0,0,0-.25-1.07,1.8,1.8,0,0,0-.7-.72,2.07,2.07,0,0,0-2,0,1.8,1.8,0,0,0-.7.72,2.22,2.22,0,0,0-.25,1.07,2.2,2.2,0,0,0,.25,1.07,1.76,1.76,0,0,0,.7.73,2.15,2.15,0,0,0,2,0Z"/>
    <path d="M166.56,132.59v4.62a2.67,2.67,0,0,1-.66,2,2.7,2.7,0,0,1-2,.64,4.54,4.54,0,0,1-1.39-.21,2.78,2.78,0,0,1-1.06-.6l.36-.54a2.53,2.53,0,0,0,.92.53,3.38,3.38,0,0,0,1.15.19,2,2,0,0,0,1.47-.46,2,2,0,0,0,.47-1.45v-.67a2.06,2.06,0,0,1-.87.76,2.58,2.58,0,0,1-1.18.26,2.86,2.86,0,0,1-1.35-.32,2.45,2.45,0,0,1-.95-.91,2.75,2.75,0,0,1,0-2.65,2.49,2.49,0,0,1,.95-.9,2.86,2.86,0,0,1,1.35-.32,2.69,2.69,0,0,1,1.21.27,2.18,2.18,0,0,1,.87.78v-1Zm-1.66,4.19a1.81,1.81,0,0,0,.71-.69,2,2,0,0,0,0-2,1.79,1.79,0,0,0-.71-.68,2.07,2.07,0,0,0-1-.25,2.17,2.17,0,0,0-1,.24,1.79,1.79,0,0,0-.71.68,2,2,0,0,0-.25,1,1.93,1.93,0,0,0,.25,1,1.81,1.81,0,0,0,.71.69,2.17,2.17,0,0,0,1,.24A2.2,2.2,0,0,0,164.9,136.78Z"/>
    <path d="M172.57,131.23a1,1,0,0,0-.23.74v.62H174v.6h-1.6v4.66h-.71v-4.66h-.94v-.6h.94v-.65a1.53,1.53,0,0,1,.41-1.14,1.59,1.59,0,0,1,1.18-.42,1.9,1.9,0,0,1,.58.09,1.39,1.39,0,0,1,.47.24l-.24.53a1.2,1.2,0,0,0-.78-.26A1,1,0,0,0,172.57,131.23Zm3.14.06a.49.49,0,0,1-.15-.36.49.49,0,0,1,.15-.35.5.5,0,0,1,.37-.15.51.51,0,0,1,.37.15.45.45,0,0,1,.15.34.5.5,0,0,1-.15.37.51.51,0,0,1-.37.15A.5.5,0,0,1,175.71,131.29Zm0,1.3h.71v5.26h-.71Z"/>
    <path d="M182.84,133.13a2.24,2.24,0,0,1,.59,1.67v3h-.71v-3a1.78,1.78,0,0,0-.41-1.25,1.59,1.59,0,0,0-1.17-.43,1.79,1.79,0,0,0-1.35.51,1.89,1.89,0,0,0-.49,1.39v2.76h-.71v-5.26h.68v1a1.91,1.91,0,0,1,.8-.74,2.53,2.53,0,0,1,1.2-.27A2.11,2.11,0,0,1,182.84,133.13Z"/>
    <path d="M190.36,130.43v7.42h-.68v-1a2.13,2.13,0,0,1-.85.81,2.45,2.45,0,0,1-1.18.28,2.62,2.62,0,0,1-1.34-.34,2.32,2.32,0,0,1-.94-.95,3,3,0,0,1,0-2.78,2.36,2.36,0,0,1,.94-.94,2.62,2.62,0,0,1,1.34-.34,2.44,2.44,0,0,1,1.15.27,2.16,2.16,0,0,1,.85.77v-3.16ZM188.7,137a1.76,1.76,0,0,0,.7-.73,2.2,2.2,0,0,0,.26-1.07,2.23,2.23,0,0,0-.26-1.07,1.8,1.8,0,0,0-.7-.72,2,2,0,0,0-1-.26,2,2,0,0,0-1,.26,1.8,1.8,0,0,0-.7.72,2.22,2.22,0,0,0-.25,1.07,2.2,2.2,0,0,0,.25,1.07,1.76,1.76,0,0,0,.7.73,2,2,0,0,0,1,.25A2,2,0,0,0,188.7,137Z"/>
    <path d="M199.74,132.59l-2.34,5.26h-.73l-2.34-5.26h.75l2,4.48,2-4.48Z"/>
    <path d="M205.35,135.44H201a1.89,1.89,0,0,0,.63,1.33,2.12,2.12,0,0,0,1.44.5,2.44,2.44,0,0,0,.9-.17,1.89,1.89,0,0,0,.7-.52l.41.46a2.25,2.25,0,0,1-.88.64,2.88,2.88,0,0,1-1.15.22,3,3,0,0,1-1.44-.34,2.51,2.51,0,0,1-1-1,2.72,2.72,0,0,1-.34-1.38,2.87,2.87,0,0,1,.33-1.38,2.47,2.47,0,0,1,.92-1,2.71,2.71,0,0,1,2.63,0,2.45,2.45,0,0,1,.91,1,2.82,2.82,0,0,1,.33,1.38Zm-3.82-1.79a1.87,1.87,0,0,0-.58,1.26h3.73a1.92,1.92,0,0,0-.59-1.26,1.92,1.92,0,0,0-2.56,0Z"/>
    <path d="M205.58,139.76a1.21,1.21,0,0,1-.49-.26l.25-.54a1.24,1.24,0,0,0,.83.27.8.8,0,0,0,.64-.25,1.06,1.06,0,0,0,.23-.74v-5.65h.71v5.65a1.62,1.62,0,0,1-.41,1.17,1.44,1.44,0,0,1-1.13.43A2.59,2.59,0,0,1,205.58,139.76Zm1.45-8.48a.46.46,0,0,1-.16-.36.46.46,0,0,1,.16-.35.48.48,0,0,1,.37-.15.48.48,0,0,1,.36.15.43.43,0,0,1,.16.34.53.53,0,0,1-.52.52A.48.48,0,0,1,207,131.28Z"/>
  </g>
  <g class="cls-2">
    <path d="M145.25,125.17a2.46,2.46,0,0,1-1-1,2.9,2.9,0,0,1,0-2.76,2.44,2.44,0,0,1,1-1,2.7,2.7,0,0,1,1.37-.34,2.76,2.76,0,0,1,1.37.34,2.48,2.48,0,0,1,.95,1,2.9,2.9,0,0,1,0,2.76,2.5,2.5,0,0,1-.95,1,2.76,2.76,0,0,1-1.37.34A2.7,2.7,0,0,1,145.25,125.17Zm2.37-.54a1.82,1.82,0,0,0,.7-.73,2.41,2.41,0,0,0,0-2.14,1.8,1.8,0,0,0-.7-.72,2.07,2.07,0,0,0-2,0,1.8,1.8,0,0,0-.7.72,2.41,2.41,0,0,0,0,2.14,1.82,1.82,0,0,0,.7.73,2.15,2.15,0,0,0,2,0Z"/>
    <path d="M155.19,120.2l-2.34,5.26h-.73l-2.33-5.26h.74l2,4.48,2-4.48Z"/>
    <path d="M160.8,123.05h-4.4a1.89,1.89,0,0,0,.63,1.33,2.12,2.12,0,0,0,1.44.5,2.44,2.44,0,0,0,.9-.17,2,2,0,0,0,.71-.52l.4.46a2.36,2.36,0,0,1-.88.64,2.88,2.88,0,0,1-1.15.22,3,3,0,0,1-1.44-.34,2.42,2.42,0,0,1-1-1,2.67,2.67,0,0,1-.35-1.38,2.87,2.87,0,0,1,.33-1.38,2.4,2.4,0,0,1,.92-1,2.71,2.71,0,0,1,2.63,0,2.45,2.45,0,0,1,.91,1,2.82,2.82,0,0,1,.33,1.38ZM157,121.26a1.87,1.87,0,0,0-.58,1.26h3.73a1.92,1.92,0,0,0-.59-1.26,1.92,1.92,0,0,0-2.56,0Z"/>
    <path d="M163.86,120.43a2.53,2.53,0,0,1,1.22-.27v.69h-.16a1.67,1.67,0,0,0-1.3.51,2,2,0,0,0-.47,1.43v2.68h-.71V120.2h.68v1A1.69,1.69,0,0,1,163.86,120.43Z"/>
    <path d="M169.61,125.33a2.67,2.67,0,0,1-.91-.47l.32-.56a2.69,2.69,0,0,0,.83.43,3.28,3.28,0,0,0,1,.16,2,2,0,0,0,1.06-.22.73.73,0,0,0,.35-.64.59.59,0,0,0-.19-.45,1.22,1.22,0,0,0-.48-.25,5.75,5.75,0,0,0-.77-.17,9.54,9.54,0,0,1-1-.24,1.58,1.58,0,0,1-.67-.43,1.2,1.2,0,0,1-.27-.83,1.29,1.29,0,0,1,.55-1.08,2.44,2.44,0,0,1,1.53-.42,4,4,0,0,1,1,.14,2.72,2.72,0,0,1,.84.35l-.31.57a2.67,2.67,0,0,0-1.55-.45,1.8,1.8,0,0,0-1,.24.73.73,0,0,0-.34.63.62.62,0,0,0,.19.48,1.22,1.22,0,0,0,.49.27c.19,0,.46.11.8.17a9.6,9.6,0,0,1,1,.24,1.53,1.53,0,0,1,.65.41,1.12,1.12,0,0,1,.27.8,1.29,1.29,0,0,1-.58,1.1,2.71,2.71,0,0,1-1.59.4A4.16,4.16,0,0,1,169.61,125.33Z"/>
    <path d="M174.49,118.9a.46.46,0,0,1-.16-.36.46.46,0,0,1,.16-.35.48.48,0,0,1,.36-.15.5.5,0,0,1,.37.15.42.42,0,0,1,.15.34.46.46,0,0,1-.15.37.5.5,0,0,1-.37.15A.48.48,0,0,1,174.49,118.9Zm0,1.3h.71v5.26h-.71Z"/>
    <path d="M181.62,120.74a2.24,2.24,0,0,1,.59,1.67v3h-.71v-3a1.72,1.72,0,0,0-.42-1.25,1.51,1.51,0,0,0-1.16-.43,1.79,1.79,0,0,0-1.35.51,1.89,1.89,0,0,0-.49,1.39v2.76h-.71V120.2H178v1a2,2,0,0,1,.81-.74,2.52,2.52,0,0,1,1.19-.27A2.12,2.12,0,0,1,181.62,120.74Z"/>
    <path d="M187.3,125.33a2.82,2.82,0,0,1-.92-.47l.33-.56a2.58,2.58,0,0,0,.83.43,3.24,3.24,0,0,0,1,.16,2,2,0,0,0,1.06-.22A.73.73,0,0,0,190,124a.56.56,0,0,0-.2-.45,1.11,1.11,0,0,0-.47-.25,5.6,5.6,0,0,0-.78-.17c-.42-.08-.76-.16-1-.24a1.55,1.55,0,0,1-.66-.43,1.2,1.2,0,0,1-.27-.83,1.31,1.31,0,0,1,.54-1.08,2.49,2.49,0,0,1,1.54-.42,3.9,3.9,0,0,1,1,.14,2.72,2.72,0,0,1,.84.35l-.3.57a2.69,2.69,0,0,0-1.55-.45,1.8,1.8,0,0,0-1,.24.73.73,0,0,0-.34.63.62.62,0,0,0,.19.48,1.25,1.25,0,0,0,.48.27c.2,0,.46.11.8.17a9.87,9.87,0,0,1,1,.24,1.44,1.44,0,0,1,.64.41,1.08,1.08,0,0,1,.28.8,1.29,1.29,0,0,1-.58,1.1,2.71,2.71,0,0,1-1.59.4A4.16,4.16,0,0,1,187.3,125.33Z"/>
    <path d="M194.14,122.82,192.9,124v1.5h-.71V118h.71v5L196,120.2h.88l-2.25,2.15,2.45,3.11h-.87Z"/>
    <path d="M198.94,125.17a2.6,2.6,0,0,1-1-1,2.9,2.9,0,0,1,0-2.76,2.57,2.57,0,0,1,1-1,2.76,2.76,0,0,1,1.37-.34,2.7,2.7,0,0,1,1.37.34,2.44,2.44,0,0,1,1,1,3,3,0,0,1,0,2.76,2.46,2.46,0,0,1-1,1,2.7,2.7,0,0,1-1.37.34A2.76,2.76,0,0,1,198.94,125.17Zm2.38-.54a1.74,1.74,0,0,0,.69-.73,2.41,2.41,0,0,0,0-2.14,1.71,1.71,0,0,0-.69-.72,2.07,2.07,0,0,0-2,0,1.8,1.8,0,0,0-.7.72,2.33,2.33,0,0,0,0,2.14,1.82,1.82,0,0,0,.7.73,2.15,2.15,0,0,0,2,0Z"/>
    <path d="M204.62,118h.71v7.42h-.71Z"/>
    <path d="M212.07,123.05h-4.4a1.92,1.92,0,0,0,.62,1.33,2.15,2.15,0,0,0,1.45.5,2.35,2.35,0,0,0,.89-.17,1.85,1.85,0,0,0,.71-.52l.41.46a2.36,2.36,0,0,1-.88.64,3.17,3.17,0,0,1-2.59-.12,2.51,2.51,0,0,1-1-1,2.77,2.77,0,0,1-.34-1.38,2.87,2.87,0,0,1,.33-1.38,2.4,2.4,0,0,1,.92-1,2.55,2.55,0,0,1,1.32-.34,2.47,2.47,0,0,1,1.3.34,2.4,2.4,0,0,1,.92,1,2.93,2.93,0,0,1,.33,1.38Zm-3.82-1.79a1.87,1.87,0,0,0-.58,1.26h3.73a1.92,1.92,0,0,0-.59-1.26,1.92,1.92,0,0,0-2.56,0Z"/>
  </g>
  <rect class="cls-6" x="40" y="145.12" width="223" height="43.34"/>
  <g>
    <path d="M47.45,183.73V151.42h7a12.23,12.23,0,0,1,5.65,1.09,6.31,6.31,0,0,1,3,3.29,14.74,14.74,0,0,1,.89,5.47v11.89a16.54,16.54,0,0,1-.89,5.79,6.89,6.89,0,0,1-2.9,3.57,10.29,10.29,0,0,1-5.37,1.21Zm4.48-3.23h2.54a5.08,5.08,0,0,0,3.49-1,4.36,4.36,0,0,0,1.25-2.79,37.21,37.21,0,0,0,.22-4.43V161.83a21.18,21.18,0,0,0-.32-4.07,3.4,3.4,0,0,0-1.39-2.28,6.26,6.26,0,0,0-3.37-.71H51.93Z"/>
    <path d="M68.35,183.73V151.42H80.81v3.35h-8v10.69H79.3v3.19H72.84V180.5h8v3.23Z"/>
    <path d="M92.08,184.09a8.4,8.4,0,0,1-4.63-1.19,7.52,7.52,0,0,1-2.79-3.32,13.53,13.53,0,0,1-1.11-4.9l4-1.08a17.87,17.87,0,0,0,.54,3.31,5.87,5.87,0,0,0,1.37,2.61,3.45,3.45,0,0,0,2.66,1,3.35,3.35,0,0,0,2.63-1,4,4,0,0,0,.9-2.81,5.73,5.73,0,0,0-1-3.53,18.45,18.45,0,0,0-2.49-2.69l-5.4-4.79a9.08,9.08,0,0,1-2.34-3.05,9.93,9.93,0,0,1-.75-4.09,7.29,7.29,0,0,1,2-5.51,7.62,7.62,0,0,1,5.51-2,10.43,10.43,0,0,1,3.36.49,6,6,0,0,1,2.42,1.54,7.59,7.59,0,0,1,1.54,2.61,15,15,0,0,1,.78,3.69l-3.81,1a15.87,15.87,0,0,0-.48-2.93,4.39,4.39,0,0,0-1.25-2.16,3.67,3.67,0,0,0-2.56-.81,3.6,3.6,0,0,0-2.59.89,3.51,3.51,0,0,0-.94,2.66,5.28,5.28,0,0,0,.5,2.43,7.21,7.21,0,0,0,1.61,2l5.43,4.78a16.91,16.91,0,0,1,3.21,3.82,9.6,9.6,0,0,1,1.39,5.24,8.2,8.2,0,0,1-1,4.13,6.67,6.67,0,0,1-2.72,2.65A8.26,8.26,0,0,1,92.08,184.09Z"/>
    <path d="M103.5,183.73V151.42h4.4v32.31Z"/>
    <path d="M120.75,184.13a8.11,8.11,0,0,1-4.81-1.29,7.27,7.27,0,0,1-2.62-3.77,19,19,0,0,1-.82-5.95V162.31a21.65,21.65,0,0,1,.74-6.05,6.82,6.82,0,0,1,2.62-3.81,9,9,0,0,1,5.25-1.31,10.15,10.15,0,0,1,4.86,1,6,6,0,0,1,2.68,3.12,14.47,14.47,0,0,1,.83,5.28v1.2h-4.2v-1a17.86,17.86,0,0,0-.28-3.45,3.22,3.22,0,0,0-1.13-2,4.38,4.38,0,0,0-2.68-.66,3.86,3.86,0,0,0-2.87.91,4.36,4.36,0,0,0-1.12,2.5,27.23,27.23,0,0,0-.21,3.57v12a19.1,19.1,0,0,0,.33,3.87,3.9,3.9,0,0,0,1.29,2.31,4.23,4.23,0,0,0,2.7.76,4,4,0,0,0,2.7-.84,4.45,4.45,0,0,0,1.31-2.47,20.14,20.14,0,0,0,.35-4.07v-2.23h-4.08v-3.2h8.13v16H126.9l-.43-3.71a6.91,6.91,0,0,1-2,3A5.55,5.55,0,0,1,120.75,184.13Z"/>
    <path d="M134.32,183.73V151.42h3.06l9.12,21.46V151.42h3.73v32.31h-2.86l-9.24-22.06v22.06Z"/>
    <path d="M162.84,184.09a8.39,8.39,0,0,1-4.62-1.19,7.52,7.52,0,0,1-2.79-3.32,13.74,13.74,0,0,1-1.12-4.9l4-1.08a17.87,17.87,0,0,0,.54,3.31,5.78,5.78,0,0,0,1.37,2.61,3.44,3.44,0,0,0,2.65,1,3.35,3.35,0,0,0,2.64-1,4,4,0,0,0,.89-2.81,5.79,5.79,0,0,0-1-3.53,18,18,0,0,0-2.5-2.69l-5.39-4.79a9.08,9.08,0,0,1-2.34-3.05,9.92,9.92,0,0,1-.76-4.09,7.3,7.3,0,0,1,2-5.51,7.6,7.6,0,0,1,5.51-2,10.32,10.32,0,0,1,3.35.49,6,6,0,0,1,2.42,1.54,7.45,7.45,0,0,1,1.55,2.61,15,15,0,0,1,.77,3.69l-3.81,1a15.09,15.09,0,0,0-.47-2.93,4.47,4.47,0,0,0-1.25-2.16,3.69,3.69,0,0,0-2.56-.81,3.63,3.63,0,0,0-2.6.89,3.54,3.54,0,0,0-.93,2.66,5.28,5.28,0,0,0,.5,2.43,7.15,7.15,0,0,0,1.6,2l5.44,4.78a17.44,17.44,0,0,1,3.21,3.82,9.6,9.6,0,0,1,1.39,5.24,8.2,8.2,0,0,1-1,4.13,6.67,6.67,0,0,1-2.72,2.65A8.28,8.28,0,0,1,162.84,184.09Z"/>
    <path d="M174,183.73V151.42h8a8.83,8.83,0,0,1,4.62,1.05,6.14,6.14,0,0,1,2.52,3.05,13.05,13.05,0,0,1,.8,4.83,10.12,10.12,0,0,1-.9,4.43,6.42,6.42,0,0,1-2.63,2.89,8.56,8.56,0,0,1-4.37,1h-3.53v15Zm4.48-18.27h2.07a8.6,8.6,0,0,0,3-.44,2.77,2.77,0,0,0,1.59-1.54,8.14,8.14,0,0,0,.47-3.09,14.05,14.05,0,0,0-.34-3.55,2.45,2.45,0,0,0-1.4-1.71,8.69,8.69,0,0,0-3.34-.48h-2.1Z"/>
    <path d="M193.07,183.73V151.42h6.47a14.2,14.2,0,0,1,5.31.85A6,6,0,0,1,208,155a10.58,10.58,0,0,1,1,5,13.81,13.81,0,0,1-.4,3.41,6.59,6.59,0,0,1-1.27,2.6,4.9,4.9,0,0,1-2.3,1.53l4.56,16.2h-4.32L201,168.57h-3.49v15.16Zm4.48-18.39h1.71a8.35,8.35,0,0,0,3.09-.48,3.18,3.18,0,0,0,1.75-1.63,7.68,7.68,0,0,0,.55-3.24,6.44,6.44,0,0,0-1-4.09c-.69-.83-2.05-1.25-4.08-1.25h-2Z"/>
    <path d="M213.9,183.73V151.42h4.4v32.31Z"/>
    <path d="M223.5,183.73V151.42h3.05l9.12,21.46V151.42h3.73v32.31h-2.85l-9.25-22.06v22.06Z"/>
    <path d="M248,183.73v-29h-5.43v-3.35h15.19v3.35h-5.27v29Z"/>
  </g>
</svg>
