<svg id="Layer_1" data-name="Layer 1" xmlns="http://www.w3.org/2000/svg" viewBox="0 0 250 57.63">
  <defs>
    <style>
      .cls-1 {
        fill: #fff;
      }
    </style>
  </defs>
  <title>sepilotvideoskrift</title>
  <rect class="cls-1" width="250" height="57.63"/>
  <g>
    <path d="M10.29,49.73V6H21.07a11.81,11.81,0,0,1,6.25,1.43,8.24,8.24,0,0,1,3.41,4.12,17.82,17.82,0,0,1,1.07,6.53,13.89,13.89,0,0,1-1.2,6A8.85,8.85,0,0,1,27,28a11.55,11.55,0,0,1-5.9,1.38H16.35V49.73ZM16.35,25h2.79a11.41,11.41,0,0,0,4.13-.6,3.74,3.74,0,0,0,2.15-2.07,10.86,10.86,0,0,0,.64-4.19,19.61,19.61,0,0,0-.45-4.8A3.37,3.37,0,0,0,23.7,11a11.7,11.7,0,0,0-4.5-.64H16.35Z"/>
    <path d="M36.36,49.73V6h6v43.7Z"/>
    <path d="M49.34,49.73V6H55.4V45.36H66.51v4.37Z"/>
    <path d="M81.42,50.21a12.66,12.66,0,0,1-7-1.72,9.45,9.45,0,0,1-3.75-4.94A22.77,22.77,0,0,1,69.51,36V19.46A21.3,21.3,0,0,1,70.66,12a9.23,9.23,0,0,1,3.76-4.75,13,13,0,0,1,7-1.64,12.7,12.7,0,0,1,7,1.67,9.45,9.45,0,0,1,3.73,4.75,21,21,0,0,1,1.15,7.39V36.08a21.78,21.78,0,0,1-1.15,7.44,9.84,9.84,0,0,1-3.73,4.94A12.19,12.19,0,0,1,81.42,50.21Zm0-4.8a5.69,5.69,0,0,0,3.65-1,5,5,0,0,0,1.66-2.8,18.9,18.9,0,0,0,.43-4.24V18.22A18.09,18.09,0,0,0,86.73,14a4.69,4.69,0,0,0-1.66-2.7,6,6,0,0,0-3.65-.94,6.08,6.08,0,0,0-3.68.94A4.63,4.63,0,0,0,76.05,14a18.14,18.14,0,0,0-.42,4.18V37.37a18.94,18.94,0,0,0,.42,4.24,4.89,4.89,0,0,0,1.69,2.8A5.81,5.81,0,0,0,81.42,45.41Z"/>
    <path d="M104,49.73V10.56H96.65V6H117.2v4.53h-7.14V49.73Z"/>
    <path d="M128.94,49.73,119.23,6h5.69l6.87,32.21L138.33,6h5.53l-9.61,43.7Z"/>
    <path d="M148.79,49.73V6h6v43.7Z"/>
    <path d="M161.77,49.73V6h9.44a16.47,16.47,0,0,1,7.64,1.48,8.52,8.52,0,0,1,4,4.45,19.81,19.81,0,0,1,1.2,7.39V35.43a22.28,22.28,0,0,1-1.2,7.82A9.31,9.31,0,0,1,179,48.08a13.88,13.88,0,0,1-7.27,1.65Zm6.06-4.37h3.43q3.33,0,4.72-1.3a5.86,5.86,0,0,0,1.69-3.77,51,51,0,0,0,.3-6V20.11a28.3,28.3,0,0,0-.43-5.51,4.61,4.61,0,0,0-1.88-3.07,8.31,8.31,0,0,0-4.56-1h-3.27Z"/>
    <path d="M190,49.73V6h16.84v4.53H196.1V25h8.74v4.31H196.1v16H207v4.37Z"/>
    <path d="M223,50.21a12.62,12.62,0,0,1-7-1.72,9.41,9.41,0,0,1-3.76-4.94A22.78,22.78,0,0,1,211.07,36V19.46A21.3,21.3,0,0,1,212.22,12,9.26,9.26,0,0,1,216,7.29a13.07,13.07,0,0,1,7-1.64,12.74,12.74,0,0,1,7,1.67,9.43,9.43,0,0,1,3.72,4.75,21,21,0,0,1,1.16,7.39V36.08a21.77,21.77,0,0,1-1.16,7.44A9.83,9.83,0,0,1,230,48.46,12.22,12.22,0,0,1,223,50.21Zm0-4.8a5.67,5.67,0,0,0,3.65-1,4.9,4.9,0,0,0,1.66-2.8,18.33,18.33,0,0,0,.43-4.24V18.22a17.56,17.56,0,0,0-.43-4.18,4.64,4.64,0,0,0-1.66-2.7A5.94,5.94,0,0,0,223,10.4a6,6,0,0,0-3.67.94,4.58,4.58,0,0,0-1.69,2.7,17.56,17.56,0,0,0-.43,4.18V37.37a18.33,18.33,0,0,0,.43,4.24,4.84,4.84,0,0,0,1.69,2.8A5.77,5.77,0,0,0,223,45.41Z"/>
  </g>
</svg>
