<svg id="Layer_1" data-name="Layer 1" xmlns="http://www.w3.org/2000/svg" xmlns:xlink="http://www.w3.org/1999/xlink" viewBox="0 0 300 300">
  <defs>
    <style>
      .cls-1 {
        fill: #fff;
      }
    </style>
  </defs>
  <title>sepilotvideo</title>
  <image width="1500" height="900" transform="translate(-133 -2) scale(0.34)" xlink:href="../../portfolio%20dokumentation/indhold%20dokumentationssite/elise.jpg"/>
  <rect class="cls-1" x="23" y="121.68" width="250" height="57.63"/>
  <g>
    <path d="M33.29,171.41V127.7H44.07a11.9,11.9,0,0,1,6.25,1.43,8.31,8.31,0,0,1,3.41,4.13,17.82,17.82,0,0,1,1.07,6.53,13.89,13.89,0,0,1-1.2,6A8.85,8.85,0,0,1,50,149.69a11.55,11.55,0,0,1-5.9,1.38H39.35v20.34Zm6.06-24.71h2.79a11.41,11.41,0,0,0,4.13-.6A3.76,3.76,0,0,0,48.42,144a10.77,10.77,0,0,0,.64-4.18,19.61,19.61,0,0,0-.45-4.8,3.37,3.37,0,0,0-1.91-2.32,11.67,11.67,0,0,0-4.5-.65H39.35Z"/>
    <path d="M59.36,171.41V127.7h6v43.71Z"/>
    <path d="M72.34,171.41V127.7H78.4V167H89.51v4.37Z"/>
    <path d="M104.42,171.89a12.57,12.57,0,0,1-7-1.73,9.42,9.42,0,0,1-3.75-4.93,22.77,22.77,0,0,1-1.13-7.53V141.14a21.3,21.3,0,0,1,1.15-7.42A9.23,9.23,0,0,1,97.42,129a13,13,0,0,1,7-1.64,12.61,12.61,0,0,1,7,1.67,9.4,9.4,0,0,1,3.73,4.75,21,21,0,0,1,1.15,7.39v16.62a21.78,21.78,0,0,1-1.15,7.44,9.84,9.84,0,0,1-3.73,4.94A12.19,12.19,0,0,1,104.42,171.89Zm0-4.8a5.69,5.69,0,0,0,3.65-1,5,5,0,0,0,1.66-2.8,18.9,18.9,0,0,0,.43-4.24V139.9a18.09,18.09,0,0,0-.43-4.18,4.69,4.69,0,0,0-1.66-2.7,6,6,0,0,0-3.65-1,6.07,6.07,0,0,0-3.68,1,4.63,4.63,0,0,0-1.69,2.7,18.14,18.14,0,0,0-.42,4.18v19.15a18.94,18.94,0,0,0,.42,4.24,4.89,4.89,0,0,0,1.69,2.8A5.81,5.81,0,0,0,104.42,167.09Z"/>
    <path d="M127,171.41V132.24h-7.35V127.7H140.2v4.54h-7.14v39.17Z"/>
    <path d="M151.94,171.41l-9.71-43.71h5.69l6.87,32.21,6.54-32.21h5.53l-9.61,43.71Z"/>
    <path d="M171.79,171.41V127.7h6v43.71Z"/>
    <path d="M184.77,171.41V127.7h9.44a16.46,16.46,0,0,1,7.64,1.49,8.52,8.52,0,0,1,4,4.45,19.81,19.81,0,0,1,1.2,7.39v16.08a22.28,22.28,0,0,1-1.2,7.82,9.35,9.35,0,0,1-3.92,4.83,13.88,13.88,0,0,1-7.27,1.65Zm6.06-4.37h3.43c2.22,0,3.79-.44,4.72-1.3a5.86,5.86,0,0,0,1.69-3.78,50.79,50.79,0,0,0,.3-6V141.79a28.3,28.3,0,0,0-.43-5.51,4.59,4.59,0,0,0-1.88-3.07,8.31,8.31,0,0,0-4.56-1h-3.27Z"/>
    <path d="M213,171.41V127.7h16.84v4.54H219.1V146.7h8.74V151H219.1v16H230v4.37Z"/>
    <path d="M246,171.89a12.54,12.54,0,0,1-7-1.73,9.39,9.39,0,0,1-3.76-4.93,22.78,22.78,0,0,1-1.12-7.53V141.14a21.3,21.3,0,0,1,1.15-7.42A9.26,9.26,0,0,1,239,129a13.07,13.07,0,0,1,7-1.64,12.65,12.65,0,0,1,7,1.67,9.39,9.39,0,0,1,3.72,4.75,21,21,0,0,1,1.16,7.39v16.62a21.77,21.77,0,0,1-1.16,7.44,9.83,9.83,0,0,1-3.72,4.94A12.22,12.22,0,0,1,246,171.89Zm0-4.8a5.67,5.67,0,0,0,3.65-1,4.9,4.9,0,0,0,1.66-2.8,18.33,18.33,0,0,0,.43-4.24V139.9a17.56,17.56,0,0,0-.43-4.18,4.64,4.64,0,0,0-1.66-2.7,5.93,5.93,0,0,0-3.65-1,6,6,0,0,0-3.67,1,4.58,4.58,0,0,0-1.69,2.7,17.56,17.56,0,0,0-.43,4.18v19.15a18.33,18.33,0,0,0,.43,4.24,4.84,4.84,0,0,0,1.69,2.8A5.77,5.77,0,0,0,246,167.09Z"/>
  </g>
</svg>
