<svg id="Layer_1" data-name="Layer 1" xmlns="http://www.w3.org/2000/svg" viewBox="0 0 300 300">
  <defs>
    <style>
      .cls-1 {
        fill: #aace7c;
      }

      .cls-1, .cls-10, .cls-3, .cls-4, .cls-5, .cls-6, .cls-9 {
        opacity: 0.7;
      }

      .cls-2, .cls-8 {
        opacity: 0.2;
      }

      .cls-2, .cls-4 {
        isolation: isolate;
      }

      .cls-3, .cls-7 {
        fill: #4eb0f6;
      }

      .cls-4, .cls-9 {
        fill: #fff;
      }

      .cls-5 {
        fill: #1181d0;
      }

      .cls-6 {
        fill: #1a94fb;
        stroke: #46c1fc;
        stroke-miterlimit: 10;
        stroke-width: 10px;
      }

      .cls-7 {
        opacity: 0.8;
      }

      .cls-11 {
        fill: #ffee24;
      }
    </style>
  </defs>
  <title>seprivatsnak</title>
  <rect class="cls-1" width="300" height="300"/>
  <path class="cls-2" d="M258.86,301.73a257.47,257.47,0,0,1-38.63,22.62H120.8c-23.09-9.93-46-22.32-77.9-22.62-49-.44,3.22-118.84,40.13-91.92,35,25.53,145.18,20.43,167.8,16.78S283,285,258.86,301.73Z"/>
  <path class="cls-3" d="M194.18,199.89c0,.9,7-2.54,10.45-1.08,1.89.81,5.1,2,8.41.4,2.71-1.35,9.9,4.08,10.17,2,3-22.62,3.53-83.56-1-91.29S190,91.78,190,91.78Z"/>
  <path class="cls-3" d="M122.72,199.89c0,.9-7-2.54-10.44-1.08-1.9.81-5.15,2-8.42.4-2.71-1.35-9.9,4.08-10.17,2-3-22.62-3.53-83.56,1-91.29s32.29-18.18,32.29-18.18Z"/>
  <path class="cls-4" d="M215.21,103.8v95.33c3.23.68,7.75,3.72,8,2.12,3-22.62,3.52-83.56-1-91.29C221.1,108,218.49,105.89,215.21,103.8Z"/>
  <path class="cls-2" d="M101.8,103.67V199c-3.23.68-7.76,3.72-8,2.12-3-22.62-3.52-83.57,1-91.3C95.9,107.87,98.52,105.75,101.8,103.67Z"/>
  <path class="cls-5" d="M113.73,97.34c-31.46,7.3-22.11,36.22-22.11,36.22h24.15S122.78,95.26,113.73,97.34Z"/>
  <path class="cls-5" d="M203.06,97.34c31.47,7.3,22.12,36.22,22.12,36.22H201S194,95.26,203.06,97.34Z"/>
  <rect class="cls-6" x="122.15" y="162.18" width="72.03" height="95.23"/>
  <circle class="cls-6" cx="158.09" cy="128.81" r="54.4" transform="translate(5.62 264.23) rotate(-80.78)"/>
  <circle class="cls-7" cx="158.17" cy="54.68" r="30.18"/>
  <rect class="cls-8" x="111.7" y="257.41" width="93.6" height="6.11"/>
  <path class="cls-9" d="M149.63,59.86c3.93-1.33,14.29-1.46,16.92,0s-4.51,10-7.14,10.28S146.38,61,149.63,59.86Z"/>
  <path class="cls-10" d="M150,54.06a3.27,3.27,0,0,0-3.3-3.23h-.25c-3.14,0-3.38,3.22-3.38,3.22Z"/>
  <path class="cls-10" d="M174.37,54.06a3.43,3.43,0,0,0-3.46-3.39h-.26c-3.3,0-3.55,3.38-3.55,3.38Z"/>
  <rect class="cls-5" x="122.96" y="170.05" width="70.4" height="22.65"/>
  <polygon class="cls-2" points="122.15 257.41 158.23 257.14 158.23 162.18 122.15 162.46 122.15 257.41"/>
  <path class="cls-5" d="M109.14,152l97,1.9s-10.28,26.58-48,28.76S107.26,145.77,109.14,152Z"/>
  <rect class="cls-11" x="32" y="127.5" width="231" height="50.72"/>
  <g>
    <path d="M41.06,171.26V132.81h9.48a10.54,10.54,0,0,1,5.5,1.25,7.27,7.27,0,0,1,3,3.64,15.5,15.5,0,0,1,1,5.74,12.12,12.12,0,0,1-1.07,5.27,7.6,7.6,0,0,1-3.14,3.44,10.12,10.12,0,0,1-5.19,1.21h-4.2v17.9Zm5.33-21.74h2.46a10.34,10.34,0,0,0,3.63-.52,3.33,3.33,0,0,0,1.89-1.83,9.5,9.5,0,0,0,.56-3.68,16.9,16.9,0,0,0-.4-4.23,2.92,2.92,0,0,0-1.67-2,10.3,10.3,0,0,0-4-.57h-2.5Z"/>
    <path d="M63.71,171.26V132.81h7.7a16.82,16.82,0,0,1,6.32,1,7.07,7.07,0,0,1,3.71,3.27,12.61,12.61,0,0,1,1.2,5.91,16,16,0,0,1-.47,4.06,7.84,7.84,0,0,1-1.51,3.09A5.84,5.84,0,0,1,77.92,152l5.43,19.27H78.21l-5-18H69.05v18Zm5.34-21.88h2a10,10,0,0,0,3.68-.57,3.82,3.82,0,0,0,2.08-1.95A9.1,9.1,0,0,0,77.5,143c0-2.24-.41-3.87-1.23-4.86s-2.44-1.5-4.86-1.5H69.05Z"/>
    <path d="M88.5,171.26V132.81h5.24v38.45Z"/>
    <path d="M106.58,171.26,98,132.81h5l6,28.34,5.76-28.34h4.86l-8.45,38.45Z"/>
    <path d="M120.36,171.26l8.12-38.45h5.14l8.17,38.45h-5L135,161.58H127.2l-1.84,9.68Zm7.55-13.53h6.37l-3.21-17.33Z"/>
    <path d="M148.35,171.26V136.79h-6.47v-4H160v4h-6.28v34.47Z"/>
    <path d="M172.66,171.69a9.9,9.9,0,0,1-5.5-1.42,9.06,9.06,0,0,1-3.33-3.94,16.66,16.66,0,0,1-1.32-5.84l4.72-1.29a21,21,0,0,0,.64,3.94,7,7,0,0,0,1.63,3.11,4.1,4.1,0,0,0,3.16,1.21,4,4,0,0,0,3.14-1.16,4.78,4.78,0,0,0,1.06-3.35,6.86,6.86,0,0,0-1.18-4.2,22.19,22.19,0,0,0-3-3.2l-6.42-5.7a10.93,10.93,0,0,1-2.79-3.63,11.7,11.7,0,0,1-.9-4.87A8.71,8.71,0,0,1,165,134.8a9.05,9.05,0,0,1,6.56-2.33,12.13,12.13,0,0,1,4,.6,6.85,6.85,0,0,1,2.88,1.83,8.83,8.83,0,0,1,1.84,3.1,17.75,17.75,0,0,1,.92,4.4l-4.53,1.23a18.17,18.17,0,0,0-.57-3.49,5.15,5.15,0,0,0-1.48-2.56,4.37,4.37,0,0,0-3.05-1,4.28,4.28,0,0,0-3.09,1.07,4.19,4.19,0,0,0-1.11,3.16,6.34,6.34,0,0,0,.59,2.9,8.57,8.57,0,0,0,1.91,2.32l6.47,5.7a20.39,20.39,0,0,1,3.82,4.53,11.46,11.46,0,0,1,1.66,6.25,9.8,9.8,0,0,1-1.18,4.91,8,8,0,0,1-3.24,3.16A9.93,9.93,0,0,1,172.66,171.69Z"/>
    <path d="M186,171.26V132.81h3.63l10.86,25.54V132.81h4.44v38.45h-3.4L190.5,145v26.25Z"/>
    <path d="M208.82,171.26l8.12-38.45h5.14l8.17,38.45H225.2l-1.75-9.68h-7.79l-1.84,9.68Zm7.55-13.53h6.37l-3.21-17.33Z"/>
    <path d="M234.12,171.26V132.81h5.33v18.13l8.78-18.13h5l-7.56,16.95,8.79,21.5h-5.2l-7.31-18-2.46,4.46v13.58Z"/>
  </g>
</svg>
