<svg id="Layer_1" data-name="Layer 1" xmlns="http://www.w3.org/2000/svg" viewBox="0 0 301.13 94.38">
  <defs>
    <style>
      .cls-1 {
        fill: #ea89c3;
        opacity: 0.11;
      }
    </style>
  </defs>
  <title>seresearch</title>
  <g>
    <path class="cls-1" d="M10.6,37.76l1.65,2.46-.15-.31c2.17,5.4,2.62,12.15,7.16,16.29a32.08,32.08,0,0,0,10.41,5.87,65.09,65.09,0,0,0,17.18,3.76c11.16,1.09,22.36.45,33.53-.23,5.54-.34,11.09-.78,16.64-.82a111.53,111.53,0,0,1,15.26,1.09l-.35-.06L118,67.08l-.35-.08,6,1.6-.35-.09c7.57,2.22,15.19,4.85,23,6a68.45,68.45,0,0,0,18.31.34,173.13,173.13,0,0,0,19.8-4q6.45-1.62,13-3a92.45,92.45,0,0,1,12.73-1.7h-.36l6.65,0H216a24.64,24.64,0,0,1,9.09,1.56A27.49,27.49,0,0,1,230,70.31c2.22,1.46,4.3,3.12,6.49,4.62,4.39,3,9,5.15,14.46,4.65a26.72,26.72,0,0,0,12.51-4.84,48.58,48.58,0,0,0,12.1-11.44c7.72-10.56,9.24-23.43,10.62-36.06a2.08,2.08,0,0,0-1.34.55c-1.51.94-3,1.92-4.47,2.92s-2.94,2-4.38,3.06a2.21,2.21,0,0,0-1,1c-1.76,6-2.74,12.21-5.61,17.81a36.76,36.76,0,0,1-4.33,6.82,41.82,41.82,0,0,1-4.69,5l-4.09,3.17-2.91,1.09-2.82,1.07a25.26,25.26,0,0,1-5.34.74c-3.78.15-7.85-1.52-11.19-3.12a101.38,101.38,0,0,0-11.81-5,46.39,46.39,0,0,0-12.85-2.12c-17.21-.73-33.67,5.06-50.66,6.64a54,54,0,0,1-11.79-.06c-3.76-.49-7.5-1-11.22-1.71-8.81-1.78-17.45-4.51-26.31-6-4.76-.83-9.58-.9-14.35-1.54a67.35,67.35,0,0,0-9.42-.39c-8,0-16.05.26-24.07,0a103.38,103.38,0,0,1-23.31-3c-5.68-1.51-11.94-4-16.1-8.26-3.08-3.18-4.8-7.4-6.41-11.46a39.67,39.67,0,0,0-4.21-8,1.62,1.62,0,0,0-.39,1.17c-.19,1.49-.33,3-.44,4.47s-.23,3-.29,4.49A1.63,1.63,0,0,0,10.6,37.76Z"/>
    <path class="cls-1" d="M11.13,40l1.65,2.48-.17-.33c1.44,3.63,2.08,7.5,3.61,11.08a16.62,16.62,0,0,0,6.48,7.49,45.69,45.69,0,0,0,13.13,5.36c20.51,5.18,41.61.92,62.39.72a86.69,86.69,0,0,1,12.36.72,97.48,97.48,0,0,1,14.21,3.16c9.42,2.72,18.67,5.8,28.51,6.65,12,1,24.08-2.55,35.61-5.35A138.8,138.8,0,0,1,205,68.72l6.34-.61a53,53,0,0,1,12.51.73l-.38-.06a30.61,30.61,0,0,1,8.81,4.37c2.14,1.53,4.2,3.19,6.38,4.67,4.61,3.1,9.41,4.8,15,3.79a29.65,29.65,0,0,0,11-4.94A50.6,50.6,0,0,0,276.78,65c7.73-10.36,8.91-23.79,10.13-36.18a1.81,1.81,0,0,0-1.28.32q-2.19,1-4.33,2.14T277,33.53a1.79,1.79,0,0,0-1,.85c-1.48,5.46-2.31,11.16-4.5,16.41a40,40,0,0,1-12.11,15.86,7.69,7.69,0,0,1-3.56,2.3c-1,.42-1.94.82-2.92,1.2a19.74,19.74,0,0,1-15.7-.49c-5.7-2.35-11-5.55-17-7.26a39.72,39.72,0,0,0-6.75-1.25c-9.63-1-19.42.49-28.85,2.3-8.32,1.59-16.59,3.47-25,4.34a52.76,52.76,0,0,1-11.85,0c-3.76-.47-7.51-.94-11.22-1.69-7.82-1.58-15.49-3.8-23.28-5.51a56.73,56.73,0,0,0-9.08-1.48l-6.15-.45L94,58.16l-4.83-.09c-14.32-.09-28.79,1.23-43-.89-7.38-1.1-14.75-3.15-21-7.33a16.8,16.8,0,0,1-5-4.79,46.1,46.1,0,0,1-3.55-6.7l.14.34a51.42,51.42,0,0,0-5.27-10.92,1.86,1.86,0,0,0-.33,1.27c-.1,1.61-.17,3.23-.2,4.84s-.06,3.23,0,4.85A1.8,1.8,0,0,0,11.13,40Z"/>
    <path class="cls-1" d="M9.84,40.93a11,11,0,0,1,3.06,5.15,52.47,52.47,0,0,0,1.42,5.55,18.55,18.55,0,0,0,1.94,4.16,19.31,19.31,0,0,0,5.43,4.87c3.12,2.09,7.3,3.52,10.87,4.65,5.91,1.85,12.36,2.43,18.49,2.79,9.48.56,19.07-.21,28.51-1,9.68-.77,19.58-1.87,29.29-1s18.7,4.63,27.89,7.17c5.64,1.56,11.53,3.06,17.42,3.31,21.16.93,40.64-10.07,61.71-9.85a15.27,15.27,0,0,1,9.74,2.41,12.36,12.36,0,0,1,7.64,3.22c1.74,1.44,3.42,3,5.18,4.36a21.48,21.48,0,0,0,8.34,4.19c5.23,1.3,10.9-.47,15.48-3a49.85,49.85,0,0,0,16.63-15.3c7.67-11.27,9-24.88,9.85-38.14,0-.7-2.77,1-2.81,1.69-.74,14.53-1.65,27.9-12.43,40.3-4.23,4.86-9.81,9.57-15.93,11.88a23.42,23.42,0,0,1-6.81,1.46,9.67,9.67,0,0,1-5.61-.85,16.63,16.63,0,0,1-4.9-2.06c-1.33-1-2.64-2-3.9-3-2.89-2.34-5.66-4.8-9.07-6.38-4.74-2.2-10.44-2.36-15.57-2.06-13.33.79-25.95,5.29-38.95,7.91a92.26,92.26,0,0,1-13.34,1.85,75.59,75.59,0,0,1-23.16-3.31c-5.61-1.57-11.12-3.51-16.77-5a75.23,75.23,0,0,0-11.33-2.16,75.78,75.78,0,0,0-9.53-.22c-5.61.11-11.19.58-16.78,1-6.1.47-12.21,1-18.33,1.2q-6.25.24-12.53,0a67.72,67.72,0,0,1-28.6-7.38,18.77,18.77,0,0,1-5.31-4.85,22.91,22.91,0,0,1-3-8.11,7.13,7.13,0,0,0-1.89-4.58,17.22,17.22,0,0,0-1.68-1.51C10,39.84,9.49,40.55,9.84,40.93Z"/>
    <path class="cls-1" d="M9.93,45.47l1.59,2.36L13.15,53a32.47,32.47,0,0,0,2.24,6.78,16.47,16.47,0,0,0,6,6.29A42,42,0,0,0,32.22,70.8a79.16,79.16,0,0,0,12.21,2.4,149.35,149.35,0,0,0,25.64.28c15.58-.89,31.62-3.79,47-.21,8.45,2,16.57,5.14,25,7.1a64.68,64.68,0,0,0,21.2,1.55c16.7-1.64,32.51-8.77,49.32-9.48l6.22,0,6.12.81,7,3.75,2,1.64c3.08,2.56,6,5.3,9.69,6.88,9.49,4,19.77-1.69,26.86-7.95A50.61,50.61,0,0,0,284.13,58a62.45,62.45,0,0,0,3.3-14c.66-4.74,1-9.48,1.3-14.25,0-.52-1.56-.27-1.59.08-.6,7.43-1.18,14.88-3.26,22.08A46.64,46.64,0,0,1,273,71.31c-7.9,8.37-20.31,15.4-31.81,9.94-4.72-2.24-8.4-6.14-13-8.59-5.39-2.88-11.55-3.06-17.55-2.77-7.6.37-15.06,2.1-22.44,3.84A230.42,230.42,0,0,1,158,79a62.6,62.6,0,0,1-11.76-.9c-7.71-1.24-15.11-3.72-22.61-5.81-7-2-14-3.52-21.32-3.69s-14.5.46-21.72.9c-16,1-33.27,2.32-48.74-3.12a32.4,32.4,0,0,1-14.74-9.74,24.44,24.44,0,0,1-2.3-5.39c-.53-1.85-1.1-3.68-1.7-5.51a13.67,13.67,0,0,0-2.47-4.58c-.44-.66-.62,1.13-.61,1.06C9.89,43,9.47,44.78,9.93,45.47Z"/>
    <path class="cls-1" d="M10.55,40.79a13.83,13.83,0,0,1,2.69,5.08l-.15-.41c1.06,3.86,1.83,7.79,4,11.23s6.48,5.88,10,7.37a62,62,0,0,0,11.08,3.41c10,2.18,20.5,1.88,30.65,1.45,10.41-.44,20.79-1.63,31.21-1.61,9.27,0,18.07,2.09,26.9,4.74,9.4,2.83,18.78,5.69,28.67,5.88,11.08.21,21.9-2.86,32.58-5.46a151.54,151.54,0,0,1,16.07-3.29l6.34-.6a53.14,53.14,0,0,1,12.53.74l-.4-.11L226,70.26l-.4-.13c4.33,2.09,7.82,4.93,11.73,7.69a29,29,0,0,0,6.92,3.81,17.29,17.29,0,0,0,10.6,0,32.6,32.6,0,0,0,11.12-6,45.85,45.85,0,0,0,11.35-12.53,50.84,50.84,0,0,0,5.91-14.9,140,140,0,0,0,2.61-18.59,2,2,0,0,0-1.36.31c-1.57.67-3.13,1.38-4.68,2.11s-3.08,1.47-4.6,2.26a2,2,0,0,0-1.11.85c-1.55,5.15-2.44,10.56-4.59,15.51a38,38,0,0,1-11.82,14.92,7.31,7.31,0,0,1-3.41,2.11l-2.74,1.06a19.59,19.59,0,0,1-5.31,1.14,21.51,21.51,0,0,1-10-1.89c-4-1.62-7.89-3.6-11.94-5.14A46.37,46.37,0,0,0,211.89,60c-18.22-1.6-35.74,4.72-53.69,6.38a51.75,51.75,0,0,1-11.67-.06c-3.73-.5-7.46-1-11.16-1.71C127.52,63,119.8,60.82,112,59.16A88.51,88.51,0,0,0,99.7,57.52c-3.2-.22-6.33-.78-9.54-.86-7.8-.2-15.59.1-23.39,0a138.68,138.68,0,0,1-21.26-1.43c-6.32-1-12.81-2.78-18.36-6.06a20,20,0,0,1-6.79-6.11,41,41,0,0,1-3-5.3c-.84-1.83-1.55-3.71-2.33-5.56a38.17,38.17,0,0,0-3.52-6.42,2.6,2.6,0,0,0-.41,1.55q-.29,3-.47,5.91c-.14,2-.25,3.95-.32,5.93A2.62,2.62,0,0,0,10.55,40.79Z"/>
    <path class="cls-1" d="M10.79,38.55,12.44,41l-.16-.35c1.47,3.64,2.14,7.5,3.65,11.12,2.81,6.75,10.14,9.88,16.62,12.09a70.11,70.11,0,0,0,17.6,3c4.11.25,8.22.31,12.34.27,10.76-.1,21.48-1.23,32.23-1.58a88.32,88.32,0,0,1,26.43,3c9.43,2.57,18.66,5.87,28.4,7a61.13,61.13,0,0,0,15.41,0c5.57-.75,11.06-2,16.52-3.26s10.78-2.69,16.23-3.74l6.4-1.08a66.55,66.55,0,0,1,12.62-.63l-.39,0,6.62.75-.38,0a30.84,30.84,0,0,1,8.86,4.26c2.18,1.5,4.26,3.14,6.47,4.59,4.63,3,9.4,4.77,15,3.81a29.6,29.6,0,0,0,10.94-4.78,50,50,0,0,0,12-11.49C283.7,53.67,285,40.3,286.32,28a2.26,2.26,0,0,0-1.41.49q-2.4,1.33-4.76,2.76t-4.68,2.89a2.24,2.24,0,0,0-1.1,1c-1.78,5.85-2.77,12-5.62,17.45a35.76,35.76,0,0,1-4.29,6.69,40.05,40.05,0,0,1-4.65,4.92l-4.07,3.11-2.83,1-2.77,1a24.47,24.47,0,0,1-5.26.69c-3.76.13-7.82-1.55-11.15-3.12-5.32-2.52-10.88-5-16.67-6.16a65.55,65.55,0,0,0-18.13-.68c-9.53.75-18.91,3-28.3,4.65-7.91,1.42-16.06,2.7-24.09,1.64-4.73-.62-9.41-1.28-14.08-2.29-3.91-.85-7.77-1.88-11.65-2.82a143.67,143.67,0,0,0-14.91-3c-3.76-.5-7.55-.6-11.3-1.12a66.87,66.87,0,0,0-9.39-.41c-4.37,0-8.73.06-13.1.08-14.34,0-29.77,0-42.86-6.56a23.4,23.4,0,0,1-8.08-5.93A31.45,31.45,0,0,1,18,39.14c-1.14-2.25-2-4.63-3-6.94a36.51,36.51,0,0,0-3.53-6.38,2,2,0,0,0-.37,1.32c-.16,1.67-.29,3.35-.38,5s-.18,3.35-.21,5A1.91,1.91,0,0,0,10.79,38.55Z"/>
    <path class="cls-1" d="M10.1,42.93a18.49,18.49,0,0,1,3.18,7.44,31.18,31.18,0,0,0,1.61,5.44,16.8,16.8,0,0,0,6.67,7.76c6.54,4.28,14.78,6.09,22.42,7A145.44,145.44,0,0,0,69.11,71c7.89-.41,15.75-1.19,23.64-1.59,3.43-.2,6.86-.28,10.29-.22a117.28,117.28,0,0,1,26.83,5.53c7.59,2.28,15.22,4.54,23.17,5.08,8.77.59,17.39-1.13,25.89-3.13s17.18-4.65,26-5.79c7.65-1,16.87-1.71,23.9,2.38,5.42,3.15,9.53,8.33,15.6,10.39,10.73,3.62,21.87-4.68,28.72-12.1A48,48,0,0,0,284,51.76c2-7.13,2.63-14.52,3.29-21.88,0-.41-2.68,1-2.58,1-.56.31-2.08.86-2.22,1.64-1.35,7.34-2.35,14.64-5.36,21.54a45.38,45.38,0,0,1-12.79,16.56,11,11,0,0,1-4.09,2.87,50.44,50.44,0,0,1-5.12,2.36,26.17,26.17,0,0,1-6.25,1.32c-4.49.28-8.58-1.3-12.48-3.38-3.69-2-7.13-4.33-11-6-4.41-1.93-9-2.4-13.83-2.57-6.43-.23-13,.79-19.28,2-9.68,1.81-19.19,4.38-29,5.6a54.45,54.45,0,0,1-12.3.4c-3.78-.38-7.54-.85-11.27-1.6-6.75-1.36-13.32-3.38-20-5.07-1.87-.47-3.82-1-5.71-1.4l-6.12-.91-10.16-1c-8-.28-16,.35-24,.64a187.7,187.7,0,0,1-23.36-.28c-8.17-.72-16.57-2.34-23.88-6.24a22.91,22.91,0,0,1-6.79-5,27.16,27.16,0,0,1-4.13-7.66c-.89-2.24-1.51-4.56-2.48-6.77a19.79,19.79,0,0,0-2.26-3.91,1.1,1.1,0,0,0-.38.92c-.16,1.18-.29,2.36-.38,3.54S9.43,41.92,10.1,42.93Z"/>
    <path class="cls-1" d="M10.91,41.54l2.52,4.61c.33,1.35.66,2.69,1,4.05a23.72,23.72,0,0,0,1.34,4.29c1.88,4.31,5.39,6.83,9.46,8.88C35.44,68.52,47,69.49,58.31,69.6c10.33.09,20.65-1,30.93-1.79,4.46-.33,8.92-.6,13.39-.63,10.61-.07,17.69,2.27,29.45,5.73,8.51,2.5,17,5,25.91,5,11.24,0,22.22-3.18,33-5.92,4.28-1.08,8.57-2.09,12.92-2.84A62.2,62.2,0,0,1,213.46,68l15,1.88,6.83,4.73c1,.86,2,1.7,3,2.54a23.54,23.54,0,0,0,5.54,3.76,21.94,21.94,0,0,0,5.18,1.68,19.22,19.22,0,0,0,6.58-.39A27.22,27.22,0,0,0,265,78c7.13-4.62,13.58-11.09,17.35-18.79,5.07-10.34,6.06-21.41,7-32.73.06-.71-1.07.16-1.16.22-.49.34-2.26,1.32-2.33,2Q283.81,60.43,251,80.32a12.2,12.2,0,0,1-5.65-.74,22,22,0,0,1-6.83-3.64c-4.76-3.64-9-7.57-15-9.07-3.91-1-8.62-.86-12.63-.72-8.62.3-17.13,2.69-25.45,4.75a181.11,181.11,0,0,1-19.54,4.18,65,65,0,0,1-21.24-.68c-8.67-1.67-17-4.77-25.49-7a73.91,73.91,0,0,0-20.88-2.28c-5.42.16-10.83.59-16.23,1-6.06.46-12.12.91-18.2,1.14q-6.19.21-12.4-.07Q29.54,69.26,18,55.06c-1.63-2.39-2.33-5.28-3-8a16.21,16.21,0,0,0-1.87-5.17,25.23,25.23,0,0,0-1.74-2.4c-.31-.43-.53.44-.55.51A2.26,2.26,0,0,0,10.91,41.54Z"/>
    <path class="cls-1" d="M10.71,42.9l1.64,2.46L12.19,45c1.42,3.62,2,7.48,3.5,11.05a16.28,16.28,0,0,0,6.54,7.5,45.79,45.79,0,0,0,13.31,5.31c20.69,5,41.86.56,62.77.31a86.54,86.54,0,0,1,12.35.71,97.37,97.37,0,0,1,14.21,3.22c9.41,2.76,18.65,5.88,28.49,6.7,6.32.53,13-.38,19.18-1.65,5.52-1.13,11-2.55,16.45-3.9a134.07,134.07,0,0,1,16.1-3.33l6.34-.61a52,52,0,0,1,12.52.77l-.36-.08a30,30,0,0,1,7.71,3.71c2.21,1.49,4.21,3.27,6.34,4.86a28.09,28.09,0,0,0,7.17,4.06,17.1,17.1,0,0,0,10.68,0,33.54,33.54,0,0,0,11.25-6.2,46.88,46.88,0,0,0,11.55-12.84,51.18,51.18,0,0,0,5.94-15.18,141.88,141.88,0,0,0,2.56-18.82c0-.33-4.44,1.53-4.32,1.47-.61.27-3.77,1.21-4,2.17C277,40,276.13,46,273.83,51.52a42.16,42.16,0,0,1-10.69,15,17,17,0,0,1-7.5,4.93,18.71,18.71,0,0,1-6,1.9,19.87,19.87,0,0,1-10.43-1.1,99,99,0,0,1-9.86-4.73,46.18,46.18,0,0,0-11.24-4.15c-7.39-1.46-15.19-.88-22.58.14s-14.81,2.76-22.19,4.19c-7.17,1.39-14.65,2.87-22,2.43-3.62-.44-7.25-.91-10.86-1.43Q134.72,67.7,129,66.21c-7.83-2-15.53-4.3-23.6-5.12a71.05,71.05,0,0,1-10.19-1q-5-.13-10,0c-14.64.27-29.62,1.51-44.07-1.5a52.14,52.14,0,0,1-9.85-2.94,37.4,37.4,0,0,1-8.66-4.85c-3.18-2.72-4.87-6.4-6.49-10.16l.14.35c-.71-2-1.4-4-2.25-5.88a30.94,30.94,0,0,0-2.77-5A2,2,0,0,0,11,31.42c-.14,1.69-.25,3.37-.31,5.06s-.15,3.37-.16,5.06A2,2,0,0,0,10.71,42.9Z"/>
    <path class="cls-1" d="M10.53,39.61a13.68,13.68,0,0,1,2.69,5.08l-.14-.38c1.07,3.85,1.85,7.77,4,11.22S23.5,61.39,27,62.89a62.78,62.78,0,0,0,11,3.43c9.95,2.21,20.42,2,30.54,1.56,10.39-.4,20.76-1.58,31.17-1.54,9.27,0,18.07,2.07,26.91,4.7,9.41,2.8,18.78,5.64,28.67,5.87,11.06.25,21.89-2.78,32.56-5.36A157.38,157.38,0,0,1,204,68.28l6.35-.61a53.61,53.61,0,0,1,12.52.72l-.39-.09a31.92,31.92,0,0,1,7.79,3.55c2.25,1.43,4.31,3.15,6.48,4.69a30.28,30.28,0,0,0,7.27,4,17.42,17.42,0,0,0,10.57.08,32.42,32.42,0,0,0,11.11-5.89A45.56,45.56,0,0,0,277.1,62.31a50.77,50.77,0,0,0,6-14.86,137.64,137.64,0,0,0,2.72-18.65,2.11,2.11,0,0,0-1.36.4c-1.58.78-3.13,1.59-4.67,2.44s-3.07,1.68-4.59,2.57a2.09,2.09,0,0,0-1.08.92c-1.58,5.17-2.48,10.61-4.68,15.58a38.19,38.19,0,0,1-11.84,14.86,7,7,0,0,1-3.42,2.08l-2.76,1a19.93,19.93,0,0,1-5.31,1.11,21.56,21.56,0,0,1-10-1.91c-4-1.61-7.88-3.6-11.94-5.12A46.58,46.58,0,0,0,211.86,60c-18.21-1.57-35.73,4.76-53.69,6.39-15.74,1.44-31-4-46.27-7.19a88.43,88.43,0,0,0-12.24-1.64c-3.2-.23-6.35-.78-9.56-.86-7.8-.2-15.6.09-23.4,0a141,141,0,0,1-21.23-1.47c-6.3-1-12.78-2.8-18.31-6.09A20,20,0,0,1,20.37,43a41.78,41.78,0,0,1-3-5.31c-.84-1.82-1.54-3.69-2.33-5.54a36.84,36.84,0,0,0-3.52-6.39,2.21,2.21,0,0,0-.4,1.43c-.2,1.82-.36,3.64-.49,5.46s-.26,3.66-.33,5.48A2.27,2.27,0,0,0,10.53,39.61Z"/>
    <path class="cls-1" d="M11.13,41.87l1.63,2.45L12.59,44a53.15,53.15,0,0,1,2.08,6.6A26.25,26.25,0,0,0,16.12,55a16.7,16.7,0,0,0,6.5,7.51A49.22,49.22,0,0,0,33,67.17a70.78,70.78,0,0,0,18,3c4.18.22,8.36.24,12.55.17,10.85-.2,21.65-1.44,32.49-1.84a84.49,84.49,0,0,1,26.42,3c9.39,2.64,18.6,6,28.33,7.12a59.35,59.35,0,0,0,15.47-.13c5.6-.79,11.11-2,16.59-3.39s10.8-2.77,16.27-3.84l6.4-1.1a65.81,65.81,0,0,1,12.62-.61l-.34,0,6.56.78-.34,0a29.63,29.63,0,0,1,8.76,4.47c2.11,1.57,4.14,3.26,6.31,4.77,4.56,3.16,9.41,4.82,15,3.77a30.34,30.34,0,0,0,11.09-5.08,51.52,51.52,0,0,0,12.17-12c7.74-10.49,8.87-24,10.05-36.51,0-.29-4.48,1.78-4.36,1.72-.66.33-3.79,1.4-4,2.41-1.61,6.62-2.56,13.36-5.45,19.59a40.28,40.28,0,0,1-6,9.41c-2.72,3.18-5.89,6.58-9.71,8.3-4.17,1.87-8.42,3.51-13.1,2.95-4.45-.53-8.38-2.8-12.3-4.78l.31.16c-4.47-2.36-9-4.77-14-5.77-7.4-1.48-15.12-.88-22.54.08-6.41.84-12.71,2.35-19,3.65-6.18,1.28-12.67,2.7-19,3l-6.24.14c-2.69-.3-5.38-.63-8-1a143.3,143.3,0,0,1-17.26-3.71c-4.8-1.27-9.61-2.6-14.48-3.58a75.72,75.72,0,0,0-9.25-1.07,53.42,53.42,0,0,1-7.13-.78c-5.08-.29-10.24,0-15.31.19-4.65.14-9.3.31-14,.35-10,.1-20.46-.15-30.18-3a36.19,36.19,0,0,1-7.15-2.75,28.18,28.18,0,0,1-6.5-3.77,25.44,25.44,0,0,1-5.32-7.39l.14.31c-1.15-2.74-2-5.6-3.24-8.33a32.82,32.82,0,0,0-2.93-5.27A1.57,1.57,0,0,0,11,31.94c-.09,1.45-.15,2.92-.17,4.38s0,2.92,0,4.39A1.47,1.47,0,0,0,11.13,41.87Z"/>
    <path class="cls-1" d="M10.53,46.12l1.6,2.41,1.53,4.87A34.39,34.39,0,0,0,16,60.55a16.37,16.37,0,0,0,6.09,6.27,42.23,42.23,0,0,0,10.84,4.69,79.79,79.79,0,0,0,12.25,2.36,150.25,150.25,0,0,0,25.63.22c15.57-.91,31.61-3.82,47-.21,8.43,2,16.54,5.16,25,7.12a64.71,64.71,0,0,0,21.25,1.52,140,140,0,0,0,20.37-3.93c9.48-2.39,19.09-5.19,28.92-5.59l6.23.06,6.12.83,7,3.81,2,1.66c3.06,2.57,5.94,5.3,9.67,6.87,9.53,4,19.67-1.78,26.74-8.08a51.21,51.21,0,0,0,8.28-9.24,52.39,52.39,0,0,0,5.29-10.39,62.57,62.57,0,0,0,3.27-14c.67-4.74,1-9.48,1.33-14.26,0-.54-1.43-.39-1.48.18-.63,7.37-1.26,14.83-3.32,22a46.9,46.9,0,0,1-10.92,19.4c-4.92,5.18-11.24,10-18.33,11.46a13,13,0,0,1-3.55.51,10,10,0,0,1-4.53-.32,8.8,8.8,0,0,1-4-.94,14.06,14.06,0,0,1-2.39-1.12c-4.18-2.18-7.52-5.68-11.63-8a24.71,24.71,0,0,0-4-1.76c-3.33-1.13-7.11-1.21-10.6-1.22-9.87,0-19.41,2.41-29,4.65-4.45,1-8.91,2.17-13.42,3l-19.41,1.46-5.86-.71c-7.69-1.22-15.09-3.71-22.56-5.83-7-2-14-3.57-21.24-3.75s-14.48.46-21.69.93c-8.18.53-16.39,1.08-24.59.87-9.11-.23-18.38-1.26-26.9-4.64a16.64,16.64,0,0,1-7.52-4.75,8.6,8.6,0,0,1-5.51-5,32.67,32.67,0,0,1-2.08-5.51c-.4-1.36-.77-2.74-1.25-4.08A21.51,21.51,0,0,0,11,42.11c-.43-.65-.58,1.1-.57,1C10.39,43.85,10.08,45.45,10.53,46.12Z"/>
  </g>
  <g>
    <path d="M33.69,66.36A10.26,10.26,0,0,1,28,64.88a9.31,9.31,0,0,1-3.42-4,17.07,17.07,0,0,1-1.35-6l4.87-1.31a21.4,21.4,0,0,0,.65,4,7.15,7.15,0,0,0,1.67,3.2A4.23,4.23,0,0,0,33.7,62a4.16,4.16,0,0,0,3.24-1.19A4.89,4.89,0,0,0,38,57.4a7.07,7.07,0,0,0-1.21-4.32,22.27,22.27,0,0,0-3-3.3l-6.6-5.87a11.08,11.08,0,0,1-2.86-3.74,12,12,0,0,1-.91-5,8.9,8.9,0,0,1,2.49-6.72,9.32,9.32,0,0,1,6.77-2.37,12.59,12.59,0,0,1,4.11.62,7.23,7.23,0,0,1,3,1.88,9.3,9.3,0,0,1,1.89,3.2,18.48,18.48,0,0,1,.93,4.51l-4.67,1.26A19.13,19.13,0,0,0,37.32,34a5.28,5.28,0,0,0-1.53-2.63,4.46,4.46,0,0,0-3.13-1,4.43,4.43,0,0,0-3.19,1.09,4.29,4.29,0,0,0-1.15,3.24,6.56,6.56,0,0,0,.6,3,8.82,8.82,0,0,0,2,2.39l6.65,5.87a20.83,20.83,0,0,1,3.93,4.66A11.87,11.87,0,0,1,43.15,57a10.06,10.06,0,0,1-1.23,5,8.26,8.26,0,0,1-3.34,3.24A10.37,10.37,0,0,1,33.69,66.36Z"/>
    <path d="M47.4,66l.1-39.5,15.26,0v4.1l-9.77,0,0,13.07,7.93,0v3.9l-7.93,0,0,14.49,9.87,0V66Z"/>
    <path d="M78.33,66l.09-39.5,7.93,0a17.38,17.38,0,0,1,6.51,1.06A7.34,7.34,0,0,1,96.67,31a12.86,12.86,0,0,1,1.22,6.08,16.78,16.78,0,0,1-.49,4.16,8,8,0,0,1-1.57,3.17A6,6,0,0,1,93,46.26l5.54,19.81h-5.3L88.14,47.52H83.87L83.82,66Zm5.55-22.47H86A10.36,10.36,0,0,0,89.76,43a3.92,3.92,0,0,0,2.14-2,9.18,9.18,0,0,0,.69-4q0-3.45-1.25-5t-5-1.55H83.91Z"/>
    <path d="M103.56,66.09l.1-39.5,15.26,0v4.1l-9.77,0,0,13.07,7.92,0v3.9l-7.93,0,0,14.49,9.87,0v4Z"/>
    <path d="M132.64,66.59A10.16,10.16,0,0,1,127,65.12a9.15,9.15,0,0,1-3.42-4.06,16.55,16.55,0,0,1-1.35-6l4.87-1.31a21.39,21.39,0,0,0,.64,4,7.35,7.35,0,0,0,1.67,3.2,4.25,4.25,0,0,0,3.26,1.25,4.15,4.15,0,0,0,3.23-1.18A5,5,0,0,0,137,57.63a7.07,7.07,0,0,0-1.21-4.32,22.93,22.93,0,0,0-3.06-3.3l-6.59-5.87a11.18,11.18,0,0,1-2.87-3.73,12.14,12.14,0,0,1-.91-5,8.92,8.92,0,0,1,2.5-6.73,9.35,9.35,0,0,1,6.76-2.37,12.51,12.51,0,0,1,4.11.62,7.27,7.27,0,0,1,3,1.88,9.39,9.39,0,0,1,1.89,3.2,18.08,18.08,0,0,1,.94,4.52l-4.67,1.25a19.84,19.84,0,0,0-.58-3.58,5.42,5.42,0,0,0-1.52-2.64,4.54,4.54,0,0,0-3.14-1,4.4,4.4,0,0,0-3.18,1.09,4.26,4.26,0,0,0-1.15,3.24,6.25,6.25,0,0,0,.6,3,8.5,8.5,0,0,0,2,2.39l6.65,5.87a20.9,20.9,0,0,1,3.92,4.67,11.64,11.64,0,0,1,1.69,6.41,9.89,9.89,0,0,1-1.23,5,8.15,8.15,0,0,1-3.33,3.23A10.19,10.19,0,0,1,132.64,66.59Z"/>
    <path d="M146.35,66.19l.09-39.5,15.27,0v4.1l-9.77,0,0,13.06,7.92,0v3.9h-7.92l0,14.48,9.87,0v3.95Z"/>
    <path d="M164,66.23l8.46-39.48h5.3l8.31,39.52h-5.2l-1.77-9.95-8,0-1.92,9.94Zm7.81-13.88h6.57l-3.27-17.8Z"/>
    <path d="M190.06,66.29l.09-39.5,7.93,0a17.51,17.51,0,0,1,6.51,1.06,7.28,7.28,0,0,1,3.81,3.38,12.93,12.93,0,0,1,1.23,6.07,16.78,16.78,0,0,1-.5,4.17,8.08,8.08,0,0,1-1.56,3.16,6.12,6.12,0,0,1-2.83,1.88l5.55,19.81-5.3,0-5.11-18.54H195.6l0,18.53Zm5.55-22.47h2.09a10.34,10.34,0,0,0,3.79-.58,3.92,3.92,0,0,0,2.15-2,9.52,9.52,0,0,0,.69-3.95c0-2.31-.41-4-1.26-5s-2.5-1.55-5-1.55h-2.43Z"/>
    <path d="M225.16,66.81A10.56,10.56,0,0,1,218.68,65a9,9,0,0,1-3.2-4.74,22.5,22.5,0,0,1-.88-6.63l0-14a24.15,24.15,0,0,1,.91-7,8.49,8.49,0,0,1,3.22-4.6,11.16,11.16,0,0,1,6.5-1.62,11,11,0,0,1,5.86,1.38,7.71,7.71,0,0,1,3.1,3.91,17.28,17.28,0,0,1,.93,6.1V41h-5.2V38.25a31.6,31.6,0,0,0-.21-3.88,4.25,4.25,0,0,0-1.19-2.61,4.65,4.65,0,0,0-3.25-.94,4.93,4.93,0,0,0-3.41,1,4.9,4.9,0,0,0-1.39,2.83,26.39,26.39,0,0,0-.33,4.27l0,15.65a18,18,0,0,0,.47,4.71,4.14,4.14,0,0,0,1.6,2.46,5.41,5.41,0,0,0,3,.74,4.37,4.37,0,0,0,3.21-1,4.81,4.81,0,0,0,1.23-2.75,30.55,30.55,0,0,0,.25-4.1V51.7l5.2,0v2.92a20.74,20.74,0,0,1-.89,6.36,8.13,8.13,0,0,1-3,4.29A10.2,10.2,0,0,1,225.16,66.81Z"/>
    <path d="M240.33,66.41l.1-39.5h5.49l0,17.07L256,44,256,27h5.49l-.09,39.5-5.5,0L256,48l-10.12,0,0,18.48Z"/>
  </g>
</svg>
