<svg id="Layer_1" data-name="Layer 1" xmlns="http://www.w3.org/2000/svg" xmlns:xlink="http://www.w3.org/1999/xlink" viewBox="0 0 300 300">
  <defs>
    <style>
      .cls-1 {
        opacity: 0.7;
      }

      .cls-2 {
        fill: url(#linear-gradient);
      }

      .cls-3, .cls-4, .cls-6 {
        fill: #fff;
      }

      .cls-4 {
        opacity: 0.5;
      }

      .cls-5 {
        fill: url(#linear-gradient-2);
      }

      .cls-17, .cls-6 {
        opacity: 0.2;
      }

      .cls-7 {
        fill: #bf272d;
      }

      .cls-8 {
        fill: #98805b;
      }

      .cls-9 {
        fill: #bc9e73;
      }

      .cls-10 {
        fill: #ffecca;
      }

      .cls-11 {
        fill: #f4e3ad;
      }

      .cls-12 {
        fill: #a78761;
      }

      .cls-13 {
        fill: #2185c1;
      }

      .cls-14 {
        fill: #e229de;
      }

      .cls-15 {
        fill: #ff7756;
      }

      .cls-16 {
        fill: #dd510a;
      }

      .cls-18 {
        fill: url(#linear-gradient-3);
      }

      .cls-19 {
        fill: #ffee24;
      }
    </style>
    <linearGradient id="linear-gradient" x1="-212.96" y1="114.63" x2="514.86" y2="114.63" gradientUnits="userSpaceOnUse">
      <stop offset="0.06" stop-color="#72dbfb"/>
      <stop offset="0.2" stop-color="#80dffb"/>
      <stop offset="0.28" stop-color="#89dcfb"/>
      <stop offset="0.63" stop-color="#90dbfb"/>
      <stop offset="0.71" stop-color="#90d9f8"/>
      <stop offset="0.98" stop-color="#8fd7f5"/>
    </linearGradient>
    <linearGradient id="linear-gradient-2" x1="-214.1" y1="306.45" x2="514.86" y2="306.45" gradientUnits="userSpaceOnUse">
      <stop offset="0.06" stop-color="#1a99d2"/>
      <stop offset="0.52" stop-color="#0075b9"/>
      <stop offset="0.89" stop-color="#90b7d7"/>
      <stop offset="0.9" stop-color="#87b1d2"/>
      <stop offset="0.93" stop-color="#6da1c6"/>
      <stop offset="0.96" stop-color="#4486b2"/>
      <stop offset="0.99" stop-color="#0b6297"/>
      <stop offset="1" stop-color="#005b92"/>
    </linearGradient>
    <linearGradient id="linear-gradient-3" x1="202.98" y1="341.43" x2="242.1" y2="341.43" gradientTransform="translate(59.56 -65.38) rotate(2.05)" gradientUnits="userSpaceOnUse">
      <stop offset="0.21" stop-color="#e2bd9b"/>
      <stop offset="0.6" stop-color="#e1bc99"/>
      <stop offset="1" stop-color="#d09765"/>
    </linearGradient>
  </defs>
  <title>sesamlskraldet</title>
  <g class="cls-1">
    <rect class="cls-2" x="-212.96" y="-2.69" width="727.82" height="234.65"/>
    <path class="cls-3" d="M301.82,49.24c-2.65,9.1,5.57,19.33,8.72,26.54,2.34,5.35-4.93,4.55-4.17,14,1.95,24.39-14.78,40.56-14.78,40.56L328,101.94c21.61-16.68-17.26-37.41-11.1-46s41.05-4.8,36.5-28.3S332.15,25,324.19,15.51C324.19,15.51,305.15,37.85,301.82,49.24Z"/>
    <path class="cls-4" d="M397.79-1.93l106.46-.38v30s-34.12,15.16-94.77,39,53.45,30.71,12.13,37.53,28.81,38.67-30.33,40.94-3.6,38.34-39.32,38.32-86.25,0-86.25,0,84.26-11.41,77.43-29.6,76.57-13.27,37.15-30.71,28.43-8-.76-33.35S359,56.13,384.84,27.26C407.21,2.24,397.79-1.93,397.79-1.93Z"/>
    <path class="cls-3" d="M408.4-1.93l106.46-.38v30s-34.11,15.16-94.77,39,53.45,30.71,12.13,37.53S461,142.88,401.9,145.15s-3.6,38.34-39.33,38.32-86.25,0-86.25,0,84.26-11.41,77.44-29.6,76.57-13.27,37.15-30.71,28.43-8-.76-33.35-20.51-33.68,5.3-62.55C417.82,2.24,408.4-1.93,408.4-1.93Z"/>
    <path class="cls-4" d="M335.18,15.51s-8.72-16.68-34.49,19.71-2.4,33.35.75,40.56c2.35,5.35-4.92,4.55-4.17,14,2,24.39-5.68,40.56-5.68,40.56l27.29-28.43c21.61-16.68-17.26-37.41-11.09-46s41.42-12,36.87-35.51Z"/>
    <path class="cls-4" d="M229,152.73s-16.3-36.39-6.82-39-15.91-40.78-10.61-53.94S175,71.19,190,28.77C201-2.31,265.76-2.31,265.76-2.31H174.09s11.74,1.52,0,48.14c-16.58,65.8,22.37,23.13,26.16,40.94s-17.82,36.77-7.2,40.56"/>
    <path class="cls-3" d="M230.18,153.87c-3.91-13-13.27-37.53-3.79-40.18s-15.91-40.78-10.61-53.94-36.61,11.44-21.61-31c11-31.08,75.76-31.08,75.76-31.08H178.26s11.74,1.52,0,48.14c-16.58,65.8,21.61,16.68,25.4,34.5s-10.61,43.21,0,47"/>
    <path class="cls-4" d="M-213,39.39c13.27,16.68,62.55,20.09,83,56.48s49.48,19.6,66.71,18.2c10.75-.88,43.6-3.79,40.56,8.71-8.12,33.53,28.2-8.15,21.23,38.29C-6,191.4,85.47,159.2,56.18,188s-96.25,7.61-96.25,7.61,11.72-19.74,0-19.74-1.14-34.12-23.13-30.71-72.78,13.65-65.58-5.69-26.91-25.39-39-27.67-45.11,3-45.11,3Z"/>
    <path class="cls-3" d="M-213,27.26c13.27,16.68,73.16,20.09,93.63,56.48s49.49,19.6,66.72,18.2c10.74-.88,43.59-3.8,40.56,8.71-8.13,33.53,27.29,12.51,39,47.39,9.8,29.06,16.68,3.41,51.18,25.4s-55,0-55,0-46.62-8-52.69-16.3c-6.91-9.51-1.14-37.53-23.12-34.12s-72.78,13.65-65.58-5.69-26.92-25.39-39.05-27.67S-213,104.22-213,104.22Z"/>
    <path class="cls-4" d="M40.26-1.93S57.55,9.26,35.33,22.33c-6.44,3.79,4.84,21.16,24.26,23.88,0,0,34.12,3.41,43.22,20.85s.38,40.56-3.41,47-11,26.53,14.78,28.81,42.84,17.43,55.58,41c15.4,28.45-32.83,0-32.83,0s-11.76-20.47-17.06-21.23-40.19-5.31-42.08-22.37S59.59,119,28.89,102.31c-16.39-8.9,19.92-26.27-14-48.9C-10.16,36.73-65.5,59.21-65.5,36c0-16.3-62.18-32.22-57.62-37.91"/>
    <path class="cls-3" d="M58.84-2.31S76.13,8.88,53.91,22c-6.45,3.79,4.84,21.16,24.26,23.88,0,0,34.12,3.41,43.21,20.85s.38,40.56-3.41,47-11,26.53,14.79,28.81,31.08,33,55.72,40.94c30.78,9.94-33,0-33,0S143.75,163,138.44,162.21s-40.18-5.31-42.08-22.37-18.19-21.23-48.9-37.9C31.08,93,67.38,75.66,33.44,53c-25-16.67-80.37,5.8-80.37-17.43,0-16.3-62.18-32.22-57.62-37.91"/>
    <path class="cls-5" d="M-40.1,208.79C-28.54,196.51,7,216.63,16,209.86c9.37-7.08,55.69,8.85,59.89,1.42,5-8.82,41.78-9,52.32-1.42,13.82,10,51.27-10.34,58.37,1.78,5.47,9.31,41.54-.53,47.39-3.91,3.24-1.88,41.4,10.93,46.25,4.62,7.8-10.16,65,6.06,79.6-5.69,10.53-8.47,77,13,87.57,2.84,9.73-9.38,67.47-2.84,67.47-2.84V409.74l-729-2.84V212s38.51-18.39,76.95-2.13c9.56,4,51.84-3.52,55.73-.36"/>
    <path class="cls-6" d="M335.56,246.36c-1.52-1.51-20.09-1.51-23.46,1.14s-28.85,1.14-29.14-1.08-29.28-2.71-29.07,0-19.92,3-22.53,1.09-27,0-26.94,0-25.42,4.93-27-.3-21.14-3.49-21.27-1.27-35.51,5.36-36.42.41-24.1-2.63-27.79.47-30.32.69-30.32.69-33.47-5.31-39.91-2.27-37.15,2.65-37.15,2.65l12.89,9.86s15.92-6.45,20.84-7.21,29.19,4.55,29.19,1.52,20.47,8.34,29.95,4.17,24.64,3.79,30.71,0,26.53-1.52,31.84,0,16.68-1.14,19.33-4.17,17.82,1.14,22.37,4.17,22.36-3,26.53-4.17,29.57,3.79,32.6,5.31,32.22-2.28,33.36-5.31,28.81,1.52,31.08,4.17,15.55,0,17.06-2.65,22.13-.11,22.13-.11,2.13,3.9,15.78.11,6.82,2.65,13.27.75,32.22,13.27,29.94,7.21,25.4-1.14,25.78,0,16.68,3,18.58-2.28,26.91-8.34,25.39-3.41,17.82,6.07,20.1,4.55,21.6-2.51,21.6-2.51l.1-9.71s-19.81,9.19-21.33,6.53-21.22-8-22.74-4.55-20.47,1.14-25.78-1.13-4.55,1.89-13.26,4.17-16.68-7.59-19.34-4.17-15.16,7.58-17.06,4.17-12.88-8.72-17.43-3.79-18.2-.76-21.23-.76S335.56,246.36,335.56,246.36Z"/>
    <path class="cls-6" d="M284.39,268c-4.55-2.27-33-1.9-34.5,1.14-2.25,4.5-48,2.6-48.14.38s-24.93-5.61-26.54-.38-26.9-3.78-26.91-3.79c-1.33-1.52-20.14,3-22.75,4.92s-32,2.33-31.84-.37-25.86-4.5-26.16-2.28-24.14,1.9-27.5-.76-30.11.76-30.11.76l9.09,7.2s56.49-5.3,59-3.41,30.32,6.83,33.36,5.31,28.43-6.45,32.6-5.31,26.32,8.72,30.87,5.69,15.54-8.72,18.2-5.69,13.85,5.69,19.16,4.17,25.78-3.79,31.84,0,21.23-4.17,30.71,0c5.94,2.61,14.57.71,21.4-1.51,0,0,25-3.42,25,.37s20.47,0,20.47,0,19.71-3,22-1.13,45.82-.64,45.82-.64-18.9-7.32-20.8-3.15-19.71,0-19.71,0-14-4.93-18.58-2.28-17,4.93-19.71,2.28-25.77-3.42-27.67-2.28S284.39,268,284.39,268Z"/>
    <path class="cls-6" d="M227.52,297.16c-5.3,1.52-21.22-3-23.88-6.07s-10.23.76-14.78,3.79-27.46-3-31.63-4.17-30.54,6.45-30.54,6.45l-21.61-3.79L86.51,289.2l-51.18-1.14a43.45,43.45,0,0,0-3.79-3c-3.83-1.92,47.85.32,48.14-1.9s27.51,3.37,27.3,6.07,29.23,2.27,31.84.38,21.42-6.45,22.75-4.93c0,0,25.3,9,26.91,3.79s50.66,3.08,50.8,5.31Z"/>
    <path class="cls-6" d="M51.25,300.57s18.45,1,15.56-2.34,12.85-2.57,14.27.77,33.61,5.84,33.61,5.84,30.44-4.46,32.6-2,21.2,3,20.87.25,22.37-3.36,26,.31,10.64,4,10.64,4l-8.34,4.17s-30.15-5.19-32.38-3.1-18.3.08-20.12-1.15-9.47-3.74-14.25-1.68-20.9,3.07-23.8.62-16.44-2.62-17.18-2-13.55.44-13.9-.77-16.42,1.83-17.87.9S51.25,300.57,51.25,300.57Z"/>
    <path class="cls-6" d="M516,235.92s-44.35,2.86-51.18-.17-40.56.76-42.83,1.52-30.33,9.47-36,0-17.82,4.16-24.64,4.54-29.19-11.75-34.88-8-24.26,9.48-30.32,3.79-35.64-3.79-35.64-1.89-20.47,3.79-26.15,0-26.16-10.62-32.22-6.82-25,12.88-23.89,6.06-25.39-6.44-26.15-3.41-42.84-.38-49.66-3.79-38.67-4.93-39.42,0-29.57,9.48-29.95,5.31-26.92-8-29.19-4.17-55.35,3.79-55.35,3.79l-20.84-6.45s30.32-.38,32.6-8,32.6-3,32.22,0,42.45,8.34,47,2.28,47.39-2.66,47.39-2.28,32.6,5.31,35.25,1.14,44.35,2.27,41.7,2.65,21.23,7.58,23.88.38,39.05,0,39.05,0,37.15,12.51,36,1.9,34.49-3,36.77.75,28.81,7.21,30.7,3,15.17-3.79,19.72,0,28.43,3.79,29.56,0,9.48-3.41,17.06,0,44.73,3.79,45.49,0,29.19-1.9,32.22,0,41.7,2,41.7-6.77Z"/>
    <path class="cls-3" d="M137.57,248.92a1.13,1.13,0,0,1-.29.48,46.45,46.45,0,0,0-7.58-.7,56.82,56.82,0,0,0-6.78.14,1.47,1.47,0,0,1-.08-.55,1.41,1.41,0,0,1,1.41-1.41,1.33,1.33,0,0,1,.63.19,2.2,2.2,0,0,1,2.17-1.77,2.1,2.1,0,0,1,1.71,1,1,1,0,0,1,.83-.5.89.89,0,0,1,.6.3,2.08,2.08,0,0,1,1.57-.65,2.13,2.13,0,0,1,1.49.7,1.68,1.68,0,0,1,.85-.21,1.76,1.76,0,0,1,1.64,1.36,1.54,1.54,0,0,1,.85,0A1.37,1.37,0,0,1,137.57,248.92Z"/>
    <path class="cls-3" d="M128.1,291.75a1.18,1.18,0,0,1-.3.49,46.45,46.45,0,0,0-7.58-.7,57,57,0,0,0-6.77.13,1.23,1.23,0,0,1-.09-.54,1.42,1.42,0,0,1,1.42-1.42,1.29,1.29,0,0,1,.62.19,2.2,2.2,0,0,1,2.18-1.76,2.14,2.14,0,0,1,1.71,1,1,1,0,0,1,.82-.49.86.86,0,0,1,.61.29,2.1,2.1,0,0,1,1.57-.64,2.13,2.13,0,0,1,1.49.69,1.73,1.73,0,0,1,.85-.21,1.77,1.77,0,0,1,1.63,1.37,1.41,1.41,0,0,1,.86,0A1.36,1.36,0,0,1,128.1,291.75Z"/>
    <path class="cls-3" d="M263.21,228.71a1.11,1.11,0,0,1-.29.49,46.7,46.7,0,0,0-7.58-.7,56.82,56.82,0,0,0-6.78.14,1.47,1.47,0,0,1-.08-.55,1.41,1.41,0,0,1,1.41-1.41,1.26,1.26,0,0,1,.63.19,2.2,2.2,0,0,1,2.17-1.77,2.11,2.11,0,0,1,1.71,1,1,1,0,0,1,.83-.5.89.89,0,0,1,.6.3,2.07,2.07,0,0,1,3.06.05,1.68,1.68,0,0,1,.85-.21,1.76,1.76,0,0,1,1.64,1.36,1.45,1.45,0,0,1,.85,0A1.36,1.36,0,0,1,263.21,228.71Z"/>
    <path class="cls-3" d="M246.53,248.81a1.13,1.13,0,0,1-.29.48,46.58,46.58,0,0,0-7.58-.7,56.82,56.82,0,0,0-6.78.14,1.47,1.47,0,0,1-.08-.55,1.41,1.41,0,0,1,1.41-1.41,1.33,1.33,0,0,1,.63.19,2.2,2.2,0,0,1,2.17-1.77,2.1,2.1,0,0,1,1.71,1,1,1,0,0,1,.83-.5.89.89,0,0,1,.6.3,2.08,2.08,0,0,1,1.57-.65,2.13,2.13,0,0,1,1.49.7,1.68,1.68,0,0,1,.85-.21,1.76,1.76,0,0,1,1.64,1.36,1.54,1.54,0,0,1,.85,0A1.37,1.37,0,0,1,246.53,248.81Z"/>
    <path class="cls-3" d="M206.35,287.47a1.09,1.09,0,0,1-.3.49,46.42,46.42,0,0,0-7.57-.7,57.21,57.21,0,0,0-6.78.13,1.61,1.61,0,0,1-.09-.54,1.42,1.42,0,0,1,1.42-1.42,1.37,1.37,0,0,1,.63.19,2.19,2.19,0,0,1,2.17-1.76,2.14,2.14,0,0,1,1.71,1,1,1,0,0,1,.83-.49.84.84,0,0,1,.6.29,2.11,2.11,0,0,1,1.57-.64,2.09,2.09,0,0,1,1.49.7,1.68,1.68,0,0,1,.85-.22,1.79,1.79,0,0,1,1.64,1.37,1.38,1.38,0,0,1,.85,0A1.36,1.36,0,0,1,206.35,287.47Z"/>
    <path class="cls-3" d="M172.23,230.23a1.16,1.16,0,0,1-.29.49,46.45,46.45,0,0,0-7.58-.7,57.21,57.21,0,0,0-6.78.13,1.48,1.48,0,0,1,1.34-2,1.33,1.33,0,0,1,.62.19,2.18,2.18,0,0,1,2.17-1.76,2.11,2.11,0,0,1,1.71,1,1,1,0,0,1,.83-.49.86.86,0,0,1,.61.29,2.07,2.07,0,0,1,1.56-.64,2.12,2.12,0,0,1,1.49.69,1.7,1.7,0,0,1,2.49,1.16,1.38,1.38,0,0,1,.85,0A1.35,1.35,0,0,1,172.23,230.23Z"/>
    <path class="cls-3" d="M115.75,221.51a1.16,1.16,0,0,1-.29.49,46.7,46.7,0,0,0-7.58-.7,59.46,59.46,0,0,0-6.78.13,1.39,1.39,0,0,1-.08-.54,1.42,1.42,0,0,1,1.41-1.42,1.37,1.37,0,0,1,.63.19,2.19,2.19,0,0,1,2.17-1.76,2.12,2.12,0,0,1,1.71,1,1,1,0,0,1,.83-.49.89.89,0,0,1,.6.3,2.07,2.07,0,0,1,3.06.05,1.69,1.69,0,0,1,2.49,1.15,1.45,1.45,0,0,1,.85,0A1.36,1.36,0,0,1,115.75,221.51Z"/>
    <path class="cls-3" d="M71,284.06a1,1,0,0,1-.3.48,47.9,47.9,0,0,0-7.57-.69,55.12,55.12,0,0,0-6.78.13,1.67,1.67,0,0,1-.09-.55A1.42,1.42,0,0,1,57.7,282a1.37,1.37,0,0,1,.63.19,2.2,2.2,0,0,1,2.17-1.77,2.15,2.15,0,0,1,1.71,1,1,1,0,0,1,.83-.49.84.84,0,0,1,.6.29,2.11,2.11,0,0,1,1.57-.64,2.08,2.08,0,0,1,1.49.69,1.7,1.7,0,0,1,2.49,1.15,1.46,1.46,0,0,1,.85,0A1.36,1.36,0,0,1,71,284.06Z"/>
    <path class="cls-3" d="M299.94,267.88a1.16,1.16,0,0,1-.29.49,46.45,46.45,0,0,0-7.58-.7,59.46,59.46,0,0,0-6.78.13,1.39,1.39,0,0,1-.08-.54,1.41,1.41,0,0,1,1.41-1.41,1.22,1.22,0,0,1,.63.18,2.19,2.19,0,0,1,2.17-1.76,2.11,2.11,0,0,1,1.71,1,1,1,0,0,1,.83-.49.89.89,0,0,1,.6.3,2.07,2.07,0,0,1,3.06.05,1.68,1.68,0,0,1,.85-.21,1.76,1.76,0,0,1,1.64,1.36,1.45,1.45,0,0,1,.85,0A1.36,1.36,0,0,1,299.94,267.88Z"/>
    <path class="cls-3" d="M38.84,266.54a1.07,1.07,0,0,1-.29.48,46.45,46.45,0,0,0-7.58-.7,56.82,56.82,0,0,0-6.78.14,1.47,1.47,0,0,1-.08-.55,1.41,1.41,0,0,1,1.41-1.41,1.33,1.33,0,0,1,.63.19,2.2,2.2,0,0,1,2.17-1.77,2.1,2.1,0,0,1,1.71,1,1,1,0,0,1,.83-.5.89.89,0,0,1,.6.3,2.08,2.08,0,0,1,1.57-.65,2.13,2.13,0,0,1,1.49.7,1.68,1.68,0,0,1,.85-.21A1.76,1.76,0,0,1,37,264.91a1.54,1.54,0,0,1,.85,0A1.37,1.37,0,0,1,38.84,266.54Z"/>
    <path class="cls-3" d="M87.19,248.26c0,.06,0,.4,0,.38-2-.12-5.67,0-9.82,0-4.54,0-8.77.1-10.3-.2,0-.09,0-.29,0-.38,0-.63.47-.78,1.1-.81a1.12,1.12,0,0,1,1.08.64,1.24,1.24,0,0,1,.83-.35,1.18,1.18,0,0,1,.77.21,1.25,1.25,0,0,1,.75-.28,1.17,1.17,0,0,1,.94.36,1,1,0,0,1,.76-.45,1,1,0,0,1,.78.35.93.93,0,0,1,1.51-.07.94.94,0,0,1,1.32-.25.9.9,0,0,1,.56-.22,1,1,0,0,1,.94.65,1.6,1.6,0,0,1,1-.36,1.54,1.54,0,0,1,1.07.33.72.72,0,0,1,.63-.41.7.7,0,0,1,.45.13.94.94,0,0,1,.5-.18,1,1,0,0,1,.88.51.74.74,0,0,1,1,0,.74.74,0,0,1,.56-.29.78.78,0,0,1,.58.23.75.75,0,0,1,1.26.12.56.56,0,0,1,.26-.07C86.92,247.89,87.18,248,87.19,248.26Z"/>
    <path class="cls-3" d="M34.88,223.24c0,.06,0,.4,0,.38-2-.12-5.68,0-9.83,0-4.53,0-8.76.1-10.29-.2a1.62,1.62,0,0,1,0-.38c0-.63.47-.78,1.1-.81a1.14,1.14,0,0,1,1.08.64,1.22,1.22,0,0,1,.83-.35,1.24,1.24,0,0,1,.77.21,1.22,1.22,0,0,1,.74-.28,1.18,1.18,0,0,1,.95.36.95.95,0,0,1,1.53-.1,1,1,0,0,1,.74-.42,1,1,0,0,1,.78.35,1,1,0,0,1,.74-.42.94.94,0,0,1,.57.17.95.95,0,0,1,1.51.43,1.6,1.6,0,0,1,1-.36,1.55,1.55,0,0,1,1.08.33.74.74,0,0,1,.63-.41.7.7,0,0,1,.45.13.86.86,0,0,1,.5-.17,1,1,0,0,1,.88.5.74.74,0,0,1,1,.05.74.74,0,0,1,.55-.29.75.75,0,0,1,.58.23.83.83,0,0,1,.56-.29A.76.76,0,0,1,34,223a.45.45,0,0,1,.26-.08C34.61,222.87,34.87,222.93,34.88,223.24Z"/>
    <path class="cls-3" d="M238.28,271.82c0,.06.05.39,0,.37-2-.11-5.68,0-9.83,0-4.53,0-8.76.11-10.29-.2a1.62,1.62,0,0,1,0-.38c0-.63.47-.78,1.1-.81a1.14,1.14,0,0,1,1.08.65,1.27,1.27,0,0,1,.83-.36,1.31,1.31,0,0,1,.77.21,1.28,1.28,0,0,1,1.69.08,1,1,0,0,1,.76-.44.93.93,0,0,1,.77.35,1,1,0,0,1,.74-.42.94.94,0,0,0,1.52-.07.93.93,0,0,1,.57.16,1,1,0,0,1,.56-.22.93.93,0,0,1,.94.66,1.59,1.59,0,0,1,1-.37,1.51,1.51,0,0,1,1.07.33.8.8,0,0,1,.64-.41.87.87,0,0,1,.45.13.93.93,0,0,1,.49-.17,1,1,0,0,1,.89.5.73.73,0,0,1,.46-.18.78.78,0,0,1,.58.23.74.74,0,0,1,.55-.29.72.72,0,0,1,.58.24.76.76,0,0,1,.56-.29.74.74,0,0,1,.71.41.67.67,0,0,1,.25-.08C238,271.45,238.27,271.5,238.28,271.82Z"/>
  </g>
  <g class="cls-1">
    <polygon class="cls-7" points="52.28 213.19 104.39 210.77 105.53 196.59 50.85 196.59 52.28 213.19"/>
    <path class="cls-8" d="M179.68,203.27s20.25-19.49,19.34-23,8.77,5.12-13,33.56"/>
    <path class="cls-9" d="M36.15,118.28c1.14-5.74,8.85-10.56,8.85-10.56,7.43-3.32,4.29,13.58,7.71,7.54,2.57-4.52,13.35-2.73,13.35-2.73l-.22-10,6,7.85,4-7.85,1.71,7.85,12.85-7.85-3.71,9.36c24.83-8.45,27.12,9,27.12,9s1.14-13.88,12.27-5.43c0,0,5.71,8.75,6.86,7.24l.14,79.22-24.84,4.83L103.39,205l2-8.45c-20.2,10.83-53.25,2.26-53.25,2.26l.14,10.72-8.42.15-1.14-4.83L35,207l-2.28-6.64H26.16l.86-8.15-6.57-.9,5.14-8.75-4.28-5.44,6.56-3.31-2-7.25s3.18-1.47,4.29-1.81c.76-.23,3.14-.6,3.14-.6s-10.42-11-3.14-26.56c12-25.65-2.86,5.13-2.86,5.13S9,144.23,17,130.35s20.56-30.48,25.41-19.62"/>
    <path class="cls-10" d="M79,169.77a18.46,18.46,0,0,0-9.33,2.34,18.49,18.49,0,0,0-9.33-2.34c-7.51,0-13.59,3.83-13.59,8.56s6.08,8.57,13.59,8.57a18.39,18.39,0,0,0,9.33-2.35A18.36,18.36,0,0,0,79,186.9c7.5,0,13.59-3.84,13.59-8.57S86.53,169.77,79,169.77Z"/>
    <ellipse class="cls-11" cx="57.89" cy="174.78" rx="0.25" ry="0.07"/>
    <ellipse class="cls-11" cx="53.5" cy="178.63" rx="0.25" ry="0.07"/>
    <ellipse class="cls-11" cx="58.92" cy="181.05" rx="0.25" ry="0.07"/>
    <ellipse class="cls-11" cx="63.98" cy="177.79" rx="0.25" ry="0.07"/>
    <ellipse class="cls-11" cx="79.01" cy="174.48" rx="0.25" ry="0.07"/>
    <ellipse class="cls-11" cx="74.62" cy="178.33" rx="0.25" ry="0.07"/>
    <ellipse class="cls-11" cx="80.05" cy="180.74" rx="0.25" ry="0.07"/>
    <ellipse class="cls-11" cx="85.1" cy="177.49" rx="0.25" ry="0.07"/>
    <path d="M74.65,168.16c-.94,2.08-2.22,4.09-5,4.09s-4.16-2-5-4.09c-.94-2.49,1.75-2.14,4.49-2.14S75.77,165.67,74.65,168.16Z"/>
    <ellipse cx="45.86" cy="160.23" rx="3.43" ry="3.62"/>
    <ellipse cx="105.39" cy="164.3" rx="3.85" ry="4.07"/>
    <path class="cls-9" d="M166.05,255s-110.62-49-133.61-24.74c-.86.9,9.14,2.71,9.14,2.71s-7.85,8.79-5.14,8.15,8-.3,8-.3-5.89,9.68-3.71,8.15c1.71-1.21,6.28-.3,6.28-.3a39.49,39.49,0,0,0,4.85,5.91v20s-3.42,7.85-7.7,10.26S47,293,47,293s9.42,5.43,16.56-.91,17.13-25,16.27-26l-5.39-2.3c4.15,1.28,12.7,3.84,15.39,4.11,3.24.33,11.29-2.12,11.29-2.12l2.71-.16c.45,5.51-.4,14.46-6.58,24.91-10.25,17.34,20.84,2.12,20.84,2.12s11.14-7.25,10.28-16a64.16,64.16,0,0,1,.33-12.33A80.39,80.39,0,0,0,166.05,255Z"/>
    <path class="cls-9" d="M164.91,255.59s2.78,24.06,2,25.35c0,0-14.27,21.42,8.28,13s15.7-13.58,14-19c-2.23-7.08,1.14-26.25.57-25,.91.83,6.08-20.87,1.14-33.8,0,0-8.56-32.89-58.81-18.71l-.57,4.53-9.14-2.72L119.23,204,111,200.36l-2.85,6.34L105,204c-25.41,13.58-54.82,5.13-54.82,5.13s-6.57,4.53-9.13,11.77c-.65,1.81-6.62,7.64-7.14,8.15"/>
    <polygon class="cls-9" points="168.01 254.5 155.92 257.25 56.1 249.97 44.57 234.92 39.72 228.88 168.62 227.82 168.01 254.5"/>
    <polygon class="cls-9" points="134.22 195.38 129.65 196.59 129.65 179.99 133.65 179.99 134.22 195.38"/>
    <path class="cls-12" d="M130.8,135.63s11.27,5.58,14.41,3.77-2.57-16.6-7.13-25.35-12,1.51-12,1.51l6,8.45"/>
    <path class="cls-8" d="M131.94,197.19c0,6.11,42.9,46,47,50.25,1.43,1.51,3.77,41.59,6.28,41.95,0,0,8.71-2.57,5.86-10.11s.32-31.65.85-33.5c2-6.94.86-13,.86-18.71,0-9.13-3.61-17.58-9.14-22.94-6.85-6.63-15.44-8.84-22.27-10.26-2.86-.59-10.4-.11-15.13.61C141,195.27,131.94,197.19,131.94,197.19Z"/>
    <path class="cls-8" d="M128.8,264.49l-10.71,27.92a15.61,15.61,0,0,0,5.43-3.93c2.38-2.52,4.85-6.72,4.85-8.75C128.37,278.22,128.8,264.49,128.8,264.49Z"/>
    <path class="cls-8" d="M80.69,265.55l-6.71-2-4.57,21.72,5.14-7.84A109,109,0,0,0,80.69,265.55Z"/>
    <path class="cls-3" d="M43.69,157.09c-1.84,0-1.84,3,0,3S45.53,157.09,43.69,157.09Z"/>
    <path class="cls-3" d="M45.9,159.58a.7.7,0,0,0,0,1.4A.7.7,0,0,0,45.9,159.58Z"/>
    <path class="cls-3" d="M103.36,161c-1.84,0-1.84,3,0,3S105.2,161,103.36,161Z"/>
    <path class="cls-8" d="M103.1,205l24.27-10.26,6.57.6,1-7.92,6.56-4.46-3.75-5.36,4.68-5.65-5.85-5.06s4.2-20.44,1.91-23.76c-.36-.52.92-4.82.29-4.82-1.43,0-16.15-5.95-16-6"/>
    <path d="M51.54,178.39c-1.84,0-1.84,3,0,3S53.38,178.39,51.54,178.39Z"/>
    <path d="M54,173c-1.83,0-1.84,3,0,3S55.79,173,54,173Z"/>
    <path d="M57.79,179.3c-1.84,0-1.84,3,0,3S59.63,179.3,57.79,179.3Z"/>
    <path d="M61.62,174.49c-1.83,0-1.84,3,0,3S63.46,174.49,61.62,174.49Z"/>
    <path d="M65.18,180.5c-1.84,0-1.84,3,0,3S67,180.5,65.18,180.5Z"/>
    <path d="M87.56,178.65c-1.84,0-1.84,3,0,3S89.4,178.65,87.56,178.65Z"/>
    <path d="M84,173.51c-1.84,0-1.84,3,0,3S85.79,173.51,84,173.51Z"/>
    <path d="M81.76,180.8c-1.84,0-1.84,3,0,3S83.6,180.8,81.76,180.8Z"/>
    <path d="M77.36,174c-1.83,0-1.84,3,0,3S79.2,174,77.36,174Z"/>
    <path d="M74.54,179.64c-1.84,0-1.84,3,0,3S76.38,179.64,74.54,179.64Z"/>
  </g>
  <g class="cls-1">
    <g>
      <path d="M20,35.52H17q-.41-4.73-2.9-4.73A2.73,2.73,0,0,0,11.64,32a6.32,6.32,0,0,0-.81,3.55,6.8,6.8,0,0,0,.88,3.33L18.2,50A13.06,13.06,0,0,1,20,56.69V59a12,12,0,0,1-1.8,6.63q-1.8,2.79-4.32,2.79H10.83a5.12,5.12,0,0,1-4.58-2.34Q4.71,63.74,4.71,59H7.79v.79a4.13,4.13,0,0,0,1,2.93,2.85,2.85,0,0,0,2.09,1,2.49,2.49,0,0,0,2.33-1.21A7,7,0,0,0,13.88,59,6.63,6.63,0,0,0,13,55.67L6.51,44.5a12.85,12.85,0,0,1-1.8-6.66V35.52a12,12,0,0,1,1.8-6.63C7.7,27,9.15,26.1,10.83,26.1h3.05Q19.63,26.1,20,35.52Z"/>
      <path d="M26.08,68.42V35.52a11.84,11.84,0,0,1,1.82-6.65c1.21-1.85,2.64-2.77,4.31-2.77h6.12q2.49,0,4.29,2.79a12,12,0,0,1,1.8,6.63v32.9H38.33V49.63H32.21V68.42Zm6.13-23.53h6.12V35.52a6,6,0,0,0-.9-3.35,2.39,2.39,0,0,0-4.33,0,6.09,6.09,0,0,0-.89,3.35Z"/>
      <path d="M50.54,68.42V26.1H52l13,20,13-20h3.08V68.42H75V42.58L64.29,59.06,53.62,42.58V68.42Z"/>
      <path d="M87.2,68.42V26.1h6.12V63.74h9.17v4.68Z"/>
      <path d="M133,35.52h-3q-.4-4.73-2.89-4.73A2.71,2.71,0,0,0,124.67,32a6.32,6.32,0,0,0-.81,3.55,6.69,6.69,0,0,0,.88,3.33L131.23,50A13.05,13.05,0,0,1,133,56.69V59a12,12,0,0,1-1.79,6.63q-1.8,2.79-4.33,2.79h-3a5.11,5.11,0,0,1-4.58-2.34q-1.55-2.34-1.54-7.08h3.08v.79a4.09,4.09,0,0,0,1,2.93,2.83,2.83,0,0,0,2.09,1,2.49,2.49,0,0,0,2.33-1.21A7.14,7.14,0,0,0,126.9,59a6.53,6.53,0,0,0-.88-3.33L119.53,44.5a12.94,12.94,0,0,1-1.79-6.66V35.52a12.09,12.09,0,0,1,1.79-6.63q1.8-2.79,4.33-2.79h3Q132.66,26.1,133,35.52Z"/>
      <path d="M139.11,68.42V26.1h6.12V43.37l9.9-17.27h5.39L148.28,47.26l12.24,21.16H154.4L145.23,52V68.42Z"/>
      <path d="M166.61,68.42V26.1h12.24q2.49,0,4.29,2.79a12,12,0,0,1,1.8,6.63v2.54a13.87,13.87,0,0,1-1.4,6.07A4.81,4.81,0,0,1,178.85,47h3A2.56,2.56,0,0,1,184,48.42a6,6,0,0,1,.9,3.36V68.42h-6.09V54.32A5.91,5.91,0,0,0,178,51a2.57,2.57,0,0,0-2.18-1.39h-3V68.42Zm6.12-23.53h3A2.58,2.58,0,0,0,178,43.51a5.91,5.91,0,0,0,.9-3.3V35.52a6,6,0,0,0-.9-3.35,2.58,2.58,0,0,0-2.18-1.38h-3Z"/>
      <path d="M191.06,68.42V35.52a11.84,11.84,0,0,1,1.81-6.65q1.81-2.78,4.31-2.77h6.12q2.5,0,4.29,2.79a12,12,0,0,1,1.8,6.63v32.9H203.3V49.63h-6.12V68.42Zm6.12-23.53h6.12V35.52a6.09,6.09,0,0,0-.89-3.35,2.59,2.59,0,0,0-2.19-1.38,2.56,2.56,0,0,0-2.14,1.38,6,6,0,0,0-.9,3.35Z"/>
      <path d="M215.51,68.42V26.1h6.12V63.74h9.17v4.68Z"/>
      <path d="M236.89,68.42V26.1h12.24q2.49,0,4.29,2.79a12,12,0,0,1,1.8,6.63V59a12,12,0,0,1-1.8,6.63q-1.8,2.79-4.29,2.79ZM243,63.74h3a2.57,2.57,0,0,0,2.18-1.41,6.06,6.06,0,0,0,.9-3.33V35.52a6,6,0,0,0-.9-3.35,2.58,2.58,0,0,0-2.18-1.38h-3Z"/>
      <path d="M261.34,68.42V26.1h15.29v4.69h-9.17v14.1h6.12v4.74h-6.12V63.74h9.17v4.68Z"/>
      <path d="M285.79,68.42V30.79h-6.12V26.1H298v4.69h-6.12V68.42Z"/>
    </g>
    <path class="cls-13" d="M5.15,63.33c-.41.36-.28,2.34,0,2.93,2.38,5.13,3.33,16.86,6.66,3.67.72-2.82,5.13-.84,5.72-2.2.95-2.2,4.28-7.33.95-4.4s-5.68,3.42-7.62,2.93C9.38,65.89,6.46,62.18,5.15,63.33Z"/>
    <path class="cls-13" d="M26.1,59.67S26.18,65.93,29,67c3.8,1.47,2.57-7.18,3.33-6.59,1,.73,1.43,8.06-2.38,14.66-1.32,2.27-1.91,19-1.91,19s0-15.27-.95-17.59C25.62,72.86,26.1,59.67,26.1,59.67Z"/>
    <path class="cls-13" d="M38.48,65.53c-.76-1.16-.95,2.93-.48,3.66,1,1.56,7.14.74,7.14,0,0-1.46-.47-7.33-1-5.13-.42,2-.47,3.67-2.86,3.67S39,66.26,38.48,65.53Z"/>
    <path class="cls-13" d="M50.38,67.73c0,.73-.48,1.46,0,1.46s3.81.74,3.81,0-.48-3.66-.48-3.66-.47,2.2-1,2.2S50.38,66.69,50.38,67.73Z"/>
    <path class="cls-13" d="M74.59,67.73c0,.73,0,.07,0,1.46.07,4.4,4.36.74,7.22,0,.46-.12-.91-3.66-.91-3.66s-.9,2.2-1.8,2.2S74.59,66.69,74.59,67.73Z"/>
    <path class="cls-13" d="M102.75,65.53A6.87,6.87,0,0,1,98.45,68,18.23,18.23,0,0,1,91,67.36C88,66,87,51.6,87,51.6s-.17,14.29,0,16.86c.94,1.6,2.41,3,2.78,5,.59,3.21.43,12.18,1.55,7.44,1-4.2,2.49-12.77,4.47-6.09.72,2.44-.23-2.69,3-2.83C103.48,71.78,102.75,65.53,102.75,65.53Z"/>
    <path class="cls-13" d="M131.8,66.26a14.57,14.57,0,0,0,.95-4.4s-5.24,6.6-13,4.19c-1.23-.38-1.86-4-1.86-4s1.44,7.33,2.53,7.89C123.5,71.52,131.8,66.26,131.8,66.26Z"/>
    <path class="cls-13" d="M138.94,68.46s2.7,2.91,3.33,8.79c.48,4.4,1.86-2.34,1.77-3.19-.34-3.4,1-6,1.57-5.6"/>
    <path class="cls-13" d="M152.75,65.53c-.48.73.95,3.66,1.43,3.66s7.14,1.47,7.14,0-1.91-5.13-2.38-3.66a3.25,3.25,0,0,1-2.86,2.2C155.13,67.73,153.22,64.8,152.75,65.53Z"/>
    <path class="cls-13" d="M166.56,67.73s-1.91,1.46-1,2.2,4.29,3.66,4.29,5.86,1.53-4.48,2.38-5.13.81-6.69.47-5.13C172.27,67.73,166.56,67.73,166.56,67.73Z"/>
    <path class="cls-13" d="M178.93,67.73a1.41,1.41,0,0,0,0,1.46c.48.74,6.67.74,6.67,0s-.48-2.93-.95-2.2S179.41,69.19,178.93,67.73Z"/>
    <path class="cls-13" d="M190.84,60.4c-.12-.71-.68,8.79,0,8.79.95,0,2.85,2.93,2.85,6.6s.48,8.79.48,8.79.48-8.79,1-11,2.86-4.4,2.38-5.86S192.74,72.12,190.84,60.4Z"/>
    <path class="cls-13" d="M203.22,67s-1.43,3.67,0,2.94,6.66,0,6.66-.74.38-2.85-.47-2.2S203.22,67,203.22,67Z"/>
    <path class="cls-13" d="M215.6,65.53c.47,0,8.6,3.21,14.28,1.46,2.38-.73-.95-2.93-.48-3.66s3.81,2.2,2.86,3.66-1.43,2.94-2.86,2.94a5,5,0,0,0-2.85,1.46s-1-2.2-2.38-2.2c-.48,0-10,.74-9.53-.73Z"/>
    <path class="cls-13" d="M237,66.26c-.56-.57-1,1.47-.47,2.2s13.8,1.47,14.76.73,3.33-4.39,2.85-5.13-2.85,3.67-3.33,2.93S239.88,69.19,237,66.26Z"/>
    <path class="cls-13" d="M261.3,64.8c0-1-.47,4.39,0,4.39s13.81,1.47,15.72,0-.48-1.46-.48-1.46S261.3,70.66,261.3,64.8Z"/>
    <path class="cls-13" d="M285.59,67c-.48,0,0,2.94.47,3.67s1.53,6.17,2.38,8.79c.48,1.47,0-9.52,2.86-9.52s.48-5.13.48-5.87-.33,2.24-.48,2.93C290.82,69.19,287.09,67,285.59,67Z"/>
    <path class="cls-13" d="M28.84,104.33c.44,1.43-.45,2.89-1,2.89s-1.44-1.46-1-2.89c.4-1.28,1-2.89,1-2.89S28.44,103.05,28.84,104.33Z"/>
    <path class="cls-13" d="M92.56,89.8c.73,2.13-.74,4.31-1.66,4.31s-2.38-2.18-1.65-4.31c.66-1.92,1.65-4.31,1.65-4.31S91.9,87.88,92.56,89.8Z"/>
    <path class="cls-13" d="M143.88,88.42c.44,1.43-.45,2.89-1,2.89s-1.44-1.46-1-2.89,1-2.89,1-2.89S143.48,87.14,143.88,88.42Z"/>
    <path class="cls-13" d="M288.87,85.68c.19.55-.19,1.1-.43,1.1s-.61-.55-.42-1.1.42-1.1.42-1.1S288.7,85.19,288.87,85.68Z"/>
  </g>
  <g class="cls-1">
    <path class="cls-14" d="M211.71,203.81c-15.32-44.38-16.19-86.11-2-104.76.74.13,1.49.29,2.23.48,25,6.13,49.47,38.35,64.25,81.17s15.62,84.1-.11,104.73c-.34.46-.69.9-1.05,1.33l-.46.55-.62-.17C251.45,280.84,226.86,247.73,211.71,203.81Z"/>
    <g>
      <polygon class="cls-15" points="258.14 260.01 258.11 260.24 255.77 277.16 270.36 272.07 284.95 266.99 272.7 255.15 272.54 255 264.83 257.68 258.14 260.01"/>
      <polygon class="cls-15" points="244.11 264.9 244.35 251.84 244.36 251.84 245.08 245.63 245.71 240.29 247.38 230.35 247.86 227.52 250.01 214.74 259.78 223.62 261.9 225.55 269.13 232.13 273.05 235.69 278.17 240.35 287.24 249.87 272.53 255 260.44 243.32 258.14 260.01 244.11 264.9"/>
    </g>
    <polygon class="cls-16" points="244.36 251.84 256.68 233.37 278.17 240.35 273.05 235.69 258.32 230.91 261.9 225.55 259.78 223.62 255.52 230 247.86 227.52 247.38 230.35 253.88 232.46 245.08 245.63 244.36 251.84"/>
    <path class="cls-17" d="M211.71,203.81C196.39,159.43,196.8,119,208.77,99.38c.72.14,1.45.31,2.18.5l64.44,186.76-2.36.83C250.48,279,226.86,247.73,211.71,203.81Z"/>
    <g>
      <path d="M239.84,147.84l-1.09-3.26q3.15-1.53,2.26-4.2a3.86,3.86,0,0,0-1.69-2.32,3.44,3.44,0,0,0-2.76,0,3.73,3.73,0,0,0-2,1.71l-5.44,9.55a7.16,7.16,0,0,1-4,3.46l-1.6.54a7,7,0,0,1-8.74-4.38l-1.09-3.26a7.09,7.09,0,0,1,0-5.45,7,7,0,0,1,4.37-3.29l1.1,3.3-.55.18a2.45,2.45,0,0,0-1.69,1.7,4,4,0,0,0,0,2.48,3.38,3.38,0,0,0,1.67,2.21,3.68,3.68,0,0,0,2.71-.05,3.59,3.59,0,0,0,2-1.71l5.44-9.54a7.11,7.11,0,0,1,4-3.47l1.6-.54a7,7,0,0,1,8.74,4.38l1.08,3.26C245.57,143.21,244.11,146.12,239.84,147.84Z"/>
      <path d="M220.27,165.28l26.14-8.72L244.22,150l3.25-1.08L254,168.56l-3.25,1.08-2.19-6.56-26.14,8.72Z"/>
      <path d="M225.72,181.62,248.57,174a6.6,6.6,0,0,1,5.27.4,6.68,6.68,0,0,1,3.46,4l2.19,6.56a7,7,0,0,1-4.37,8.71l-22.85,7.62-2.17-6.52,13.05-4.35L241,183.83l-13.05,4.35Zm18.53,1.11,2.19,6.56,6.5-2.17a3.46,3.46,0,0,0,2.19-4.4,3.44,3.44,0,0,0-4.38-2.16Z"/>
      <path d="M234.46,207.82,263.85,198l4.38,13.12a6.58,6.58,0,0,1-.41,5.24,6.65,6.65,0,0,1-4,3.47l-1.76.58a7.39,7.39,0,0,1-4.71-.08q-2.52-.83-3.7-4.36l1.09,3.26a3.47,3.47,0,0,1-2.21,4.36L241,227.46l-2.17-6.52,9.79-3.27a3.32,3.32,0,0,0,2-1.73,3.39,3.39,0,0,0,.18-2.65L249.7,210l-13,4.36ZM253,208.93l1.09,3.26a3.31,3.31,0,0,0,1.74,2,3.26,3.26,0,0,0,2.61.2l3.26-1.08a3.46,3.46,0,0,0,2.19-4.4l-1.09-3.26Z"/>
      <path d="M244.3,237.32l26.14-8.72L268.25,222l3.26-1.09,6.55,19.64-3.25,1.08-2.19-6.55-26.14,8.72Z"/>
    </g>
    <path class="cls-18" d="M250.26,284.49c3.05-4,18.16-3.52,23.13-4.32,4.57-.73,11-2.6,14,1,3.27,4,2.39,4.09-2.54,5.53-5.2,1.51-19.21,4-23.42.56C259.58,285.76,248.87,286.33,250.26,284.49Z"/>
  </g>
  <rect class="cls-19" x="52" y="125.21" width="214" height="44.79"/>
  <rect class="cls-19" x="74" y="167.21" width="154" height="44.79"/>
  <g>
    <path d="M58.16,163.86l7.17-34h4.55l7.21,34H72.63l-1.54-8.56H64.21l-1.63,8.56Zm6.67-12h5.63L67.63,136.6Z"/>
    <path d="M80.51,163.86v-34h3.21l9.59,22.56V129.89h3.91v34h-3l-9.71-23.19v23.19Z"/>
    <path d="M102.77,163.86v-34h4.63v34Z"/>
    <path d="M112.77,163.86l.63-34H118l6,27.55,6-27.55h4.58l.63,34h-3.79L131,139.2l-5.71,24.66h-2.67L117,139.2l-.37,24.66Z"/>
    <path d="M138.53,163.86l7.17-34h4.55l7.21,34H153l-1.54-8.56h-6.88L143,163.86Zm6.67-12h5.63L148,136.6Z"/>
    <path d="M163.25,163.86V133.42h-5.71v-3.53h16v3.53H168v30.44Z"/>
    <path d="M177,163.86v-34h4.63v34Z"/>
    <path d="M195.73,164.23a9.77,9.77,0,0,1-5.46-1.34,7.26,7.26,0,0,1-2.92-3.83,17.56,17.56,0,0,1-.88-5.85V140.33a16.51,16.51,0,0,1,.9-5.76,7.16,7.16,0,0,1,2.92-3.69,10.09,10.09,0,0,1,5.44-1.28,9.84,9.84,0,0,1,5.42,1.3,7.32,7.32,0,0,1,2.89,3.69,16.32,16.32,0,0,1,.9,5.74v12.92A16.83,16.83,0,0,1,204,159a7.62,7.62,0,0,1-2.89,3.84A9.5,9.5,0,0,1,195.73,164.23Zm0-3.73a4.46,4.46,0,0,0,2.83-.77,3.85,3.85,0,0,0,1.29-2.18,14,14,0,0,0,.34-3.3V139.37a13.4,13.4,0,0,0-.34-3.25,3.61,3.61,0,0,0-1.29-2.1,4.67,4.67,0,0,0-2.83-.73,4.79,4.79,0,0,0-2.86.73,3.58,3.58,0,0,0-1.31,2.1,14,14,0,0,0-.33,3.25v14.88a14.6,14.6,0,0,0,.33,3.3,3.82,3.82,0,0,0,1.31,2.18A4.58,4.58,0,0,0,195.73,160.5Z"/>
    <path d="M209.57,163.86v-34h3.21l9.58,22.56V129.89h3.92v34h-3l-9.71-23.19v23.19Z"/>
    <path d="M239.54,164.23a8.82,8.82,0,0,1-4.86-1.25,8,8,0,0,1-2.94-3.48,14.71,14.71,0,0,1-1.16-5.16l4.17-1.13a18.86,18.86,0,0,0,.56,3.48,6.2,6.2,0,0,0,1.44,2.74,3.59,3.59,0,0,0,2.79,1.07,3.54,3.54,0,0,0,2.77-1,4.2,4.2,0,0,0,.94-2.95,6.09,6.09,0,0,0-1-3.71,19.37,19.37,0,0,0-2.63-2.83l-5.67-5a9.66,9.66,0,0,1-2.46-3.21,10.32,10.32,0,0,1-.79-4.3,7.67,7.67,0,0,1,2.13-5.79,8,8,0,0,1,5.79-2.05,11.05,11.05,0,0,1,3.52.52,6.2,6.2,0,0,1,2.55,1.62,7.89,7.89,0,0,1,1.62,2.75,15.69,15.69,0,0,1,.81,3.87l-4,1.09a16.66,16.66,0,0,0-.5-3.08,4.63,4.63,0,0,0-1.31-2.26,3.86,3.86,0,0,0-2.69-.86,3.76,3.76,0,0,0-2.73.94,3.72,3.72,0,0,0-1,2.79,5.53,5.53,0,0,0,.52,2.56,7.53,7.53,0,0,0,1.69,2.05l5.71,5a18.19,18.19,0,0,1,3.38,4,10.18,10.18,0,0,1,1.46,5.51,8.56,8.56,0,0,1-1,4.34,7,7,0,0,1-2.85,2.79A8.84,8.84,0,0,1,239.54,164.23Z"/>
    <path d="M250.71,152.91v-3.39H260v3.39Z"/>
  </g>
  <g>
    <path d="M89.63,205.23a9.77,9.77,0,0,1-5.46-1.34,7.31,7.31,0,0,1-2.92-3.83,17.82,17.82,0,0,1-.88-5.85V181.33a16.51,16.51,0,0,1,.9-5.76,7.16,7.16,0,0,1,2.92-3.69,10.11,10.11,0,0,1,5.44-1.28,9.84,9.84,0,0,1,5.42,1.3,7.32,7.32,0,0,1,2.89,3.69,16.32,16.32,0,0,1,.9,5.74v12.92a16.83,16.83,0,0,1-.9,5.78,7.62,7.62,0,0,1-2.89,3.84A9.5,9.5,0,0,1,89.63,205.23Zm0-3.73a4.46,4.46,0,0,0,2.83-.77,3.85,3.85,0,0,0,1.29-2.18,14,14,0,0,0,.34-3.3V180.37a13.4,13.4,0,0,0-.34-3.25,3.61,3.61,0,0,0-1.29-2.1,4.67,4.67,0,0,0-2.83-.73,4.79,4.79,0,0,0-2.86.73,3.58,3.58,0,0,0-1.31,2.1,14,14,0,0,0-.33,3.25v14.88a14.6,14.6,0,0,0,.33,3.3,3.82,3.82,0,0,0,1.31,2.18A4.58,4.58,0,0,0,89.63,201.5Z"/>
    <path d="M103.47,204.86v-34h8.38A9.24,9.24,0,0,1,116.7,172a6.52,6.52,0,0,1,2.65,3.21,13.69,13.69,0,0,1,.83,5.08,10.78,10.78,0,0,1-.93,4.65,6.83,6.83,0,0,1-2.78,3,9,9,0,0,1-4.58,1.07h-3.71v15.81Zm4.71-19.21h2.17a9,9,0,0,0,3.21-.46,2.92,2.92,0,0,0,1.66-1.61,8.29,8.29,0,0,0,.5-3.25,15.32,15.32,0,0,0-.35-3.73,2.63,2.63,0,0,0-1.48-1.81,9.22,9.22,0,0,0-3.5-.5h-2.21Z"/>
    <path d="M131.52,205.28a8.47,8.47,0,0,1-5.06-1.37,7.56,7.56,0,0,1-2.75-4,20.12,20.12,0,0,1-.86-6.25V182.34a22.88,22.88,0,0,1,.77-6.35,7.22,7.22,0,0,1,2.75-4,9.56,9.56,0,0,1,5.53-1.38,10.56,10.56,0,0,1,5.1,1.07,6.2,6.2,0,0,1,2.82,3.27,15.26,15.26,0,0,1,.87,5.56v1.25h-4.42v-1a18,18,0,0,0-.29-3.63,3.37,3.37,0,0,0-1.19-2.1,4.59,4.59,0,0,0-2.81-.69,4.07,4.07,0,0,0-3,1,4.52,4.52,0,0,0-1.17,2.63,27.93,27.93,0,0,0-.23,3.75v12.58a19.26,19.26,0,0,0,.36,4.06,4.08,4.08,0,0,0,1.35,2.44,4.47,4.47,0,0,0,2.84.79,4.14,4.14,0,0,0,2.83-.88,4.65,4.65,0,0,0,1.38-2.6,20.46,20.46,0,0,0,.37-4.27V191.4H132.4V188h8.54v16.82h-3l-.46-3.9a7.16,7.16,0,0,1-2.08,3.1A5.82,5.82,0,0,1,131.52,205.28Z"/>
    <path d="M143.94,204.86l7.17-34h4.55l7.21,34h-4.46l-1.54-8.56H150l-1.63,8.56Zm6.67-12h5.63l-2.83-15.31Z"/>
    <path d="M171,204.86l-7.55-34h4.42l5.34,25,5.08-25h4.3l-7.47,34Z"/>
    <path d="M186.17,204.86v-34h13.09v3.53h-8.38v11.23h6.8V189h-6.8v12.45h8.46v3.4Z"/>
    <path d="M203.14,204.86v-34h3.21l9.59,22.56V170.89h3.91v34h-3l-9.71-23.19v23.19Z"/>
  </g>
</svg>
