<svg id="Layer_1" data-name="Layer 1" xmlns="http://www.w3.org/2000/svg" viewBox="0 0 300 300">
  <defs>
    <style>
      .cls-1 {
        fill: #ebebeb;
      }

      .cls-1, .cls-2, .cls-5 {
        opacity: 0.7;
      }

      .cls-2 {
        fill: #ababab;
      }

      .cls-3 {
        fill: #e99b47;
      }

      .cls-4 {
        fill: #ffb955;
      }

      .cls-6 {
        fill: #eecbf7;
      }
    </style>
  </defs>
  <title>seyoungfruits</title>
  <rect class="cls-1" y="-0.5" width="300" height="300"/>
  <path id="Path_4" data-name="Path 4" class="cls-2" d="M176.32,245.84s18.61,19.57,41,22.71,31.54-1.6,49.36-9,23.51-16.86,27-21.68,6.49-10.77,2.27-20.84-9.74-12.79-24.12-20.74-33.42-11.07-33.42-11.07l-6.74,11.07s22.25,3,34.12,10.38,14.22,9.06,13.38,19.21-3.9,13-16.73,21.39-16,14-34.58,12.28-39.59-19.07-39.59-19.07Z"/>
  <path id="Path_6" data-name="Path 6" class="cls-3" d="M22.46,146.38C23.9,166.7,35,186,43,197.35s32.87,30.29,45.36,35,39.87,8.84,54.56,5.23,29-8.11,47.3-21.11,20.5-22.6,25.89-30.9,15.88-36.81,10.41-49.4c-6.41-14.77-21.76-7.07-27.43-3.16s-21,17.74-37.92,21.19-22.41,5.65-39.32-7.83S99,124.45,88.4,114.75,56,104.48,43,109.71,21,126.06,22.46,146.38Z"/>
  <path id="Path_7" data-name="Path 7" class="cls-2" d="M117,242c24.87,2.67,26.18,1.9,47.81-6.6s26.56-8.43,43.36-27.69S226,183.56,232,158.31s2-37.85,0-53,6.3-16.36,8.9-4,4.92,24.91,1.49,53.27c-3.67,22.68-14.66,44.21-22.64,54.37-17.6,22.43-21.16,23.72-46.34,33.91s-58,7.24-58,7.24S88,246.73,64.28,233.64,38.83,220,24,197.31s-13-27.1-18.5-51.86S.63,119.08,6.84,96l0-.18c10-21.67,11.7-29.41,19.92-41.25S41,45,38.55,57,23,81.21,16.85,102.69s-4.32,22,0,44.2,2.89,25.29,15,44.74,11.62,20.84,33.48,33.06S96.12,239.71,117,242Z"/>
  <path id="Path_8" data-name="Path 8" class="cls-4" d="M169.18,162.23c18.64-6.72,23.35-19.94,35.06-25.88s13.8-3.83,15.49-1.88,4.49,1.2,2.71,13.58-3.68,22-12.91,36-21.31,17.22-30.3,16.54-18.67,1.84-32.61-8.32-24.42-17.56-19.07-24.7S150.55,168.94,169.18,162.23Z"/>
  <ellipse id="Ellipse_1" data-name="Ellipse 1" class="cls-3" cx="161.69" cy="113.99" rx="14.72" ry="14.02"/>
  <ellipse id="Ellipse_2" data-name="Ellipse 2" class="cls-3" cx="129.45" cy="91.56" rx="9.11" ry="8.41"/>
  <circle id="Ellipse_3" data-name="Ellipse 3" class="cls-3" cx="149.78" cy="70.54" r="5.61"/>
  <g class="cls-5">
    <path d="M86.27,39.49V13.39h14.8v40.8A14.75,14.75,0,0,1,86.27,39.49Zm20.2-26.1h14.8v52.1a14.92,14.92,0,0,1-14.8,14.9Z"/>
    <path d="M128.77,65.49V42.59a14.81,14.81,0,0,1,14.8-14.7v52.5A14.92,14.92,0,0,1,128.77,65.49ZM149,27.89a14.81,14.81,0,0,1,14.8,14.7v22.9A14.92,14.92,0,0,1,149,80.39Z"/>
    <path d="M170.27,65.69V27.89h14.8v52.5A14.81,14.81,0,0,1,170.27,65.69Zm20.2-37.8h14.8v37.8a14.81,14.81,0,0,1-14.8,14.7Z"/>
    <path d="M212.77,27.89h14.8v52.5h-14.8Zm20.2,0a14.81,14.81,0,0,1,14.8,14.7v37.8H233Z"/>
    <path d="M254.27,66.69V42.59a14.81,14.81,0,0,1,14.8-14.7v53.7A14.92,14.92,0,0,1,254.27,66.69Zm0,21.3h14.8v14.9A14.92,14.92,0,0,1,254.27,88Zm20.2-60.1a14.81,14.81,0,0,1,14.8,14.7V88a14.92,14.92,0,0,1-14.8,14.9Z"/>
  </g>
  <g class="cls-5">
    <path d="M20.44,210.09h14.8v67H20.44Zm19.2,4.4v-4.4h14.8v19.1A14.75,14.75,0,0,1,39.64,214.49Zm0,21.7h14.8v14.7A14.75,14.75,0,0,1,39.64,236.19Z"/>
    <path d="M61.94,224.59h14.8V277.1H61.94Zm20.2,0a14.92,14.92,0,0,1,14.8,14.9v7.7H82.14Z"/>
    <path d="M103.44,262.4V224.59h14.8V277.1A14.81,14.81,0,0,1,103.44,262.4Zm20.2-37.81h14.8V262.4a14.81,14.81,0,0,1-14.8,14.7Z"/>
    <path d="M145.34,210.09a8.24,8.24,0,0,1,8.1-8,8.1,8.1,0,1,1,0,16.2A8.28,8.28,0,0,1,145.34,210.09Zm.6,14.5h14.8V277.1h-14.8Z"/>
    <path d="M168.74,262.19v-52.1h14.8v67A14.92,14.92,0,0,1,168.74,262.19Zm19.2-37.6h14.8a14.92,14.92,0,0,1-14.8,14.9Z"/>
    <path d="M206.24,243.79v-4.4a14.83,14.83,0,0,1,14.8-14.8v33.9A14.75,14.75,0,0,1,206.24,243.79Zm0,18.61H221v14.7A14.75,14.75,0,0,1,206.24,262.4Zm20.2-37.81a14.75,14.75,0,0,1,14.8,14.7h-14.8Zm0,18.6a14.75,14.75,0,0,1,14.8,14.7v4.4a14.83,14.83,0,0,1-14.8,14.81Z"/>
  </g>
  <rect class="cls-6" x="66" y="138.57" width="175" height="42.64"/>
  <g>
    <path d="M72.3,176.56v-31.8h7.84a8.68,8.68,0,0,1,4.55,1,6.06,6.06,0,0,1,2.48,3,12.87,12.87,0,0,1,.78,4.75,10,10,0,0,1-.88,4.36,6.32,6.32,0,0,1-2.59,2.84,8.42,8.42,0,0,1-4.3,1H76.71v14.8Zm4.41-18h2a8.36,8.36,0,0,0,3-.43,2.73,2.73,0,0,0,1.56-1.51,7.71,7.71,0,0,0,.47-3,14.22,14.22,0,0,0-.33-3.5,2.42,2.42,0,0,0-1.38-1.68,8.42,8.42,0,0,0-3.28-.48H76.71Z"/>
    <path d="M91,176.56v-31.8H97.4a14,14,0,0,1,5.23.85,5.83,5.83,0,0,1,3.06,2.71,10.4,10.4,0,0,1,1,4.89,13.39,13.39,0,0,1-.39,3.35,6.62,6.62,0,0,1-1.25,2.55,4.82,4.82,0,0,1-2.27,1.51l4.49,15.94H103l-4.14-14.91H95.44v14.91Zm4.41-18.09h1.68a8.16,8.16,0,0,0,3-.48,3.12,3.12,0,0,0,1.71-1.6,7.41,7.41,0,0,0,.55-3.18,6.42,6.42,0,0,0-1-4c-.68-.82-2-1.24-4-1.24h-2Z"/>
    <path d="M119.37,176.92a9.16,9.16,0,0,1-5.11-1.26,6.81,6.81,0,0,1-2.73-3.59,16.46,16.46,0,0,1-.82-5.48V154.54a15.56,15.56,0,0,1,.83-5.4,6.71,6.71,0,0,1,2.74-3.45,9.42,9.42,0,0,1,5.09-1.2,9.27,9.27,0,0,1,5.08,1.22,6.9,6.9,0,0,1,2.71,3.45,15.35,15.35,0,0,1,.84,5.38v12.09a15.87,15.87,0,0,1-.84,5.42,7.21,7.21,0,0,1-2.71,3.59A8.93,8.93,0,0,1,119.37,176.92Zm0-3.5a4.2,4.2,0,0,0,2.66-.72,3.69,3.69,0,0,0,1.21-2,14,14,0,0,0,.31-3.09V153.64a13.45,13.45,0,0,0-.31-3,3.44,3.44,0,0,0-1.21-2,4.33,4.33,0,0,0-2.66-.69,4.38,4.38,0,0,0-2.67.69,3.37,3.37,0,0,0-1.23,2,12.9,12.9,0,0,0-.31,3v13.93a13.44,13.44,0,0,0,.31,3.09,3.61,3.61,0,0,0,1.23,2A4.25,4.25,0,0,0,119.37,173.42Z"/>
    <path d="M135.8,176.56v-28.5h-5.34v-3.3h14.95v3.3h-5.2v28.5Z"/>
    <path d="M156.53,176.92a9.16,9.16,0,0,1-5.11-1.26,6.87,6.87,0,0,1-2.74-3.59,16.72,16.72,0,0,1-.82-5.48V154.54a15.55,15.55,0,0,1,.84-5.4,6.71,6.71,0,0,1,2.74-3.45,9.42,9.42,0,0,1,5.09-1.2,9.23,9.23,0,0,1,5.07,1.22,6.86,6.86,0,0,1,2.72,3.45,15.35,15.35,0,0,1,.84,5.38v12.09a15.87,15.87,0,0,1-.84,5.42,7.17,7.17,0,0,1-2.72,3.59A8.89,8.89,0,0,1,156.53,176.92Zm0-3.5a4.17,4.17,0,0,0,2.65-.72,3.58,3.58,0,0,0,1.21-2,13.4,13.4,0,0,0,.32-3.09V153.64a12.86,12.86,0,0,0-.32-3,3.34,3.34,0,0,0-1.21-2,4.3,4.3,0,0,0-2.65-.69,4.38,4.38,0,0,0-2.67.69,3.27,3.27,0,0,0-1.23,2,12.86,12.86,0,0,0-.32,3v13.93a13.4,13.4,0,0,0,.32,3.09,3.5,3.5,0,0,0,1.23,2A4.25,4.25,0,0,0,156.53,173.42Z"/>
    <path d="M173,176.56v-28.5h-5.35v-3.3h14.95v3.3h-5.19v28.5Z"/>
    <path d="M190.45,176.56V165.34l-6.83-20.58h4.1l4.84,15.35,4.76-15.35h4.14l-6.8,20.58v11.22Z"/>
    <path d="M204.38,176.56v-31.8h7.85a8.71,8.71,0,0,1,4.55,1,6,6,0,0,1,2.47,3,12.86,12.86,0,0,1,.79,4.75,10.15,10.15,0,0,1-.88,4.36,6.34,6.34,0,0,1-2.6,2.84,8.36,8.36,0,0,1-4.29,1h-3.48v14.8Zm4.41-18h2a8.39,8.39,0,0,0,3-.43,2.73,2.73,0,0,0,1.56-1.51,7.9,7.9,0,0,0,.47-3,14.22,14.22,0,0,0-.33-3.5,2.43,2.43,0,0,0-1.39-1.68,8.35,8.35,0,0,0-3.28-.48h-2.07Z"/>
    <path d="M223.12,176.56v-31.8h12.26v3.3h-7.85v10.52h6.36v3.14h-6.36v11.66h7.92v3.18Z"/>
  </g>
</svg>
