<svg id="Layer_1" data-name="Layer 1" xmlns="http://www.w3.org/2000/svg" viewBox="0 0 275 65">
  <defs>
    <style>
      .cls-1 {
        isolation: isolate;
      }

      .cls-2 {
        fill: #f392cc;
        opacity: 0.11;
      }
    </style>
  </defs>
  <title>spilegetspil</title>
  <g>
    <path class="cls-2" d="M252.69,35.56a41.33,41.33,0,0,1,.37,10.36l.08-.35a7.63,7.63,0,0,1-2,3.82l2.05-2.1-3.08,2.84,6.16-4.49-8.43,5.7,6.78-3.74-11.22,5.88,8.1-3.11-12.14,4.09L248,52.59l-12.91,2.34,5.94-.52a84.83,84.83,0,0,1-24.61-1c-2.41-.44-4.81-.95-7.18-1.54-5.44-1.28-10.74-2.93-16-4.73l.4.14-4.27-1.62.39.16-3.88-1.67.38.18c-3.72-2.24-7.19-4.9-11.05-6.92A19.64,19.64,0,0,0,168.23,35l-2.86.05a14.65,14.65,0,0,0-3.76,1.75c-4.08,2.36-7.64,5.48-11.68,7.9a37.2,37.2,0,0,1-7.39,3.11,28.27,28.27,0,0,1-7.84,1.65,26.28,26.28,0,0,1-7.67.1l.42.07-5.63-1,.42.09a78.37,78.37,0,0,1-11.33-4.89c-2.68-1.39-5.31-2.87-8-4.21a49.78,49.78,0,0,0-12.4-4.39,24.47,24.47,0,0,0-15,1.78A93.53,93.53,0,0,0,64.1,43.48c-1.72,1.11-3.5,2.14-5.32,3.09A32.84,32.84,0,0,1,52,49c-14.92,4.46-30.42,3.88-45.79,3.21a2.53,2.53,0,0,0,1,1.21q2.24,1.92,4.55,3.76t4.64,3.62a2.51,2.51,0,0,0,1.41.75c10.91-.09,21.8-.37,32.58-2.2a39.2,39.2,0,0,0,7.26-1.59A75.16,75.16,0,0,0,68.6,54.2l2.83-.7,3.21-1.38c4.57-2,9.18-4.34,14.22-4.72,6.37-.48,12.46,1.11,18.48,3.07,6.52,2.13,12.91,4.74,19.69,6a82,82,0,0,0,9.39,1.07,39.48,39.48,0,0,0,13.49-1.49l5.63-2,5.8-2.6,1.25-.07,2.86-1.16c2.56-1,5.3-2.37,8.13-2.16,3.77.27,7.23,1.7,10.69,3.16a86.79,86.79,0,0,0,13.16,4.65,99.64,99.64,0,0,0,35.82,2.55c6-.74,12.68-2.52,17.81-5.86A22.79,22.79,0,0,0,259,44.21c2.76-5.49,2.19-11.44,1.71-17.38a1.71,1.71,0,0,0-1.06.71q-1.65,1.66-3.23,3.4t-3.11,3.5A1.74,1.74,0,0,0,252.69,35.56Z"/>
    <path class="cls-2" d="M252.91,37.46c.33,2.73.6,5.36.66,8.11l0-.36a8.25,8.25,0,0,1-1.78,5.26l4.86-5.56-6.51,7,6.77-6.13-9,7.27,7.44-5.19-11,6.77,7.87-4-11.79,5,8.33-2.71-12.48,3.25,8.44-1.49-12.84,1.64,6.81-.31a89.53,89.53,0,0,1-26.38-2q-3.53-.72-7-1.67c-4.34-1.14-8.61-2.44-12.82-4-1.84-.64-3.64-1.35-5.42-2.14-1.51-.84-3-1.74-4.4-2.72-1.74-1.13-3.48-2.26-5.3-3.27a22.58,22.58,0,0,0-8.23-3c-3.09-.33-5.34.88-7.92,2.33-2.81,1.6-5.39,3.56-8.08,5.35-4.63,3.09-9.68,4.6-15,6l.34,0-5.4.64.34,0a26.52,26.52,0,0,1-7.7-.55,23.56,23.56,0,0,1-6.42-1.67A112.78,112.78,0,0,1,108,43.79C100.65,40,93.12,36.58,84.63,37c-8.11.43-14.56,5.46-21.37,9.32-10.76,6.09-22.9,7.45-35,8.13h.35l-7.41.08h.35q-7.17-.09-14.33-.44a1.64,1.64,0,0,0,.82.94q1.82,1.38,3.69,2.68t3.78,2.55a1.65,1.65,0,0,0,1.16.44c9.64,0,19.28-.13,28.85-1.42A78.13,78.13,0,0,0,59.92,56.2a67,67,0,0,1,10.19-3.41c4.5-1.57,8.55-4.17,13.13-5.56a28.05,28.05,0,0,1,12.69-.64c9.55,1.51,18.17,6.08,27.47,8.5A56.46,56.46,0,0,0,137.91,57a48.76,48.76,0,0,0,10.67-1.57A81.13,81.13,0,0,0,160,50.76l-.34.08c3.1-.42,6-2.08,8.88-3.21,4.1-1.59,8.28-.38,12.21,1.22,3.77,1.53,7.41,3.37,11.26,4.71a83.8,83.8,0,0,0,12.56,3.11,102.9,102.9,0,0,0,24.71,1.67,45.84,45.84,0,0,0,7.38-.85l13.18-4.66A32.94,32.94,0,0,0,254,49.31a27.18,27.18,0,0,0,3.63-3.48,15.71,15.71,0,0,0,2.13-4.94,20.21,20.21,0,0,0,.48-5.2c0-2.62-.21-5.22-.42-7.82a1.71,1.71,0,0,0-1,.83q-1.44,1.83-2.79,3.74t-2.67,3.84A1.79,1.79,0,0,0,252.91,37.46Z"/>
    <path class="cls-2" d="M249.39,37.38c.45,1.68.86,3.38,1.24,5.08a7.74,7.74,0,0,1-2.33,7.87l1-.76c-11.12,6.77-26.11,3.55-37.8.58a172.67,172.67,0,0,1-19.88-6.21,43.17,43.17,0,0,1-9.12-4.35C180.2,38,178,36.27,175.6,34.82s-5.51-3-8.42-3.14l-2.91.05a20.91,20.91,0,0,0-5.51,2.55c-3,1.77-5.79,3.92-8.67,5.92a37.25,37.25,0,0,1-17.4,6.43,31.66,31.66,0,0,1-16.26-2.34c-3.76-1.69-7.25-3.88-10.85-5.88-7.2-4-14.75-7.31-23.16-6.78-11,.7-19.08,9.46-28.92,13.45-6.66,2.7-13.92,3.67-21,4.32-9.24.84-18.6.26-27.85-.19-.84,0,.69,1.31.62,1.24.6.56,1.22,1.09,1.86,1.61a2.84,2.84,0,0,0,1.08.7c18.21.5,37.71.93,54.31-7.72,5.56-2.91,11.07-6.46,17.23-7.95l3.77-.64a22.19,22.19,0,0,1,8.73.72,21.68,21.68,0,0,1,6.26,1.49,28.82,28.82,0,0,1,4,1.56c6.4,2.76,12.46,6.41,19.24,8.23A37.16,37.16,0,0,0,144,47.4c5.15-1.8,9.59-4.59,14.3-7.26a28.68,28.68,0,0,1,6.85-3c3.94-1,8,.2,11.59,2s7,4.22,10.66,5.86C193,47.55,199.15,49,205.09,50.4a156.5,156.5,0,0,0,19.8,3.46,62.67,62.67,0,0,0,11.94.31c4.15-.38,8.56-1.21,12.11-3.48a8,8,0,0,0,3.19-4.56,12.2,12.2,0,0,0,.48-2.39,26.63,26.63,0,0,0-.94-3.31c-.39-1.19-.8-2.37-1.24-3.55C250.2,36.24,249.28,36.93,249.39,37.38Z"/>
    <path class="cls-2" d="M250.13,42.39q.41,2.72.68,5.44a10.82,10.82,0,0,1-1.05,6.41L251.18,52l-2.42,3.34,1.64-1.89a14.89,14.89,0,0,1-4.73,3,28.09,28.09,0,0,1-8.27,2,57.87,57.87,0,0,1-13.54-.38,134.33,134.33,0,0,1-26.34-6.5c-5.17-1.76-10.75-3.56-15.3-6.66-4.88-3.33-9.2-7.3-15.42-7.92a8.3,8.3,0,0,0-5.73,1.06c-3.71,1.76-7,4.44-10.34,6.87q-1.86,1.4-3.77,2.73A40.79,40.79,0,0,1,134.6,52a20.06,20.06,0,0,1-13.54-1.84,25.61,25.61,0,0,1-12.13-4.3c-7.68-4.41-15.56-9-24.68-9.05-4.78,0-8.82,1.36-13,3.43-5.35,2.63-10,6.53-15.29,9.25-7,3.6-16.27,4.92-24.13,5.5-9.28.69-18.58.17-27.86-.3-.34,0-.36.29-.28.52s1,.66,1.25.68c11.61.55,23.6,1.31,35.14-.57,6.64-1.08,13.31-2.47,19.16-5.91,5.59-3.29,10.86-7.47,17-9.76,7.83-2.92,16.26-1.15,23.57,2.29,6.28,3,12.07,7,18.55,9.56a32.87,32.87,0,0,0,12.56,2,40.58,40.58,0,0,0,12.86-2.7c2.46-.89,2.17-.63,3.78-1.6,2-1.22,3.88-2.75,5.79-4.16a55.81,55.81,0,0,1,8.33-5.33,5.19,5.19,0,0,1,5.41-1.08,9.16,9.16,0,0,1,4.18.74,35.26,35.26,0,0,1,8.82,5c1.41,1,2.76,2.1,4.26,2.95a42.88,42.88,0,0,0,5.35,2.3,168.87,168.87,0,0,0,18.87,6.14,131.23,131.23,0,0,0,18.4,3.82,60.17,60.17,0,0,0,8.9.43,32.67,32.67,0,0,0,9.43-1.9,9.8,9.8,0,0,0,4.66-2.94,13.36,13.36,0,0,0,2.92-5.51c.76-3.42.17-6.91-.25-10.34-.09-.74-1,.57-1,.55C251.2,40.34,250,41.65,250.13,42.39Z"/>
    <path class="cls-2" d="M252.23,38.23a41.11,41.11,0,0,1,.4,10.39l.08-.42-2,3.73L257.42,44l-7.72,8.33,8.38-7.77-10.6,8.89,9.12-6.7L244,55l9.66-5.23-13.53,6.27,10.21-3.78L236,56.61l10.34-2.33-14.69,2.51,10.5-.95-15,.83,8.21.19a112.92,112.92,0,0,1-28-3.23l-4.59-1.17c-4.21-1.12-8.36-2.47-12.44-4a41.58,41.58,0,0,1-7.9-4.08A52.46,52.46,0,0,0,173,39.26c-2.68-1-5.46-1.72-8.24-.74A37.29,37.29,0,0,0,156.74,43a81.47,81.47,0,0,1-7.21,4.61,28,28,0,0,1-6.47,2.6,38,38,0,0,1-10.35,2l.39,0a26.81,26.81,0,0,1-7.69-.52A23.28,23.28,0,0,1,119,50a117.48,117.48,0,0,1-11.27-5.38c-7.41-3.72-15-7.15-23.47-6.74-8.1.4-14.57,5.34-21.4,9.17-10.78,6-22.91,7.42-35,8.12h.39c-7.17.09-14.25,0-21.41-.31a2.13,2.13,0,0,0,1,1c1.47,1,3,1.91,4.46,2.82s3,1.83,4.55,2.69a2.1,2.1,0,0,0,1.34.48c9.68-.09,19.39-.28,29-1.66a92.59,92.59,0,0,0,14.45-3.24l7.25-2.58,2.9-.73c4.37-1.43,8.34-3.84,12.8-5.06,5.53-1.51,11.19-.86,16.7.47,8.8,2.13,17.06,6,26,7.73a59.13,59.13,0,0,0,12.15,1.15,44.41,44.41,0,0,0,8.28-1.17c4.91-1.08,9.33-3.1,13.9-5.15l-.38.08c3.34-.29,6.21-2.17,9.45-3,3.76-.9,7.58.46,11.07,1.79,4.62,1.75,9.06,3.85,13.84,5.14a97.59,97.59,0,0,0,10.7,2.2,120.83,120.83,0,0,0,12,1.23,69.34,69.34,0,0,0,15.37-.64L248.8,53.6a2.43,2.43,0,0,0,1.31-.81c1.91-1.55,3.67-3.3,5.46-5a22.23,22.23,0,0,0,3.66-3.66,18.45,18.45,0,0,0,1.69-4.74c1-4.24.39-8.86.07-13.15a2.57,2.57,0,0,0-1.16,1.08c-1.21,1.54-2.38,3.1-3.53,4.69s-2.29,3.16-3.4,4.77A2.53,2.53,0,0,0,252.23,38.23Z"/>
    <path class="cls-2" d="M252.83,36.24a41.45,41.45,0,0,1,.38,10.37l.08-.37-2,3.8,7.94-8-12,10.53,9.56-6-12.29,7.08,9.33-4-13.25,5.1,9.93-2.55-14.1,3.16,8-.95a88.53,88.53,0,0,1-32.36-1.14q-4.71-1-9.34-2.3a141.65,141.65,0,0,1-16.4-5.76l.39.16c-3.31-2-6.41-4.23-9.76-6.12a24.92,24.92,0,0,0-6.84-2.76,9.43,9.43,0,0,0-6.66.65c-4.24,2.1-7.92,5.15-11.86,7.72A34.21,34.21,0,0,1,143,48.65L137.74,50a35.25,35.25,0,0,1-10.2.43l.41,0a31.9,31.9,0,0,1-9-2.15l-3.78-1.66c-4-1.84-7.8-4.09-11.75-6A51.23,51.23,0,0,0,91,36.32,24.79,24.79,0,0,0,76,38a91.92,91.92,0,0,0-11.34,6.34Q62,46,59.28,47.42a34,34,0,0,1-6.8,2.43C37.57,54.32,22.09,53.8,6.7,53.17a2.49,2.49,0,0,0,1,1.15c1.49,1.2,3,2.37,4.52,3.51s3.05,2.28,4.61,3.38a2.41,2.41,0,0,0,1.39.68c9.7-.09,19.39-.27,29-1.65A79.33,79.33,0,0,0,61.78,57l7.28-2.56a20.28,20.28,0,0,0,6-2q3.14-1.44,6.36-2.7A28.64,28.64,0,0,1,92.84,47.8c5.12.16,10,1.57,14.83,3.13,5.12,1.66,10.15,3.5,15.35,4.9a38.77,38.77,0,0,0,6.67,1.4c3.3.38,6.61.63,9.93.78,7.95-.17,15-3.14,22.16-6.32l-.41,0c3.24-.16,6.24-2,9.32-2.94,3.61-1.12,7.67.45,11,1.73,4.73,1.8,9.28,3.93,14.18,5.28A103.78,103.78,0,0,0,221,59.22a70.71,70.71,0,0,0,15.1-1.17,45,45,0,0,0,11.46-3.52l4-2.19A21.88,21.88,0,0,0,256.41,48a19.16,19.16,0,0,0,4.64-8.85c.94-4.08.32-8.71,0-12.81a2.07,2.07,0,0,0-1.09.85c-1.13,1.27-2.23,2.55-3.31,3.87s-2.16,2.62-3.19,4A1.94,1.94,0,0,0,252.83,36.24Z"/>
    <path class="cls-2" d="M251,40.2a61.91,61.91,0,0,1,.71,7.69,9.66,9.66,0,0,1-1.08,4.28l1.14-1.82-2.1,2.88L254.21,48l-6.31,6.48L252.82,50l-6.18,4.7,4.24-2.9-8,4.41L247.24,54l-21.75,3.32,4.06.11A132.08,132.08,0,0,1,199,51.6c-5.73-1.8-11.73-3.69-16.71-7.08-4.45-3-9.21-6.74-14.77-7.26-5.28-.5-9.78,3.28-13.86,6.15A66.37,66.37,0,0,1,147,47.8a55.61,55.61,0,0,1-10.9,3.78A21.54,21.54,0,0,1,124.31,51a21.58,21.58,0,0,1-10.48-2.86c-1.85-1-3.7-2-5.52-3a92.58,92.58,0,0,0-10-5.07c-5.62-2.25-11.77-3.79-17.85-2.78-9.72,1.62-17.18,9.26-26.05,12.89-6.73,2.75-14,3.81-21.15,4.48-9.28.87-18.68.33-28-.09-1,0,1.41,1.38,1.08,1.19,1,.61,2.74,1.9,4,1.93,5.93.15,11.85.28,17.78.1a110.28,110.28,0,0,0,17.87-1.65l7.07-1.61,7.39-2.78a16.91,16.91,0,0,0,4.57-2q1.8-.95,3.54-2a69,69,0,0,1,9.07-4.71l11.2-1.87a24.91,24.91,0,0,1,6.48,1.09c6.29,1.65,12.06,4.6,17.94,7.3a56.74,56.74,0,0,0,8.62,3.35,48.32,48.32,0,0,0,6.84,1.33c4.12.51,9,.65,13-.5s7.6-3.29,11.44-4.84a31.24,31.24,0,0,0,4.82-2.7,47.7,47.7,0,0,1,6.18-3.51,11.9,11.9,0,0,1,7.87-.68c4.37,1.09,8.1,3.49,12,5.65a49.7,49.7,0,0,0,8.47,3.75,141,141,0,0,0,14.83,4,129.31,129.31,0,0,0,23.68,3,36.73,36.73,0,0,0,10.45-.88,17.91,17.91,0,0,0,4.33-1.84,8.91,8.91,0,0,0,4-1.88,23.36,23.36,0,0,0,2.59-2.76c2-2.33,3.65-4.47,4-7.68a50.94,50.94,0,0,0-.29-10.47,1.1,1.1,0,0,0-.79.59c-.73.92-1.44,1.86-2.11,2.82C252.77,37.08,250.86,39.08,251,40.2Z"/>
    <path class="cls-2" d="M250.87,38.28q.47,2.72.8,5.45a8.57,8.57,0,0,1-2.5,8l1.1-1c-11.6,7.64-28,3.56-40.3.32a166.3,166.3,0,0,1-17.54-5.6A28.55,28.55,0,0,1,185,41.75a39.59,39.59,0,0,1-6.05-3.83,27.82,27.82,0,0,0-7.79-4c-1.78-.48-4.12-1.06-6-.61A25.38,25.38,0,0,0,158,36.79c-3.2,2-6.16,4.32-9.34,6.34a34.88,34.88,0,0,1-15.2,5,25.34,25.34,0,0,1-7.48,0L110,42c-3.77-1.93-7.33-4.23-11.23-5.94C92,33.09,84,31.94,76.89,34.42c-4.33,1.49-8.26,4.1-12.15,6.44l-7.19,4.29a40.74,40.74,0,0,1-10.31,3.61c-13.77,3.16-27.8,2.63-41.8,2-.77,0,.53,1.12.46,1.06.54.48,1.66,1.71,2.45,1.74,10.52.33,21,.57,31.49-.8a68,68,0,0,0,10.48-1.93l6.93-2.19a67.12,67.12,0,0,0,6.85-3.4c9.12-5,17.14-10.19,28.4-7.78,6.36,1.35,12.2,4.09,18,7a64.34,64.34,0,0,0,13.11,5.28,34.94,34.94,0,0,0,17.9-.53,41.27,41.27,0,0,0,9.84-3.86c1.8-1.06,3.55-2.23,5.33-3.33a42.16,42.16,0,0,1,7.18-3.65,6.84,6.84,0,0,1,5.25-.4,11,11,0,0,1,6.69,1.16c3.75,1.73,7.1,4.19,10.77,6.06,5.06,2.6,10.88,4,16.34,5.5a152.7,152.7,0,0,0,15.82,3.45c6,.93,12,1.86,18.09,1.54a34.52,34.52,0,0,0,4.42-.48,13.4,13.4,0,0,0,1.95-.53c1.47-.4,2.93-.83,4.38-1.3a10.82,10.82,0,0,0,3-1.9,10.4,10.4,0,0,0,2.6-4.36c1-3.33-.08-6.85-.68-10.16C252.33,36.17,250.79,37.78,250.87,38.28Z"/>
    <path class="cls-2" d="M252,40.07a78,78,0,0,1,.69,8.07v-.37a9.33,9.33,0,0,1-1,4.27l3.08-4.81-3.89,5.66,5.79-7.36L249.1,54.2l6.31-6.5-8.57,7.54,6.86-5.53-10.47,6.95,7.14-4.35-9.59,4.54,5.9-2.5-10.06,3.09,5.85-1.63-10.24,1.86,5.83-.83-10.38.73,5.65-.11-11.77-.31,5.5.41a114.66,114.66,0,0,1-19.6-3.13l-9.59-2.69a65.56,65.56,0,0,1-15.76-7C178,42.21,173.9,39.24,169,38.58a8.77,8.77,0,0,0-5.51.73,47.72,47.72,0,0,0-7,4c-2.38,1.59-4.71,3.31-7.22,4.68a40,40,0,0,1-14.18,4.5,27.17,27.17,0,0,1-7.59.17L111.15,47c-3.89-1.82-7.56-4-11.52-5.73-6.78-2.87-14.61-4.24-21.74-1.9-4.12,1.36-8,3.76-11.67,6-5.52,3.3-11,6.18-17.36,7.71-13.8,3.35-28,2.92-42.06,2.35-1.17-.05,2,1.68,1.6,1.44q1.76,1,3.54,1.86a7.6,7.6,0,0,0,1.93.81c10.81.11,21.6.06,32.3-1.6a70.8,70.8,0,0,0,14.4-3.75c2.1-.79,4.77-1.54,6.85-2.44,4.61-2,8.85-4.68,13.6-6.38a16.32,16.32,0,0,1,5-1.12,15.71,15.71,0,0,1,7.93.68,22.69,22.69,0,0,1,8.37,1.6c1.41.45,2.81,1,4.18,1.52,6.22,2.43,12.35,5.4,18.91,6.83A56.34,56.34,0,0,0,135,56.12a34,34,0,0,0,13.36-2.36,40,40,0,0,0,5.71-2.47,9.31,9.31,0,0,1,3.54-1.54,13.78,13.78,0,0,0,3-1.33c3-1.5,6.21-3.53,9.58-3.75a18,18,0,0,1,7.15,1.4,55.75,55.75,0,0,1,5.46,2.48,72.79,72.79,0,0,0,13,5.28,133.43,133.43,0,0,0,35,4.72c6.78.09,13.74-.19,19.61-4.57,1.85-1.38,3.24-3.63,4.64-5.44a21.33,21.33,0,0,0,2.46-3.44,14.73,14.73,0,0,0,1.28-4.6c.46-3.45,0-7.18-.27-10.63a1.78,1.78,0,0,0-.94.91q-1.38,2-2.67,4c-.87,1.34-1.72,2.69-2.53,4.07A1.79,1.79,0,0,0,252,40.07Z"/>
    <path class="cls-2" d="M252.37,37.22a40.59,40.59,0,0,1,.39,10.38l.09-.4-2,3.78,8.34-8.9-12.4,11.3,10-6.78-12.64,7.7,9.68-4.63-13.58,5.71,10.27-3.18L236,56l10.42-1.73-14.81,1.93,8.42-.34a96.46,96.46,0,0,1-28.2-1.89q-4.68-1-9.3-2.25c-4.21-1.19-8.39-2.49-12.47-4.07a40.88,40.88,0,0,1-7.89-4.14c-2.18-1.4-4.37-2.79-6.68-4-2.74-1.41-6.58-3.16-9.77-2.35-2.85.71-5.49,2.5-7.9,4.08s-5,3.53-7.6,5.1c-5.39,3.22-11.63,4.36-17.75,5.07h.4l-5.52-.13.41,0a32.4,32.4,0,0,1-9-2.1,58.26,58.26,0,0,1-5.63-2.57c-3.23-1.61-6.41-3.35-9.68-4.9-8-3.78-16.91-6.59-25.66-3.63-7.88,2.66-14.26,8.44-22,11.48-6.7,2.65-14,3.7-21.16,4.39-9.32.91-18.76.42-28.1.05a2.36,2.36,0,0,0,1.06,1.08q2.27,1.63,4.59,3.18t4.67,3.06a2.3,2.3,0,0,0,1.39.58c9.69-.1,19.39-.28,29-1.66A78.23,78.23,0,0,0,61.77,57,54,54,0,0,1,71.9,53.7c4.36-1.41,8.31-3.83,12.76-5.06a30.85,30.85,0,0,1,14.52-.07c10.27,2.09,19.73,7.09,30.15,8.6a66.75,66.75,0,0,0,10.35.82c7.92-.2,15-3.15,22.06-6.33l-.4.05c3.26-.23,6.26-2,9.38-2.93,3.63-1.09,7.68.48,11,1.76,4.74,1.81,9.3,3.92,14.21,5.26A99.79,99.79,0,0,0,216,59a76.52,76.52,0,0,0,25-2.09c6.88-1.88,13.79-5.4,17.65-11.67,3.56-5.77,3-12.47,2.47-19a2.29,2.29,0,0,0-1.14,1c-1.2,1.4-2.36,2.83-3.5,4.28s-2.28,2.9-3.38,4.39A2.28,2.28,0,0,0,252.37,37.22Z"/>
    <path class="cls-2" d="M252.43,39.12a63.93,63.93,0,0,1,.65,6.62,13.31,13.31,0,0,1-1,5.38L254.72,47l-3.54,5.09,5.08-6.24-6.79,7.58L255,48l-7.82,6.53,6.08-4.58-9.71,6,6.32-3.52-10.3,4.44,6.56-2.49-9.42,2.51L242,55.74l-11,1.53,6.55-.6-11.1.31,5.08.12a99,99,0,0,1-19.21-2.35l-9.84-2.49a118.59,118.59,0,0,1-14.05-4.9c-5.32-2.23-9.56-6.39-15-8.48-2.24-.87-4.89-1.83-7.31-1.26-2.87.67-5.53,2.4-7.95,4-2.63,1.71-5.11,3.71-7.85,5.22l-7.11,3.1a32.35,32.35,0,0,1-10.38,2.13,22.08,22.08,0,0,1-11.41-2,29,29,0,0,1-10-3.81c-3.8-2-7.54-4.13-11.52-5.75-7-2.86-14.39-4.14-21.74-1.89-4.17,1.28-8,3.79-11.68,6A73.53,73.53,0,0,1,56.26,50c-7.82,3.18-16.34,4.28-24.7,4.76-8.18.46-16.33.17-24.51-.17-1.12,0,1.77,1.72,1.44,1.5q1.62,1,3.3,2a7.19,7.19,0,0,0,1.8.89c6,.07,11.9.11,17.86-.16A110.1,110.1,0,0,0,49.39,57c2.37-.52,5.08-1.2,7.41-1.89,2.81-1.18,5.66-2.23,8.57-3.15a15.11,15.11,0,0,0,1.57-.51c2.37-.94,4.66-2.37,6.94-3.48a70.62,70.62,0,0,1,7-3c7.68-2.74,16-.92,23.41,1.8,6.26,2.29,12.25,5.37,18.7,7.1a49.41,49.41,0,0,0,11.71,1.86,36.83,36.83,0,0,0,10.63-1.25c4.4-1.36,8.33-3.88,12.68-5.23a25.12,25.12,0,0,0,3.55-1.79,39.22,39.22,0,0,1,5.71-2.62c4.4-1.4,8.74,0,12.82,1.9,3.93,1.85,7.73,4,11.82,5.46A102.1,102.1,0,0,0,213.59,57a120.14,120.14,0,0,0,21.62.81,23,23,0,0,0,4.61-.42,38.19,38.19,0,0,0,4.27-1.55c1.33-.51,2.65-1,4-1.61a6.07,6.07,0,0,0,3.59-1.78c.94-.95,1.76-2,2.6-3.07,2.14-2.63,3.88-4.9,4.21-8.42a60.84,60.84,0,0,0-.31-10.54,1.35,1.35,0,0,0-.85.74c-.8,1.11-1.57,2.24-2.32,3.39s-1.49,2.29-2.19,3.47A1.39,1.39,0,0,0,252.43,39.12Z"/>
    <path class="cls-2" d="M250.59,43.12q.42,2.76.71,5.54a9.28,9.28,0,0,1-1.16,6.41l1.09-1.82c-3.09,4-9,5.34-13.74,5.83A57.83,57.83,0,0,1,224,58.49a133.18,133.18,0,0,1-21.42-5.08A120.9,120.9,0,0,1,188,48.1a28.83,28.83,0,0,1-7.46-4.49l-2.27-1.7a25.26,25.26,0,0,0-8.09-4,14,14,0,0,0-5.92-.54,22.32,22.32,0,0,0-5.67,2.79q-2.33,1.48-4.55,3.12c-1.4,1-2.78,2-4.15,3a23.06,23.06,0,0,1-9.67,4.77q-9,3.48-18-1.84A30,30,0,0,1,105.74,44C98,39.67,89.07,35.77,80,37.5,69.89,39.42,62.5,47.63,53.18,51.3A56.9,56.9,0,0,1,42.76,54a66.12,66.12,0,0,1-10.48,1.39C23,56,13.69,55.51,4.42,55c-.7,0,.07.95.57,1,11.66.58,23.49,1.22,35.09-.49,5.26-.78,10.74-1.87,15.57-4.07a72.46,72.46,0,0,0,8.93-5.21c2.54-1.63,5.07-3.29,7.73-4.73a17.33,17.33,0,0,1,8.32-2.61,13.23,13.23,0,0,1,6.62-.58c7.33.58,13.94,4,20.2,7.61,3,1.74,6,3.53,9.17,5a32.18,32.18,0,0,0,14.07,2.74,34.27,34.27,0,0,0,7.81-1.08,32.46,32.46,0,0,0,9.82-3.72c3.73-2.37,7-5.47,10.75-7.81l2.89-1.7,5.22-1.08c2.82,0,5.95,1.66,8.29,3a84,84,0,0,1,7,4.76,21.88,21.88,0,0,0,3.76,2.15,157,157,0,0,0,36.62,11.07,69.39,69.39,0,0,0,11.32,1.14,35.45,35.45,0,0,0,10.34-1.46,16.13,16.13,0,0,0,3.65-1.34,6.16,6.16,0,0,0,2.47-2.2,13.32,13.32,0,0,0,1.85-3.29c1.55-3.81.6-7.59,0-11.54-.1-.67-.86.42-.87.42C251.29,41.44,250.5,42.49,250.59,43.12Z"/>
  </g>
  <g id="SE_VORES_UDVALG-2" data-name="SE VORES UDVALG" class="cls-1">
    <g class="cls-1">
      <path d="M16.91,47.08a7.14,7.14,0,0,1-3.92-1,6.27,6.27,0,0,1-2.36-2.79,11.45,11.45,0,0,1-1-4.13L13,38.24A14.78,14.78,0,0,0,13.5,41a4.89,4.89,0,0,0,1.16,2.2,3,3,0,0,0,2.25.86,2.89,2.89,0,0,0,2.23-.82,3.36,3.36,0,0,0,.76-2.37,4.85,4.85,0,0,0-.84-3,16.21,16.21,0,0,0-2.12-2.27l-4.57-4a7.77,7.77,0,0,1-2-2.57,8.19,8.19,0,0,1-.64-3.44A6.1,6.1,0,0,1,11.47,21a6.45,6.45,0,0,1,4.67-1.65,8.8,8.8,0,0,1,2.84.42A5,5,0,0,1,21,21a6.34,6.34,0,0,1,1.31,2.2A12.51,12.51,0,0,1,23,26.35l-3.22.87a13.68,13.68,0,0,0-.41-2.47,3.57,3.57,0,0,0-1.06-1.81,3.08,3.08,0,0,0-2.16-.69,3.06,3.06,0,0,0-2.2.75,3,3,0,0,0-.79,2.24,4.42,4.42,0,0,0,.42,2.05,6,6,0,0,0,1.36,1.64l4.6,4a14,14,0,0,1,2.72,3.21,8,8,0,0,1,1.18,4.41,6.85,6.85,0,0,1-.84,3.48,5.7,5.7,0,0,1-2.3,2.24A7.2,7.2,0,0,1,16.91,47.08Z"/>
      <path d="M27,46.78V19.56h6.75a7.44,7.44,0,0,1,3.92.89A5.17,5.17,0,0,1,39.79,23a10.9,10.9,0,0,1,.68,4.07,8.65,8.65,0,0,1-.76,3.73,5.44,5.44,0,0,1-2.24,2.43,7.25,7.25,0,0,1-3.69.86h-3V46.78Zm3.8-15.39h1.75A7.39,7.39,0,0,0,35.12,31a2.36,2.36,0,0,0,1.35-1.3,6.65,6.65,0,0,0,.4-2.6,11.92,11.92,0,0,0-.29-3,2.07,2.07,0,0,0-1.19-1.45,7.32,7.32,0,0,0-2.82-.4H30.79Z"/>
      <path d="M43.93,46.78V19.56h3.73V46.78Z"/>
      <path d="M52.66,46.78V19.56h3.8v24.5h7v2.72Z"/>
      <path d="M75.11,46.78V19.56h3.73V46.78Z"/>
      <path d="M92.15,46.78V19.56h10.52v2.72H95.94v9.07h5.21V34H95.94V46.78Z"/>
      <path d="M112.91,47.08a7.43,7.43,0,0,1-4.53-1.18,5.79,5.79,0,0,1-2.15-3.31,19.41,19.41,0,0,1-.57-5v-18h3.62V37.77a19.45,19.45,0,0,0,.24,3.19,4.3,4.3,0,0,0,1,2.29,3.79,3.79,0,0,0,4.76,0,4.37,4.37,0,0,0,1-2.29,20.69,20.69,0,0,0,.23-3.19V19.56h3.6v18a19.41,19.41,0,0,1-.57,5,5.82,5.82,0,0,1-2.14,3.31A7.38,7.38,0,0,1,112.91,47.08Z"/>
      <path d="M124.74,46.78V19.56h3.8v24.5h7v2.72Z"/>
      <path d="M138.69,46.78V19.56h5.91a10.49,10.49,0,0,1,4.79.92,5.29,5.29,0,0,1,2.52,2.77,12.14,12.14,0,0,1,.76,4.61v10a13.57,13.57,0,0,1-.76,4.87,5.75,5.75,0,0,1-2.45,3,8.69,8.69,0,0,1-4.55,1Zm3.8-2.72h2.15a4.28,4.28,0,0,0,3-.81,3.62,3.62,0,0,0,1.06-2.35,30.57,30.57,0,0,0,.19-3.73V28.33a17.6,17.6,0,0,0-.27-3.43A2.85,2.85,0,0,0,147.39,23a5.18,5.18,0,0,0-2.85-.61h-2Z"/>
      <path d="M171.72,47.08a7.08,7.08,0,0,1-3.91-1,6.23,6.23,0,0,1-2.37-2.79,11.25,11.25,0,0,1-.94-4.13l3.36-.91a14.77,14.77,0,0,0,.45,2.79,5,5,0,0,0,1.16,2.2,3.42,3.42,0,0,0,4.49,0,3.4,3.4,0,0,0,.75-2.37,4.85,4.85,0,0,0-.84-3,15.64,15.64,0,0,0-2.12-2.27l-4.57-4a7.77,7.77,0,0,1-2-2.57,8.35,8.35,0,0,1-.64-3.44A6.1,6.1,0,0,1,166.28,21,6.45,6.45,0,0,1,171,19.32a8.8,8.8,0,0,1,2.84.42,4.91,4.91,0,0,1,2.05,1.3,6.34,6.34,0,0,1,1.31,2.2,12.51,12.51,0,0,1,.65,3.11l-3.22.87a12.86,12.86,0,0,0-.41-2.47,3.63,3.63,0,0,0-1-1.81,3.12,3.12,0,0,0-2.17-.69,3.06,3.06,0,0,0-2.2.75,3,3,0,0,0-.79,2.24,4.42,4.42,0,0,0,.42,2.05,6,6,0,0,0,1.36,1.64l4.6,4a14,14,0,0,1,2.72,3.21,8,8,0,0,1,1.18,4.41,6.85,6.85,0,0,1-.84,3.48,5.7,5.7,0,0,1-2.3,2.24A7.2,7.2,0,0,1,171.72,47.08Z"/>
      <path d="M181.8,46.78V19.56h3.8V32.39l6.25-12.83h3.53l-5.38,12,6.25,15.23h-3.7L187.35,34l-1.75,3.16v9.61Z"/>
      <path d="M195.21,46.78l11.46-27.22h10.58v2.75h-6.88v9h4.94V34h-4.94V44h6.88v2.76H206.74V39.89h-5l-2.89,6.89Zm7.53-9.61h4V26.45Z"/>
      <path d="M221,46.78V19.56h5.48a12,12,0,0,1,4.5.72,5,5,0,0,1,2.64,2.32,8.84,8.84,0,0,1,.86,4.18,11.21,11.21,0,0,1-.34,2.88,5.5,5.5,0,0,1-1.07,2.18,4.16,4.16,0,0,1-2,1.29L235,46.78H231.3L227.74,34h-3V46.78Zm3.8-15.49h1.45a7.13,7.13,0,0,0,2.62-.41,2.74,2.74,0,0,0,1.48-1.38,6.42,6.42,0,0,0,.47-2.72,5.4,5.4,0,0,0-.88-3.44c-.58-.71-1.73-1.06-3.46-1.06h-1.68Z"/>
      <path d="M239,46.78l.51-27.22h3.73L248,41.64l4.84-22.08h3.7l.5,27.22H254L253.68,27l-4.6,19.76h-2.15L242.36,27l-.31,19.76Z"/>
    </g>
  </g>
</svg>
