<svg id="Layer_1" data-name="Layer 1" xmlns="http://www.w3.org/2000/svg" xmlns:xlink="http://www.w3.org/1999/xlink" viewBox="0 0 1931.27 1076.37">
  <defs>
    <style>
      .cls-1 {
        fill: #e528e5;
      }

      .cls-2 {
        fill: #ff7754;
      }

      .cls-3 {
        fill: #df5100;
      }

      .cls-4 {
        opacity: 0.2;
      }

      .cls-5 {
        fill: url(#linear-gradient);
      }
    </style>
    <linearGradient id="linear-gradient" x1="1360.06" y1="849.21" x2="1542.04" y2="849.21" gradientTransform="translate(78.58 63.81) rotate(2.05)" gradientUnits="userSpaceOnUse">
      <stop offset="0.21" stop-color="#e5c09c"/>
      <stop offset="0.6" stop-color="#e4bf9a"/>
      <stop offset="1" stop-color="#d39a62"/>
    </linearGradient>
  </defs>
  <title>startknap_surf</title>
  <g>
    <path class="cls-1" d="M1228.32,592.36c-71.24-206.49-75.31-400.59-9.2-487.36,3.45.64,6.92,1.38,10.4,2.25,116.11,28.51,230.12,178.4,298.85,377.59S1601.06,876,1527.89,972c-1.6,2.12-3.25,4.17-4.92,6.19l-2.13,2.52c-1-.24-1.92-.51-2.89-.77C1413.21,950.64,1298.82,796.67,1228.32,592.36Z"/>
    <g>
      <polygon class="cls-2" points="1444.31 853.77 1444.17 854.82 1433.31 933.53 1501.18 909.89 1569.06 886.24 1512.04 831.18 1511.28 830.45 1475.45 842.93 1444.31 853.77"/>
      <polygon class="cls-2" points="1379.04 876.51 1380.19 815.77 1380.2 815.75 1383.58 786.9 1386.51 762.02 1394.29 715.82 1396.52 702.62 1406.52 643.17 1451.95 684.48 1461.83 693.47 1495.46 724.07 1513.7 740.65 1537.48 762.3 1579.69 806.62 1511.28 830.45 1455.03 776.12 1444.32 853.77 1379.04 876.51"/>
    </g>
    <polygon class="cls-3" points="1380.2 815.75 1437.54 729.84 1537.48 762.3 1513.7 740.65 1445.16 718.41 1461.83 693.47 1451.95 684.48 1432.12 714.19 1396.52 702.62 1394.29 715.82 1424.49 725.62 1383.58 786.9 1380.2 815.75"/>
    <path class="cls-4" d="M1228.32,592.36c-71.24-206.49-69.35-394.42-13.66-485.81,3.37.67,6.76,1.44,10.16,2.34l299.75,868.77-11,3.83C1408.7,942.1,1298.82,796.67,1228.32,592.36Z"/>
    <g>
      <path d="M1359.19,332l-5.06-15.17q14.64-7.11,10.49-19.54-2.68-8-7.85-10.78t-12.83-.19q-5.64,1.89-9.29,8l-25.3,44.38q-7,12.3-18.53,16.13l-7.47,2.49a32.35,32.35,0,0,1-40.63-20.35l-5.06-15.17q-5.06-15.17-.05-25.36t20.32-15.31l5.12,15.35-2.55.85a11.39,11.39,0,0,0-7.9,7.92,18.92,18.92,0,0,0,.19,11.51q2.68,8,7.8,10.29t12.58-.24a16.71,16.71,0,0,0,9.29-8l25.31-44.39q6.86-12.24,18.52-16.13l7.47-2.49a32.35,32.35,0,0,1,40.63,20.35l5.06,15.17Q1389,320,1359.19,332Z"/>
      <path d="M1268.15,413.12l121.59-40.57L1379.56,342l15.13-5,30.48,91.35L1410,433.39l-10.18-30.51-121.59,40.57Z"/>
      <path d="M1293.51,489.13l106.28-35.46a30.73,30.73,0,0,1,24.53,1.86A31.09,31.09,0,0,1,1440.41,474l10.18,30.51a30.6,30.6,0,0,1-1.89,24.39,31,31,0,0,1-18.43,16.1L1324,580.48l-10.12-30.33,60.7-20.25-10.18-30.52-60.7,20.26Zm86.2,5.14,10.18,30.52,30.26-10.1a16.1,16.1,0,0,0,10.19-20.46,15.36,15.36,0,0,0-8-9.19,15.51,15.51,0,0,0-12.34-.86Z"/>
      <path d="M1334.17,611l136.73-45.63,20.36,61a30.68,30.68,0,0,1-1.89,24.39,31,31,0,0,1-18.44,16.1l-8.2,2.73q-10.21,3.42-21.92-.4T1423.62,649l5.06,15.16a16.1,16.1,0,0,1-10.25,20.28l-53.78,17.94L1354.53,672l45.58-15.21a15.31,15.31,0,0,0,9.17-8,15.64,15.64,0,0,0,.84-12.36l-5.06-15.17-60.71,20.26Zm86.2,5.14,5.06,15.17a15.62,15.62,0,0,0,8.09,9.38,15.33,15.33,0,0,0,12.16.92l15.13-5.05A16.1,16.1,0,0,0,1471,616.1L1466,600.94Z"/>
      <path d="M1380,748.21l121.6-40.57-10.18-30.52,15.13-5L1537,763.43l-15.13,5.05L1511.67,738l-121.6,40.57Z"/>
    </g>
    <path class="cls-5" d="M1407.68,967.66c14.18-18.66,84.44-16.4,107.59-20.1,21.26-3.4,51.24-12.09,65,4.5,15.23,18.43,11.14,19-11.81,25.71-24.15,7.05-89.36,18.44-109,2.63C1451,973.56,1401.19,976.2,1407.68,967.66Z"/>
  </g>
</svg>
