<svg id="Layer_1" data-name="Layer 1" xmlns="http://www.w3.org/2000/svg" xmlns:xlink="http://www.w3.org/1999/xlink" viewBox="0 0 210.17 406.01">
  <defs>
    <style>
      .cls-1 {
        fill: #e528e5;
      }

      .cls-2 {
        fill: #ff7754;
      }

      .cls-3 {
        fill: #df5100;
      }

      .cls-4 {
        opacity: 0.2;
      }

      .cls-5 {
        fill: url(#linear-gradient);
      }
    </style>
    <linearGradient id="linear-gradient" x1="160.28" y1="289.06" x2="243.93" y2="289.06" gradientTransform="translate(-23.27 98.89) rotate(2.05)" gradientUnits="userSpaceOnUse">
      <stop offset="0.21" stop-color="#e5c09c"/>
      <stop offset="0.6" stop-color="#e4bf9a"/>
      <stop offset="1" stop-color="#d39a62"/>
    </linearGradient>
  </defs>
  <title>startknap</title>
  <g>
    <path class="cls-1" d="M44.27,224C11.53,129.09,9.66,39.88,40,0c1.59.29,3.18.64,4.78,1C98.19,14.14,150.59,83,182.18,174.58s33.41,179.8-.22,223.92c-.74,1-1.5,1.92-2.27,2.84-.32.39-.65.78-1,1.16l-1.32-.35C129.25,388.67,76.67,317.9,44.27,224Z"/>
    <g>
      <polygon class="cls-2" points="143.54 344.15 143.48 344.63 138.48 380.81 169.68 369.94 200.88 359.07 174.67 333.76 174.32 333.43 157.85 339.16 143.54 344.15"/>
      <polygon class="cls-2" points="113.54 354.6 114.07 326.68 114.08 326.67 115.63 313.41 116.98 301.98 120.55 280.74 121.58 274.67 126.17 247.35 147.05 266.34 151.59 270.47 167.05 284.53 175.43 292.16 186.36 302.1 205.76 322.47 174.32 333.43 148.47 308.45 143.54 344.15 113.54 354.6"/>
    </g>
    <polygon class="cls-3" points="114.08 326.67 140.43 287.19 186.36 302.1 175.43 292.16 143.93 281.94 151.59 270.47 147.05 266.34 137.94 279.99 121.58 274.67 120.55 280.74 134.43 285.25 115.63 313.41 114.08 326.67"/>
    <path class="cls-4" d="M44.27,224C11.53,129.09,12.39,42.72,38,.71c1.55.31,3.11.67,4.67,1.08l137.77,399.3-5.05,1.76C127.17,384.75,76.67,317.9,44.27,224Z"/>
    <g>
      <path d="M104.42,104.32l-2.33-7q6.73-3.27,4.83-9c-.83-2.46-2-4.12-3.61-5a7.33,7.33,0,0,0-5.9-.08A7.94,7.94,0,0,0,93.14,87l-11.63,20.4A15.44,15.44,0,0,1,73,114.81L69.56,116a14.87,14.87,0,0,1-18.67-9.35l-2.33-7q-2.33-7,0-11.66t9.34-7L60.23,88l-1.17.39A5.24,5.24,0,0,0,55.43,92a8.68,8.68,0,0,0,.09,5.29Q56.75,101,59.1,102a8,8,0,0,0,5.78-.11,7.68,7.68,0,0,0,4.27-3.67l11.64-20.4a15.15,15.15,0,0,1,8.51-7.41l3.43-1.15a14.88,14.88,0,0,1,18.68,9.36l2.32,7Q118.13,98.82,104.42,104.32Z"/>
      <path d="M62.57,141.62,118.46,123l-4.68-14,7-2.32,14,42-7,2.32-4.68-14L67.23,155.56Z"/>
      <path d="M74.23,176.55l48.85-16.3a14.09,14.09,0,0,1,11.27.86,14.31,14.31,0,0,1,7.4,8.5l4.68,14a14.08,14.08,0,0,1-.87,11.21,14.26,14.26,0,0,1-8.47,7.4l-48.85,16.3L83.59,204.6l27.9-9.31-4.68-14-27.9,9.31Zm39.62,2.37,4.68,14,13.91-4.64a7.39,7.39,0,0,0,4.68-9.4,7,7,0,0,0-3.69-4.23,7.09,7.09,0,0,0-5.67-.39Z"/>
      <path d="M92.92,232.56l62.84-21,9.36,28a14.08,14.08,0,0,1-.87,11.21,14.22,14.22,0,0,1-8.47,7.4L152,259.51a15.76,15.76,0,0,1-10.07-.19q-5.38-1.74-7.91-9.31l2.33,7a7.39,7.39,0,0,1-4.71,9.32l-24.72,8.25-4.65-13.94,20.94-7a7,7,0,0,0,4.22-3.69,7.2,7.2,0,0,0,.39-5.68l-2.33-7-27.9,9.31Zm39.62,2.37,2.32,7a7.23,7.23,0,0,0,3.72,4.31,7,7,0,0,0,5.59.42l7-2.32a7.39,7.39,0,0,0,4.68-9.4l-2.32-7Z"/>
      <path d="M114,295.63,169.85,277l-4.68-14,7-2.32,14,42L179.18,305l-4.68-14-55.89,18.65Z"/>
    </g>
    <path class="cls-5" d="M126.71,396.49c6.51-8.58,38.81-7.54,49.44-9.24,9.78-1.56,23.56-5.56,29.86,2.07,7,8.47,5.12,8.74-5.42,11.82-11.11,3.24-41.08,8.47-50.08,1.21C146.62,399.2,123.72,400.42,126.71,396.49Z"/>
  </g>
</svg>
