<svg id="Layer_1" data-name="Layer 1" xmlns="http://www.w3.org/2000/svg" viewBox="0 0 1036.14 221.95">
  <defs>
    <style>
      .cls-1 {
        fill: #e0b3a0;
      }

      .cls-2 {
        opacity: 0.3;
        isolation: isolate;
      }

      .cls-3 {
        fill: #f4eee9;
      }

      .cls-4 {
        fill: #fff5fc;
      }
    </style>
  </defs>
  <title>starttakeaction</title>
  <rect class="cls-1" width="1036.14" height="221.95" rx="11.53"/>
  <rect class="cls-2" x="17.56" y="16.84" width="82.63" height="82.63" rx="8.82"/>
  <rect class="cls-2" x="118.75" y="16.84" width="82.63" height="82.63" rx="11.53"/>
  <rect class="cls-2" x="217.28" y="16.84" width="82.63" height="82.63" rx="11.53"/>
  <rect class="cls-2" x="315.05" y="16.84" width="82.63" height="82.63" rx="11.53"/>
  <rect class="cls-2" x="436.31" y="17.29" width="82.63" height="82.63" rx="11.53"/>
  <rect class="cls-2" x="533.46" y="17.29" width="82.63" height="82.63" rx="11.53"/>
  <rect class="cls-2" x="634.15" y="17.29" width="82.63" height="82.63" rx="11.53"/>
  <rect class="cls-2" x="735.3" y="17.29" width="82.63" height="82.63" rx="11.53"/>
  <rect class="cls-2" x="839.43" y="17.29" width="82.63" height="82.63" rx="11.53"/>
  <rect class="cls-2" x="940.75" y="17.29" width="82.63" height="82.63" rx="11.53"/>
  <rect class="cls-3" x="13.72" y="13" width="82.63" height="82.63" rx="8.82"/>
  <rect class="cls-3" x="114.9" y="13" width="82.63" height="82.63" rx="11.53"/>
  <rect class="cls-3" x="213.44" y="13" width="82.63" height="82.63" rx="11.53"/>
  <rect class="cls-3" x="311.21" y="13" width="82.63" height="82.63" rx="11.53"/>
  <rect class="cls-3" x="432.46" y="13.45" width="82.63" height="82.63" rx="11.53"/>
  <rect class="cls-3" x="529.62" y="13.45" width="82.63" height="82.63" rx="11.53"/>
  <rect class="cls-3" x="630.3" y="13.45" width="82.63" height="82.63" rx="11.53"/>
  <rect class="cls-3" x="731.46" y="13.45" width="82.63" height="82.63" rx="11.53"/>
  <rect class="cls-3" x="835.58" y="13.45" width="82.63" height="82.63" rx="11.53"/>
  <path d="M52.05,33.7H38.25v-5H71.82v5H58V74.05H52.05Z"/>
  <path d="M148.08,59.79l-4.71,14.26h-6.05l15.37-45.33h7.06l15.48,45.33H169l-4.81-14.26Zm14.84-4.57-4.44-13c-1-3-1.68-5.65-2.36-8.27H156c-.67,2.69-1.41,5.45-2.29,8.2l-4.44,13.12Z"/>
  <path d="M241.3,28.72h5.85V50.58h.2c1.21-1.75,2.42-3.37,3.57-4.81l13.84-17.05H272L255.62,47.94,273.3,74h-6.92L251.45,51.79l-4.3,5v17.3H241.3Z"/>
  <path d="M364.62,52.8h-17.7V69.13h19.69V74H341V28.72h24.61v4.91H346.92V48h17.7Z"/>
  <path d="M465.64,60.24l-4.71,14.27h-6.05l15.37-45.34h7.06l15.47,45.34h-6.25l-4.81-14.27Zm14.86-4.57-4.44-13c-1-3-1.68-5.65-2.35-8.27h-.13c-.68,2.69-1.42,5.45-2.29,8.2l-4.44,13.12Z"/>
  <path d="M588.22,73c-2.15,1.08-6.46,2.15-12,2.15-12.78,0-22.4-8.07-22.4-22.94,0-14.19,9.61-23.81,23.68-23.81,5.65,0,9.21,1.21,10.76,2l-1.41,4.8a21.39,21.39,0,0,0-9.15-1.92C567.1,33.33,560,40.12,560,52c0,11.11,6.39,18.25,17.42,18.25A23.4,23.4,0,0,0,587,68.36Z"/>
  <path d="M668.62,34.15H654.85V29.21h33.57v5H674.56V74.54h-5.92Z"/>
  <path d="M775.7,29.21V74.55h-5.86V29.21Z"/>
  <path d="M897.58,51.37c0,15.61-9.48,23.88-21.05,23.88-12,0-20.38-9.28-20.38-23,0-14.41,9-23.81,21.06-23.81C889.58,28.43,897.58,37.91,897.58,51.37Zm-35.17.73c0,9.7,5.24,18.38,14.41,18.38s14.53-8.55,14.53-18.85c0-9-4.71-18.42-14.41-18.42s-14.55,8.94-14.55,18.89Z"/>
  <rect class="cls-3" x="936.91" y="13.45" width="82.63" height="82.63" rx="11.53"/>
  <path d="M961.21,74.51V29.21h6.39l14.53,22.93a129.63,129.63,0,0,1,8.13,14.74l.14-.06c-.54-6.07-.67-11.58-.67-18.64v-19h5.51V74.55h-5.92l-14.41-23a146.64,146.64,0,0,1-8.47-15.14l-.21.06c.34,5.77.47,11.17.47,18.7V74.55Z"/>
  <rect class="cls-2" x="489.05" y="124.17" width="85.29" height="85.29" rx="8.82"/>
  <rect class="cls-3" x="485.21" y="120.32" width="85.29" height="85.29" rx="8.82"/>
  <path d="M501.56,165V139.29a4,4,0,0,1,6-3.43l22.3,12.87,22.3,12.88a4,4,0,0,1,1.47,5.46,4.06,4.06,0,0,1-1.47,1.47l-22.3,12.87-22.3,12.88a4,4,0,0,1-5.46-1.47,4.07,4.07,0,0,1-.54-2Z"/>
  <polygon class="cls-4" points="57.73 182.06 61.73 179.07 61.59 182.06 57.73 182.06"/>
</svg>
