<svg id="Layer_1" data-name="Layer 1" xmlns="http://www.w3.org/2000/svg" viewBox="0 0 296 78">
  <defs>
    <style>
      .cls-1 {
        fill: #f998d2;
        opacity: 0.11;
      }
    </style>
  </defs>
  <title>takeactiondokumentation</title>
  <g>
    <path class="cls-1" d="M36.24,10a33.79,33.79,0,0,0-7,2.43,33.31,33.31,0,0,0-8.47,6.36c-4.24,4.21-8,9.33-9.48,15.18-1,4-2,8.06-2.68,12.16a52.63,52.63,0,0,0-.66,5.45,22,22,0,0,0,.17,6.38,12.88,12.88,0,0,0,5.36,7.73c2.52,1.59,5.42,1.16,8.1.44a36.36,36.36,0,0,0,7.66-3.25c9.91-5.28,17.94-13.23,26.78-20a133.83,133.83,0,0,1,15-10l-.33.17,2.5-1.22-.33.16a11.34,11.34,0,0,1,5.51-1.14l-8.61-1.36,9,1.82L68.52,28.44l12,7.71-7.46-6.56,2.32,3.21-1.32-2.09,1.57,3.79-.9-2.42,3,11L76,35.14a92.3,92.3,0,0,1,1.34,13.45,8.6,8.6,0,0,0,.49,3.57,10.06,10.06,0,0,0,2.56,4.56c5.89,6.07,15.4,5.21,22.63,2.56,8.35-3.06,15.64-8.35,23-13.27,2.45-1.64,5-3.09,7.51-4.61,2.87-1.74,5.71-3.46,8.73-4.94l-.35.14,2.6-1-.36.13a9.34,9.34,0,0,1,5-.46l-9.44-2.69,12.72,5.12-9.67-5.49,9.57,9.1-6.18-7.67,3.48,14-.43-10.09-2.42,16.13,0,2.29a8.48,8.48,0,0,0,.93,2.7L149.59,61l5.88-2.23a71.43,71.43,0,0,0,11.81-6.5c2.47-1.65,5.07-3.15,7.41-5,1.8-1.4,3.52-2.9,5.25-4.38,3.88-3.31,7.38-6.81,11.71-9.54l-.31.19,3.83-.92-10.61-.45,11,1.15-10.21-1.88,11.36,5-8.87-4.67,7.23,5.46-5.73-4.78,6.23,12.37L192.69,36,195,46.18,193.85,38S194,50.2,195.12,55.1a16.79,16.79,0,0,0,3.86,7c2.67,3,7.63,4.81,11.49,5.25a38.94,38.94,0,0,0,13.09-.79c9.7-2.17,18.32-6.94,27.31-11,5.2-2.34,10.6-4.13,16-6,6.71-2.28,13.29-4.67,19.8-7.46a1.82,1.82,0,0,0-1.14-.66c-1.08-.37-2.17-.71-3.26-1-2.24-.68-4.63-1.7-7-1.87-8.39-.63-9.84-.73-18-.82l5.83.18q-8-.88-16-1.45a94,94,0,0,1-11.1-3.75,119.48,119.48,0,0,1-18-9.72l.32.23-3.7-2.62.32.25-3.37-2.71.31.27-3.06-2.69.31.28c-3.39-3.23-6.67-6.56-10-9.89a2.67,2.67,0,0,0,.18,1.62q.76,2.94,1.64,5.84t1.8,5.79a2.69,2.69,0,0,0,.74,1.46c8.49,7.73,18.7,13.22,29.1,17.92l-.32-.2a74.88,74.88,0,0,0,10.06,6.93l.28-.16,11.75-8-8,3.63,17.4-2.59-8.07,0A236.67,236.67,0,0,1,285.35,42l-10.43-3.42c-5.33,2.12-10.64,4.06-16.09,5.85s-10.77,3.3-16.09,5.12c-3.75,1.27-7.44,2.73-11.15,4.1A60.38,60.38,0,0,1,220,57l-4.93.54-2.94-.51a17.28,17.28,0,0,1-7.39-2.77c-4.46-3.08-6.31-8.53-8.11-13.42l-.5,5.16a29.85,29.85,0,0,1,1.32-7.28q1.44-3.49-2-6.26a1.8,1.8,0,0,0-1.26-.37c-1.6-.15-3.2-.26-4.81-.34s-3.22-.15-4.82-.18a1.82,1.82,0,0,0-1.3.23l-2.13,1.26.32-.19a44.92,44.92,0,0,0-6.89,4.4c-1.65,1.26-3.27,2.55-4.88,3.86-1.41.78-2.84,1.49-4.31,2.15a6.89,6.89,0,0,0-5.68,2.31,8.7,8.7,0,0,0-4,3.21q-2.58,3.6-3.61-.42a11,11,0,0,1-.95-4.11l-3.67,8.78L152.45,44a4.55,4.55,0,0,0,.83-3.15c0-2.18-.29-1.89-1.53-4.67a1.78,1.78,0,0,0-1.05-.75c-1-.46-2-.9-3.08-1.32-1.29-.54-2.58-1.07-3.88-1.57a14.2,14.2,0,0,0-2.76-.92,25.29,25.29,0,0,0-9,2.34c-4.36,2.12-8.43,4.87-12.67,7.23l.34-.14c-8.58,3.13-16.06,9.28-25.43,10.2a12.24,12.24,0,0,1-5.25-.41,14.42,14.42,0,0,1-3.46-2C82.62,47,81,43.6,79.61,40.62l.12.31-.85-2.44-.95,9.32,2.2-9.21A15.41,15.41,0,0,0,81,35.19a3.87,3.87,0,0,0,.11-1.82,2,2,0,0,0-1.05-2,1.85,1.85,0,0,0-1.16-.62c-1.09-.34-2.18-.65-3.28-.94-1.37-.39-2.74-.75-4.12-1.09a15.07,15.07,0,0,0-2.9-.59,25.62,25.62,0,0,0-6.93,2.69A119,119,0,0,0,50.3,37.58c-4.76,3.07-9.25,6.55-13.95,9.72a50.59,50.59,0,0,1-7.7,4.58l-3.49,1.41a5.35,5.35,0,0,1-2,2.58,2.66,2.66,0,0,1-1.92.87A4,4,0,0,1,19,55.8,3.49,3.49,0,0,1,18.2,53a43.76,43.76,0,0,1,.72-4.42,48.4,48.4,0,0,1,3.82-10.74,34.84,34.84,0,0,1,7-9.64,28.45,28.45,0,0,1,8.43-5.9,33.58,33.58,0,0,1,9.25-2.42,2.57,2.57,0,0,0-1-1.26q-2.14-2-4.35-4c-1.46-1.31-3-2.59-4.45-3.84A2.59,2.59,0,0,0,36.24,10Z"/>
    <path class="cls-1" d="M37.23,11.9l-3.49.83a21.79,21.79,0,0,0-5.33,2.55A36.41,36.41,0,0,0,20.05,22a43.31,43.31,0,0,0-5.4,7.1,30.6,30.6,0,0,0-3.16,7.62A109,109,0,0,0,8.67,49C8,53.05,7.39,58,9,61.85a14.45,14.45,0,0,0,2.44,4.08A7.3,7.3,0,0,0,15,68.19a4.1,4.1,0,0,0,3.22.53A23.73,23.73,0,0,0,27.74,66a73.92,73.92,0,0,0,10.9-6.55C44.06,55.67,49,51,54.12,46.83a123.44,123.44,0,0,1,11.26-8.28,54.41,54.41,0,0,1,11-5.9l-.36.12,1.82-.39-3-.48,6.08,1.19L69.76,28.86,81.66,38l-7.41-7.57,2.27,3.65-1.3-2.31,3,11.57-1.29-6.67,1.18,10.81-.34-6.78q0,6.24.32,12.46a11.7,11.7,0,0,0,.66,2.47,10.21,10.21,0,0,0,4.35,5.06c8,5.08,17.56,2.59,25.44-1.23S123,50.3,130.21,45.69c4.91-3.12,10-6.38,15.47-8.46l-.37.1,2.5-.6-.38.08,3.86.3-10.45-4,12.78,6.39-9.71-6.64,9.49,10.35-6.11-8.57,5.37,10.53-4-8.94,2.4,9.12-1.64-7.55.64,9.33-.17-7.85c-.82,5.51-1.9,11-2.73,16.52a5.83,5.83,0,0,0,.47,3.81A4.25,4.25,0,0,0,149,62q1.25,2.7,4,.06A70.59,70.59,0,0,0,166,55.77c2.86-1.8,5.88-3.6,8.58-5.63,1.79-1.35,3.45-2.89,5.12-4.37,4.27-3.79,8.19-7.83,13.05-10.86l-.33.16a7.06,7.06,0,0,1,3.91-.9l-11.45-1.9,12.73,4L188,31.88l5.81,3.72-4.68-3.26,7.05,6.48-5.61-5.57L196,40.62l-4.25-6.26,4.34,11.8-2.35-8.59,2,10.71-1.11-8.69a81.76,81.76,0,0,1,.74,14.23,19.77,19.77,0,0,0,.06,3.17,12.94,12.94,0,0,0,2.76,5.69,10.93,10.93,0,0,0,4.38,4.09l3.93,1.83a22.77,22.77,0,0,0,7.13,1.13,28.11,28.11,0,0,0,7.82-.32c10.06-1.79,19-6.53,28.09-10.89a167.36,167.36,0,0,1,18.51-7.17c6.71-2.28,13.28-4.68,19.8-7.49a1.93,1.93,0,0,0-1.13-.77c-1.08-.49-2.17-1-3.27-1.39-1.36-.57-2.74-1.12-4.12-1.65a16.4,16.4,0,0,0-2.92-1q-7.06-.93-14.15-1.79A44.77,44.77,0,0,0,249,36.92l4.6.23a70.65,70.65,0,0,1-12.46-1.56,22.64,22.64,0,0,1-10.06-3.54c-4-2.23-8-4.48-11.86-7-7-4.66-12.93-10.49-18.86-16.43-.31-.31-.2-.23-.34.09l.13.92c.26,1.06.53,2.11.84,3.15.45,1.61.91,3.22,1.42,4.82a4.57,4.57,0,0,0,.91,2A90.82,90.82,0,0,0,220.59,32a47.59,47.59,0,0,1,5.13,2.86,61.14,61.14,0,0,0,5.75,3.22,56.18,56.18,0,0,0,5.07,5.5,58,58,0,0,1,9.2-5.64l-4.59,2.34,14.17-2.48-6.38-.27q19.41,2.5,38.58,6.38l-11.43-4.79c-5.32,2.14-10.63,4.1-16.07,5.9S249.25,48.35,244,50.25c-7.63,2.73-15.13,6.7-23.18,8.13l-5.15.7-3.17-.44a17.86,17.86,0,0,1-7.81-2.76c-4.53-3-6.23-8.24-7.67-13.24l-.92,9.82L198,42.75a25.12,25.12,0,0,0,.88-3.16,6.1,6.1,0,0,0-.83-4.71,1.76,1.76,0,0,0-1.14-.63c-1.52-.5-3.06-1-4.6-1.4s-3.08-.86-4.64-1.24a1.86,1.86,0,0,0-1.31-.06c-7.07,1.86-11.57,7.81-17.55,11.52a27,27,0,0,1-4,2.24l-2.49.68-2.12,1.47-2.29,1.09a12.1,12.1,0,0,1-3.64,2.77c-.94,1.1-1.56,1-1.87-.28a6.83,6.83,0,0,1-1.21-3.12l-3.3,9.51a31.81,31.81,0,0,1,4.89-10.31,10,10,0,0,0,1.64-3c.45-2.48-.37-3.63-1.37-6.07a2,2,0,0,0-1-.87c-1.44-.81-2.9-1.6-4.38-2.35s-3-1.51-4.45-2.22a1.94,1.94,0,0,0-1.31-.34,24.59,24.59,0,0,0-11,3.24c-2.59,1.41-5.07,3-7.61,4.52s-5.15,2.5-7.71,3.91c-3,1.69-6.08,3.39-9.22,4.91-3.94,1.91-8.6,4-13.07,4.09L90.5,52.8A6.39,6.39,0,0,1,86.36,51,9.79,9.79,0,0,1,83,48.33a44.12,44.12,0,0,1-2.3-3.77l.12.32L80,42.37l.16,1.21c.74-2.12,2.23-5.21,2.25-7.56a3.67,3.67,0,0,0-1.09-3,1.9,1.9,0,0,0-1.13-.75q-2.3-1-4.63-1.84c-1.55-.6-3.12-1.16-4.69-1.69a1.92,1.92,0,0,0-1.34-.19,25.88,25.88,0,0,0-7.63,2.93A114.56,114.56,0,0,0,48.8,39.74c-4.65,3.27-9.1,6.81-13.73,10.1a33.34,33.34,0,0,1-7.42,4.5,5.08,5.08,0,0,0-3,1.95,5.37,5.37,0,0,1-4.09,2.06,4.8,4.8,0,0,1-3.05-1.65A5.69,5.69,0,0,1,17,53.11c.2-1.61.3-3.22.64-4.81a55.79,55.79,0,0,1,3.51-10.37,33.63,33.63,0,0,1,8.4-11.46,28.44,28.44,0,0,1,7.3-5A34.21,34.21,0,0,1,46.3,18.9a1.64,1.64,0,0,0-.77-1Q43.79,16.48,42,15.1t-3.63-2.7A1.63,1.63,0,0,0,37.23,11.9Z"/>
    <path class="cls-1" d="M34.28,6.87a15.75,15.75,0,0,0-5.19,1.74,17.87,17.87,0,0,0-3.6,1.94,41.09,41.09,0,0,0-8.74,7.13A43.89,43.89,0,0,0,9.91,27.5a35.36,35.36,0,0,0-2.68,7.77A75.79,75.79,0,0,0,4.67,50.22a42.19,42.19,0,0,0,.21,7,14.68,14.68,0,0,0,2.63,6.45c1.79,2.47,4.56,5.06,7.73,5.44A20.91,20.91,0,0,0,23.61,68a42.6,42.6,0,0,0,7.45-3.36c5.93-3.2,11-7.64,16.06-12,5.4-4.63,10.54-9.38,16.29-13.56,2.8-2,5.6-4.14,8.58-5.92,2.36-1.41,4.93-2.86,7.75-3l-1.5-.09c6.81,1.34,3.58,7.5,2,10.9A48.61,48.61,0,0,0,77,49.18a10.57,10.57,0,0,0,1.43,8.89c2,2.62,5.78,4,8.8,4.81,6.94,1.93,14.29-.35,20.56-3.32A88.26,88.26,0,0,0,120.45,52c4-2.8,7.79-5.9,11.87-8.57,2.17-1.43,4.4-2.8,6.6-4.18l2.15-1.34a30.92,30.92,0,0,1,6.44-2.94q9.78,6.26,4.8,11.16a21.92,21.92,0,0,1-3.14,3.25A27.18,27.18,0,0,0,146,53.45a9.78,9.78,0,0,0-1.16,2.44c-.47,2.9,1.59,5.22,3.3,7.21a.39.39,0,0,0,.47.11A103.81,103.81,0,0,0,162,58.1a75.64,75.64,0,0,0,16.05-10.74c2.91-2.52,5.49-5.37,8.23-8.06q1.91-1.92,3.92-3.74a14.56,14.56,0,0,1,6.73-4.21l-1.87,0L197.82,33l.93,1.71c1.11,2.52-.28,5.74-1.24,8.09a44.41,44.41,0,0,0-1.95,4.81c-.41,1.48-.82,3-1.17,4.45a16.23,16.23,0,0,0-.56,5.19l1.71,3.85L198,64.22a19.08,19.08,0,0,0,5.78,3.49c4.92,2.09,10.32,2.29,15.59,1.67a58.66,58.66,0,0,0,15.37-4.17c7.44-3,14.35-7.21,21.64-10.57A180.14,180.14,0,0,1,273.3,48.4c5.63-1.94,11-4.11,16.5-6.51.76-.34-1.27-1-1.26-.94-15.87-3-31.8-5.86-47.18-10.88a111.79,111.79,0,0,1-20.71-8.73c-8.46-4.8-15-11.71-21.67-18.61-.69-.71,0,1.91-.07,1.57.3,1.12.61,3.23,1.47,4.09a108.81,108.81,0,0,0,10.68,9.45A64.74,64.74,0,0,0,226,26.19a159.79,159.79,0,0,0,22.45,7c13.55,3.32,27.13,6.08,40.82,8.75L288,41a124.92,124.92,0,0,1-13,5.33l-6.58,2.27A149.52,149.52,0,0,0,250.12,56c-5.19,2.63-10.41,5.88-15.87,7.92L216.4,68.39a26.2,26.2,0,0,1-17.59-5.33L196.42,60a8.23,8.23,0,0,1-1.09-8.48,33.07,33.07,0,0,1,2-5.63c1.55-3.28,4.13-7.31,3.41-11.14a4.35,4.35,0,0,0-3.83-4c-2.22-.36-4.5,1.07-6.16,2.34-4.71,3.59-8.36,8.33-12.55,12.45a63.36,63.36,0,0,1-9,7.15,51.42,51.42,0,0,1-7.62,4.57A66.71,66.71,0,0,1,148.64,62l.47.12c-2.21-1.52-2.71-3.55-1.49-6.11a5.39,5.39,0,0,1,2.24-5.84c1.74-1.77,5.09-4.11,5.77-6.7.73-2.77.45-7.18-2.32-8.86-1.41-.85-3.93-.91-5.5-.77-3.54.32-7,2.28-9.95,4.14-4.59,2.88-9,5.89-13.39,9.12a126,126,0,0,1-11,7.81l-13.08,6.23Q88.68,64.81,78.17,55l-.6-2.28a17.54,17.54,0,0,1,2.09-8c1.23-2.54,2.71-5,3.7-7.63.75-2,1.51-4.68-.28-6.33-1.46-1.35-3.44-1.37-5.29-1.32-2.77.07-5.39,1.75-7.71,3.15-2.16,1.31-4.23,2.85-6.29,4.33A171.14,171.14,0,0,0,49.15,49.16q-4.63,4.2-9.38,8.29l-11.7,7.7a17.91,17.91,0,0,1-10.56,2.76q-5,.48-7.89-5a19.31,19.31,0,0,1-1.9-3.7,6.14,6.14,0,0,1-.78-3.86A53.77,53.77,0,0,1,8.45,41.66c1.57-6.89,4.27-13.61,9.1-18.89a41.37,41.37,0,0,1,10.28-8.5l3.69-1.88a22.39,22.39,0,0,1,6.39-1.89c.42-.08-1.62-2.16-1.54-2.08C36,8.07,35,6.69,34.28,6.87Z"/>
    <path class="cls-1" d="M33.1,11.82C21.67,16.45,11.1,26,7.74,38.13A104.45,104.45,0,0,0,4.84,53c-.52,4.09-.85,8.7.56,12.64A14.34,14.34,0,0,0,9,71.54l2.53,1.86A8.16,8.16,0,0,0,17,74.63c7.41,0,14.18-4,20-8.23s10.85-9.06,16.31-13.63A170.75,170.75,0,0,1,68.58,41a54.87,54.87,0,0,1,5.59-3.41l2.13-1a6.33,6.33,0,0,1,5.15-.49l-1.59-.66,2,3A11.36,11.36,0,0,1,81,42c-.69,2.06-1.69,4-2.42,6a30.86,30.86,0,0,0-2,8c-.17,2.47,0,5.38,1.7,7.38,2.64,3.17,6.68,4.61,10.63,5.28,7.24,1.21,14.72-1.08,21.08-4.5s11.93-7.62,17.63-11.81a147.93,147.93,0,0,1,13.25-8.75,42.36,42.36,0,0,1,4.41-2.23,7.88,7.88,0,0,1,4.11-1,4.9,4.9,0,0,1,3.64.39l-1.9-1.3q4.7,6.87,0,11.5a19.79,19.79,0,0,0-3.41,4.22,22.52,22.52,0,0,0-2.53,5,6.16,6.16,0,0,0-.29,3.35c.4,2.42,1.46,3.15,3,4.9a.2.2,0,0,0,.34.09q3.57-1.07,7.14-2.19a44,44,0,0,0,11.62-5.58,86.44,86.44,0,0,0,11-8c3.32-2.88,6.26-6.15,9.43-9.19a61.87,61.87,0,0,1,5.08-4.5A7,7,0,0,1,198,37.37l-1.48-.57a6.36,6.36,0,0,1,2,4.47,15.33,15.33,0,0,1-1,4.32,62.52,62.52,0,0,0-2.34,7c-.52,2.56-1,5.12-1.32,7.71-.38,3,.72,5.31,2.63,7.8,2.85,3.7,7.08,5.68,11.61,6.59,7.95,1.58,15.91.06,23.46-2.59a97.77,97.77,0,0,0,11.68-5.13c4.61-2.34,9.13-4.6,13.88-6.67,5.25-2.29,10.51-4.21,15.92-6.07,5.64-1.93,11.05-4.09,16.51-6.49.85-.38-1.51-1.88-2-1.94-18.77-2.83-37.84-6.59-55.56-13.56a80.52,80.52,0,0,1-7.58-3.27,40.07,40.07,0,0,1-11.61-8.2,50.72,50.72,0,0,1-9.77-8.34c-1.5-1.6-3-3.16-4.59-4.69-.51-.52-.65.74-.29,1.09,5.86,5.76,11.36,11.9,18.25,16.47,6.52,4.31,13.8,7.26,21.19,9.74,16.79,5.64,34.32,9.18,51.66,12.66l-1.7-1.9c-4.33,1.88-8.64,3.68-13.08,5.29-5.53,2-11.12,3.79-16.59,6-6.5,2.56-12.54,6-18.91,8.85-7.31,3.26-15.34,6-23.46,5.87l-5.26-.5a12.61,12.61,0,0,1-9.29-4.75q-4.62-1.59-5.26-5.93a5.9,5.9,0,0,1-.65-4.08l-.3,2.11a45.51,45.51,0,0,1,3-8.21c1.06-2.3,2.51-5.06,2.84-7.62.4-3-.58-5.59-3.52-6.43a7.37,7.37,0,0,0-2.14-.42,14.16,14.16,0,0,0-4.21,2.3c-1.69,1.39-3.32,2.86-4.87,4.41-2.69,2.62-5.23,5.41-8,8a51.64,51.64,0,0,1-6.75,5.3q-23.86,18-24.93,3.52l-.79,2.29a19,19,0,0,1,4.27-5.79,27.78,27.78,0,0,0,5-5.55,5.17,5.17,0,0,0,1.07-4.07l-.24-2.47a7.33,7.33,0,0,0-.91-2.13c-2.44-3.39-6.77-3.51-10.36-2.11a64.72,64.72,0,0,0-10.47,5.78C128,49,122.6,53.28,116.8,57c-6.75,4.29-13.77,7.88-21.88,8.44-3.59.25-8.17-.39-11.36-2.28l-4.29-3.26a9.26,9.26,0,0,1-1.78-5.61l-.32,2.41a24.18,24.18,0,0,1,3.12-7.61,48.45,48.45,0,0,0,3-6.23c.46-1.46,1.13-3.35.58-4.86a5.75,5.75,0,0,0-3.76-3.17c-2.89-1-5.37.25-7.9,1.55A70.1,70.1,0,0,0,63.69,42c-4.17,3-8,6.22-11.87,9.6-7.3,6.33-14.93,14.1-24,17.86-3.78,1.58-8.79,3.39-12.8,1.62a13,13,0,0,1-6.39-6.33C7.14,61.61,7,58.23,7.21,54.88A88.85,88.85,0,0,1,8.6,45.14c.81-4.71,1.76-9.09,4.07-13.4a40.21,40.21,0,0,1,8.41-10.62,41.49,41.49,0,0,1,7.18-4.92,20.6,20.6,0,0,1,5.53-3.49C34.36,12.42,33.43,11.69,33.1,11.82Z"/>
    <path class="cls-1" d="M36.85,12.61l-3.49.83A22.87,22.87,0,0,0,28,16a36.66,36.66,0,0,0-8.4,6.64,43.34,43.34,0,0,0-5.43,7.08A30.75,30.75,0,0,0,11,37.33,107.29,107.29,0,0,0,8.1,49.71c-.65,4-1.33,9,.34,12.85a15.1,15.1,0,0,0,2.49,4.08,7.25,7.25,0,0,0,3.62,2.27,3.87,3.87,0,0,0,3.28.46,25.11,25.11,0,0,0,9.56-3A72.15,72.15,0,0,0,38,59.73c5.29-3.87,10.17-8.37,15.24-12.52A126.22,126.22,0,0,1,64.38,39a53,53,0,0,1,11-5.84l-.39.09,2.22-.49-.39.07,1.69.06L72.27,31l6.66,2.26L68.82,28.78,80,34.37,69.43,28.24,80.2,40.9,73.91,30.43l4,10.43-3.11-9.08,2.8,17.1-.37-9.36c0,3.94.07,7.87.11,11.81a12.42,12.42,0,0,0,.82,5.15A11.72,11.72,0,0,0,83.8,62.2c8.51,4.34,18.34.86,26.09-3.44s14.47-9.68,22-14.13c4.85-2.88,9.43-6.08,15-7.4l-.41.05a7.53,7.53,0,0,1,3.91.29L138.07,32l15.29,10.08-9.6-9.89,5.87,18.2-.45-12.88-2.06,16.74.62-3.18c-.82,3.49-2.19,7.06-.32,10.43l2,2.37,6.13-2.4a70.43,70.43,0,0,0,12.15-6.83c2.49-1.71,5.08-3.33,7.4-5.28,1.73-1.46,3.39-3,5.09-4.49,3.77-3.34,7.24-6.76,11.55-9.41l-.37.13,2.51-.89-13.18-1.47L197.91,39,187.1,31.14l8.72,16.37-3-11.48,2.22,15.75-.1-6.45c0,3,0,6-.13,9a17.42,17.42,0,0,0,0,3.31,12.73,12.73,0,0,0,2.78,5.78,11,11,0,0,0,4.42,4.09l4,1.81a23.44,23.44,0,0,0,7.14,1A26.34,26.34,0,0,0,221,69.9c10-1.89,18.79-6.63,27.82-11a161.82,161.82,0,0,1,18.42-7.12c6.71-2.27,13.27-4.67,19.78-7.47a2.32,2.32,0,0,0-1.22-.9c-1.16-.61-2.34-1.19-3.54-1.75q-2.2-1.08-4.46-2.1a20.15,20.15,0,0,0-3.16-1.29q-9.54-1.35-18.95-3.41a50.12,50.12,0,0,0-16-.71,12.42,12.42,0,0,1-10.64-1.35,37.37,37.37,0,0,1-7.12-4.3l.29.2c-4.15-3.29-8.53-6.24-12.52-9.73-3.4-3-6.59-6.17-9.79-9.34-.33-.33-.22-.24-.33.12l.21,1c.34,1.13.71,2.26,1.1,3.39.59,1.73,1.18,3.46,1.83,5.18a5.51,5.51,0,0,0,1.09,2.14,98.69,98.69,0,0,0,14.4,10.29l-.31-.19A24.21,24.21,0,0,1,224,36.28,23.73,23.73,0,0,1,229.32,42l.26.23,8.95-6.25L232,39.27,245.91,36l-4.28-.43a205.13,205.13,0,0,1,22.42,4q11.22,2.65,22.56,4.76l-12.38-6c-5.31,2.1-10.61,4-16,5.79s-10.67,3.2-15.93,5c-3.68,1.26-7.31,2.7-10.95,4.07a60.08,60.08,0,0,1-11.44,3.4l-4.9.56-2.87-.45a16.53,16.53,0,0,1-7.29-2.73c-4.49-3.12-6.27-8.63-8.12-13.53l-1.22,12.46A21.93,21.93,0,0,0,198.14,38a4.11,4.11,0,0,0-1.07-2.66,2.16,2.16,0,0,0-1.24-.73q-2.47-.95-5-1.78t-5-1.63a2.08,2.08,0,0,0-1.42-.17,27.14,27.14,0,0,0-4.06,2A52.5,52.5,0,0,0,175,36.14c-3.29,2.31-6.25,5.06-10,6.65l-1.72.69-2,.45L159.7,45.4l-1.81,1.08-2.13,2.16q-2,3.06-2.87.54c-2.19-3.51-1.74-7.44-2.12-11.62a2.45,2.45,0,0,0-1.24-.89q-2.52-1.24-5.09-2.4c-1.71-.79-3.42-1.54-5.16-2.26a2.31,2.31,0,0,0-1.48-.34C132,32.8,127.31,36,122.21,38.87c-.95.55-1.92,1.08-2.89,1.6a9,9,0,0,1-3.06,1.18c-3.44,1.39-6.66,3.51-10,5.07s-7,3.26-10.75,3.86c-2.46.4-5.54.8-7.8-.54a17.12,17.12,0,0,0-3.09-2.19l-1.43-1.47c-.77-1.26-1.56-2.51-2.35-3.75A24.05,24.05,0,0,1,79,38.4l-1.34,13a24.44,24.44,0,0,0,3.74-16.53,2.34,2.34,0,0,0-1.14-1c-1.58-1-3.18-1.9-4.79-2.81s-3.24-1.81-4.88-2.67a2.37,2.37,0,0,0-1.43-.46,15.75,15.75,0,0,0-6.26,1.68c-1.73.9-3.48,1.72-5.17,2.69C53,35,48.41,37.86,43.91,40.94c-5.1,3.49-10,7.45-15.39,10.49l-3.44,1.86-1.32,2c-1.44,1.63-4.43,1.72-5.22-.54-.43-1.23,0-2.31.18-3.56a38.66,38.66,0,0,1,.92-4.75,52.06,52.06,0,0,1,3.82-9.54,34,34,0,0,1,7.91-9.81,30.08,30.08,0,0,1,16.56-7,2.09,2.09,0,0,0-1-1c-1.43-1-2.87-2-4.34-3s-2.93-2-4.42-2.87A2.07,2.07,0,0,0,36.85,12.61Z"/>
    <path class="cls-1" d="M36.74,10.91l-3.49.86a22.25,22.25,0,0,0-5.32,2.6,36.86,36.86,0,0,0-6.72,5.21c-4.26,4.16-8,9.23-9.59,15a113.42,113.42,0,0,0-3,13.5c-.54,3.64-1.17,8,.05,11.56,1.18,3.38,3.81,7.36,7.78,7.78a17.25,17.25,0,0,0,7.17-1.16,49.75,49.75,0,0,0,11.1-6C47.89,51.42,59,39.41,73.44,32.45l-.37.14,2.47-.9-.37.14a7,7,0,0,1,3.44-.36L67.24,29,80,33,69.5,28.31,80.08,39.18l-6.35-8.79L76.64,37,74.5,31.69l3.43,12-2-8.83L77.54,46l-.44-7.2q.21,5.23.43,10.47A11.55,11.55,0,0,0,78.34,54a10.24,10.24,0,0,0,3.17,4.38A18.4,18.4,0,0,0,90.83,62c5.16.56,10-1,14.71-3,8.65-3.64,15.85-9.54,23.77-14.41,5-3,10-6.32,15.48-8.42l-.38.11a9.85,9.85,0,0,1,6-.29l-9.14-2.84,9.47,3.38-9.5-4.29,10.56,5.62L142,31.63l7.73,16.76L149,37.17l-2.14,17.2,0,2.29a8.9,8.9,0,0,0,.94,2.74l1.94,2.34,5.91-2.25A70.33,70.33,0,0,0,167.58,53c2.48-1.67,5.07-3.2,7.41-5.06,1.78-1.42,3.49-2.92,5.21-4.4,3.86-3.31,7.37-6.77,11.7-9.48l-.35.18,3.85-.93L183,32l13.57,3.28-10.41-3.95,10.47,7.59-7.75-6.66,6.89,13.37-3.24-9.88,2.61,11.09-1.39-9.17q.63,8.49,1.35,17a3.45,3.45,0,0,0,.17,1.24,17,17,0,0,0,3.88,7c2.7,3,7.67,4.82,11.55,5.26a39.21,39.21,0,0,0,13.18-.83c9.7-2.21,18.31-7,27.31-11,5.19-2.34,10.6-4.13,16-6,6.71-2.28,13.28-4.67,19.8-7.46a2.12,2.12,0,0,0-1.23-.74c-1.16-.46-2.33-.88-3.5-1.29-1.47-.52-2.94-1-4.42-1.52a18.67,18.67,0,0,0-3.11-.88q-9.59-1.12-19.2-1.53a39.59,39.59,0,0,1-14.69-1.61,29.85,29.85,0,0,1-10-3.89c-2.83-1.66-5.69-3.29-8.58-4.86l.32.21L218.52,24l.32.22-3.7-2.58.32.23-3.38-2.67.31.25-3.06-2.65.3.27-2.88-2.7.3.29q-3.74-3.69-7.43-7.4a2.49,2.49,0,0,0,.16,1.56c.48,1.88,1,3.75,1.57,5.61s1.12,3.72,1.73,5.56a2.56,2.56,0,0,0,.72,1.4,87.35,87.35,0,0,0,12.65,9.32c2.24,1.38,4.5,2.67,6.84,3.86,3.2,1.63,6.27,3.48,9.47,5.13l-.32-.19a71.23,71.23,0,0,0,5.31,5.94,18.2,18.2,0,0,1,3.72-3.56l-1.93,1.55,14.91-6-8.3,1.48L264,38.72l-4.72-.59Q273,40.35,286.6,42.82l-12.26-4.43c-5.32,2.1-10.63,4-16.07,5.81s-10.72,3.26-16,5c-3.71,1.24-7.36,2.67-11,4a60.43,60.43,0,0,1-11.41,3.3l-4.87.52-2.87-.52a10.15,10.15,0,0,1-4.59-1.27,8.44,8.44,0,0,1-2.64-1.5c-4.42-3.09-6.25-8.54-8.17-13.35l-1,10.47c.69-4.51,1.54-9,2.58-13.44a5.36,5.36,0,0,0-1.12-3.56,2,2,0,0,0-1.26-.58q-2.47-.64-5-1.18c-1.66-.37-3.34-.71-5-1a2.07,2.07,0,0,0-1.39,0,41,41,0,0,0-5.94,2.94,56.11,56.11,0,0,0-7,5l-2.41,1.89c-1,.56-2.07,1.09-3.13,1.56a12.25,12.25,0,0,1-1.91.8,6.57,6.57,0,0,1-3,.57l-1.53,1.33a5.74,5.74,0,0,0-2.75,2.07A11.86,11.86,0,0,1,153.56,50l-1.29-2.08c-1.7-3.64-.65-7.08-.19-11,.1-.83-5.65-3-5.85-3q-2.37-1.1-4.78-2.07a2,2,0,0,0-1.38-.3,34.36,34.36,0,0,0-4.3.68A31.28,31.28,0,0,0,129,35.06c-2.92,1.57-5.69,3.4-8.58,5a12.8,12.8,0,0,1-4,1.74q-2.07,1.06-4.13,2.14a92.14,92.14,0,0,1-10.68,4.94,25.49,25.49,0,0,1-10.36,2A7.1,7.1,0,0,1,87.68,50a17.1,17.1,0,0,0-3.1-2.24,9.73,9.73,0,0,1-2.53-3.26,20.21,20.21,0,0,1-2.42-4.3l-1,8.78,1.74-9.61a15.64,15.64,0,0,0,.91-3.43,3.79,3.79,0,0,0,.13-1.83,2,2,0,0,0-1-2.05,2.11,2.11,0,0,0-1.24-.71q-2.49-.87-5-1.65t-5.05-1.5A2.15,2.15,0,0,0,67.67,28,31.64,31.64,0,0,0,60,31.22a128.07,128.07,0,0,0-13.18,8.12c-4.56,3.1-9,6.44-13.63,9.39a34.91,34.91,0,0,1-6.53,3.46,2.46,2.46,0,0,0-2.27,1.73c-.66,1.09-1.6,2.39-3,2.42a3.73,3.73,0,0,1-2.44-1.24,4.44,4.44,0,0,1-.18-3.23c.32-1.49.44-3,.82-4.5a56.24,56.24,0,0,1,3.67-9.62,33,33,0,0,1,8.25-10.58,26.8,26.8,0,0,1,7.09-4.64,34.78,34.78,0,0,1,9.25-2.37,2.43,2.43,0,0,0-1-1.2c-1.42-1.27-2.87-2.51-4.33-3.72s-2.94-2.42-4.44-3.59A2.39,2.39,0,0,0,36.74,10.91Z"/>
    <path class="cls-1" d="M35.31,12.3c-3.18.77-4.09.81-7,2.35-1.28.66-2.64,1.48-3.85,2.27a39,39,0,0,0-9.69,9.35,32.76,32.76,0,0,0-5,9.18A95.67,95.67,0,0,0,6.46,49.52C5.74,54.19,5,59.81,6.77,64.34a11.86,11.86,0,0,0,3.76,5.28,10.48,10.48,0,0,0,8.15,1.94c3.81-.44,7.46-2.07,10.87-3.7,5.85-2.8,10.83-7.08,15.79-11.2,6-5,11.65-10.49,18.16-14.86,1.78-1.19,3.57-2.37,5.39-3.52,3.36-2.11,6.84-4.33,10.93-4l-3.13-1,4,1.59-5-2.6,4.93,3.21-4-3.08,2.16,2.38-1.06-1.32A51.18,51.18,0,0,1,77,53.23a12.12,12.12,0,0,0,.43,5.32A9.93,9.93,0,0,0,78.68,61c2.54,3.56,7.57,5,11.68,5.4,5.58.5,10.72-1.13,15.73-3.35a89.83,89.83,0,0,0,14.42-8.46c3.69-2.56,7.25-5.35,11.09-7.69,2.51-1.52,5-3.17,7.48-4.65,4-2.33,7.66-4.34,12.37-3.23l-4.65-2.3,5.48,3-4.76-3.3,5.76,4.82-4.29-4,4.78,8.39-2.65-6.12-1.36,9q-1.48,3.62-2.9,7.26c-.8,2-1.08,2.35-1.17,4.18a7,7,0,0,0,.85,3.76l1.91,2.32a67,67,0,0,0,9.19-3.48,77.44,77.44,0,0,0,19.67-12.1c1.95-1.69,3.83-3.48,5.7-5.26a41.41,41.41,0,0,1,6.24-5.59,9.14,9.14,0,0,1,7.47-3.78l-5.53-1.28,6.38,2.06-4.85-2,3.35,2.15-2.58-1.88a22.54,22.54,0,0,1,2,15.3l.32-4.64c-.41,3.85-1.3,8.5-1.52,12.66A11,11,0,0,0,195.79,64c4.4,7.82,14.31,9.25,22.42,8.43,11.43-1.16,21.29-6.76,31.44-11.66a172.57,172.57,0,0,1,18.5-7.38c6.7-2.31,13.27-4.73,19.78-7.56a15.54,15.54,0,0,0-2.32-1.59,13.92,13.92,0,0,0-3.91-1.77l-7.95-1.25A122,122,0,0,1,258,38.84a69.33,69.33,0,0,1-12-2.53q-5.16-1.35-10.22-3.07l-5.44-2-24.37-16c-2.37-2.19-4.59-4.62-6.86-6.92-.65-.65.1,1.72,0,1.39.36,1,.75,2.63,1.57,3.42,7.93,7.7,16.43,14.58,26.79,18.72a125,125,0,0,0,16,5.08c6.2,1.57,12.47,2.7,18.76,3.78,8.54,1.47,17,3.38,25.48,5.16l-6.22-3.36c-5.37,2.23-10.73,4.27-16.23,6.14s-11,3.62-16.31,5.77c-8.52,3.42-16.72,8-25.82,9.81l-6.07,1-3.86-.3a22.41,22.41,0,0,1-9.49-2.85,11.75,11.75,0,0,1-4-3.31l-2.9-6.35a40.25,40.25,0,0,1-.34-4.67l-.89,6c1.2-4,2.75-8.09,3.57-12.23a7.13,7.13,0,0,0-.85-5.08c-.27-.53-2.56-1.26-2.83-1.37-.79-.32-2.13-1.15-3-1A16.53,16.53,0,0,0,187,35.56a18.66,18.66,0,0,0-3.43,2.65c-3.95,3.5-7.5,7.39-11.76,10.54s-9,5-13.66,6.89l-3.58,1.53q-4,2.92-4.61-.91a3.55,3.55,0,0,1-.74-2.83,6.53,6.53,0,0,1,.37-2.55l-2.55,6c1.54-2.19,3.32-4.07,4.93-6.2a13.15,13.15,0,0,0,2.44-4.35,7.34,7.34,0,0,0-2.22-7.42c-2.06-1.58-4-3.19-6.65-3.5-3-.35-6.15,1.09-8.73,2.44-2.32,1.21-4.52,2.62-6.72,4-2,1.27-4,2.28-6,3.48-5.66,3.3-11,7.07-16.93,9.88a38.25,38.25,0,0,1-12,3.71,15.8,15.8,0,0,1-5.53-.26,6.27,6.27,0,0,1-3.75-1.35c-2.7-1.44-5.16-2.9-6.21-6.12a21.47,21.47,0,0,1-.82-6.07l-.88,6.22c1.28-3.67,3.35-7.18,4.24-11a13,13,0,0,0,.41-2.55c.08-3.29-3.06-4.46-5.57-5.66-3.68-1.76-7.64.55-10.8,2.46A169,169,0,0,0,46.32,49.23C40.61,53.91,35,58.62,28.37,61.93c-3.57,1.79-8.07,3.47-12,1.89-4.75-1.89-4.62-7.87-4.2-12.16A57.25,57.25,0,0,1,16.24,35.1a33.29,33.29,0,0,1,5.28-8.43,39.42,39.42,0,0,1,5.88-5.6,24.18,24.18,0,0,1,12.94-5.41c.89-.15-1.13-1.29-1.06-1.24q-1.24-.78-2.55-1.5A4.3,4.3,0,0,0,35.31,12.3Z"/>
    <path class="cls-1" d="M35.2,8.28c-3.62,1-3.48.79-6.84,2.57a38.13,38.13,0,0,0-5.7,3.74C16.42,19.4,11,26.23,8.84,33.91A95.8,95.8,0,0,0,5.69,50.28c-.48,5-.49,10.55,2.63,14.81a12.92,12.92,0,0,0,7.6,5.29,18,18,0,0,0,4.21,0c5-.63,10.09-3,14.25-5.72,9.37-6,17.18-14.14,25.76-21.15a124.59,124.59,0,0,1,10.25-7.4c3.07-2,6.21-4.11,10-4.51l-2.34-.13,3.42.36-2.24-.35,3,3.16a11.32,11.32,0,0,1-.57,3.84,64.55,64.55,0,0,1-2.23,6.35c-.88,2.33-2,4.83-2.07,7.35-.17,3.63.9,7,4,9.17a21.27,21.27,0,0,0,8.73,3.26c7.15,1.16,14.59-1.37,20.82-4.75A149.24,149.24,0,0,0,128.2,48.28c3.59-2.66,7.3-5.08,11.07-7.48,1.41-.9,2.83-1.76,4.3-2.54a13.79,13.79,0,0,1,4.22-1.65,7.1,7.1,0,0,1,5.25-.26l-2.15-.74q6.5,7.32,1.11,12.3a22,22,0,0,0-3.59,4.18,19.69,19.69,0,0,0-2.35,4.11,4.46,4.46,0,0,0-.32,1.06c-.5,2.92,1.55,5.22,3.28,7.21a.33.33,0,0,0,.33.12,58.22,58.22,0,0,0,10.26-3.72A43.68,43.68,0,0,0,168,56.51a78.52,78.52,0,0,0,12.18-8.9c2.79-2.6,5.35-5.43,8.09-8.08s5.29-5.12,8.87-6.57H194.2l4.43,2.5.8,1.89a13.91,13.91,0,0,1-.64,3.46A18.32,18.32,0,0,1,198,43.3c-.47,1.3-1.06,2.58-1.5,3.89s-.7,2.91-1,4.33a31.11,31.11,0,0,0-.79,6.16c0,1.45.09,1.09.88,2.88a14.81,14.81,0,0,0,6.83,7.54c11.35,5.94,25.14,2.15,36.12-2.85,6.26-2.84,12.22-6.32,18.49-9.15,5.44-2.45,11.16-4.32,16.79-6.26s11-4.09,16.41-6.48c.8-.35-2.21-1.2-2.19-1.19-12.84-2.7-25.83-4.84-38.49-8.36-9.57-2.66-19.46-6-28.14-11C213,18,206.57,11.18,199.89,4.34c-.61-.63-.11,1.57-.17,1.32.22.92.44,2.65,1.16,3.36,7,6.84,14.36,13.07,23.31,17.17a129.12,129.12,0,0,0,21.46,7.36c5.53,1.44,11.1,2.78,16.66,4.1,9,2.14,18.06,3.73,27.06,5.65l-2.19-1.19c-6.36,2.78-12.79,5.17-19.33,7.48A147.43,147.43,0,0,0,250.08,57q-5,2.73-10.22,5.12a60.18,60.18,0,0,1-11.36,4.77l-6.09,1.54a37.57,37.57,0,0,1-10.64.37l-12.08-5.05a12,12,0,0,1-3.6-10.78,31.43,31.43,0,0,1,2-5.65,58.92,58.92,0,0,0,3.19-7.66,5.24,5.24,0,0,0,.22-3.63c-.65-2.78-2.38-3.52-5-3.68a8.74,8.74,0,0,0-2.34.07c-1.44.33-3.32,1.82-4.34,2.64-5,4-8.69,9.52-13.59,13.7a76.62,76.62,0,0,1-11.51,8,37.54,37.54,0,0,1-8.54,4q-9.17,3.72-9.44-4.51l-.32,1.06c1.79-3.56,3.81-5,6.45-7.75L155,47.21a4.66,4.66,0,0,0,1.68-3.94c.24-2.63-.37-5.88-2.86-7.37a10.19,10.19,0,0,0-4.47-1c-3.33-.14-6.49,1.2-9.36,2.75-11.49,6.23-20.79,15.93-32.63,21.51a38.5,38.5,0,0,1-11,3.48q-14.2,2.58-17.09-7.06A6.09,6.09,0,0,1,78.77,50c1.42-4.47,4.42-8.26,5.66-12.82.49-1.82.88-3.81-.81-5.14-1.31-1-3-1.14-4.61-1.26a11.46,11.46,0,0,0-6.68,1.67A83.61,83.61,0,0,0,58,42.6l-5.65,5A145.12,145.12,0,0,1,40,58a38.74,38.74,0,0,1-11.5,7.9l-4.48,1.81C15.7,70.31,12.2,67,9.29,61.61c-1.37-2.54-1.52-4.89-1.43-7.74a68.33,68.33,0,0,1,3-16.94,30.2,30.2,0,0,1,4.05-9.06c5.41-8,12.79-14.17,22.78-16.78C38.45,10.9,35.81,8.11,35.2,8.28Z"/>
    <path class="cls-1" d="M36.38,13.19,33,14.05a25,25,0,0,0-5.27,2.57,36.78,36.78,0,0,0-8.49,6.72,45.25,45.25,0,0,0-5.51,7.19,31.85,31.85,0,0,0-3.29,7.77A97,97,0,0,0,7.52,51c-.62,4.15-1.24,9.16.36,13.18a14.6,14.6,0,0,0,2.52,4.29,7.3,7.3,0,0,0,3.76,2.34,4.49,4.49,0,0,0,3.4.52,25.07,25.07,0,0,0,9.91-2.86,73.45,73.45,0,0,0,11.26-6.75c5.45-3.87,10.38-8.66,15.53-12.94a118.56,118.56,0,0,1,11.22-8.34,52.23,52.23,0,0,1,11-5.89l-.32.09a6.84,6.84,0,0,1,3.53-.29l-2.53-.85,3.11,1.24-7.86-4.07L81.26,36l-8.14-5.59,8.2,9.3-5.49-7.45,1.81,4-1-2.37,1.69,12-.65-6.74.21,11,.14-6.82a120.68,120.68,0,0,0-.45,12.61,12.11,12.11,0,0,0,.65,2.67,11.18,11.18,0,0,0,5.63,5.76c8.73,4.37,18.84.79,26.75-3.64,7.74-4.34,14.61-9.94,22.18-14.52,4.85-2.93,9.41-6.2,15-7.49l-.34.06a7.22,7.22,0,0,1,3.88.35l-4.9-2.38,5.5,2.92L143.79,34,154.2,46.22l-5.45-9.68,2.81,13.05-1.23-9.4-.25,9.56.48-7.82-3.84,15.7a5.22,5.22,0,0,0-.24,2,4.69,4.69,0,0,0,.44,2.69,6.39,6.39,0,0,0,2.34,3.58l6.26-2.35a78.35,78.35,0,0,0,12.6-6.84,81.71,81.71,0,0,0,7.78-5.4c2.32-1.94,4.62-4,6.82-6,1.76-1.65,3.41-3.41,5.21-5a12.94,12.94,0,0,1,4.59-3.11A5.26,5.26,0,0,1,196.45,36l-8.81-2.32,10.3,4.42-8-5,6.86,5.8-5.77-5.23,5.76,7.09-4.51-5.94,3.94,13.78L194.85,40l.9,10.89-.35-8.79c0,5.78-.3,10.52-.48,15.89a9.42,9.42,0,0,0,1.58,5.87c4.69,7.74,13.8,9.3,22.21,8.45,11.26-1.14,21-6.79,31-11.58a168.49,168.49,0,0,1,18.47-7.26c6.7-2.3,13.27-4.71,19.77-7.53a1.63,1.63,0,0,0-.92-.82c-.91-.53-1.84-1.05-2.78-1.54-1.17-.63-2.35-1.25-3.53-1.84a13.3,13.3,0,0,0-2.53-1.13L269.81,39l-8-1.73-6.81-1h-4.55a61.46,61.46,0,0,1-25.9-6.93,68.09,68.09,0,0,1-13.64-9c-3.82-3.26-7.35-6.86-10.9-10.4-.8-.79.29,2.39.14,1.95.4,1.14.81,2.28,1.26,3.4a6.21,6.21,0,0,0,.82,1.7,85.11,85.11,0,0,0,26.26,17.31,67.52,67.52,0,0,0,10.06,3,7.5,7.5,0,0,0,5,.41,22,22,0,0,1,4.21-.28,11.74,11.74,0,0,1,5.43.71q4,.84,7.89,1.8c8.85,2.08,17.67,4.15,26.55,6.08l-9.76-5.33c-9.55,3.86-19.32,7-29.08,10.29-7.44,2.5-14.46,6.17-22,8.36l-5.38,1.43-5.54.81a30.17,30.17,0,0,1-7-1.06,15.42,15.42,0,0,1-7.08-4.22c-2.17-2.32-3.06-4.78-4.09-7.79l.1.34c-.43-1.85-.76-3.65-1.32-5.48l-.66,10.66,3.08-11.14a5.66,5.66,0,0,0,.31-3.27,5.09,5.09,0,0,0-1-2.75,1.39,1.39,0,0,0-.91-.7q-1.89-.9-3.84-1.68c-1.15-.48-3.63-2-5-1.69-7.34,1.54-11.91,8.06-17.79,12.11a34.56,34.56,0,0,1-4.47,2.81l-2.8,1-2.73,1.59-2.9,1.22a12.17,12.17,0,0,1-4.12,2.38c-1,1-1.7.85-2-.38a5.93,5.93,0,0,1-1-3l.06.34c0-1.44,0-2.87-.1-4.31l-2.92,9.91a17.17,17.17,0,0,1,2.69-3.7,37.29,37.29,0,0,0,3.18-4.14c1.39-2.44,1.21-4.35.63-6.9a1.62,1.62,0,0,0-.71-1q-1.65-1.56-3.38-3.05t-3.48-2.93a1.58,1.58,0,0,0-1.1-.56c-3.14-.41-5.09-.64-8.12.44A39.4,39.4,0,0,0,130.53,38c-2.18,1.3-4.32,2.67-6.5,4a12.39,12.39,0,0,1-4,1.88q-2.15,1.22-4.27,2.45a96.63,96.63,0,0,1-11.54,6,34,34,0,0,1-10.62,2.94,14.4,14.4,0,0,1-6-.75l-1.53-1.08a10.08,10.08,0,0,1-3.52-2.65,17.2,17.2,0,0,1-2.15-3.68l.11.33c-.72-2.23-1.15-4.49-1.83-6.73L78.37,51c1.14-3.1,2.4-6.17,3.44-9.31a11.46,11.46,0,0,0,.61-5.29,1.59,1.59,0,0,0-.82-.91c-1.21-.89-2.44-1.74-3.69-2.57s-2.5-1.65-3.78-2.43A1.59,1.59,0,0,0,73,30.06c-2.53,0-2.34-.24-4.08.33A31.58,31.58,0,0,0,64,32.58c-3.55,1.84-6.91,4.17-10.26,6.34-5.91,3.81-11.18,8.57-16.86,12.71l-5.7,4-5.31,2.76c-1.83,1.1-4,3-6.42,2.38a6.78,6.78,0,0,1-3.21-1.6c-2-2.09-1.31-5.88-1-8.46a55.54,55.54,0,0,1,2.86-11.19,33.54,33.54,0,0,1,6.12-10.9A31.52,31.52,0,0,1,43.8,17.5a1.06,1.06,0,0,0-.63-.71c-.94-.62-1.91-1.21-2.89-1.77C39.54,14.59,37.43,12.93,36.38,13.19Z"/>
    <path class="cls-1" d="M36.61,11.74l-3.5.85a22.4,22.4,0,0,0-5.33,2.57,36.28,36.28,0,0,0-8.36,6.7A43.64,43.64,0,0,0,14.05,29a29.89,29.89,0,0,0-3.12,7.64A112.83,112.83,0,0,0,8.16,48.92c-.63,4-1.29,8.9.42,12.75a15.07,15.07,0,0,0,2.49,4,7.3,7.3,0,0,0,3.57,2.21,3.91,3.91,0,0,0,3.23.46,24.24,24.24,0,0,0,9.41-2.91,74.26,74.26,0,0,0,10.47-6.55c5.3-3.82,10.19-8.27,15.27-12.39a128.81,128.81,0,0,1,11.21-8.21,54,54,0,0,1,11-5.87l-.37.11,4.9.24-11-4,11,4.9L69.38,28.25,80,40l-6.23-9.63,4,9.75-3.13-8.44,2.92,16.21-.39-8.75q-.12,6.81.31,13.59c.24.9.48,1.79.73,2.69a11.77,11.77,0,0,0,5.6,5.67c8.4,4.32,18.13,1,25.86-3.21s14.53-9.56,22-14c4.85-2.87,9.44-6.07,15-7.42l-.39.08a7.53,7.53,0,0,1,3.88.25L138.05,32l15.07,9.17-9.45-9,5.88,17.18-.48-12.07-2.53,18.08v2.3a8.57,8.57,0,0,0,.94,2.77l1.94,2.36,6-2.35a69.22,69.22,0,0,0,12-6.7c2.48-1.69,5.05-3.27,7.37-5.17,1.75-1.43,3.43-2.94,5.13-4.42,3.8-3.31,7.29-6.74,11.6-9.42l-.35.16a7.69,7.69,0,0,1,3.89-.94l-12.26-2,14.84,6.24-10.68-7,8.65,15.31-3-10.69L195,50.73l-.14-3.07c0,1.94-.47,6.48.14,9.22l1.51,3.77,2.37,3.2c2.73,3.06,7.76,4.82,11.67,5.23a39.21,39.21,0,0,0,13.26-1c9.68-2.28,18.26-7.13,27.25-11.2,5.18-2.35,10.58-4.14,16-6,6.7-2.28,13.27-4.67,19.78-7.46a2.13,2.13,0,0,0-1.2-.82c-1.15-.53-2.32-1-3.49-1.52-1.45-.62-2.92-1.22-4.39-1.8a18.76,18.76,0,0,0-3.11-1.08Q264.8,37,255,35.66a38,38,0,0,1-14.83-.31,15.77,15.77,0,0,1-10-3.13q-3.93-2.52-8-4.82l.32.19A122.78,122.78,0,0,1,209.53,18c-3.48-3.08-6.74-6.41-10-9.69a2.21,2.21,0,0,0,.18,1.47c.51,1.75,1.05,3.48,1.63,5.21s1.16,3.45,1.79,5.16a2.24,2.24,0,0,0,.74,1.28,101.5,101.5,0,0,0,21.41,14.15l-.33-.18a79.21,79.21,0,0,0,6.94,4.86l-5.21-9.21,6.91,14.79c.08.42.2.43.35,0l4-6.45-2.41,3.49,10.42-6.45-8.66,3,17-2.09-6.67-.67q19.51,3,38.89,6.79L274.21,38.3c-5.32,2.1-10.63,4-16.06,5.8s-10.69,3.21-16,5c-3.69,1.24-7.33,2.66-11,4a60.11,60.11,0,0,1-11.39,3.33l-4.87.54-2.86-.47a16.64,16.64,0,0,1-7.24-2.74c-4.51-3.13-6.31-8.7-8.23-13.6l-1.17,11.66q1.23-6.82,2.63-13.62a5.39,5.39,0,0,0-1.2-3.62,2.06,2.06,0,0,0-1.23-.65c-1.63-.53-3.28-1-4.93-1.47s-3.31-.92-5-1.33a2.05,2.05,0,0,0-1.4-.08,26.88,26.88,0,0,0-4,2A59.73,59.73,0,0,0,175,36.22c-3.32,2.32-6.27,5-10.07,6.55l-1.75.65-2,.34-1.56,1.43-1.73,1-2.12,2.21c-1.34,2.09-2.3,2.28-2.88.59a12.69,12.69,0,0,1-1.68-5.43l0,.38.62-6.35a2.17,2.17,0,0,0-1.12-.92c-1.54-.87-3.1-1.72-4.68-2.53s-3.15-1.62-4.76-2.39a2.12,2.12,0,0,0-1.39-.38,27.45,27.45,0,0,0-8.79,2.42c-2.37,1.13-4.53,2.53-6.78,3.86a38.55,38.55,0,0,1-7,3.65c-3.36,1.11-6.44,3.18-9.62,4.7a65.78,65.78,0,0,1-9.34,3.71c-3,.89-7.82,2.12-10.71.16l-1.27-1a9.35,9.35,0,0,1-3.24-2.65A29.16,29.16,0,0,1,79,38.16l-1.3,12.15c1.11-4.16,4.06-11,3.55-16.31a2.13,2.13,0,0,0-1.13-.91q-2.34-1.28-4.73-2.46T70.54,28.3a2.18,2.18,0,0,0-1.39-.37c-2.54.3-3.09.15-5.22,1.17-1.37.65-2.72,1.37-4.07,2.06-2.16,1.1-4.23,2.46-6.31,3.69-2.33,1.38-4.62,2.79-6.87,4.31-4.53,3.05-8.92,6.32-13.5,9.3a51.48,51.48,0,0,1-6.45,3.7A2.85,2.85,0,0,0,24.44,54c-.69,1.1-1.66,2.39-3.12,2.4a3.77,3.77,0,0,1-2.45-1.27,4.47,4.47,0,0,1-.17-3.24c.33-1.5.44-3,.82-4.52a54.66,54.66,0,0,1,3.68-9.65,32.64,32.64,0,0,1,8.29-10.58,29.9,29.9,0,0,1,16.45-7,2.29,2.29,0,0,0-1-1.12q-2.18-1.73-4.43-3.38c-1.49-1.11-3-2.2-4.53-3.25A2.27,2.27,0,0,0,36.61,11.74Z"/>
    <path class="cls-1" d="M36.63,12.36l-3.4.86A25.53,25.53,0,0,0,28,15.81a36.44,36.44,0,0,0-8.46,6.74A44.62,44.62,0,0,0,14,29.74a31.56,31.56,0,0,0-3.24,7.75A101.64,101.64,0,0,0,7.94,50.13c-.61,4.14-1.23,9.13.38,13.14a14.86,14.86,0,0,0,2.5,4.24,7.36,7.36,0,0,0,3.72,2.34,4.49,4.49,0,0,0,3.34.56c7.83-.12,15.14-4.94,21.26-9.36,5.46-3.94,10.44-8.66,15.62-13A120.71,120.71,0,0,1,66,39.72c1.5-1,3-1.95,4.52-2.87a15.65,15.65,0,0,1,5.1-2.29,5.94,5.94,0,0,1,4.55-.92l-8.75-2.92,10.33,4.57L74.47,31l6.24,5L75.28,31.2l2.49,3.16-1.36-1.91,1.9,16.91,0-5.91A114.53,114.53,0,0,0,78,55a6.88,6.88,0,0,0,.59,2.47A9.79,9.79,0,0,0,83,62.55c8.1,5.11,18,2.48,26-1.46S123.5,51.66,130.79,47c4.9-3.16,10-6.46,15.45-8.54l-.32.09a9.58,9.58,0,0,1,6-.16l-7.11-3.08,7.7,3.7-7.35-4.36,8.38,5.83-7.27-5.84,7.84,10.14-4.73-7.95,2.45,6.4-1.48-4.49.61,4.21-.2-2.32-.2,6.38.32-4.57c-1,5.12-3,10.07-3.87,15.22a5.5,5.5,0,0,0,.39,3.77,4,4,0,0,0,1.35,2.38c.85,1.82,2.19,1.84,4,.05a75,75,0,0,0,13.41-6.34,104.4,104.4,0,0,0,8.88-5.75c1.86-1.41,3.57-3,5.3-4.58,4.57-4.12,8.85-9.57,14.81-11.75l-8.9-.94,13,3.27-8.56-4.53,2.91,2.31-1.84-1.66,2.59,3.1-1.4-1.87,1.9,3.47-1-2,2.81,11.39-1.43-7.6.77,8.21-.31-6.08.08,9.81.24-6.13c-.21,3.48-.61,7.33-.66,10.94a8.93,8.93,0,0,0,1.46,5.49,15.59,15.59,0,0,0,5.69,6c3.94,2.4,9.33,3.27,13.86,3.07,12.36-.55,22.92-6.51,33.8-11.69a149.16,149.16,0,0,1,15.14-6.11q5-1.74,10-3.43a128.52,128.52,0,0,0,13.14-5.26,1.45,1.45,0,0,0-.91-.74c-.9-.46-1.81-.9-2.73-1.31-1.85-.85-3.89-2.14-5.92-2.46l-8.51-1.35L262.14,38c-4-.4-8.19-.1-12.21-.66l-6.75-1.69-5.93-1.72a92.78,92.78,0,0,1-12.5-5.4,69.26,69.26,0,0,1-13.58-9.09c-3.81-3.28-7.33-6.89-10.87-10.44-.8-.79.2,2.44.08,2,.36,1.2.74,2.4,1.14,3.58a6.9,6.9,0,0,0,.77,1.81,87.71,87.71,0,0,0,21.83,15.46,66.9,66.9,0,0,0,6.19,2.74q4.89,2,9.94,3.58c3.32.5,6.66.85,10,1a286,286,0,0,1,37.86,6l-9.56-4.51c-9.55,3.9-19.34,7.07-29.1,10.41-8.41,2.88-16.28,7-24.87,9.38-3.23.9-6.7,1.84-10.06,1.44-3-.36-6.13-.7-8.91-2.11a16.34,16.34,0,0,1-5-4.13c-2.33-2.78-2.93-6.45-3.44-9.86l-1.07,8.61c1-4.53,2.4-9,3.39-13.51a6.53,6.53,0,0,0-.77-4.87c-.5-1-2.62-1.29-3.57-1.63-1.12-.41-2.24-.79-3.36-1.16a10.48,10.48,0,0,0-2.38-.64,18.87,18.87,0,0,0-5.84,2.23c-3.76,2-6.45,5.53-9.68,8.2-1.57,1.3-3.23,2.53-4.91,3.67-2.08,1.43-4.39,2.08-6.57,3.31a19.76,19.76,0,0,1-4.55,2.09l-2.81,1.77L152,55a16.06,16.06,0,0,1-1.42-8l-2.52,8.52a18,18,0,0,1,2.68-3.74,44.38,44.38,0,0,0,3.13-4.1c1.94-3.35,1-5.09-.31-8.41-.45-1.15-2.38-1.84-3.37-2.44s-2.16-1.29-3.25-1.92a11.3,11.3,0,0,0-2.33-1.17,17.77,17.77,0,0,0-6.61.78,35.58,35.58,0,0,0-6.78,3.34c-2.78,1.65-5.42,3.71-8.31,5.15A17.2,17.2,0,0,0,118,45.49c-1.52.93-3.06,1.83-4.61,2.73a70.87,70.87,0,0,1-12.1,5.9c-3.9,1.37-7.86,2.26-12,1.37a4.76,4.76,0,0,1-3.18-1.41,10.53,10.53,0,0,1-3.62-2.68c-2.47-2.88-2.77-6.71-3.67-10.22l-.11,8.93c1.08-3.58,2.9-6.91,3.84-10.53.34-1.34.73-2.94.12-4.27-.93-2-3.74-2.76-5.55-3.57a19.51,19.51,0,0,0-4.71-1.89,9.09,9.09,0,0,0-3.81.78,37.32,37.32,0,0,0-6.05,3.06c-2.76,1.64-5.47,3.45-8.14,5.24-6.89,4.61-13,10.23-19.77,15.08a36.34,36.34,0,0,1-8.41,5,11.14,11.14,0,0,1-4.87,2.3,6.52,6.52,0,0,1-5.5-1.66c-1.47-1.55-1.47-3.56-1.42-5.58a37.6,37.6,0,0,1,1-7.69,45.77,45.77,0,0,1,6-15,34.11,34.11,0,0,1,9.33-9.56A31,31,0,0,1,43.45,17a1,1,0,0,0-.55-.73c-.86-.66-1.74-1.29-2.65-1.9C39.64,14,37.6,12.11,36.63,12.36Z"/>
    <path class="cls-1" d="M33.54,12.18c-5,2.21-1.17.36-6.09,3.39a66.87,66.87,0,0,0-7.59,5,35.06,35.06,0,0,0-4.71,5.19,33.75,33.75,0,0,0-4,5.87L9,35.92c-.42,1.34-.78,2.7-1.1,4.07A106.74,106.74,0,0,0,5.26,54.93c-.4,4.09-.62,8.73,1.19,12.56,1.73,3.66,4.89,7.27,9.21,7.74,6.43.7,13.18-2.51,18.48-5.79C41.33,65,47.42,58.67,53.86,53.27A172.19,172.19,0,0,1,69.16,41.5a51.55,51.55,0,0,1,5.6-3.4l2.13-1a6.37,6.37,0,0,1,5.17-.49l-1.59-.68L82.4,39,82,41.25c-.53,2.61-2,5-2.9,7.48a29,29,0,0,0-2,7.39,12.79,12.79,0,0,0,1.21,7.12c1.73,3.23,5.8,5.11,9.21,5.86,13.9,3.07,26.57-5.77,37.23-13.6,4.75-3.49,9.57-6.82,14.56-10,4.2-2.64,9.07-5.77,14.31-4.12l-1.91-1.33q4.68,7-.1,11.77a23.2,23.2,0,0,0-3.51,4.27,18.58,18.58,0,0,0-2.35,4.31,8,8,0,0,0-.39,1.66,15,15,0,0,0,.12,2.51,8.92,8.92,0,0,0,3.12,4.79.22.22,0,0,0,.34.09,82.29,82.29,0,0,0,13.42-5.08l5.26-3a75.38,75.38,0,0,0,13.7-10.46c2.68-2.61,5.25-5.33,8-7.89,2.34-2.18,5.63-5.9,9.3-5.17l-1.45-.58a6.31,6.31,0,0,1,2,4.52,15.66,15.66,0,0,1-1,4.4c-.54,1.64-1.41,3.23-1.89,4.88-.32,1.09-.54,2.22-.78,3.32a43.92,43.92,0,0,0-1.09,7,10.63,10.63,0,0,0,0,2.11,6.56,6.56,0,0,0,.81,2,11.39,11.39,0,0,0,3.26,4.94c8.28,7.37,20.9,6.34,30.77,3.32a89,89,0,0,0,11.94-4.88q4.09-2.06,8.17-4.18a70,70,0,0,1,8.48-3.91A71.59,71.59,0,0,1,267,57c2.23-.79,4.46-1.57,6.7-2.32,5.63-1.94,11-4.1,16.5-6.5.85-.37-1.52-1.89-2-2a329.41,329.41,0,0,1-39-8.11c-9-2.55-18.1-5.55-26.33-10a65.63,65.63,0,0,1-13.15-9.34c-3.72-3.43-7.12-7.18-10.7-10.75-.34-.35-.79.37-.42.74,3.14,3.1,6.13,6.37,9.33,9.41a67.1,67.1,0,0,0,14.53,10.56A117.16,117.16,0,0,0,245,37.51c14.78,4.39,29.86,7.54,45,10.67l-1.71-1.92c-4.33,1.89-8.65,3.68-13.08,5.29-5.54,2-11.12,3.8-16.6,6-6.51,2.57-12.55,6-18.93,8.92-7.23,3.26-15,6.18-23.07,6.19a29.1,29.1,0,0,1-12.07-2.3,9.13,9.13,0,0,1-4.74-3.48A9.1,9.1,0,0,1,195.44,58l-.24,1.84a53.17,53.17,0,0,1,3.2-8.94,32,32,0,0,0,2.86-7.63c.38-2.09-.07-4.69-2-5.89a8.69,8.69,0,0,0-2.43-.81c-2-.48-3.78.92-5.38,2.11a79.12,79.12,0,0,0-8.86,8.41,75.34,75.34,0,0,1-10.82,9.35,38.42,38.42,0,0,1-23.85,8,7.61,7.61,0,0,1-1.38-4.22L146,62.26a19,19,0,0,1,4.33-5.8,27.85,27.85,0,0,0,5-5.55,5.22,5.22,0,0,0,1.09-4.12l-.23-2.47a8.29,8.29,0,0,0-.92-2.14,7.13,7.13,0,0,0-4.1-2.78c-3.36-.72-6.61.58-9.56,2.11-10,5.21-18.45,12.9-28.22,18.48-6.81,3.89-14.05,6.89-22.06,6.29-3.16-.24-9.71-2.22-11.51-5a13.06,13.06,0,0,1-1.92-6.26l-.17,2.21a21.33,21.33,0,0,1,1.71-4.93q1.62-3,3.22-6.07c.89-1.86,2.61-5.28,2-7.55a5.34,5.34,0,0,0-3.26-3.19c-3-1.43-5.74-.16-8.49,1.3a73.59,73.59,0,0,0-7.5,4.89A151.66,151.66,0,0,0,52.43,52.09q-6.16,5.53-12.57,10.8L28.41,70.14c-4.25,2-10,3.8-14.42,1.28a14,14,0,0,1-5.22-5.76c-2-4-1.71-8.67-1.23-12.93.32-2.85.81-5.73,1.31-8.55.76-4.28,1.57-8.28,3.76-12.1A41.68,41.68,0,0,1,21,21.31a42.69,42.69,0,0,1,7.53-4.87A18.57,18.57,0,0,1,33.84,13C34.32,12.75,34,12,33.54,12.18Z"/>
  </g>
  <g>
    <path d="M10.42,57.7A6.06,6.06,0,0,1,7,56.82,5.49,5.49,0,0,1,5,54.4a10,10,0,0,1-.81-3.59L7.07,50a13.73,13.73,0,0,0,.39,2.42,4.41,4.41,0,0,0,1,1.92,2.55,2.55,0,0,0,1.95.74,2.54,2.54,0,0,0,1.94-.71A3,3,0,0,0,13,52.33a4.25,4.25,0,0,0-.72-2.59,13.77,13.77,0,0,0-1.84-2l-4-3.51A6.71,6.71,0,0,1,4.77,42a7.2,7.2,0,0,1-.56-3A5.34,5.34,0,0,1,5.7,35a5.57,5.57,0,0,1,4.05-1.43,7.68,7.68,0,0,1,2.46.36A4.39,4.39,0,0,1,14,35.06,5.5,5.5,0,0,1,15.12,37a10.19,10.19,0,0,1,.57,2.7l-2.79.76a12.11,12.11,0,0,0-.35-2.14,3.2,3.2,0,0,0-.92-1.58,2.69,2.69,0,0,0-1.88-.6,2.64,2.64,0,0,0-1.91.66,2.57,2.57,0,0,0-.68,1.94,3.89,3.89,0,0,0,.36,1.78A5.1,5.1,0,0,0,8.7,41.92l4,3.51a12.37,12.37,0,0,1,2.36,2.79,7.06,7.06,0,0,1,1,3.84,6,6,0,0,1-.73,3,5,5,0,0,1-2,1.94A6.15,6.15,0,0,1,10.42,57.7Z"/>
    <path d="M18.64,57.44V33.77h9.14v2.46H21.93v7.83h4.75v2.33H21.93v8.68h5.91v2.37Z"/>
    <path d="M37.16,57.44V33.77h5.13a9.06,9.06,0,0,1,4.15.8A4.63,4.63,0,0,1,48.63,37a10.57,10.57,0,0,1,.65,4V49.7a11.91,11.91,0,0,1-.65,4.23,5.1,5.1,0,0,1-2.13,2.62,7.6,7.6,0,0,1-4,.89Zm3.3-2.37h1.86a3.7,3.7,0,0,0,2.56-.7,3.14,3.14,0,0,0,.92-2A27.39,27.39,0,0,0,46,49.08V41.4a15.86,15.86,0,0,0-.23-3,2.54,2.54,0,0,0-1-1.67,4.56,4.56,0,0,0-2.48-.52H40.46Z"/>
    <path d="M58.55,57.7a6.92,6.92,0,0,1-3.82-.93,5.18,5.18,0,0,1-2-2.68A12.19,12.19,0,0,1,52.08,50v-9a11.46,11.46,0,0,1,.63-4,4.91,4.91,0,0,1,2-2.57,7,7,0,0,1,3.8-.89,6.91,6.91,0,0,1,3.78.9,5.11,5.11,0,0,1,2,2.57,11.37,11.37,0,0,1,.63,4v9a11.76,11.76,0,0,1-.63,4,5.28,5.28,0,0,1-2,2.67A6.57,6.57,0,0,1,58.55,57.7Zm0-2.6a3.12,3.12,0,0,0,2-.54,2.63,2.63,0,0,0,.9-1.52,9.7,9.7,0,0,0,.24-2.29V40.38a9.35,9.35,0,0,0-.24-2.27,2.48,2.48,0,0,0-.9-1.46,3.25,3.25,0,0,0-2-.51,3.32,3.32,0,0,0-2,.51,2.55,2.55,0,0,0-.92,1.46,9.92,9.92,0,0,0-.23,2.27V50.75A10.3,10.3,0,0,0,55.63,53a2.71,2.71,0,0,0,.92,1.52A3.18,3.18,0,0,0,58.55,55.1Z"/>
    <path d="M68.22,57.44V33.77h3.29V44.93l5.42-11.16H80L75.33,44.2l5.42,13.24H77.54L73,46.34l-1.52,2.74v8.36Z"/>
    <path d="M88.61,57.7a6.48,6.48,0,0,1-3.93-1,5.1,5.1,0,0,1-1.86-2.88,16.92,16.92,0,0,1-.5-4.34V33.77h3.15V49.61a18,18,0,0,0,.2,2.77,3.71,3.71,0,0,0,.89,2,3.27,3.27,0,0,0,4.12,0,3.78,3.78,0,0,0,.88-2,18,18,0,0,0,.2-2.77V33.77h3.12V49.46a16.92,16.92,0,0,1-.5,4.34,5.08,5.08,0,0,1-1.85,2.88A6.43,6.43,0,0,1,88.61,57.7Z"/>
    <path d="M98.29,57.44l.43-23.67H102L106.12,53l4.2-19.2h3.2L114,57.44h-2.65l-.26-17.18-4,17.18h-1.86l-4-17.18L101,57.44Z"/>
    <path d="M117.57,57.44V33.77h9.15v2.46h-5.86v7.83h4.75v2.33h-4.75v8.68h5.92v2.37Z"/>
    <path d="M129.43,57.44V33.77h2.24l6.7,15.72V33.77h2.74V57.44H139l-6.78-16.16V57.44Z"/>
    <path d="M147.4,57.44V36.23h-4V33.77h11.16v2.46H150.7V57.44Z"/>
    <path d="M155.5,57.44l5-23.67h3.18l5,23.67h-3.12l-1.08-6h-4.8l-1.14,6Zm4.66-8.33h3.94l-2-10.66Z"/>
    <path d="M172.78,57.44V36.23h-4V33.77H180v2.46h-3.88V57.44Z"/>
    <path d="M182.39,57.44V33.77h3.24V57.44Z"/>
    <path d="M195.47,57.7a6.89,6.89,0,0,1-3.81-.93,5.18,5.18,0,0,1-2-2.68A12.19,12.19,0,0,1,189,50v-9a11.48,11.48,0,0,1,.62-4,5,5,0,0,1,2-2.57,7,7,0,0,1,3.8-.89,6.92,6.92,0,0,1,3.79.9,5.17,5.17,0,0,1,2,2.57,11.61,11.61,0,0,1,.62,4v9a12,12,0,0,1-.62,4,5.34,5.34,0,0,1-2,2.67A6.58,6.58,0,0,1,195.47,57.7Zm0-2.6a3.08,3.08,0,0,0,2-.54,2.7,2.7,0,0,0,.91-1.52,10.3,10.3,0,0,0,.23-2.29V40.38a9.92,9.92,0,0,0-.23-2.27,2.54,2.54,0,0,0-.91-1.46,3.21,3.21,0,0,0-2-.51,3.28,3.28,0,0,0-2,.51,2.5,2.5,0,0,0-.92,1.46,9.39,9.39,0,0,0-.23,2.27V50.75a9.74,9.74,0,0,0,.23,2.29,2.66,2.66,0,0,0,.92,1.52A3.15,3.15,0,0,0,195.47,55.1Z"/>
    <path d="M205.14,57.44V33.77h2.25l6.7,15.72V33.77h2.74V57.44h-2.1l-6.79-16.16V57.44Z"/>
    <path d="M226.09,57.7a6.06,6.06,0,0,1-3.39-.88,5.49,5.49,0,0,1-2.06-2.42,10.24,10.24,0,0,1-.81-3.59l2.91-.79a13.73,13.73,0,0,0,.39,2.42,4.41,4.41,0,0,0,1,1.92,2.58,2.58,0,0,0,2,.74,2.52,2.52,0,0,0,1.94-.71,3,3,0,0,0,.66-2.06,4.25,4.25,0,0,0-.73-2.59,13.77,13.77,0,0,0-1.84-2l-4-3.51A6.71,6.71,0,0,1,220.44,42a7.21,7.21,0,0,1-.55-3,5.33,5.33,0,0,1,1.48-4,5.57,5.57,0,0,1,4-1.43,7.68,7.68,0,0,1,2.46.36,4.39,4.39,0,0,1,1.78,1.13A5.37,5.37,0,0,1,230.8,37a11,11,0,0,1,.57,2.7l-2.8.76a12.11,12.11,0,0,0-.35-2.14,3.2,3.2,0,0,0-.92-1.58,2.69,2.69,0,0,0-1.88-.6,2.66,2.66,0,0,0-1.91.66,2.57,2.57,0,0,0-.68,1.94,3.89,3.89,0,0,0,.36,1.78,5.28,5.28,0,0,0,1.18,1.43l4,3.51a12.37,12.37,0,0,1,2.36,2.79,7.06,7.06,0,0,1,1,3.84,6.06,6.06,0,0,1-.72,3A5,5,0,0,1,229,57,6.12,6.12,0,0,1,226.09,57.7Z"/>
    <path d="M239.87,57.7a6.06,6.06,0,0,1-3.39-.88,5.55,5.55,0,0,1-2.06-2.42,10.24,10.24,0,0,1-.81-3.59l2.91-.79a12.87,12.87,0,0,0,.4,2.42,4.3,4.3,0,0,0,1,1.92,2.58,2.58,0,0,0,2,.74,2.52,2.52,0,0,0,1.94-.71,3,3,0,0,0,.66-2.06,4.25,4.25,0,0,0-.73-2.59,13.77,13.77,0,0,0-1.84-2l-4-3.51A6.71,6.71,0,0,1,234.22,42a7.21,7.21,0,0,1-.55-3,5.33,5.33,0,0,1,1.48-4,5.57,5.57,0,0,1,4-1.43,7.63,7.63,0,0,1,2.46.36,4.39,4.39,0,0,1,1.78,1.13A5.37,5.37,0,0,1,244.58,37a11,11,0,0,1,.57,2.7l-2.8.76a12.11,12.11,0,0,0-.35-2.14,3.2,3.2,0,0,0-.92-1.58,2.69,2.69,0,0,0-1.88-.6,2.66,2.66,0,0,0-1.91.66,2.57,2.57,0,0,0-.68,1.94,3.89,3.89,0,0,0,.36,1.78,5.28,5.28,0,0,0,1.18,1.43l4,3.51a12.37,12.37,0,0,1,2.36,2.79,7.06,7.06,0,0,1,1,3.84,6.06,6.06,0,0,1-.72,3,5,5,0,0,1-2,1.94A6.12,6.12,0,0,1,239.87,57.7Z"/>
    <path d="M248.26,57.44V33.77h3.24V57.44Z"/>
    <path d="M257.91,57.44V36.23h-4V33.77h11.16v2.46H261.2V57.44Z"/>
    <path d="M267.34,57.44V33.77h9.15v2.46h-5.85v7.83h4.74v2.33h-4.74v8.68h5.91v2.37Z"/>
  </g>
</svg>
