<svg id="Layer_1" data-name="Layer 1" xmlns="http://www.w3.org/2000/svg" viewBox="0 0 550 364">
  <defs>
    <style>
      .cls-1 {
        fill: #cdf194;
        opacity: 0.11;
      }
    </style>
  </defs>
  <title>uxdokumentation</title>
  <g>
    <path class="cls-1" d="M495.33,288.25c-9.48.18-18.68,2.32-28,3.77a93.1,93.1,0,0,1-14.42,1.46l-4.48-.14a31.33,31.33,0,0,1-8.07-1.61l.81.32-4.24-1.89.79.36-3-2.13,16.77,20.54-22-30,11.16,24.15-10.8-32,5.41,25.71-3.67-27.16L433.39,293l-.3-27.23-1,23.46,2.9-27.09-3.68,22.79,5.84-26.45-6.24,22.21,8.6-25.72-8.4,21.14L442,251.47l-10.45,20.18,17-28.67-11.91,16.15,13.55-17.22-14.88,16.55,22.14-23.36-14.92,12.83,21.18-17.3a53.53,53.53,0,0,0,5.05-4.82,122.42,122.42,0,0,0,9.14-10.69,222.27,222.27,0,0,0,15.51-23.06c10.85-18.64,19.9-39.07,23.67-60.41a94,94,0,0,0,.62-30.59,71.77,71.77,0,0,0-4.42-16.49,67.11,67.11,0,0,0-9-15.45,70.28,70.28,0,0,0-13.73-13.67,66.41,66.41,0,0,0-12.35-7.55,37.32,37.32,0,0,0-13.16-3.44,9.38,9.38,0,0,0-5.09.36,24.93,24.93,0,0,0-7.45,2.42L447.8,50l-3.91,4.1a45.91,45.91,0,0,0-7.65,11.82,134.22,134.22,0,0,0-7.46,22.72c-1.78,7.6-2.69,15.43-3.87,23.14a97,97,0,0,1-3.29,15.83,17.82,17.82,0,0,1-1.53,3.7l-4.23,10c-3.62,8.12-7.69,16-12,23.79a263.5,263.5,0,0,1-26.53,39.23,210.27,210.27,0,0,1-17.68,18.87,168.71,168.71,0,0,1-19.72,16.27,192.7,192.7,0,0,1-17.34,10.7c-9.13,5-18.72,8.44-28.54,11.73l.78-.19c-11.63,1.44-22.77,5.1-34,8.3-15.32,4.36-30.59,8.89-46.13,12.45-16.17,3.72-32.74,6.78-49.35,7.45a147.81,147.81,0,0,1-19.63-.32,92.24,92.24,0,0,1-11.92-1.83,72.26,72.26,0,0,1-10.67-3.28l.8.34-5.58-2.59.78.38A27.93,27.93,0,0,1,113,278.5a27.36,27.36,0,0,1-9.42-12.94L109,279l-5.82-15.7,6.46,23.3-8-35.39,2.07,21.33-1.35-24.23-.25,19L103,242l-2.12,18.73,3.36-24.81-5,23,9.5-36.92-2.41,6.69,4.1-10.15,6.31-13.34c2.3-4.78,4.63-9.53,6.73-14.4a127.08,127.08,0,0,0,6.69-19.31,78.09,78.09,0,0,0,2.47-16.86c.09-3.14,0-6.31-.1-9.45-.22-8.82-.78-17.63-1.73-26.39-1.06-9.64-2.36-19.51-5-28.84-2.37-8.3-5.39-16.66-9.9-24.06A60.66,60.66,0,0,0,108.29,56a43.5,43.5,0,0,0-12.86-9c-7.62-3.68-16.13-6.92-24.76-6.29A36.06,36.06,0,0,0,59.5,43.26a39.71,39.71,0,0,0-10.67,6.67c-8.25,7-14.39,16.64-18.1,26.76a22,22,0,0,0-1.85,6.61A29.52,29.52,0,0,0,28,89.85a44.38,44.38,0,0,0,1.44,15.77,57.29,57.29,0,0,0,11.83,21.55c12.52,14.18,31.19,21.36,49.86,21.44,7.36,0,14.64-1,21.91-2,4-.57,8-1.15,12-1.4a61.23,61.23,0,0,1,10.83.33l-.7-.1a38.13,38.13,0,0,1,9.73,3.29,46.87,46.87,0,0,1,9.16,6.65c.66.51.85.38.56-.42a26.91,26.91,0,0,0-3-4.73q-3.12-4.41-6.37-8.71a27.59,27.59,0,0,0-3.61-4.31,52.21,52.21,0,0,0-9.76-3.88,53.34,53.34,0,0,0-5.48-1.28c-7.2-1.33-14.61-1.2-21.89-1.11-13.18.15-27.46-.65-38.75-8.33a34.36,34.36,0,0,1-12.08-14.12,27.85,27.85,0,0,1-2-6.31,24,24,0,0,1-.46-6.24l.17-3q.85-3.18,1.85-6.31A45,45,0,0,1,57,79.92a34.19,34.19,0,0,1,7.67-7.75,21.87,21.87,0,0,1,4.38-2.7,21.47,21.47,0,0,1,4.2-.87C77.36,68,81.48,70,85,72L87.67,74a32.91,32.91,0,0,1,5.61,4.66,35.06,35.06,0,0,1,5.33,6.44c4.82,7.48,7.65,16.31,10.11,24.79a62.27,62.27,0,0,1,2.45,12c.3,3.74.44,7.48.43,11.24l.52,6.07a268.92,268.92,0,0,1,.79,28,128.4,128.4,0,0,1-4.14,28c-4.93,19.4-12.25,38.86-11.52,59.18a64,64,0,0,0,5,23.36,51.26,51.26,0,0,0,7.13,11.52c4.53,5.65,11.13,10,17.73,12.92,10.16,4.44,21.41,5.42,32.37,5.91,22.41,1,44.9-2.91,66.61-8.17,12-2.91,23.87-6.35,35.6-10.19,4.45-1.46,8.89-3,13.33-4.48,5.88-2,11.86-3.66,17.75-5.61,4.53-1.5,9-3.5,13.38-5.35,3.74-1.57,7.46-3.16,11.15-4.82,14.51-6.5,28.42-14.22,40.91-24.14,28.5-22.66,50.28-52.21,66.75-84.5,7-13.75,13.26-27.9,17.38-42.8,1.3-4.69,2.19-9.49,3.38-14.21,1.46-5.83,3-11.76,5.67-17.17a29.64,29.64,0,0,1,3.2-5.26,30,30,0,0,0,3.13-4A9.91,9.91,0,0,1,460.35,75c1.16-.8,1.73-2,3.19-2.37a3.6,3.6,0,0,0,2.36-.23,2.55,2.55,0,0,1,2.27,0l1.77,1,1.87.91a50.49,50.49,0,0,0,4.65,3.59,32,32,0,0,1,4.42,4.6c3,3.51,6,6.71,8.42,10.68a50.09,50.09,0,0,1,5.86,14.5,77.37,77.37,0,0,1,1.52,10.65c.14,3.94.19,7.88.18,11.82a32.83,32.83,0,0,1-1,9.21,162,162,0,0,1-10.79,32.49,283.5,283.5,0,0,1-16.74,32.05c-2.7,4.49-5.55,8.82-8.62,13-3.45,4.75-6.72,9.56-10,14.41-2,3-4.13,6-6.14,9-1.6,2.53-3.22,5-4.89,7.53a99.28,99.28,0,0,0-10,26.55,5.23,5.23,0,0,0,.41,3.2q1.67,5.75,3.53,11.42t3.84,11.32a5.28,5.28,0,0,0,1.55,2.83,44,44,0,0,0,7,5.36,36.36,36.36,0,0,0,10.08,3.75,70.5,70.5,0,0,0,20.24,1.3c6.31-.36,12.58-1.12,18.87-1.63a110.88,110.88,0,0,1,19.79.31,5.35,5.35,0,0,0-1.49-2.88q-3.54-4.86-7.25-9.6t-7.5-9.4A5.27,5.27,0,0,0,495.33,288.25Z"/>
    <path class="cls-1" d="M497.3,292.48c-8.6,0-17,1.64-25.44,3-4.06.66-8.16,1.35-12.26,1.63a69.18,69.18,0,0,1-13.34-.4l.69.13a19,19,0,0,1-5.63-1.7,15.33,15.33,0,0,1-7.17-5.3l6.78,8.6-7.51-10.31,7.51,12.42-8.85-15.84,7.55,16.7-8.47-26.09L434.74,295l-2.14-21.72.56,18L434,269.4l-1.9,18,3.7-21.8-4.21,17.53,6.34-21.3L431.48,279l8.81-20.74-6.54,12.94,9.11-16.55-8,12.33,10.69-15.78-5.73,7.32a99.83,99.83,0,0,1,14.38-16.57q5.38-4.22,10.87-8.31A86.78,86.78,0,0,0,476,222.49c9.37-11,17.15-23.36,23.92-36.1,8.55-16.08,15.47-33.51,18.55-51.52,2.88-16.86,1.81-34.29-5.67-49.85A67,67,0,0,0,497.63,64.7c-6.71-6.19-14.59-11.82-23.42-14.52a33.78,33.78,0,0,0-10-1.51,31.15,31.15,0,0,0-9.71,2.57c-6,2.69-10.06,7.49-13.77,12.75s-6.18,11.4-8.25,17.4a128.92,128.92,0,0,0-4.94,20c-1.82,10.36-2.54,21-5.81,31l.27-.64c-2.63,5.89-5,11.87-7.77,17.71a355.73,355.73,0,0,1-17.75,32.55l.38-.58-6.17,9.37.4-.58-6.5,9.08.42-.56-6.85,8.74.43-.54-7.19,8.38.45-.53c-4.7,5-9.39,9.95-14.47,14.54a180.8,180.8,0,0,1-15.81,12.77,159.34,159.34,0,0,1-35.67,19.29l-9.76,3.37-3.5.48c-2.8.46-5.58,1.17-8.34,1.89-6.33,1.65-12.58,3.59-18.87,5.4-17.38,5-34.7,10.23-52.36,14.19-9.39,2.11-18.84,3.89-28.37,5.16a216.22,216.22,0,0,1-30.61,1.85l.7,0-7-.4.7.06-6.79-.74.7.07c-6.53-1.13-12.85-2.46-18.94-5.14a30.49,30.49,0,0,1-6.67-3.6A30.11,30.11,0,0,1,106,271.48l3.3,8.48-4.84-12.9,3.78,14-4.72-18.72,2.26,14.28-2.61-19.36.68,14.53L103.38,252l-.51,9.21,1.06-15.6-1.52,9.11,4.41-21.28,5.28-13.36c2.12-4.83,4.61-9.52,6.93-14.25,4.38-8.95,8.61-18.09,11.38-27.69a83.8,83.8,0,0,0,3.23-24.48q-.18-12.51-1.29-25c-1.71-19.16-4.74-38.88-14.1-56-4.51-8.23-10.64-15.3-18.92-19.95a70.11,70.11,0,0,0-10.87-4.88A44.7,44.7,0,0,0,75.1,45.21a19.38,19.38,0,0,0-5.43.2,14.91,14.91,0,0,0-5.47,1.1,20.5,20.5,0,0,0-5.44,2.07,17.21,17.21,0,0,0-5.32,3.09A43.48,43.48,0,0,0,45.8,58l-4.59,5.52a65.81,65.81,0,0,0-7.85,12.76,52.23,52.23,0,0,0-4.46,16.4,46.9,46.9,0,0,0,.47,12.85A52.74,52.74,0,0,0,41.59,131c12,13.91,30.15,21.5,48.31,22,8.61.22,17-1,25.44-2.28,4-.62,8-1.24,12.11-1.52a57.06,57.06,0,0,1,10.85.35l-.73-.18,4.7,1.14-.73-.2a30.75,30.75,0,0,1,7.53,3.51,40.41,40.41,0,0,1,7.15,5.83c.59.54.77.3.58-.39l-.91-1.78q-1.86-3-3.85-5.91c-2-3-4-6-6.17-8.93-.88-1.22-1.8-2.82-3.19-3.52a44.35,44.35,0,0,0-9.61-4.07,59.81,59.81,0,0,0-13.81-2.25c-8.39-.47-16.78.48-25.17.29-16.74-.4-34.68-6.2-42.86-22-3.07-5.94-4.36-13-2.7-19.56l.45-1.8a20.82,20.82,0,0,1,3-7.14,40.72,40.72,0,0,1,8.78-11,21.45,21.45,0,0,1,10-5.21,17.55,17.55,0,0,1,8.54.49A32,32,0,0,1,88,71.46,48,48,0,0,1,97,79.16a48,48,0,0,1,7.29,12.23,138.28,138.28,0,0,1,5.9,16.53l1.75,6.31a81.36,81.36,0,0,1,1.21,11.55l.14,5.46q.61,6.06.92,12.14a255.66,255.66,0,0,1,.35,26.84c-.73,14.71-5.29,28.74-9.33,42.79-6.37,22.15-12.51,48.12.3,69.3a45.33,45.33,0,0,0,19.29,17.19c1.61.78,3.31,1.43,5,2.09,5.82,2.3,11.92,3.13,18.09,3.85,25.36,3,50.81-1.08,75.49-6.86,14.27-3.34,28.33-7.58,42.24-12.17,6.27-2.08,12.52-4.2,18.85-6.13,7.25-2.2,14.28-4.93,21.32-7.75a230.53,230.53,0,0,0,21.6-9.48A201.19,201.19,0,0,0,354.76,246c26-19.61,46.54-46,62.39-74.26a316.06,316.06,0,0,0,14.6-29.38,154.26,154.26,0,0,0,8.41-23.89c1.36-5.48,2.35-11.07,3.59-16.58,1.62-7.18,3.34-14.67,7.61-20.8a39.71,39.71,0,0,1,5.52-6.86,20,20,0,0,0,3.5-3,5.81,5.81,0,0,1,3.8-1c1.42-.35,1.87-.76,3.53-.32l2.08,1a11.28,11.28,0,0,1,4.31,2.6l2.84,2A48.84,48.84,0,0,1,483.41,82l3.94,4.34a59.23,59.23,0,0,1,5.94,9.42c4,8.38,5.28,17.53,5.53,26.72l.05,6.38a45.39,45.39,0,0,1-1.51,12.33,155.73,155.73,0,0,1-7.53,23.85,254.52,254.52,0,0,1-20.84,41c-2.19,3.49-4.45,6.86-6.89,10.18-4.52,6.15-8.75,12.48-13.15,18.72-2.72,3.85-5.5,7.67-8.09,11.6a58.11,58.11,0,0,0-4.12,7.13c-1,2-1.84,4.08-2.65,6.17a40.81,40.81,0,0,0-2.15,6.58,16.48,16.48,0,0,0-1.15,5.33c-.61,9.78-1.26,10.15,1.65,17q2.15,4.93,4.44,9.82a27,27,0,0,0,2.64,4.95c1,1.19,5.45,3.77,7,4.47a46.56,46.56,0,0,0,4.61,1.76c10,3.35,21.25,2.27,31.54,1.23,4.68-.47,9.38-1.15,14.08-1.37a111.57,111.57,0,0,1,15.51.48,3.31,3.31,0,0,0-1.11-2.23q-2.81-3.6-5.78-7.05t-6-6.84A3.26,3.26,0,0,0,497.3,292.48Z"/>
    <path class="cls-1" d="M492.36,281.77c-11.21.39-22.22,3.2-33.28,4.88l.45-.06c-4.57.51-9.36,1.13-14,.65l-4.11-.58a19.54,19.54,0,0,1-9.86-4.88l1.91,2.06-3.36-4.19,3.84,6.22-5.4-9.51,3.28,6.61-3.4-8.41,2.33,7.18c-2.56-13,3.23-23.27,10.37-32.62a84.3,84.3,0,0,1,19.65-18.72q3.29-2.24,6.54-4.55c7.55-5.53,13.67-12.49,19.23-20a206,206,0,0,0,22.72-39.56c6.51-14.73,11.57-30.44,13.12-46.54a86.49,86.49,0,0,0-3.5-34.95,71.29,71.29,0,0,0-14.75-25.49,83.64,83.64,0,0,0-12.21-11,59,59,0,0,0-13-7.72c-5.34-2.23-10.9-4-16.77-3.79a34.75,34.75,0,0,0-11.83,2.8,28.85,28.85,0,0,0-10.61,7.45,66.28,66.28,0,0,0-8.48,10.63l-2.93,6.09a122.22,122.22,0,0,0-4.55,12.37q-1.32,5.66-2.18,11.4c-1.05,6.69-1.75,13.43-2.52,20.16a141.44,141.44,0,0,1-2.33,16c-1.41,6.08-4.58,12-7.19,17.51-4.48,9.5-9.38,18.85-14.78,27.86-13.21,22-29.42,42.32-49.42,58.55a163.91,163.91,0,0,1-28.86,19,154.52,154.52,0,0,1-18.29,7.83,86.55,86.55,0,0,1-16.85,3.83c-4.74.82-9.45,2.09-14.08,3.37-7.7,2.11-15.36,4.33-23,6.52-15.72,4.5-31.55,8.67-47.63,11.68-15.71,2.94-31.83,5-47.85,4.25a86.8,86.8,0,0,1-23.24-3.89,51,51,0,0,1-9.67-4.23,29.33,29.33,0,0,1-12-12.65l1.93,4.27-3.55-8.52,2.39,7.07-3.28-14.63.88,7.33-.74-12.5.2,7.3,1.53-19-1.17,7,2.89-13.15-1.74,6.73,12.32-29.55q2.69-4.86,5.36-9.71c2.56-4.63,5.08-9.32,7.18-14.18,4.07-9.41,7.14-19.13,7.86-29.4.56-8-.12-16.16-.67-24.17a275.54,275.54,0,0,0-3.84-31.37A128.19,128.19,0,0,0,123.74,71a68.85,68.85,0,0,0-11.81-19.38,45.32,45.32,0,0,0-12.71-10.2,81.51,81.51,0,0,0-11.73-5.15c-9.55-3.26-20.3-4.16-29.84-.32l-6.23,2.88L45.35,43c-5.48,4.11-9.68,9.43-13.56,15a31.46,31.46,0,0,0-4.4,7.29,54.78,54.78,0,0,0-4.77,11.23,65.21,65.21,0,0,0-2,15,51.06,51.06,0,0,0,3.47,18,61.16,61.16,0,0,0,8.56,15.84,68.34,68.34,0,0,0,24.54,19.82,70.84,70.84,0,0,0,19.86,6.28,76.2,76.2,0,0,0,17,1.07,121.65,121.65,0,0,0,12.49-1.37c4.65-.74,9.27-1.71,13.9-2.61,5.16-1,10.81-2.05,16-1.59a32.37,32.37,0,0,1,7.9,1.63c5.47,1.91,9.36,6,13.26,10,.38.38,1,.67,1.32,0s-.67-1.7-1-2.07C153.34,152,149,148.1,143,145.81c-6.94-2.64-14.6-1.63-21.72-.46-5.26.86-10.45,2.14-15.71,3.07A99.78,99.78,0,0,1,87.48,150a70.08,70.08,0,0,1-38-12.32,58.78,58.78,0,0,1-16-16.89,49.05,49.05,0,0,1-7.33-18.65A45.57,45.57,0,0,1,25.16,92a46.08,46.08,0,0,1,1.65-10.13,26.49,26.49,0,0,1,4.06-10.21,36.46,36.46,0,0,1,6.86-10A64.27,64.27,0,0,1,46,53.22,44.15,44.15,0,0,1,55,47.76a24.63,24.63,0,0,1,8.85-3.12,24.63,24.63,0,0,1,8.28-.72,42.27,42.27,0,0,1,14.39,3.22,63.19,63.19,0,0,1,14.12,7.8A30.78,30.78,0,0,1,107,60.61a56.43,56.43,0,0,1,6.7,9.37l-.23-.41,3,5.67-.21-.41c1.69,3.94,3.36,7.86,4.84,11.88a91.89,91.89,0,0,1,4.2,15.81c.71,3.94,1.07,7.92,1.62,11.89q1.08,7.68,1.72,15.41c.59,7.19,1,14.39,1.21,21.6a81.19,81.19,0,0,1-5.38,30c-5.53,14.75-13.76,28.27-19.51,42.9a73,73,0,0,0-4.05,14.81c-1,6.31-1.51,12.6-.18,18.9a50.44,50.44,0,0,0,1.49,5.9l2.06,4.26a14.71,14.71,0,0,0,2.65,5,40.65,40.65,0,0,0,10.43,9.44c6.89,4.37,15.51,6.17,23.45,7.25a140,140,0,0,0,28.51.58c21.23-1.43,42.34-6.29,62.78-12,8.69-2.43,17.31-5.08,25.93-7.76,3.65-1.15,7.31-2.2,11-3.28,5-1.47,10-3.15,15-4.54,2.64-.73,5.27-1.44,7.93-2.06l3.29-.71,9.54-3.45a157.13,157.13,0,0,0,38.33-22c26-19.85,46.34-46.38,61.58-75.15,3.3-6.22,6.47-12.52,9.38-18.94,1.79-3.94,3.71-7.9,5.27-11.94a60.49,60.49,0,0,0,2.95-12.83c1-6.8,1.73-13.66,2.7-20.48q.72-5.07,1.67-10.11.66-3.83,1.65-7.59a83.91,83.91,0,0,1,3.84-8.55l1.38-2.77a18.06,18.06,0,0,1,5.24-7.34l2.17-2.17A47.81,47.81,0,0,1,450.54,50,36.22,36.22,0,0,1,461,47.57a25.32,25.32,0,0,1,9.65.72,59.39,59.39,0,0,1,9,3.79l5.17,3,5.12,4.18a93.27,93.27,0,0,1,10.65,10.19,67.42,67.42,0,0,1,7.68,11.26l6.35,17.77a83,83,0,0,1,1.63,13.18,75.68,75.68,0,0,1-.84,16.61,139.78,139.78,0,0,1-6.5,25.69,200.89,200.89,0,0,1-12.13,27.74,206.09,206.09,0,0,1-16.61,26.92A124.85,124.85,0,0,1,469.85,221a20.23,20.23,0,0,1-6.36,5.36q-3.09,2-6.21,4A112.28,112.28,0,0,0,441,244.65a88.2,88.2,0,0,0-6.25,7.14c-2.74,3.6-5.61,7.5-7,11.86a24.33,24.33,0,0,0-1.23,8.51,20.38,20.38,0,0,0,1.46,5.52c1.79,5.18,4,9.74,9,13.13,5.16,3.54,11.7,4.28,17.8,4.23,14.84-.12,29.27-4.66,44.15-4a1.19,1.19,0,0,0-.2-1.32,44.13,44.13,0,0,0-2.46-3.76c-.84-1.24-1.75-2.44-2.71-3.59A1.2,1.2,0,0,0,492.36,281.77Z"/>
    <path class="cls-1" d="M490.81,291.51c-6,.88-11.87,2.33-17.82,3.49-4.89,1-9.87,1.83-14.81,2.49a61.26,61.26,0,0,1-9.47.73,33.3,33.3,0,0,1-8.5-.84l-12.55-13.74a24,24,0,0,1,1.46-8.35c2-5.63,5.69-10.53,9.59-15a112.38,112.38,0,0,1,13.13-12.87c7.09-5.79,15.9-9.32,22.48-15.74a108.54,108.54,0,0,0,9-10,199.33,199.33,0,0,0,23.38-38.08c7-14.61,12.85-30.26,15.18-46.36,1.69-11.62,1.86-23.42-.72-34.93a70.53,70.53,0,0,0-10-23.53,78.63,78.63,0,0,0-19.5-20.31c-7.36-5.38-15.84-9.83-25-11a24.91,24.91,0,0,0-12,.83,38.59,38.59,0,0,0-11.39,5.35c-4.52,3.35-7.93,8-10.94,12.69a61.19,61.19,0,0,0-6.64,14.85c-4,12.42-5.37,25.31-6.87,38.2-.48,4.16-1,8.31-1.66,12.44a50.28,50.28,0,0,1-1.45,6.52q-2.9,7.37-6.33,14.5c-8.82,18.77-19.47,37.06-32.2,53.39a197.19,197.19,0,0,1-28,29.66,175.14,175.14,0,0,1-24.4,17.52,152.33,152.33,0,0,1-17.88,9A148.59,148.59,0,0,1,287.78,269l1.89-.24a102.28,102.28,0,0,0-18.32,2.87c-7.44,1.85-14.79,4.1-22.16,6.21-17.79,5.07-35.66,9.92-53.87,13.24-17.72,3.24-36.14,5.49-54.14,3.46-8.68-1-18.43-2.87-25.8-7.86q-17.38-17-13.18-37L108,231.28q4.14-8.53,9-16.71,3.24-5.53,6.34-11.16a121.85,121.85,0,0,0,10-23.45,75.36,75.36,0,0,0,3.21-20.5c.06-6.87-.41-13.83-.89-20.68-1.19-17.23-3.4-34.76-9.17-51.13-4.37-12.42-11-24.59-21.87-32.45a55.3,55.3,0,0,0-11.76-6.37,63.75,63.75,0,0,0-12-3.94A41.61,41.61,0,0,0,56.19,46.7c-9.49,3.83-17,10.94-22.88,19.17a66.38,66.38,0,0,0-11.6,25.94A51.11,51.11,0,0,0,20.5,103.2a56.06,56.06,0,0,0,4.65,21.28c7.51,17.37,23.25,30,41.08,35.73a80,80,0,0,0,27.5,3.58c8.08-.33,16-1.88,23.88-3.39,6.1-1.16,12.32-2.45,18.56-2.05a26.4,26.4,0,0,1,7.82,1.52,35.78,35.78,0,0,1,13.13,9.54c1.12,1.13,1.24-.08.84-1.15-.68-1.78-1.57-4.37-3.08-5.63-4.44-3.7-8.94-7.08-14.58-8.71-6.93-2-14.2-1.14-21.21-.09-9.19,1.38-18.24,3.17-27.58,3.18a74.87,74.87,0,0,1-34-7.81A64.59,64.59,0,0,1,36,132.08,52,52,0,0,1,27,115l-1.47-6.5,86.73-42.33L116,71.42a89.33,89.33,0,0,1,5.82,11.51,129.21,129.21,0,0,1,4.29,12.52c3.55,12.45,5.32,25.52,6.33,38.41.3,3.87.56,7.75.74,11.63.23,4.89.58,9.89.44,14.78-.34,12.16-3.62,23.83-8.57,34.9-3.8,8.51-8.43,16.57-12.88,24.74-3.87,7.13-7.55,14.44-9.79,22.28a74.92,74.92,0,0,0-2.94,17.34,33,33,0,0,0,2.3,13.83c3.48,8.39,10.59,14,18.58,17.84,7.09,3.43,15.12,5,22.91,5.8a159.66,159.66,0,0,0,33.5-.56c24.63-2.67,48.71-9,72.46-15.83,8.51-2.45,17-5.09,25.55-7.37l4.79-1.17a56,56,0,0,1,11.37-1.86,68.62,68.62,0,0,0,10.69-3.34c36-13,65.06-39.34,86.77-70.32,5.23-7.46,10-15.2,14.49-23.14q6.58-11.68,12.2-23.87a121.76,121.76,0,0,0,5.7-13.45,78,78,0,0,0,2.68-14.87c1.09-9.44,1.57-19,3.22-28.33.65-3.7,1.44-7.42,2.41-11l11.42-22.06a30.81,30.81,0,0,1,14.91-9.19c53.59-16.69,65.12,41.67,64.41,73.27A101.08,101.08,0,0,1,517,144.27c-5.14,22.13-14.93,43.13-27,62.31-3.21,5.1-6.6,10.09-10.3,14.85a87.44,87.44,0,0,1-9.94,11.37c-2.92,2.66-6.27,4.52-9.56,6.64a83.8,83.8,0,0,0-7.88,5.73,137.7,137.7,0,0,0-14.12,13.2,56.57,56.57,0,0,0-8.7,11.38c-2.06,3.83-4,8.21-3.89,12.66a18.88,18.88,0,0,0,4.77,11.37,23.32,23.32,0,0,0,7.64,5c3.81,1.61,8.42,1.95,12.5,1.9a100.5,100.5,0,0,0,14.67-1.51c3.37-.53,6.78-1.06,10.14-1.68q4.69-1.08,9.43-1.92a44,44,0,0,1,7.2-1.93C493.21,293.39,491.51,291.41,490.81,291.51Z"/>
    <path class="cls-1" d="M496.54,294c-8.57.11-17,1.66-25.42,3-4.06.65-8.15,1.32-12.25,1.6a70.73,70.73,0,0,1-13.33-.38l.77.14a19.36,19.36,0,0,1-5.6-1.66,15.25,15.25,0,0,1-7.15-5.18l14.79,17.16L430.49,285l10.9,19.58L431,283.1l7.24,18.6-7.14-22.42,4.7,19.33-3.94-23L433.79,295l-.65-23.21-.84,19.57,2.45-23.28-3.47,19,5.39-22.76-6,18.55,14.07-31.1-3.38,5,5.06-6.68L459.5,238a70.13,70.13,0,0,0,8.74-7.85,156.08,156.08,0,0,0,14.27-17.54,211,211,0,0,0,27.55-52.88c6.32-18.07,10-37.63,6.11-56.64a67.78,67.78,0,0,0-12.78-27.89A70.7,70.7,0,0,0,493,64.39a61.78,61.78,0,0,0-14.84-9.89A41.3,41.3,0,0,0,468,51.22a23.76,23.76,0,0,0-9.68.38l-4.75,1.6a15.34,15.34,0,0,0-6.6,4.26,54,54,0,0,0-7.14,8.17,50.31,50.31,0,0,0-5.2,9.64A106,106,0,0,0,430,87.88a160.87,160.87,0,0,0-4.3,19.68c-1,6.21-1.84,12.47-3.16,18.63a59.21,59.21,0,0,1-1.62,6.29,17.58,17.58,0,0,1-1.53,3.67l-4.21,9.91a298,298,0,0,1-20,37.33,256.61,256.61,0,0,1-15.08,21.35c-5.34,6.8-11.07,13.08-17,19.35l.59-.57-8,7.61.61-.55-8.35,7.13.63-.52-8.7,6.64.65-.5a164.72,164.72,0,0,1-17.1,10.76,156.28,156.28,0,0,1-18.44,8.53,30.89,30.89,0,0,1-11.45,3.61,43.66,43.66,0,0,0-5.66,1c-6,1.37-11.88,3.19-17.76,5-6.85,2-13.73,4-20.59,6-15.8,4.63-31.72,9-47.9,12.12-7.05,1.35-14.12,2.55-21.24,3.41a214.3,214.3,0,0,1-27,1.42l.78,0-7.11-.38.79.06-6.87-.72.78.08c-5.54-.94-11.21-1.91-16.48-4l-4.82-2.08a35,35,0,0,1-13.88-12.4l3.39,5.24-4.35-7.51,8.24,18.39-11.55-29.19L106.31,280l-3.92-20.39,1.67,15.68-1.61-20.91,0,9.93.4-16.28-1.18,9.82,3.74-22a119.75,119.75,0,0,1,6.31-16.41c1.75-3.85,3.57-7.68,5.38-11.51,3.35-7.07,6.55-14.22,9.21-21.58a86.45,86.45,0,0,0,5.26-30.74c-.12-8.32-.5-16.62-1.23-24.91-1.67-19.09-4.6-38.73-13.84-55.79a55.12,55.12,0,0,0-8.86-12.46A48.86,48.86,0,0,0,97.89,55,61.7,61.7,0,0,0,84.62,49.3a38.82,38.82,0,0,0-13.17-2.1,36.16,36.16,0,0,0-10.8,2,41.49,41.49,0,0,0-13.1,8.15,22.58,22.58,0,0,0-4.81,4.9,45.67,45.67,0,0,0-4.51,5.77,43,43,0,0,0-5.69,9.54l-2.66,6.54a55.64,55.64,0,0,0-2.31,13.12,44.62,44.62,0,0,0,2.27,15.83,51.4,51.4,0,0,0,6.91,14.28A66.25,66.25,0,0,0,45.08,137a61.24,61.24,0,0,0,13,9.18A59.91,59.91,0,0,0,72.85,152a81.41,81.41,0,0,0,27.79,1.55c7.74-.87,15.38-2.53,23.13-3.28a63.31,63.31,0,0,1,8.92-.26,35.77,35.77,0,0,1,12,3l-.76-.35a26.66,26.66,0,0,1,5.55,3.38,31.35,31.35,0,0,1,5.39,4.57l.7.48-.1-.84-1-2.11q-2-3.59-4.14-7.1c-2.16-3.62-4.35-7.23-6.63-10.79-.76-1.2-2-3.68-3.4-4.35l-4.88-2.27a63.31,63.31,0,0,0-9.94-2.64A84.21,84.21,0,0,0,112,129.81c-6.71-.11-13.41.19-20.11-.2-15.16-.9-31.62-6.93-38.27-21.63a25.88,25.88,0,0,1-2.39-9.39,25,25,0,0,1,1.53-9.39,33.16,33.16,0,0,1,5.12-9.44,43.53,43.53,0,0,1,6-6.07,16.73,16.73,0,0,1,8.73-3.92,15.07,15.07,0,0,1,7.27,1,31.08,31.08,0,0,1,7.59,4.65,48.61,48.61,0,0,1,8.13,7.44,48.37,48.37,0,0,1,6.67,11.93,146.17,146.17,0,0,1,5.62,16.32l1.65,6.25a83.07,83.07,0,0,1,1,11.36c.1,3.87.3,7.58.57,11.47a255.3,255.3,0,0,1,.45,32.61c-.77,12.46-4.16,24.48-7.38,36.47-5.26,19.53-10.44,40.09-5.2,60.24,2.46,9.49,7.52,19,15.37,25.15a58,58,0,0,0,30.26,12.64,162.93,162.93,0,0,0,18.85,1.42A205.47,205.47,0,0,0,197.84,306a366.35,366.35,0,0,0,43.55-9.67c13.76-3.86,27.18-8.63,40.76-13,5.81-1.88,11.55-3.58,17.23-5.83q7.49-3,14.85-6.23a236.37,236.37,0,0,0,27.18-13.88c37.3-22.84,64.78-58.59,84.35-97.16,7.57-14.92,14.8-30.56,18.2-47,1.16-5.64,2.41-11.3,4-16.84a55.17,55.17,0,0,1,3.79-10.06l1.62-3A39.27,39.27,0,0,1,457.08,79a20,20,0,0,1,3.08-3,5.35,5.35,0,0,0,2.75-2,3.36,3.36,0,0,1,2.84-.23l1.16-.4A4.28,4.28,0,0,1,470,74.84l1.74.93a36.54,36.54,0,0,0,4.35,3.59,57.36,57.36,0,0,1,5.71,6.35l3.61,4.15a59.12,59.12,0,0,1,5.37,9c4.53,10,5.13,21.31,4.73,32.12-.46,12.27-4.79,24.29-9.38,35.56a275.52,275.52,0,0,1-19.29,37.9c-2.67,4.43-5.5,8.7-8.57,12.88-4.57,6.23-8.77,12.68-13.05,19.12-5.26,7.93-10.41,15.83-13.34,25a55.55,55.55,0,0,0-2.09,8.55c-.85,5-1.61,10.37.1,15.41,1.29,3.79,3.58,7.46,5.47,10.93l2.9,5.25a33.24,33.24,0,0,0,3.29,5.3,23.18,23.18,0,0,0,4.28,2.58,41.48,41.48,0,0,0,12.18,4c9.1,1.57,18.51.79,27.63-.06,4.61-.43,9.27-1,13.91-1.15a129.41,129.41,0,0,1,15.37.69,4.07,4.07,0,0,0-1.5-2.39q-3.48-3.87-7.14-7.57t-7.36-7.35A4.16,4.16,0,0,0,496.54,294Z"/>
    <path class="cls-1" d="M496.27,290.33c-9.44.17-18.62,2.23-27.92,3.64a93.34,93.34,0,0,1-14.43,1.45l-4.48-.12a31.43,31.43,0,0,1-8.08-1.57l.8.28a18.81,18.81,0,0,1-6.47-3.56l16.56,19.42-21.94-28.76,11,23.07-10.79-30.89,5.2,24.73-3.6-26.28,1.6,22.58-.19-26.41-1.27,22.69,3-26.38-4,22.08,6.07-25.8-6.62,21.55L443,251.27l-11.87,21.64,17.57-28.17-12.53,15.63,18.48-21.32-4.91,4.77,9.15-7.76a58.28,58.28,0,0,0,6.73-5.5,93.85,93.85,0,0,0,9.12-9.69,201.11,201.11,0,0,0,15.66-21.81c10.76-17.27,19.65-36.13,24.73-55.88a105,105,0,0,0,3.53-33.74A72,72,0,0,0,510.47,80c-5.47-10-13.64-18.3-23-24.76A51.31,51.31,0,0,0,473.3,48l-5.12-1.13a14.14,14.14,0,0,0-7.53.16A32,32,0,0,0,451,50.73,15,15,0,0,0,444.78,56l-3.45,4.36c-4.77,6.55-7.7,14.45-9.91,22.2a183.31,183.31,0,0,0-4.69,21.74c-1.07,6.7-1.91,13.49-3.45,20.11a45.26,45.26,0,0,1-1.7,5.91q-1.71,3.6-3.17,7.31-2,5-4.38,9.82a303.23,303.23,0,0,1-23.59,41.45,226.66,226.66,0,0,1-16,20.67,189.91,189.91,0,0,1-18,18.48c-5.1,4.5-10.4,8.77-15.92,12.76-8.32,6-17.24,10.72-26.41,15.28l.73-.32L304.69,260l.76-.27-10.58,3.6.77-.23c-9.63,1.28-18.89,4.16-28.2,6.87-14.85,4.33-29.71,8.77-44.73,12.49-16.22,4-32.79,7.45-49.47,8.77a173.7,173.7,0,0,1-20.15.61,109,109,0,0,1-23.76-3.57l.81.25-6-2,.79.3-5.59-2.5.76.34A28.31,28.31,0,0,1,114,280.6a27.68,27.68,0,0,1-9.6-12.79l5.31,12.82-5.79-15.18,6.23,22.35-7.92-34.35,2,25.3-.85-36.95-2.44,20.42L104.48,238l-2.55,11.19,6.24-23,5.9-13.5c2.22-4.79,4.65-9.49,6.87-14.29a143.24,143.24,0,0,0,9.36-25.23,77.91,77.91,0,0,0,2.47-16.84c.08-3.13,0-6.29-.12-9.42-.22-8.79-.78-17.57-1.75-26.31-1.05-9.59-2.34-19.43-5-28.72-2.36-8.26-5.39-16.58-9.89-23.94a60.23,60.23,0,0,0-7.51-9.82,43.21,43.21,0,0,0-12.74-8.86c-7.51-3.63-15.9-6.82-24.4-6.24a36.17,36.17,0,0,0-11,2.39,39.65,39.65,0,0,0-10.58,6.43c-8.25,6.84-14.43,16.3-18.21,26.26a21.35,21.35,0,0,0-1.92,6.53,29.19,29.19,0,0,0-1,6.5,44.22,44.22,0,0,0,1.25,15.75A56.82,56.82,0,0,0,41.6,128.56C54.12,142.88,73,150.08,91.73,150.11c7.39,0,14.69-1.07,22-2.12,4-.58,8-1.16,12-1.41a60.34,60.34,0,0,1,10.83.37l-.75-.17,4.73,1.1-.75-.19a32,32,0,0,1,7.59,3.42,40.06,40.06,0,0,1,7.26,5.71c.61.54.79.3.57-.4l-1-1.81q-2-3-4.08-6c-2.14-3.06-4.29-6.09-6.53-9.07-.89-1.18-1.92-2.93-3.34-3.57a47.4,47.4,0,0,0-9.91-3.74,69.69,69.69,0,0,0-9.49-1.72c-7.09-.72-14.2-.34-21.3-.43-13.63-.17-27.94-2.56-38.23-12.2A31.62,31.62,0,0,1,53,104.77a23.9,23.9,0,0,1-.93-9.28l.12-1.44a10.19,10.19,0,0,1,1.07-4.45l1-3q1.35-2.37,2.79-4.68a33.08,33.08,0,0,1,6.86-7.83,26.37,26.37,0,0,1,5.8-3.61,31.21,31.21,0,0,1,5.17-.88c1.25.21,2.48.47,3.71.77a22,22,0,0,1,6.29,2.9,43.42,43.42,0,0,1,6.67,5.27l1.34,1.28a23.58,23.58,0,0,1,5.18,6.37,58.5,58.5,0,0,1,4.32,8.45A135.33,135.33,0,0,1,108,110.88a61.37,61.37,0,0,1,2.39,12c.41,4.72.23,9.44.62,14.16.56,6.82.89,13.68,1,20.52a146.93,146.93,0,0,1-1,22.3c-1.38,9.91-4,19.54-6.67,29.18-4.68,17.3-9.37,35.17-6.77,53.24,1.51,10.43,5.35,20.43,12.47,28.33A51.57,51.57,0,0,0,127.81,303a58.82,58.82,0,0,0,16.78,4.4,187.67,187.67,0,0,0,18.94,1.43c23.84.43,47.84-4.23,70.79-10.34,10.68-2.84,21.25-6,31.73-9.53,5.43-1.81,10.83-3.74,16.28-5.5l8.73-2.69a58.51,58.51,0,0,0,8.39-3.07q11.48-4.59,22.66-9.83a187.2,187.2,0,0,0,45.5-29.61,233.07,233.07,0,0,0,35.87-40.38,330.38,330.38,0,0,0,27.3-47.49C436.43,138.41,441.5,126,444.27,113c1.21-5.62,2.53-11.28,4.21-16.78,1.59-5.2,3.52-10.74,7.18-14.86,1-1.18,2-2.45,3.1-3.6a11.76,11.76,0,0,1,3.47-2.63l.71-1,1.2-.5a3.37,3.37,0,0,0,2.74-.33,3,3,0,0,1,2.28.76,15.21,15.21,0,0,0,2.59,1.43l1.89,1.65a18.61,18.61,0,0,1,3.88,3.25,38.28,38.28,0,0,1,4.46,5,40.53,40.53,0,0,1,6.62,8.69,50.43,50.43,0,0,1,4.26,9.4,66.3,66.3,0,0,1,2.84,15.49l.11,5.59a93.75,93.75,0,0,1-.42,12.54,117.21,117.21,0,0,1-4.55,17.38,221.42,221.42,0,0,1-14.07,32.59,236.52,236.52,0,0,1-18.23,30.18c-6.56,9-12.84,18.39-18.72,27.9-.83,1.34-1.7,2.69-2.52,4.06-6,10-5.46,18.33-7.63,31.23a5,5,0,0,0,.75,3.05q2.26,5.36,4.74,10.61t5,10.47a5,5,0,0,0,1.84,2.55,47.63,47.63,0,0,0,7.55,4,45.06,45.06,0,0,0,8.39,2.28,84.3,84.3,0,0,0,20.57.57c6.25-.45,12.47-1.12,18.72-1.58a103.84,103.84,0,0,1,17.45.54,4.93,4.93,0,0,0-1.47-2.76q-3.5-4.62-7.16-9.1t-7.41-8.89A4.89,4.89,0,0,0,496.27,290.33Z"/>
    <path class="cls-1" d="M494.15,293.13a73.76,73.76,0,0,0-13.44.8c-5,.76-10,1.81-15,2.61a95.22,95.22,0,0,1-14.48,1.53c-6.61,0-12-.78-17.9-4.87l5.44,5-7.77-7.7,4.81,5.36-5.47-7.14,3.87,5.83-5.18-9.23,3,6.23q-5.52-17,6.4-31.69l-2,3.06a115.81,115.81,0,0,1,28.63-27.49,41,41,0,0,0,4.22-3.34,94.57,94.57,0,0,0,12.21-13.77,211.57,211.57,0,0,0,21.81-35.75c12.82-26.38,22.52-57.71,13.62-86.85-5.19-17-17.24-31.73-32.47-40.83-6.34-3.79-14.29-7.39-21.89-7a31.59,31.59,0,0,0-15.91,5c-6.87,4.57-12,11.86-15.35,19.24a96.23,96.23,0,0,0-5.87,17.21c-3.05,12.53-3.79,25.47-5.8,38.18l.09-.55a47.25,47.25,0,0,1-2.82,10.6q-2.46,5.44-4.72,11-3.27,7.24-7,14.25c-10.43,20-22.94,39.14-38.26,55.82-13.69,14.88-29.65,27.85-47.6,37.24a150.53,150.53,0,0,1-18.52,8.18l-12.09,3.35c-4,.71-7.9,1.44-11.82,2.41-12.49,3.09-24.78,7-37.17,10.46-13.67,3.82-27.43,7.35-41.38,10a238.61,238.61,0,0,1-41.62,4.57,122.13,122.13,0,0,1-18.82-1.26,76.22,76.22,0,0,1-11.17-2.55,37.6,37.6,0,0,1-19.88-12.87l2.68,3.47-5.18-7.33,3.54,5.82L102,267.09l1.88,6.17-2.57-11,1.12,6.17-1.22-11.35.34,6.12,2.76-25.41-1.62,5.79,3.75-11.64-1.35,3.54q4.91-11.76,10.89-23c2.58-4.86,5.25-9.7,7.59-14.68,4.17-8.85,7.62-18,9.28-27.65a98.87,98.87,0,0,0,.94-19.75c-.16-5.86-.52-11.75-1-17.58-.45-5.21-1-10.41-1.73-15.59-1.06-7.48-2.14-15-4.28-22.31-2.48-8.46-5.61-17-10.25-24.53A53.12,53.12,0,0,0,106.45,58.3a51.83,51.83,0,0,0-13.54-8.52,75.65,75.65,0,0,0-11.21-4,39.82,39.82,0,0,0-14.25-1,36.32,36.32,0,0,0-14.74,4.57,61,61,0,0,0-11.29,8.82,63.49,63.49,0,0,0-7.32,9.43A31.9,31.9,0,0,0,30,74.48a57.78,57.78,0,0,0-6,17.59A55.82,55.82,0,0,0,23.71,106a50.53,50.53,0,0,0,4.81,16.35c9.15,19.76,29.22,32.5,50.43,35.51,10.2,1.44,20.5.52,30.61-1.22,3.48-.6,7-1.27,10.45-1.84a86.59,86.59,0,0,1,13.83-1.13l-.54-.05,4.73.49-.54-.06a34.15,34.15,0,0,1,9.55,3.54,45.31,45.31,0,0,1,8.73,7.1c.48.41.69.3.62-.33a14.42,14.42,0,0,0-1.57-3.74q-1.75-3.48-3.64-6.88a14.43,14.43,0,0,0-2.22-3.4,43.79,43.79,0,0,0-8.38-4.78c-1.44-.57-3.06-1.17-4.54-1.6a44.59,44.59,0,0,0-8.89-1.46c-5.91-.5-12,.34-17.82.93a133.52,133.52,0,0,1-19.06,1.05c-12.59-.53-25.11-3.79-35.4-11.29-10.59-7.71-18.15-19.32-19.44-32.46a43,43,0,0,1,2.34-18.09,50.39,50.39,0,0,1,5.57-11.16l2.14-2.85A46.86,46.86,0,0,1,52,61l2.38-1.72q7.35-6.39,18.31-1.9l15.93-.17a48.88,48.88,0,0,1,6.66,3.83A45.71,45.71,0,0,1,101.77,66,47.39,47.39,0,0,1,110.26,77a100.43,100.43,0,0,1,6.15,13.52,94.41,94.41,0,0,1,5.44,18.92c.66,3.88.94,7.76,1.35,11.67.34,3.15.73,6.29,1,9.45q.94,10.41,1.26,20.85a128.06,128.06,0,0,1-.73,21.27c-2.12,15.81-9,30.63-15.07,45.23-4.41,10.69-8.57,21.59-9.56,33.21-.14,1.71-.18,3.46-.25,5.17a33.7,33.7,0,0,0-.06,5.41,48.07,48.07,0,0,0,1.45,6.92A41.49,41.49,0,0,0,106,279.78a32.76,32.76,0,0,0,9.57,10,51.07,51.07,0,0,0,11.89,6.06,90.44,90.44,0,0,0,20.47,4.31c17.11,1.67,34.55-.28,51.41-3.28,32.44-5.77,63.64-16.59,95.17-25.9,2.13-.63,4.25-1.28,6.38-1.92a131.4,131.4,0,0,0,18.53-7.27,171.53,171.53,0,0,0,35.48-22.56c23.4-19.17,41.89-43.69,56.4-70.09,3.46-6.29,6.79-12.75,9.77-19.27a162.19,162.19,0,0,0,8.2-20.43,76.33,76.33,0,0,0,2-8.84c1.92-10.92,2.79-22,5-32.84l-.13.49a100.21,100.21,0,0,1,3.7-11.18,73.5,73.5,0,0,1,5.7-10.73l-.29.36q23.23-16.08,38.61-1.53A58,58,0,0,1,493.88,74a59.68,59.68,0,0,1,11.21,16.91A66.94,66.94,0,0,1,510,109.13a145.53,145.53,0,0,1,.57,20.46l.06-.46-1,6.81.08-.46-1.38,6.83.11-.45-1.74,6.82.13-.45-2.06,6.82.15-.45-2.34,6.79.16-.44-2.61,6.74.18-.44-2.83,6.68.18-.44a306.44,306.44,0,0,1-15.48,29.63c-3.07,5.13-6.48,9.85-10,14.67-2.73,3.74-5.37,7.54-8.35,11.09a114.13,114.13,0,0,1-8.06,8.83c-1.76,1.69-3.61,3.29-5.35,5a97.07,97.07,0,0,0-11.83,14.52l3.6-4.62a102.33,102.33,0,0,0-8.83,10.88c-3,4.48-6.57,10.12-6.54,15.76a5.65,5.65,0,0,0,.47,2.5,27.8,27.8,0,0,0,2.81,9.57q1.33,1.83,2.85,3.53c1,1.16,2,2.26,3.1,3.32,7.79,7.13,19.81,7.14,29.65,6.24,6.54-.6,13-1.91,19.46-2.77,3-.37,5.92-.65,8.89-.86a58.17,58.17,0,0,1,8.12.71c1.84.22-1.71-3.05-1.45-2.79q-2-2-4.19-3.84A7.78,7.78,0,0,0,494.15,293.13Z"/>
    <path class="cls-1" d="M494.61,285.11c-9.67-.07-19,2.18-28.47,3.74a98,98,0,0,1-14.49,1.53,38.28,38.28,0,0,1-8.55-.69,17.27,17.27,0,0,1-11.38-7.1l3.08,4.88-4.89-10.24,1.72,5.81a22.22,22.22,0,0,1,.15-12.16A38.39,38.39,0,0,1,435,263c7.13-13.7,19.2-24.53,32-33,9.11-6,16-14.36,22.32-23.15a202.93,202.93,0,0,0,23.76-43.43,179.58,179.58,0,0,0,6.74-19.8c2.38-8.8,4.24-18.08,4.36-27.23.19-14.34-2.33-28.7-9.45-41.32a73.64,73.64,0,0,0-14.52-18c-7.2-6.56-15.67-12.41-25.08-15.28A36.23,36.23,0,0,0,463.92,40l-6.07.85A36.85,36.85,0,0,0,446.3,45.7a52.59,52.59,0,0,0-9.55,9.54A38,38,0,0,0,430,66.88l-2.37,6.2c-2.67,7.42-3.92,15.19-5,23-.76,5.61-1.35,11.25-2,16.87a128.54,128.54,0,0,1-2.09,13.79c-1.06,4.54-3.1,8.49-5,12.72a324.09,324.09,0,0,1-17,32.68c-12.28,20.5-27.22,39.7-45.36,55.36a163.73,163.73,0,0,1-32.91,22.26c-9.65,4.89-20.12,9.11-30.82,11a80.67,80.67,0,0,0-8.74,1.53q-4.95,1.06-9.79,2.46c-5.63,1.54-11.25,3.14-16.86,4.75-15.47,4.45-31,8.7-46.74,12-15.92,3.36-32.14,5.68-48.44,5.8a100.91,100.91,0,0,1-24.31-2.5,60.84,60.84,0,0,1-10.37-3.42A31.19,31.19,0,0,1,105.5,266.3l1.52,3.39-3.13-7.61,1.83,5.67c-8.71-32.16,9.49-53.19,21.36-77.48,4.73-9.67,8.87-20.14,10-30.94,1-9.14.3-18.51-.35-27.65A272.81,272.81,0,0,0,133,100.33a132.44,132.44,0,0,0-6.45-23c-3.9-10.11-9.13-19.67-17.42-26.85a55.43,55.43,0,0,0-14-8.57,63,63,0,0,0-14.42-4.55,39.25,39.25,0,0,0-15.12-.11L59.22,39A29.94,29.94,0,0,0,49.84,44,57.71,57.71,0,0,0,35.69,57.59L30.8,64.73l-3.73,7.45a52.84,52.84,0,0,0-4.41,18.65,35.37,35.37,0,0,0,.42,11L24.6,109a54.11,54.11,0,0,0,7.78,16.18,65.9,65.9,0,0,0,11.8,13.2,70.28,70.28,0,0,0,24,13.24,80.92,80.92,0,0,0,33.88,3c8.39-1,16.6-3,24.94-4.29a50.47,50.47,0,0,1,11.18-.79l7.44,1.45a30.38,30.38,0,0,1,14,10.38c.62.65,1-.14,1-.69-.16-1.11-1.61-2.65-2.4-3.38a59.49,59.49,0,0,0-7.54-6.41A30.49,30.49,0,0,0,139,146.05c-6.54-1.21-13.37-.1-19.8,1.15-5.24,1-10.48,2.1-15.77,2.87-17.78,2.59-37.19-.93-52.1-10.88a58.6,58.6,0,0,1-14.08-13.67,51.64,51.64,0,0,1-8.73-17.73,49.35,49.35,0,0,1-1-20L29,80.94a54.94,54.94,0,0,1,4.7-10.18,37.18,37.18,0,0,1,7-9.92l5.22-5.51a59.77,59.77,0,0,1,12-7.45l6-1.77c10.69-2.65,21.86.53,31.12,6,4.95,2.92,9.66,6.23,13.35,10.7a75.48,75.48,0,0,1,9.23,15l-.17-.42,2.51,6.12-.16-.42,2.55,6.82-.16-.42,2.13,6.62a86.2,86.2,0,0,1,1.93,9.38c.84,5,1.35,10,1.92,15,.91,8,1.52,15.93,1.91,23.92.16,3.42.26,6.82.3,10.24A74.57,74.57,0,0,1,129,169c-1.9,10.51-5.73,20.45-10.13,30.15-5.8,12.77-12.8,25.26-15.72,39.11-1.45,6.86-2.25,14.08-1.24,21.05a42.88,42.88,0,0,0,2.68,9.59,30.64,30.64,0,0,0,8.7,11.63,42.33,42.33,0,0,0,13.91,7.64c10.28,3.68,21.63,4.48,32.45,4.37,19.92-.2,39.67-3.89,59-8.51,10.23-2.44,20.35-5.33,30.43-8.33,10.32-3.07,20.58-6.46,31-9.31,5.18-1.41,10.4-2.52,15.63-3.7s10-3.41,14.78-5.45a156.24,156.24,0,0,0,17.87-9c28.11-16.46,50.06-40.89,67.56-68.08a310.75,310.75,0,0,0,22.21-42,80.44,80.44,0,0,0,4-9.8,55.74,55.74,0,0,0,1.45-6.42c1.07-6.25,1.68-12.57,2.44-18.86,1-8.57,1.92-17.54,4.87-25.69l1.07-3a81.36,81.36,0,0,1,5.18-10.92,50.36,50.36,0,0,1,8.56-8.58l4.74-3.29,5.19-1.66a29.29,29.29,0,0,1,13.51-.63,39.45,39.45,0,0,1,9.31,3.38l2.4,1.2a43.05,43.05,0,0,1,10.27,7.51,86.35,86.35,0,0,1,10.47,10.65,66.13,66.13,0,0,1,10,17.66l2,6.22,2.7,26.33a93,93,0,0,1-1.75,12.93,152.7,152.7,0,0,1-10,32.05,254,254,0,0,1-11.92,24.15,211.93,211.93,0,0,1-16.8,25.17,88.56,88.56,0,0,1-10.17,11.2,62.31,62.31,0,0,1-10.31,8.34c-.77.6-1.52,1.21-2.25,1.85a123,123,0,0,0-13.86,13.63,64.9,64.9,0,0,0-5.56,7.15c-1.73,2.71-3.61,5.69-4.39,8.82-.84,3.33-1.6,6.72-.71,10.12.38,1.43.86,2.88,1.36,4.27,1.22,3.33,4.16,6.25,6.27,8.76,3,3.54,8,4.64,12.4,5.33,7.64,1.19,15.7-.08,23.27-1.18,4.16-.6,8.3-1.36,12.48-1.91,2.34-.33,4.68-.59,7-.8a50.59,50.59,0,0,1,7.78.4c1.45.13-.31-2.23-.44-2.42-.79-1.18-1.62-2.32-2.5-3.44A4.43,4.43,0,0,0,494.61,285.11Z"/>
    <path class="cls-1" d="M495.84,295c-11,.28-21.82,2.74-32.67,4.33l.56-.07c-4.59.5-9.36,1.09-14,.69l-4.18-.49a21,21,0,0,1-9.14-3.71l4.85,4.34-7.32-6.8,6.8,7.52L432,290.22l7.23,10.28-8.5-13.64,5.75,11.06-6.25-14.87,4,11.38-3.73-15.35,2.2,11.69-1-13.16.15,9.24,1.2-15.51-1.5,11.58L435,267.56l-3.19,11.17,5.46-14.92L432.5,274.6l7.3-14.4L435,268.35l7.53-11.7-3.64,4.91a103.83,103.83,0,0,1,12.28-14.5q6.64-5.44,13.64-10.46a89.89,89.89,0,0,0,14.42-15.14,207.88,207.88,0,0,0,23.44-37.65c14.15-29,24.42-64.66,9.75-95.5a68.37,68.37,0,0,0-15.06-20.56c-6.65-6.25-14.52-12-23.27-14.86a29.15,29.15,0,0,0-15-1.19,29.63,29.63,0,0,0-9.81,3.93A43.7,43.7,0,0,0,441,63.34a36.71,36.71,0,0,0-6.42,10q-2.6,5.4-4.67,11a134.7,134.7,0,0,0-3.86,16c-2.11,11.28-2.91,22.76-5.62,33.93l.19-.67a155.72,155.72,0,0,1-6.07,14.94A293.22,293.22,0,0,1,400,176.66a234.45,234.45,0,0,1-37.55,49.51,170.17,170.17,0,0,1-49.33,34.66,72.07,72.07,0,0,1-16,5.73,64,64,0,0,1-10.48,2.6c-4.79,1-9.53,2.39-14.23,3.76-25.82,7.47-51.61,15.61-78.17,20.07a218.26,218.26,0,0,1-37.82,3.49A111.36,111.36,0,0,1,138,294.91c-12.4-2.18-22.76-6.23-31.11-17.48l3.23,5.29-5.26-9.32,4,8.78L103.39,269l3,9.11-3.81-13.81,1.83,9.25-2.08-14.34.65,9.39L102.59,254l-.29,6,1-12.37-1,5.9,4.12-18a88.29,88.29,0,0,1,5.07-12.05c2.29-5,4.7-9.83,7.15-14.72,4.41-8.82,8.61-17.83,11.36-27.33a92.16,92.16,0,0,0,2.76-13.06,86.14,86.14,0,0,0,.44-13.81c-.18-8.58-.69-17.16-1.55-25.69a213.41,213.41,0,0,0-4.53-28.46,96.6,96.6,0,0,0-10.75-27.28,55,55,0,0,0-7.44-9.8,47.12,47.12,0,0,0-12.55-9c-7.38-3.76-15.76-7.11-24.2-6.83A38.42,38.42,0,0,0,61,49.42a43.22,43.22,0,0,0-11.13,6c-5.09,3.62-9,8.42-12.59,13.44a28.37,28.37,0,0,0-4.13,6.62A33.2,33.2,0,0,0,30,82.26a52,52,0,0,0-3.77,17.06A56.76,56.76,0,0,0,27.5,112.7,49.1,49.1,0,0,0,34,128a58.48,58.48,0,0,0,8.11,10.48,65.21,65.21,0,0,0,24.82,15.85,75.12,75.12,0,0,0,29,3.82c8.32-.44,16.45-2.19,24.67-3.43a92.67,92.67,0,0,1,9.41-1,41,41,0,0,1,12.53,1.5l-.68-.24,4.52,1.81-.68-.28a26.65,26.65,0,0,1,5.47,3.47,29.8,29.8,0,0,1,5.25,4.66c.56.54.75.38.61-.34l-.75-1.83c-1.06-2.08-2.17-4.12-3.32-6.14-1.74-3.13-3.5-6.25-5.36-9.32-.73-1.21-1.56-3-2.86-3.73a49.79,49.79,0,0,0-9.24-4.26,46.79,46.79,0,0,0-9.18-2,101.25,101.25,0,0,0-15.38-.22c-5,.23-10,.68-15.07.73a79.06,79.06,0,0,1-17.36-1.69c-11.63-2.49-22.5-8.61-29.35-18.5A38.16,38.16,0,0,1,43,103.47a33.36,33.36,0,0,1,2.05-19.19,66.42,66.42,0,0,1,3.26-6.81,46.47,46.47,0,0,1,7.15-9.06,28,28,0,0,1,8.09-5.87,21.91,21.91,0,0,1,7.78-2.09c10.18-.32,19.4,5.52,26.58,12.24,4.34,4.06,7.32,9.18,9.86,14.5A99.59,99.59,0,0,1,111.94,98a114.38,114.38,0,0,1,4,12.89c1.44,6.68,1.31,13.53,2,20.3.85,8.87,1.32,17.81,1.41,26.72a126.2,126.2,0,0,1-.77,17.5,142.6,142.6,0,0,1-5,22.25c-4.87,16.44-12,32.43-13.6,49.66a62.83,62.83,0,0,0,1.49,22.37,51.88,51.88,0,0,0,4.48,11.21c6.18,11.41,18.54,17.82,30.71,20.68,15.82,3.73,32.58,3.21,48.6,1.37,19.45-2.23,38.59-6.68,57.4-12.06,7.93-2.26,15.81-4.74,23.67-7.26,6.87-2.2,13.85-4.06,20.67-6.39,5.88-2,11.76-4,17.61-6.14a181.74,181.74,0,0,0,32-14.89c26.1-15.57,47.57-37.75,64.63-62.76a314.12,314.12,0,0,0,21.72-37.6c5.19-10.45,10.07-21.43,13-32.77,2.57-9.86,3.29-20.14,5.6-30.06a62.06,62.06,0,0,1,5.45-14.9,41.52,41.52,0,0,1,4.25-6.53l2.55-2.85a14.58,14.58,0,0,1,4.91-3.29l-.5.16c1.55-.49,3.13-.9,4.72-1.25a7.53,7.53,0,0,1,4-.15l-.51-.15a31.19,31.19,0,0,1,4.81,1.6A12.51,12.51,0,0,1,475.3,68a50.13,50.13,0,0,1,9,7.29,89.59,89.59,0,0,1,10,11.81,53.94,53.94,0,0,1,7.06,16,75.24,75.24,0,0,1,2.23,17.48,79.52,79.52,0,0,1-.82,16.61,157.1,157.1,0,0,1-10.55,33.52,293.26,293.26,0,0,1-15,29.65A151.93,151.93,0,0,1,467,216c-3.38,4.51-6.54,9.17-9.89,13.71-4.49,6.09-9.48,11.82-13.94,17.93-5.1,7-8.53,15-11,23.26l1.59-3.3a12.92,12.92,0,0,0-2.27,5.95,76.84,76.84,0,0,0-1.07,9.21l.11,7a8.82,8.82,0,0,0,1.22,2.26c1.79,2.8,3.71,5.53,5.74,8.16,3.82,4.93,10.82,7.34,16.79,8.19,9.49,1.37,19,.16,28.45-1l-.56.07c3.35-.4,6.71-.8,10.07-1.18l-.57.05,4.89-.23-.57,0,4.78-.08h3.69l-.56,0,4.08.28a2,2,0,0,0-.86-1.62c-1.51-1.58-3.08-3.1-4.69-4.57s-3.22-3-4.9-4.35A2,2,0,0,0,495.84,295Z"/>
    <path class="cls-1" d="M496.07,292.15c-8.59.14-17,1.74-25.46,3.12-4.05.66-8.15,1.34-12.25,1.62a69.11,69.11,0,0,1-13.33-.41l.8.2-4.68-1.2.79.23a18.17,18.17,0,0,1-8.84-6l15.25,18.95L430.1,283.08l11.25,21.4L430.16,275.4l5.6,23-4-24.68,2,21-.68-24.83-.81,21.16,2.5-24.84-3.49,20.56,5.48-24.29-6.08,20.07,11.53-29.23L431,273.42l16.85-26.7-3.93,5.07,8.36-9.36c2.14-1.88,4.33-3.68,6.59-5.39a76.27,76.27,0,0,0,7.55-6.36,138.33,138.33,0,0,0,12.7-14.86,220,220,0,0,0,28.67-51.24c7.85-19.92,12.93-41.89,8.64-63.25a67.87,67.87,0,0,0-12.8-28.09,73.51,73.51,0,0,0-13.49-13.41,61.33,61.33,0,0,0-14.62-8.47,34.08,34.08,0,0,0-10.14-2.43,14.22,14.22,0,0,0-7.35.69l-4.81,1.68-4.69,2.55-3.9,3.75a44.4,44.4,0,0,0-7.91,11.3,119.47,119.47,0,0,0-8.08,22.54c-1.94,7.65-2.91,15.58-4.14,23.36a99.73,99.73,0,0,1-3.34,15.91,17.74,17.74,0,0,1-1.53,3.69l-4.22,9.94c-2.89,6.48-6.09,12.83-9.4,19.1a252.56,252.56,0,0,1-29,43.79q-6.63,7.92-13.87,15.3a208.31,208.31,0,0,1-23.3,19.78l.68-.46-9.11,6.08.69-.42L322.59,253l.72-.39-9.82,4.91.73-.35L304,261.48l.75-.31A35.07,35.07,0,0,1,291.53,265q-3.3.57-6.55,1.43c-5.12,1.27-10.19,2.73-15.26,4.23-13.45,4-26.93,8-40.5,11.58a400.7,400.7,0,0,1-42.29,8.94c-6.91,1.05-13.88,1.74-20.86,2.15a150.77,150.77,0,0,1-25.67-.88l.8.14-6.61-1.18.81.17L129.12,290l.79.2a59.39,59.39,0,0,1-12.13-5.07,19,19,0,0,1-4-2.74,26.46,26.46,0,0,1-7.68-8.56l3.49,5.76-4.38-7.89,6.87,15.88-8.44-20.24,6.56,20.76-8.4-32.51L104,274.74l-1.62-22.24-.13,17.05.57-23.39-2,16.86,3.09-23-2.3,10.41,5.86-22.23q3.21-8.31,7.1-16.29c1.84-3.84,3.68-7.67,5.45-11.53a156.71,156.71,0,0,0,8.5-22,96.58,96.58,0,0,0,2.75-13.15,88.49,88.49,0,0,0,.46-13.81c-.15-8.53-.61-17.07-1.44-25.57a210.21,210.21,0,0,0-4.52-28.57c-2.24-9.36-5.58-18.81-10.6-27.06a54,54,0,0,0-7.42-9.78,45.77,45.77,0,0,0-12.55-8.84c-7.39-3.65-15.66-6.87-24.07-6.43a36.12,36.12,0,0,0-10.92,2.18,41.06,41.06,0,0,0-10.6,6.17c-4.75,3.64-8.33,8.24-11.73,13.08A60.84,60.84,0,0,0,31,79.47a32.55,32.55,0,0,0-2.73,9.81l-.67,6.53A54,54,0,0,0,29,108.47a47.46,47.46,0,0,0,6.27,14.37A56.7,56.7,0,0,0,43,132.69a62.06,62.06,0,0,0,23.58,15.14,73.72,73.72,0,0,0,27.83,4c8.09-.29,16-1.85,24-2.92,3.09-.41,6.18-.76,9.3-.88a44.4,44.4,0,0,1,12.52,1.48l-.76-.25,4.63,1.76-.75-.28a26.58,26.58,0,0,1,5.58,3.31,31,31,0,0,1,5.41,4.5c.63.56.8.4.59-.38l-1-2q-2-3.31-4-6.54c-2.11-3.33-4.25-6.65-6.47-9.91-.8-1.18-1.91-3.31-3.32-4l-4.89-2.23a62.05,62.05,0,0,0-9.93-2.62,85,85,0,0,0-13.53-1.17c-6.71-.12-13.42.22-20.12-.29-15.08-1.13-31.23-7.07-37.77-21.77a26.37,26.37,0,0,1-2.32-9.19,24.8,24.8,0,0,1,1.45-9.17l1.05-3,1.83-3a36.23,36.23,0,0,1,8-9.38,17.31,17.31,0,0,1,8.64-4,14.06,14.06,0,0,1,7.25.88,35.92,35.92,0,0,1,5,2.65l5.27,4c1.88,1.73,3.7,3.54,5.44,5.41,5.2,6.35,7.92,14.55,10.38,22.25l1.9,6a44.28,44.28,0,0,1,2.36,12l.29,5.64a85.17,85.17,0,0,0,.57,11.51c.63,9.28,1,18.67.69,28a113.51,113.51,0,0,1-1.42,15.06c-1.46,8.79-3.9,17.39-6.21,26-5.19,19.31-10.76,40.24-5.25,60.14,1.7,6.16,4.09,12.3,8,17.39a50.43,50.43,0,0,0,13.82,12.54,56.27,56.27,0,0,0,12.32,5.58C139,306.75,144.9,307.43,151,308a180,180,0,0,0,32.83-.09,292.28,292.28,0,0,0,43.25-7.64c14.32-3.5,28.42-7.8,42.37-12.51,6.29-2.12,12.56-4.27,18.9-6.23,5.63-1.75,11-3.82,16.49-6.08,9.22-3.83,18.46-7.91,27.27-12.59,38.71-20.57,67.87-55,88.74-93,8.94-16.27,16.91-33.25,22-51.16.84-3,1.37-5.94,2-8.93.75-3.35,1.65-6.69,2.53-10,1.5-5.68,3.19-11.45,6.39-16.44l1.71-2.11a38.88,38.88,0,0,0,3.2-3.59,12.27,12.27,0,0,1,3.57-2.57,2.33,2.33,0,0,1,1.94-1.34l1.56.16a1.9,1.9,0,0,1,1.89-.28l.73.13a18.52,18.52,0,0,0,3.37,2l1.87,1.66A25.49,25.49,0,0,1,478.79,82l3.08,3.7a40.15,40.15,0,0,1,6.56,8.67c4.45,7.53,6.49,16.13,7.05,24.82l.1,5.58a96.17,96.17,0,0,1-.46,12.59c-1,6.9-3.29,13.75-5.59,20.3A247,247,0,0,1,471.8,196c-3.14,5.61-6.36,11.25-10,16.53l-3.5,4.87a99.5,99.5,0,0,0-6.72,9.6c-3.09,4.67-6.31,9.28-9.32,14-3.28,5.13-6.66,10.4-8.82,16.13a63.52,63.52,0,0,0-4.33,22.45l.52,2.1q1.69,5.13,3.59,10.18t3.89,10.07l1,1.93a20.1,20.1,0,0,0,4.09,3.47c4.6,3.37,10.35,5.26,15.92,6.23,9.09,1.58,18.54.8,27.66-.05,4.61-.42,9.26-1,13.89-1.15a125.93,125.93,0,0,1,15.29.71,4.67,4.67,0,0,0-1.53-2.59q-3.58-4.26-7.33-8.38T498.48,294A4.61,4.61,0,0,0,496.07,292.15Z"/>
    <path class="cls-1" d="M496.31,293.16c-12.61.44-25,3.62-37.48,5l.56,0a64.92,64.92,0,0,1-11.24-.09,16.18,16.18,0,0,1-4-.73,18.36,18.36,0,0,1-8.33-4l3,2.62-4.36-4.34,6.31,7.93-8.22-11,5.39,8.51-6.64-11.91,5.24,11.57-5.69-15.41,3.55,11.92-3.2-15.92,1.75,12.25-.67-16.12-.08,12.23,1.7-16.13-1.9,12.21,3.92-16-3.59,11.82L438.21,262,433,273.47l7.75-15.06-5.13,8.7,7.9-12.22-3.84,5.25a96.7,96.7,0,0,1,12.6-14.77,61.43,61.43,0,0,1,10.32-8,79.59,79.59,0,0,0,13.94-12.82,183.66,183.66,0,0,0,21.09-30.5c8.89-15.83,16.53-33,20.37-50.8,3.37-15.6,4.18-31.83-.6-47.26a68.44,68.44,0,0,0-13.76-24.66,62,62,0,0,0-8.42-8.1,61.25,61.25,0,0,0-9.58-7.13c-6.23-3.75-13.53-7-21-6.83a28.78,28.78,0,0,0-19.2,8.25c-9.86,9.3-15,22.81-17.74,35.8-2.52,11.84-3.29,24-5.64,35.86l.13-.61-.9,3.78.14-.6a151.43,151.43,0,0,1-6.05,15A293.71,293.71,0,0,1,400.87,175a242.35,242.35,0,0,1-37.58,49.57,171.42,171.42,0,0,1-49.44,34.71,118.22,118.22,0,0,1-26.53,8.35c-5.74,1.17-11.38,2.89-17,4.53-26.07,7.59-52.15,15.52-79,19.81-13.45,2.14-27.09,3.46-40.71,2.68a92.18,92.18,0,0,1-17.72-2.59,53.67,53.67,0,0,1-7.92-2.44q-12.87-4.67-19.59-17.95l2.38,5.78L104,267.23l2.63,9.58-3.41-14.3,1.5,9.74L103,257.41l.32,9.9V252.17l-.48,6.31,4.44-24.77,2.24-5.79c2.87-7.18,6.71-14.08,10.21-21,4.46-8.81,8.67-17.82,11.43-27.33a82.42,82.42,0,0,0,3.24-24.44q-.19-12.54-1.35-25.07c-1.76-19.24-4.81-38.94-14.21-56.1-4.54-8.28-10.69-15.4-19-20.17-7.36-4.23-16-7.5-24.46-8A34.71,34.71,0,0,0,64.31,47a20.14,20.14,0,0,0-5.64,2,18.27,18.27,0,0,0-5.56,3A42.53,42.53,0,0,0,45,58.35L40.15,64a66.85,66.85,0,0,0-8.26,13.26,53.91,53.91,0,0,0-4.66,17,47.74,47.74,0,0,0,.52,13.34A54.92,54.92,0,0,0,40.5,134.24c12.4,14.29,31.14,21.95,49.87,22.26,8.75.15,17.24-1.17,25.85-2.6,4-.67,8.1-1.34,12.2-1.66a56.56,56.56,0,0,1,10.88.29l-.67-.14,4.63,1.12-.67-.17a28.81,28.81,0,0,1,7.48,3.59,39.22,39.22,0,0,1,7,5.95c.61.54.81.42.59-.38a25.85,25.85,0,0,0-2.59-4.8q-2.72-4.48-5.58-8.88a25.84,25.84,0,0,0-3.21-4.42,50.86,50.86,0,0,0-5-2.84c-1.42-.61-2.93-1.2-4.39-1.72a49.88,49.88,0,0,0-13.85-2.6c-11.65-.75-23.25,1.92-34.92,1-11.15-.86-22.74-4-31.49-11.32a44.78,44.78,0,0,1-10.58-12.47,36.09,36.09,0,0,1-4.61-17.11c-.27-12.16,6.61-23.83,15.61-31.57a28.38,28.38,0,0,1,6.26-4.18,23.56,23.56,0,0,1,8-2.12c5.06-.32,10,1.28,14.52,3.42a51.14,51.14,0,0,1,12.43,8.92c4.37,4.07,7.4,9.21,10,14.55a101,101,0,0,1,4.2,10.75c1.43,4.16,3.16,8.54,4,12.84a84.23,84.23,0,0,1,1.23,8.92c.21,1.87.34,3.75.37,5.63a74.46,74.46,0,0,0,.72,9q.84,10.36,1.1,20.78a164.16,164.16,0,0,1-.23,17c-1.25,16.11-7.45,31.49-12.46,46.69-4.75,14.43-8.55,29.3-6.63,44.6a46.32,46.32,0,0,0,6,18.2,41.81,41.81,0,0,0,14.29,13.79c6.43,3.93,14,5.8,21.35,7a138.39,138.39,0,0,0,18.52,1.67c18.81.46,37.81-2.75,56.1-6.84,16.44-3.68,32.56-8.51,48.6-13.63,6.82-2.18,13.77-4,20.55-6.3,6.52-2.21,13.06-4.41,19.54-6.75a168.13,168.13,0,0,0,34.38-16.52,191,191,0,0,0,32.91-26.53c20.16-20.55,36.23-44.62,49-70.39,4.88-9.9,9.47-20,12.57-30.65.6-2.08,1.09-4.17,1.51-6.29,1.05-5.28,1.91-10.6,2.78-15.91A160.6,160.6,0,0,1,442.64,85l-.22.52c2.66-6.31,5.64-12.93,10.78-17.69A15.92,15.92,0,0,1,460,64c2.29-.61,4.57-1.34,7-.83a22.54,22.54,0,0,1,7.18,2.92,53.84,53.84,0,0,1,8.56,6.21c7.29,6.94,14,14.91,17.52,24.47a71.75,71.75,0,0,1,3,11.15,91,91,0,0,1,1.18,15.2,80.8,80.8,0,0,1-.24,10.2l-1.08,6a144,144,0,0,1-4.14,15.27,217.05,217.05,0,0,1-12.82,30.43A214.42,214.42,0,0,1,469.78,213c-2.77,3.87-5.64,7.65-8.39,11.54-2.12,3-4.28,5.92-6.51,8.82-4.33,5.63-9.22,10.87-13.12,16.82a74.1,74.1,0,0,0-9.07,19.74l-2.83,14.49a9,9,0,0,0,.78,2.47c1.08,2.7,2.27,5.41,3.57,8a14.37,14.37,0,0,0,3.36,4.71,27.31,27.31,0,0,0,8.3,5.5c6.77,2.68,14.2,3.16,21.41,2.75,5.82-.34,11.59-1.12,17.37-1.81a120,120,0,0,1,22.89-.88,1.9,1.9,0,0,0-.74-1.66c-1.39-1.66-2.83-3.28-4.32-4.84s-3-3.14-4.56-4.63A1.91,1.91,0,0,0,496.31,293.16Z"/>
    <path class="cls-1" d="M491.62,292.06a27.73,27.73,0,0,0-3.73.89,123,123,0,0,1-13.7,2.61c-5,.88-10,2-15,2.66a67,67,0,0,1-9.49.71l-4.43-.16-16.51-19.23c1.32-5.91,4.54-11,8.38-15.67a112,112,0,0,1,9.27-9.72c5.12-4.88,10.62-9.66,16.81-13.1,3.43-1.91,3.65-1.7,7-4A57.54,57.54,0,0,0,481,227a184,184,0,0,0,22.2-33.2A198.87,198.87,0,0,0,520.11,152c6.18-22.72,6.37-48.16-5.71-69a77.72,77.72,0,0,0-15-18.2A87.17,87.17,0,0,0,485.5,54.59a48.68,48.68,0,0,0-20.78-6.46,17,17,0,0,0-3-.13,38.22,38.22,0,0,0-11.84,3.36,32,32,0,0,0-10.11,7.47c-7.89,8.07-12.14,18.84-14.9,29.59-3.06,11.94-3.92,24.26-5.43,36.45a96.26,96.26,0,0,1-2.25,13.18,23.19,23.19,0,0,1-2.26,5.93q-4.21,9.68-9,19.09c-10.95,21.53-24.3,42.32-41.06,59.82a196,196,0,0,1-22.45,20.35,159.82,159.82,0,0,1-16.6,11.15,150.18,150.18,0,0,1-37.05,15.49l1.39-.27A90.65,90.65,0,0,0,277,271.38c-7,1.53-14,3.58-20.92,5.57-17.47,5-35,9.94-52.79,13.56-18,3.65-36.55,6.36-54.95,5.31a104.21,104.21,0,0,1-12.2-1.38q-22.75-2.61-33.22-24.5c-1.3-4.87-1-9.72-.5-14.65,1.19-10.51,4.82-20,9.7-29.28,3.9-7.36,8.36-14.41,12.33-21.74,7.33-13.57,13.09-28.27,13.23-43.9.06-6.88-.41-13.84-.89-20.7-.58-8.41-1.46-16.81-2.81-25.14-2.63-16.2-7-33.07-16.7-46.57a50.52,50.52,0,0,0-11.42-11.83A55.23,55.23,0,0,0,94,49.63c-7.66-3.26-15.76-5.47-24.15-5A42.35,42.35,0,0,0,45,54.94,60.16,60.16,0,0,0,34.34,66.68a65.37,65.37,0,0,0-11.6,25.85,54.12,54.12,0,0,0-.47,18.91,52.75,52.75,0,0,0,4.06,14C33,140.7,46,152.75,61.23,159.28a76.14,76.14,0,0,0,27.33,5.87c8.44.26,16.77-.94,25-2.49,7.9-1.49,15.94-3.71,24.05-3.15a26.16,26.16,0,0,1,7.81,1.58,37,37,0,0,1,13.08,9.69c1.08,1.1,1.22-.11.84-1.12-.67-1.76-1.53-4.14-3-5.4-3.35-2.89-6.71-5.77-10.76-7.65-6.31-2.92-13.06-3.05-19.84-2.27-8.84,1-17.5,3.19-26.37,3.94a79.94,79.94,0,0,1-34.34-4.2,67.5,67.5,0,0,1-24.17-15.47c-12.37-12.15-19.21-32.43-14.8-49.34A68.29,68.29,0,0,1,31.58,75L35.86,68l77.79-1.58L115.52,69a73.55,73.55,0,0,1,7.71,14.23c4.68,11.24,7.2,23.28,8.89,35.29a297.74,297.74,0,0,1,2.61,30.12c.16,4,.39,8.12.33,12.17a83.47,83.47,0,0,1-1.49,13.66c-2.28,12.51-8.12,24.21-14.16,35.27-5.87,10.74-12.83,21.36-16,33.3a70.8,70.8,0,0,0-2.91,19.48,31.19,31.19,0,0,0,4.55,15.9c5.44,9,16.18,14.24,26.05,16.66,18.34,4.49,37.81,3.06,56.29.31,24.1-3.58,47.6-10.11,71-16.92,4.6-1.34,9.2-2.66,13.82-3.93a92.76,92.76,0,0,1,15.33-3.26,36.31,36.31,0,0,0,3.64-.3,93,93,0,0,0,10.49-3.3c32.59-11.16,59.95-34.45,80.7-61.46a280.36,280.36,0,0,0,27.83-44.89c3.19-6.36,6-12.82,9-19.3a36,36,0,0,0,2.13-5.43c1.75-5.91,2.28-12.18,2.86-18.3.76-8.14,1.25-16.32,2.56-24.4l1-5.27a103,103,0,0,1,3.26-11.83l9.81-12.09q4.4-11.69,15.4-14.18L508.55,78q13.16,20.49,12.67,43.11a101.63,101.63,0,0,1-1.47,17.14c-3.8,22.59-13.51,44-25,63.68-5.82,9.93-12.33,19.77-20.22,28.2a46.69,46.69,0,0,1-9.88,8.13A109.87,109.87,0,0,0,452.2,247a132.51,132.51,0,0,0-16.31,15.91,41,41,0,0,0-7.36,11.64c-1,2.74-2.07,5.92-1.92,8.86a18.84,18.84,0,0,0,4.48,10.87c2.82,3.1,6.65,4.71,10.59,5.74,7.46,1.94,15.88.76,23.33-.49,3.33-.56,6.62-1.32,9.94-1.92s6.8-1,10.22-1.38a38.24,38.24,0,0,0,6.68-2.38C492.9,293.5,492.63,291.83,491.62,292.06Z"/>
  </g>
</svg>
