<svg id="Layer_1" data-name="Layer 1" xmlns="http://www.w3.org/2000/svg" viewBox="0 0 211.25 158.95">
  <defs>
    <style>
      .cls-1 {
        fill: #adadad;
      }

      .cls-2 {
        fill: #e08b00;
      }

      .cls-3 {
        fill: #ffa007;
      }
    </style>
  </defs>
  <title>uxprototypelogo</title>
  <path id="Path_4" data-name="Path 4" class="cls-1" d="M124.55,142.05s13.28,14,29.23,16.2,22.5-1.15,35.22-6.43,16.77-12,19.27-15.47,4.64-7.69,1.62-14.87-6.94-9.13-17.21-14.8-23.84-7.9-23.84-7.9l-4.81,7.9s15.87,2.13,24.35,7.4,10.14,6.46,9.54,13.71S195.14,137,186,143.05s-11.44,10-24.67,8.76-28.25-13.6-28.25-13.6Z"/>
  <path id="Path_6" data-name="Path 6" class="cls-2" d="M14.78,71.08c1,14.5,8.94,28.24,14.68,36.37s23.45,21.61,32.36,25,28.45,6.31,38.93,3.74,20.69-5.79,33.75-15.06S149.13,105,153,99.05,164.3,72.79,160.4,63.8c-4.58-10.53-15.53-5-19.58-2.25s-15,12.66-27,15.12-16,4-28-5.59S69.39,55.43,61.83,48.52s-23.16-7.33-32.37-3.6S13.75,56.58,14.78,71.08Z"/>
  <path id="Path_7" data-name="Path 7" class="cls-1" d="M82.24,139.27c17.74,1.9,18.68,1.36,34.12-4.71s18.94-6,30.93-19.76,12.73-17.19,17-35.21,1.41-27,0-37.79,4.49-11.67,6.34-2.89,3.51,17.77,1.07,38c-2.62,16.18-10.47,31.54-16.16,38.79-12.56,16-15.1,16.92-33.06,24.19s-41.37,5.17-41.37,5.17-19.56-2.39-36.51-11.73-18.16-9.72-28.72-25.92-9.26-19.33-13.2-37S-.8,51.61,3.63,35.14l0-.12C10.77,19.56,12,14,17.88,5.59S28-1.28,26.26,7.3,15.15,24.58,10.77,39.91s-3.08,15.7,0,31.53,2.07,18,10.72,31.93S29.78,118.23,45.37,127,67.33,137.67,82.24,139.27Z"/>
  <path id="Path_8" data-name="Path 8" class="cls-3" d="M119.46,82.39c13.29-4.79,16.66-14.23,25-18.46s9.85-2.73,11.05-1.35,3.21.86,1.94,9.69S154.83,88,148.24,98s-15.2,12.29-21.61,11.81-13.32,1.31-23.27-5.94S85.94,91.3,89.75,86.21,106.16,87.18,119.46,82.39Z"/>
  <ellipse id="Ellipse_1" data-name="Ellipse 1" class="cls-3" cx="114.11" cy="47.97" rx="10.5" ry="10"/>
  <ellipse id="Ellipse_2" data-name="Ellipse 2" class="cls-3" cx="91.11" cy="31.97" rx="6.5" ry="6"/>
  <circle id="Ellipse_3" data-name="Ellipse 3" class="cls-3" cx="105.61" cy="16.97" r="4"/>
</svg>
