<svg id="Layer_1" data-name="Layer 1" xmlns="http://www.w3.org/2000/svg" viewBox="0 0 268.13 94.38">
  <defs>
    <style>
      .cls-1 {
        fill: #f392cc;
        opacity: 0.11;
      }
    </style>
  </defs>
  <title>webdokumentationssite</title>
  <g>
    <path class="cls-1" d="M123.65,13c.66,5.79,4.14,10.83,7.09,15.72s5.94,9.75,6.76,15.45l0-.35-.76,3.45,5.75-9.59L129.73,49.49l9.41-4.63-11.24,4,9-2.48-12.11,2.19,9.41-.85-13.1.39,7.89.6-13.75-1.37,5.89,1.2A111.25,111.25,0,0,1,95.84,40q-3.57-1.68-7.19-3.28c-4-1.78-8-3.46-12.05-5A88,88,0,0,0,56,27.09C40,25.3,17.3,26.78,12.69,45.91A26.11,26.11,0,0,0,12.1,53q-.67,5.27,4.3,8.77a55.41,55.41,0,0,0,13.84,13c10.53,7,24,8.94,36.36,8.13,9.78-.65,19.33-2.7,28.85-5,3.74-.88,7.48-1.76,11.25-2.51a188.8,188.8,0,0,1,20.77-3A159.76,159.76,0,0,1,147.16,72h-.36a161.07,161.07,0,0,1,19.73,1.91l10.2,1.91c7.65,1.65,15.09,4.24,22.71,6,8.2,1.9,16.37,3.32,24.8,2.76,6-.39,11.94-1.3,17.48-3.7a22.75,22.75,0,0,0,7.87-5.32,14.94,14.94,0,0,0,4.14-9.11c1-8.94-3.69-17.38-10-23.44-3.79-3.66-9.21-6.49-14-8.54a86.39,86.39,0,0,0-15.32-4.79,138.61,138.61,0,0,0-13.73-2.2c-12-1.41-24.12-2.12-36.19-2.84-9.68-.58-19.35-1.13-29-2q-8.62-.67-17.19-1.92a221.72,221.72,0,0,1-22.86-4.44,2.56,2.56,0,0,0,.68,1.47q1.65,2.52,3.41,5c1.15,1.65,2.33,3.27,3.54,4.88a2.69,2.69,0,0,0,1.16,1.13q11.42,2.61,23,4.19,11.29,1.55,22.66,2.5c11.28,1,22.57,1.77,33.85,2.78q8.92.86,17.85,1.61a17.27,17.27,0,0,1,9.08,1.58q3.79.89,7.48,2.11a43.78,43.78,0,0,1,5.65,2.15c6.93,3,14.33,7.29,17.09,14.73a15.78,15.78,0,0,1,.93,6.61,5.14,5.14,0,0,1-1.78,3.22A8.88,8.88,0,0,1,237,72.83a38,38,0,0,1-16,4c-10,.42-20-1-29.72-3.12-11.37-2.46-22.56-5.37-34.14-6.71a185.5,185.5,0,0,0-50.42,1C100.88,69,95,70.27,89.15,71.3c-4.63.82-9.26,1.62-13.94,2.19C66.15,74.62,56.78,74.84,48,72.16a45.32,45.32,0,0,1-9.65-4.31,49.17,49.17,0,0,0-5.6-4C30.79,61.92,28.92,60,27.09,58L24.58,54a10.41,10.41,0,0,1,1.25-5.36,13.78,13.78,0,0,1,5.4-6.45A25.39,25.39,0,0,1,41,39a68.28,68.28,0,0,1,12.54-.68,145.15,145.15,0,0,1,22.85,2.82q3.31.58,6.55,1.47a67.2,67.2,0,0,1,7.32,2.25c5.17,1.5,10.41,2.89,15.67,4a73.18,73.18,0,0,0,10.38,1.71,36,36,0,0,0,10.52-.08,28.38,28.38,0,0,0,9.83-2.81,1.69,1.69,0,0,0,.89-.91q1.29-1.95,2.47-4c.81-1.33,1.58-2.68,2.33-4a1.78,1.78,0,0,0,.38-1.22c-.61-11.27-10.34-20.49-9.63-32a1.79,1.79,0,0,0-1.18.55c-1.29.93-2.55,1.89-3.8,2.88s-2.49,2-3.7,3A1.77,1.77,0,0,0,123.65,13Z"/>
    <path class="cls-1" d="M123.88,14.83c.59,5.42,3.6,10.11,6.35,14.71,2.86,4.78,5.75,9.43,7.33,14.81l-.07-.36a8.7,8.7,0,0,1,.14,3.83l.91-2.76-1.26,3.41,4.1-8.49-6.51,10.27,6.28-7.36L130.68,50.6l8.19-5-9.21,4.06,6.14-2.44L125.06,50l8-1.69-11.59,1.19,8.37-.28-13.16-.41,8.19,1-13-2.22,6.39,1.76a115.31,115.31,0,0,1-21.58-7.63q-4.74-2.14-9.52-4.21c-4-1.69-8.14-3.33-12.32-4.68A90.25,90.25,0,0,0,48.94,28.6C41,28.46,33,29.17,25.76,32.54A22.1,22.1,0,0,0,15,43.3L13.4,47.4a33.28,33.28,0,0,0-.84,9.54,58.17,58.17,0,0,0,6.23,9A35.28,35.28,0,0,0,25.53,73a48.85,48.85,0,0,0,17.71,9.61C54.6,86,66.43,85.69,78,83.84c10.1-1.61,19.9-4.54,29.92-6.51a181.77,181.77,0,0,1,30.67-3.48,154.08,154.08,0,0,1,19.57.74,175.13,175.13,0,0,1,20.11,3.27l-.37-.09,7.86,2-.37-.1c11.07,3.12,22.41,6.8,34,7.07a65.47,65.47,0,0,0,17.31-1.88c5.25-1.31,10.41-3.56,14.09-7.64a15.52,15.52,0,0,0,3.78-7.43,21.86,21.86,0,0,0-1.49-12.4,33.49,33.49,0,0,0-7-10.8,42,42,0,0,0-10.83-8c-7.72-4.09-16.37-6.35-24.91-7.89-7-1.25-14.11-1.89-21.15-2.47-9.85-.8-19.72-1.39-29.59-2-9.63-.57-19.29-1.1-28.88-2.17l-11.44-1.4a221.62,221.62,0,0,1-22.86-4.41A1.65,1.65,0,0,0,97,19.5q1.3,1.88,2.7,3.69c.91,1.22,1.86,2.41,2.83,3.59a1.63,1.63,0,0,0,1,.78q8.56,2,17.28,3.3,8.51,1.45,17.1,2.31c11.29,1.23,22.64,1.95,34,2.87l11.36,1q12.14,1.15,24.29,2.17c2.85.93,5.71,1.69,8.58,2.56,7,2.11,14,5,19.71,9.73a21.17,21.17,0,0,1,6.14,8.36,7.3,7.3,0,0,1,1,3.81c.08,1.14.15,2.27.2,3.4-.8,4.23-4.77,6.38-8.34,7.94a40,40,0,0,1-15.68,2.85,118.65,118.65,0,0,1-26.86-3.1c-6.55-1.43-13.06-3-19.62-4.45a168.74,168.74,0,0,0-29.63-3.54,199.48,199.48,0,0,0-24.93.73c-8.21.73-16.14,2.5-24.22,3.94C86.53,72.69,79.32,74.22,72,75c-8,.86-16,.9-23.88-1a39.75,39.75,0,0,1-10.89-4.56q-2.31-1.74-4.6-3.51a15.31,15.31,0,0,1-4.13-4.13l-3.06-3.55q-3.55-3.14-2.09-7.31a18.73,18.73,0,0,1,3.32-6.5c3.69-4.48,9.48-5.95,15-6.76,7.47-1.09,15.25-.53,22.7.47A155.39,155.39,0,0,1,85,42.3l-.33-.1c5.73,1.91,11.51,3.65,17.36,5.15,3.51.9,7,1.75,10.61,2.31a42.71,42.71,0,0,0,5.29.66,34.92,34.92,0,0,0,12-.52l-9.2.18c4.11.67,8.5,2,12.7,1.48a7.15,7.15,0,0,0,2.6-.74c1.22-.5,2-2.48,2.65-3.54s1.42-2.25,2.11-3.39A13.71,13.71,0,0,0,142,41.35a18.35,18.35,0,0,0-.26-6.36,55.19,55.19,0,0,0-4.07-10.36c-2.65-5.7-6-11.69-5.6-18.16a1.64,1.64,0,0,0-1.07.66q-1.7,1.59-3.3,3.25c-1.09,1.1-2.16,2.22-3.19,3.37A1.67,1.67,0,0,0,123.88,14.83Z"/>
    <path class="cls-1" d="M119.91,14.26c.24.73.48,1.46.74,2.18a25.73,25.73,0,0,0,2.81,4.67c1.57,2.7,3,5.45,4.67,8.12s3.37,5.14,4.81,7.83a38.47,38.47,0,0,1,2.13,4.78,7.5,7.5,0,0,1-.36,7.18l.89-1.09c-2.15,1.68-4.72,2-7.69.85a36.7,36.7,0,0,1-5.69-1.12l-4-1.2a79.18,79.18,0,0,1-19.78-7.39c-9.36-4.62-18.65-9.71-28.77-12.51a91.08,91.08,0,0,0-23-3.26c-8.08-.09-16.23.76-23.6,4.29A25.58,25.58,0,0,0,11.27,39.47a17,17,0,0,0-2.2,7.1,27.75,27.75,0,0,0-.44,8.09A12.38,12.38,0,0,0,13.18,62a38.45,38.45,0,0,0,7.43,8.45,51.33,51.33,0,0,0,13.73,9.39c21.09,9.72,44.67,3.8,66-1.76a164.25,164.25,0,0,1,59.1-4.68,180.48,180.48,0,0,1,31.13,6.57c8.8,2.58,17.85,5.41,27.07,5.87A64.24,64.24,0,0,0,236.6,84c6.15-1.56,12-4.05,16.23-9a16,16,0,0,0,3-4.56c1.64-3.83,1.74-9,.87-13-2.89-13.45-14.49-22.36-26.6-27.17-13.61-5.4-28.41-6.49-42.85-7.63-11.87-.93-23.76-1.45-35.64-2.15q-17.22-.89-34.34-3.11A218.1,218.1,0,0,1,94.45,13c-.82-.19.33,1.46.33,1.45.47.76,1,1.5,1.49,2.23a3.61,3.61,0,0,0,.92,1.06A226.69,226.69,0,0,0,120,22q5.79.84,11.63,1.36c15.36,1.56,30.79,2.07,46.19,3.13,17.61,1.21,35.85,1.74,52.53,8.16,11.67,4.49,24.05,14.37,24.34,28q.43,8.79-7.27,14.94a32.92,32.92,0,0,1-5.71,3,46.88,46.88,0,0,1-9.65,2.76,66.82,66.82,0,0,1-12.48,1c-11.51-.07-22.56-3.93-33.51-7a166.55,166.55,0,0,0-37.43-6.13,174.68,174.68,0,0,0-29.8,1.56c-12.05,1.56-23.47,5.23-35.29,7.86A120.44,120.44,0,0,1,62.9,83.82a83.12,83.12,0,0,1-11.16-.29,38.07,38.07,0,0,1-17-5.07A30.61,30.61,0,0,1,24.06,72a45.11,45.11,0,0,1-9.18-10.45q-5.52-7.89-2.45-16a31.93,31.93,0,0,1,5.05-7.84c6.64-7.6,17-9.47,26.65-9.75a104.05,104.05,0,0,1,34.13,4.78c11.35,3.64,21.91,9.36,33.27,13,4,1.28,8.11,2.46,12.19,3.58,2.47.68,5.31,1.58,7.94,1.41,2.25-.15,3.82-1,4.68-3,1.7-3.93-.42-8.24-2.25-11.74s-4.26-6.91-6.21-10.46a22.75,22.75,0,0,0-4.55-7.77,18.63,18.63,0,0,1-2.29-4C120.82,13.28,119.8,13.92,119.91,14.26Z"/>
    <path class="cls-1" d="M120.74,19.49c.85,5.6,4.25,10.41,7.21,15.11,1.62,2.58,3.31,5.15,4.75,7.83,1.79,3.31,3.33,6.55,2.81,10.41l1-2.7L135,53.65l1.54-2.74c-3.34,2.93-7.07,3.18-11.26,2.53q-6.14-1.62-12.33-2.92a51.75,51.75,0,0,1-9.61-3.75C92,41.67,81.14,35,69,31.8a94.2,94.2,0,0,0-23-3.17c-9.28-.12-19.47,1.09-27.17,6.7a23.7,23.7,0,0,0-6.95,8.06,20.89,20.89,0,0,0-2.66,6.52,35.59,35.59,0,0,0-.7,10.65,73.26,73.26,0,0,0,9.26,13,57.58,57.58,0,0,0,10.56,8.82,56.67,56.67,0,0,0,17.24,6.93c12.83,2.77,26.12,1.17,38.8-1.59,6-1.3,11.86-3,17.79-4.44a171,171,0,0,1,22.82-4,156.8,156.8,0,0,1,34.31-.23,173.58,173.58,0,0,1,19.89,3.4q7.49,2,14.87,4.19c7.61,2.12,15.36,4.36,23.29,4.79A70.43,70.43,0,0,0,229.53,91a47.5,47.5,0,0,0,16.6-4.75,23.27,23.27,0,0,0,7.8-6.69c2.47-3.29,3.26-7.45,3.24-11.47,0-4.56-1.45-8.43-3.45-12.43a35.57,35.57,0,0,0-8.78-11.37c-5.91-5.06-13.32-8.33-20.69-10.64a109.65,109.65,0,0,0-20.7-4.11c-9.52-1-19.08-1.76-28.64-2.38-11.74-.75-23.51-1.15-35.24-2q-11.52-.81-23-2.39a212.79,212.79,0,0,1-22.79-4.45c-.87-.19-.06,1.19.41,1.29A212.71,212.71,0,0,0,117.12,24q11.41,1.57,22.89,2.37c17.75,1.33,35.55,1.74,53.28,3.35,6.7.61,13.42,1.06,20.05,2.26q5.31,1,10.5,2.48,25.68,6.26,30.84,37l-1.16,3.57a20.49,20.49,0,0,1-4.11,5.12c-4.84,4.51-12.21,6.46-18.48,7.41a76.68,76.68,0,0,1-9.69.76c-7.26.17-14.38-1.11-21.42-2.78-9.24-2.18-18.23-5.11-27.57-6.87A161.27,161.27,0,0,0,138,75.79,169,169,0,0,0,104.24,80c-4.07,1-8.11,2-12.17,3-11.53,2.85-23.34,5.32-35.27,4.91a57.42,57.42,0,0,1-22-4.84A48.25,48.25,0,0,1,17.23,69.38,49.68,49.68,0,0,1,10.74,60a33.65,33.65,0,0,1,.6-9.91A24.76,24.76,0,0,1,27,32.83c10.08-3.64,21.19-3.41,31.67-1.92a95.1,95.1,0,0,1,25.53,7.56c9.15,4.11,17.82,9.69,27.4,12.78a83.17,83.17,0,0,1,8.47,2.52q2.39.84,4.8,1.55c2.63.79,6,1.57,8.68.43,2.24-1,3.4-3.79,3.77-6.07.81-4.89-2.23-9.76-4.57-13.8-3.45-6-8.37-12-9.33-19-.1-.68-.94.29-1,.37C122.05,17.63,120.64,18.86,120.74,19.49Z"/>
    <path class="cls-1" d="M123.18,15.58c.69,5.92,4.23,11.06,7.26,16.06s6,9.77,6.79,15.5l0-.43L136.79,49,142,38.44l-8.21,13.18,8.38-10.23-15.37,9.9,11.3-5.23-13.38,4.3,9.77-2.65-13.32,2.2,10.26-1-15,.35,10,.57-14.82-1.69,9.86,2.06A107,107,0,0,1,96.4,42.42l-4.79-2.09c-4.62-2-9.28-3.9-14-5.59a92.49,92.49,0,0,0-18.94-4.45c-8-1.06-16.17-1.35-24.11.15a34.19,34.19,0,0,0-10.79,3.79,21.37,21.37,0,0,0-8.17,8,18.92,18.92,0,0,0-2.64,5.84,25.1,25.1,0,0,0-.82,7.05q-.85,5.19,4,8.76a44.79,44.79,0,0,0,8.92,9.77A53.63,53.63,0,0,0,56.29,85.54c21.08,1.13,40.87-6.67,61.48-9.55a164.55,164.55,0,0,1,59.8,2.35c7.65,1.77,15.09,4.3,22.72,6.13a84.63,84.63,0,0,0,18.45,2.81A62.77,62.77,0,0,0,237.59,85c6.19-1.87,12.19-5.24,15.1-11.28,1.61-3.34,1.35-7.74.73-11.3a38.77,38.77,0,0,0-3.52-8.72l-3-4.2c-3.27-4.16-7.81-7.14-12.38-9.69a70.08,70.08,0,0,0-14.81-5.73,118.46,118.46,0,0,0-16.38-3.29c-10.69-1.54-21.55-2.13-32.32-2.82-11.63-.74-23.26-1.36-34.86-2.4q-8.62-.69-17.19-1.92a224.31,224.31,0,0,1-22.86-4.41,2,2,0,0,0,.67,1.23c1.08,1.34,2.18,2.66,3.32,3.95s2.27,2.6,3.44,3.85a2,2,0,0,0,1.12.84q11.43,2.61,23,4.19l11.37,1.4c13.14,1.51,26.35,2.3,39.52,3.47q8.61.75,17.2,1.59a25.32,25.32,0,0,1,13.88,1.73c3.44,1.37,7.08,2.19,10.54,3.55a50.69,50.69,0,0,1,11.68,6.25l2.63,2a56.7,56.7,0,0,1,4.09,4.67l1.18,2.71a6.89,6.89,0,0,1,1,4.24l.19,1.93a4.59,4.59,0,0,1-1.63,3.07,12.8,12.8,0,0,1-5.09,3.48,35.91,35.91,0,0,1-8,2.48c-5.55,1-11.42.69-17,.28-14.23-1-28-5.34-41.95-8a176.89,176.89,0,0,0-30.91-2.73,173.32,173.32,0,0,0-35.57,3.3C92.2,70.32,83.54,71.9,74.88,73c-8.86,1.09-18.32,1.55-27-1l-3.52-1.13c-2.19-1-4.33-2-6.41-3.19l-2.77-2.19a16.37,16.37,0,0,1-5.13-4.74l-2.91-3.16Q23.78,54.78,25.2,51a16.6,16.6,0,0,1,4.09-7c4.47-4.13,11.4-5,17.22-5.37a109.87,109.87,0,0,1,22.9,1.53,153.66,153.66,0,0,1,21.07,4.9c4.31,1.29,8.72,2.39,13.11,3.35,2.7.61,5.41,1.16,8.14,1.63a191,191,0,0,0,23.56,1.37,2.4,2.4,0,0,0,1.06-1.12q1.59-2.34,3.1-4.74c1-1.6,2-3.21,3-4.84a2.32,2.32,0,0,0,.55-1.43,29.55,29.55,0,0,0-.09-4.1,21,21,0,0,0-1.14-4.27,98.56,98.56,0,0,0-3.85-9.34c-2.32-5.23-4.86-10.7-4.4-16.55a2.55,2.55,0,0,0-1.29.89q-2.1,2-4.13,4.11t-4,4.21A2.57,2.57,0,0,0,123.18,15.58Z"/>
    <path class="cls-1" d="M123.8,13.7c.67,5.82,4.14,10.89,7.1,15.81s5.95,9.75,6.76,15.45l0-.38L136.86,48,142.7,37.3,129.93,50.08l10.51-5.85-16.25,5.11,10.51-1.76-13.2,1.07,10.11.22-16-.89,8.9,1.42-13.77-2.72,3,.84a132.39,132.39,0,0,1-17.51-6.63q-3.58-1.64-7.19-3.21c-4.86-2.14-9.77-4.18-14.81-5.85a92.1,92.1,0,0,0-21.83-4c-9-.69-19-.3-27.25,3.83A22.7,22.7,0,0,0,16.62,39c-3.07,4.49-4.15,9.35-4.17,14.71q-.73,5.2,4.19,8.71a45.67,45.67,0,0,0,9,9.55,53.35,53.35,0,0,0,14.77,8.44c10.93,4,22.9,4,34.29,2.48,9.8-1.36,19.28-3.93,28.93-6a206.31,206.31,0,0,1,24.22-3.65,161.75,161.75,0,0,1,19.69-.51,159,159,0,0,1,19.72,2l-.38-.07,10.58,2-.38-.09,7.87,2-.37-.1c11.09,3.08,22.43,6.73,34,7a66.77,66.77,0,0,0,17.26-1.79c5.23-1.28,10.37-3.47,14.08-7.47a15.44,15.44,0,0,0,3.84-7.28,21.45,21.45,0,0,0-1.27-12.29,33.31,33.31,0,0,0-6.85-10.82,42,42,0,0,0-10.77-8c-7.72-4.13-16.4-6.41-25-8-7-1.25-14.14-1.91-21.15-2.5-9.86-.81-19.74-1.39-29.61-2-9.63-.58-19.3-1.11-28.89-2.18l-11.45-1.4A225.45,225.45,0,0,1,96,17.32a2.51,2.51,0,0,0,.67,1.41q1.63,2.4,3.36,4.72t3.48,4.63a2.46,2.46,0,0,0,1.15,1.06q11.42,2.61,23,4.2,8.49,1.19,17,1.95c13.14,1.29,26.31,2.18,39.46,3.38l11.54,1.09A28.23,28.23,0,0,1,211,42c3.7,1.16,7.43,2.06,11,3.54,6.47,2.64,13.14,6.36,17.06,12.34a41.45,41.45,0,0,1,2,5.06q0,1.53.12,3.06c.15,2.13-1,3.26-2.32,4.74-1.78,1.92-4.5,2.94-6.94,3.77a36.29,36.29,0,0,1-8.44,1.8A89.72,89.72,0,0,1,206.66,76c-9.36-.91-18.53-3.25-27.69-5.29q-5.85-1.33-11.74-2.5a145.91,145.91,0,0,0-15.71-2,180.18,180.18,0,0,0-35.14.21l-10.19,1.29q-7,1.56-14,2.63c-7.88,1.32-15.72,2.8-23.71,3.33-8.55.57-17.87,0-25.64-4-1.51-.75-3-1.52-4.48-2.33a44.71,44.71,0,0,0-5.4-4l-2.39-2.53a23.2,23.2,0,0,1-5.46-6.94c-.34-2.25,1.33-5.88,2.53-7.68a15,15,0,0,1,6.44-5,31.16,31.16,0,0,1,9-2.15,68.43,68.43,0,0,1,12.8-.29,147.31,147.31,0,0,1,24.37,3.45c3.59.82,7,2,10.5,3,5,1.49,10.25,2.77,15.4,3.84,1.95.4,3.89.83,5.85,1.12a84.07,84.07,0,0,0,10.4.8,48.08,48.08,0,0,0,10.24-1.65l-3.09.12,6.31,0a1.87,1.87,0,0,0,1-.9c1-1.31,2-2.64,2.9-4s1.88-2.7,2.78-4.08a1.91,1.91,0,0,0,.5-1.24,32.82,32.82,0,0,0-.12-4.09,20.94,20.94,0,0,0-1.14-4.26c-1.05-3.21-2.45-6.26-3.81-9.35-2.27-5.16-4.8-10.61-4.39-16.38a2,2,0,0,0-1.22.67q-2,1.62-3.9,3.33c-1.29,1.12-2.56,2.26-3.8,3.44A2,2,0,0,0,123.8,13.7Z"/>
    <path class="cls-1" d="M121.79,17.41c.78,6,4.51,11.18,7.62,16.19s7.33,10.88,6.65,17.06l.68-2.07-1.16,2.9,3.21-6.29-3.67,6.11,3-4.47L136,49.18l1.42-1.38a24.52,24.52,0,0,1-14,2.88A103.69,103.69,0,0,1,92.35,41a175.85,175.85,0,0,0-16.46-7.09A88.47,88.47,0,0,0,55.43,29.3a72.37,72.37,0,0,0-24.21.94C25.46,31.57,19.84,34.32,16,38.87a24.88,24.88,0,0,0-5.92,14.34L10,58.48A74.39,74.39,0,0,0,18.61,71,51.24,51.24,0,0,0,33.88,82.52a57.3,57.3,0,0,0,16.79,5c11.43,1.73,23.49-.17,34.66-2.65s21.91-5.61,33.21-7.21a112.52,112.52,0,0,1,19.83-1.36,102.06,102.06,0,0,1,19.46.47,170.38,170.38,0,0,1,27.52,5.31c11.55,3.15,23.19,7.19,35.32,7.06,12.71-.13,30.54-3,34.2-17.5,1.1-4.37.18-8.83-1.16-13A32.22,32.22,0,0,0,242.37,43c-6.86-5.27-14.79-8.48-23.11-10.6a122.9,122.9,0,0,0-14.75-2.67c-9.51-1.22-19.19-1.8-28.76-2.42-11.7-.76-23.42-1.24-35.12-2.08q-11.5-.81-22.94-2.38a218.9,218.9,0,0,1-22.83-4.4c-.89-.2.73,1.52.59,1.36.6.65,1.22,1.29,1.86,1.9a3.35,3.35,0,0,0,1.09.86,229,229,0,0,0,22.9,4.29q11.37,1.52,22.8,2.34c15.38,1.18,30.81,1.94,46.2,3.05a69.11,69.11,0,0,1,16.44,1.49c3,.39,5.95.9,8.9,1.52,9.53,2.09,20.35,5.79,27.28,13.23,6.51,7,10.28,19.37,2.48,26.86-2.75,2.63-6.67,4.23-10.23,5.37a45.86,45.86,0,0,1-12.36,2,96,96,0,0,1-11.38-.2c-13.1-1.1-25.59-5.61-38.39-8.27a170.91,170.91,0,0,0-60.43-1.36c-13.21,2-26.07,6-39.32,7.75C61.11,82.31,48.39,82.27,37,77A40.74,40.74,0,0,1,22.76,66.14a45.68,45.68,0,0,1-6.59-10.59,20.72,20.72,0,0,1,1.3-7.64c3-8.39,9.33-12.3,18.36-14.23a62.18,62.18,0,0,1,15.41-1,104.54,104.54,0,0,1,28.38,5C85.88,39.79,92,42.38,98.1,44.82a135.28,135.28,0,0,0,15.54,5.73q4.14.91,8.26,1.89c3.53.83,8.65,2.77,12.28,1a5.81,5.81,0,0,0,2.64-2.93,25.49,25.49,0,0,0,2.72-5.7,12.26,12.26,0,0,0-.63-6.26A51.85,51.85,0,0,0,134.63,29c-3-5.6-6.85-11.46-6.82-18a1.08,1.08,0,0,0-.84.47c-.84.8-1.66,1.62-2.44,2.47C124.05,14.47,121.66,16.42,121.79,17.41Z"/>
    <path class="cls-1" d="M121.47,15.29c.93,4.62,3.36,8.6,5.82,12.57,2.17,3.52,4.56,6.94,6.5,10.59a38,38,0,0,1,2.14,4.79,7.22,7.22,0,0,1-.21,6.82l.85-1.21a13.61,13.61,0,0,1-10.49.77,61.51,61.51,0,0,1-6.82-1.77A42.6,42.6,0,0,1,109,44.14a71.92,71.92,0,0,1-14.43-5.89c-8.83-4.43-17.76-8.78-27.44-11a89.32,89.32,0,0,0-27.69-2.18c-5.28.48-10.9,1.51-15.62,4a26.43,26.43,0,0,0-9.47,8,28.69,28.69,0,0,0-4.08,8.49,26.64,26.64,0,0,0-.78,7.84,5,5,0,0,0,.05,3,72.56,72.56,0,0,0,9.33,13,59.1,59.1,0,0,0,10.46,8.66c8.38,5.54,18.78,7.86,28.71,8.23,12.37.46,24.64-2.13,36.55-5.19,4-1,8.06-2.17,12.13-3.15a160.87,160.87,0,0,1,33.94-4.17,139.21,139.21,0,0,1,43,5.26q5.66,1.48,11.25,3.2c8.09,2.3,16.47,4.72,24.95,4.91a65.8,65.8,0,0,0,20.55-2.63c5.39-1.64,10.68-4.57,14-9.24,6.64-9.3,2.26-22.34-4.35-30.34-8.55-10.35-22.54-15.16-35.28-17.65-3.26-.64-6.56-1.09-9.86-1.49-9.51-1.16-19.14-1.82-28.7-2.4-11.73-.72-23.49-1.18-35.21-2.07q-11.52-.81-23-2.38a216,216,0,0,1-22.81-4.41c-.74-.16.17,1.19.18,1.21.34.56,1.22,2.38,2,2.54a224.32,224.32,0,0,0,22.83,4.28q11.38,1.53,22.85,2.34c15.62,1.19,31.27,1.8,46.89,3,15.42,1.22,31.8,2.44,45.7,10,6.21,3.37,11.79,8,15.19,14.32,2.66,4.92,4.08,10.74,2.86,16.3-2.19,10-13.13,14-22,15.51a70.67,70.67,0,0,1-12.25.93c-8.8,0-17.45-2.42-25.87-4.75s-16.76-4.72-25.52-6.15A161.69,161.69,0,0,0,148,72a165.75,165.75,0,0,0-40.29,3.47c-4.34.92-8.61,2.11-12.89,3.26-12,3.21-24.42,6.14-36.91,5.76-14.47-.44-27.83-5.15-37.65-16a28.19,28.19,0,0,1-8.15-17.31l.9-4.54a29.92,29.92,0,0,1,4.57-7.84,18.81,18.81,0,0,1,6.21-5.39c7.76-4.63,17.61-5.29,26.42-5A106.15,106.15,0,0,1,75.81,32.5C87.45,35.87,98.07,41.89,109.44,46c2.72,1,5.24,1.58,8,2.34,4.21,1.15,8.26,3,12.65,3.56,2.85.34,5.64,0,7-2.72,1.67-3.45.58-6.82-.87-10.17-3.71-8.51-10.7-15.61-12.9-24.81C123.11,13.37,121.38,14.84,121.47,15.29Z"/>
    <path class="cls-1" d="M122.84,17.31c.64,5.5,3.76,10.25,6.58,14.91s5.86,9.45,7.44,14.88l-.08-.37a8.23,8.23,0,0,1,.08,3.79l1.86-5.6-2.25,6.17,4-8.89-5,9.88,5.17-8.79-8.66,9.61,6.73-6.51-3.72,2.5,2.16-1.33a36.75,36.75,0,0,1-20.17,2.68l5.39.1-10.24-1.26,5.19.85L106,47.22,112.11,49a172.73,172.73,0,0,1-20.43-8l-5.27-2.34c-3.89-1.69-7.86-3.2-11.87-4.56a89.39,89.39,0,0,0-21.92-4c-13.21-.94-29.91.17-37.48,12.73A26.05,26.05,0,0,0,11.5,56c-.59,3.54.73,6.55,4,9.06a47.07,47.07,0,0,0,9,10.23A48.7,48.7,0,0,0,40.05,84.5,61.06,61.06,0,0,0,56.7,87.7c10.54.48,21-1.09,31.2-3.44s20.3-5.09,30.77-6.55a162.45,162.45,0,0,1,59.73,2.45c7.62,1.8,15,4.36,22.64,6.2a83.45,83.45,0,0,0,18.45,2.82,62.32,62.32,0,0,0,18.92-2.41c6.3-1.93,12.29-5.4,15.23-11.55,1.67-3.5,1.4-7.85.77-11.57-.83-4.91-3.44-9.54-6.4-13.47-3.31-4.38-8-7.53-12.7-10.21A68.81,68.81,0,0,0,220,34.09a116,116,0,0,0-16.64-3.15c-10.78-1.38-21.69-2-32.54-2.65C159.27,27.58,147.67,27,136.09,26q-8.55-.68-17-1.89a221.84,221.84,0,0,1-22.85-4.38c-1-.23,1.15,2,1,1.78.85.92,1.72,1.82,2.6,2.71a6.74,6.74,0,0,0,1.49,1.28q11.37,2.67,23,4.23l11.39,1.37c11.44,1.26,23,1.88,34.44,2.7q8.65.57,17.3,1.36,11,.86,21.9,2.33a85.69,85.69,0,0,1,12.6,3.35,50.76,50.76,0,0,1,12.26,6c3.33,2.39,6.75,5.23,8.69,8.91A19.39,19.39,0,0,1,245.31,64c.08,2.62.14,4.84-1.46,7.05a13.53,13.53,0,0,1-5.18,4.49,40.86,40.86,0,0,1-8.07,3c-5.29,1.33-10.75,1.24-16.16,1.13C202,79.42,189.79,75.79,177.73,73a176.43,176.43,0,0,0-58.12-3.86l-10.16,1.25q-7,1.52-14.16,2.75c-3.79.72-7.56,1.53-11.36,2.23-8.07,1.49-16.19,2.68-24.42,2.53S43.2,76.13,35.94,72.08a37.37,37.37,0,0,1-10.08-8.66A33.3,33.3,0,0,1,20,54.49L20.43,51a19.52,19.52,0,0,1,4.43-8.6,18.56,18.56,0,0,1,7.94-4.86A42.52,42.52,0,0,1,43,35.49a50.78,50.78,0,0,1,9.47,0,66.13,66.13,0,0,1,9.64.62,117.27,117.27,0,0,1,20.55,4.37c9.32,3,18.49,6.44,28,8.79l-4.86-1.47c2.31.83,4.58,1.67,6.94,2.35,3.5,1,7.08,1.55,10.64,2.31,1.84.39,3.66.9,5.5,1.23,3.31.6,3.57-.1,7.34-1.29a1.82,1.82,0,0,0,.79-1.06c.51-1,1-2.06,1.46-3.11.6-1.3,1.18-2.61,1.74-3.92a14.89,14.89,0,0,0,1-2.79c.08-5.3-2.2-10-4.52-14.7C133.88,21,130.21,15,130.54,8.3a1.72,1.72,0,0,0-1,.75q-1.59,1.72-3.11,3.51c-1,1.18-2,2.38-3,3.61A1.71,1.71,0,0,0,122.84,17.31Z"/>
    <path class="cls-1" d="M123.33,14.63c.69,5.87,4.2,11,7.2,15.92s6,9.75,6.78,15.47l0-.41-.8,3.41,6.22-11.71L129.49,50.9l10.9-6.62L123.82,50l10.81-2.41-13.45,1.64,10.37-.38-15.15-.25,10.17,1.19-15-2.33,8,2.11a169.64,169.64,0,0,1-28.14-10.1l-4.75-2.06c-3.18-1.35-6.41-2.57-9.66-3.74a92,92,0,0,0-20.55-4.63,71.59,71.59,0,0,0-24.08.83,32.18,32.18,0,0,0-10.47,4.42,22.27,22.27,0,0,0-7.51,8.9,21.72,21.72,0,0,0-2.25,8.65l-.06,5a80.51,80.51,0,0,0,8.5,11.6l4.64,4.28c8.67,7.42,19.73,10.85,30.93,11.73,10.28.81,20.66-.9,30.68-3,4.32-.92,8.6-2,12.9-3a195,195,0,0,1,22.88-3.93,160.17,160.17,0,0,1,58.47,3.83c12.7,3.3,25.59,8,38.87,7.91a59.59,59.59,0,0,0,18.95-2.76c6-2.07,12.26-5.74,14.1-12.26,2.53-8.91-1.68-18.07-7.77-24.5C237.85,39,227.27,35,217.12,32.41,202.06,28.56,186.21,28,170.79,27c-11.63-.74-23.27-1.35-34.88-2.39q-8.62-.69-17.19-1.92a225.41,225.41,0,0,1-22.86-4.42,2.31,2.31,0,0,0,.7,1.33q1.66,2.2,3.42,4.35t3.54,4.26a2.25,2.25,0,0,0,1.16.95q11.41,2.61,23,4.19l11.37,1.4c13.13,1.51,26.33,2.3,39.49,3.46q8.59.73,17.19,1.58a25.35,25.35,0,0,1,13.89,1.7c3.45,1.35,7.09,2.14,10.56,3.47A49.78,49.78,0,0,1,232,51.16l2.67,2a45.11,45.11,0,0,1,4.09,4.75L240,60.68a6.84,6.84,0,0,1,.89,4.26l.17,1.91a4.57,4.57,0,0,1-1.67,3.05,12.8,12.8,0,0,1-5.11,3.45,35.21,35.21,0,0,1-8,2.47c-5.56.94-11.45.68-17,.27-14.24-1-28-5.36-42-8a177.74,177.74,0,0,0-30.9-2.72,174.57,174.57,0,0,0-35.56,3.31C92.14,70.33,83.47,71.91,74.79,73c-8.85,1.07-18.27,1.44-26.9-1.19l-3.44-1.14c-2.12-1-4.21-2-6.26-3.15L35.5,65.34a15.72,15.72,0,0,1-5.14-4.56l-3-3.15c-2.27-1.83-2.94-4-2-6.56a16.31,16.31,0,0,1,4-7c4.45-4.13,11.36-5,17.16-5.37a109,109,0,0,1,22.88,1.52,153.56,153.56,0,0,1,21.38,5c4.24,1.27,8.59,2.33,12.92,3.28q4,.9,8,1.6a97,97,0,0,0,23.72.28,2.15,2.15,0,0,0,1.05-1c1-1.44,2.08-2.9,3.07-4.38s2-3,2.94-4.48a2.08,2.08,0,0,0,.55-1.34,29.52,29.52,0,0,0-.11-4.1,20.86,20.86,0,0,0-1.14-4.27c-1.06-3.21-2.46-6.26-3.82-9.34-2.29-5.19-4.82-10.64-4.38-16.44a2.28,2.28,0,0,0-1.27.78c-1.4,1.21-2.76,2.46-4.11,3.73s-2.69,2.53-4,3.84A2.21,2.21,0,0,0,123.33,14.63Z"/>
    <path class="cls-1" d="M123.3,16.4c.7,5.94,4.3,11.13,7.36,16.14s7.22,10.86,6.64,17l1.55-4.82-2,5.53,3.41-7.62-4.47,8.65,4.51-7.49-8,8.37,5.93-5.39-3.56,2.14,1.93-1.05L121.8,50.35l5-.28L117,49.65l4.85.45-10.93-1.88,5.91,1.35-10.66-3.08,4.45,1.6q-7.11-2.52-14-5.69-5-2.3-10-4.52c-3.9-1.66-7.83-3.26-11.85-4.58a89.9,89.9,0,0,0-22.05-4.06c-8-.51-16.14-.23-23.83,2.3-4.8,1.58-9.55,4.5-12.43,8.73a26.39,26.39,0,0,0-4.59,12.41,7.77,7.77,0,0,0,1.9,8.37,56.83,56.83,0,0,0,6.4,8.88,50.47,50.47,0,0,0,17.5,12.52c11.22,4.9,23.68,5.27,35.67,3.76,10.77-1.35,21.13-4.42,31.69-6.77a181.63,181.63,0,0,1,24.21-3.67,156,156,0,0,1,39.37,1.58l-.33-.07,10.5,2-.33-.08c12.72,3.36,25.51,8,38.71,9A64.75,64.75,0,0,0,234,87.1c5.36-1,10.81-2.79,15.09-6.29a18.82,18.82,0,0,0,5.11-6.34c1.56-3.18,1.65-8.26.88-11.61a34.62,34.62,0,0,0-14.59-20.93c-7.53-5.16-16.38-8-25.21-10a126.9,126.9,0,0,0-13.6-2.12c-10.14-1.14-20.35-1.77-30.53-2.39-9.72-.59-19.46-1-29.16-1.81l-11.5-1a232.8,232.8,0,0,1-34-5.73c-1-.23,1,2,.86,1.83.78,1,1.59,1.92,2.42,2.86a6.27,6.27,0,0,0,1.4,1.37c8.72,1.83,14.39,3,23.22,4.28,11.34,1.58,22.75,2.43,34.16,3.26s23.07,1.57,34.58,2.65c8.59.81,16.36,1.56,24.48,3.8,8.6,2.36,17.27,6.3,23.33,13a21.56,21.56,0,0,1,5,10.27,13.87,13.87,0,0,1-.67,7.83,13,13,0,0,1-4.74,5.06,30.91,30.91,0,0,1-7.7,3.3C227.08,80.22,221,80.14,215,80c-12.47-.23-24.65-3.89-36.7-6.73A178.73,178.73,0,0,0,115.17,70C95.3,72.4,75.58,79.83,55.32,78.22A48.69,48.69,0,0,1,41.94,75.4a40.75,40.75,0,0,1-11.61-6.72A38.42,38.42,0,0,1,20.82,57a5.36,5.36,0,0,1-.92-6.09,20.6,20.6,0,0,1,1.83-4.67c3.08-6.33,9.12-9.14,15.75-10.43C46.27,34.05,55.15,34.72,64,36a109.89,109.89,0,0,1,14.17,2.68c3.78,1,7.43,2.35,11.14,3.59,8.68,2.89,17.19,5.89,26.17,7.71l-4.68-1.13c5.33,1.53,10.71,2.53,16.15,3.58a22,22,0,0,0,4.92.67,12.23,12.23,0,0,0,4.86-1.66,1.42,1.42,0,0,0,.73-.89c.44-.87.87-1.76,1.26-2.66q.78-1.67,1.5-3.36a12.12,12.12,0,0,0,.88-2.4c.15-5.28-2.16-10-4.49-14.63-2.92-5.8-6.76-11.94-6.51-18.65a1.33,1.33,0,0,0-.93.6c-.94,1-1.85,1.94-2.73,2.95s-1.76,2-2.6,3.05A1.36,1.36,0,0,0,123.3,16.4Z"/>
    <path class="cls-1" d="M121.18,20.17c1,6.2,4.94,11.4,8.23,16.61a88.52,88.52,0,0,1,4.53,7.69A27.08,27.08,0,0,1,135.52,48a8.43,8.43,0,0,1,.48,5.73l.76-2.24-1.34,3.2,1.25-2.19c-2.66,1.86-5.3,2.14-8.53,1.86a35.57,35.57,0,0,1-6.36-1.24,81.05,81.05,0,0,0-8.67-2.23c-6.74-1.91-13-5.32-19.18-8.47-4.59-2.32-9.18-4.68-13.94-6.67a89.93,89.93,0,0,0-29.18-6.64c-8.19-.51-16.48,0-24.25,2.78a27.5,27.5,0,0,0-10.3,6.41A26.42,26.42,0,0,0,9.81,50.18c-.5,2-1.32,8.69-.7,10.65a.35.35,0,0,0,.1.34L13.56,68a53.51,53.51,0,0,0,21,17.91,59.39,59.39,0,0,0,23.29,5.31C71,91.68,84,88.7,96.61,85.42c4.47-1.16,8.92-2.37,13.44-3.29a159,159,0,0,1,77.32,3c8.87,2.5,17.58,5.27,26.75,6.45A64.32,64.32,0,0,0,233.8,91c8.44-1.51,17.16-4.75,21.64-12.55s1.94-17.74-2.4-24.95c-5.72-9.51-15.43-15-25.58-18.56-12.84-4.54-26.48-5.56-40-6.65-15.76-1.28-31.58-1.69-47.34-2.88q-11.52-.81-23-2.4A212.3,212.3,0,0,1,94.42,18.6c-.63-.13-.4.87.09,1A210.49,210.49,0,0,0,117.31,24q11.41,1.57,22.91,2.37c15.69,1.17,31.43,1.48,47.11,2.77,7.09.59,14.25,1.06,21.3,2,14.41,2,30.85,6.43,40.31,18.24a31.69,31.69,0,0,1,5.39,9.62l1,12.91c-.78,4.51-4.23,8.4-7.94,10.87C242,86.41,234.66,88,228.48,88.57a83.53,83.53,0,0,1-9.36.41c-8.87-.13-17.55-2.44-26.05-4.73q-7.42-2.13-14.94-4L168,78.37a163.86,163.86,0,0,0-66.93,3c-23,5.79-49.29,12.91-71.23-.4a55,55,0,0,1-10.11-8.14q-9.48-7.45-3.62-19.73-4.09-11.38,4.07-16.54a31.08,31.08,0,0,1,14.39-5.72c9.18-1.71,18.92-1,28.06.69C72.75,33.39,82.2,37.3,91.29,42c5.29,2.71,10.55,5.62,16,7.9A55.5,55.5,0,0,0,117,53q3.47,1.13,6.91,2.3c3,1,10,3.48,12.13-.25a12.11,12.11,0,0,0,1.71-5.84c0-4.24-2.36-8.28-4.47-11.82-3.67-6.16-8.59-12.16-10-19.34C123.15,17.34,121.08,19.56,121.18,20.17Z"/>
  </g>
  <g>
    <path d="M38.77,78.39a10.24,10.24,0,0,1-5.66-1.48,9.18,9.18,0,0,1-3.42-4,16.86,16.86,0,0,1-1.35-6l4.87-1.31a22.22,22.22,0,0,0,.64,4,7.35,7.35,0,0,0,1.67,3.2,4.25,4.25,0,0,0,3.26,1.25A4.14,4.14,0,0,0,42,72.86a4.89,4.89,0,0,0,1.11-3.43,7.07,7.07,0,0,0-1.21-4.32,23.41,23.41,0,0,0-3-3.3l-6.6-5.87A11,11,0,0,1,29.4,52.2a11.94,11.94,0,0,1-.92-5A8.91,8.91,0,0,1,31,40.48a9.31,9.31,0,0,1,6.76-2.37,12.51,12.51,0,0,1,4.11.62,7.17,7.17,0,0,1,3,1.88,9,9,0,0,1,1.89,3.2,18.1,18.1,0,0,1,.94,4.51L43,49.58A19.11,19.11,0,0,0,42.39,46a5.19,5.19,0,0,0-1.52-2.63,4.47,4.47,0,0,0-3.14-1,4.4,4.4,0,0,0-3.18,1.09,4.26,4.26,0,0,0-1.15,3.24,6.31,6.31,0,0,0,.6,3,8.82,8.82,0,0,0,2,2.39l6.65,5.87a20.83,20.83,0,0,1,3.93,4.66A11.78,11.78,0,0,1,48.22,69,10,10,0,0,1,47,74a8.2,8.2,0,0,1-3.34,3.24A10.37,10.37,0,0,1,38.77,78.39Z"/>
    <path d="M52.48,78l.09-39.5,15.27,0v4.1l-9.77,0,0,13.07,7.92,0v3.9l-7.92,0,0,14.49,9.87,0v4Z"/>
    <path d="M92.69,78.52A10.24,10.24,0,0,1,87,77,9.15,9.15,0,0,1,83.61,73a17,17,0,0,1-1.35-6l4.87-1.3a21.4,21.4,0,0,0,.65,4,7.2,7.2,0,0,0,1.67,3.2,4.26,4.26,0,0,0,3.25,1.25A4.2,4.2,0,0,0,95.94,73,4.92,4.92,0,0,0,97,69.55a7.06,7.06,0,0,0-1.21-4.31,21.32,21.32,0,0,0-3-3.3l-6.6-5.87a11,11,0,0,1-2.86-3.74,12,12,0,0,1-.91-5,8.9,8.9,0,0,1,2.49-6.72,9.37,9.37,0,0,1,6.77-2.38,12.76,12.76,0,0,1,4.1.62,7.22,7.22,0,0,1,3,1.89,9.2,9.2,0,0,1,1.89,3.2,18.48,18.48,0,0,1,.93,4.51l-4.67,1.26a19.13,19.13,0,0,0-.57-3.59,5.35,5.35,0,0,0-1.53-2.64,4.51,4.51,0,0,0-3.13-1,4.37,4.37,0,0,0-3.19,1.09,4.29,4.29,0,0,0-1.15,3.24,6.49,6.49,0,0,0,.6,3,8.85,8.85,0,0,0,2,2.4L96.53,58a20.89,20.89,0,0,1,3.93,4.67,11.87,11.87,0,0,1,1.69,6.42,10.06,10.06,0,0,1-1.23,5,8.33,8.33,0,0,1-3.34,3.24A10.37,10.37,0,0,1,92.69,78.52Z"/>
    <path d="M110.73,78.12l.08-35.4-6.66,0V38.6l18.62,0v4.09h-6.46l-.09,35.4Z"/>
    <path d="M132.51,78.17l0-14L124.1,38.65h5.1l6,19.08,6-19.05h5.16L137.8,64.24l0,13.94Z"/>
    <path d="M149.87,78.21l.09-39.5,5.5,0-.09,35.54,10.07,0v4Z"/>
    <path d="M169.17,78.26l.1-39.5,15.26,0v4.1l-9.77,0,0,13.07h7.93v3.91l-7.93,0,0,14.48,9.87,0v4Z"/>
    <path d="M193.29,78.31l.08-35.4h-6.66V38.8l18.62,0v4.1l-6.46,0-.09,35.41Z"/>
    <path d="M209.34,78.35l.09-39.5,5.4,0-.1,39.5Z"/>
    <path d="M221.1,78.38l.1-39.5h5.49l-.08,35.55,10.06,0v4Z"/>
    <path d="M240.4,78.43l.1-39.5,15.26,0v4.1L246,43l0,13.06,7.93,0V60h-7.93l0,14.48,9.87,0v3.95Z"/>
  </g>
</svg>
